<?xml version="1.0" encoding="utf-8"?>
<!-- Generator: Adobe Illustrator 23.0.4, SVG Export Plug-In . SVG Version: 6.00 Build 0)  -->
<svg version="1.1" id="Layer_1" xmlns="http://www.w3.org/2000/svg" xmlns:xlink="http://www.w3.org/1999/xlink" x="0px" y="0px"
	 viewBox="0 0 181 99.9" style="enable-background:new 0 0 181 99.9;" xml:space="preserve">
<style type="text/css">
	.st0{display:none;}
	.st1{display:inline;}
</style>
<g class="st0">
	<g class="st1">
		<path d="M4.7,118.9l204.3,0c2.4,0,4.6-1.4,5.4-3.6c1.2-3.7-1.6-7.2-5.1-7.2h-11.9c3.5-12.1,8.6-26.4,16.2-37c0,0,0-0.3,0.3-0.3
			v-0.9c0,0-0.5-1.9-0.5-3c0-3-2.4-5.4-5.4-5.4c-0.8,0-1.6,0.3-2.2,0.5c-1.3,0.5-15.9,7-30,20c-2.2-7.8-4.3-18.1-5.4-30
			c-0.3-2.2-1.9-4.3-4-4.9c-2.2-0.5-4.6,0.3-5.9,2.2c-0.3,0.5-6.2,9.4-12.4,22.1c-5.1-22.4-1.9-48-1.6-48.3c0.3-2.7-1.1-5.1-3.5-5.9
			c-2.4-0.8-5.1,0.3-6.5,2.4l-40.5,71c-4.6-39.4,6.7-85.3,7-85.8c0.5-2.4-0.5-4.9-2.7-6.2c-2.2-1.1-4.9-0.5-6.5,1.3
			c-15.9,18.9-25.4,42.4-31,63.1c-5.7-15.1-10.3-24-10.5-24.6c-1.3-2.4-4-3.5-6.5-2.7c-2.4,0.8-4,3.5-3.5,6.2
			c1.1,5.4,1.3,20.5,1.1,42.4C33.6,69.1,25,58.3,24.4,57.8c-1.6-2.2-4.6-2.7-7-1.3c-2.4,1.3-3.2,4.3-2.2,6.7
			c7.8,17.8,8.9,32.9,8.1,44.9H5c-3-1.5-5.4,1-5.4,3.9C-0.4,115,4.7,118.9,4.7,118.9z M193.9,82.2c-3.8,8.9-6.7,17.8-8.9,25.9h-16.7
			c2.4-4,5.4-7.8,8.9-11.3l0.3-0.3C182.8,90.5,188.8,85.9,193.9,82.2z M161.8,69.5c1.6,8.6,3.5,16.2,5.4,22.1
			c-4.6,5.1-8.4,10.5-11.3,16.5h-8.6c1.1-5.7,2.7-11.6,5.4-18.1C155.3,82.2,158.8,75.1,161.8,69.5z M141.5,88.1
			c-2.7,7-4.3,13.8-5.4,20h-37l35.1-61.8C134.5,59,136.1,74.9,141.5,88.1z M87.6,107l-0.5,1.1H75.4c-1.6-7.8-3.8-15.9-6.2-23.7
			c3-15.7,8.4-35.6,18.1-54.2C84.1,51.1,81.6,81.4,87.6,107z M58.4,85.9L58.4,85.9c2.2,7.6,4,14.8,5.7,22.1h-8.4
			c-0.8-1.6-1.6-3-2.4-4.3c0.3-10,0.5-20.8,0.5-31C55.5,76.8,56.8,81.1,58.4,85.9z M33.6,91.1c3.3,5.3,6.7,10.8,10,17c0,0,0,0,0,0
			l-9.4,0C34.4,103.2,34.4,97.5,33.6,91.1z"/>
	</g>
</g>
<g class="st0">
	<path class="st1" d="M54.3,140.8c1,1,1.5,2.2,1.5,3.4s-0.5,2.4-1.5,3.4c-1,1-2.2,1.5-3.4,1.5c-0.7,0-1.2-0.2-1.9-0.5
		c-0.5-0.2-1.2-0.5-1.5-1c-1-1-1.5-2.2-1.5-3.4s0.5-2.4,1.5-3.4c1.2-1.2,2.9-1.7,4.4-1.5c0.2,0,0.5,0.2,1,0.2
		c0.2,0.2,0.5,0.2,0.7,0.5C53.8,140.3,54.1,140.6,54.3,140.8z M202,152c-0.2-0.2-0.2-0.5-0.5-0.7c-0.2-0.2-0.5-0.5-0.5-0.7
		c-1.2-1.2-3-1.7-4.5-1.5c-0.2,0-0.7,0.2-1,0.2c-0.2,0.2-0.5,0.2-0.7,0.5c-0.2,0.2-0.5,0.5-0.7,0.5c-0.2,0.2-0.5,0.5-0.5,0.7
		c-0.2,0.2-0.2,0.5-0.5,0.7c-0.2,0.2-0.2,0.5-0.2,1c0,0.2,0,0.7,0,1c0,1.2,0.5,2.5,1.5,3.5c0.7,1.2,2,1.7,3.2,1.7
		c0.7,0,1.2-0.2,2-0.5c0.5-0.2,1.2-0.5,1.5-1c1-1,1.5-2.2,1.5-3.5c0-0.2,0-0.7,0-1C202.3,152.7,202.3,152.2,202,152z M221.4,160.1
		c-2.2,9.4-10,16.9-19.6,18.4c-9.7,1.6-18.4-2.6-23.5-9.4H75.6c-6.7,6.7-16.3,10.4-26.6,9.6c-16.4-1.3-29.7-14.5-31.2-30.9
		c-1.6-18.1,11-33.8,28.1-36.6L24-6.9c-0.5-2.2-2.4-3.9-4.9-3.9l-10.9,0c-2.1,0-4.2-1.2-4.8-3.2c-1.1-3.3,1.4-6.5,4.6-6.5h11.4
		c7.1,0,12.9,4.9,14.3,11.7L55.9,111c1.5,0.2,2.7,0.5,4.1,0.7l50.1,6.8v-15.1h-7.3c-2.7,0-4.9-2.2-4.9-4.9v-4.9
		c0-13.4,10.9-24.3,24.3-24.3h14.6c13.4,0,24.3,10.9,24.3,24.3v4.9c0,2.7-2.2,4.9-4.9,4.9H149v20.2l49.1,6.6
		C213.1,130.5,224.9,144.6,221.4,160.1z M150.6,93.7c0-8-6.6-14.6-14.6-14.6h-14.6c-8,0-14.6,6.6-14.6,14.6H150.6z M119.9,103.5
		v16.3l19.5,2.7v-19H119.9z M75.2,144.2c0-11.2-7.5-20.4-17.8-23.3l-6.8-1c-13.4,0.2-24.1,10.9-24.1,24.3s10.9,24.3,24.3,24.3
		S75.2,157.6,75.2,144.2z M179.3,137.8L77.9,124.1C82.3,130,85,137,85,144.8c0,5.4-1.2,10.2-3.4,14.6H173c-0.2-1.7-0.5-3.2-0.5-4.9
		C172.5,148,175.2,142.1,179.3,137.8z M211.4,154c0-8-6.6-14.6-14.6-14.6c-8,0-14.6,6.6-14.6,14.6c0,8,6.6,14.6,14.6,14.6
		C204.9,168.6,211.4,162,211.4,154z"/>
</g>
<g class="st0">
	<path class="st1" d="M27.7,124c4.2,0.4,7.7-1.1,10.4-4.1c4.2,5.1,11.8,5.7,16.9,1.2c0.6-0.3,0.9-0.9,1.2-1.2
		c4.2,5.1,11.8,5.7,16.9,1.2c0.6-0.3,0.9-0.9,1.2-1.2c4.2,5.1,11.8,5.7,16.9,1.2c0.6-0.3,0.9-0.9,1.2-1.2c4.2,5.1,11.8,5.7,16.9,1.2
		c0.6-0.3,0.9-0.9,1.2-1.2c4.2,5.1,11.8,5.7,16.9,1.2c2.4-2.1,3.9-4.8,4.2-8.1l31,31c1.1,1.1,2.3,1.2,5.5,0.2
		c10.6-3.4,17.7-13.4,17.7-24.6l0-46.7h3c1.7,0,3-1.3,3-3V57.8v-0.3v-0.3l-6-36.2c-0.3-1.5-1.5-2.4-3-2.4h-18.1
		c-1.5,0-2.7,1.2-3,2.4l-6,36.2v0.3v0.3v12.1c0,1.7,1.3,3,3,3h3v38l-30.1-30.1l0-59.3c0-6.3-5.1-12.2-11.3-12.6
		c-3.9-0.2-7.5,1.3-9.8,4.2c-4.2-5.1-11.8-5.7-16.9-1.2c-0.6,0.3-0.9,0.9-1.2,1.2c-4.2-5.1-11.8-5.7-16.9-1.2
		c-0.6,0.3-0.9,0.9-1.2,1.2C70,7.9,62.5,7.3,57.4,11.8c-0.6,0.3-0.9,0.9-1.2,1.2C52,7.9,44.4,7.3,39.3,11.8
		c-0.6,0.3-0.9,0.9-1.2,1.2C33.9,7.9,26,7.3,21.2,11.8c-2.7,2.1-4.2,5.4-4.2,9l0,90.8C17,117.5,21.8,123.4,27.7,124z M185.8,66.8
		h-24.1v-6h24.1V66.8z M166.8,24.6h13l5.1,30.1H162L166.8,24.6z M179.8,72.8v51.2c0,7.2-5.1,13.3-12.1,14.8v-66H179.8z M161.7,118.5
		v15.7L131.5,104V88.3L161.7,118.5z M125.5,21.1c0,14.5,0,75.4,0,89.8c0,2.6-1.5,5.2-4,6c-4.2,1.4-8-1.7-8-5.7V20.8
		c0-4,3.9-7.1,8-5.7C124,15.9,125.5,18.5,125.5,21.1z M107.4,21.1c0,14.5,0,75.4,0,89.8c0,2.6-1.5,5.2-4,6c-4.2,1.4-8-1.7-8-5.7
		V20.8c0-4,3.9-7.1,8-5.7C105.9,15.9,107.4,18.5,107.4,21.1z M89.3,21.1c0,14.5,0,75.4,0,89.8c0,2.6-1.5,5.2-4,6
		c-4.2,1.4-8-1.7-8-5.7V20.8c0-4,3.9-7.1,8-5.7C87.8,15.9,89.3,18.5,89.3,21.1z M71.3,21.1c0,14.5,0,75.4,0,89.8c0,2.6-1.5,5.2-4,6
		c-4.2,1.4-8-1.7-8-5.7V20.8c0-4,3.9-7.1,8-5.7C69.7,15.9,71.3,18.5,71.3,21.1z M53.2,21.1c0,14.5,0,75.4,0,89.8c0,2.6-1.5,5.2-4,6
		c-4.2,1.4-8-1.7-8-5.7V20.8c0-4,3.9-7.1,8-5.7C51.6,15.9,53.2,18.5,53.2,21.1z M23,20.8c0-4,3.9-7.1,8-5.7c2.5,0.8,4,3.4,4,6
		c0,14.5,0,75.4,0,89.8c0,2.6-1.5,5.2-4,6c-4.2,1.4-8-1.7-8-5.7V20.8z"/>
	<path class="st1" d="M173.7-3.3c-1.8,0-3,1.2-3,3v9c0,1.8,1.2,3,3,3s3-1.2,3-3v-9C176.7-2.1,175.5-3.3,173.7-3.3z"/>
	<path class="st1" d="M176.7-21.4c0-1.8-1.2-3-3-3s-3,1.2-3,3v9c0,1.8,1.2,3,3,3s3-1.2,3-3V-21.4z"/>
	<path class="st1" d="M149.3-3.3c0,1.8,1.2,3,3,3c5.1,0,9,3.9,9,9c0,1.8,1.2,3,3,3s3-1.2,3-3c0-8.4-6.6-15.1-15.1-15.1
		C150.5-6.3,149.3-5.1,149.3-3.3z"/>
	<path class="st1" d="M194.5-6.3c-8.4,0-15.1,6.6-15.1,15.1c0,1.8,1.2,3,3,3s3-1.2,3-3c0-5.1,3.9-9,9-9c1.8,0,3-1.2,3-3
		S196.4-6.3,194.5-6.3z"/>
</g>
<g class="st0">
	<g class="st1">
		<path d="M94.9,54.1c-4.2,3.9-4.3,10.1-0.4,14.3c3.9,4.2,10.1,4.3,14.3,0.4c4.2-3.9,4.3-10.1,0.4-14.3
			C105.3,50.4,99.1,50.2,94.9,54.1z M104.1,63.9c-1.5,1.4-3.4,1.3-4.8-0.1s-1.3-3.4,0.1-4.8c1.5-1.4,3.4-1.3,4.8,0.1
			C105.7,60.7,105.6,62.6,104.1,63.9z"/>
		<path d="M205.2,74.9L162,52.8l0,0c-0.2-0.2-0.7-0.3-1.2-0.3l0,0l0,0L129.7,50l-0.2-0.2l-31.2-62l0,0
			c-5.7-11.1-16.6-19.1-28.9-21.1C63-34.5,56.9-33.9,51-32c-1.2-0.3-1.5,0-2,0.4c-0.5,0.5-0.8,0.7-0.8,1.2c-0.5,1-0.3,2.2,0.4,2.9
			L90.7,37l-0.5,0.5l-10.6,10L18,1.3c-1-0.5-2.2-0.8-2.9-0.5c-0.7,0.2-1,0.5-1.5,0.9c-0.5,0.5-0.8,0.7-0.8,1.2
			C10.4,9,10,15,10.5,21.1l0,0l0,0l0,0c1.2,12.4,8.6,23.8,19.3,30.1l60,34.9l0.2,0.2l0.7,31.2l0,0l0,0c0,0.5,0.2,0.7,0.2,1.2l0,0
			l19.5,44.5c1.8,3.9,5.1,6.9,8.9,8.5c4.1,1.3,8.5,0.9,12.5-1c1.2-0.7,2.5-1.4,3.5-2.4c5.1-4.8,6.6-12.3,3.4-18.7l-21.5-43.1
			L111.6,82l12.1-11.4l24.3,7.1l41.7,24c6.2,3.5,13.8,2.5,18.8-2.3c1-1,1.8-2.2,2.6-3.4c2.3-3.6,2.8-8.2,1.7-12.4
			C211.8,80.4,209,77,205.2,74.9z M92.4-6.8L92.4-6.8L117.6,42l-2.3-2.4c-0.7-0.7-1.4-1.5-2.3-2c-0.2-0.2-0.5-0.5-0.7-0.3
			c-0.7-0.3-1.2-0.7-1.9-1c-0.2-0.2-0.2-0.2-0.7-0.3c-0.9-0.5-1.9-0.5-2.8-1l-0.5,0l-0.5,0l0,0c1.2-1.2,1.5-2.8,0.6-4.3L76.6-21.5
			C83.2-19,89.3-13.6,92.4-6.8z M63.5-22.9c0.5,0,1,0,1.4,0c1,0,1.7,0.3,2.6,0.3l31.9,55.9L97,35.7l-38.5-58
			C60.1-22.5,61.8-22.7,63.5-22.9z M19.9,19.6c0-0.5,0-1,0-1.4c0-1.4,0.3-3.1,0.6-4.7l55.9,41.7l-2.4,2.3L20,22.2
			C20,21.3,20.1,20.3,19.9,19.6z M133.1,153.6c2,4.1,0.4,9.3-3.7,11.3c-2.2,1.1-4.3,1.3-6.9,0.5c-2.1-0.8-4-2.3-4.9-4.7L99.6,120
			l13.5-6.3L133.1,153.6z M110.7,107.7l-12.3,5.6l-1-23.1c0.7,0.3,1.4,0,2.4,0.1l0.5,0c0.5,0,1.2-0.2,1.7-0.2c0.2-0.2,0.5,0,0.7-0.2
			c0.5,0,0.7-0.2,1.4-0.4c0.2-0.2,0.7-0.2,1-0.4c0.2-0.2,0.7-0.2,1-0.4L110.7,107.7z M122.6,67l-14.7,13.8c-2.7,2.5-7,3.4-10.5,2.1
			c-0.5,0-0.9-0.5-1.6-0.8L36.8,47.5c-6.5-4-11.6-9.9-14-16.8l50.4,32.9c1.2,0.7,3.1,0.8,4.3-0.3l7.3-6.9l12.2-11.5
			c4.1-3.8,10.4-3.6,14.3,0.4l11.5,12.2c0.5,0.5,1.4,1,2.1,1.3l3.1,0.3l0,0l27.5,2.7l-6.3,11.9L126,66.6
			C124.8,65.9,123.6,66.1,122.6,67z M204.5,88.6c0.6,2.2,0.3,4.8-0.9,6.9c-2.3,4-7.5,5.2-11.5,3l-38.4-22.6l7.1-13.1l39.6,20.5
			C202.3,84.7,203.9,86.4,204.5,88.6z"/>
	</g>
</g>
<g class="st0">
	<g class="st1">
		<g>
			<path d="M119.1,49.2c11.5-1.5,20.9-7.9,20.9-14.9c0-4.9-4.4-8.5-8.2-10.7c-5.5-3.2-11.9-4.5-18.1-4.5c4-4,7.4-9,9.2-14.4
				c1.5-4.7,2.3-11-1.3-14.9c-3.3-3.3-9-3-13.4-1.8c-6,1.7-11.7,5.2-16.1,9.7c0-8.2-2.3-17.9-8.9-23.6c-2.3-2.2-5.7-3.3-9-2.2
				c-4.2,1.5-7,5.5-8.9,9.4c-2.5,5-3.7,10.7-3.5,16.4C57.5-6.7,52-10.2,46-11.8c-4.4-1.2-10-1.7-13.6,1.8c-3.8,3.8-3,10.2-1.3,14.9
				c1.8,5.5,5.2,10.4,9.2,14.4c-6.2,0-12.7,1.3-18.1,4.5c-3.8,2-8.2,5.7-8.2,10.5c0,4.9,4.4,8.5,8.2,10.7c5.5,3.2,11.9,4.5,18.1,4.5
				c-4,4-7.4,9-9.2,14.4c-1.5,4.7-2.3,11,1.3,14.9c3.8,3.8,10.2,2.8,14.7,1.3c5.5-1.8,10.5-5.2,14.6-9.2c0,6.2,1.3,12.7,4.5,18.1
				c2.2,3.8,5.9,8,10.7,8c4.9,0,8.5-4.2,10.7-8c3.2-5.5,4.5-11.9,4.5-18.1c4,4.2,9,7.4,14.6,9.2c4.5,1.5,10.9,2.3,14.7-1.3
				c4.9-4.9,2.3-13.4-0.2-18.6c2.3,2.3,4.5,4.9,6.7,7.7c14.2,18.9,24.4,52.5-6,105.9c-2.2,3.7,3.7,7,5.9,3.3
				c10.9-18.9,16.7-35.6,19.2-50.2c6.7,2.7,14.2,3.8,21.3,1.7c5.7-1.7,9-5,14.1-9.9c7.7-7.4,15.7-14.1,24.4-20.1
				c1.8-1.2,2-4,0.2-5.4c-13.2-10.5-31.8-12.2-46-4c-5.9,3.3-9.9,7.7-12.9,12C145.2,74.8,130,58.1,119.1,49.2z M114.1,25.8
				c11.9,0,19.4,6,19.4,8.5s-7.5,8.5-19.4,8.5c-5.2,0-9.4-1.2-12.6-2.5c1-3.8,1-7.9,0-11.9C104.7,27,108.9,25.8,114.1,25.8z
				 M97.2,2.2c8.7-9.5,19.1-8.2,19.6-7.5c0.5,0.7,1.8,9.4-7.5,19.6c-3.5,3.7-7.4,5.9-10.7,7c-2-3.3-5-6.4-8.4-8.4
				C91.3,9.6,93.7,5.7,97.2,2.2C103.4-4,93.8,5.9,97.2,2.2z M77.1-21.9c2.5,0,8.5,7.5,8.5,19.4c0,5-1.2,9.4-2.5,12.6
				c-3.8-1-8-1-11.9,0c-1.5-3.2-2.5-7.5-2.5-12.6C68.6-14.3,74.6-21.9,77.1-21.9z M37.3-5.3C37.8-6,48-6.8,56.8,2.2l0,0
				c3.5,3.5,5.9,7.4,7,10.7c-3.3,2.2-6.4,5-8.4,8.4c-3.3-1.2-7.4-3.3-10.7-7C34.8,3.4,36.8-4.6,37.3-5.3z M40.1,42.9
				c-11.9,0-19.4-6-19.4-8.5c0-2.5,7.5-8.5,19.4-8.5c5.2,0,9.4,1.2,12.6,2.5c-1,3.8-1,8,0,11.9C49.5,41.7,45.1,42.9,40.1,42.9z
				 M57,66.5c-8.4,8.4-17.9,9.4-19.7,7.7c-0.3-0.3-2.8-9.5,7.7-19.7c3.7-3.5,7.4-5.9,10.7-7c2,3.3,5,6.4,8.4,8.4
				C62.7,59.3,60.4,63.1,57,66.5z M77.1,90.7c-2.5,0-8.5-7.5-8.5-19.4c0-5,1.2-9.4,2.5-12.6c3.8,1,8,1,11.9,0
				c1.5,3.2,2.5,7.5,2.5,12.6C85.6,83.2,79.6,90.7,77.1,90.7z M77.1,52.8c-10.2,0-18.4-8.2-18.4-18.4s8.2-18.4,18.4-18.4
				s18.4,8.2,18.4,18.4S87.1,52.8,77.1,52.8z M116.9,74.2c-1.8,1.8-11.4,0.7-19.7-7.7c-3.5-3.5-5.9-7.4-7-10.7c3.3-2,6.4-5,8.4-8.4
				c3.3,1.2,7,3.5,10.7,7C119.8,64.1,117.3,73.8,116.9,74.2z M164.1,95.3c8.7-4.9,19.2-5.5,28.6-2.2c-9.9,1.7-19.4,6.4-27.1,10.5
				c-7,4-12.2,7.4-16.2,10.4C151.2,108.1,155.2,100.3,164.1,95.3z M189,103.8c-5,4.2-8.5,7.5-11.4,10.4c-4.7,4.5-7.2,7-11.4,8.2
				c-4.5,1.3-9.5,1-15.4-1c4.4-3.3,9.9-7.2,18.1-11.7c9.9-5.5,18.1-8.9,25.3-9.9C192.4,101,190.7,102.5,189,103.8z"/>
		</g>
	</g>
</g>
<g class="st0">
	<title>Artboard 10</title>
	<g class="st1">
		<path d="M49.1,94.5c-0.7-1.9-2.3-3.3-4.5-3.3H19.8l-8.2-24.9c-0.9-2.3-3.5-3.8-5.9-3c-2.3,0.9-3.8,3.5-3,5.9l8.9,26.7l-8.9,26.7
			c-0.7,2.3,0.5,5.2,3,5.9c2.3,0.7,5.2-0.5,5.9-3l8.2-24.9h21.3l8.2,24.9c0.9,2.3,3.5,3.8,5.9,3c2.3-0.9,3.8-3.5,3-5.9L49.1,94.5z"
			/>
		<path d="M128,63.1H99.9V16.2h75c2.6,0,4.7-2.1,4.7-4.7l0,0V2.1c0-1.9-0.9-3.5-2.6-4.2L97.2-39.6c-1.2-0.7-2.8-0.7-4,0L13.4-2.1
			c-1.6,0.7-2.6,2.3-2.6,4.2v9.4c0,2.6,2.1,4.7,4.7,4.7l0,0h75v46.9H63.4c-2.6-0.5-4.7,1.6-4.7,4.2c0,2.6,2.1,4.7,4.7,5.2h27.1v46.9
			l-4.7,0c-1.7,0-3.3,0.8-4.1,2.3c-1.8,3.5,0.7,7.1,4.1,7.1l18.8,0c1.7,0,3.3-0.8,4.1-2.3c1.8-3.5-0.7-7.1-4.1-7.1h-4.7V72.5l27.9,0
			c2,0,4-1.2,4.7-3.1C133.5,66.1,131.1,63.1,128,63.1z M20.2,5.2l75-35.4l75,35.4v1.6H20.2V5.2z"/>
		<path d="M180.9,95.9l8.9-26.7c0.7-2.3-0.5-5.2-3-5.9c-2.3-0.7-5.2,0.5-5.9,3l-8.2,24.9h-24.9c-2.1,0-3.8,1.4-4.5,3.3l-9.4,28.1
			c-0.7,2.3,0.5,5.2,3,5.9c2.3,0.7,5.2-0.5,5.9-3l8.2-24.9h21.3l8.2,24.9c0.9,2.3,3.5,3.8,5.9,3c2.3-0.9,3.8-3.5,3-5.9L180.9,95.9z"
			/>
	</g>
</g>
<g class="st0">
	<path class="st1" d="M189.3,45.6c-2.5-10.7-11.2-18.7-21.7-20.8c0-0.6-0.2-1.3-0.4-1.9c-1.7-7.2-5.9-13.3-12.2-17.1
		c-5.1-3.2-10.9-4.6-16.8-4c-4.8-12.6-18.3-20-31.8-16.8c-4,0.8-7.8,2.7-10.9,5.3c-5.1-3.8-10.9-5.9-17.1-5.9
		c-10.9,0-20.8,6.7-25.1,16.6c-14.7-1.1-27.2,9.7-29.1,23.6C10.7,26.2,0.4,37.8,0.4,51.7c0,11.6,7.4,22.1,18.1,25.9c0,0,0,0,0,0
		c-0.6,14.1,9.6,25.1,26.5,28.6c1.7,0.4,14.3,0.4,30.3,0.4c24,0,55.6-0.2,69.1-0.4l8.2-0.6h0.6c12.2-2.7,21.3-15.8,21.3-29.1
		C185.9,71.1,192.2,58.2,189.3,45.6z M168.9,70l-3.2,1.1l0.4,3.2c1.3,10.1-5.5,20.8-14.6,23.2l-7.4,0.6C106.8,98.4,50,98.7,46,98
		c-4.7-1.1-20.1-5.3-20.1-19.4c0-1.3,0.2-2.5,0.4-3.6l0.8-4l-4-0.8c-8.9-1.9-15.3-9.9-15.3-19c0-10.7,8.7-19.4,19.3-19.4h4v-4
		c0-10.7,8.7-19.4,19.3-19.4c1.3,0,2.5,0.2,4,0.4l3.8,0.6L59.3,6C61.7-2.2,69.3-7.9,78-7.9c5.3,0,10.4,2.1,14,5.9l3,3.2l3-3.2
		c2.5-2.7,5.9-4.8,9.8-5.7C118-10,128.4-3.7,131,6.8l0.8,4l4-0.8c5.1-1.3,10.2-0.2,14.6,2.3c4.5,2.7,7.4,6.9,8.7,12
		c0.2,1.3,0.4,2.5,0.4,3.8v3.8l3.8,0.2c8.5,0.4,15.9,6.5,17.8,15C183.5,57,178.2,66.9,168.9,70z"/>
	<path class="st1" d="M146.3,42.9c-6.1-3.2-13.3-2.3-18.3,2.1c-3.8-1.9-8-2.3-12-1.1c-4.2,1.3-7.6,4-9.7,8c-0.4,0.8-0.2,1.7,0.6,2.1
		c0.8,0.4,1.7,0.2,2.1-0.6c1.7-3.2,4.4-5.5,7.8-6.5c3.4-1.1,6.9-0.6,10.1,1.1c0.2,0,0.2,0.2,0.4,0.2l1.1,0.6l0.8-0.8
		c4.2-4.2,10.5-5.1,15.6-2.3c6.5,3.4,8.8,11.6,5.5,18.1c-0.4,0.8-0.2,1.7,0.6,2.1c0.2,0.2,0.4,0.2,0.6,0.2c0.6,0,1.1-0.2,1.3-0.8
		C157.3,57.3,154.3,47.2,146.3,42.9z"/>
	<path class="st1" d="M64.6,24.8c-4.2-1.3-8.6-0.6-12.4,1.5c-5.9,3.4-9.3,9.9-8.2,16.6c-7.6,4.4-10.3,14.3-5.9,22.1
		c0.2,0.4,0.8,0.8,1.3,0.8c0.2,0,0.4,0,0.8-0.2c0.8-0.4,1.1-1.3,0.6-2.1c-3.6-6.3-1.3-14.5,5.3-18.1c0.2,0,0.2-0.2,0.4-0.2l1.1-0.4
		l-0.2-1.3c-1.3-5.7,1.5-11.6,6.5-14.3c3.2-1.7,6.7-2.1,10.1-1.3c3.4,1.1,6.3,3.2,8,6.3c0.4,0.8,1.3,1.1,2.1,0.6
		c0.8-0.4,1.1-1.3,0.6-2.1C72.4,28.8,68.9,26.1,64.6,24.8z"/>
</g>
<g class="st0">
	<g class="st1">
		<g>
			<path d="M210.6,2.1v-2.4h-14.3V-17l2.4-3.3l-5.7-15.8l-5.5,15.8l4.1,3.3v16.8h-23.9V-17l3.6-3.3l-5.5-15.8l-5.5,15.8l2.6,3.3
				v16.8h-21.5v-15.8l3.5-3.3l-6-15.8L133-19.4l3.5,3.3v15.8h-23.9V-17l3.8-3.3L111-36.2l-5.5,15.8l2.4,3.3v16.8H86.4V-17l2.9-3.3
				l-5.5-15.8l-5.5,15.8l3.3,3.3v16.8H57.7v-15.8l3.5-3.3l-6-15.8l-5.8,15.8l3.5,3.3v15.8H31.5V-17l3.1-3.3l-5.5-15.8l-5.5,15.8
				l3.1,3.3v16.8H10v4.8h16.7v93.2H10v4.8h16.7v19.1h4.8v-19.1H53v19.1h4.8v-19.1h23.9v19.1h4.8v-19.1h21.5v19.1h4.8v-19.1h23.9
				v19.1h4.8v-19.1h21.5v19.1h4.8v-19.1h23.9v19.1h4.8v-19.1h14.3v-4.8h-16.7V2.1H210.6z M31.5,97.6V2.1h23.9v95.5H31.5z M57.7,97.6
				V2.1h23.9v95.5H57.7z M86.4,97.6V2.1h23.9v95.5H86.4z M112.7,97.6V2.1h23.9v95.5H112.7z M139,97.6V2.1h23.9v95.5H139z
				 M191.5,97.6h-23.9V2.1h23.9V97.6z"/>
		</g>
	</g>
</g>
<g class="st0">
	<g class="st1">
		<g>
			<g>
				<g>
					<path d="M40.3-6.1c1.3,1.3,2.7,2.7,4,4c3.2,3.2,6.4,6.4,9.6,9.6c3.8,3.8,7.7,7.7,11.5,11.5c3.3,3.3,6.7,6.7,10,10
						c1.6,1.6,3.2,3.3,4.9,4.9c0,0,0,0,0.1,0.1c0-1.5,0-3.1,0-4.7l-6.9,6.9h4.7c-1.3-1.3-2.7-2.7-4-4c-3.2-3.2-6.4-6.4-9.6-9.6
						c-3.8-3.8-7.7-7.7-11.5-11.5c-3.3-3.3-6.7-6.7-10-10c-1.6-1.6-3.2-3.3-4.9-4.9c0,0,0,0-0.1-0.1c-1.2-1.2-3.4-1.3-4.7,0
						c-0.3,0.3-0.7,0.7-1,1c-0.2,0.2-0.4,0.4-0.6,0.6c0,0-0.1,0.1-0.1,0.1c0,0-0.1,0.1-0.1,0.1c-0.3,0.4,0.1-0.1,0.2-0.1
						c0,0-0.5,0.3-0.5,0.3c0,0,0.7-0.3,0.3-0.2c-0.3,0.1,0.4-0.1,0.4-0.1c0.3,0,0.5,0.1,0.7,0.1c0.4,0.1,0.1,0.1,0,0
						c0,0,0.5,0.4,0.2,0.1c-0.3-0.3,0.2,0.3,0.2,0.3c-0.1-0.1-0.1-0.2-0.2-0.3c-1.2-1.5-2.3-3-3.4-4.6c-2.4-3.3-4.9-6.5-7.3-9.8
						c0-0.1-0.1-0.1-0.2-0.2c-0.2-0.3-0.3-0.6-0.1-0.1c0-0.1-0.2-0.4,0,0c0.1,0.3,0,0.2,0,0c0,0-0.1,0.7,0,0.3
						c0.1-0.4-0.3,0.6-0.1,0.2c0.2-0.3-0.3,0.3-0.1,0.1c0.1,0,0.2-0.2,0.2-0.2c0.7-0.7,1.5-1.5,2.2-2.2c0.9-0.9,1.9-1.9,2.8-2.8
						c0.3-0.3,0.6-0.6,0.9-0.9c0.1-0.1,0.2-0.1,0.2-0.2c0.2-0.2-0.4,0.2-0.1,0.1c0.3-0.2-0.3,0.1-0.3,0.1c0.1,0,0.5-0.1,0,0
						c-0.4,0.1-0.1,0,0,0c0,0-0.7-0.1-0.3,0c0.4,0.1-0.2-0.1-0.2-0.1c0,0,0.3,0.2,0.3,0.2c0.1,0.1,0.2,0.1,0.3,0.2
						c0.1,0.1,0.2,0.1,0.3,0.2c0.6,0.4,1.2,0.9,1.8,1.3c2,1.5,4.1,3.1,6.1,4.6c1.8,1.4,3.6,2.7,5.4,4.1c0.3,0.3,0.7,0.5,1,0.8
						c0,0-0.4-0.3-0.4-0.3c0.1,0.1,0.4,0.3,0.1,0c-0.2-0.2-0.1-0.1,0,0c-0.1-0.2-0.2-0.4-0.2-0.7c0-0.3,0-0.5,0-0.8
						c0,0.1-0.1,0.4,0,0c0.3-0.6-0.2,0.3-0.2,0.3c0,0,0.4-0.5,0.2-0.3c-0.1,0.1-0.1,0.1-0.2,0.2c0,0,0,0-0.1,0.1
						c-0.2,0.2-0.4,0.4-0.6,0.6c-0.3,0.3-0.7,0.7-1,1C39.1-9.5,39-7.3,40.3-6.1c1.3,1.2,3.4,1.3,4.7,0c1-1,2-1.9,2.7-3
						c0.8-1.3,1.1-2.9,0.7-4.4c-0.4-1.4-1.4-2.3-2.5-3.1c-1.4-1.1-2.8-2.1-4.3-3.2c-2.3-1.7-4.6-3.5-7-5.2c-1.3-1-2.6-2.2-4-2.9
						c-2.5-1.3-5.2-0.9-7.2,1.1c-0.8,0.8-1.5,1.5-2.3,2.3c-1,1-2,2-3,3c-0.9,0.9-1.8,1.7-2.3,2.9c-0.9,2-0.4,4.3,0.9,6
						c0.4,0.6,0.9,1.2,1.3,1.8c1.7,2.2,3.3,4.4,5,6.6c1.4,1.8,2.8,3.7,4.1,5.5c0.9,1.2,1.9,2.4,3.5,3c2.5,0.9,4.7-0.7,6.3-2.3
						c0.4-0.4,0.7-0.7,1.1-1.1h-4.7c1.3,1.3,2.7,2.7,4,4c3.2,3.2,6.4,6.4,9.6,9.6c3.8,3.8,7.7,7.7,11.5,11.5c3.3,3.3,6.7,6.7,10,10
						c1.6,1.6,3.2,3.3,4.9,4.9c0,0,0,0,0.1,0.1c1.5,1.5,4.3,1.2,5.3-0.9c1.8-1.8,3.5-3.5,5.4-5.3c2-1,2.3-3.7,0.8-5.2
						c-1.3-1.3-2.7-2.7-4-4c-3.2-3.2-6.4-6.4-9.6-9.6C67.6,11.9,63.7,8,59.9,4.2c-3.3-3.3-6.7-6.7-10-10c-1.6-1.6-3.2-3.3-4.9-4.9
						c0,0,0,0-0.1-0.1c-1.2-1.2-3.5-1.3-4.7,0C39.1-9.4,39-7.4,40.3-6.1z"/>
				</g>
			</g>
			<g>
				<g>
					<path d="M159.7,108.8c-1.7,1.7-3.4,3.4-5.1,5.1c-0.6,0.6-1.2,1.2-1.8,1.8c-0.2,0.2-0.5,0.4-0.7,0.7c-0.4,0.4,0.5-0.3-0.2,0.1
						c-0.5,0.3-1,0.6-1.5,0.9c-0.5,0.3,0.5-0.2-0.2,0.1c-0.2,0.1-0.5,0.2-0.8,0.2c-0.3,0.1-0.6,0.2-0.9,0.2c-0.1,0-0.2,0-0.3,0.1
						c-0.4,0.1,0.7,0,0.1,0c-0.5,0-1.1,0.1-1.6,0c-0.3,0-0.5,0-0.8-0.1c-0.5,0,0.7,0.1,0.2,0c-0.2,0-0.4-0.1-0.6-0.1
						c-0.5-0.1-1-0.3-1.5-0.5c-0.6-0.2,0.6,0.3-0.2-0.1c-0.3-0.1-0.5-0.3-0.8-0.4c-0.2-0.1-0.5-0.3-0.7-0.4c-0.5-0.3,0,0,0.1,0.1
						c-0.1,0-0.3-0.2-0.4-0.3c-0.2-0.2-0.4-0.3-0.5-0.5c-0.1-0.1-0.1-0.1-0.2-0.2c-1.1-1.1-2.1-2.1-3.2-3.2
						c-4.2-4.2-8.3-8.3-12.5-12.5c-3.7-3.7-7.4-7.4-11.1-11.1c-0.4-0.4-0.8-0.8-1.2-1.2c-0.1-0.1-0.1-0.1-0.2-0.2
						c0,0-0.3-0.4-0.3-0.4c0,0,0.4,0.7,0.1,0.1c-0.1-0.1-0.1-0.2-0.2-0.3c-0.1-0.1-0.3-0.5-0.1-0.1c0.2,0.4,0-0.1-0.1-0.2
						c0-0.1-0.2-1-0.1-0.4c0.1,0.5,0-0.3,0-0.4c0-0.6-0.1,0.6,0-0.1c0-0.1,0.1-0.3,0.1-0.4c0-0.1,0.3-0.5,0-0.1
						c-0.3,0.4,0.2-0.3,0.3-0.4c0.3-0.6-0.1,0.1-0.1,0.1c0-0.1,0.3-0.3,0.3-0.3c0.1-0.1,0.1-0.1,0.2-0.2c1-1,2-2,3-3
						c0.3-0.3,0.5-0.5,0.8-0.8c1.3-1.3,1.3-3.4,0-4.7c-4-4-8-8-12-12c-0.6-0.6-1.1-1.1-1.7-1.7c0,1.5,0,3.1,0,4.7
						c2.3-2.3,4.6-4.6,6.9-6.9c-1.5,0-3.1,0-4.7,0c4,4,8,8,12,12c0.6,0.6,1.1,1.1,1.7,1.7c1.3,1.3,3.4,1.3,4.7,0
						c1.3-1.3,2.6-2.7,4-4c0,0,0.4-0.3,0.4-0.3c0,0-0.5,0.3-0.2,0.2c0.1,0,0.2-0.1,0.3-0.2c0.1,0,0.2-0.1,0.3-0.2
						c0.3-0.2-0.2,0.1-0.3,0.1c0.2,0,0.5-0.2,0.7-0.2c0.1,0,0.2,0,0.3-0.1c0,0-0.7,0-0.3,0c0.2,0,0.5,0,0.7,0c0.3,0-0.3,0-0.3,0
						c0.1,0,0.2,0,0.3,0.1c0.2,0,0.6,0.2,0.7,0.2c0,0-0.6-0.3-0.3-0.1c0.1,0.1,0.2,0.1,0.3,0.2s0.2,0.1,0.3,0.2
						c0.3,0.2-0.2-0.1-0.2-0.2c0,0,0.3,0.3,0.4,0.3c0.1,0,0.1,0.1,0.2,0.2c2.3,2.3,4.6,4.6,6.9,6.9c3.8,3.8,7.6,7.6,11.4,11.5
						c2.9,2.9,5.8,5.9,8.8,8.8c0.3,0.3,0.6,0.6,0.9,0.9c0.1,0.1,0.1,0.1,0.2,0.2l0,0c0.2,0.2,0.3,0.3,0.5,0.5
						c0.1,0.1,0.1,0.2,0.2,0.3c0.3,0.3-0.3-0.5-0.1-0.1c0.3,0.4,0.5,0.8,0.8,1.2c0.1,0.2,0.2,0.4,0.3,0.6c0.2,0.3-0.1-0.2-0.1-0.3
						c0,0.2,0.1,0.4,0.2,0.5c0.1,0.4,0.3,0.9,0.4,1.3c0,0.1,0,0.2,0.1,0.3c0,0.2,0.2,0.3,0,0c-0.1-0.3,0-0.2,0,0c0,0.1,0,0.3,0,0.4
						c0,0.4,0,0.9,0,1.4c0,0.2-0.1,0.5-0.1,0.7c0,0,0.1-0.7,0-0.3c0,0.1,0,0.3-0.1,0.4c-0.1,0.4-0.2,0.9-0.4,1.3
						c0,0.1-0.1,0.2-0.1,0.3c-0.2,0.6,0-0.1,0.1-0.1c-0.1,0.1-0.3,0.6-0.4,0.7c-0.2,0.4-0.5,0.8-0.8,1.2c-0.2,0.3,0.1-0.2,0.1-0.2
						c0,0-0.2,0.3-0.2,0.3C160.1,108.3,159.9,108.5,159.7,108.8c-1.2,1.2-1.3,3.4,0,4.7c1.3,1.2,3.4,1.3,4.7,0
						c3.5-3.6,5-8.7,3.9-13.6c-0.6-2.8-2.2-5.2-4.2-7.3c-2.6-2.6-5.3-5.3-7.9-7.9c-4-4-8-8-12-12c-2.6-2.6-5.2-5.2-7.8-7.8
						c-2.3-2.3-5.6-3.5-8.9-2.6c-3,0.8-5.2,3.5-7.3,5.7c-0.2,0.2-0.4,0.4-0.6,0.6c1.5,0,3.1,0,4.7,0c-4-4-8-8-12-12
						c-0.6-0.6-1.1-1.1-1.7-1.7c-1.3-1.3-3.4-1.3-4.7,0c-2.3,2.3-4.6,4.6-6.9,6.9c-1.3,1.3-1.3,3.4,0,4.7c4,4,8,8,12,12
						c0.6,0.6,1.1,1.1,1.7,1.7c0-1.5,0-3.1,0-4.7c-0.9,0.9-1.7,1.7-2.6,2.6c-1.2,1.2-2.4,2.3-3.1,3.8c-1.5,3.2-1,6.8,1.2,9.5
						c0.3,0.4,0.6,0.7,0.9,1c3.3,3.3,6.7,6.7,10,10.1c4.5,4.5,9,9,13.4,13.5c3.5,3.5,6.8,7.6,12,8.4c5,0.8,9.7-0.8,13.2-4.3
						c2-2,4-4,6-6c0.2-0.2,0.4-0.4,0.6-0.6c1.2-1.2,1.3-3.5,0-4.7C163.1,107.5,161,107.5,159.7,108.8z"/>
				</g>
			</g>
			<g>
				<g>
					<path d="M127.2,80.9c2.6,2.6,5.2,5.2,7.9,7.9c4.2,4.2,8.4,8.4,12.5,12.5c1,1,1.9,1.9,2.9,2.9c1.2,1.2,3.5,1.3,4.7,0
						c1.2-1.3,1.3-3.4,0-4.7c-2.6-2.6-5.2-5.2-7.9-7.9c-4.2-4.2-8.4-8.4-12.5-12.5c-1-1-1.9-1.9-2.9-2.9c-1.2-1.2-3.5-1.3-4.7,0
						C126,77.5,125.9,79.6,127.2,80.9L127.2,80.9z"/>
				</g>
			</g>
			<g>
				<g>
					<path d="M148.3,106.4c-2.6-2.6-5.2-5.2-7.9-7.9c-4.2-4.2-8.4-8.4-12.5-12.5c-1-1-1.9-1.9-2.9-2.9c-1.2-1.2-3.5-1.3-4.7,0
						c-1.2,1.3-1.3,3.4,0,4.7c2.6,2.6,5.2,5.2,7.9,7.9c4.2,4.2,8.4,8.4,12.5,12.5c1,1,1.9,1.9,2.9,2.9c1.2,1.2,3.5,1.3,4.7,0
						S149.6,107.7,148.3,106.4L148.3,106.4z"/>
				</g>
			</g>
		</g>
		<g>
			<g>
				<g>
					<path d="M163.3,3.1c-3.9,3.9-7.9,7.9-11.8,11.8c-1.9,1.9-3.8,3.8-5.7,5.7c-0.1,0.1-0.3,0.3-0.4,0.4c-0.3,0.3-0.7,0.7-1.1,1
						c-0.3,0.3-0.6,0.5-0.9,0.8c0.1-0.1,0.5-0.4,0,0c-0.2,0.1-0.4,0.3-0.6,0.4c-0.6,0.4-1.2,0.7-1.8,1.1c-0.3,0.2-0.6,0.3-0.9,0.5
						c-0.2,0.1-0.4,0.2-0.6,0.3c-0.4,0.2-0.4,0.2,0,0c-0.6,0.4-1.5,0.5-2.1,0.7c-0.7,0.2-1.5,0.4-2.2,0.5c-0.2,0-0.3,0-0.5,0.1
						c-0.5,0.1,0-0.1,0.1,0c-0.1-0.1-0.9,0.1-1,0.1c-0.7,0-1.5,0.1-2.2,0c-0.7,0-1.5,0-2.2-0.2c0.1,0,0.7,0.1,0.1,0
						c-0.2,0-0.3,0-0.5-0.1c-0.4-0.1-0.8-0.2-1.3-0.3c-0.7-0.2-1.4-0.4-2-0.6c-0.2-0.1-0.4-0.1-0.6-0.2c-0.1,0-0.6-0.2-0.2-0.1
						c0.4,0.2-0.1-0.1-0.2-0.1c-0.2-0.1-0.5-0.2-0.7-0.3c-0.7-0.3-1.4-0.7-2-1.2c-0.3-0.2-0.6-0.4-0.9-0.6c-0.1-0.1-0.3-0.2-0.4-0.3
						c0.6,0.4-0.1-0.1-0.2-0.2c-0.3-0.2-0.6-0.5-0.8-0.7c0,0-0.4-0.4-0.4-0.4c-0.1,0.1,0.9,1-0.3-0.3c-0.2-0.3-0.5-0.5-0.8-0.8
						c-0.1-0.2-0.3-0.3-0.5-0.5c0-0.1-0.5-0.7-0.3-0.3c0.2,0.3-0.1-0.1-0.2-0.2c-0.1-0.2-0.3-0.4-0.4-0.6c-0.2-0.3-0.4-0.6-0.6-0.9
						c-0.4-0.7-0.8-1.4-1.2-2.1c-0.1-0.2-0.1-0.3-0.2-0.5c0.3,0.6,0.1,0.2,0,0c-0.1-0.4-0.3-0.8-0.4-1.1c-0.2-0.8-0.5-1.5-0.6-2.3
						c-0.1-0.4-0.1-0.7-0.2-1.1c0-0.2-0.1-0.6,0,0.1c0-0.2,0-0.3,0-0.5c-0.1-0.7-0.1-1.5-0.1-2.2c0-0.7,0-1.4,0.1-2.1
						c0-0.2,0-0.3,0-0.5c0-0.5-0.1,0.8,0,0c0.1-0.4,0.1-0.7,0.2-1.1c0.1-0.7,0.3-1.4,0.5-2.1c0.1-0.3,0.2-0.6,0.3-1
						c0-0.2,0.1-0.3,0.2-0.5c0.2-0.7-0.2,0.5,0.1-0.1c0.6-1.4,1.4-2.7,2.3-4c0.1-0.1,0.4-0.5,0,0c0.1-0.1,0.2-0.3,0.3-0.4
						c0.2-0.3,0.5-0.5,0.7-0.8c0.2-0.3,0.5-0.5,0.8-0.8c1.5-1.5,3-3,4.4-4.4c4.4-4.4,8.9-8.9,13.3-13.3c0.1-0.1,0.2-0.2,0.3-0.3
						c1.7-1.7,1-4.9-1.4-5.5c-12.4-3-26-0.7-36.5,6.6c-5.4,3.8-10.1,8.7-13.5,14.4c-3.3,5.5-5.2,11.7-6,18c-0.8,6.7,0,13.8,2.3,20.2
						c0.3-1.1,0.6-2.1,0.8-3.2c-3.5,3.5-6.9,6.9-10.3,10.3c-4.6,4.6-9.1,9.1-13.7,13.7c-6.7,6.7-13.5,13.5-20.2,20.2
						c-5,5-10,10-15,15c-1.5,1.5-3.1,3-4.4,4.9c-5,7-5,17-0.1,24.1c4.7,6.8,12.8,10.3,21,9.2c4.8-0.7,9-3,12.3-6.4
						c4-4,8.1-8.1,12.1-12.1c6.7-6.7,13.3-13.3,20-20c5.4-5.4,10.8-10.8,16.2-16.2c3.2-3.2,6.5-6.5,9.7-9.7c0.9-0.9,1.8-1.8,2.7-2.7
						c-1.1,0.3-2.1,0.6-3.2,0.8c11.8,4,25,3,36-2.8c11.4-5.9,19.9-16.9,22.9-29.4c1.7-7,1.7-14.2,0.1-21.2c-0.4-1.7-2.4-2.8-4-2.3
						c-1.8,0.6-2.7,2.3-2.3,4c0.1,0.7,0.3,1.4,0.4,2.1c0.1,0.3,0.1,0.7,0.2,1c0,0.2,0,0.3,0.1,0.5c0.1,0.4-0.1-0.7,0,0
						c0.1,1.4,0.3,2.9,0.3,4.3c0,1.4,0,2.8-0.1,4.2c0,0.4-0.1,0.7-0.1,1.1c0,0.3-0.2,0.7-0.1,1c0-0.1,0.1-0.8,0-0.1
						c0,0.2,0,0.3-0.1,0.5c-0.1,0.4-0.1,0.8-0.2,1.2c-0.5,2.8-1.3,5.5-2.4,8.2c-0.2,0.6,0,0,0-0.1c0,0.1-0.1,0.3-0.2,0.5
						c-0.1,0.3-0.3,0.7-0.5,1c-0.3,0.7-0.6,1.3-1,1.9c-0.7,1.3-1.5,2.6-2.4,3.8c-0.2,0.3-0.4,0.6-0.6,0.8c-0.1,0.1-0.2,0.3-0.3,0.4
						c-0.1,0.1-0.4,0.5-0.1,0.2c0.3-0.4-0.2,0.3-0.2,0.3c-0.1,0.1-0.2,0.3-0.3,0.4c-0.2,0.3-0.5,0.6-0.8,0.9c-1,1.2-2.1,2.3-3.2,3.3
						c-0.5,0.5-1,0.9-1.6,1.4c-0.3,0.2-0.5,0.4-0.8,0.6c-0.5,0.4,0,0,0.1,0c-0.2,0.2-0.4,0.3-0.6,0.5c-1.2,0.8-2.4,1.6-3.6,2.4
						c-1.2,0.7-2.5,1.4-3.8,1.9c-0.3,0.1-0.6,0.3-0.9,0.4c0.8-0.3-0.3,0.1-0.5,0.2c-0.7,0.2-1.3,0.5-2,0.7c-1.4,0.4-2.7,0.8-4.1,1.1
						c-0.7,0.1-1.3,0.3-2,0.4c-0.3,0-0.6,0.1-1,0.1c-0.2,0-0.6,0.1,0.1,0c-0.2,0-0.4,0-0.6,0.1c-3.1,0.4-6.2,0.4-9.3,0.1
						c-0.2,0-1.5-0.1-0.6,0c-0.4,0-0.8-0.1-1.2-0.2c-0.7-0.1-1.4-0.3-2.2-0.4c-1.6-0.3-3.1-0.8-4.7-1.3c-1.1-0.4-2.4,0-3.2,0.8
						c-3.4,3.4-6.9,6.9-10.3,10.3c-4.4,4.4-8.8,8.8-13.2,13.2C78.2,82.5,71.6,89.1,65,95.7c-5.1,5.1-10.3,10.3-15.4,15.4
						c-0.8,0.8-1.6,1.6-2.5,2.5c-0.3,0.3-0.6,0.6-0.9,0.8c-0.1,0.1-0.3,0.3-0.5,0.4c-0.2,0.1-0.5,0.5,0,0c-0.5,0.6-1.6,1.1-2.3,1.4
						c-0.4,0.2-0.8,0.4-1.1,0.6c-0.6,0.3,0.1,0,0.1-0.1c-0.1,0.1-0.5,0.2-0.6,0.2c-0.8,0.3-1.7,0.5-2.5,0.7c-0.2,0-0.4,0.1-0.6,0.1
						c-0.3,0-0.9,0,0,0c-0.4,0-0.8,0.1-1.1,0.1c-0.8,0-1.7,0-2.5,0c-0.1,0-0.6,0-0.7-0.1c0.1,0,0.3,0,0.4,0.1c-0.1,0-0.3,0-0.4-0.1
						c-0.4-0.1-0.7-0.1-1.1-0.2c-0.8-0.2-1.6-0.5-2.4-0.7c-0.7-0.3,0.7,0.3-0.1,0c-0.2-0.1-0.4-0.2-0.6-0.3c-0.3-0.2-0.7-0.3-1-0.5
						c-0.3-0.2-0.7-0.4-1-0.6c-0.2-0.1-0.4-0.3-0.6-0.4c-0.6-0.4,0.4,0.4-0.1-0.1c-0.7-0.6-1.4-1.2-2-1.9c-0.3-0.3-0.6-0.7-0.9-1
						c0.5,0.6-0.1-0.1-0.1-0.2c-0.1-0.2-0.3-0.4-0.4-0.7c-0.3-0.4-0.5-0.8-0.7-1.3c-0.1-0.2-0.2-0.4-0.3-0.6
						c-0.1-0.1-0.5-0.9-0.1-0.2c-0.5-0.8-0.7-1.9-0.9-2.7c-0.1-0.5-0.2-0.9-0.3-1.4c-0.1-0.5,0.1,0.8,0,0c0-0.3,0-0.5-0.1-0.8
						c0-1,0-1.9,0.1-2.8c0-0.9-0.1,0.7,0-0.1c0-0.2,0-0.3,0.1-0.5c0.1-0.5,0.2-1,0.3-1.5c0.1-0.4,0.2-0.8,0.4-1.2
						c0.1-0.2,0.2-0.5,0.3-0.7c-0.3,0.5,0,0.1,0.1-0.2c0.4-0.9,0.9-1.7,1.4-2.5c0.1-0.1,0.2-0.3,0.3-0.4c0.5-0.7-0.4,0.5,0.1-0.2
						c0.4-0.4,0.7-0.8,1.1-1.2c0.2-0.2,0.4-0.4,0.6-0.6c4.2-4.2,8.3-8.3,12.5-12.5c6.6-6.6,13.2-13.2,19.7-19.7
						c5.3-5.3,10.6-10.6,16-16c3.2-3.2,6.4-6.4,9.5-9.5c0.9-0.9,1.8-1.8,2.7-2.7c0.8-0.8,1.2-2.1,0.8-3.2c-0.5-1.3-0.9-2.7-1.3-4.1
						c-0.3-1.3-0.8-2.8-0.8-4.2c0,0.1,0.1,0.8,0,0.1c0-0.2,0-0.3-0.1-0.5c0-0.3-0.1-0.6-0.1-1c-0.1-0.7-0.1-1.5-0.1-2.2
						c0-1.4,0-2.8,0-4.1c0-0.7,0.1-1.4,0.2-2.1c0-0.1,0.1-1.2,0.1-0.7c-0.1,0.6,0-0.2,0-0.3c0-0.2,0.1-0.4,0.1-0.6
						c0.2-1.4,0.5-2.8,0.9-4.2c0.4-1.3,0.8-2.7,1.3-4c0.1-0.3,0.2-0.6,0.4-0.9c-0.4,0.7,0.1-0.1,0.2-0.3c0.3-0.7,0.6-1.3,1-2
						c0.7-1.3,1.4-2.6,2.2-3.8c0.4-0.6,0.8-1.2,1.2-1.8c0.1-0.2,0.7-1,0.3-0.3c0.2-0.3,0.5-0.7,0.8-1c1.9-2.3,4.1-4.4,6.4-6.2
						c0.5-0.4,0,0,0,0c0.2-0.1,0.3-0.3,0.5-0.4c0.3-0.2,0.6-0.4,0.8-0.6c0.6-0.4,1.3-0.9,1.9-1.3c1.3-0.8,2.6-1.5,3.9-2.1
						c0.3-0.1,0.6-0.3,0.9-0.4c0.1-0.1,0.3-0.1,0.5-0.2c0.2-0.1,0.4-0.3-0.1,0c0.6-0.4,1.5-0.6,2.1-0.8c1.3-0.5,2.7-0.9,4.1-1.2
						c0.8-0.2,1.6-0.4,2.5-0.5c0.4-0.1,0.8-0.1,1.2-0.2c0.2,0,0.6-0.1-0.1,0c0.2,0,0.4,0,0.6-0.1c1.6-0.2,3.2-0.3,4.9-0.3
						c1.6,0,3.2,0.1,4.7,0.3c0.2,0,0.3,0,0.5,0.1c-0.9-0.2,0,0,0.1,0c0.4,0.1,0.8,0.1,1.2,0.2c0.8,0.1,1.6,0.3,2.5,0.5
						c-0.5-1.8-1-3.7-1.4-5.5c-4.1,4.1-8.2,8.2-12.3,12.3c-1.9,1.9-3.7,3.7-5.6,5.6c-3.8,3.8-6.5,8.7-7.3,14.1
						c-1.1,7.2,0.8,14.4,5.4,20.1c0.2,0.3,0.5,0.6,0.7,0.9c0.1,0.1,0.2,0.3,0.4,0.4c0.1,0.1,0.1,0.1,0.2,0.2c0.2,0.3,0.3,0.3,0,0
						c0-0.1-0.1-0.1-0.2-0.2c0.2,0.3,0.4,0.5,0.6,0.8c0.2,0.2,0.3,0.3,0.5,0.5c0.3,0.3,0.7,0.6,1.1,0.9c1.4,1.2,2.9,2.2,4.6,3.1
						c3.2,1.6,6.6,2.6,10.1,2.8c6.8,0.5,13.6-2,18.7-6.6c1.6-1.4,3-3,4.5-4.5c4.6-4.6,9.2-9.2,13.9-13.9c0.1-0.1,0.2-0.2,0.3-0.3
						c1.2-1.2,1.3-3.5,0-4.7C166.7,1.9,164.6,1.8,163.3,3.1z"/>
					<path d="M36.8,104.4C36.3,104.9,37.3,104.2,36.8,104.4c-0.2,0.1-0.3,0.2-0.4,0.3c0.4-0.2,0.5-0.2,0.3-0.1
						c-0.2,0.1-0.4,0.1-0.6,0.2c-0.2,0-0.1,0,0.3,0c-0.1,0-0.3,0-0.4,0c-0.6,0,0.6,0.2,0,0c-0.1,0-0.6-0.1-0.6-0.2
						c0.4,0.2,0.5,0.2,0.3,0.1c-0.1,0-0.2-0.1-0.3-0.2c-0.2-0.2-0.2-0.2,0,0s0.2,0.1,0,0c-0.2-0.3-0.2-0.2,0.1,0.1
						c0-0.1-0.1-0.1-0.1-0.2c-0.1-0.1-0.2-0.3-0.2-0.4c0,0.1,0.1,0.2,0.1,0.4c-0.1-0.1-0.1-0.5-0.2-0.6c-0.2-0.6,0,0.7,0-0.1
						c0-0.8-0.1,0.3,0,0c0-0.1,0.1-0.7,0.2-0.7c0,0.1-0.1,0.2-0.1,0.4c0.1-0.1,0.1-0.3,0.2-0.4c0-0.1,0.1-0.1,0.1-0.2
						c-0.3,0.4-0.3,0.4-0.1,0.1c0.2-0.2,0.2-0.2,0,0c-0.2,0.1-0.2,0.1,0,0c0.1-0.1,0.2-0.1,0.3-0.2c0.2-0.1,0.1-0.1-0.3,0.1
						c0.1-0.1,0.5-0.1,0.6-0.2c0.6-0.2-0.6,0,0,0c0.1,0,0.3,0,0.4,0c-0.5-0.1-0.6-0.1-0.3,0c0.2,0.1,0.4,0.1,0.6,0.2
						c0.2,0.1,0.1,0-0.3-0.1c0.1,0,0.2,0.1,0.3,0.2c0.7,0.4-0.3-0.3,0.1,0.1c0.5,0.5-0.3-0.5,0.1,0c0,0.1,0.1,0.1,0.1,0.2
						c0.2,0.3,0.1,0.3,0-0.2c0,0.2,0.1,0.5,0.2,0.6c0.2,0.6,0-0.7,0,0c-0.1,0.9,0,0,0,0c0,0-0.1,0.6-0.2,0.6
						c-0.1,0.6,0.3-0.6-0.1,0.1C36.5,105,37.2,104,36.8,104.4c-1.2,1.3-1.3,3.4,0,4.7c1.3,1.2,3.4,1.3,4.7,0
						c2.3-2.5,2.8-5.9,1.4-8.9c-1.3-2.7-4.4-4.4-7.3-4.2c-3.3,0.2-6.2,2.5-7,5.7c-0.8,3.2,0.5,6.5,3.2,8.4c3,2.1,7.1,1.5,9.7-1
						c1.3-1.2,1.3-3.5,0-4.7C40.1,103.2,38.1,103.2,36.8,104.4z"/>
				</g>
			</g>
			<g>
				<g>
					<path d="M54.6,89.7c1.4-1.4,2.8-2.8,4.2-4.2c3.4-3.4,6.8-6.8,10.2-10.2c4.1-4.1,8.2-8.2,12.3-12.3c3.5-3.5,7.1-7.1,10.6-10.6
						c1.7-1.7,3.5-3.4,5.2-5.2c0,0,0,0,0.1-0.1c1.2-1.2,1.3-3.5,0-4.7s-3.4-1.3-4.7,0c-1.4,1.4-2.8,2.8-4.2,4.2
						C85,50,81.6,53.4,78.2,56.8C74.1,60.9,70,65,65.9,69.1c-3.5,3.5-7.1,7.1-10.6,10.6c-1.7,1.7-3.5,3.4-5.2,5.2c0,0,0,0-0.1,0.1
						c-1.2,1.2-1.3,3.5,0,4.7C51.3,90.9,53.3,91,54.6,89.7L54.6,89.7z"/>
				</g>
			</g>
		</g>
	</g>
</g>
<g class="st0">
	<title>Artboard 11</title>
	<g class="st1">
		<path d="M160.1,32.8h-8.3c-1.7-7.6-4.6-14.7-8.8-21.3l5.8-5.8c1.4-1.4,1.4-3.4,0-4.7l0,0l-14.4-14.4c-1.4-1.4-3.4-1.4-4.7,0l0,0
			l-5.8,5.8c-6.4-4.2-13.7-7.3-21.3-8.8v-8.3c0-1.9-1.5-3.4-3.4-3.4l0,0H78.8c-1.9,0-3.4,1.5-3.4,3.4v0.2v8.3
			c-7.6,1.7-14.7,4.6-21.3,8.8l-5.8-5.9c-1.4-1.4-3.4-1.4-4.7,0l0,0L29.2,1c-1.4,1.4-1.4,3.4,0,4.7l0,0l5.8,5.8
			c-4.2,6.4-7.3,13.7-8.8,21.3h-8.3c-1.9,0-3.4,1.5-3.4,3.4l0,0v20.3c0,1.9,1.5,3.4,3.4,3.4h0.2h8.3c1.7,7.6,4.6,14.7,8.8,21.3
			l-5.9,5.9c-1.4,1.4-1.4,3.4,0,4.7l0,0l14.4,14.4c1.4,1.4,3.4,1.4,4.7,0l0,0l5.8-5.7c6.4,4.2,13.7,7.3,21.3,8.8v8.3
			c0,1.9,1.5,3.4,3.4,3.4l0,0h20.3c1.9,0,3.4-1.5,3.4-3.4v0v-8.3c7.6-1.7,14.7-4.6,21.3-8.8l5.7,5.8c1.4,1.4,3.4,1.4,4.7,0l0,0
			l14.4-14.4c1.4-1.4,1.4-3.4,0-4.7l0,0l-5.7-5.8c4.2-6.4,7.3-13.7,8.8-21.3h8.4c1.9,0,3.4-1.5,3.4-3.4l0,0V36.2
			C163.5,34.3,162,32.8,160.1,32.8L160.1,32.8z M156.7,53.1h-7.4c-1.7,0-3,1.2-3.4,2.9c-1.4,8.6-4.7,16.6-9.8,23.7
			c-1,1.4-0.8,3.2,0.3,4.4l5.4,5.4l-9.7,9.7l-5.4-5.4c-1.2-1.2-3-1.4-4.4-0.3c-7.1,5.1-15.2,8.5-23.7,9.8c-1.7,0.3-2.9,1.7-2.9,3.4
			v7.5H82.2v-7.4c0-1.7-1.2-3-2.9-3.4c-8.7-1.4-16.6-4.7-23.8-9.8c-1.4-1-3.2-0.8-4.4,0.3l-5.4,5.4L36,89.5l5.4-5.4
			c1.2-1.2,1.4-3,0.3-4.4C36.7,72.6,33.3,64.5,32,56c-0.3-1.7-1.7-2.9-3.4-2.9h-7.3V39.6h7.4c1.7,0,3-1.2,3.4-2.9
			c1.4-8.7,4.7-16.6,9.8-23.8c1-1.4,0.8-3.2-0.3-4.4l-5.4-5.4l9.7-9.7l5.4,5.4c1.2,1.2,3,1.4,4.4,0.3c7.1-5.1,15.2-8.5,23.7-9.8
			c1.7-0.3,2.9-1.7,2.9-3.4v-7.3h13.5v6.8c0,1.7,1.2,3.1,2.9,3.4c8.7,1.4,16.6,4.8,23.8,9.9c1.4,1,3.2,0.9,4.4-0.3l5.4-5.5l9.7,9.8
			l-5.4,5.5c-1.2,1.2-1.4,3.1-0.3,4.5c5.1,7.2,8.5,15.4,9.8,24c0.3,1.7,1.7,2.9,3.4,2.9h7.3V53.1z"/>
		<path d="M88.5-1C62.2-1,41.1,20.1,41.1,46.4s21.2,47.4,47.4,47.4s47.4-21.2,47.4-47.4S114.7-1,88.5-1z M82.2,86.3V67.7
			c0-1.4-0.7-2.5-1.9-3c-10.4-4.7-14.8-16.8-9.9-26.9c1.2-2.5,3-4.7,5-6.4v13.4c0,3.7,3,6.8,6.8,6.8h13.5c3.7,0,6.8-3,6.8-6.8V31.3
			c8.5,7.5,9.4,20.1,1.7,28.4c-1.9,2-4.2,3.7-6.6,4.9c-1.2,0.5-1.9,1.7-1.9,3v18.6C91.1,87.2,86.5,87.2,82.2,86.3z M102.5,84.6V69.7
			c12.9-7.5,17.4-23.9,10-36.7c-2.7-4.7-6.9-8.6-11.9-11c-1.7-0.8-3.7-0.2-4.6,1.5c-0.2,0.5-0.3,1-0.3,1.5v19.6H82.2V25
			c0-1.9-1.5-3.4-3.4-3.4c-0.5,0-1,0.2-1.5,0.3C63.8,28.2,58,44.3,64.4,57.9c2.4,5.1,6.3,9.1,11,11.9v14.9
			c-21.9-7.7-32.9-32.3-23.9-54C59.4,11.9,80.2,1.9,99.7,7.2c23,6.3,35.3,30.6,27.5,52.7C123.2,71.4,114.1,80.6,102.5,84.6z"/>
	</g>
</g>
<g class="st0">
	<g class="st1">
		<path d="M162.8,81.2c-0.4-8.9-7.5-16-16.4-16c-8.3,0-15.2,6.5-16.2,15.3H92V42.1h6.5c1.2-1,2-1.8,1.6-3V27
			c0.4-1.2-1.6-3.1-1.6-3.1H94v-6.2c0-3.2-2.5-6-5.9-6H75.6c-3.1,0-5.9,2.6-5.9,6v6.2h-4.4c0,0-2,1.9-1.6,3.1v12.1
			c-0.4,1.2,0.4,2,1.6,3h6.5v38.4h-38c-1-9.1-7.9-15.3-16.2-15.3c-8.9,0-16,7.1-16.4,16c0,0.2-0.2,0.4-0.2,0.6c0,1.2,0.8,2,2,2.8
			h71.4h15H161c1.2-0.8,2-1.6,2-2.8C163,81.6,163,81.4,162.8,81.2z M146.6,70c6.1,0,11.1,4.7,12.1,10.5h-24.3
			C135.3,74.7,140.3,70,146.6,70z M73.6,17.9c0-1,0.8-2,2-2H88c1,0,1.9,0.8,1.9,2v6.1H73.8v-6.1H73.6z M67.5,30h4h20.5h4v8.1h-6.8
			H74.5h-6.8V30H67.5z M17.6,70c6.1,0,11.1,4.7,12.1,10.5H5.4C6.5,74.7,11.5,70,17.6,70z M77.9,80.6V42.1H88v38.4H77.9z"/>
		<path d="M51.4,7.4c0.4,0.4,1,0.6,1.4,0.6c0.6,0,1-0.2,1.4-0.6c0.8-0.8,0.8-2,0-2.8l-5.7-5.9c-0.8-0.8-2-0.8-2.8,0s-0.8,2,0,2.8
			L51.4,7.4z"/>
		<path d="M35.4,18.3l7.5,1.6c0.2,0,0.2,0,0.4,0c1,0,1.8-0.6,2-1.6s-0.4-2.2-1.6-2.4l-7.5-1.6c-1-0.2-2.2,0.4-2.4,1.6
			C33.6,17,34.4,18.1,35.4,18.3z"/>
		<path d="M35.8,40.1c0.2,0,0.2,0,0.4,0l7.5-1.6c1-0.2,1.8-1.2,1.6-2.4c-0.2-1-1.2-1.8-2.4-1.6l-7.5,1.6c-1,0.2-1.8,1.2-1.6,2.4
			C34.2,39.5,35,40.1,35.8,40.1z"/>
		<path d="M50.3,47.6l-4.7,4.9c-0.8,0.8-0.8,2,0,2.8c0.4,0.4,0.8,0.6,1.4,0.6s1-0.2,1.4-0.6l4.7-4.9c0.8-0.8,0.8-2,0-2.8
			C52.4,46.8,51.2,46.8,50.3,47.6z"/>
		<path d="M113.4,8c0.6,0,1-0.2,1.4-0.6l5.7-5.9c0.8-0.8,0.8-2,0-2.8s-2-0.8-2.8,0L112,4.6c-0.8,0.8-0.8,2,0,2.8
			C112.4,7.8,112.8,8,113.4,8z"/>
		<path d="M121.1,18.3c0.2,1,1,1.6,2,1.6c0.2,0,0.2,0,0.4,0l7.5-1.6c1-0.2,1.8-1.2,1.6-2.4c-0.2-1-1.2-1.8-2.4-1.6l-7.7,1.6
			C121.5,16,120.7,17,121.1,18.3z"/>
		<path d="M122.6,38.5l7.5,1.6c0.2,0,0.2,0,0.4,0c1,0,1.8-0.6,2-1.6c0.2-1-0.4-2.2-1.6-2.4l-7.5-1.6c-1-0.2-2.2,0.4-2.4,1.6
			C120.7,37.1,121.5,38.1,122.6,38.5z"/>
		<path d="M115.9,47.6c-0.8-0.8-2-0.8-2.8,0c-0.8,0.8-0.8,2,0,2.8l4.7,4.9c0.4,0.4,1,0.6,1.4,0.6c0.6,0,1-0.2,1.4-0.6
			c0.8-0.8,0.8-2,0-2.8L115.9,47.6z"/>
	</g>
</g>
<g>
	<title>a</title>
	<g>
		<circle cx="65.6" cy="81.1" r="6.2"/>
		<path d="M171.6,64.9v-8.7c0-0.9-0.3-1.6-0.9-2.2L155,38.4c-0.6-0.6-1.2-0.9-2.2-0.9h-46.8V6.2c0-3.4-2.8-6.2-6.2-6.2H68.6
			c-3.4,0-6.2,2.8-6.2,6.2v21.8H10.6c-1.9,0-3.4,0.6-4.7,2.2C3.1,33.1,0,40.2,0,56.2V78c0,3.4,2.8,6.2,6.2,6.2h3.4
			c1.6,10.3,11.2,17.2,21.5,15.3c7.8-1.2,14-7.5,15.3-15.3h0.6c1.6,10.3,11.2,17.2,21.5,15.3c7.8-1.2,14-7.5,15.3-15.3h2.2
			c1.6,0,3.1-0.6,4.4-1.9l13.7-13.7c1.2-1.2,1.9-2.8,1.9-4.4v-8.1h39.3l6.2,6.2h-33.1c-3.4,0-6.2,2.8-6.2,6.2v20
			c0,2.5,1.2,4.7,3.4,5.6l10.9,5.3l0,0c0.3,0.3,0.9,0.3,1.2,0.3h9.4c1.9,0,3.1-1.2,3.1-3.1s-1.2-3.1-3.1-3.1H131v-25h17.2
			c-7.4,8.5-6.1,21.7,3.7,28.1c7.1,4.7,16.9,4,23.1-1.9c8.2-7.7,8-20.6-0.3-27.8C173.8,66.4,172.8,65.5,171.6,64.9z M81.1,49.9V18.7
			h18.7v31.2H81.1z M6.2,56.2c0-15.6,3.4-20.6,4.4-21.8h51.8v28.4c-7.8,1.2-14,7.5-15.3,15.3h-0.3c0,0,0,0,0-0.3
			c-1.9-10.3-11.7-16.8-22.2-15c-7.9,1.2-14,7.5-15.2,15c0,0,0,0,0,0.3H6.2V56.2z M28.2,93.6c-6.9,0-12.5-5.6-12.5-12.5
			c0-6.9,5.6-12.5,12.5-12.5s12.5,5.6,12.5,12.5C40.6,88,35,93.6,28.2,93.6z M65.6,93.6c-6.9,0-12.5-5.6-12.5-12.5
			c0-6.9,5.6-12.5,12.5-12.5s12.5,5.6,12.5,12.5C78.1,88,72.4,93.6,65.6,93.6z M99.8,64l-14,14h-2.2c-1.3-7.6-7.3-13.7-15-15.6
			c-0.3,0,0.3,0,0,0V6.2h31.2v6.2H81.1c-3.4,0-6.2,2.8-6.2,6.2v31.2c0,3.4,2.8,6.2,6.2,6.2h18.7V64z M146.6,49.9h-40.6v-6.2h45.5
			l13.7,13.7v5H165c-0.9-0.3-1.9-0.3-2.8-0.3c-0.9,0-1.9,0-2.8,0.3h-0.3v-0.3c0-0.9-0.3-1.5-0.9-2.1l-9.4-9.1
			C148.2,50.2,147.6,49.9,146.6,49.9z M118.5,68.6h6.2v23.1l-6.2-3.1V68.6z M162.3,93.6c-6.9,0-12.5-5.6-12.5-12.5
			c0-5,2.8-9.4,7.5-11.2l0,0c2.5-0.9,5-1.2,7.5-0.6c6.9,1.6,10.9,8.1,9.7,15C173.2,89.5,168.2,93.6,162.3,93.6z"/>
		<circle cx="162.3" cy="81.1" r="6.2"/>
		<circle cx="28.2" cy="81.1" r="6.2"/>
		<path d="M15.7,56.2h25c1.9,0,3.1-1.2,3.1-3.1c0-1.9-1.2-3.1-3.1-3.1h-25c-1.9,0-3.1,1.2-3.1,3.1C12.6,54.9,13.8,56.2,15.7,56.2z"
			/>
		<path d="M15.7,46.8h25c1.9,0,3.1-1.2,3.1-3.1s-1.2-3.1-3.1-3.1h-25c-1.9,0-3.1,1.2-3.1,3.1S13.8,46.8,15.7,46.8z"/>
	</g>
</g>
<g class="st0">
	<title>015 - Tractor</title>
	<desc>Created with Sketch.</desc>
	<g class="st1">
		<g>
			<path d="M40.2,101c-10.3,0-18.4,8.1-18.4,18.4s8.1,18.4,18.4,18.4s18.4-8.1,18.4-18.4S50.5,101,40.2,101z M40.2,130.4
				c-6.3,0-11.1-4.8-11.1-11.1c0-6.3,4.8-11.1,11.1-11.1s11.1,4.8,11.1,11.1C51.3,125.7,46.5,130.4,40.2,130.4z"/>
			<path d="M150.8,123.1c-4.4,0-8.5,2.6-10.3,7c-1.8,4.1-0.7,8.8,2.6,12.2c3.3,3.3,8.1,4.1,12.2,2.6c4.1-1.8,7-5.9,7-10.3
				C161.9,128.2,157.1,123.1,150.8,123.1z M150.8,137.8c-2.2,0-3.7-1.8-3.7-3.7c0-2.2,1.8-3.7,3.7-3.7c2.2,0,3.7,1.8,3.7,3.7
				C154.5,136.3,153,137.8,150.8,137.8z"/>
			<path d="M57.2,157.4c10.7-4.8,18.8-14.4,22.1-25.8h46.1c-1.5,10.3,3.3,20.6,12.2,25.8 M164.3,156.2c7.4-4.4,12.2-12.5,12.5-21.4
				s-3.7-17-11.1-22.1V83.3c0-1.8-1.5-3.3-3.3-3.7L140.3,77l10-52.3h37.6h16.6c1.1,0,1.8-0.4,2.6-1.1l12.9-12.9
				c1.4-1.4,1.4-3.7,0-5.2l-31.3-31.3c-1.4-1.4-3.7-1.4-5.2,0l-12.9,12.9c-0.7,0.7-1.1,1.5-1.1,2.6V6.2c0,1.1,0.4,1.8,1.1,2.6
				l8.5,8.5h-30.2l-7.4-7.4h16.8c0,0,3.7-2.6,3.7-4.8s-1.5-3.7-3.7-2.6h-25.8c-0.4-1.1-0.7-1.1-1.5-0.7c0,0-0.4,0-0.4,0.4
				c-0.4,0-0.7,0.4-1.7,0.4l0,0v0.4c0.5,0.4,0.5,0.4,0.5,0.7l3.1,0.4v0.4l-17.1,68.9l-12.3-1.5V28.3c0-2-1.7-3.7-3.7-3.7H33
				c-2.2,0-3.7,1.5-3.7,3.7S30.8,32,33,32h3.7v33.2H33c-2.2,0-3.7,1.5-3.7,3.7c0,2.2,1.5,3.7,3.7,3.7h3.7v6.6
				C18.3,80.7,3.5,94.7,0.6,112.8s6.3,35.8,22.9,43.5 M176.8-8.9l9.2-9.2l26.2,26.2l-9.2,9.2h-13.6L176.8,4.7V-8.9z M95.7,76.3V91
				h-5.5c-4.4-8.5-11.8-15.9-20.3-20.3V32h25.8V76.3z M44.1,32h18.4v35.4c-4.8-1.5-9.6-2.2-14.7-2.2h-3.7V32z M47.8,72.6
				c5.9,0,11.4,1.1,17,3.7c8.8,4.1,15.9,11.1,19.9,19.9c2.6,5.2,3.7,11.1,3.7,17v11.1l-7.4,0c-0.1-0.1-0.1-0.1-0.1-0.2
				c1.9-22.6-14.5-41.8-36.7-43.7v-7.7H47.8z M40.2,152.6c-14,0-26.5-8.8-31.3-22.1c-4.8-13.3-0.7-28,10.3-36.9
				c10.7-8.8,26.2-10,38-2.6c11.8,7.4,18.1,21.4,15.5,35C69.7,141.5,56.1,152.6,40.2,152.6z M169.2,134.1c0,10.3-8.1,18.4-18.4,18.4
				c-10.3,0-18.4-8.1-18.4-18.4s8.1-18.4,18.4-18.4C161.1,115.7,169.2,123.8,169.2,134.1z M158.4,110.5
				c-12.2-3.7-25.1,2.2-30.6,13.6H95.7v-11.1c0-5.2-0.7-10-2.2-14.7h5.9c0,0,0,0,0.4,0s0,0,0,0l47.2,3.7h0.4c2.2,0,3.7-1.5,3.7-3.7
				c0-2.2-1.5-3.7-3.7-3.7l-44.2-3.3V80.7l55.3,6.6V110.5z M122.4,74l12.2-61.6l8.5,8.5l-10.3,54.2L122.4,74z"/>
		</g>
	</g>
</g>
<g class="st0">
	<path class="st1" d="M193.3-19.9L0.2,117.7c-2,1.4-2.4,3.7-1,5.7l0,0L23,156.7c1.4,2,3.7,2.4,5.7,1l0,0L221.8,20
		c2-1.4,2.4-3.7,1-5.7l0,0L199-19C197.6-21,195.3-21.3,193.3-19.9L193.3-19.9z M200.4,25.2l-11.7,8.3c1.5-12.6-6.5-24-19-26.6
		l11.7-8.3L200.4,25.2z M43.2,118.2c-5.2-7.3-3.5-17.6,3.8-22.8c7.3-5.2,17.6-3.5,22.8,3.8c5.2,7.3,3.5,17.6-3.8,22.8
		C58.7,127.2,48.5,125.5,43.2,118.2z M63.2,82.8l21.6-15.4l7.1,10c1.4,2,3.7,2.4,5.7,1l0,0l26.6-19c2-1.4,2.4-3.7,1-5.7l0,0l-7.1-10
		l21.6-15.4c-1.5,12.6,6.5,24,19,26.6l-76.6,54.6C83.4,97.1,75.3,85.7,63.2,82.8z M149.8,42.2c-5.2-7.3-3.5-17.6,3.8-22.8
		c7.3-5.2,17.6-3.5,22.8,3.8s3.5,17.6-3.8,22.8C165.3,51.3,155,49.6,149.8,42.2z M111.5,48.4l4.7,6.7l-20,14.2l-4.7-6.7L111.5,48.4z
		 M8.3,122l6.7-4.7l19,26.6l-6.7,4.7L8.3,122z M21.6,112.5l11.7-8.3c-1.5,12.6,6.5,24,19,26.6l-11.7,8.3L21.6,112.5z M213.7,15.8
		l-6.7,4.7l-19-26.6l6.7-4.7L213.7,15.8z"/>
	<path class="st1" d="M48.5,118.4l20-14.2c2-1.4,2.4-3.7,1-5.7c-1.4-2-3.7-2.4-5.7-1l-20,14.2c-2,1.4-2.4,3.7-1,5.7
		C44.2,119.5,46.5,119.9,48.5,118.4z"/>
	<path class="st1" d="M155,42.5l20-14.2c2-1.4,2.4-3.7,1-5.7s-3.7-2.4-5.7-1l-20,14.2c-2,1.4-2.4,3.7-1,5.7
		C150.7,43.6,153,44,155,42.5z"/>
</g>
<g class="st0">
	<path class="st1" d="M193.2-39.5L164-5.5V26h-23.9V-5.5l-29.2-34l-29.2,34V26H58V-5.5l-29.2-34l-29.2,34v182.7H58v-37.1h23.9v37.1
		h58.4v-37.1H164v37.1h58.4V-5.5L193.2-39.5z M50,171.9H4.9v-31.8H50v31.7V171.9z M50,134.8H4.9V34H50v99.9V134.8z M50,26H4.9V-3.4
		l22.5-27.1L50-3.4v29.9V26z M81.8,134.8H58V34h23.9V134.8z M134.6,171.9H87.1v-31.8h47.7v31.8H134.6z M134.6,134.8H87.1V34h47.7
		v100.8H134.6z M134.6,26H87.1V-3.4L111-30.5l23.9,27.1V26H134.6z M164,134.8h-23.9V34H164V134.8z M214.4,171.9h-45.1v-31.8h45.1
		v31.7V171.9z M214.4,134.8h-45.1V34h45.1v99.9V134.8z M216.8,26h-47.5V-3.4l23.9-27.1l23.9,27.1V26H216.8z"/>
</g>
</svg>
