<?xml version="1.0" encoding="utf-8"?>
<!-- Generator: Adobe Illustrator 23.0.4, SVG Export Plug-In . SVG Version: 6.00 Build 0)  -->
<svg version="1.1" id="Layer_1" xmlns="http://www.w3.org/2000/svg" xmlns:xlink="http://www.w3.org/1999/xlink" x="0px" y="0px"
	 viewBox="0 0 203.2 206.4" style="enable-background:new 0 0 203.2 206.4;" xml:space="preserve">
<style type="text/css">
	.st0{display:none;}
	.st1{display:inline;}
</style>
<g class="st0">
	<g class="st1">
		<path d="M-5.6,152.8l204.3,0c2.4,0,4.6-1.4,5.4-3.6c1.2-3.7-1.6-7.2-5.1-7.2h-11.9c3.5-12.1,8.6-26.4,16.2-37c0,0,0-0.3,0.3-0.3
			v-0.9c0,0-0.5-1.9-0.5-3c0-3-2.4-5.4-5.4-5.4c-0.8,0-1.6,0.3-2.2,0.5c-1.3,0.5-15.9,7-30,20c-2.2-7.8-4.3-18.1-5.4-30
			c-0.3-2.2-1.9-4.3-4-4.9c-2.2-0.5-4.6,0.3-5.9,2.2c-0.3,0.5-6.2,9.4-12.4,22.1c-5.1-22.4-1.9-48-1.6-48.3c0.3-2.7-1.1-5.1-3.5-5.9
			c-2.4-0.8-5.1,0.3-6.5,2.4l-40.5,71c-4.6-39.4,6.7-85.3,7-85.8c0.5-2.4-0.5-4.9-2.7-6.2c-2.2-1.1-4.9-0.5-6.5,1.3
			c-15.9,18.9-25.4,42.4-31,63.1c-5.7-15.1-10.3-24-10.5-24.6c-1.3-2.4-4-3.5-6.5-2.7s-4,3.5-3.5,6.2c1.1,5.4,1.3,20.5,1.1,42.4
			C23.3,103,14.7,92.2,14.1,91.7c-1.6-2.2-4.6-2.7-7-1.3c-2.4,1.3-3.2,4.3-2.2,6.7c7.8,17.8,8.9,32.9,8.1,44.9H-5.3
			c-3-1.5-5.4,1-5.4,3.9C-10.7,148.9-5.6,152.8-5.6,152.8z M183.6,116.1c-3.8,8.9-6.7,17.8-8.9,25.9H158c2.4-4,5.4-7.8,8.9-11.3
			l0.3-0.3C172.5,124.4,178.5,119.9,183.6,116.1z M151.5,103.4c1.6,8.6,3.5,16.2,5.4,22.1c-4.6,5.1-8.4,10.5-11.3,16.5h-8.6
			c1.1-5.7,2.7-11.6,5.4-18.1C145,116.1,148.5,109.1,151.5,103.4z M131.3,122c-2.7,7-4.3,13.8-5.4,20h-37L124,80.2
			C124.2,92.9,125.9,108.8,131.3,122z M77.3,140.9l-0.5,1.1H65.1c-1.6-7.8-3.8-15.9-6.2-23.7c3-15.7,8.4-35.6,18.1-54.2
			C73.8,85,71.4,115.3,77.3,140.9z M48.1,119.9L48.1,119.9c2.2,7.6,4,14.8,5.7,22.1h-8.4c-0.8-1.6-1.6-3-2.4-4.3
			c0.3-10,0.5-20.8,0.5-31C45.2,110.7,46.5,115,48.1,119.9z M23.3,125c3.3,5.3,6.7,10.8,10,17c0,0,0,0,0,0l-9.4,0
			C24.1,137.1,24.1,131.5,23.3,125z"/>
	</g>
</g>
<g class="st0">
	<path class="st1" d="M44,174.7c1,1,1.5,2.2,1.5,3.4c0,1.2-0.5,2.4-1.5,3.4s-2.2,1.5-3.4,1.5c-0.7,0-1.2-0.2-1.9-0.5
		c-0.5-0.2-1.2-0.5-1.5-1c-1-1-1.5-2.2-1.5-3.4c0-1.2,0.5-2.4,1.5-3.4c1.2-1.2,2.9-1.7,4.4-1.5c0.2,0,0.5,0.2,1,0.2
		c0.2,0.2,0.5,0.2,0.7,0.5S43.8,174.5,44,174.7z M191.8,185.9c-0.2-0.2-0.2-0.5-0.5-0.7c-0.2-0.2-0.5-0.5-0.5-0.7
		c-1.2-1.2-3-1.7-4.5-1.5c-0.2,0-0.7,0.2-1,0.2c-0.2,0.2-0.5,0.2-0.7,0.5s-0.5,0.5-0.7,0.5c-0.2,0.2-0.5,0.5-0.5,0.7
		c-0.2,0.2-0.2,0.5-0.5,0.7c-0.2,0.2-0.2,0.5-0.2,1c0,0.2,0,0.7,0,1c0,1.2,0.5,2.5,1.5,3.5c0.7,1.2,2,1.7,3.2,1.7
		c0.7,0,1.2-0.2,2-0.5c0.5-0.2,1.2-0.5,1.5-1c1-1,1.5-2.2,1.5-3.5c0-0.2,0-0.7,0-1C192,186.6,192,186.1,191.8,185.9z M211.1,194
		c-2.2,9.4-10,16.9-19.6,18.4c-9.7,1.6-18.4-2.6-23.5-9.4H65.3c-6.7,6.7-16.3,10.4-26.6,9.6C22.4,211.4,9,198.2,7.6,181.8
		c-1.6-18.1,11-33.8,28.1-36.6L13.8,27c-0.5-2.2-2.4-3.9-4.9-3.9l-10.9,0c-2.1,0-4.2-1.2-4.8-3.2c-1.1-3.3,1.4-6.5,4.6-6.5H9.1
		c7.1,0,12.9,4.9,14.3,11.7l22.1,119.9c1.5,0.2,2.7,0.5,4.1,0.7l50.1,6.8v-15.1h-7.3c-2.7,0-4.9-2.2-4.9-4.9v-4.9
		c0-13.4,10.9-24.3,24.3-24.3h14.6c13.4,0,24.3,10.9,24.3,24.3v4.9c0,2.7-2.2,4.9-4.9,4.9h-7.3v20.2l49.1,6.6
		C202.8,164.4,214.6,178.6,211.1,194z M140.3,127.7c0-8-6.6-14.6-14.6-14.6h-14.6c-8,0-14.6,6.6-14.6,14.6H140.3z M109.6,137.4v16.3
		l19.5,2.7v-19H109.6z M64.9,178.2c0-11.2-7.5-20.4-17.8-23.3l-6.8-1c-13.4,0.2-24.1,10.9-24.1,24.3c0,13.4,10.9,24.3,24.3,24.3
		S64.9,191.5,64.9,178.2z M169,171.7L67.6,158.1c4.4,5.8,7.1,12.9,7.1,20.7c0,5.4-1.2,10.2-3.4,14.6h91.4c-0.2-1.7-0.5-3.2-0.5-4.9
		C162.2,181.9,164.9,176.1,169,171.7z M201.1,187.9c0-8-6.6-14.6-14.6-14.6c-8,0-14.6,6.6-14.6,14.6c0,8,6.6,14.6,14.6,14.6
		C194.6,202.5,201.1,195.9,201.1,187.9z"/>
</g>
<g class="st0">
	<path class="st1" d="M17.4,157.9c4.2,0.4,7.7-1.1,10.4-4.1c4.2,5.1,11.8,5.7,16.9,1.2c0.6-0.3,0.9-0.9,1.2-1.2
		c4.2,5.1,11.8,5.7,16.9,1.2c0.6-0.3,0.9-0.9,1.2-1.2c4.2,5.1,11.8,5.7,16.9,1.2c0.6-0.3,0.9-0.9,1.2-1.2c4.2,5.1,11.8,5.7,16.9,1.2
		c0.6-0.3,0.9-0.9,1.2-1.2c4.2,5.1,11.8,5.7,16.9,1.2c2.4-2.1,3.9-4.8,4.2-8.1l31,31c1.1,1.1,2.3,1.2,5.5,0.2
		c10.6-3.4,17.7-13.4,17.7-24.6l0-46.7h3c1.7,0,3-1.3,3-3V91.7v-0.3v-0.3l-6-36.2c-0.3-1.5-1.5-2.4-3-2.4h-18.1
		c-1.5,0-2.7,1.2-3,2.4l-6,36.2v0.3v0.3v12.1c0,1.7,1.3,3,3,3h3v38l-30.1-30.1l0-59.3c0-6.3-5.1-12.2-11.3-12.6
		c-3.9-0.2-7.5,1.3-9.8,4.2c-4.2-5.1-11.8-5.7-16.9-1.2c-0.6,0.3-0.9,0.9-1.2,1.2c-4.2-5.1-11.8-5.7-16.9-1.2
		c-0.6,0.3-0.9,0.9-1.2,1.2c-4.2-5.1-11.8-5.7-16.9-1.2c-0.6,0.3-0.9,0.9-1.2,1.2c-4.2-5.1-11.8-5.7-16.9-1.2
		c-0.6,0.3-0.9,0.9-1.2,1.2c-4.2-5.1-12.1-5.7-16.9-1.2c-2.7,2.1-4.2,5.4-4.2,9l0,90.8C6.7,151.4,11.5,157.3,17.4,157.9z
		 M175.5,100.7h-24.1v-6h24.1V100.7z M156.5,58.5h13l5.1,30.1h-22.9L156.5,58.5z M169.5,106.7V158c0,7.2-5.1,13.3-12.1,14.8v-66
		H169.5z M151.4,152.4v15.7l-30.1-30.1v-15.7L151.4,152.4z M115.2,55c0,14.5,0,75.4,0,89.8c0,2.6-1.5,5.2-4,6c-4.2,1.4-8-1.7-8-5.7
		V54.7c0-4,3.9-7.1,8-5.7C113.7,49.9,115.2,52.4,115.2,55z M97.1,55c0,14.5,0,75.4,0,89.8c0,2.6-1.5,5.2-4,6c-4.2,1.4-8-1.7-8-5.7
		V54.7c0-4,3.9-7.1,8-5.7C95.6,49.9,97.1,52.4,97.1,55z M79.1,55c0,14.5,0,75.4,0,89.8c0,2.6-1.5,5.2-4,6c-4.2,1.4-8-1.7-8-5.7V54.7
		c0-4,3.9-7.1,8-5.7C77.5,49.9,79.1,52.4,79.1,55z M61,55c0,14.5,0,75.4,0,89.8c0,2.6-1.5,5.2-4,6c-4.2,1.4-8-1.7-8-5.7V54.7
		c0-4,3.9-7.1,8-5.7C59.4,49.9,61,52.4,61,55z M42.9,55c0,14.5,0,75.4,0,89.8c0,2.6-1.5,5.2-4,6c-4.2,1.4-8-1.7-8-5.7V54.7
		c0-4,3.9-7.1,8-5.7C41.4,49.9,42.9,52.4,42.9,55z M12.7,54.7c0-4,3.9-7.1,8-5.7c2.5,0.8,4,3.4,4,6c0,14.5,0,75.4,0,89.8
		c0,2.6-1.5,5.2-4,6c-4.2,1.4-8-1.7-8-5.7V54.7z"/>
	<path class="st1" d="M163.4,30.6c-1.8,0-3,1.2-3,3v9c0,1.8,1.2,3,3,3c1.8,0,3-1.2,3-3v-9C166.5,31.8,165.3,30.6,163.4,30.6z"/>
	<path class="st1" d="M166.5,12.5c0-1.8-1.2-3-3-3c-1.8,0-3,1.2-3,3v9c0,1.8,1.2,3,3,3c1.8,0,3-1.2,3-3V12.5z"/>
	<path class="st1" d="M139,30.6c0,1.8,1.2,3,3,3c5.1,0,9,3.9,9,9c0,1.8,1.2,3,3,3s3-1.2,3-3c0-8.4-6.6-15.1-15.1-15.1
		C140.3,27.6,139,28.8,139,30.6z"/>
	<path class="st1" d="M184.3,27.6c-8.4,0-15.1,6.6-15.1,15.1c0,1.8,1.2,3,3,3s3-1.2,3-3c0-5.1,3.9-9,9-9c1.8,0,3-1.2,3-3
		S186.1,27.6,184.3,27.6z"/>
</g>
<g>
	<g>
		<path d="M84.6,88.1c-4.2,3.9-4.3,10.1-0.4,14.3c3.9,4.2,10.1,4.3,14.3,0.4s4.3-10.1,0.4-14.3C95,84.3,88.8,84.1,84.6,88.1z
			 M93.9,97.9c-1.5,1.4-3.4,1.3-4.8-0.1s-1.3-3.4,0.1-4.8c1.5-1.4,3.4-1.3,4.8,0.1C95.4,94.6,95.3,96.5,93.9,97.9z"/>
		<path d="M194.9,108.9l-43.2-22.1l0,0c-0.2-0.2-0.7-0.3-1.2-0.3l0,0l0,0l-31.1-2.6l-0.2-0.2l-31.2-62l0,0
			C82.3,10.5,71.4,2.5,59,0.6C52.7-0.6,46.6,0,40.7,1.9c-1.2-0.3-1.5,0-2,0.4C38.2,2.8,38,3,38,3.5c-0.5,1-0.3,2.2,0.4,2.9
			l42.1,64.4l-0.5,0.5l-10.6,10L7.8,35.3c-1-0.5-2.2-0.8-2.9-0.5s-1,0.5-1.5,0.9c-0.5,0.5-0.8,0.7-0.8,1.2c-2.4,6-2.9,12.1-2.4,18.2
			l0,0l0,0l0,0c1.2,12.4,8.6,23.8,19.3,30.1l60,34.9l0.2,0.2l0.7,31.2l0,0l0,0c0,0.5,0.2,0.7,0.2,1.2l0,0l19.5,44.5
			c1.8,3.9,5.1,6.9,8.9,8.5c4.1,1.3,8.5,0.9,12.5-1c1.2-0.7,2.5-1.4,3.5-2.4c5.1-4.8,6.6-12.3,3.4-18.7L107,140.6l-5.6-24.7
			l12.1-11.4l24.3,7.1l41.7,24c6.2,3.5,13.8,2.5,18.8-2.3c1-1,1.8-2.2,2.6-3.4c2.3-3.6,2.8-8.2,1.7-12.4
			C201.5,114.4,198.7,110.9,194.9,108.9z M82.1,27.1L82.1,27.1l25.2,48.8l-2.3-2.4c-0.7-0.7-1.4-1.5-2.3-2c-0.2-0.2-0.5-0.5-0.7-0.3
			c-0.7-0.3-1.2-0.7-1.9-1C99.9,70,99.9,70,99.4,70c-0.9-0.5-1.9-0.5-2.8-1l-0.5,0l-0.5,0l0,0c1.2-1.2,1.5-2.8,0.6-4.3L66.4,12.4
			C73,15,79,20.4,82.1,27.1z M53.2,11c0.5,0,1,0,1.4,0c1,0,1.7,0.3,2.6,0.3l31.9,55.9l-2.4,2.3l-38.5-58
			C49.9,11.4,51.5,11.2,53.2,11z M9.6,53.5c0-0.5,0-1,0-1.4c0-1.4,0.3-3.1,0.6-4.7L66.1,89l-2.4,2.3L9.7,56.1
			C9.8,55.2,9.8,54.2,9.6,53.5z M122.8,187.5c2,4.1,0.4,9.3-3.7,11.3c-2.2,1.1-4.3,1.3-6.9,0.5c-2.1-0.8-4-2.3-4.9-4.7l-18.1-40.8
			l13.5-6.3L122.8,187.5z M100.4,141.6l-12.3,5.6l-1-23.1c0.7,0.3,1.4,0,2.4,0.1l0.5,0c0.5,0,1.2-0.2,1.7-0.2c0.2-0.2,0.5,0,0.7-0.2
			c0.5,0,0.7-0.2,1.4-0.4c0.2-0.2,0.7-0.2,1-0.4c0.2-0.2,0.7-0.2,1-0.4L100.4,141.6z M112.3,100.9l-14.7,13.8
			c-2.7,2.5-7,3.4-10.5,2.1c-0.5,0-0.9-0.5-1.6-0.8L26.5,81.5c-6.5-4-11.6-9.9-14-16.8l50.4,32.9c1.2,0.7,3.1,0.8,4.3-0.3l7.3-6.9
			l12.2-11.5c4.1-3.8,10.4-3.6,14.3,0.4l11.5,12.2c0.5,0.5,1.4,1,2.1,1.3l3.1,0.3l0,0l27.5,2.7l-6.3,11.9l-23.3-7.1
			C114.5,99.8,113.3,100,112.3,100.9z M194.3,122.5c0.6,2.2,0.3,4.8-0.9,6.9c-2.3,4-7.5,5.2-11.5,3l-38.4-22.6l7.1-13.1l39.6,20.5
			C192,118.6,193.6,120.4,194.3,122.5z"/>
	</g>
</g>
<g class="st0">
	<g class="st1">
		<g>
			<path d="M108.8,83.2c11.5-1.5,20.9-7.9,20.9-14.9c0-4.9-4.4-8.5-8.2-10.7c-5.5-3.2-11.9-4.5-18.1-4.5c4-4,7.4-9,9.2-14.4
				c1.5-4.7,2.3-11-1.3-14.9c-3.3-3.3-9-3-13.4-1.8c-6,1.7-11.7,5.2-16.1,9.7c0-8.2-2.3-17.9-8.9-23.6c-2.3-2.2-5.7-3.3-9-2.2
				c-4.2,1.5-7,5.5-8.9,9.4c-2.5,5-3.7,10.7-3.5,16.4c-4.4-4.4-9.9-7.9-15.9-9.5c-4.4-1.2-10-1.7-13.6,1.8c-3.8,3.8-3,10.2-1.3,14.9
				c1.8,5.5,5.2,10.4,9.2,14.4c-6.2,0-12.7,1.3-18.1,4.5c-3.8,2-8.2,5.7-8.2,10.5c0,4.9,4.4,8.5,8.2,10.7c5.5,3.2,11.9,4.5,18.1,4.5
				c-4,4-7.4,9-9.2,14.4c-1.5,4.7-2.3,11,1.3,14.9c3.8,3.8,10.2,2.8,14.7,1.3c5.5-1.8,10.5-5.2,14.6-9.2c0,6.2,1.3,12.7,4.5,18.1
				c2.2,3.8,5.9,8,10.7,8s8.5-4.2,10.7-8c3.2-5.5,4.5-11.9,4.5-18.1c4,4.2,9,7.4,14.6,9.2c4.5,1.5,10.9,2.3,14.7-1.3
				c4.9-4.9,2.3-13.4-0.2-18.6c2.3,2.3,4.5,4.9,6.7,7.7c14.2,18.9,24.4,52.5-6,105.9c-2.2,3.7,3.7,7,5.9,3.3
				c10.9-18.9,16.7-35.6,19.2-50.2c6.7,2.7,14.2,3.8,21.3,1.7c5.7-1.7,9-5,14.1-9.9c7.7-7.4,15.7-14.1,24.4-20.1
				c1.8-1.2,2-4,0.2-5.4c-13.2-10.5-31.8-12.2-46-4c-5.9,3.3-9.9,7.7-12.9,12C134.9,108.8,119.7,92,108.8,83.2z M103.8,59.7
				c11.9,0,19.4,6,19.4,8.5c0,2.5-7.5,8.5-19.4,8.5c-5.2,0-9.4-1.2-12.6-2.5c1-3.8,1-7.9,0-11.9C94.4,60.9,98.6,59.7,103.8,59.7z
				 M86.9,36.1c8.7-9.5,19.1-8.2,19.6-7.5s1.8,9.4-7.5,19.6c-3.5,3.7-7.4,5.9-10.7,7c-2-3.3-5-6.4-8.4-8.4
				C81,43.5,83.4,39.6,86.9,36.1C93.1,29.9,83.5,39.8,86.9,36.1z M66.8,12c2.5,0,8.5,7.5,8.5,19.4c0,5-1.2,9.4-2.5,12.6
				c-3.8-1-8-1-11.9,0c-1.5-3.2-2.5-7.5-2.5-12.6C58.3,19.6,64.3,12,66.8,12z M27,28.6c0.5-0.7,10.7-1.5,19.6,7.5l0,0
				c3.5,3.5,5.9,7.4,7,10.7c-3.3,2.2-6.4,5-8.4,8.4c-3.3-1.2-7.4-3.3-10.7-7C24.5,37.3,26.5,29.3,27,28.6z M29.8,76.8
				c-11.9,0-19.4-6-19.4-8.5s7.5-8.5,19.4-8.5c5.2,0,9.4,1.2,12.6,2.5c-1,3.8-1,8,0,11.9C39.2,75.6,34.8,76.8,29.8,76.8z
				 M46.7,100.4c-8.4,8.4-17.9,9.4-19.7,7.7c-0.3-0.3-2.8-9.5,7.7-19.7c3.7-3.5,7.4-5.9,10.7-7c2,3.3,5,6.4,8.4,8.4
				C52.4,93.2,50.1,97,46.7,100.4z M66.8,124.7c-2.5,0-8.5-7.5-8.5-19.4c0-5,1.2-9.4,2.5-12.6c3.8,1,8,1,11.9,0
				c1.5,3.2,2.5,7.5,2.5,12.6C75.3,117.1,69.3,124.7,66.8,124.7z M66.8,86.7c-10.2,0-18.4-8.2-18.4-18.4s8.2-18.4,18.4-18.4
				s18.4,8.2,18.4,18.4S76.8,86.7,66.8,86.7z M106.6,108.1c-1.8,1.8-11.4,0.7-19.7-7.7c-3.5-3.5-5.9-7.4-7-10.7c3.3-2,6.4-5,8.4-8.4
				c3.3,1.2,7,3.5,10.7,7C109.5,98.1,107,107.8,106.6,108.1z M153.8,129.2c8.7-4.9,19.2-5.5,28.6-2.2c-9.9,1.7-19.4,6.4-27.1,10.5
				c-7,4-12.2,7.4-16.2,10.4C140.9,142.1,145,134.2,153.8,129.2z M178.8,137.7c-5,4.2-8.5,7.5-11.4,10.4c-4.7,4.5-7.2,7-11.4,8.2
				c-4.5,1.3-9.5,1-15.4-1c4.4-3.3,9.9-7.2,18.1-11.7c9.9-5.5,18.1-8.9,25.3-9.9C182.1,134.9,180.4,136.4,178.8,137.7z"/>
		</g>
	</g>
</g>
<g class="st0">
	<title>Artboard 10</title>
	<g class="st1">
		<path d="M46,149.2c-0.8-2.2-2.7-3.8-5.1-3.8H12.2l-9.5-28.7c-1.1-2.7-4.1-4.3-6.8-3.5c-2.7,1.1-4.3,4.1-3.5,6.8l10.3,30.9
			l-10.3,30.9c-0.8,2.7,0.5,6,3.5,6.8c2.7,0.8,6-0.5,6.8-3.5l9.5-28.7h24.6l9.5,28.7c1.1,2.7,4.1,4.3,6.8,3.5
			c2.7-1.1,4.3-4.1,3.5-6.8L46,149.2z"/>
		<path d="M137.2,113h-32.5V58.8h86.6c3,0,5.4-2.4,5.4-5.4l0,0V42.6c0-2.2-1.1-4.1-3-4.9L101.6-5.6c-1.4-0.8-3.3-0.8-4.6,0L4.8,37.7
			c-1.9,0.8-3,2.7-3,4.9v10.8c0,3,2.4,5.4,5.4,5.4l0,0h86.7V113H62.5c-3-0.6-5.4,1.9-5.4,4.8c0,3,2.4,5.4,5.4,6h31.3v54.2h-5.4
			c-1.9,0-3.8,1-4.7,2.7c-2.1,4.1,0.8,8.2,4.7,8.2l21.7,0c1.9,0,3.8-1,4.7-2.7c2.1-4.1-0.8-8.2-4.7-8.2h-5.4v-54.2l32.2,0
			c2.4,0,4.6-1.4,5.4-3.6C143.5,116.4,140.7,113,137.2,113z M12.6,46.1L99.3,5.2l86.7,40.9V48H12.6V46.1z"/>
		<path d="M198.2,150.9l10.3-30.9c0.8-2.7-0.5-6-3.5-6.8c-2.7-0.8-6,0.5-6.8,3.5l-9.5,28.7H160c-2.4,0-4.3,1.6-5.1,3.8L144,181.7
			c-0.8,2.7,0.5,6,3.5,6.8c2.7,0.8,6-0.5,6.8-3.5l9.5-28.7h24.6l9.5,28.7c1.1,2.7,4.1,4.3,6.8,3.5c2.7-1.1,4.3-4.1,3.5-6.8
			L198.2,150.9z"/>
	</g>
</g>
<g class="st0">
	<path class="st1" d="M208.6,89.1c-2.9-12.4-12.9-21.7-25.1-24.1c0-0.7-0.2-1.5-0.5-2.2c-1.9-8.3-6.8-15.3-14.1-19.7
		c-5.8-3.7-12.7-5.4-19.5-4.6c-5.6-14.6-21.2-23.1-36.8-19.5c-4.6,1-9,3.2-12.7,6.1c-5.8-4.4-12.7-6.8-19.7-6.8
		c-12.7,0-24.1,7.8-29,19.2c-17.1-1.2-31.4,11.2-33.6,27.3C2.1,66.7-9.9,80.1-9.9,96.2c0,13.4,8.5,25.6,20.9,30c0,0,0,0,0,0
		c-0.7,16.3,11.1,29.1,30.7,33.1c1.9,0.5,16.6,0.5,35.1,0.5c27.8,0,64.3-0.2,79.9-0.5l9.5-0.7h0.7c14.1-3.2,24.6-18.3,24.6-33.6
		C204.7,118.6,212,103.7,208.6,89.1z M185.1,117.4l-3.7,1.2l0.5,3.7c1.5,11.7-6.4,24.1-16.9,26.8l-8.6,0.7
		c-43.2,0.5-108.9,0.7-113.5,0c-5.4-1.2-23.3-6.1-23.3-22.4c0-1.5,0.2-2.9,0.5-4.1l1-4.6l-4.7-1C6.1,115.4-1.3,106.2-1.3,95.7
		c0-12.4,10.1-22.4,22.3-22.4h4.7v-4.6c0-12.4,10.1-22.4,22.3-22.4c1.5,0,2.9,0.2,4.7,0.5l4.4,0.7l1.2-4.1
		c2.7-9.5,11.5-16.1,21.6-16.1c6.1,0,12,2.4,16.2,6.8l3.4,3.7l3.4-3.7c2.9-3.2,6.9-5.6,11.3-6.6c12-2.7,24,4.6,27,16.8l1,4.6l4.7-1
		c5.9-1.5,11.8-0.2,16.9,2.7c5.1,3.2,8.6,8,10.1,13.9c0.2,1.5,0.5,2.9,0.5,4.4v4.4l4.4,0.2c9.8,0.5,18.4,7.6,20.6,17.3
		C202,102.3,195.9,113.7,185.1,117.4z"/>
	<path class="st1" d="M159,86.1c-7.1-3.7-15.3-2.7-21.2,2.4c-4.4-2.2-9.3-2.7-13.9-1.2c-4.9,1.5-8.8,4.6-11.2,9.3
		c-0.5,1-0.2,1.9,0.7,2.4c1,0.5,1.9,0.2,2.4-0.7c1.9-3.7,5.1-6.3,9-7.6c3.9-1.2,8-0.7,11.7,1.2c0.2,0,0.2,0.2,0.5,0.2l1.2,0.7l1-1
		c4.9-4.9,12.2-5.8,18-2.7c7.6,3.9,10.2,13.4,6.3,20.9c-0.5,1-0.2,1.9,0.7,2.4c0.2,0.2,0.5,0.2,0.7,0.2c0.7,0,1.2-0.2,1.5-1
		C171.6,102.6,168.2,91,159,86.1z"/>
	<path class="st1" d="M64.4,65.1c-4.9-1.5-10-0.7-14.4,1.7c-6.8,3.9-10.7,11.4-9.5,19.2c-8.8,5.1-11.9,16.6-6.8,25.6
		c0.2,0.5,1,1,1.5,1c0.2,0,0.5,0,1-0.2c1-0.5,1.2-1.5,0.7-2.4c-4.1-7.3-1.5-16.8,6.1-20.9c0.2,0,0.2-0.2,0.5-0.2l1.2-0.5l-0.2-1.5
		C43,80.2,46.2,73.4,52,70.2c3.7-1.9,7.8-2.4,11.7-1.5c3.9,1.2,7.3,3.7,9.3,7.3c0.5,1,1.5,1.2,2.4,0.7c1-0.5,1.2-1.5,0.7-2.4
		C73.4,69.8,69.3,66.6,64.4,65.1z"/>
</g>
<g class="st0">
	<g class="st1">
		<g>
			<g>
				<rect x="-0.3" y="160.2" width="31.1" height="9.6"/>
				<rect x="69" y="160.2" width="31.1" height="9.6"/>
				<rect x="102.4" y="160.2" width="31.1" height="9.6"/>
				<rect x="33.1" y="160.2" width="31.1" height="9.6"/>
				<rect x="135.8" y="160.2" width="31.1" height="9.6"/>
				<rect x="171.7" y="160.2" width="31.1" height="9.6"/>
				<rect x="16.4" y="174.6" width="31.1" height="9.6"/>
				<rect x="49.8" y="174.6" width="31.1" height="9.6"/>
				<rect x="85.7" y="174.6" width="31.1" height="9.6"/>
				<rect x="119.1" y="174.6" width="31.1" height="9.6"/>
				<rect x="152.6" y="174.6" width="31.1" height="9.6"/>
				<rect x="188.4" y="174.6" width="11.9" height="9.6"/>
				<rect x="-0.3" y="188.9" width="31.1" height="9.6"/>
				<rect x="33.1" y="188.9" width="31.1" height="9.6"/>
				<rect x="69" y="188.9" width="31.1" height="9.6"/>
				<rect x="102.4" y="188.9" width="31.1" height="9.6"/>
				<rect x="135.8" y="188.9" width="31.1" height="9.6"/>
				<rect x="171.7" y="188.9" width="31.1" height="9.6"/>
				<rect x="16.4" y="203.2" width="31.1" height="9.6"/>
				<rect x="49.8" y="203.2" width="31.1" height="9.6"/>
				<rect x="-0.3" y="174.6" width="11.9" height="9.6"/>
				<rect x="-0.3" y="203.2" width="11.9" height="9.6"/>
				<rect x="85.7" y="203.2" width="31.1" height="9.6"/>
				<rect x="119.1" y="203.2" width="31.1" height="9.6"/>
				<rect x="152.6" y="203.2" width="31.1" height="9.6"/>
				<rect x="188.4" y="203.2" width="11.9" height="9.6"/>
			</g>
			<path d="M200.3,36v-2.4H186V16.9l2.4-3.3l-5.7-15.8l-5.5,15.8l4.1,3.3v16.8h-23.9V16.9l3.6-3.3l-5.5-15.8l-5.5,15.8l2.6,3.3v16.8
				h-21.5V17.9l3.5-3.3l-6-15.8l-5.8,15.8l3.5,3.3v15.8h-23.9V16.9l3.8-3.3l-5.5-15.8l-5.5,15.8l2.4,3.3v16.8H76.1V16.9l2.9-3.3
				L73.5-2.2L68,13.5l3.3,3.3v16.8H47.5V17.9l3.5-3.3l-6-15.8l-5.8,15.8l3.5,3.3v15.8H21.2V16.9l3.1-3.3L18.8-2.2l-5.5,15.8l3.1,3.3
				v16.8H-0.3v4.8h16.7v93.2H-0.3v4.8h16.7v19.1h4.8v-19.1h21.5v19.1h4.8v-19.1h23.9v19.1h4.8v-19.1h21.5v19.1h4.8v-19.1h23.9v19.1
				h4.8v-19.1h21.5v19.1h4.8v-19.1h23.9v19.1h4.8v-19.1h14.3v-4.8h-16.7V36H200.3z M21.2,131.6V36h23.9v95.5H21.2z M47.5,131.6V36
				h23.9v95.5H47.5z M76.1,131.6V36H100v95.5H76.1z M102.4,131.6V36h23.9v95.5H102.4z M128.7,131.6V36h23.9v95.5H128.7z
				 M181.2,131.6h-23.9V36h23.9V131.6z"/>
		</g>
	</g>
</g>
<g class="st0">
	<g class="st1">
		<g>
			<g>
				<g>
					<path d="M35.8,33.5c1.6,1.6,3.3,3.3,4.9,4.9c3.9,3.9,7.9,7.9,11.8,11.8c4.7,4.7,9.5,9.5,14.2,14.2c4.1,4.1,8.2,8.2,12.3,12.3
						c2,2,3.9,4.1,6,6c0,0,0.1,0.1,0.1,0.1c0-1.9,0-3.8,0-5.7l-8.5,8.5h5.7c-1.6-1.6-3.3-3.3-4.9-4.9c-3.9-3.9-7.9-7.9-11.8-11.8
						c-4.7-4.7-9.5-9.5-14.2-14.2c-4.1-4.1-8.2-8.2-12.3-12.3c-2-2-4-4.1-6-6c0,0-0.1-0.1-0.1-0.1c-1.5-1.5-4.2-1.6-5.7,0
						c-0.4,0.4-0.8,0.8-1.2,1.2c-0.2,0.2-0.4,0.4-0.7,0.7c0,0-0.1,0.1-0.1,0.1c-0.1,0.1-0.1,0.1-0.2,0.2c-0.4,0.4,0.1-0.2,0.2-0.2
						c0,0-0.6,0.3-0.6,0.4c0,0,0.8-0.3,0.4-0.2c-0.4,0.1,0.5-0.1,0.5-0.1c0.3,0,0.6,0.1,0.9,0.2c0.5,0.1,0.2,0.1,0,0
						c0,0,0.6,0.4,0.2,0.1c-0.4-0.4,0.3,0.4,0.3,0.4c-0.1-0.1-0.2-0.2-0.3-0.3c-1.4-1.9-2.8-3.8-4.2-5.6c-3-4-6.1-8-9-12
						c-0.1-0.1-0.1-0.2-0.2-0.3c-0.2-0.3-0.4-0.8-0.1-0.1c-0.1-0.2-0.3-0.5,0,0c0.2,0.3,0,0.3,0,0c0,0-0.2,0.8,0,0.4
						c0.2-0.5-0.3,0.7-0.1,0.2c0.2-0.4-0.4,0.3-0.1,0.2c0.1-0.1,0.2-0.2,0.3-0.3c0.9-0.9,1.8-1.8,2.7-2.7c1.2-1.2,2.3-2.3,3.4-3.4
						c0.4-0.4,0.8-0.8,1.1-1.1c0.1-0.1,0.2-0.2,0.3-0.3c0.2-0.3-0.5,0.3-0.2,0.1c0.4-0.2-0.3,0.1-0.3,0.1c0.1,0,0.6-0.1,0,0
						c-0.5,0.1-0.1,0,0,0c0,0-0.8-0.1-0.4,0s-0.3-0.1-0.3-0.1c0,0,0.4,0.2,0.4,0.2c0.1,0.1,0.3,0.2,0.4,0.3c0.1,0.1,0.2,0.2,0.4,0.3
						c0.7,0.5,1.4,1.1,2.2,1.6c2.5,1.9,5,3.8,7.5,5.7c2.2,1.7,4.5,3.4,6.7,5c0.4,0.3,0.8,0.6,1.3,1c0,0-0.5-0.4-0.5-0.4
						c0.1,0.1,0.5,0.3,0.1,0c-0.3-0.2-0.1-0.2,0,0c-0.1-0.3-0.2-0.5-0.3-0.8c0-0.3,0-0.6,0.1-0.9c0,0.2-0.2,0.4,0.1,0
						c0.4-0.8-0.3,0.3-0.2,0.3c0-0.1,0.5-0.6,0.2-0.3c-0.1,0.1-0.2,0.2-0.3,0.3c0,0-0.1,0.1-0.1,0.1c-0.2,0.2-0.5,0.5-0.7,0.7
						c-0.4,0.4-0.8,0.8-1.2,1.2C34.3,29.3,34.2,32,35.8,33.5c1.6,1.5,4.1,1.6,5.7,0c1.2-1.2,2.5-2.3,3.4-3.7c1-1.6,1.4-3.6,0.8-5.4
						c-0.5-1.7-1.7-2.8-3.1-3.8c-1.7-1.3-3.5-2.6-5.3-4c-2.9-2.1-5.7-4.3-8.6-6.4c-1.6-1.2-3.2-2.7-5-3.6c-3-1.6-6.4-1.1-8.8,1.3
						c-1,0.9-1.9,1.9-2.8,2.8c-1.2,1.2-2.5,2.5-3.7,3.7c-1.1,1.1-2.2,2.1-2.8,3.6c-1.1,2.5-0.5,5.3,1.1,7.4c0.5,0.7,1.1,1.5,1.7,2.2
						c2,2.7,4.1,5.5,6.1,8.2c1.7,2.3,3.4,4.5,5.1,6.8c1.2,1.5,2.3,3,4.3,3.6c3.1,1.1,5.7-0.8,7.8-2.9c0.5-0.5,0.9-0.9,1.4-1.4h-5.7
						c1.6,1.6,3.3,3.3,4.9,4.9c3.9,3.9,7.9,7.9,11.8,11.8c4.7,4.7,9.5,9.5,14.2,14.2c4.1,4.1,8.2,8.2,12.3,12.3c2,2,4,4.1,6,6
						c0,0,0.1,0.1,0.1,0.1c1.9,1.9,5.3,1.5,6.5-1.2c2.3-2.3,4.4-4.3,6.7-6.6c2.5-1.3,2.8-4.6,1-6.5c-1.6-1.6-3.3-3.3-4.9-4.9
						c-3.9-3.9-7.9-7.9-11.8-11.8c-4.7-4.7-9.5-9.5-14.2-14.2c-4.1-4.1-8.2-8.2-12.3-12.3c-2-2-4-4.1-6-6c0,0-0.1-0.1-0.1-0.1
						c-1.5-1.5-4.3-1.6-5.7,0C34.3,29.4,34.2,31.9,35.8,33.5z"/>
				</g>
			</g>
			<g>
				<g>
					<path d="M183.1,175.1c-2.1,2.1-4.2,4.2-6.3,6.3c-0.7,0.7-1.4,1.5-2.2,2.2c-0.3,0.3-0.6,0.5-0.9,0.8c-0.5,0.5,0.6-0.4-0.2,0.2
						c-0.6,0.4-1.2,0.7-1.9,1.1c-0.6,0.3,0.7-0.2-0.2,0.1c-0.3,0.1-0.6,0.2-0.9,0.3c-0.4,0.1-0.7,0.2-1.1,0.3c-0.1,0-0.3,0-0.4,0.1
						c-0.5,0.1,0.9-0.1,0.1,0c-0.6,0-1.3,0.1-1.9,0.1c-0.3,0-0.6,0-1-0.1c-0.6,0,0.8,0.2,0.2,0c-0.2-0.1-0.5-0.1-0.7-0.1
						c-0.6-0.1-1.3-0.3-1.9-0.6c-0.7-0.2,0.7,0.3-0.2-0.1c-0.3-0.2-0.7-0.3-1-0.5c-0.3-0.2-0.6-0.4-0.9-0.5c-0.6-0.4,0,0.1,0.1,0.1
						c-0.1-0.1-0.4-0.3-0.4-0.4c-0.2-0.2-0.4-0.4-0.7-0.6c-0.1-0.1-0.2-0.2-0.3-0.3c-1.3-1.3-2.6-2.6-3.9-3.9
						c-5.1-5.1-10.2-10.3-15.4-15.4c-4.6-4.6-9.1-9.1-13.7-13.7c-0.5-0.5-1-1-1.4-1.4c-0.1-0.1-0.2-0.2-0.3-0.3
						c0-0.1-0.4-0.5-0.4-0.4c0.1,0,0.5,0.8,0.1,0.1c-0.1-0.1-0.1-0.2-0.2-0.4c-0.1-0.1-0.4-0.6-0.1-0.1c0.3,0.4,0-0.1-0.1-0.3
						c0-0.2-0.3-1.2-0.1-0.5c0.1,0.6,0-0.3,0-0.5c0-0.7-0.2,0.8,0-0.1c0-0.2,0.1-0.4,0.1-0.5c0.1-0.2,0.3-0.6,0-0.2
						c-0.3,0.5,0.2-0.4,0.3-0.5c0.4-0.7-0.1,0.1-0.1,0.1c0-0.1,0.4-0.4,0.4-0.4c0.1-0.1,0.2-0.2,0.3-0.3c1.2-1.2,2.5-2.5,3.7-3.7
						c0.3-0.3,0.7-0.7,1-1c1.5-1.5,1.6-4.2,0-5.8c-4.9-4.9-9.9-9.9-14.8-14.8c-0.7-0.7-1.4-1.4-2.1-2.1c0,1.9,0,3.8,0,5.8
						c2.8-2.8,5.6-5.6,8.5-8.5c-1.9,0-3.8,0-5.7,0c4.9,4.9,9.9,9.9,14.8,14.8c0.7,0.7,1.4,1.4,2.1,2.1c1.5,1.5,4.2,1.6,5.7,0
						c1.6-1.6,3.3-3.3,4.9-5c0,0,0.4-0.4,0.4-0.4c0,0-0.6,0.4-0.2,0.2c0.1-0.1,0.2-0.2,0.4-0.2s0.3-0.1,0.4-0.2
						c0.3-0.2-0.3,0.1-0.3,0.1c0.2,0,0.7-0.2,0.9-0.3c0.1,0,0.3,0,0.4-0.1c0,0-0.8,0-0.4,0.1c0.3,0,0.6,0,0.8,0c0.4,0-0.4,0-0.4-0.1
						c0.1,0.1,0.3,0.1,0.4,0.1c0.2,0.1,0.7,0.3,0.9,0.3c-0.1,0-0.7-0.4-0.3-0.1c0.1,0.1,0.2,0.1,0.4,0.2c0.1,0.1,0.2,0.2,0.4,0.2
						c0.4,0.2-0.3-0.2-0.2-0.2c0,0,0.4,0.4,0.4,0.4c0.1,0.1,0.1,0.1,0.2,0.2c2.8,2.8,5.6,5.6,8.5,8.5c4.7,4.7,9.4,9.4,14.1,14.1
						c3.6,3.6,7.2,7.2,10.8,10.8c0.4,0.4,0.8,0.8,1.1,1.1c0.1,0.1,0.2,0.2,0.2,0.2l0,0c0.2,0.2,0.4,0.4,0.6,0.7
						c0.1,0.1,0.2,0.2,0.3,0.3c0.4,0.4-0.4-0.6-0.1-0.1c0.3,0.5,0.6,1,0.9,1.5c0.1,0.2,0.2,0.5,0.4,0.8c0.2,0.4-0.1-0.3-0.1-0.3
						c0,0.2,0.2,0.5,0.2,0.7c0.2,0.5,0.3,1.1,0.4,1.6c0,0.1,0.1,0.3,0.1,0.4c0,0.2,0.2,0.4,0,0c-0.2-0.4,0-0.2,0,0
						c0,0.2,0,0.4,0,0.5c0,0.5,0,1.1,0,1.7c0,0.3-0.1,0.6-0.1,0.8c0,0,0.1-0.8,0-0.4c0,0.2-0.1,0.4-0.1,0.5
						c-0.1,0.5-0.3,1.1-0.4,1.6c0,0.1-0.1,0.3-0.1,0.4c-0.3,0.7,0-0.1,0.1-0.2c-0.2,0.1-0.3,0.7-0.4,0.9c-0.3,0.5-0.6,1-0.9,1.5
						c-0.2,0.4,0.2-0.2,0.2-0.2c0,0-0.3,0.3-0.3,0.3C183.5,174.6,183.3,174.8,183.1,175.1c-1.5,1.5-1.6,4.2,0,5.8
						c1.6,1.5,4.2,1.6,5.7,0c4.3-4.4,6.1-10.7,4.8-16.7c-0.8-3.5-2.7-6.5-5.2-8.9c-3.2-3.3-6.5-6.5-9.7-9.8
						c-4.9-4.9-9.8-9.9-14.8-14.8c-3.2-3.2-6.4-6.4-9.6-9.6c-2.9-2.9-6.9-4.3-10.9-3.2c-3.8,1-6.4,4.3-9,7c-0.3,0.3-0.5,0.5-0.8,0.8
						c1.9,0,3.8,0,5.7,0c-4.9-4.9-9.9-9.9-14.8-14.8c-0.7-0.7-1.4-1.4-2.1-2.1c-1.5-1.5-4.2-1.6-5.7,0c-2.8,2.8-5.6,5.6-8.5,8.5
						c-1.5,1.5-1.6,4.2,0,5.8c4.9,4.9,9.9,9.9,14.8,14.8c0.7,0.7,1.4,1.4,2.1,2.1c0-1.9,0-3.8,0-5.8c-1.1,1.1-2.1,2.1-3.2,3.2
						c-1.4,1.4-3,2.8-3.9,4.7c-1.8,4-1.3,8.3,1.5,11.7c0.4,0.4,0.8,0.8,1.1,1.2c4.1,4.1,8.3,8.3,12.4,12.4
						c5.5,5.5,11,11.1,16.6,16.6c4.3,4.3,8.4,9.3,14.8,10.4c6.1,1,11.9-1,16.3-5.3c2.5-2.5,4.9-4.9,7.4-7.4c0.2-0.2,0.4-0.4,0.7-0.7
						c1.5-1.5,1.6-4.3,0-5.8C187.2,173.6,184.7,173.5,183.1,175.1z"/>
				</g>
			</g>
			<g>
				<g>
					<path d="M143,140.7c3.2,3.2,6.5,6.5,9.7,9.7c5.2,5.2,10.3,10.3,15.4,15.4c1.2,1.2,2.4,2.4,3.5,3.5c1.5,1.5,4.3,1.6,5.7,0
						c1.5-1.6,1.6-4.1,0-5.7c-3.2-3.2-6.5-6.5-9.7-9.7c-5.2-5.2-10.3-10.3-15.4-15.4c-1.2-1.2-2.4-2.4-3.5-3.5
						c-1.5-1.5-4.3-1.6-5.7,0C141.5,136.6,141.4,139.1,143,140.7L143,140.7z"/>
				</g>
			</g>
			<g>
				<g>
					<path d="M169,172.1c-3.2-3.2-6.5-6.5-9.7-9.7c-5.2-5.2-10.3-10.3-15.4-15.4c-1.2-1.2-2.4-2.4-3.5-3.5c-1.5-1.5-4.3-1.6-5.7,0
						s-1.6,4.1,0,5.7c3.2,3.2,6.5,6.5,9.7,9.7c5.2,5.2,10.3,10.3,15.4,15.4c1.2,1.2,2.4,2.4,3.5,3.5c1.5,1.5,4.3,1.6,5.7,0
						C170.4,176.2,170.6,173.7,169,172.1L169,172.1z"/>
				</g>
			</g>
		</g>
		<g>
			<g>
				<g>
					<path d="M187.5,44.8c-4.8,4.8-9.7,9.7-14.6,14.6c-2.3,2.3-4.7,4.7-7,7c-0.2,0.2-0.3,0.3-0.5,0.5c-0.4,0.4-0.9,0.9-1.3,1.2
						c-0.4,0.3-0.8,0.6-1.1,0.9c0.1-0.1,0.6-0.5,0-0.1c-0.3,0.2-0.5,0.4-0.8,0.5c-0.7,0.5-1.4,0.9-2.2,1.3c-0.4,0.2-0.8,0.4-1.1,0.6
						c-0.2,0.1-0.5,0.2-0.7,0.3c-0.4,0.2-0.5,0.3,0,0c-0.8,0.4-1.8,0.7-2.6,0.9c-0.9,0.3-1.8,0.5-2.7,0.6c-0.2,0-0.4,0.1-0.6,0.1
						c-0.6,0.1,0.1-0.1,0.2,0c-0.1-0.1-1.1,0.1-1.2,0.1c-0.9,0.1-1.8,0.1-2.8,0.1c-0.9,0-1.9,0-2.8-0.2c0.1,0,0.9,0.1,0.2,0
						c-0.2,0-0.4-0.1-0.6-0.1c-0.5-0.1-1-0.2-1.5-0.3c-0.9-0.2-1.7-0.5-2.5-0.8c-0.3-0.1-0.5-0.2-0.8-0.3c-0.1,0-0.8-0.3-0.3-0.1
						c0.5,0.2-0.2-0.1-0.3-0.1c-0.3-0.1-0.6-0.3-0.9-0.4c-0.9-0.4-1.7-0.9-2.5-1.4c-0.4-0.2-0.8-0.5-1.1-0.8
						c-0.2-0.1-0.4-0.3-0.5-0.4c0.7,0.5-0.2-0.2-0.2-0.2c-0.3-0.3-0.7-0.6-1-0.9c0,0-0.5-0.5-0.5-0.5c-0.2,0.1,1.1,1.2-0.4-0.4
						c-0.3-0.3-0.6-0.7-1-1c-0.2-0.2-0.4-0.4-0.6-0.6c-0.1-0.1-0.6-0.8-0.3-0.4c0.3,0.4-0.1-0.2-0.2-0.3c-0.2-0.2-0.3-0.5-0.5-0.7
						c-0.2-0.4-0.5-0.8-0.7-1.1c-0.5-0.9-1-1.7-1.4-2.6c-0.1-0.2-0.2-0.4-0.3-0.6c0.3,0.8,0.1,0.2,0,0.1c-0.2-0.5-0.3-0.9-0.5-1.4
						c-0.3-0.9-0.6-1.9-0.8-2.8c-0.1-0.4-0.2-0.9-0.3-1.4c0-0.2-0.2-0.8,0,0.2c0-0.2,0-0.4-0.1-0.6c-0.1-0.9-0.1-1.8-0.1-2.8
						c0-0.9,0-1.7,0.1-2.6c0-0.2,0-0.4,0.1-0.6c0.1-0.6-0.2,1,0,0c0.1-0.4,0.2-0.9,0.2-1.4c0.2-0.9,0.4-1.7,0.7-2.5
						c0.1-0.4,0.3-0.8,0.4-1.2c0.1-0.2,0.1-0.4,0.2-0.6c0.3-0.9-0.3,0.6,0.1-0.2c0.8-1.7,1.8-3.3,2.8-4.9c0.1-0.1,0.5-0.6-0.1,0
						c0.1-0.2,0.3-0.3,0.4-0.5c0.3-0.3,0.6-0.7,0.9-1c0.3-0.3,0.6-0.7,0.9-1c1.8-1.8,3.7-3.7,5.5-5.5c5.5-5.5,11-11,16.4-16.4
						c0.1-0.1,0.2-0.2,0.3-0.3c2.1-2.1,1.2-6.1-1.8-6.8c-15.3-3.7-32-0.9-45,8.2C101.5,18,95.8,24,91.6,31c-4,6.8-6.4,14.4-7.4,22.2
						c-1,8.3,0,17,2.9,24.8c0.3-1.3,0.7-2.6,1-4c-4.3,4.3-8.5,8.5-12.8,12.8c-5.6,5.6-11.3,11.3-16.9,16.9
						c-8.3,8.3-16.6,16.6-24.9,24.9c-6.1,6.1-12.3,12.3-18.4,18.4c-1.9,1.9-3.8,3.8-5.4,6c-6.2,8.6-6.2,21-0.2,29.7
						c5.8,8.4,15.7,12.7,25.8,11.3c5.9-0.8,11-3.8,15.2-7.9c5-5,9.9-9.9,14.9-14.9c8.2-8.2,16.5-16.5,24.7-24.7
						c6.7-6.7,13.3-13.3,20-20c4-4,8-8,11.9-11.9c1.1-1.1,2.3-2.3,3.4-3.4c-1.3,0.3-2.6,0.7-4,1c14.5,5,30.8,3.7,44.4-3.4
						c14-7.3,24.5-20.9,28.2-36.2c2-8.6,2.1-17.5,0.1-26.1c-0.5-2.1-3-3.5-5-2.8c-2.2,0.7-3.3,2.8-2.8,5c0.2,0.9,0.4,1.7,0.5,2.6
						c0.1,0.4,0.1,0.8,0.2,1.2c0,0.2,0.1,0.4,0.1,0.6c0.1,0.5-0.1-0.8,0,0c0.2,1.8,0.3,3.5,0.4,5.3c0,1.7,0,3.5-0.2,5.2
						c0,0.5-0.1,0.9-0.1,1.4c0,0.3-0.2,0.9-0.1,1.2c0-0.1,0.1-1,0-0.2c0,0.2-0.1,0.4-0.1,0.6c-0.1,0.5-0.2,1-0.3,1.5
						c-0.6,3.4-1.7,6.8-3,10.1c-0.3,0.7,0,0,0-0.1c0,0.2-0.2,0.4-0.2,0.6c-0.2,0.4-0.4,0.9-0.6,1.3c-0.4,0.8-0.8,1.6-1.2,2.4
						c-0.9,1.6-1.9,3.2-2.9,4.7c-0.2,0.3-0.5,0.7-0.8,1c-0.1,0.2-0.3,0.3-0.4,0.5c-0.1,0.1-0.5,0.6-0.2,0.2c0.4-0.5-0.3,0.3-0.3,0.3
						c-0.1,0.2-0.3,0.3-0.4,0.5c-0.3,0.4-0.6,0.8-1,1.1c-1.3,1.4-2.6,2.8-4,4.1c-0.6,0.6-1.3,1.1-1.9,1.7c-0.3,0.3-0.6,0.5-1,0.8
						c-0.6,0.5,0,0,0.1-0.1c-0.2,0.2-0.5,0.4-0.8,0.6c-1.4,1-2.9,2-4.4,2.9c-1.5,0.9-3.1,1.7-4.6,2.4c-0.4,0.2-0.8,0.3-1.1,0.5
						c1-0.4-0.4,0.1-0.6,0.2c-0.8,0.3-1.6,0.6-2.4,0.9c-1.7,0.5-3.4,1-5.1,1.4c-0.8,0.2-1.7,0.3-2.5,0.5c-0.4,0.1-0.8,0.1-1.2,0.2
						c-0.2,0-0.8,0.1,0.2,0c-0.2,0-0.5,0.1-0.8,0.1c-3.8,0.4-7.7,0.5-11.5,0.1c-0.3,0-1.9-0.2-0.7-0.1c-0.5,0-1-0.1-1.5-0.2
						c-0.9-0.1-1.8-0.3-2.7-0.5c-1.9-0.4-3.9-1-5.8-1.6c-1.3-0.5-3,0.1-4,1c-4.2,4.2-8.5,8.5-12.7,12.7
						c-5.4,5.4-10.9,10.9-16.3,16.3c-8.2,8.2-16.3,16.3-24.4,24.4c-6.3,6.3-12.7,12.7-19,19c-1,1-2,2-3,3c-0.3,0.3-0.7,0.7-1.1,1
						c-0.2,0.2-0.4,0.3-0.6,0.5c-0.2,0.2-0.6,0.6,0,0c-0.6,0.8-1.9,1.3-2.8,1.8c-0.5,0.2-0.9,0.5-1.4,0.7c-0.7,0.3,0.1,0,0.2-0.1
						c-0.1,0.1-0.6,0.2-0.8,0.3c-1,0.4-2,0.6-3.1,0.9c-0.2,0-0.5,0.1-0.7,0.1c-0.3,0.1-1.1,0,0,0c-0.4,0-0.9,0.1-1.4,0.1
						c-1,0.1-2,0-3.1,0c-0.1,0-0.7,0-0.8-0.1c0.2,0,0.3,0,0.5,0.1c-0.2,0-0.4-0.1-0.5-0.1c-0.5-0.1-0.9-0.2-1.4-0.3
						c-1-0.2-2-0.6-2.9-0.9c-0.9-0.3,0.8,0.4-0.1,0c-0.3-0.1-0.5-0.2-0.8-0.4c-0.4-0.2-0.9-0.4-1.3-0.7c-0.4-0.2-0.8-0.5-1.2-0.8
						c-0.2-0.2-0.5-0.3-0.7-0.5c-0.7-0.5,0.5,0.5-0.1-0.1c-0.9-0.7-1.7-1.5-2.5-2.3c-0.4-0.4-0.8-0.8-1.1-1.3
						c0.6,0.8-0.1-0.1-0.2-0.2c-0.2-0.3-0.4-0.5-0.5-0.8c-0.3-0.5-0.6-1-0.9-1.6c-0.1-0.2-0.2-0.5-0.4-0.7c-0.1-0.2-0.6-1.1-0.1-0.2
						c-0.6-1-0.8-2.3-1.1-3.4c-0.1-0.6-0.2-1.1-0.3-1.7c-0.1-0.6,0.1,1,0,0c0-0.3-0.1-0.6-0.1-1c-0.1-1.2,0-2.3,0.1-3.5
						c0.1-1.1-0.2,0.9,0-0.2c0-0.2,0.1-0.4,0.1-0.6c0.1-0.6,0.3-1.2,0.4-1.9c0.1-0.5,0.3-1,0.5-1.5c0.1-0.3,0.2-0.6,0.3-0.9
						c-0.3,0.6-0.1,0.1,0.1-0.2c0.5-1.1,1.1-2.1,1.8-3.1c0.1-0.2,0.3-0.4,0.4-0.5c0.6-0.9-0.5,0.6,0.2-0.2c0.4-0.5,0.9-1,1.4-1.5
						c0.3-0.3,0.5-0.5,0.8-0.8c5.1-5.1,10.3-10.3,15.4-15.4c8.1-8.1,16.2-16.2,24.3-24.3c6.6-6.6,13.1-13.1,19.7-19.7
						c3.9-3.9,7.8-7.8,11.8-11.8c1.1-1.1,2.2-2.2,3.4-3.4c1-1,1.5-2.6,1-4c-0.6-1.7-1.1-3.4-1.5-5.1c-0.4-1.6-1-3.5-1-5.2
						c0,0.1,0.1,0.9,0,0.2c0-0.2,0-0.4-0.1-0.6c0-0.4-0.1-0.8-0.1-1.2c-0.1-0.9-0.1-1.8-0.2-2.7c-0.1-1.7,0-3.4,0.1-5.1
						c0.1-0.9,0.1-1.7,0.2-2.6c0-0.1,0.2-1.4,0.1-0.8c-0.1,0.7,0-0.3,0.1-0.3c0-0.2,0.1-0.5,0.1-0.8c0.3-1.7,0.7-3.4,1.1-5.2
						c0.5-1.7,1-3.3,1.6-4.9c0.1-0.4,0.3-0.8,0.4-1.1c-0.4,0.9,0.1-0.2,0.2-0.4c0.4-0.8,0.8-1.7,1.2-2.5c0.8-1.6,1.7-3.2,2.7-4.7
						c0.5-0.8,1-1.5,1.5-2.2c0.1-0.2,0.9-1.2,0.3-0.4c0.3-0.4,0.7-0.8,1-1.2c2.4-2.8,5-5.4,7.9-7.7c0.6-0.5,0.1,0-0.1,0
						c0.2-0.2,0.4-0.3,0.6-0.5c0.3-0.2,0.7-0.5,1-0.8c0.8-0.5,1.6-1.1,2.4-1.6c1.6-1,3.2-1.8,4.8-2.6c0.4-0.2,0.8-0.4,1.1-0.5
						c0.2-0.1,0.4-0.2,0.6-0.2c0.3-0.1,0.5-0.4-0.1,0c0.7-0.5,1.8-0.7,2.6-1c1.7-0.6,3.3-1.1,5.1-1.5c1-0.2,2-0.4,3-0.6
						c0.5-0.1,1-0.2,1.5-0.2c0.2,0,0.8-0.2-0.2,0c0.2,0,0.5-0.1,0.8-0.1c2-0.2,4-0.3,6-0.3c1.9,0,3.9,0.1,5.8,0.3
						c0.2,0,0.4,0,0.6,0.1c-1.1-0.2,0,0,0.1,0c0.5,0.1,1,0.2,1.5,0.3c1,0.2,2,0.4,3,0.6c-0.6-2.3-1.2-4.5-1.8-6.8
						c-5.1,5.1-10.1,10.1-15.1,15.1c-2.3,2.3-4.6,4.6-6.9,6.9c-4.7,4.7-8,10.7-9,17.3c-1.3,8.9,1,17.7,6.6,24.7
						c0.3,0.4,0.6,0.7,0.9,1.1c0.2,0.2,0.3,0.3,0.5,0.5c0.1,0.1,0.2,0.2,0.2,0.3c0.3,0.3,0.3,0.3,0,0c-0.1-0.1-0.1-0.2-0.2-0.3
						c0.2,0.3,0.5,0.7,0.8,1c0.2,0.2,0.4,0.4,0.6,0.6c0.4,0.4,0.9,0.8,1.3,1.1c1.8,1.4,3.6,2.7,5.6,3.8c3.9,2,8.1,3.1,12.5,3.5
						c8.4,0.6,16.8-2.5,23-8.1c1.9-1.7,3.7-3.7,5.6-5.5c5.7-5.7,11.4-11.4,17.1-17.1c0.1-0.1,0.3-0.3,0.4-0.4c1.5-1.5,1.6-4.3,0-5.7
						C191.6,43.3,189.1,43.2,187.5,44.8z"/>
					<path d="M31.5,169.7C30.9,170.3,32.1,169.4,31.5,169.7c-0.2,0.2-0.4,0.3-0.5,0.4c0.5-0.2,0.6-0.2,0.3-0.1
						c-0.3,0.1-0.5,0.1-0.8,0.2c-0.3,0.1-0.2,0,0.4-0.1c-0.2,0-0.4,0-0.5,0c-0.8,0.1,0.8,0.3,0,0c-0.2-0.1-0.7-0.1-0.8-0.2
						c0.5,0.2,0.6,0.3,0.3,0.1c-0.1-0.1-0.2-0.1-0.4-0.2c-0.3-0.2-0.3-0.2,0,0s0.3,0.2,0-0.1c-0.3-0.3-0.3-0.3,0.1,0.2
						c-0.1-0.1-0.1-0.2-0.2-0.2c-0.1-0.2-0.2-0.3-0.3-0.5c0.1,0.2,0.1,0.3,0.2,0.5c-0.1-0.1-0.2-0.6-0.2-0.8c-0.2-0.8,0,0.9,0-0.1
						c0-0.9-0.1,0.3,0,0c0-0.2,0.1-0.8,0.3-0.9c-0.1,0.2-0.1,0.3-0.2,0.5c0.1-0.2,0.2-0.3,0.3-0.5c0.1-0.1,0.1-0.2,0.2-0.2
						c-0.3,0.4-0.4,0.5-0.1,0.2c0.3-0.2,0.3-0.3,0-0.1c-0.3,0.2-0.2,0.2,0,0c0.1-0.1,0.2-0.1,0.4-0.2c0.3-0.1,0.2-0.1-0.3,0.1
						c0.1-0.1,0.6-0.2,0.8-0.2c0.8-0.3-0.8,0,0,0c0.2,0,0.4,0,0.5,0c-0.6-0.1-0.7-0.1-0.4-0.1c0.3,0.1,0.5,0.1,0.8,0.2
						c0.3,0.1,0.2,0.1-0.3-0.1c0.1,0.1,0.2,0.1,0.4,0.2c0.9,0.5-0.4-0.4,0.2,0.2c0.6,0.6-0.3-0.7,0.1,0.1c0,0.1,0.1,0.2,0.1,0.2
						c0.2,0.4,0.2,0.3,0-0.2c0,0.2,0.2,0.6,0.2,0.8c0.2,0.8,0-0.8,0,0c-0.1,1.1,0.1,0,0.1,0c0,0-0.2,0.7-0.2,0.8
						c-0.2,0.7,0.4-0.7-0.1,0.2C31.1,170.4,32,169.1,31.5,169.7c-1.5,1.5-1.6,4.2,0,5.7c1.6,1.5,4.2,1.6,5.7,0c2.9-3,3.5-7.3,1.7-11
						c-1.6-3.3-5.4-5.5-9-5.2c-4,0.3-7.6,3.1-8.7,7.1c-1,4,0.6,8,4,10.3c3.7,2.6,8.8,1.8,12-1.2c1.5-1.5,1.6-4.3,0-5.7
						C35.6,168.2,33.1,168.2,31.5,169.7z"/>
				</g>
			</g>
			<g>
				<g>
					<path d="M53.5,151.5c1.7-1.7,3.5-3.5,5.2-5.2c4.2-4.2,8.4-8.4,12.6-12.6c5.1-5.1,10.1-10.1,15.2-15.2
						c4.4-4.4,8.7-8.7,13.1-13.1c2.1-2.1,4.3-4.2,6.4-6.4c0,0,0.1-0.1,0.1-0.1c1.5-1.5,1.6-4.3,0-5.7c-1.6-1.5-4.1-1.6-5.7,0
						c-1.7,1.7-3.5,3.5-5.2,5.2c-4.2,4.2-8.4,8.4-12.6,12.6c-5.1,5.1-10.1,10.1-15.2,15.2c-4.4,4.4-8.7,8.7-13.1,13.1
						c-2.1,2.1-4.3,4.2-6.4,6.4c0,0-0.1,0.1-0.1,0.1c-1.5,1.5-1.6,4.3,0,5.7C49.4,153,51.9,153.1,53.5,151.5L53.5,151.5z"/>
				</g>
			</g>
		</g>
	</g>
</g>
<g class="st0">
	<title>Artboard 11</title>
	<g class="st1">
		<path d="M192.8,84.7h-10.8c-2.2-9.9-5.9-19.1-11.4-27.6l7.5-7.5c1.8-1.8,1.8-4.4,0-6.1l0,0l-18.6-18.6c-1.8-1.8-4.4-1.8-6.1,0l0,0
			l-7.5,7.5c-8.3-5.5-17.8-9.4-27.6-11.4V10.2c0-2.4-2-4.4-4.4-4.4l0,0H87.6c-2.4,0-4.4,2-4.4,4.4v0.2v10.7
			c-9.9,2.2-19.1,5.9-27.6,11.4l-7.5-7.7c-1.8-1.8-4.4-1.8-6.1,0l0,0L23.3,43.5c-1.8,1.8-1.8,4.4,0,6.1l0,0l7.5,7.5
			c-5.5,8.3-9.4,17.8-11.4,27.6H8.6c-2.4,0-4.4,2-4.4,4.4l0,0v26.3c0,2.4,2,4.4,4.4,4.4h0.2h10.7c2.2,9.8,5.9,19,11.4,27.6l-7.7,7.7
			c-1.8,1.7-1.8,4.4,0,6.1l0,0l18.6,18.6c1.8,1.7,4.4,1.7,6.1,0l0,0l7.5-7.4c8.3,5.5,17.8,9.4,27.6,11.4v10.7c0,2.4,2,4.4,4.4,4.4
			l0,0h26.3c2.4,0,4.4-2,4.4-4.4v0v-10.7c9.8-2.2,19-5.9,27.6-11.4l7.4,7.5c1.7,1.8,4.4,1.8,6.1,0l0,0l18.6-18.6
			c1.7-1.8,1.7-4.4,0-6.1l0,0l-7.4-7.5c5.5-8.3,9.4-17.8,11.4-27.6h10.9c2.4,0,4.4-2,4.4-4.4l0,0V89.1
			C197.2,86.7,195.2,84.7,192.8,84.7L192.8,84.7z M188.4,111.1h-9.6c-2.2,0-3.9,1.5-4.4,3.7c-1.8,11.2-6.1,21.5-12.7,30.7
			c-1.3,1.8-1.1,4.2,0.4,5.7l7,7l-12.5,12.5l-7-7c-1.5-1.5-3.9-1.8-5.7-0.4c-9.2,6.6-19.7,11-30.7,12.7c-2.2,0.4-3.7,2.2-3.7,4.4
			v9.7H91.9v-9.6c0-2.2-1.5-3.9-3.7-4.4c-11.2-1.8-21.6-6.1-30.8-12.7c-1.8-1.3-4.2-1.1-5.7,0.4l-7,7l-12.5-12.5l7-7
			c1.5-1.5,1.8-3.9,0.4-5.7c-6.6-9.2-11-19.7-12.8-30.7c-0.4-2.2-2.2-3.7-4.4-3.7H13V93.5h9.6c2.2,0,3.9-1.5,4.4-3.7
			c1.8-11.2,6.1-21.6,12.7-30.8c1.3-1.8,1.1-4.2-0.4-5.7l-7-7l12.5-12.5l7,7c1.5,1.5,3.9,1.8,5.7,0.4c9.2-6.6,19.7-11,30.7-12.8
			c2.2-0.4,3.7-2.2,3.7-4.4v-9.5h17.5v8.8c0,2.2,1.5,4,3.7,4.4c11.2,1.8,21.6,6.2,30.8,12.9c1.8,1.3,4.2,1.1,5.7-0.4l7-7.1
			l12.5,12.7l-7,7.1c-1.5,1.6-1.8,4-0.4,5.8c6.6,9.3,11,20,12.8,31.1c0.4,2.2,2.2,3.8,4.4,3.8h9.5V111.1z"/>
		<path d="M100.1,40.9c-34,0-61.4,27.4-61.4,61.4s27.4,61.4,61.4,61.4s61.4-27.4,61.4-61.4S134.1,40.9,100.1,40.9z M91.9,154.1
			v-24.1c0-1.8-0.9-3.3-2.5-3.9c-13.5-6.1-19.1-21.7-12.8-34.9c1.6-3.3,3.8-6.1,6.5-8.3v17.3c0,4.8,3.9,8.8,8.8,8.8h17.5
			c4.8,0,8.8-3.9,8.8-8.8V82.8c11,9.7,12.1,26.1,2.2,36.8c-2.5,2.6-5.4,4.8-8.5,6.4c-1.6,0.7-2.5,2.2-2.5,3.9v24.1
			C103.5,155.1,97.5,155.1,91.9,154.1z M118.3,151.8v-19.3c16.7-9.7,22.6-30.9,12.9-47.6c-3.5-6.1-9-11.2-15.4-14.3
			c-2.2-1.1-4.8-0.2-5.9,2c-0.2,0.7-0.4,1.3-0.4,2v25.4H91.9V74.6c0-2.4-2-4.4-4.4-4.4c-0.7,0-1.3,0.2-2,0.4
			c-17.5,8.1-25,29-16.7,46.5c3.1,6.6,8.1,11.8,14.3,15.4v19.3c-28.4-10-42.7-41.8-30.9-70c10.1-24.2,37.1-37.2,62.4-30.3
			c29.8,8.2,45.7,39.6,35.7,68.3C145,134.7,133.2,146.6,118.3,151.8z"/>
	</g>
</g>
<g class="st0">
	<g class="st1">
		<path d="M209.1,144.2c-0.5-12-10.1-21.6-22.1-21.6c-11.2,0-20.5,8.7-21.8,20.7h-51.6V91.5h8.7c1.6-1.3,2.7-2.4,2.2-4V71
			c0.5-1.6-2.2-4.2-2.2-4.2h-6v-8.3c0-4.3-3.4-8.1-7.9-8.1H91.5c-4.2,0-7.9,3.5-7.9,8.1v8.3h-6c0,0-2.7,2.5-2.2,4.2v16.4
			c-0.5,1.6,0.5,2.7,2.2,4h8.7v51.9H34.9c-1.4-12.2-10.6-20.7-21.8-20.7c-12,0-21.6,9.6-22.1,21.6c0,0.3-0.3,0.5-0.3,0.8
			c0,1.6,1.1,2.7,2.7,3.8h96.4H110h96.6c1.6-1,2.7-2.1,2.7-3.8C209.4,144.7,209.4,144.5,209.1,144.2z M187.3,129.1
			c8.2,0,15,6.3,16.4,14.2h-32.8C172,135.4,178.8,129.1,187.3,129.1z M88.7,58.7c0-1.4,1.1-2.7,2.7-2.7h16.8c1.3,0,2.6,1.1,2.6,2.7
			v8.3H89v-8.2H88.7z M80.5,75.1h5.4h27.7h5.4V86h-9.2H90h-9.2V75.1H80.5z M13.1,129.1c8.2,0,15,6.3,16.4,14.2H-3.3
			C-1.9,135.4,4.9,129.1,13.1,129.1z M94.4,143.3V91.5h13.6v51.9H94.4z"/>
		<path d="M58.7,44.6c0.5,0.5,1.4,0.8,1.9,0.8c0.8,0,1.4-0.3,1.9-0.8c1.1-1.1,1.1-2.7,0-3.8l-7.6-7.9c-1.1-1.1-2.7-1.1-3.8,0
			c-1.1,1.1-1.1,2.7,0,3.8L58.7,44.6z"/>
		<path d="M37.1,59.2l10.1,2.2c0.3,0,0.3,0,0.5,0c1.4,0,2.5-0.8,2.7-2.2c0.3-1.4-0.5-3-2.2-3.3l-10.1-2.2c-1.4-0.3-3,0.5-3.3,2.2
			C34.7,57.6,35.8,59,37.1,59.2z"/>
		<path d="M37.7,88.7c0.3,0,0.3,0,0.5,0l10.1-2.2c1.4-0.3,2.5-1.6,2.2-3.3c-0.3-1.4-1.6-2.5-3.3-2.2l-10.1,2.2
			c-1.4,0.3-2.5,1.6-2.2,3.3C35.5,87.9,36.6,88.7,37.7,88.7z"/>
		<path d="M57.3,98.9l-6.3,6.6c-1.1,1.1-1.1,2.7,0,3.8c0.5,0.5,1.1,0.8,1.9,0.8c0.8,0,1.4-0.3,1.9-0.8l6.3-6.6
			c1.1-1.1,1.1-2.7,0-3.8C60.1,97.8,58.4,97.8,57.3,98.9z"/>
		<path d="M142.5,45.4c0.8,0,1.4-0.3,1.9-0.8l7.6-7.9c1.1-1.1,1.1-2.7,0-3.8c-1.1-1.1-2.7-1.1-3.8,0l-7.6,7.9
			c-1.1,1.1-1.1,2.7,0,3.8C141.1,45.1,141.7,45.4,142.5,45.4z"/>
		<path d="M152.9,59.2c0.3,1.4,1.4,2.2,2.7,2.2c0.3,0,0.3,0,0.5,0l10.1-2.2c1.4-0.3,2.5-1.6,2.2-3.3c-0.3-1.4-1.6-2.5-3.3-2.2
			L154.8,56C153.4,56.2,152.3,57.6,152.9,59.2z"/>
		<path d="M154.8,86.5l10.1,2.2c0.3,0,0.3,0,0.5,0c1.4,0,2.5-0.8,2.7-2.2c0.3-1.4-0.5-3-2.2-3.3l-10.1-2.2c-1.4-0.3-3,0.5-3.3,2.2
			C152.3,84.6,153.4,86,154.8,86.5z"/>
		<path d="M145.8,98.9c-1.1-1.1-2.7-1.1-3.8,0c-1.1,1.1-1.1,2.7,0,3.8l6.3,6.6c0.5,0.5,1.4,0.8,1.9,0.8c0.8,0,1.4-0.3,1.9-0.8
			c1.1-1.1,1.1-2.7,0-3.8L145.8,98.9z"/>
	</g>
</g>
<g class="st0">
	<title>a</title>
	<g class="st1">
		<circle cx="70.2" cy="133.4" r="7.7"/>
		<path d="M200.2,113.5v-10.7c0-1.1-0.4-1.9-1.1-2.7L179.9,81c-0.8-0.8-1.5-1.1-2.7-1.1h-57.4V41.6c0-4.2-3.4-7.7-7.7-7.7H73.9
			c-4.2,0-7.7,3.4-7.7,7.7v26.8H2.7c-2.3,0-4.2,0.8-5.7,2.7c-3.4,3.4-7.3,12.2-7.3,31.8v26.8c0,4.2,3.4,7.7,7.7,7.7h4.2
			c1.9,12.6,13.8,21,26.4,18.7c9.6-1.5,17.2-9.2,18.7-18.7h0.8c1.9,12.6,13.8,21,26.4,18.7c9.6-1.5,17.2-9.2,18.7-18.7h2.7
			c1.9,0,3.8-0.8,5.4-2.3l16.8-16.8c1.5-1.5,2.3-3.4,2.3-5.4v-9.9H168l7.7,7.7h-40.6c-4.2,0-7.7,3.4-7.7,7.7v24.5
			c0,3.1,1.5,5.7,4.2,6.9l13.4,6.5l0,0c0.4,0.4,1.1,0.4,1.5,0.4h11.5c2.3,0,3.8-1.5,3.8-3.8c0-2.3-1.5-3.8-3.8-3.8h-7.7v-30.6h21
			c-9.1,10.4-7.5,26.6,4.5,34.5c8.7,5.8,20.7,4.9,28.3-2.3c10.1-9.5,9.8-25.2-0.3-34.2C202.8,115.4,201.7,114.3,200.2,113.5z
			 M89.2,95.1V56.9h23v38.3H89.2z M-2.6,102.8c0-19.1,4.2-25.3,5.4-26.8h63.5v34.8c-9.6,1.5-17.2,9.2-18.7,18.7h-0.4c0,0,0,0,0-0.4
			c-2.3-12.6-14.4-20.7-27.2-18.4c-9.7,1.5-17.1,9.2-18.7,18.4c0,0,0,0,0,0.4h-3.8V102.8z M24.2,148.7c-8.4,0-15.3-6.9-15.3-15.3
			s6.9-15.3,15.3-15.3s15.3,6.9,15.3,15.3S32.7,148.7,24.2,148.7z M70.2,148.7c-8.4,0-15.3-6.9-15.3-15.3s6.9-15.3,15.3-15.3
			s15.3,6.9,15.3,15.3S78.6,148.7,70.2,148.7z M112.2,112.4L95,129.6h-2.7c-1.6-9.4-9-16.8-18.3-19.1c-0.4,0,0.4,0,0,0V41.6h38.3
			v7.7h-23c-4.2,0-7.7,3.4-7.7,7.7v38.3c0,4.2,3.4,7.7,7.7,7.7h23V112.4z M169.5,95.1h-49.7v-7.7h55.9l16.8,16.8v6.1h-0.4
			c-1.1-0.4-2.3-0.4-3.4-0.4c-1.1,0-2.3,0-3.4,0.4h-0.4v-0.4c0-1.1-0.4-1.9-1.1-2.6l-11.5-11.2C171.5,95.5,170.7,95.1,169.5,95.1z
			 M135.1,118.1h7.7v28.3l-7.7-3.8V118.1z M188.8,148.7c-8.4,0-15.3-6.9-15.3-15.3c0-6.1,3.4-11.5,9.2-13.8l0,0
			c3.1-1.1,6.1-1.5,9.2-0.8c8.4,1.9,13.4,9.9,11.9,18.4C202.2,143.7,196,148.7,188.8,148.7z"/>
		<circle cx="188.8" cy="133.4" r="7.7"/>
		<circle cx="24.2" cy="133.4" r="7.7"/>
		<path d="M8.9,102.8h30.6c2.3,0,3.8-1.5,3.8-3.8c0-2.3-1.5-3.8-3.8-3.8H8.9c-2.3,0-3.8,1.5-3.8,3.8C5.1,101.3,6.6,102.8,8.9,102.8z
			"/>
		<path d="M8.9,91.3h30.6c2.3,0,3.8-1.5,3.8-3.8c0-2.3-1.5-3.8-3.8-3.8H8.9c-2.3,0-3.8,1.5-3.8,3.8C5.1,89.8,6.6,91.3,8.9,91.3z"/>
	</g>
</g>
<g class="st0">
	<title>015 - Tractor</title>
	<desc>Created with Sketch.</desc>
	<g class="st1">
		<g>
			<path d="M29.9,134.9c-10.3,0-18.4,8.1-18.4,18.4c0,10.3,8.1,18.4,18.4,18.4s18.4-8.1,18.4-18.4C48.4,143,40.3,134.9,29.9,134.9z
				 M29.9,164.4c-6.3,0-11.1-4.8-11.1-11.1c0-6.3,4.8-11.1,11.1-11.1S41,147,41,153.3C41,159.6,36.2,164.4,29.9,164.4z"/>
			<path d="M140.5,157c-4.4,0-8.5,2.6-10.3,7c-1.8,4.1-0.7,8.8,2.6,12.2c3.3,3.3,8.1,4.1,12.2,2.6c4.1-1.8,7-5.9,7-10.3
				C151.6,162.2,146.8,157,140.5,157z M140.5,171.7c-2.2,0-3.7-1.8-3.7-3.7c0-2.2,1.8-3.7,3.7-3.7c2.2,0,3.7,1.8,3.7,3.7
				C144.2,170.3,142.7,171.7,140.5,171.7z"/>
			<path d="M46.9,191.3c10.7-4.8,18.8-14.4,22.1-25.8h46.1c-1.5,10.3,3.3,20.6,12.2,25.8 M154,190.2c7.4-4.4,12.2-12.5,12.5-21.4
				s-3.7-17-11.1-22.1v-29.5c0-1.8-1.5-3.3-3.3-3.7l-22.1-2.6l10-52.3h37.6h16.6c1.1,0,1.8-0.4,2.6-1.1l12.9-12.9
				c1.4-1.4,1.4-3.7,0-5.2L178.3,8.1c-1.4-1.4-3.7-1.4-5.2,0L160.2,21c-0.7,0.7-1.1,1.5-1.1,2.6v16.6c0,1.1,0.4,1.8,1.1,2.6l8.5,8.5
				h-30.2l-7.4-7.4h16.8c0,0,3.7-2.6,3.7-4.8s-1.5-3.7-3.7-2.6h-25.8c-0.4-1.1-0.7-1.1-1.5-0.7c0,0-0.4,0-0.4,0.4
				c-0.4,0-0.7,0.4-1.7,0.4l0,0v0.4c0.5,0.4,0.5,0.4,0.5,0.7l3.1,0.4v0.4l-17.1,68.9l-12.3-1.5V62.3c0-2-1.7-3.7-3.7-3.7H22.8
				c-2.2,0-3.7,1.5-3.7,3.7c0,2.2,1.5,3.7,3.7,3.7h3.7v33.2h-3.7c-2.2,0-3.7,1.5-3.7,3.7c0,2.2,1.5,3.7,3.7,3.7h3.7v6.6
				C8,114.6-6.7,128.6-9.7,146.7s6.3,35.8,22.9,43.5 M166.5,25l9.2-9.2L201.9,42l-9.2,9.2H179l-12.5-12.5V25z M85.4,110.2v14.7h-5.5
				c-4.4-8.5-11.8-15.9-20.3-20.3V65.9h25.8V110.2z M33.8,65.9h18.4v35.4c-4.8-1.5-9.6-2.2-14.7-2.2h-3.7V65.9z M37.5,106.5
				c5.9,0,11.4,1.1,17,3.7c8.8,4.1,15.9,11.1,19.9,19.9c2.6,5.2,3.7,11.1,3.7,17v11.1l-7.4,0c-0.1-0.1-0.1-0.1-0.1-0.2
				c1.9-22.6-14.5-41.8-36.7-43.7v-7.7H37.5z M29.9,186.5c-14,0-26.5-8.8-31.3-22.1c-4.8-13.3-0.7-28,10.3-36.9
				c10.7-8.8,26.2-10,38-2.6c11.8,7.4,18.1,21.4,15.5,35C59.4,175.4,45.8,186.5,29.9,186.5z M159,168c0,10.3-8.1,18.4-18.4,18.4
				s-18.4-8.1-18.4-18.4s8.1-18.4,18.4-18.4S159,157.7,159,168z M148.1,144.5c-12.2-3.7-25.1,2.2-30.6,13.6H85.4V147
				c0-5.2-0.7-10-2.2-14.7h5.9c0,0,0,0,0.4,0s0,0,0,0l47.2,3.7h0.4c2.2,0,3.7-1.5,3.7-3.7s-1.5-3.7-3.7-3.7l-44.2-3.3v-10.7
				l55.3,6.6V144.5z M112.1,108l12.2-61.6l8.5,8.5l-10.3,54.2L112.1,108z"/>
		</g>
	</g>
</g>
<g class="st0">
	<path class="st1" d="M183,14L-10.1,151.6c-2,1.4-2.4,3.7-1,5.7l0,0l23.7,33.3c1.4,2,3.7,2.4,5.7,1l0,0L211.5,54
		c2-1.4,2.4-3.7,1-5.7l0,0L188.7,15C187.3,13,185,12.6,183,14L183,14z M190.1,59.2l-11.7,8.3c1.5-12.6-6.5-24-19-26.6l11.7-8.3
		L190.1,59.2z M33,152.1c-5.2-7.3-3.5-17.6,3.8-22.8c7.3-5.2,17.6-3.5,22.8,3.8c5.2,7.3,3.5,17.6-3.8,22.8
		C48.4,161.1,38.2,159.4,33,152.1z M52.9,116.7l21.6-15.4l7.1,10c1.4,2,3.7,2.4,5.7,1l0,0l26.6-19c2-1.4,2.4-3.7,1-5.7l0,0l-7.1-10
		l21.6-15.4c-1.5,12.6,6.5,24,19,26.6l-76.6,54.6C73.1,131,65.1,119.7,52.9,116.7z M139.5,76.2c-5.2-7.3-3.5-17.6,3.8-22.8
		s17.6-3.5,22.8,3.8c5.2,7.3,3.5,17.6-3.8,22.8C155,85.2,144.7,83.5,139.5,76.2z M101.2,82.3L106,89l-20,14.2l-4.7-6.7L101.2,82.3z
		 M-2,155.9l6.7-4.7l19,26.6l-6.7,4.7L-2,155.9z M11.3,146.4l11.7-8.3c-1.5,12.6,6.5,24,19,26.6L30.3,173L11.3,146.4z M203.4,49.7
		l-6.7,4.7l-19-26.6l6.7-4.7L203.4,49.7z"/>
	<path class="st1" d="M38.2,152.4l20-14.2c2-1.4,2.4-3.7,1-5.7s-3.7-2.4-5.7-1l-20,14.2c-2,1.4-2.4,3.7-1,5.7S36.2,153.8,38.2,152.4
		z"/>
	<path class="st1" d="M144.7,76.4l20-14.2c2-1.4,2.4-3.7,1-5.7c-1.4-2-3.7-2.4-5.7-1l-20,14.2c-2,1.4-2.4,3.7-1,5.7
		S142.7,77.9,144.7,76.4z"/>
</g>
<g class="st0">
	<path class="st1" d="M182.9-5.6l-29.2,34v31.6h-23.9V28.4l-29.2-34l-29.2,34v31.6H47.7V28.4l-29.2-34l-29.2,34v182.7h58.4V174h23.9
		v37.1h58.4V174h23.9v37.1h58.4V28.4L182.9-5.6z M39.7,205.8H-5.4V174h45.1v31.7V205.8z M39.7,168.7H-5.4V67.9h45.1v99.9V168.7z
		 M39.7,59.9H-5.4V30.5L17.2,3.4l22.5,27.1v29.9V59.9z M71.5,168.7H47.7V67.9h23.9V168.7z M124.3,205.8H76.8V174h47.7v31.8H124.3z
		 M124.3,168.7H76.8V67.9h47.7v100.8H124.3z M124.3,59.9H76.8V30.5l23.9-27.1l23.9,27.1v29.4H124.3z M153.8,168.7h-23.9V67.9h23.9
		V168.7z M204.2,205.8h-45.1V174h45.1v31.7V205.8z M204.2,168.7h-45.1V67.9h45.1v99.9V168.7z M206.5,59.9h-47.5V30.5l23.9-27.1
		l23.9,27.1v29.4H206.5z"/>
</g>
</svg>
