<?xml version="1.0" encoding="utf-8"?>
<!-- Generator: Adobe Illustrator 23.0.4, SVG Export Plug-In . SVG Version: 6.00 Build 0)  -->
<svg version="1.1" id="Layer_1" xmlns="http://www.w3.org/2000/svg" xmlns:xlink="http://www.w3.org/1999/xlink" x="0px" y="0px"
	 viewBox="0 0 162 86.5" style="enable-background:new 0 0 162 86.5;" xml:space="preserve">
<style type="text/css">
	.st0{display:none;}
	.st1{display:inline;}
</style>
<g class="st0">
	<g class="st1">
		<path d="M3.7,120.8l204.3,0c2.4,0,4.6-1.4,5.4-3.6c1.2-3.7-1.6-7.2-5.1-7.2h-11.9c3.5-12.1,8.6-26.4,16.2-37c0,0,0-0.3,0.3-0.3
			v-0.9c0,0-0.5-1.9-0.5-3c0-3-2.4-5.4-5.4-5.4c-0.8,0-1.6,0.3-2.2,0.5c-1.3,0.5-15.9,7-30,20c-2.2-7.8-4.3-18.1-5.4-30
			c-0.3-2.2-1.9-4.3-4-4.9c-2.2-0.5-4.6,0.3-5.9,2.2c-0.3,0.5-6.2,9.4-12.4,22.1c-5.1-22.4-1.9-48-1.6-48.3c0.3-2.7-1.1-5.1-3.5-5.9
			c-2.4-0.8-5.1,0.3-6.5,2.4l-40.5,71c-4.6-39.4,6.7-85.3,7-85.8c0.5-2.4-0.5-4.9-2.7-6.2c-2.2-1.1-4.9-0.5-6.5,1.3
			c-15.9,18.9-25.4,42.4-31,63.1c-5.7-15.1-10.3-24-10.5-24.6c-1.3-2.4-4-3.5-6.5-2.7s-4,3.5-3.5,6.2c1.1,5.4,1.3,20.5,1.1,42.4
			C32.6,71,24,60.2,23.4,59.7c-1.6-2.2-4.6-2.7-7-1.3c-2.4,1.3-3.2,4.3-2.2,6.7c7.8,17.8,8.9,32.9,8.1,44.9H4c-3-1.5-5.4,1-5.4,3.9
			C-1.4,116.9,3.7,120.8,3.7,120.8z M192.9,84.1c-3.8,8.9-6.7,17.8-8.9,25.9h-16.7c2.4-4,5.4-7.8,8.9-11.3l0.3-0.3
			C181.8,92.4,187.8,87.9,192.9,84.1z M160.8,71.4c1.6,8.6,3.5,16.2,5.4,22.1c-4.6,5.1-8.4,10.5-11.3,16.5h-8.6
			c1.1-5.7,2.7-11.6,5.4-18.1C154.3,84.1,157.8,77.1,160.8,71.4z M140.5,90c-2.7,7-4.3,13.8-5.4,20h-37l35.1-61.8
			C133.5,60.9,135.1,76.8,140.5,90z M86.6,108.9L86,110H74.4c-1.6-7.8-3.8-15.9-6.2-23.7c3-15.7,8.4-35.6,18.1-54.2
			C83.1,53,80.6,83.3,86.6,108.9z M57.4,87.9L57.4,87.9c2.2,7.6,4,14.8,5.7,22.1h-8.4c-0.8-1.6-1.6-3-2.4-4.3
			c0.3-10,0.5-20.8,0.5-31C54.5,78.7,55.8,83,57.4,87.9z M32.6,93c3.3,5.3,6.7,10.8,10,17c0,0,0,0,0,0l-9.4,0
			C33.4,105.1,33.4,99.5,32.6,93z"/>
	</g>
</g>
<g class="st0">
	<path class="st1" d="M53.3,142.7c1,1,1.5,2.2,1.5,3.4s-0.5,2.4-1.5,3.4c-1,1-2.2,1.5-3.4,1.5c-0.7,0-1.2-0.2-1.9-0.5
		c-0.5-0.2-1.2-0.5-1.5-1c-1-1-1.5-2.2-1.5-3.4s0.5-2.4,1.5-3.4c1.2-1.2,2.9-1.7,4.4-1.5c0.2,0,0.5,0.2,1,0.2
		c0.2,0.2,0.5,0.2,0.7,0.5S53.1,142.5,53.3,142.7z M201,153.9c-0.2-0.2-0.2-0.5-0.5-0.7c-0.2-0.2-0.5-0.5-0.5-0.7
		c-1.2-1.2-3-1.7-4.5-1.5c-0.2,0-0.7,0.2-1,0.2c-0.2,0.2-0.5,0.2-0.7,0.5c-0.2,0.2-0.5,0.5-0.7,0.5c-0.2,0.2-0.5,0.5-0.5,0.7
		c-0.2,0.2-0.2,0.5-0.5,0.7c-0.2,0.2-0.2,0.5-0.2,1c0,0.2,0,0.7,0,1c0,1.2,0.5,2.5,1.5,3.5c0.7,1.2,2,1.7,3.2,1.7
		c0.7,0,1.2-0.2,2-0.5c0.5-0.2,1.2-0.5,1.5-1c1-1,1.5-2.2,1.5-3.5c0-0.2,0-0.7,0-1C201.3,154.6,201.3,154.1,201,153.9z M220.4,162
		c-2.2,9.4-10,16.9-19.6,18.4c-9.7,1.6-18.4-2.6-23.5-9.4H74.6c-6.7,6.7-16.3,10.4-26.6,9.6c-16.4-1.3-29.7-14.5-31.2-30.9
		c-1.6-18.1,11-33.8,28.1-36.6L23-5c-0.5-2.2-2.4-3.9-4.9-3.9l-10.9,0c-2.1,0-4.2-1.2-4.8-3.2c-1.1-3.3,1.4-6.5,4.6-6.5h11.4
		c7.1,0,12.9,4.9,14.3,11.7l22.1,119.9c1.5,0.2,2.7,0.5,4.1,0.7l50.1,6.8v-15.1h-7.3c-2.7,0-4.9-2.2-4.9-4.9v-4.9
		c0-13.4,10.9-24.3,24.3-24.3h14.6c13.4,0,24.3,10.9,24.3,24.3v4.9c0,2.7-2.2,4.9-4.9,4.9H148v20.2l49.1,6.6
		C212.1,132.4,223.9,146.6,220.4,162z M149.6,95.7c0-8-6.6-14.6-14.6-14.6h-14.6c-8,0-14.6,6.6-14.6,14.6H149.6z M118.9,105.4v16.3
		l19.5,2.7v-19H118.9z M74.2,146.2c0-11.2-7.5-20.4-17.8-23.3l-6.8-1c-13.4,0.2-24.1,10.9-24.1,24.3s10.9,24.3,24.3,24.3
		S74.2,159.5,74.2,146.2z M178.3,139.7L76.9,126.1c4.4,5.8,7.1,12.9,7.1,20.7c0,5.4-1.2,10.2-3.4,14.6H172c-0.2-1.7-0.5-3.2-0.5-4.9
		C171.5,149.9,174.2,144.1,178.3,139.7z M210.4,155.9c0-8-6.6-14.6-14.6-14.6s-14.6,6.6-14.6,14.6c0,8,6.6,14.6,14.6,14.6
		S210.4,163.9,210.4,155.9z"/>
</g>
<g class="st0">
	<path class="st1" d="M26.7,125.9c4.2,0.4,7.7-1.1,10.4-4.1c4.2,5.1,11.8,5.7,16.9,1.2c0.6-0.3,0.9-0.9,1.2-1.2
		c4.2,5.1,11.8,5.7,16.9,1.2c0.6-0.3,0.9-0.9,1.2-1.2c4.2,5.1,11.8,5.7,16.9,1.2c0.6-0.3,0.9-0.9,1.2-1.2c4.2,5.1,11.8,5.7,16.9,1.2
		c0.6-0.3,0.9-0.9,1.2-1.2c4.2,5.1,11.8,5.7,16.9,1.2c2.4-2.1,3.9-4.8,4.2-8.1l31,31c1.1,1.1,2.3,1.2,5.5,0.2
		c10.6-3.4,17.7-13.4,17.7-24.6l0-46.7h3c1.7,0,3-1.3,3-3V59.7v-0.3v-0.3l-6-36.2c-0.3-1.5-1.5-2.4-3-2.4h-18.1
		c-1.5,0-2.7,1.2-3,2.4l-6,36.2v0.3v0.3v12.1c0,1.7,1.3,3,3,3h3v38l-30.1-30.1l0-59.3c0-6.3-5.1-12.2-11.3-12.6
		c-3.9-0.2-7.5,1.3-9.8,4.2c-4.2-5.1-11.8-5.7-16.9-1.2c-0.6,0.3-0.9,0.9-1.2,1.2c-4.2-5.1-11.8-5.7-16.9-1.2
		c-0.6,0.3-0.9,0.9-1.2,1.2C69,9.8,61.5,9.2,56.4,13.7c-0.6,0.3-0.9,0.9-1.2,1.2C51,9.8,43.4,9.2,38.3,13.7
		c-0.6,0.3-0.9,0.9-1.2,1.2C32.9,9.8,25,9.2,20.2,13.7c-2.7,2.1-4.2,5.4-4.2,9l0,90.8C16,119.4,20.8,125.3,26.7,125.9z M184.8,68.7
		h-24.1v-6h24.1V68.7z M165.8,26.5h13l5.1,30.1H161L165.8,26.5z M178.8,74.7V126c0,7.2-5.1,13.3-12.1,14.8v-66H178.8z M160.7,120.4
		v15.7l-30.1-30.1V90.3L160.7,120.4z M124.5,23c0,14.5,0,75.4,0,89.8c0,2.6-1.5,5.2-4,6c-4.2,1.4-8-1.7-8-5.7V22.7
		c0-4,3.9-7.1,8-5.7C123,17.9,124.5,20.4,124.5,23z M106.4,23c0,14.5,0,75.4,0,89.8c0,2.6-1.5,5.2-4,6c-4.2,1.4-8-1.7-8-5.7V22.7
		c0-4,3.9-7.1,8-5.7C104.9,17.9,106.4,20.4,106.4,23z M88.3,23c0,14.5,0,75.4,0,89.8c0,2.6-1.5,5.2-4,6c-4.2,1.4-8-1.7-8-5.7V22.7
		c0-4,3.9-7.1,8-5.7C86.8,17.9,88.3,20.4,88.3,23z M70.3,23c0,14.5,0,75.4,0,89.8c0,2.6-1.5,5.2-4,6c-4.2,1.4-8-1.7-8-5.7V22.7
		c0-4,3.9-7.1,8-5.7C68.7,17.9,70.3,20.4,70.3,23z M52.2,23c0,14.5,0,75.4,0,89.8c0,2.6-1.5,5.2-4,6c-4.2,1.4-8-1.7-8-5.7V22.7
		c0-4,3.9-7.1,8-5.7C50.6,17.9,52.2,20.4,52.2,23z M22,22.7c0-4,3.9-7.1,8-5.7c2.5,0.8,4,3.4,4,6c0,14.5,0,75.4,0,89.8
		c0,2.6-1.5,5.2-4,6c-4.2,1.4-8-1.7-8-5.7V22.7z"/>
	<path class="st1" d="M172.7-1.4c-1.8,0-3,1.2-3,3v9c0,1.8,1.2,3,3,3s3-1.2,3-3v-9C175.7-0.2,174.5-1.4,172.7-1.4z"/>
	<path class="st1" d="M175.7-19.5c0-1.8-1.2-3-3-3s-3,1.2-3,3v9c0,1.8,1.2,3,3,3s3-1.2,3-3V-19.5z"/>
	<path class="st1" d="M148.3-1.4c0,1.8,1.2,3,3,3c5.1,0,9,3.9,9,9c0,1.8,1.2,3,3,3s3-1.2,3-3c0-8.4-6.6-15.1-15.1-15.1
		C149.5-4.4,148.3-3.2,148.3-1.4z"/>
	<path class="st1" d="M193.5-4.4c-8.4,0-15.1,6.6-15.1,15.1c0,1.8,1.2,3,3,3s3-1.2,3-3c0-5.1,3.9-9,9-9c1.8,0,3-1.2,3-3
		S195.4-4.4,193.5-4.4z"/>
</g>
<g class="st0">
	<g class="st1">
		<path d="M93.9,56.1c-4.2,3.9-4.3,10.1-0.4,14.3c3.9,4.2,10.1,4.3,14.3,0.4c4.2-3.9,4.3-10.1,0.4-14.3
			C104.3,52.3,98.1,52.1,93.9,56.1z M103.1,65.9c-1.5,1.4-3.4,1.3-4.8-0.1c-1.4-1.5-1.3-3.4,0.1-4.8c1.5-1.4,3.4-1.3,4.8,0.1
			C104.7,62.6,104.6,64.5,103.1,65.9z"/>
		<path d="M204.2,76.9L161,54.8l0,0c-0.2-0.2-0.7-0.3-1.2-0.3l0,0l0,0l-31.1-2.6l-0.2-0.2l-31.2-62l0,0
			c-5.7-11.1-16.6-19.1-28.9-21.1C62-32.6,55.9-32,50-30.1c-1.2-0.3-1.5,0-2,0.4c-0.5,0.5-0.8,0.7-0.8,1.2c-0.5,1-0.3,2.2,0.4,2.9
			l42.1,64.4l-0.5,0.5l-10.6,10L17,3.3c-1-0.5-2.2-0.8-2.9-0.5c-0.7,0.2-1,0.5-1.5,0.9s-0.8,0.7-0.8,1.2C9.4,10.9,9,17,9.5,23.1l0,0
			l0,0l0,0c1.2,12.4,8.6,23.8,19.3,30.1l60,34.9l0.2,0.2l0.7,31.2l0,0l0,0c0,0.5,0.2,0.7,0.2,1.2l0,0l19.5,44.5
			c1.8,3.9,5.1,6.9,8.9,8.5c4.1,1.3,8.5,0.9,12.5-1c1.2-0.7,2.5-1.4,3.5-2.4c5.1-4.8,6.6-12.3,3.4-18.7l-21.5-43.1l-5.6-24.7
			l12.1-11.4l24.3,7.1l41.7,24c6.2,3.5,13.8,2.5,18.8-2.3c1-1,1.8-2.2,2.6-3.4c2.3-3.6,2.8-8.2,1.7-12.4
			C210.8,82.4,208,78.9,204.2,76.9z M91.4-4.9L91.4-4.9l25.2,48.8l-2.3-2.4c-0.7-0.7-1.4-1.5-2.3-2c-0.2-0.2-0.5-0.5-0.7-0.3
			c-0.7-0.3-1.2-0.7-1.9-1c-0.2-0.2-0.2-0.2-0.7-0.3c-0.9-0.5-1.9-0.5-2.8-1l-0.5,0l-0.5,0l0,0c1.2-1.2,1.5-2.8,0.6-4.3L75.6-19.6
			C82.2-17,88.3-11.6,91.4-4.9z M62.5-21c0.5,0,1,0,1.4,0c1,0,1.7,0.3,2.6,0.3l31.9,55.9L96,37.6l-38.5-58
			C59.1-20.6,60.8-20.8,62.5-21z M18.9,21.5c0-0.5,0-1,0-1.4c0-1.4,0.3-3.1,0.6-4.7L75.4,57l-2.4,2.3L19,24.1
			C19,23.2,19.1,22.2,18.9,21.5z M132.1,155.5c2,4.1,0.4,9.3-3.7,11.3c-2.2,1.1-4.3,1.3-6.9,0.5c-2.1-0.8-4-2.3-4.9-4.7l-18.1-40.8
			l13.5-6.3L132.1,155.5z M109.7,109.6l-12.3,5.6l-1-23.1c0.7,0.3,1.4,0,2.4,0.1l0.5,0c0.5,0,1.2-0.2,1.7-0.2c0.2-0.2,0.5,0,0.7-0.2
			c0.5,0,0.7-0.2,1.4-0.4c0.2-0.2,0.7-0.2,1-0.4c0.2-0.2,0.7-0.2,1-0.4L109.7,109.6z M121.6,68.9l-14.7,13.8
			c-2.7,2.5-7,3.4-10.5,2.1c-0.5,0-0.9-0.5-1.6-0.8L35.8,49.5c-6.5-4-11.6-9.9-14-16.8l50.4,32.9c1.2,0.7,3.1,0.8,4.3-0.3l7.3-6.9
			l12.2-11.5c4.1-3.8,10.4-3.6,14.3,0.4l11.5,12.2c0.5,0.5,1.4,1,2.1,1.3l3.1,0.3l0,0l27.5,2.7l-6.3,11.9L125,68.5
			C123.8,67.8,122.6,68,121.6,68.9z M203.5,90.5c0.6,2.2,0.3,4.8-0.9,6.9c-2.3,4-7.5,5.2-11.5,3l-38.4-22.6l7.1-13.1l39.6,20.5
			C201.3,86.6,202.9,88.4,203.5,90.5z"/>
	</g>
</g>
<g class="st0">
	<g class="st1">
		<g>
			<path d="M118.1,51.2c11.5-1.5,20.9-7.9,20.9-14.9c0-4.9-4.4-8.5-8.2-10.7c-5.5-3.2-11.9-4.5-18.1-4.5c4-4,7.4-9,9.2-14.4
				c1.5-4.7,2.3-11-1.3-14.9c-3.3-3.3-9-3-13.4-1.8c-6,1.7-11.7,5.2-16.1,9.7c0-8.2-2.3-17.9-8.9-23.6c-2.3-2.2-5.7-3.3-9-2.2
				c-4.2,1.5-7,5.5-8.9,9.4c-2.5,5-3.7,10.7-3.5,16.4C56.5-4.7,51-8.2,45-9.9c-4.4-1.2-10-1.7-13.6,1.8c-3.8,3.8-3,10.2-1.3,14.9
				c1.8,5.5,5.2,10.4,9.2,14.4c-6.2,0-12.7,1.3-18.1,4.5c-3.8,2-8.2,5.7-8.2,10.5c0,4.9,4.4,8.5,8.2,10.7c5.5,3.2,11.9,4.5,18.1,4.5
				c-4,4-7.4,9-9.2,14.4c-1.5,4.7-2.3,11,1.3,14.9c3.8,3.8,10.2,2.8,14.7,1.3c5.5-1.8,10.5-5.2,14.6-9.2c0,6.2,1.3,12.7,4.5,18.1
				c2.2,3.8,5.9,8,10.7,8s8.5-4.2,10.7-8c3.2-5.5,4.5-11.9,4.5-18.1c4,4.2,9,7.4,14.6,9.2c4.5,1.5,10.9,2.3,14.7-1.3
				c4.9-4.9,2.3-13.4-0.2-18.6c2.3,2.3,4.5,4.9,6.7,7.7c14.2,18.9,24.4,52.5-6,105.9c-2.2,3.7,3.7,7,5.9,3.3
				c10.9-18.9,16.7-35.6,19.2-50.2c6.7,2.7,14.2,3.8,21.3,1.7c5.7-1.7,9-5,14.1-9.9c7.7-7.4,15.7-14.1,24.4-20.1
				c1.8-1.2,2-4,0.2-5.4c-13.2-10.5-31.8-12.2-46-4c-5.9,3.3-9.9,7.7-12.9,12C144.2,76.8,129,60,118.1,51.2z M113.1,27.7
				c11.9,0,19.4,6,19.4,8.5s-7.5,8.5-19.4,8.5c-5.2,0-9.4-1.2-12.6-2.5c1-3.8,1-7.9,0-11.9C103.7,28.9,107.9,27.7,113.1,27.7z
				 M96.2,4.1c8.7-9.5,19.1-8.2,19.6-7.5c0.5,0.7,1.8,9.4-7.5,19.6c-3.5,3.7-7.4,5.9-10.7,7c-2-3.3-5-6.4-8.4-8.4
				C90.3,11.5,92.7,7.6,96.2,4.1C102.4-2.1,92.8,7.8,96.2,4.1z M76.1-20c2.5,0,8.5,7.5,8.5,19.4c0,5-1.2,9.4-2.5,12.6
				c-3.8-1-8-1-11.9,0c-1.5-3.2-2.5-7.5-2.5-12.6C67.6-12.4,73.6-20,76.1-20z M36.3-3.4C36.8-4.1,47-4.9,55.8,4.1l0,0
				c3.5,3.5,5.9,7.4,7,10.7c-3.3,2.2-6.4,5-8.4,8.4c-3.3-1.2-7.4-3.3-10.7-7C33.8,5.3,35.8-2.7,36.3-3.4z M39.1,44.8
				c-11.9,0-19.4-6-19.4-8.5c0-2.5,7.5-8.5,19.4-8.5c5.2,0,9.4,1.2,12.6,2.5c-1,3.8-1,8,0,11.9C48.5,43.6,44.1,44.8,39.1,44.8z
				 M56,68.4c-8.4,8.4-17.9,9.4-19.7,7.7c-0.3-0.3-2.8-9.5,7.7-19.7c3.7-3.5,7.4-5.9,10.7-7c2,3.3,5,6.4,8.4,8.4
				C61.7,61.2,59.4,65,56,68.4z M76.1,92.7c-2.5,0-8.5-7.5-8.5-19.4c0-5,1.2-9.4,2.5-12.6c3.8,1,8,1,11.9,0
				c1.5,3.2,2.5,7.5,2.5,12.6C84.6,85.1,78.6,92.7,76.1,92.7z M76.1,54.7c-10.2,0-18.4-8.2-18.4-18.4s8.2-18.4,18.4-18.4
				s18.4,8.2,18.4,18.4S86.1,54.7,76.1,54.7z M115.9,76.1c-1.8,1.8-11.4,0.7-19.7-7.7c-3.5-3.5-5.9-7.4-7-10.7c3.3-2,6.4-5,8.4-8.4
				c3.3,1.2,7,3.5,10.7,7C118.8,66.1,116.3,75.8,115.9,76.1z M163.1,97.2c8.7-4.9,19.2-5.5,28.6-2.2c-9.9,1.7-19.4,6.4-27.1,10.5
				c-7,4-12.2,7.4-16.2,10.4C150.2,110.1,154.2,102.2,163.1,97.2z M188,105.7c-5,4.2-8.5,7.5-11.4,10.4c-4.7,4.5-7.2,7-11.4,8.2
				c-4.5,1.3-9.5,1-15.4-1c4.4-3.3,9.9-7.2,18.1-11.7c9.9-5.5,18.1-8.9,25.3-9.9C191.4,102.9,189.7,104.4,188,105.7z"/>
		</g>
	</g>
</g>
<g class="st0">
	<title>Artboard 10</title>
	<g class="st1">
		<path d="M48.1,96.4c-0.7-1.9-2.3-3.3-4.5-3.3H18.8l-8.2-24.9c-0.9-2.3-3.5-3.8-5.9-3c-2.3,0.9-3.8,3.5-3,5.9l8.9,26.7l-8.9,26.7
			c-0.7,2.3,0.5,5.2,3,5.9c2.3,0.7,5.2-0.5,5.9-3l8.2-24.9h21.3l8.2,24.9c0.9,2.3,3.5,3.8,5.9,3c2.3-0.9,3.8-3.5,3-5.9L48.1,96.4z"
			/>
		<path d="M127,65H98.9V18.1h75c2.6,0,4.7-2.1,4.7-4.7l0,0V4c0-1.9-0.9-3.5-2.6-4.2L96.2-37.7c-1.2-0.7-2.8-0.7-4,0L12.4-0.2
			C10.7,0.5,9.8,2.1,9.8,4v9.4c0,2.6,2.1,4.7,4.7,4.7l0,0h75V65H62.4c-2.6-0.5-4.7,1.6-4.7,4.2c0,2.6,2.1,4.7,4.7,5.2h27.1v46.9
			l-4.7,0c-1.7,0-3.3,0.8-4.1,2.3c-1.8,3.5,0.7,7.1,4.1,7.1l18.8,0c1.7,0,3.3-0.8,4.1-2.3c1.8-3.5-0.7-7.1-4.1-7.1h-4.7V74.4l27.9,0
			c2,0,4-1.2,4.7-3.1C132.5,68,130.1,65,127,65z M19.2,7.1l75-35.4l75,35.4v1.6H19.2V7.1z"/>
		<path d="M179.9,97.8l8.9-26.7c0.7-2.3-0.5-5.2-3-5.9c-2.3-0.7-5.2,0.5-5.9,3l-8.2,24.9h-24.9c-2.1,0-3.8,1.4-4.5,3.3l-9.4,28.1
			c-0.7,2.3,0.5,5.2,3,5.9c2.3,0.7,5.2-0.5,5.9-3l8.2-24.9h21.3l8.2,24.9c0.9,2.3,3.5,3.8,5.9,3c2.3-0.9,3.8-3.5,3-5.9L179.9,97.8z"
			/>
	</g>
</g>
<g class="st0">
	<path class="st1" d="M188.3,47.5c-2.5-10.7-11.2-18.7-21.7-20.8c0-0.6-0.2-1.3-0.4-1.9c-1.7-7.2-5.9-13.3-12.2-17.1
		c-5.1-3.2-10.9-4.6-16.8-4c-4.8-12.6-18.3-20-31.8-16.8c-4,0.8-7.8,2.7-10.9,5.3c-5.1-3.8-10.9-5.9-17.1-5.9
		C66.4-13.8,56.5-7,52.3,2.9c-14.7-1.1-27.2,9.7-29.1,23.6C9.7,28.1-0.6,39.7-0.6,53.6c0,11.6,7.4,22.1,18.1,25.9c0,0,0,0,0,0
		c-0.6,14.1,9.6,25.1,26.5,28.6c1.7,0.4,14.3,0.4,30.3,0.4c24,0,55.6-0.2,69.1-0.4l8.2-0.6h0.6c12.2-2.7,21.3-15.8,21.3-29.1
		C184.9,73,191.2,60.1,188.3,47.5z M167.9,71.9l-3.2,1.1l0.4,3.2c1.3,10.1-5.5,20.8-14.6,23.2l-7.4,0.6c-37.3,0.4-94.1,0.6-98.1,0
		c-4.7-1.1-20.1-5.3-20.1-19.4c0-1.3,0.2-2.5,0.4-3.6l0.8-4l-4-0.8c-8.9-1.9-15.3-9.9-15.3-19c0-10.7,8.7-19.4,19.3-19.4h4v-4
		c0-10.7,8.7-19.4,19.3-19.4c1.3,0,2.5,0.2,4,0.4l3.8,0.6l1.1-3.6C60.7-0.3,68.3-6,77-6c5.3,0,10.4,2.1,14,5.9l3,3.2l3-3.2
		c2.5-2.7,5.9-4.8,9.8-5.7c10.4-2.3,20.8,4,23.3,14.5l0.8,4l4-0.8c5.1-1.3,10.2-0.2,14.6,2.3c4.5,2.7,7.4,6.9,8.7,12
		c0.2,1.3,0.4,2.5,0.4,3.8v3.8l3.8,0.2c8.5,0.4,15.9,6.5,17.8,15C182.5,58.9,177.2,68.8,167.9,71.9z"/>
	<path class="st1" d="M145.3,44.9c-6.1-3.2-13.3-2.3-18.3,2.1c-3.8-1.9-8-2.3-12-1.1c-4.2,1.3-7.6,4-9.7,8c-0.4,0.8-0.2,1.7,0.6,2.1
		s1.7,0.2,2.1-0.6c1.7-3.2,4.4-5.5,7.8-6.5c3.4-1.1,6.9-0.6,10.1,1.1c0.2,0,0.2,0.2,0.4,0.2l1.1,0.6l0.8-0.8
		c4.2-4.2,10.5-5.1,15.6-2.3c6.5,3.4,8.8,11.6,5.5,18.1c-0.4,0.8-0.2,1.7,0.6,2.1c0.2,0.2,0.4,0.2,0.6,0.2c0.6,0,1.1-0.2,1.3-0.8
		C156.3,59.2,153.3,49.1,145.3,44.9z"/>
	<path class="st1" d="M63.6,26.8c-4.2-1.3-8.6-0.6-12.4,1.5c-5.9,3.4-9.3,9.9-8.2,16.6c-7.6,4.4-10.3,14.3-5.9,22.1
		c0.2,0.4,0.8,0.8,1.3,0.8c0.2,0,0.4,0,0.8-0.2c0.8-0.4,1.1-1.3,0.6-2.1c-3.6-6.3-1.3-14.5,5.3-18.1c0.2,0,0.2-0.2,0.4-0.2l1.1-0.4
		l-0.2-1.3c-1.3-5.7,1.5-11.6,6.5-14.3c3.2-1.7,6.7-2.1,10.1-1.3c3.4,1.1,6.3,3.2,8,6.3c0.4,0.8,1.3,1.1,2.1,0.6s1.1-1.3,0.6-2.1
		C71.4,30.8,67.9,28,63.6,26.8z"/>
</g>
<g class="st0">
	<g class="st1">
		<g>
			<path d="M209.6,4V1.6h-14.3v-16.8l2.4-3.3l-5.7-15.8l-5.5,15.8l4.1,3.3V1.6h-23.9v-16.8l3.6-3.3l-5.5-15.8l-5.5,15.8l2.6,3.3V1.6
				h-21.5v-15.8l3.5-3.3l-6-15.8L132-17.5l3.5,3.3V1.6h-23.9v-16.8l3.8-3.3L110-34.2l-5.5,15.8l2.4,3.3V1.6H85.4v-16.8l2.9-3.3
				l-5.5-15.8l-5.5,15.8l3.3,3.3V1.6H56.7v-15.8l3.5-3.3l-6-15.8l-5.8,15.8l3.5,3.3V1.6H30.5v-16.8l3.1-3.3l-5.5-15.8l-5.5,15.8
				l3.1,3.3V1.6H9v4.8h16.7v93.2H9v4.8h16.7v19.1h4.8v-19.1H52v19.1h4.8v-19.1h23.9v19.1h4.8v-19.1h21.5v19.1h4.8v-19.1h23.9v19.1
				h4.8v-19.1h21.5v19.1h4.8v-19.1h23.9v19.1h4.8v-19.1h14.3v-4.8h-16.7V4H209.6z M30.5,99.6V4h23.9v95.5H30.5z M56.7,99.6V4h23.9
				v95.5H56.7z M85.4,99.6V4h23.9v95.5H85.4z M111.7,99.6V4h23.9v95.5H111.7z M138,99.6V4h23.9v95.5H138z M190.5,99.6h-23.9V4h23.9
				V99.6z"/>
		</g>
	</g>
</g>
<g class="st0">
	<g class="st1">
		<g>
			<g>
				<g>
					<path d="M39.3-4.2c1.3,1.3,2.7,2.7,4,4c3.2,3.2,6.4,6.4,9.6,9.6c3.8,3.8,7.7,7.7,11.5,11.5c3.3,3.3,6.7,6.7,10,10
						c1.6,1.6,3.2,3.3,4.9,4.9c0,0,0,0,0.1,0.1c0-1.5,0-3.1,0-4.7l-6.9,6.9h4.7c-1.3-1.3-2.7-2.7-4-4c-3.2-3.2-6.4-6.4-9.6-9.6
						C59.7,20.7,55.9,16.8,52,13c-3.3-3.3-6.7-6.7-10-10c-1.6-1.6-3.2-3.3-4.9-4.9c0,0,0,0-0.1-0.1c-1.2-1.2-3.4-1.3-4.7,0
						c-0.3,0.3-0.7,0.7-1,1c-0.2,0.2-0.4,0.4-0.6,0.6c0,0-0.1,0.1-0.1,0.1c0,0-0.1,0.1-0.1,0.1c-0.3,0.4,0.1-0.1,0.2-0.1
						c0,0-0.5,0.3-0.5,0.3c0,0,0.7-0.3,0.3-0.2c-0.3,0.1,0.4-0.1,0.4-0.1c0.3,0,0.5,0.1,0.7,0.1c0.4,0.1,0.1,0.1,0,0
						c0,0,0.5,0.4,0.2,0.1c-0.3-0.3,0.2,0.3,0.2,0.3C32.1,0.2,32.1,0.1,32,0c-1.2-1.5-2.3-3-3.4-4.6c-2.4-3.3-4.9-6.5-7.3-9.8
						c0-0.1-0.1-0.1-0.2-0.2c-0.2-0.3-0.3-0.6-0.1-0.1c0-0.1-0.2-0.4,0,0c0.1,0.3,0,0.2,0,0c0,0-0.1,0.7,0,0.3
						c0.1-0.4-0.3,0.6-0.1,0.2c0.2-0.3-0.3,0.3-0.1,0.1c0.1,0,0.2-0.2,0.2-0.2c0.7-0.7,1.5-1.5,2.2-2.2c0.9-0.9,1.9-1.9,2.8-2.8
						c0.3-0.3,0.6-0.6,0.9-0.9c0.1-0.1,0.2-0.1,0.2-0.2c0.2-0.2-0.4,0.2-0.1,0.1c0.3-0.2-0.3,0.1-0.3,0.1c0.1,0,0.5-0.1,0,0
						c-0.4,0.1-0.1,0,0,0c0,0-0.7-0.1-0.3,0c0.4,0.1-0.2-0.1-0.2-0.1c0,0,0.3,0.2,0.3,0.2c0.1,0.1,0.2,0.1,0.3,0.2
						c0.1,0.1,0.2,0.1,0.3,0.2c0.6,0.4,1.2,0.9,1.8,1.3c2,1.5,4.1,3.1,6.1,4.6c1.8,1.4,3.6,2.7,5.4,4.1c0.3,0.3,0.7,0.5,1,0.8
						c0,0-0.4-0.3-0.4-0.3c0.1,0.1,0.4,0.3,0.1,0c-0.2-0.2-0.1-0.1,0,0c-0.1-0.2-0.2-0.4-0.2-0.7c0-0.3,0-0.5,0-0.8
						c0,0.1-0.1,0.4,0,0c0.3-0.6-0.2,0.3-0.2,0.3c0,0,0.4-0.5,0.2-0.3c-0.1,0.1-0.1,0.1-0.2,0.2c0,0,0,0-0.1,0.1
						c-0.2,0.2-0.4,0.4-0.6,0.6c-0.3,0.3-0.7,0.7-1,1C38.1-7.6,38-5.4,39.3-4.2c1.3,1.2,3.4,1.3,4.7,0c1-1,2-1.9,2.7-3
						c0.8-1.3,1.1-2.9,0.7-4.4c-0.4-1.4-1.4-2.3-2.5-3.1c-1.4-1.1-2.8-2.1-4.3-3.2c-2.3-1.7-4.6-3.5-7-5.2c-1.3-1-2.6-2.2-4-2.9
						c-2.5-1.3-5.2-0.9-7.2,1.1c-0.8,0.8-1.5,1.5-2.3,2.3c-1,1-2,2-3,3c-0.9,0.9-1.8,1.7-2.3,2.9c-0.9,2-0.4,4.3,0.9,6
						c0.4,0.6,0.9,1.2,1.3,1.8c1.7,2.2,3.3,4.4,5,6.6c1.4,1.8,2.8,3.7,4.1,5.5c0.9,1.2,1.9,2.4,3.5,3C32.1,7,34.3,5.5,36,3.8
						c0.4-0.4,0.7-0.7,1.1-1.1h-4.7c1.3,1.3,2.7,2.7,4,4c3.2,3.2,6.4,6.4,9.6,9.6c3.8,3.8,7.7,7.7,11.5,11.5c3.3,3.3,6.7,6.7,10,10
						c1.6,1.6,3.2,3.3,4.9,4.9c0,0,0,0,0.1,0.1c1.5,1.5,4.3,1.2,5.3-0.9c1.8-1.8,3.5-3.5,5.4-5.3c2-1,2.3-3.7,0.8-5.2
						c-1.3-1.3-2.7-2.7-4-4c-3.2-3.2-6.4-6.4-9.6-9.6c-3.8-3.8-7.7-7.7-11.5-11.5c-3.3-3.3-6.7-6.7-10-10c-1.6-1.6-3.2-3.3-4.9-4.9
						c0,0,0,0-0.1-0.1c-1.2-1.2-3.5-1.3-4.7,0C38.1-7.5,38-5.5,39.3-4.2z"/>
				</g>
			</g>
			<g>
				<g>
					<path d="M158.7,110.7c-1.7,1.7-3.4,3.4-5.1,5.1c-0.6,0.6-1.2,1.2-1.8,1.8c-0.2,0.2-0.5,0.4-0.7,0.7c-0.4,0.4,0.5-0.3-0.2,0.1
						c-0.5,0.3-1,0.6-1.5,0.9c-0.5,0.3,0.5-0.2-0.2,0.1c-0.2,0.1-0.5,0.2-0.8,0.2c-0.3,0.1-0.6,0.2-0.9,0.2c-0.1,0-0.2,0-0.3,0.1
						c-0.4,0.1,0.7,0,0.1,0c-0.5,0-1.1,0.1-1.6,0c-0.3,0-0.5,0-0.8-0.1c-0.5,0,0.7,0.1,0.2,0c-0.2,0-0.4-0.1-0.6-0.1
						c-0.5-0.1-1-0.3-1.5-0.5c-0.6-0.2,0.6,0.3-0.2-0.1c-0.3-0.1-0.5-0.3-0.8-0.4c-0.2-0.1-0.5-0.3-0.7-0.4c-0.5-0.3,0,0,0.1,0.1
						c-0.1,0-0.3-0.2-0.4-0.3c-0.2-0.2-0.4-0.3-0.5-0.5c-0.1-0.1-0.1-0.1-0.2-0.2c-1.1-1.1-2.1-2.1-3.2-3.2
						c-4.2-4.2-8.3-8.3-12.5-12.5c-3.7-3.7-7.4-7.4-11.1-11.1c-0.4-0.4-0.8-0.8-1.2-1.2c-0.1-0.1-0.1-0.1-0.2-0.2
						c0,0-0.3-0.4-0.3-0.4c0,0,0.4,0.7,0.1,0.1c-0.1-0.1-0.1-0.2-0.2-0.3c-0.1-0.1-0.3-0.5-0.1-0.1c0.2,0.4,0-0.1-0.1-0.2
						c0-0.1-0.2-1-0.1-0.4c0.1,0.5,0-0.3,0-0.4c0-0.6-0.1,0.6,0-0.1c0-0.1,0.1-0.3,0.1-0.4c0-0.1,0.3-0.5,0-0.1
						c-0.3,0.4,0.2-0.3,0.3-0.4c0.3-0.6-0.1,0.1-0.1,0.1c0-0.1,0.3-0.3,0.3-0.3c0.1-0.1,0.1-0.1,0.2-0.2c1-1,2-2,3-3
						c0.3-0.3,0.5-0.5,0.8-0.8c1.3-1.3,1.3-3.4,0-4.7c-4-4-8-8-12-12c-0.6-0.6-1.1-1.1-1.7-1.7c0,1.5,0,3.1,0,4.7
						c2.3-2.3,4.6-4.6,6.9-6.9c-1.5,0-3.1,0-4.7,0c4,4,8,8,12,12c0.6,0.6,1.1,1.1,1.7,1.7c1.3,1.3,3.4,1.3,4.7,0
						c1.3-1.3,2.6-2.7,4-4c0,0,0.4-0.3,0.4-0.3c0,0-0.5,0.3-0.2,0.2c0.1,0,0.2-0.1,0.3-0.2s0.2-0.1,0.3-0.2c0.3-0.2-0.2,0.1-0.3,0.1
						c0.2,0,0.5-0.2,0.7-0.2c0.1,0,0.2,0,0.3-0.1c0,0-0.7,0-0.3,0c0.2,0,0.5,0,0.7,0c0.3,0-0.3,0-0.3,0c0.1,0,0.2,0,0.3,0.1
						c0.2,0,0.6,0.2,0.7,0.2c0,0-0.6-0.3-0.3-0.1c0.1,0.1,0.2,0.1,0.3,0.2c0.1,0.1,0.2,0.1,0.3,0.2c0.3,0.2-0.2-0.1-0.2-0.2
						c0,0,0.3,0.3,0.4,0.3c0.1,0,0.1,0.1,0.2,0.2c2.3,2.3,4.6,4.6,6.9,6.9c3.8,3.8,7.6,7.6,11.4,11.5c2.9,2.9,5.8,5.9,8.8,8.8
						c0.3,0.3,0.6,0.6,0.9,0.9c0.1,0.1,0.1,0.1,0.2,0.2l0,0c0.2,0.2,0.3,0.3,0.5,0.5c0.1,0.1,0.1,0.2,0.2,0.3
						c0.3,0.3-0.3-0.5-0.1-0.1c0.3,0.4,0.5,0.8,0.8,1.2c0.1,0.2,0.2,0.4,0.3,0.6c0.2,0.3-0.1-0.2-0.1-0.3c0,0.2,0.1,0.4,0.2,0.5
						c0.1,0.4,0.3,0.9,0.4,1.3c0,0.1,0,0.2,0.1,0.3c0,0.2,0.2,0.3,0,0c-0.1-0.3,0-0.2,0,0c0,0.1,0,0.3,0,0.4c0,0.4,0,0.9,0,1.4
						c0,0.2-0.1,0.5-0.1,0.7c0,0,0.1-0.7,0-0.3c0,0.1,0,0.3-0.1,0.4c-0.1,0.4-0.2,0.9-0.4,1.3c0,0.1-0.1,0.2-0.1,0.3
						c-0.2,0.6,0-0.1,0.1-0.1c-0.1,0.1-0.3,0.6-0.4,0.7c-0.2,0.4-0.5,0.8-0.8,1.2c-0.2,0.3,0.1-0.2,0.1-0.2c0,0-0.2,0.3-0.2,0.3
						C159.1,110.3,158.9,110.5,158.7,110.7c-1.2,1.2-1.3,3.4,0,4.7c1.3,1.2,3.4,1.3,4.7,0c3.5-3.6,5-8.7,3.9-13.6
						c-0.6-2.8-2.2-5.2-4.2-7.3c-2.6-2.6-5.3-5.3-7.9-7.9c-4-4-8-8-12-12c-2.6-2.6-5.2-5.2-7.8-7.8c-2.3-2.3-5.6-3.5-8.9-2.6
						c-3,0.8-5.2,3.5-7.3,5.7c-0.2,0.2-0.4,0.4-0.6,0.6c1.5,0,3.1,0,4.7,0c-4-4-8-8-12-12c-0.6-0.6-1.1-1.1-1.7-1.7
						c-1.3-1.3-3.4-1.3-4.7,0c-2.3,2.3-4.6,4.6-6.9,6.9c-1.3,1.3-1.3,3.4,0,4.7c4,4,8,8,12,12c0.6,0.6,1.1,1.1,1.7,1.7
						c0-1.5,0-3.1,0-4.7c-0.9,0.9-1.7,1.7-2.6,2.6c-1.2,1.2-2.4,2.3-3.1,3.8c-1.5,3.2-1,6.8,1.2,9.5c0.3,0.4,0.6,0.7,0.9,1
						c3.3,3.3,6.7,6.7,10,10.1c4.5,4.5,9,9,13.4,13.5c3.5,3.5,6.8,7.6,12,8.4c5,0.8,9.7-0.8,13.2-4.3c2-2,4-4,6-6
						c0.2-0.2,0.4-0.4,0.6-0.6c1.2-1.2,1.3-3.5,0-4.7C162.1,109.4,160,109.4,158.7,110.7z"/>
				</g>
			</g>
			<g>
				<g>
					<path d="M126.2,82.8c2.6,2.6,5.2,5.2,7.9,7.9c4.2,4.2,8.4,8.4,12.5,12.5c1,1,1.9,1.9,2.9,2.9c1.2,1.2,3.5,1.3,4.7,0
						c1.2-1.3,1.3-3.4,0-4.7c-2.6-2.6-5.2-5.2-7.9-7.9c-4.2-4.2-8.4-8.4-12.5-12.5c-1-1-1.9-1.9-2.9-2.9c-1.2-1.2-3.5-1.3-4.7,0
						C125,79.4,124.9,81.5,126.2,82.8L126.2,82.8z"/>
				</g>
			</g>
			<g>
				<g>
					<path d="M147.3,108.3c-2.6-2.6-5.2-5.2-7.9-7.9c-4.2-4.2-8.4-8.4-12.5-12.5c-1-1-1.9-1.9-2.9-2.9c-1.2-1.2-3.5-1.3-4.7,0
						c-1.2,1.3-1.3,3.4,0,4.7c2.6,2.6,5.2,5.2,7.9,7.9c4.2,4.2,8.4,8.4,12.5,12.5c1,1,1.9,1.9,2.9,2.9c1.2,1.2,3.5,1.3,4.7,0
						S148.6,109.6,147.3,108.3L147.3,108.3z"/>
				</g>
			</g>
		</g>
		<g>
			<g>
				<g>
					<path d="M162.3,5c-3.9,3.9-7.9,7.9-11.8,11.8c-1.9,1.9-3.8,3.8-5.7,5.7c-0.1,0.1-0.3,0.3-0.4,0.4c-0.3,0.3-0.7,0.7-1.1,1
						c-0.3,0.3-0.6,0.5-0.9,0.8c0.1-0.1,0.5-0.4,0,0c-0.2,0.1-0.4,0.3-0.6,0.4c-0.6,0.4-1.2,0.7-1.8,1.1c-0.3,0.2-0.6,0.3-0.9,0.5
						c-0.2,0.1-0.4,0.2-0.6,0.3c-0.4,0.2-0.4,0.2,0,0c-0.6,0.4-1.5,0.5-2.1,0.7c-0.7,0.2-1.5,0.4-2.2,0.5c-0.2,0-0.3,0-0.5,0.1
						c-0.5,0.1,0-0.1,0.1,0c-0.1-0.1-0.9,0.1-1,0.1c-0.7,0-1.5,0.1-2.2,0c-0.7,0-1.5,0-2.2-0.2c0.1,0,0.7,0.1,0.1,0
						c-0.2,0-0.3,0-0.5-0.1c-0.4-0.1-0.8-0.2-1.3-0.3c-0.7-0.2-1.4-0.4-2-0.6c-0.2-0.1-0.4-0.1-0.6-0.2c-0.1,0-0.6-0.2-0.2-0.1
						c0.4,0.2-0.1-0.1-0.2-0.1c-0.2-0.1-0.5-0.2-0.7-0.3c-0.7-0.3-1.4-0.7-2-1.2c-0.3-0.2-0.6-0.4-0.9-0.6c-0.1-0.1-0.3-0.2-0.4-0.3
						c0.6,0.4-0.1-0.1-0.2-0.2c-0.3-0.2-0.6-0.5-0.8-0.7c0,0-0.4-0.4-0.4-0.4c-0.1,0.1,0.9,1-0.3-0.3c-0.2-0.3-0.5-0.5-0.8-0.8
						c-0.1-0.2-0.3-0.3-0.5-0.5c0-0.1-0.5-0.7-0.3-0.3c0.2,0.3-0.1-0.1-0.2-0.2c-0.1-0.2-0.3-0.4-0.4-0.6c-0.2-0.3-0.4-0.6-0.6-0.9
						c-0.4-0.7-0.8-1.4-1.2-2.1c-0.1-0.2-0.1-0.3-0.2-0.5c0.3,0.6,0.1,0.2,0,0c-0.1-0.4-0.3-0.8-0.4-1.1c-0.2-0.8-0.5-1.5-0.6-2.3
						c-0.1-0.4-0.1-0.7-0.2-1.1c0-0.2-0.1-0.6,0,0.1c0-0.2,0-0.3,0-0.5c-0.1-0.7-0.1-1.5-0.1-2.2c0-0.7,0-1.4,0.1-2.1
						c0-0.2,0-0.3,0-0.5c0-0.5-0.1,0.8,0,0c0.1-0.4,0.1-0.7,0.2-1.1c0.1-0.7,0.3-1.4,0.5-2.1c0.1-0.3,0.2-0.6,0.3-1
						c0-0.2,0.1-0.3,0.2-0.5c0.2-0.7-0.2,0.5,0.1-0.1c0.6-1.4,1.4-2.7,2.3-4c0.1-0.1,0.4-0.5,0,0c0.1-0.1,0.2-0.3,0.3-0.4
						c0.2-0.3,0.5-0.5,0.7-0.8c0.2-0.3,0.5-0.5,0.8-0.8c1.5-1.5,3-3,4.4-4.4c4.4-4.4,8.9-8.9,13.3-13.3c0.1-0.1,0.2-0.2,0.3-0.3
						c1.7-1.7,1-4.9-1.4-5.5c-12.4-3-26-0.7-36.5,6.6c-5.4,3.8-10.1,8.7-13.5,14.4c-3.3,5.5-5.2,11.7-6,18c-0.8,6.7,0,13.8,2.3,20.2
						c0.3-1.1,0.6-2.1,0.8-3.2c-3.5,3.5-6.9,6.9-10.3,10.3c-4.6,4.6-9.1,9.1-13.7,13.7c-6.7,6.7-13.5,13.5-20.2,20.2
						c-5,5-10,10-15,15c-1.5,1.5-3.1,3-4.4,4.9c-5,7-5,17-0.1,24.1c4.7,6.8,12.8,10.3,21,9.2c4.8-0.7,9-3,12.3-6.4
						c4-4,8.1-8.1,12.1-12.1c6.7-6.7,13.3-13.3,20-20c5.4-5.4,10.8-10.8,16.2-16.2c3.2-3.2,6.5-6.5,9.7-9.7c0.9-0.9,1.8-1.8,2.7-2.7
						c-1.1,0.3-2.1,0.6-3.2,0.8c11.8,4,25,3,36-2.8c11.4-5.9,19.9-16.9,22.9-29.4c1.7-7,1.7-14.2,0.1-21.2c-0.4-1.7-2.4-2.8-4-2.3
						c-1.8,0.6-2.7,2.3-2.3,4c0.1,0.7,0.3,1.4,0.4,2.1c0.1,0.3,0.1,0.7,0.2,1c0,0.2,0,0.3,0.1,0.5c0.1,0.4-0.1-0.7,0,0
						c0.1,1.4,0.3,2.9,0.3,4.3c0,1.4,0,2.8-0.1,4.2c0,0.4-0.1,0.7-0.1,1.1c0,0.3-0.2,0.7-0.1,1c0-0.1,0.1-0.8,0-0.1
						c0,0.2,0,0.3-0.1,0.5c-0.1,0.4-0.1,0.8-0.2,1.2c-0.5,2.8-1.3,5.5-2.4,8.2c-0.2,0.6,0,0,0-0.1c0,0.1-0.1,0.3-0.2,0.5
						c-0.1,0.3-0.3,0.7-0.5,1c-0.3,0.7-0.6,1.3-1,1.9c-0.7,1.3-1.5,2.6-2.4,3.8c-0.2,0.3-0.4,0.6-0.6,0.8c-0.1,0.1-0.2,0.3-0.3,0.4
						c-0.1,0.1-0.4,0.5-0.1,0.2c0.3-0.4-0.2,0.3-0.2,0.3c-0.1,0.1-0.2,0.3-0.3,0.4c-0.2,0.3-0.5,0.6-0.8,0.9c-1,1.2-2.1,2.3-3.2,3.3
						c-0.5,0.5-1,0.9-1.6,1.4c-0.3,0.2-0.5,0.4-0.8,0.6c-0.5,0.4,0,0,0.1,0c-0.2,0.2-0.4,0.3-0.6,0.5c-1.2,0.8-2.4,1.6-3.6,2.4
						c-1.2,0.7-2.5,1.4-3.8,1.9c-0.3,0.1-0.6,0.3-0.9,0.4c0.8-0.3-0.3,0.1-0.5,0.2c-0.7,0.2-1.3,0.5-2,0.7c-1.4,0.4-2.7,0.8-4.1,1.1
						c-0.7,0.1-1.3,0.3-2,0.4c-0.3,0-0.6,0.1-1,0.1c-0.2,0-0.6,0.1,0.1,0c-0.2,0-0.4,0-0.6,0.1c-3.1,0.4-6.2,0.4-9.3,0.1
						c-0.2,0-1.5-0.1-0.6,0c-0.4,0-0.8-0.1-1.2-0.2c-0.7-0.1-1.4-0.3-2.2-0.4c-1.6-0.3-3.1-0.8-4.7-1.3c-1.1-0.4-2.4,0-3.2,0.8
						c-3.4,3.4-6.9,6.9-10.3,10.3c-4.4,4.4-8.8,8.8-13.2,13.2C77.2,84.4,70.6,91.1,64,97.7c-5.1,5.1-10.3,10.3-15.4,15.4
						c-0.8,0.8-1.6,1.6-2.5,2.5c-0.3,0.3-0.6,0.6-0.9,0.8c-0.1,0.1-0.3,0.3-0.5,0.4c-0.2,0.1-0.5,0.5,0,0c-0.5,0.6-1.6,1.1-2.3,1.4
						c-0.4,0.2-0.8,0.4-1.1,0.6c-0.6,0.3,0.1,0,0.1-0.1c-0.1,0.1-0.5,0.2-0.6,0.2c-0.8,0.3-1.7,0.5-2.5,0.7c-0.2,0-0.4,0.1-0.6,0.1
						c-0.3,0-0.9,0,0,0c-0.4,0-0.8,0.1-1.1,0.1c-0.8,0-1.7,0-2.5,0c-0.1,0-0.6,0-0.7-0.1c0.1,0,0.3,0,0.4,0.1c-0.1,0-0.3,0-0.4-0.1
						c-0.4-0.1-0.7-0.1-1.1-0.2c-0.8-0.2-1.6-0.5-2.4-0.7c-0.7-0.3,0.7,0.3-0.1,0c-0.2-0.1-0.4-0.2-0.6-0.3c-0.3-0.2-0.7-0.3-1-0.5
						c-0.3-0.2-0.7-0.4-1-0.6c-0.2-0.1-0.4-0.3-0.6-0.4c-0.6-0.4,0.4,0.4-0.1-0.1c-0.7-0.6-1.4-1.2-2-1.9c-0.3-0.3-0.6-0.7-0.9-1
						c0.5,0.6-0.1-0.1-0.1-0.2c-0.1-0.2-0.3-0.4-0.4-0.7c-0.3-0.4-0.5-0.8-0.7-1.3c-0.1-0.2-0.2-0.4-0.3-0.6
						c-0.1-0.1-0.5-0.9-0.1-0.2c-0.5-0.8-0.7-1.9-0.9-2.7c-0.1-0.5-0.2-0.9-0.3-1.4c-0.1-0.5,0.1,0.8,0,0c0-0.3,0-0.5-0.1-0.8
						c0-1,0-1.9,0.1-2.8c0-0.9-0.1,0.7,0-0.1c0-0.2,0-0.3,0.1-0.5c0.1-0.5,0.2-1,0.3-1.5c0.1-0.4,0.2-0.8,0.4-1.2
						c0.1-0.2,0.2-0.5,0.3-0.7c-0.3,0.5,0,0.1,0.1-0.2c0.4-0.9,0.9-1.7,1.4-2.5c0.1-0.1,0.2-0.3,0.3-0.4c0.5-0.7-0.4,0.5,0.1-0.2
						c0.4-0.4,0.7-0.8,1.1-1.2c0.2-0.2,0.4-0.4,0.6-0.6c4.2-4.2,8.3-8.3,12.5-12.5c6.6-6.6,13.2-13.2,19.7-19.7
						c5.3-5.3,10.6-10.6,16-16c3.2-3.2,6.4-6.4,9.5-9.5c0.9-0.9,1.8-1.8,2.7-2.7c0.8-0.8,1.2-2.1,0.8-3.2c-0.5-1.3-0.9-2.7-1.3-4.1
						c-0.3-1.3-0.8-2.8-0.8-4.2c0,0.1,0.1,0.8,0,0.1c0-0.2,0-0.3-0.1-0.5c0-0.3-0.1-0.6-0.1-1c-0.1-0.7-0.1-1.5-0.1-2.2
						c0-1.4,0-2.8,0-4.1c0-0.7,0.1-1.4,0.2-2.1c0-0.1,0.1-1.2,0.1-0.7c-0.1,0.6,0-0.2,0-0.3c0-0.2,0.1-0.4,0.1-0.6
						c0.2-1.4,0.5-2.8,0.9-4.2c0.4-1.3,0.8-2.7,1.3-4c0.1-0.3,0.2-0.6,0.4-0.9c-0.4,0.7,0.1-0.1,0.2-0.3c0.3-0.7,0.6-1.3,1-2
						c0.7-1.3,1.4-2.6,2.2-3.8c0.4-0.6,0.8-1.2,1.2-1.8c0.1-0.2,0.7-1,0.3-0.3c0.2-0.3,0.5-0.7,0.8-1c1.9-2.3,4.1-4.4,6.4-6.2
						c0.5-0.4,0,0,0,0c0.2-0.1,0.3-0.3,0.5-0.4c0.3-0.2,0.6-0.4,0.8-0.6c0.6-0.4,1.3-0.9,1.9-1.3c1.3-0.8,2.6-1.5,3.9-2.1
						c0.3-0.1,0.6-0.3,0.9-0.4c0.1-0.1,0.3-0.1,0.5-0.2c0.2-0.1,0.4-0.3-0.1,0c0.6-0.4,1.5-0.6,2.1-0.8c1.3-0.5,2.7-0.9,4.1-1.2
						c0.8-0.2,1.6-0.4,2.5-0.5c0.4-0.1,0.8-0.1,1.2-0.2c0.2,0,0.6-0.1-0.1,0c0.2,0,0.4,0,0.6-0.1c1.6-0.2,3.2-0.3,4.9-0.3
						c1.6,0,3.2,0.1,4.7,0.3c0.2,0,0.3,0,0.5,0.1c-0.9-0.2,0,0,0.1,0c0.4,0.1,0.8,0.1,1.2,0.2c0.8,0.1,1.6,0.3,2.5,0.5
						c-0.5-1.8-1-3.7-1.4-5.5c-4.1,4.1-8.2,8.2-12.3,12.3c-1.9,1.9-3.7,3.7-5.6,5.6c-3.8,3.8-6.5,8.7-7.3,14.1
						c-1.1,7.2,0.8,14.4,5.4,20.1c0.2,0.3,0.5,0.6,0.7,0.9c0.1,0.1,0.2,0.3,0.4,0.4c0.1,0.1,0.1,0.1,0.2,0.2c0.2,0.3,0.3,0.3,0,0
						c0-0.1-0.1-0.1-0.2-0.2c0.2,0.3,0.4,0.5,0.6,0.8c0.2,0.2,0.3,0.3,0.5,0.5c0.3,0.3,0.7,0.6,1.1,0.9c1.4,1.2,2.9,2.2,4.6,3.1
						c3.2,1.6,6.6,2.6,10.1,2.8c6.8,0.5,13.6-2,18.7-6.6c1.6-1.4,3-3,4.5-4.5c4.6-4.6,9.2-9.2,13.9-13.9c0.1-0.1,0.2-0.2,0.3-0.3
						c1.2-1.2,1.3-3.5,0-4.7C165.7,3.8,163.6,3.7,162.3,5z"/>
					<path d="M35.8,106.3C35.3,106.8,36.3,106.1,35.8,106.3c-0.2,0.1-0.3,0.2-0.4,0.3c0.4-0.2,0.5-0.2,0.3-0.1
						c-0.2,0.1-0.4,0.1-0.6,0.2c-0.2,0-0.1,0,0.3,0c-0.1,0-0.3,0-0.4,0c-0.6,0,0.6,0.2,0,0c-0.1,0-0.6-0.1-0.6-0.2
						c0.4,0.2,0.5,0.2,0.3,0.1c-0.1,0-0.2-0.1-0.3-0.2c-0.2-0.2-0.2-0.2,0,0s0.2,0.1,0,0c-0.2-0.3-0.2-0.2,0.1,0.1
						c0-0.1-0.1-0.1-0.1-0.2c-0.1-0.1-0.2-0.3-0.2-0.4c0,0.1,0.1,0.2,0.1,0.4c-0.1-0.1-0.1-0.5-0.2-0.6c-0.2-0.6,0,0.7,0-0.1
						c0-0.8-0.1,0.3,0,0c0-0.1,0.1-0.7,0.2-0.7c0,0.1-0.1,0.2-0.1,0.4c0.1-0.1,0.1-0.3,0.2-0.4c0-0.1,0.1-0.1,0.1-0.2
						c-0.3,0.4-0.3,0.4-0.1,0.1c0.2-0.2,0.2-0.2,0,0c-0.2,0.1-0.2,0.1,0,0c0.1-0.1,0.2-0.1,0.3-0.2c0.2-0.1,0.1-0.1-0.3,0.1
						c0.1-0.1,0.5-0.1,0.6-0.2c0.6-0.2-0.6,0,0,0c0.1,0,0.3,0,0.4,0c-0.5-0.1-0.6-0.1-0.3,0c0.2,0.1,0.4,0.1,0.6,0.2
						c0.2,0.1,0.1,0-0.3-0.1c0.1,0,0.2,0.1,0.3,0.2c0.7,0.4-0.3-0.3,0.1,0.1s-0.3-0.5,0.1,0c0,0.1,0.1,0.1,0.1,0.2
						c0.2,0.3,0.1,0.3,0-0.2c0,0.2,0.1,0.5,0.2,0.6c0.2,0.6,0-0.7,0,0c-0.1,0.9,0,0,0,0c0,0-0.1,0.6-0.2,0.6
						c-0.1,0.6,0.3-0.6-0.1,0.1C35.5,106.9,36.2,105.9,35.8,106.3c-1.2,1.3-1.3,3.4,0,4.7c1.3,1.2,3.4,1.3,4.7,0
						c2.3-2.5,2.8-5.9,1.4-8.9c-1.3-2.7-4.4-4.4-7.3-4.2c-3.3,0.2-6.2,2.5-7,5.7c-0.8,3.2,0.5,6.5,3.2,8.4c3,2.1,7.1,1.5,9.7-1
						c1.3-1.2,1.3-3.5,0-4.7C39.1,105.1,37.1,105.1,35.8,106.3z"/>
				</g>
			</g>
			<g>
				<g>
					<path d="M53.6,91.6c1.4-1.4,2.8-2.8,4.2-4.2c3.4-3.4,6.8-6.8,10.2-10.2c4.1-4.1,8.2-8.2,12.3-12.3c3.5-3.5,7.1-7.1,10.6-10.6
						c1.7-1.7,3.5-3.4,5.2-5.2c0,0,0,0,0.1-0.1c1.2-1.2,1.3-3.5,0-4.7s-3.4-1.3-4.7,0c-1.4,1.4-2.8,2.8-4.2,4.2
						C84,52,80.6,55.3,77.2,58.7C73.1,62.8,69,66.9,64.9,71c-3.5,3.5-7.1,7.1-10.6,10.6c-1.7,1.7-3.5,3.4-5.2,5.2c0,0,0,0-0.1,0.1
						c-1.2,1.2-1.3,3.5,0,4.7C50.3,92.8,52.3,92.9,53.6,91.6L53.6,91.6z"/>
				</g>
			</g>
		</g>
	</g>
</g>
<g class="st0">
	<title>Artboard 11</title>
	<g class="st1">
		<path d="M159.1,34.7h-8.3c-1.7-7.6-4.6-14.7-8.8-21.3l5.8-5.8c1.4-1.4,1.4-3.4,0-4.7l0,0l-14.4-14.4c-1.4-1.4-3.4-1.4-4.7,0l0,0
			l-5.8,5.8c-6.4-4.2-13.7-7.3-21.3-8.8v-8.3c0-1.9-1.5-3.4-3.4-3.4l0,0H77.8c-1.9,0-3.4,1.5-3.4,3.4v0.2v8.3
			c-7.6,1.7-14.7,4.6-21.3,8.8l-5.8-5.9c-1.4-1.4-3.4-1.4-4.7,0l0,0L28.2,2.9c-1.4,1.4-1.4,3.4,0,4.7l0,0l5.8,5.8
			c-4.2,6.4-7.3,13.7-8.8,21.3h-8.3c-1.9,0-3.4,1.5-3.4,3.4l0,0v20.3c0,1.9,1.5,3.4,3.4,3.4h0.2h8.3c1.7,7.6,4.6,14.7,8.8,21.3
			L28.2,89c-1.4,1.4-1.4,3.4,0,4.7l0,0l14.4,14.4c1.4,1.4,3.4,1.4,4.7,0l0,0l5.8-5.7c6.4,4.2,13.7,7.3,21.3,8.8v8.3
			c0,1.9,1.5,3.4,3.4,3.4l0,0h20.3c1.9,0,3.4-1.5,3.4-3.4v0v-8.3c7.6-1.7,14.7-4.6,21.3-8.8l5.7,5.8c1.4,1.4,3.4,1.4,4.7,0l0,0
			l14.4-14.4c1.4-1.4,1.4-3.4,0-4.7l0,0l-5.7-5.8c4.2-6.4,7.3-13.7,8.8-21.3h8.4c1.9,0,3.4-1.5,3.4-3.4l0,0V38.1
			C162.5,36.3,161,34.7,159.1,34.7L159.1,34.7z M155.7,55.1h-7.4c-1.7,0-3,1.2-3.4,2.9c-1.4,8.6-4.7,16.6-9.8,23.7
			c-1,1.4-0.8,3.2,0.3,4.4l5.4,5.4l-9.7,9.7l-5.4-5.4c-1.2-1.2-3-1.4-4.4-0.3c-7.1,5.1-15.2,8.5-23.7,9.8c-1.7,0.3-2.9,1.7-2.9,3.4
			v7.5H81.2v-7.4c0-1.7-1.2-3-2.9-3.4c-8.7-1.4-16.6-4.7-23.8-9.8c-1.4-1-3.2-0.8-4.4,0.3l-5.4,5.4L35,91.5l5.4-5.4
			c1.2-1.2,1.4-3,0.3-4.4c-5.1-7.1-8.5-15.2-9.8-23.7c-0.3-1.7-1.7-2.9-3.4-2.9h-7.3V41.5h7.4c1.7,0,3-1.2,3.4-2.9
			c1.4-8.7,4.7-16.6,9.8-23.8c1-1.4,0.8-3.2-0.3-4.4L35.2,5l9.7-9.7l5.4,5.4c1.2,1.2,3,1.4,4.4,0.3C61.8-4,69.9-7.4,78.3-8.8
			c1.7-0.3,2.9-1.7,2.9-3.4v-7.3h13.5v6.8c0,1.7,1.2,3.1,2.9,3.4c8.7,1.4,16.6,4.8,23.8,9.9c1.4,1,3.2,0.9,4.4-0.3l5.4-5.5l9.7,9.8
			l-5.4,5.5c-1.2,1.2-1.4,3.1-0.3,4.5c5.1,7.2,8.5,15.4,9.8,24c0.3,1.7,1.7,2.9,3.4,2.9h7.3V55.1z"/>
		<path d="M87.5,0.9C61.2,0.9,40.1,22,40.1,48.3s21.2,47.4,47.4,47.4s47.4-21.2,47.4-47.4S113.7,0.9,87.5,0.9z M81.2,88.2V69.6
			c0-1.4-0.7-2.5-1.9-3c-10.4-4.7-14.8-16.8-9.9-26.9c1.2-2.5,3-4.7,5-6.4v13.4c0,3.7,3,6.8,6.8,6.8h13.5c3.7,0,6.8-3,6.8-6.8V33.2
			c8.5,7.5,9.4,20.1,1.7,28.4c-1.9,2-4.2,3.7-6.6,4.9c-1.2,0.5-1.9,1.7-1.9,3v18.6C90.1,89.1,85.5,89.1,81.2,88.2z M101.5,86.5V71.6
			c12.9-7.5,17.4-23.9,10-36.7c-2.7-4.7-6.9-8.6-11.9-11C98,23,96,23.7,95.1,25.4c-0.2,0.5-0.3,1-0.3,1.5v19.6H81.2V26.9
			c0-1.9-1.5-3.4-3.4-3.4c-0.5,0-1,0.2-1.5,0.3C62.8,30.2,57,46.2,63.4,59.8c2.4,5.1,6.3,9.1,11,11.9v14.9
			c-21.9-7.7-32.9-32.3-23.9-54C58.4,13.9,79.2,3.8,98.7,9.1c23,6.3,35.3,30.6,27.5,52.7C122.2,73.3,113.1,82.5,101.5,86.5z"/>
	</g>
</g>
<g>
	<g>
		<path d="M161.8,83.1c-0.4-8.9-7.5-16-16.4-16c-8.3,0-15.2,6.5-16.2,15.3H91V44h6.5c1.2-1,2-1.8,1.6-3V28.9
			c0.4-1.2-1.6-3.1-1.6-3.1H93v-6.2c0-3.2-2.5-6-5.9-6H74.6c-3.1,0-5.9,2.6-5.9,6v6.2h-4.4c0,0-2,1.9-1.6,3.1v12.1
			c-0.4,1.2,0.4,2,1.6,3h6.5v38.4h-38c-1-9.1-7.9-15.3-16.2-15.3c-8.9,0-16,7.1-16.4,16c0,0.2-0.2,0.4-0.2,0.6c0,1.2,0.8,2,2,2.8
			h71.4h15H160c1.2-0.8,2-1.6,2-2.8C162,83.5,162,83.3,161.8,83.1z M145.6,72c6.1,0,11.1,4.7,12.1,10.5h-24.3
			C134.3,76.6,139.3,72,145.6,72z M72.6,19.8c0-1,0.8-2,2-2H87c1,0,1.9,0.8,1.9,2v6.1H72.8v-6.1H72.6z M66.5,31.9h4h20.5h4V40h-6.8
			H73.5h-6.8v-8.1H66.5z M16.6,72c6.1,0,11.1,4.7,12.1,10.5H4.4C5.5,76.6,10.5,72,16.6,72z M76.9,82.5V44H87v38.4H76.9z"/>
		<path d="M50.4,9.3c0.4,0.4,1,0.6,1.4,0.6c0.6,0,1-0.2,1.4-0.6c0.8-0.8,0.8-2,0-2.8l-5.7-5.9c-0.8-0.8-2-0.8-2.8,0
			c-0.8,0.8-0.8,2,0,2.8L50.4,9.3z"/>
		<path d="M34.4,20.2l7.5,1.6c0.2,0,0.2,0,0.4,0c1,0,1.8-0.6,2-1.6s-0.4-2.2-1.6-2.4l-7.5-1.6c-1-0.2-2.2,0.4-2.4,1.6
			C32.6,19,33.4,20,34.4,20.2z"/>
		<path d="M34.8,42c0.2,0,0.2,0,0.4,0l7.5-1.6c1-0.2,1.8-1.2,1.6-2.4c-0.2-1-1.2-1.8-2.4-1.6L34.4,38c-1,0.2-1.8,1.2-1.6,2.4
			C33.2,41.4,34,42,34.8,42z"/>
		<path d="M49.3,49.6l-4.7,4.9c-0.8,0.8-0.8,2,0,2.8c0.4,0.4,0.8,0.6,1.4,0.6s1-0.2,1.4-0.6l4.7-4.9c0.8-0.8,0.8-2,0-2.8
			C51.4,48.7,50.2,48.7,49.3,49.6z"/>
		<path d="M112.4,9.9c0.6,0,1-0.2,1.4-0.6l5.7-5.9c0.8-0.8,0.8-2,0-2.8s-2-0.8-2.8,0L111,6.5c-0.8,0.8-0.8,2,0,2.8
			C111.4,9.7,111.8,9.9,112.4,9.9z"/>
		<path d="M120.1,20.2c0.2,1,1,1.6,2,1.6c0.2,0,0.2,0,0.4,0l7.5-1.6c1-0.2,1.8-1.2,1.6-2.4c-0.2-1-1.2-1.8-2.4-1.6l-7.7,1.6
			C120.5,18,119.7,19,120.1,20.2z"/>
		<path d="M121.6,40.4L129,42c0.2,0,0.2,0,0.4,0c1,0,1.8-0.6,2-1.6s-0.4-2.2-1.6-2.4l-7.5-1.6c-1-0.2-2.2,0.4-2.4,1.6
			C119.7,39,120.5,40,121.6,40.4z"/>
		<path d="M114.9,49.6c-0.8-0.8-2-0.8-2.8,0c-0.8,0.8-0.8,2,0,2.8l4.7,4.9c0.4,0.4,1,0.6,1.4,0.6c0.6,0,1-0.2,1.4-0.6
			c0.8-0.8,0.8-2,0-2.8L114.9,49.6z"/>
	</g>
</g>
<g class="st0">
	<title>a</title>
	<g class="st1">
		<circle cx="79.4" cy="101.4" r="7.7"/>
		<path d="M209.4,81.5V70.8c0-1.1-0.4-1.9-1.1-2.7L189.2,49c-0.8-0.8-1.5-1.1-2.7-1.1h-57.4V9.6c0-4.2-3.4-7.7-7.7-7.7H83.2
			c-4.2,0-7.7,3.4-7.7,7.7v26.8H12c-2.3,0-4.2,0.8-5.7,2.7C2.8,42.5-1,51.3-1,70.8v26.8c0,4.2,3.4,7.7,7.7,7.7h4.2
			c1.9,12.6,13.8,21,26.4,18.7c9.6-1.5,17.2-9.2,18.7-18.7h0.8c1.9,12.6,13.8,21,26.4,18.7c9.6-1.5,17.2-9.2,18.7-18.7h2.7
			c1.9,0,3.8-0.8,5.4-2.3l16.8-16.8c1.5-1.5,2.3-3.4,2.3-5.4v-9.9h48.2l7.7,7.7h-40.6c-4.2,0-7.7,3.4-7.7,7.7v24.5
			c0,3.1,1.5,5.7,4.2,6.9l13.4,6.5l0,0c0.4,0.4,1.1,0.4,1.5,0.4h11.5c2.3,0,3.8-1.5,3.8-3.8s-1.5-3.8-3.8-3.8h-7.7V86.1h21
			c-9.1,10.4-7.5,26.6,4.5,34.5c8.7,5.8,20.7,4.9,28.3-2.3c10.1-9.5,9.8-25.2-0.3-34.2C212.1,83.4,211,82.3,209.4,81.5z M98.5,63.1
			V24.9h23v38.3H98.5z M6.7,70.8c0-19.1,4.2-25.3,5.4-26.8h63.5v34.8C66,80.4,58.3,88,56.8,97.6h-0.4c0,0,0,0,0-0.4
			C54.1,84.6,42,76.5,29.2,78.8C19.4,80.4,12,88,10.5,97.2c0,0,0,0,0,0.4H6.7V70.8z M33.5,116.7c-8.4,0-15.3-6.9-15.3-15.3
			s6.9-15.3,15.3-15.3s15.3,6.9,15.3,15.3S41.9,116.7,33.5,116.7z M79.4,116.7c-8.4,0-15.3-6.9-15.3-15.3S71,86.1,79.4,86.1
			s15.3,6.9,15.3,15.3S87.9,116.7,79.4,116.7z M121.4,80.4l-17.2,17.2h-2.7c-1.6-9.4-9-16.8-18.3-19.1c-0.4,0,0.4,0,0,0V9.6h38.3
			v7.7h-23c-4.2,0-7.7,3.4-7.7,7.7v38.3c0,4.2,3.4,7.7,7.7,7.7h23V80.4z M178.8,63.1h-49.7v-7.7h55.9l16.8,16.8v6.1h-0.4
			c-1.1-0.4-2.3-0.4-3.4-0.4c-1.1,0-2.3,0-3.4,0.4h-0.4v-0.4c0-1.1-0.4-1.9-1.1-2.6l-11.5-11.2C180.7,63.5,180,63.1,178.8,63.1z
			 M144.4,86.1h7.7v28.3l-7.7-3.8V86.1z M198.1,116.7c-8.4,0-15.3-6.9-15.3-15.3c0-6.1,3.4-11.5,9.2-13.8l0,0
			c3.1-1.1,6.1-1.5,9.2-0.8c8.4,1.9,13.4,9.9,11.9,18.4C211.4,111.7,205.3,116.7,198.1,116.7z"/>
		<circle cx="198.1" cy="101.4" r="7.7"/>
		<circle cx="33.5" cy="101.4" r="7.7"/>
		<path d="M18.2,70.8h30.6c2.3,0,3.8-1.5,3.8-3.8c0-2.3-1.5-3.8-3.8-3.8H18.2c-2.3,0-3.8,1.5-3.8,3.8C14.4,69.3,15.9,70.8,18.2,70.8
			z"/>
		<path d="M18.2,59.3h30.6c2.3,0,3.8-1.5,3.8-3.8c0-2.3-1.5-3.8-3.8-3.8H18.2c-2.3,0-3.8,1.5-3.8,3.8C14.4,57.8,15.9,59.3,18.2,59.3
			z"/>
	</g>
</g>
<g class="st0">
	<title>015 - Tractor</title>
	<desc>Created with Sketch.</desc>
	<g class="st1">
		<g>
			<path d="M39.2,102.9c-10.3,0-18.4,8.1-18.4,18.4s8.1,18.4,18.4,18.4s18.4-8.1,18.4-18.4S49.5,102.9,39.2,102.9z M39.2,132.4
				c-6.3,0-11.1-4.8-11.1-11.1c0-6.3,4.8-11.1,11.1-11.1s11.1,4.8,11.1,11.1C50.3,127.6,45.5,132.4,39.2,132.4z"/>
			<path d="M149.8,125c-4.4,0-8.5,2.6-10.3,7c-1.8,4.1-0.7,8.8,2.6,12.2c3.3,3.3,8.1,4.1,12.2,2.6c4.1-1.8,7-5.9,7-10.3
				C160.9,130.2,156.1,125,149.8,125z M149.8,139.7c-2.2,0-3.7-1.8-3.7-3.7c0-2.2,1.8-3.7,3.7-3.7c2.2,0,3.7,1.8,3.7,3.7
				C153.5,138.3,152,139.7,149.8,139.7z"/>
			<path d="M56.2,159.3c10.7-4.8,18.8-14.4,22.1-25.8h46.1c-1.5,10.3,3.3,20.6,12.2,25.8 M163.3,158.2c7.4-4.4,12.2-12.5,12.5-21.4
				s-3.7-17-11.1-22.1V85.2c0-1.8-1.5-3.3-3.3-3.7l-22.1-2.6l10-52.3h37.6h16.6c1.1,0,1.8-0.4,2.6-1.1l12.9-12.9
				c1.4-1.4,1.4-3.7,0-5.2l-31.3-31.3c-1.4-1.4-3.7-1.4-5.2,0L169.5-11c-0.7,0.7-1.1,1.5-1.1,2.6V8.1c0,1.1,0.4,1.8,1.1,2.6l8.5,8.5
				h-30.2l-7.4-7.4h16.8c0,0,3.7-2.6,3.7-4.8s-1.5-3.7-3.7-2.6h-25.8c-0.4-1.1-0.7-1.1-1.5-0.7c0,0-0.4,0-0.4,0.4
				c-0.4,0-0.7,0.4-1.7,0.4l0,0v0.4c0.5,0.4,0.5,0.4,0.5,0.7l3.1,0.4v0.4l-17.1,68.9l-12.3-1.5V30.3c0-2-1.7-3.7-3.7-3.7H32
				c-2.2,0-3.7,1.5-3.7,3.7s1.5,3.7,3.7,3.7h3.7v33.2H32c-2.2,0-3.7,1.5-3.7,3.7s1.5,3.7,3.7,3.7h3.7v6.6
				C17.3,82.6,2.5,96.6-0.4,114.7s6.3,35.8,22.9,43.5 M175.8-7l9.2-9.2L211.2,10l-9.2,9.2h-13.6L175.8,6.7V-7z M94.7,78.2v14.7h-5.5
				c-4.4-8.5-11.8-15.9-20.3-20.3V33.9h25.8V78.2z M43.1,33.9h18.4v35.4c-4.8-1.5-9.6-2.2-14.7-2.2h-3.7V33.9z M46.8,74.5
				c5.9,0,11.4,1.1,17,3.7c8.8,4.1,15.9,11.1,19.9,19.9c2.6,5.2,3.7,11.1,3.7,17v11.1l-7.4,0c-0.1-0.1-0.1-0.1-0.1-0.2
				c1.9-22.6-14.5-41.8-36.7-43.7v-7.7H46.8z M39.2,154.5c-14,0-26.5-8.8-31.3-22.1s-0.7-28,10.3-36.9c10.7-8.8,26.2-10,38-2.6
				c11.8,7.4,18.1,21.4,15.5,35C68.7,143.4,55.1,154.5,39.2,154.5z M168.2,136c0,10.3-8.1,18.4-18.4,18.4
				c-10.3,0-18.4-8.1-18.4-18.4s8.1-18.4,18.4-18.4C160.1,117.6,168.2,125.7,168.2,136z M157.4,112.5c-12.2-3.7-25.1,2.2-30.6,13.6
				H94.7V115c0-5.2-0.7-10-2.2-14.7h5.9c0,0,0,0,0.4,0s0,0,0,0l47.2,3.7h0.4c2.2,0,3.7-1.5,3.7-3.7c0-2.2-1.5-3.7-3.7-3.7l-44.2-3.3
				V82.6l55.3,6.6V112.5z M121.4,76l12.2-61.6l8.5,8.5l-10.3,54.2L121.4,76z"/>
		</g>
	</g>
</g>
<g class="st0">
	<path class="st1" d="M192.3-18L-0.8,119.6c-2,1.4-2.4,3.7-1,5.7l0,0L22,158.6c1.4,2,3.7,2.4,5.7,1l0,0L220.8,22
		c2-1.4,2.4-3.7,1-5.7l0,0L198-17C196.6-19,194.3-19.4,192.3-18L192.3-18z M199.4,27.2l-11.7,8.3c1.5-12.6-6.5-24-19-26.6l11.7-8.3
		L199.4,27.2z M42.2,120.1c-5.2-7.3-3.5-17.6,3.8-22.8c7.3-5.2,17.6-3.5,22.8,3.8c5.2,7.3,3.5,17.6-3.8,22.8
		C57.7,129.1,47.5,127.4,42.2,120.1z M62.2,84.7l21.6-15.4l7.1,10c1.4,2,3.7,2.4,5.7,1l0,0l26.6-19c2-1.4,2.4-3.7,1-5.7l0,0l-7.1-10
		l21.6-15.4c-1.5,12.6,6.5,24,19,26.6l-76.6,54.6C82.4,99,74.3,87.7,62.2,84.7z M148.8,44.2c-5.2-7.3-3.5-17.6,3.8-22.8
		c7.3-5.2,17.6-3.5,22.8,3.8s3.5,17.6-3.8,22.8C164.3,53.2,154,51.5,148.8,44.2z M110.5,50.3l4.7,6.7l-20,14.2l-4.7-6.7L110.5,50.3z
		 M7.3,123.9l6.7-4.7l19,26.6l-6.7,4.7L7.3,123.9z M20.6,114.4l11.7-8.3c-1.5,12.6,6.5,24,19,26.6L39.6,141L20.6,114.4z M212.7,17.7
		l-6.7,4.7l-19-26.6l6.7-4.7L212.7,17.7z"/>
	<path class="st1" d="M47.5,120.4l20-14.2c2-1.4,2.4-3.7,1-5.7c-1.4-2-3.7-2.4-5.7-1l-20,14.2c-2,1.4-2.4,3.7-1,5.7
		C43.2,121.4,45.5,121.8,47.5,120.4z"/>
	<path class="st1" d="M154,44.4l20-14.2c2-1.4,2.4-3.7,1-5.7s-3.7-2.4-5.7-1l-20,14.2c-2,1.4-2.4,3.7-1,5.7S152,45.9,154,44.4z"/>
</g>
<g class="st0">
	<path class="st1" d="M192.2-37.6L163-3.6v31.6h-23.9V-3.6l-29.2-34l-29.2,34v31.6H57V-3.6l-29.2-34l-29.2,34v182.7H57V142h23.9
		v37.1h58.4V142H163v37.1h58.4V-3.6L192.2-37.6z M49,173.8H3.9V142H49v31.7V173.8z M49,136.7H3.9V35.9H49v99.9V136.7z M49,27.9H3.9
		V-1.5l22.5-27.1L49-1.5v29.9V27.9z M80.8,136.7H57V35.9h23.9V136.7z M133.6,173.8H86.1V142h47.7v31.8H133.6z M133.6,136.7H86.1
		V35.9h47.7v100.8H133.6z M133.6,27.9H86.1V-1.5L110-28.6l23.9,27.1v29.4H133.6z M163,136.7h-23.9V35.9H163V136.7z M213.4,173.8
		h-45.1V142h45.1v31.7V173.8z M213.4,136.7h-45.1V35.9h45.1v99.9V136.7z M215.8,27.9h-47.5V-1.5l23.9-27.1l23.9,27.1v29.4H215.8z"/>
</g>
</svg>
