<?xml version="1.0" encoding="utf-8"?>
<!-- Generator: Adobe Illustrator 23.0.4, SVG Export Plug-In . SVG Version: 6.00 Build 0)  -->
<svg version="1.1" id="Layer_1" xmlns="http://www.w3.org/2000/svg" xmlns:xlink="http://www.w3.org/1999/xlink" x="0px" y="0px"
	 viewBox="0 0 180.6 169.3" style="enable-background:new 0 0 180.6 169.3;" xml:space="preserve">
<style type="text/css">
	.st0{display:none;}
	.st1{display:inline;}
</style>
<g class="st0">
	<g class="st1">
		<path d="M-12.3,143.3l204.3,0c2.4,0,4.6-1.4,5.4-3.6c1.2-3.7-1.6-7.2-5.1-7.2h-11.9c3.5-12.1,8.6-26.4,16.2-37c0,0,0-0.3,0.3-0.3
			v-0.9c0,0-0.5-1.9-0.5-3c0-3-2.4-5.4-5.4-5.4c-0.8,0-1.6,0.3-2.2,0.5c-1.3,0.5-15.9,7-30,20c-2.2-7.8-4.3-18.1-5.4-30
			c-0.3-2.2-1.9-4.3-4-4.9c-2.2-0.5-4.6,0.3-5.9,2.2c-0.3,0.5-6.2,9.4-12.4,22.1c-5.1-22.4-1.9-48-1.6-48.3c0.3-2.7-1.1-5.1-3.5-5.9
			c-2.4-0.8-5.1,0.3-6.5,2.4l-40.5,71c-4.6-39.4,6.7-85.3,7-85.8c0.5-2.4-0.5-4.9-2.7-6.2c-2.2-1.1-4.9-0.5-6.5,1.3
			c-15.9,18.9-25.4,42.4-31,63.1c-5.7-15.1-10.3-24-10.5-24.6c-1.3-2.4-4-3.5-6.5-2.7s-4,3.5-3.5,6.2c1.1,5.4,1.3,20.5,1.1,42.4
			C16.6,93.5,8,82.7,7.4,82.2c-1.6-2.2-4.6-2.7-7-1.3s-3.2,4.3-2.2,6.7c7.8,17.8,8.9,32.9,8.1,44.9H-12c-3-1.5-5.4,1-5.4,3.9
			C-17.4,139.4-12.3,143.3-12.3,143.3z M176.9,106.6c-3.8,8.9-6.7,17.8-8.9,25.9h-16.7c2.4-4,5.4-7.8,8.9-11.3l0.3-0.3
			C165.8,114.9,171.8,110.3,176.9,106.6z M144.8,93.9c1.6,8.6,3.5,16.2,5.4,22.1c-4.6,5.1-8.4,10.5-11.3,16.5h-8.6
			c1.1-5.7,2.7-11.6,5.4-18.1C138.3,106.6,141.8,99.5,144.8,93.9z M124.5,112.5c-2.7,7-4.3,13.8-5.4,20h-37l35.1-61.8
			C117.5,83.3,119.1,99.3,124.5,112.5z M70.6,131.4l-0.5,1.1H58.4c-1.6-7.8-3.8-15.9-6.2-23.7c3-15.7,8.4-35.6,18.1-54.2
			C67.1,75.5,64.6,105.7,70.6,131.4z M41.4,110.3L41.4,110.3c2.2,7.6,4,14.8,5.7,22.1h-8.4c-0.8-1.6-1.6-3-2.4-4.3
			c0.3-10,0.5-20.8,0.5-31C38.5,101.2,39.8,105.5,41.4,110.3z M16.6,115.5c3.3,5.3,6.7,10.8,10,17c0,0,0,0,0,0l-9.4,0
			C17.4,127.6,17.4,121.9,16.6,115.5z"/>
	</g>
</g>
<g class="st0">
	<path class="st1" d="M37.3,165.2c1,1,1.5,2.2,1.5,3.4s-0.5,2.4-1.5,3.4c-1,1-2.2,1.5-3.4,1.5c-0.7,0-1.2-0.2-1.9-0.5
		c-0.5-0.2-1.2-0.5-1.5-1c-1-1-1.5-2.2-1.5-3.4s0.5-2.4,1.5-3.4c1.2-1.2,2.9-1.7,4.4-1.5c0.2,0,0.5,0.2,1,0.2
		c0.2,0.2,0.5,0.2,0.7,0.5C36.8,164.7,37.1,165,37.3,165.2z M185,176.4c-0.2-0.2-0.2-0.5-0.5-0.7c-0.2-0.2-0.5-0.5-0.5-0.7
		c-1.2-1.2-3-1.7-4.5-1.5c-0.2,0-0.7,0.2-1,0.2c-0.2,0.2-0.5,0.2-0.7,0.5c-0.2,0.2-0.5,0.5-0.7,0.5c-0.2,0.2-0.5,0.5-0.5,0.7
		c-0.2,0.2-0.2,0.5-0.5,0.7c-0.2,0.2-0.2,0.5-0.2,1c0,0.2,0,0.7,0,1c0,1.2,0.5,2.5,1.5,3.5c0.7,1.2,2,1.7,3.2,1.7
		c0.7,0,1.2-0.2,2-0.5c0.5-0.2,1.2-0.5,1.5-1c1-1,1.5-2.2,1.5-3.5c0-0.2,0-0.7,0-1C185.3,177.1,185.3,176.6,185,176.4z M204.4,184.5
		c-2.2,9.4-10,16.9-19.6,18.4c-9.7,1.6-18.4-2.6-23.5-9.4H58.6c-6.7,6.7-16.3,10.4-26.6,9.6c-16.4-1.3-29.7-14.5-31.2-30.9
		c-1.6-18.1,11-33.8,28.1-36.6L7,17.5c-0.5-2.2-2.4-3.9-4.9-3.9l-10.9,0c-2.1,0-4.2-1.2-4.8-3.2C-14.7,7-12.2,3.8-9,3.8H2.4
		c7.1,0,12.9,4.9,14.3,11.7l22.1,119.9c1.5,0.2,2.7,0.5,4.1,0.7l50.1,6.8v-15.1h-7.3c-2.7,0-4.9-2.2-4.9-4.9v-4.9
		c0-13.4,10.9-24.3,24.3-24.3h14.6c13.4,0,24.3,10.9,24.3,24.3v4.9c0,2.7-2.2,4.9-4.9,4.9H132V148l49.1,6.6
		C196.1,154.9,207.9,169,204.4,184.5z M133.6,118.1c0-8-6.6-14.6-14.6-14.6h-14.6c-8,0-14.6,6.6-14.6,14.6H133.6z M102.9,127.9v16.3
		l19.5,2.7v-19H102.9z M58.2,168.6c0-11.2-7.5-20.4-17.8-23.3l-6.8-1c-13.4,0.2-24.1,10.9-24.1,24.3s10.9,24.3,24.3,24.3
		S58.2,182,58.2,168.6z M162.3,162.2L60.9,148.5c4.4,5.8,7.1,12.9,7.1,20.7c0,5.4-1.2,10.2-3.4,14.6H156c-0.2-1.7-0.5-3.2-0.5-4.9
		C155.5,172.4,158.2,166.5,162.3,162.2z M194.4,178.4c0-8-6.6-14.6-14.6-14.6c-8,0-14.6,6.6-14.6,14.6s6.6,14.6,14.6,14.6
		C187.9,192.9,194.4,186.4,194.4,178.4z"/>
</g>
<g>
	<path d="M10.7,148.4c4.2,0.4,7.7-1.1,10.4-4.1c4.2,5.1,11.8,5.7,16.9,1.2c0.6-0.3,0.9-0.9,1.2-1.2c4.2,5.1,11.8,5.7,16.9,1.2
		c0.6-0.3,0.9-0.9,1.2-1.2c4.2,5.1,11.8,5.7,16.9,1.2c0.6-0.3,0.9-0.9,1.2-1.2c4.2,5.1,11.8,5.7,16.9,1.2c0.6-0.3,0.9-0.9,1.2-1.2
		c4.2,5.1,11.8,5.7,16.9,1.2c2.4-2.1,3.9-4.8,4.2-8.1l31,31c1.1,1.1,2.3,1.2,5.5,0.2c10.6-3.4,17.7-13.4,17.7-24.6l0-46.7h3
		c1.7,0,3-1.3,3-3V82.1v-0.3v-0.3l-6-36.2c-0.3-1.5-1.5-2.4-3-2.4h-18.1c-1.5,0-2.7,1.2-3,2.4l-6,36.2v0.3v0.3v12.1c0,1.7,1.3,3,3,3
		h3v38l-30.1-30.1l0-59.3c0-6.3-5.1-12.2-11.3-12.6c-3.9-0.2-7.5,1.3-9.8,4.2c-4.2-5.1-11.8-5.7-16.9-1.2c-0.6,0.3-0.9,0.9-1.2,1.2
		c-4.2-5.1-11.8-5.7-16.9-1.2c-0.6,0.3-0.9,0.9-1.2,1.2c-4.2-5.1-11.8-5.7-16.9-1.2c-0.6,0.3-0.9,0.9-1.2,1.2
		c-4.2-5.1-11.8-5.7-16.9-1.2c-0.6,0.3-0.9,0.9-1.2,1.2C16.9,32.3,9,31.6,4.2,36.2c-2.7,2.1-4.2,5.4-4.2,9L0,136
		C0,141.9,4.8,147.8,10.7,148.4z M168.8,91.2h-24.1v-6h24.1V91.2z M149.8,49h13l5.1,30.1H145L149.8,49z M162.8,97.2v51.2
		c0,7.2-5.1,13.3-12.1,14.8v-66H162.8z M144.7,142.9v15.7l-30.1-30.1v-15.7L144.7,142.9z M108.5,45.5c0,14.5,0,75.4,0,89.8
		c0,2.6-1.5,5.2-4,6c-4.2,1.4-8-1.7-8-5.7V45.2c0-4,3.9-7.1,8-5.7C107,40.3,108.5,42.9,108.5,45.5z M90.4,45.5c0,14.5,0,75.4,0,89.8
		c0,2.6-1.5,5.2-4,6c-4.2,1.4-8-1.7-8-5.7V45.2c0-4,3.9-7.1,8-5.7C88.9,40.3,90.4,42.9,90.4,45.5z M72.3,45.5c0,14.5,0,75.4,0,89.8
		c0,2.6-1.5,5.2-4,6c-4.2,1.4-8-1.7-8-5.7V45.2c0-4,3.9-7.1,8-5.7C70.8,40.3,72.3,42.9,72.3,45.5z M54.3,45.5c0,14.5,0,75.4,0,89.8
		c0,2.6-1.5,5.2-4,6c-4.2,1.4-8-1.7-8-5.7V45.2c0-4,3.9-7.1,8-5.7C52.7,40.3,54.3,42.9,54.3,45.5z M36.2,45.5c0,14.5,0,75.4,0,89.8
		c0,2.6-1.5,5.2-4,6c-4.2,1.4-8-1.7-8-5.7V45.2c0-4,3.9-7.1,8-5.7C34.6,40.3,36.2,42.9,36.2,45.5z M6,45.2c0-4,3.9-7.1,8-5.7
		c2.5,0.8,4,3.4,4,6c0,14.5,0,75.4,0,89.8c0,2.6-1.5,5.2-4,6c-4.2,1.4-8-1.7-8-5.7V45.2z"/>
	<path d="M156.7,21.1c-1.8,0-3,1.2-3,3v9c0,1.8,1.2,3,3,3s3-1.2,3-3v-9C159.7,22.3,158.5,21.1,156.7,21.1z"/>
	<path d="M159.7,3c0-1.8-1.2-3-3-3s-3,1.2-3,3v9c0,1.8,1.2,3,3,3s3-1.2,3-3V3z"/>
	<path d="M132.3,21.1c0,1.8,1.2,3,3,3c5.1,0,9,3.9,9,9c0,1.8,1.2,3,3,3s3-1.2,3-3c0-8.4-6.6-15.1-15.1-15.1
		C133.5,18.1,132.3,19.3,132.3,21.1z"/>
	<path d="M177.5,18.1c-8.4,0-15.1,6.6-15.1,15.1c0,1.8,1.2,3,3,3s3-1.2,3-3c0-5.1,3.9-9,9-9c1.8,0,3-1.2,3-3S179.4,18.1,177.5,18.1z
		"/>
</g>
<g class="st0">
	<g class="st1">
		<path d="M77.9,78.5c-4.2,3.9-4.3,10.1-0.4,14.3c3.9,4.2,10.1,4.3,14.3,0.4c4.2-3.9,4.3-10.1,0.4-14.3
			C88.3,74.8,82.1,74.6,77.9,78.5z M87.1,88.3c-1.5,1.4-3.4,1.3-4.8-0.1c-1.4-1.5-1.3-3.4,0.1-4.8c1.5-1.4,3.4-1.3,4.8,0.1
			C88.7,85,88.6,86.9,87.1,88.3z"/>
		<path d="M188.2,99.3L145,77.2l0,0c-0.2-0.2-0.7-0.3-1.2-0.3l0,0l0,0l-31.1-2.6l-0.2-0.2l-31.2-62l0,0C75.6,1,64.7-7,52.3-9
			C46-10.1,39.9-9.5,34-7.7c-1.2-0.3-1.5,0-2,0.4c-0.5,0.5-0.8,0.7-0.8,1.2c-0.5,1-0.3,2.2,0.4,2.9l42.1,64.4l-0.5,0.5l-10.6,10
			L1,25.7c-1-0.5-2.2-0.8-2.9-0.5s-1,0.5-1.5,0.9s-0.8,0.7-0.8,1.2c-2.4,6-2.9,12.1-2.4,18.2l0,0l0,0l0,0C-5.3,58,2,69.3,12.8,75.6
			l60,34.9l0.2,0.2l0.7,31.2l0,0l0,0c0,0.5,0.2,0.7,0.2,1.2l0,0l19.5,44.5c1.8,3.9,5.1,6.9,8.9,8.5c4.1,1.3,8.5,0.9,12.5-1
			c1.2-0.7,2.5-1.4,3.5-2.4c5.1-4.8,6.6-12.3,3.4-18.7l-21.5-43.1l-5.6-24.7l12.1-11.4l24.3,7.1l41.7,24c6.2,3.5,13.8,2.5,18.8-2.3
			c1-1,1.8-2.2,2.6-3.4c2.3-3.6,2.8-8.2,1.7-12.4C194.8,104.8,192,101.4,188.2,99.3z M75.4,17.6L75.4,17.6l25.2,48.8L98.3,64
			c-0.7-0.7-1.4-1.5-2.3-2c-0.2-0.2-0.5-0.5-0.7-0.3c-0.7-0.3-1.2-0.7-1.9-1c-0.2-0.2-0.2-0.2-0.7-0.3c-0.9-0.5-1.9-0.5-2.8-1
			l-0.5,0l-0.5,0l0,0c1.2-1.2,1.5-2.8,0.6-4.3L59.6,2.8C66.2,5.4,72.3,10.8,75.4,17.6z M46.5,1.5c0.5,0,1,0,1.4,0
			c1,0,1.7,0.3,2.6,0.3l31.9,55.9L80,60.1l-38.5-58C43.1,1.9,44.8,1.7,46.5,1.5z M2.9,44c0-0.5,0-1,0-1.4c0-1.4,0.3-3.1,0.6-4.7
			l55.9,41.7l-2.4,2.3L3,46.6C3,45.7,3.1,44.7,2.9,44z M116.1,178c2,4.1,0.4,9.3-3.7,11.3c-2.2,1.1-4.3,1.3-6.9,0.5
			c-2.1-0.8-4-2.3-4.9-4.7l-18.1-40.8l13.5-6.3L116.1,178z M93.7,132.1l-12.3,5.6l-1-23.1c0.7,0.3,1.4,0,2.4,0.1l0.5,0
			c0.5,0,1.2-0.2,1.7-0.2c0.2-0.2,0.5,0,0.7-0.2c0.5,0,0.7-0.2,1.4-0.4c0.2-0.2,0.7-0.2,1-0.4c0.2-0.2,0.7-0.2,1-0.4L93.7,132.1z
			 M105.6,91.4l-14.7,13.8c-2.7,2.5-7,3.4-10.5,2.1c-0.5,0-0.9-0.5-1.6-0.8L19.8,71.9c-6.5-4-11.6-9.9-14-16.8L56.2,88
			c1.2,0.7,3.1,0.8,4.3-0.3l7.3-6.9l12.2-11.5c4.1-3.8,10.4-3.6,14.3,0.4l11.5,12.2c0.5,0.5,1.4,1,2.1,1.3l3.1,0.3l0,0l27.5,2.7
			l-6.3,11.9L109,91C107.8,90.3,106.6,90.5,105.6,91.4z M187.5,113c0.6,2.2,0.3,4.8-0.9,6.9c-2.3,4-7.5,5.2-11.5,3l-38.4-22.6
			l7.1-13.1l39.6,20.5C185.3,109.1,186.9,110.8,187.5,113z"/>
	</g>
</g>
<g class="st0">
	<g class="st1">
		<g>
			<path d="M102.1,73.6c11.5-1.5,20.9-7.9,20.9-14.9c0-4.9-4.4-8.5-8.2-10.7c-5.5-3.2-11.9-4.5-18.1-4.5c4-4,7.4-9,9.2-14.4
				c1.5-4.7,2.3-11-1.3-14.9c-3.3-3.3-9-3-13.4-1.8c-6,1.7-11.7,5.2-16.1,9.7c0-8.2-2.3-17.9-8.9-23.6c-2.3-2.2-5.7-3.3-9-2.2
				c-4.2,1.5-7,5.5-8.9,9.4c-2.5,5-3.7,10.7-3.5,16.4c-4.4-4.4-9.9-7.9-15.9-9.5c-4.4-1.2-10-1.7-13.6,1.8c-3.8,3.8-3,10.2-1.3,14.9
				c1.8,5.5,5.2,10.4,9.2,14.4c-6.2,0-12.7,1.3-18.1,4.5C1.4,50.2-3,53.9-3,58.7c0,4.9,4.4,8.5,8.2,10.7c5.5,3.2,11.9,4.5,18.1,4.5
				c-4,4-7.4,9-9.2,14.4c-1.5,4.7-2.3,11,1.3,14.9c3.8,3.8,10.2,2.8,14.7,1.3c5.5-1.8,10.5-5.2,14.6-9.2c0,6.2,1.3,12.7,4.5,18.1
				c2.2,3.8,5.9,8,10.7,8s8.5-4.2,10.7-8c3.2-5.5,4.5-11.9,4.5-18.1c4,4.2,9,7.4,14.6,9.2c4.5,1.5,10.9,2.3,14.7-1.3
				c4.9-4.9,2.3-13.4-0.2-18.6c2.3,2.3,4.5,4.9,6.7,7.7c14.2,18.9,24.4,52.5-6,105.9c-2.2,3.7,3.7,7,5.9,3.3
				c10.9-18.9,16.7-35.6,19.2-50.2c6.7,2.7,14.2,3.8,21.3,1.7c5.7-1.7,9-5,14.1-9.9c7.7-7.4,15.7-14.1,24.4-20.1
				c1.8-1.2,2-4,0.2-5.4c-13.2-10.5-31.8-12.2-46-4c-5.9,3.3-9.9,7.7-12.9,12C128.2,99.2,113,82.5,102.1,73.6z M97.1,50.2
				c11.9,0,19.4,6,19.4,8.5c0,2.5-7.5,8.5-19.4,8.5c-5.2,0-9.4-1.2-12.6-2.5c1-3.8,1-7.9,0-11.9C87.7,51.4,91.9,50.2,97.1,50.2z
				 M80.2,26.6c8.7-9.5,19.1-8.2,19.6-7.5c0.5,0.7,1.8,9.4-7.5,19.6c-3.5,3.7-7.4,5.9-10.7,7c-2-3.3-5-6.4-8.4-8.4
				C74.3,34,76.7,30.1,80.2,26.6C86.4,20.4,76.8,30.3,80.2,26.6z M60.1,2.5c2.5,0,8.5,7.5,8.5,19.4c0,5-1.2,9.4-2.5,12.6
				c-3.8-1-8-1-11.9,0c-1.5-3.2-2.5-7.5-2.5-12.6C51.6,10,57.6,2.5,60.1,2.5z M20.3,19.1c0.5-0.7,10.7-1.5,19.6,7.5l0,0
				c3.5,3.5,5.9,7.4,7,10.7c-3.3,2.2-6.4,5-8.4,8.4c-3.3-1.2-7.4-3.3-10.7-7C17.8,27.8,19.8,19.7,20.3,19.1z M23.1,67.3
				c-11.9,0-19.4-6-19.4-8.5s7.5-8.5,19.4-8.5c5.2,0,9.4,1.2,12.6,2.5c-1,3.8-1,8,0,11.9C32.5,66.1,28.1,67.3,23.1,67.3z M40,90.9
				c-8.4,8.4-17.9,9.4-19.7,7.7c-0.3-0.3-2.8-9.5,7.7-19.7c3.7-3.5,7.4-5.9,10.7-7c2,3.3,5,6.4,8.4,8.4C45.7,83.7,43.4,87.5,40,90.9
				z M60.1,115.1c-2.5,0-8.5-7.5-8.5-19.4c0-5,1.2-9.4,2.5-12.6c3.8,1,8,1,11.9,0c1.5,3.2,2.5,7.5,2.5,12.6
				C68.6,107.6,62.6,115.1,60.1,115.1z M60.1,77.1c-10.2,0-18.4-8.2-18.4-18.4s8.2-18.4,18.4-18.4s18.4,8.2,18.4,18.4
				S70.1,77.1,60.1,77.1z M99.9,98.6c-1.8,1.8-11.4,0.7-19.7-7.7c-3.5-3.5-5.9-7.4-7-10.7c3.3-2,6.4-5,8.4-8.4c3.3,1.2,7,3.5,10.7,7
				C102.8,88.5,100.3,98.2,99.9,98.6z M147.1,119.7c8.7-4.9,19.2-5.5,28.6-2.2c-9.9,1.7-19.4,6.4-27.1,10.5c-7,4-12.2,7.4-16.2,10.4
				C134.2,132.5,138.2,124.7,147.1,119.7z M172,128.2c-5,4.2-8.5,7.5-11.4,10.4c-4.7,4.5-7.2,7-11.4,8.2c-4.5,1.3-9.5,1-15.4-1
				c4.4-3.3,9.9-7.2,18.1-11.7c9.9-5.5,18.1-8.9,25.3-9.9C175.4,125.3,173.7,126.9,172,128.2z"/>
		</g>
	</g>
</g>
<g class="st0">
	<title>Artboard 10</title>
	<g class="st1">
		<path d="M39.3,139.7c-0.8-2.2-2.7-3.8-5.1-3.8H5.5L-4,107.2c-1.1-2.7-4.1-4.3-6.8-3.5c-2.7,1.1-4.3,4.1-3.5,6.8L-4,141.3
			l-10.3,30.9c-0.8,2.7,0.5,6,3.5,6.8c2.7,0.8,6-0.5,6.8-3.5l9.5-28.7h24.6l9.5,28.7c1.1,2.7,4.1,4.3,6.8,3.5
			c2.7-1.1,4.3-4.1,3.5-6.8L39.3,139.7z"/>
		<path d="M130.5,103.4H98V49.3h86.6c3,0,5.4-2.4,5.4-5.4l0,0V33c0-2.2-1.1-4.1-3-4.9L94.8-15.2c-1.4-0.8-3.3-0.8-4.6,0L-2,28.2
			c-1.9,0.8-3,2.7-3,4.9v10.8c0,3,2.4,5.4,5.4,5.4l0,0h86.7v54.2H55.8c-3-0.6-5.4,1.9-5.4,4.8c0,3,2.4,5.4,5.4,6h31.3v54.2l-5.4,0
			c-1.9,0-3.8,1-4.7,2.7c-2.1,4.1,0.8,8.2,4.7,8.2h21.7c1.9,0,3.8-1,4.7-2.7c2.1-4.1-0.8-8.2-4.7-8.2H98v-54.2l32.2,0
			c2.4,0,4.6-1.4,5.4-3.6C136.8,106.9,134,103.4,130.5,103.4z M5.9,36.6L92.5-4.3l86.7,40.9v1.9H5.9V36.6z"/>
		<path d="M191.5,141.3l10.3-30.9c0.8-2.7-0.5-6-3.5-6.8c-2.7-0.8-6,0.5-6.8,3.5l-9.5,28.7h-28.7c-2.4,0-4.3,1.6-5.1,3.8l-10.8,32.5
			c-0.8,2.7,0.5,6,3.5,6.8c2.7,0.8,6-0.5,6.8-3.5l9.5-28.7h24.6l9.5,28.7c1.1,2.7,4.1,4.3,6.8,3.5c2.7-1.1,4.3-4.1,3.5-6.8
			L191.5,141.3z"/>
	</g>
</g>
<g class="st0">
	<path class="st1" d="M201.9,79.6C199,67.2,189,57.9,176.8,55.5c0-0.7-0.2-1.5-0.5-2.2c-1.9-8.3-6.8-15.3-14.1-19.7
		c-5.8-3.7-12.7-5.4-19.5-4.6c-5.6-14.6-21.2-23.1-36.8-19.5c-4.6,1-9,3.2-12.7,6.1c-5.8-4.4-12.7-6.8-19.7-6.8
		c-12.7,0-24.1,7.8-29,19.2c-17.1-1.2-31.4,11.2-33.6,27.3c-15.6,1.9-27.5,15.3-27.5,31.4c0,13.4,8.5,25.6,20.9,30c0,0,0,0,0,0
		c-0.7,16.3,11.1,29.1,30.7,33.1c1.9,0.5,16.6,0.5,35.1,0.5c27.8,0,64.3-0.2,79.9-0.5l9.5-0.7h0.7c14.1-3.2,24.6-18.3,24.6-33.6
		C198,109.1,205.3,94.2,201.9,79.6z M178.4,107.9l-3.7,1.2l0.5,3.7c1.5,11.7-6.4,24.1-16.9,26.8l-8.6,0.7
		c-43.2,0.5-108.9,0.7-113.5,0c-5.4-1.2-23.3-6.1-23.3-22.4c0-1.5,0.2-2.9,0.5-4.1l1-4.6l-4.7-1C-0.7,105.9-8,96.7-8,86.2
		C-8,73.8,2,63.8,14.3,63.8H19v-4.6C19,46.7,29,36.7,41.3,36.7c1.5,0,2.9,0.2,4.7,0.5l4.4,0.7l1.2-4.1c2.7-9.5,11.5-16.1,21.6-16.1
		c6.1,0,12,2.4,16.2,6.8l3.4,3.7l3.4-3.7c2.9-3.2,6.9-5.6,11.3-6.6c12-2.7,24,4.6,27,16.8l1,4.6l4.7-1c5.9-1.5,11.8-0.2,16.9,2.7
		c5.1,3.2,8.6,8,10.1,13.9c0.2,1.5,0.5,2.9,0.5,4.4v4.4L172,64c9.8,0.5,18.4,7.6,20.6,17.3C195.3,92.8,189.1,104.2,178.4,107.9z"/>
	<path class="st1" d="M152.2,76.6c-7.1-3.7-15.3-2.7-21.2,2.4c-4.4-2.2-9.3-2.7-13.9-1.2c-4.9,1.5-8.8,4.6-11.2,9.3
		c-0.5,1-0.2,1.9,0.7,2.4c1,0.5,1.9,0.2,2.4-0.7c1.9-3.7,5.1-6.3,9-7.6c3.9-1.2,8-0.7,11.7,1.2c0.2,0,0.2,0.2,0.5,0.2l1.2,0.7l1-1
		c4.9-4.9,12.2-5.8,18-2.7c7.6,3.9,10.2,13.4,6.3,20.9c-0.5,1-0.2,1.9,0.7,2.4c0.2,0.2,0.5,0.2,0.7,0.2c0.7,0,1.2-0.2,1.5-1
		C164.9,93.1,161.5,81.4,152.2,76.6z"/>
	<path class="st1" d="M57.7,55.6c-4.9-1.5-10-0.7-14.4,1.7c-6.8,3.9-10.7,11.4-9.5,19.2c-8.8,5.1-11.9,16.6-6.8,25.6
		c0.2,0.5,1,1,1.5,1c0.2,0,0.5,0,1-0.2c1-0.5,1.2-1.5,0.7-2.4c-4.1-7.3-1.5-16.8,6.1-20.9c0.2,0,0.2-0.2,0.5-0.2l1.2-0.5l-0.2-1.5
		c-1.5-6.6,1.7-13.4,7.6-16.6c3.7-1.9,7.8-2.4,11.7-1.5c3.9,1.2,7.3,3.7,9.3,7.3c0.5,1,1.5,1.2,2.4,0.7c1-0.5,1.2-1.5,0.7-2.4
		C66.7,60.2,62.6,57.1,57.7,55.6z"/>
</g>
<g class="st0">
	<g class="st1">
		<g>
			<g>
				<rect x="-7" y="150.7" width="31.1" height="9.6"/>
				<rect x="62.2" y="150.7" width="31.1" height="9.6"/>
				<rect x="95.7" y="150.7" width="31.1" height="9.6"/>
				<rect x="26.4" y="150.7" width="31.1" height="9.6"/>
				<rect x="129.1" y="150.7" width="31.1" height="9.6"/>
				<rect x="164.9" y="150.7" width="31.1" height="9.6"/>
				<rect x="9.7" y="165" width="31.1" height="9.6"/>
				<rect x="43.1" y="165" width="31.1" height="9.6"/>
				<rect x="79" y="165" width="31.1" height="9.6"/>
				<rect x="112.4" y="165" width="31.1" height="9.6"/>
				<rect x="145.8" y="165" width="31.1" height="9.6"/>
				<rect x="181.7" y="165" width="11.9" height="9.6"/>
				<rect x="-7" y="179.4" width="31.1" height="9.6"/>
				<rect x="26.4" y="179.4" width="31.1" height="9.6"/>
				<rect x="62.2" y="179.4" width="31.1" height="9.6"/>
				<rect x="95.7" y="179.4" width="31.1" height="9.6"/>
				<rect x="129.1" y="179.4" width="31.1" height="9.6"/>
				<rect x="164.9" y="179.4" width="31.1" height="9.6"/>
				<rect x="9.7" y="193.7" width="31.1" height="9.6"/>
				<rect x="43.1" y="193.7" width="31.1" height="9.6"/>
				<rect x="-7" y="165" width="11.9" height="9.6"/>
				<rect x="-7" y="193.7" width="11.9" height="9.6"/>
				<rect x="79" y="193.7" width="31.1" height="9.6"/>
				<rect x="112.4" y="193.7" width="31.1" height="9.6"/>
				<rect x="145.8" y="193.7" width="31.1" height="9.6"/>
				<rect x="181.7" y="193.7" width="11.9" height="9.6"/>
			</g>
			<path d="M193.6,26.5v-2.4h-14.3V7.3l2.4-3.3l-5.7-15.8L170.4,4l4.1,3.3v16.8h-23.9V7.3l3.6-3.3l-5.5-15.8L143.2,4l2.6,3.3v16.8
				h-21.5V8.3l3.5-3.3l-6-15.8L116,5l3.5,3.3v15.8H95.7V7.3L99.5,4L94-11.8L88.5,4l2.4,3.3v16.8H69.4V7.3L72.3,4l-5.5-15.8L61.3,4
				l3.3,3.3v16.8H40.7V8.3L44.3,5l-6-15.8L32.4,5L36,8.3v15.8H14.5V7.3L17.6,4l-5.5-15.8L6.6,4l3.1,3.3v16.8H-7v4.8H9.7V122H-7v4.8
				H9.7v19.1h4.8v-19.1H36v19.1h4.8v-19.1h23.9v19.1h4.8v-19.1h21.5v19.1h4.8v-19.1h23.9v19.1h4.8v-19.1h21.5v19.1h4.8v-19.1h23.9
				v19.1h4.8v-19.1h14.3V122h-16.7V26.5H193.6z M14.5,122V26.5h23.9V122H14.5z M40.7,122V26.5h23.9V122H40.7z M69.4,122V26.5h23.9
				V122H69.4z M95.7,122V26.5h23.9V122H95.7z M122,122V26.5h23.9V122H122z M174.5,122h-23.9V26.5h23.9V122z"/>
		</g>
	</g>
</g>
<g class="st0">
	<g class="st1">
		<g>
			<g>
				<g>
					<path d="M29.1,23.9c1.6,1.6,3.3,3.3,4.9,4.9c3.9,3.9,7.9,7.9,11.8,11.8c4.7,4.7,9.5,9.5,14.2,14.2c4.1,4.1,8.2,8.2,12.3,12.3
						c2,2,3.9,4.1,6,6c0,0,0.1,0.1,0.1,0.1c0-1.9,0-3.8,0-5.7L70,76h5.7c-1.6-1.6-3.3-3.3-4.9-4.9c-3.9-3.9-7.9-7.9-11.8-11.8
						c-4.7-4.7-9.5-9.5-14.2-14.2c-4.1-4.1-8.2-8.2-12.3-12.3c-2-2-4-4.1-6-6c0,0-0.1-0.1-0.1-0.1c-1.5-1.5-4.2-1.6-5.7,0
						c-0.4,0.4-0.8,0.8-1.2,1.2c-0.2,0.2-0.4,0.4-0.7,0.7c0,0-0.1,0.1-0.1,0.1c-0.1,0.1-0.1,0.1-0.2,0.2c-0.4,0.4,0.1-0.2,0.2-0.2
						c0,0-0.6,0.3-0.6,0.4c0,0,0.8-0.3,0.4-0.2C18,29,19,28.8,18.9,28.8c0.3,0,0.6,0.1,0.9,0.2c0.5,0.1,0.2,0.1,0,0
						c0,0,0.6,0.4,0.2,0.1c-0.4-0.4,0.3,0.4,0.3,0.4c-0.1-0.1-0.2-0.2-0.3-0.3c-1.4-1.9-2.8-3.8-4.2-5.6c-3-4-6.1-8-9-12
						c-0.1-0.1-0.1-0.2-0.2-0.3c-0.2-0.3-0.4-0.8-0.1-0.1c-0.1-0.2-0.3-0.5,0,0c0.2,0.3,0,0.3,0,0c0,0-0.2,0.8,0,0.4
						c0.2-0.5-0.3,0.7-0.1,0.2c0.2-0.4-0.4,0.3-0.1,0.2c0.1-0.1,0.2-0.2,0.3-0.3c0.9-0.9,1.8-1.8,2.7-2.7c1.2-1.2,2.3-2.3,3.4-3.4
						c0.4-0.4,0.8-0.8,1.1-1.1C14,4.1,14.1,4,14.1,3.9C14.4,3.6,13.6,4.2,14,4c0.4-0.2-0.3,0.1-0.3,0.1c0.1,0,0.6-0.1,0,0
						c-0.5,0.1-0.1,0,0,0c0,0-0.8-0.1-0.4,0C13.7,4.2,13,4,13,4s0.4,0.2,0.4,0.2c0.1,0.1,0.3,0.2,0.4,0.3c0.1,0.1,0.2,0.2,0.4,0.3
						c0.7,0.5,1.4,1.1,2.2,1.6c2.5,1.9,5,3.8,7.5,5.7c2.2,1.7,4.5,3.4,6.7,5c0.4,0.3,0.8,0.6,1.3,1c0,0-0.5-0.4-0.5-0.4
						c0.1,0.1,0.5,0.3,0.1,0c-0.3-0.2-0.1-0.2,0,0c-0.1-0.3-0.2-0.5-0.3-0.8c0-0.3,0-0.6,0.1-0.9c0,0.2-0.2,0.4,0.1,0
						c0.4-0.8-0.3,0.3-0.2,0.3c0-0.1,0.5-0.6,0.2-0.3c-0.1,0.1-0.2,0.2-0.3,0.3c0,0-0.1,0.1-0.1,0.1c-0.2,0.2-0.5,0.5-0.7,0.7
						c-0.4,0.4-0.8,0.8-1.2,1.2C27.6,19.7,27.5,22.5,29.1,23.9c1.6,1.5,4.1,1.6,5.7,0c1.2-1.2,2.5-2.3,3.4-3.7
						c1-1.6,1.4-3.6,0.8-5.4C38.5,13.1,37.3,12,36,11c-1.7-1.3-3.5-2.6-5.3-4c-2.9-2.1-5.7-4.3-8.6-6.4c-1.6-1.2-3.2-2.7-5-3.6
						c-3-1.6-6.4-1.1-8.8,1.3c-1,0.9-1.9,1.9-2.8,2.8C4.3,2.4,3,3.6,1.8,4.8C0.7,5.9-0.4,6.9-1,8.4c-1.1,2.5-0.5,5.3,1.1,7.4
						c0.5,0.7,1.1,1.5,1.7,2.2c2,2.7,4.1,5.5,6.1,8.2c1.7,2.3,3.4,4.5,5.1,6.8c1.2,1.5,2.3,3,4.3,3.6c3.1,1.1,5.7-0.8,7.8-2.9
						c0.5-0.5,0.9-0.9,1.4-1.4h-5.7c1.6,1.6,3.3,3.3,4.9,4.9c3.9,3.9,7.9,7.9,11.8,11.8c4.7,4.7,9.5,9.5,14.2,14.2
						c4.1,4.1,8.2,8.2,12.3,12.3c2,2,4,4.1,6,6c0,0,0.1,0.1,0.1,0.1c1.9,1.9,5.3,1.5,6.5-1.2c2.3-2.3,4.4-4.3,6.7-6.6
						c2.5-1.3,2.8-4.6,1-6.5c-1.6-1.6-3.3-3.3-4.9-4.9c-3.9-3.9-7.9-7.9-11.8-11.8c-4.7-4.7-9.5-9.5-14.2-14.2
						c-4.1-4.1-8.2-8.2-12.3-12.3c-2-2-4-4.1-6-6c0,0-0.1-0.1-0.1-0.1c-1.5-1.5-4.3-1.6-5.7,0C27.6,19.8,27.5,22.3,29.1,23.9z"/>
				</g>
			</g>
			<g>
				<g>
					<path d="M176.3,165.5c-2.1,2.1-4.2,4.2-6.3,6.3c-0.7,0.7-1.4,1.5-2.2,2.2c-0.3,0.3-0.6,0.5-0.9,0.8c-0.5,0.5,0.6-0.4-0.2,0.2
						c-0.6,0.4-1.2,0.7-1.9,1.1c-0.6,0.3,0.7-0.2-0.2,0.1c-0.3,0.1-0.6,0.2-0.9,0.3c-0.4,0.1-0.7,0.2-1.1,0.3c-0.1,0-0.3,0-0.4,0.1
						c-0.5,0.1,0.9-0.1,0.1,0c-0.6,0-1.3,0.1-1.9,0.1c-0.3,0-0.6,0-1-0.1c-0.6,0,0.8,0.2,0.2,0c-0.2-0.1-0.5-0.1-0.7-0.1
						c-0.6-0.1-1.3-0.3-1.9-0.6c-0.7-0.2,0.7,0.3-0.2-0.1c-0.3-0.2-0.7-0.3-1-0.5c-0.3-0.2-0.6-0.4-0.9-0.5c-0.6-0.4,0,0.1,0.1,0.1
						c-0.1-0.1-0.4-0.3-0.4-0.4c-0.2-0.2-0.4-0.4-0.7-0.6c-0.1-0.1-0.2-0.2-0.3-0.3c-1.3-1.3-2.6-2.6-3.9-3.9
						c-5.1-5.1-10.2-10.3-15.4-15.4c-4.6-4.6-9.1-9.1-13.7-13.7c-0.5-0.5-1-1-1.4-1.4c-0.1-0.1-0.2-0.2-0.3-0.3
						c0-0.1-0.4-0.5-0.4-0.4c0.1,0,0.5,0.8,0.1,0.1c-0.1-0.1-0.1-0.2-0.2-0.4c-0.1-0.1-0.4-0.6-0.1-0.1c0.3,0.4,0-0.1-0.1-0.3
						c0-0.2-0.3-1.2-0.1-0.5c0.1,0.6,0-0.3,0-0.5c0-0.7-0.2,0.8,0-0.1c0-0.2,0.1-0.4,0.1-0.5c0.1-0.2,0.3-0.6,0-0.2
						c-0.3,0.5,0.2-0.4,0.3-0.5c0.4-0.7-0.1,0.1-0.1,0.1c0-0.1,0.4-0.4,0.4-0.4c0.1-0.1,0.2-0.2,0.3-0.3c1.2-1.2,2.5-2.5,3.7-3.7
						c0.3-0.3,0.7-0.7,1-1c1.5-1.5,1.6-4.2,0-5.8c-4.9-4.9-9.9-9.9-14.8-14.8c-0.7-0.7-1.4-1.4-2.1-2.1c0,1.9,0,3.8,0,5.8
						c2.8-2.8,5.6-5.6,8.5-8.5c-1.9,0-3.8,0-5.7,0c4.9,4.9,9.9,9.9,14.8,14.8c0.7,0.7,1.4,1.4,2.1,2.1c1.5,1.5,4.2,1.6,5.7,0
						c1.6-1.6,3.3-3.3,4.9-5c0,0,0.4-0.4,0.4-0.4c0,0-0.6,0.4-0.2,0.2c0.1-0.1,0.2-0.2,0.4-0.2c0.1-0.1,0.3-0.1,0.4-0.2
						c0.3-0.2-0.3,0.1-0.3,0.1c0.2,0,0.7-0.2,0.9-0.3c0.1,0,0.3,0,0.4-0.1c0,0-0.8,0-0.4,0.1c0.3,0,0.6,0,0.8,0c0.4,0-0.4,0-0.4-0.1
						c0.1,0.1,0.3,0.1,0.4,0.1c0.2,0.1,0.7,0.3,0.9,0.3c-0.1,0-0.7-0.4-0.3-0.1c0.1,0.1,0.2,0.1,0.4,0.2s0.2,0.2,0.4,0.2
						c0.4,0.2-0.3-0.2-0.2-0.2c0,0,0.4,0.4,0.4,0.4c0.1,0.1,0.1,0.1,0.2,0.2c2.8,2.8,5.6,5.6,8.5,8.5c4.7,4.7,9.4,9.4,14.1,14.1
						c3.6,3.6,7.2,7.2,10.8,10.8c0.4,0.4,0.8,0.8,1.1,1.1c0.1,0.1,0.2,0.2,0.2,0.2l0,0c0.2,0.2,0.4,0.4,0.6,0.7
						c0.1,0.1,0.2,0.2,0.3,0.3c0.4,0.4-0.4-0.6-0.1-0.1c0.3,0.5,0.6,1,0.9,1.5c0.1,0.2,0.2,0.5,0.4,0.8c0.2,0.4-0.1-0.3-0.1-0.3
						c0,0.2,0.2,0.5,0.2,0.7c0.2,0.5,0.3,1.1,0.4,1.6c0,0.1,0.1,0.3,0.1,0.4c0,0.2,0.2,0.4,0,0c-0.2-0.4,0-0.2,0,0
						c0,0.2,0,0.4,0,0.5c0,0.5,0,1.1,0,1.7c0,0.3-0.1,0.6-0.1,0.8c0,0,0.1-0.8,0-0.4c0,0.2-0.1,0.4-0.1,0.5
						c-0.1,0.5-0.3,1.1-0.4,1.6c0,0.1-0.1,0.3-0.1,0.4c-0.3,0.7,0-0.1,0.1-0.2c-0.2,0.1-0.3,0.7-0.4,0.9c-0.3,0.5-0.6,1-0.9,1.5
						c-0.2,0.4,0.2-0.2,0.2-0.2c0,0-0.3,0.3-0.3,0.3C176.8,165,176.6,165.3,176.3,165.5c-1.5,1.5-1.6,4.2,0,5.8
						c1.6,1.5,4.2,1.6,5.7,0c4.3-4.4,6.1-10.7,4.8-16.7c-0.8-3.5-2.7-6.5-5.2-8.9c-3.2-3.3-6.5-6.5-9.7-9.8
						c-4.9-4.9-9.8-9.9-14.8-14.8c-3.2-3.2-6.4-6.4-9.6-9.6c-2.9-2.9-6.9-4.3-10.9-3.2c-3.8,1-6.4,4.3-9,7c-0.3,0.3-0.5,0.5-0.8,0.8
						c1.9,0,3.8,0,5.7,0c-4.9-4.9-9.9-9.9-14.8-14.8c-0.7-0.7-1.4-1.4-2.1-2.1c-1.5-1.5-4.2-1.6-5.7,0c-2.8,2.8-5.6,5.6-8.5,8.5
						c-1.5,1.5-1.6,4.2,0,5.8c4.9,4.9,9.9,9.9,14.8,14.8c0.7,0.7,1.4,1.4,2.1,2.1c0-1.9,0-3.8,0-5.8c-1.1,1.1-2.1,2.1-3.2,3.2
						c-1.4,1.4-3,2.8-3.9,4.7c-1.8,4-1.3,8.3,1.5,11.7c0.4,0.4,0.8,0.8,1.1,1.2c4.1,4.1,8.3,8.3,12.4,12.4
						c5.5,5.5,11,11.1,16.6,16.6c4.3,4.3,8.4,9.3,14.8,10.4c6.1,1,11.9-1,16.3-5.3c2.5-2.5,4.9-4.9,7.4-7.4c0.2-0.2,0.4-0.4,0.7-0.7
						c1.5-1.5,1.6-4.3,0-5.8C180.5,164,177.9,163.9,176.3,165.5z"/>
				</g>
			</g>
			<g>
				<g>
					<path d="M136.3,131.2c3.2,3.2,6.5,6.5,9.7,9.7c5.2,5.2,10.3,10.3,15.4,15.4c1.2,1.2,2.4,2.4,3.5,3.5c1.5,1.5,4.3,1.6,5.7,0
						s1.6-4.1,0-5.7c-3.2-3.2-6.5-6.5-9.7-9.7c-5.2-5.2-10.3-10.3-15.4-15.4c-1.2-1.2-2.4-2.4-3.5-3.5c-1.5-1.5-4.3-1.6-5.7,0
						C134.8,127,134.7,129.6,136.3,131.2L136.3,131.2z"/>
				</g>
			</g>
			<g>
				<g>
					<path d="M162.2,162.6c-3.2-3.2-6.5-6.5-9.7-9.7c-5.2-5.2-10.3-10.3-15.4-15.4c-1.2-1.2-2.4-2.4-3.5-3.5c-1.5-1.5-4.3-1.6-5.7,0
						c-1.5,1.6-1.6,4.1,0,5.7c3.2,3.2,6.5,6.5,9.7,9.7c5.2,5.2,10.3,10.3,15.4,15.4c1.2,1.2,2.4,2.4,3.5,3.5c1.5,1.5,4.3,1.6,5.7,0
						C163.7,166.7,163.9,164.2,162.2,162.6L162.2,162.6z"/>
				</g>
			</g>
		</g>
		<g>
			<g>
				<g>
					<path d="M180.8,35.3c-4.8,4.8-9.7,9.7-14.6,14.6c-2.3,2.3-4.7,4.7-7,7c-0.2,0.2-0.3,0.3-0.5,0.5c-0.4,0.4-0.9,0.9-1.3,1.2
						c-0.4,0.3-0.8,0.6-1.1,0.9c0.1-0.1,0.6-0.5,0-0.1c-0.3,0.2-0.5,0.4-0.8,0.5c-0.7,0.5-1.4,0.9-2.2,1.3c-0.4,0.2-0.8,0.4-1.1,0.6
						c-0.2,0.1-0.5,0.2-0.7,0.3c-0.4,0.2-0.5,0.3,0,0c-0.8,0.4-1.8,0.7-2.6,0.9c-0.9,0.3-1.8,0.5-2.7,0.6c-0.2,0-0.4,0.1-0.6,0.1
						c-0.6,0.1,0.1-0.1,0.2,0c-0.1-0.1-1.1,0.1-1.2,0.1c-0.9,0.1-1.8,0.1-2.8,0.1c-0.9,0-1.9,0-2.8-0.2c0.1,0,0.9,0.1,0.2,0
						c-0.2,0-0.4-0.1-0.6-0.1c-0.5-0.1-1-0.2-1.5-0.3c-0.9-0.2-1.7-0.5-2.5-0.8c-0.3-0.1-0.5-0.2-0.8-0.3c-0.1,0-0.8-0.3-0.3-0.1
						s-0.2-0.1-0.3-0.1c-0.3-0.1-0.6-0.3-0.9-0.4c-0.9-0.4-1.7-0.9-2.5-1.4c-0.4-0.2-0.8-0.5-1.1-0.8c-0.2-0.1-0.4-0.3-0.5-0.4
						c0.7,0.5-0.2-0.2-0.2-0.2c-0.3-0.3-0.7-0.6-1-0.9c0,0-0.5-0.5-0.5-0.5c-0.2,0.1,1.1,1.2-0.4-0.4c-0.3-0.3-0.6-0.7-1-1
						c-0.2-0.2-0.4-0.4-0.6-0.6c-0.1-0.1-0.6-0.8-0.3-0.4c0.3,0.4-0.1-0.2-0.2-0.3c-0.2-0.2-0.3-0.5-0.5-0.7
						c-0.2-0.4-0.5-0.8-0.7-1.1c-0.5-0.9-1-1.7-1.4-2.6c-0.1-0.2-0.2-0.4-0.3-0.6c0.3,0.8,0.1,0.2,0,0.1c-0.2-0.5-0.3-0.9-0.5-1.4
						c-0.3-0.9-0.6-1.9-0.8-2.8c-0.1-0.4-0.2-0.9-0.3-1.4c0-0.2-0.2-0.8,0,0.2c0-0.2,0-0.4-0.1-0.6c-0.1-0.9-0.1-1.8-0.1-2.8
						c0-0.9,0-1.7,0.1-2.6c0-0.2,0-0.4,0.1-0.6c0.1-0.6-0.2,1,0,0c0.1-0.4,0.2-0.9,0.2-1.4c0.2-0.9,0.4-1.7,0.7-2.5
						c0.1-0.4,0.3-0.8,0.4-1.2c0.1-0.2,0.1-0.4,0.2-0.6c0.3-0.9-0.3,0.6,0.1-0.2c0.8-1.7,1.8-3.3,2.8-4.9c0.1-0.1,0.5-0.6-0.1,0
						c0.1-0.2,0.3-0.3,0.4-0.5c0.3-0.3,0.6-0.7,0.9-1c0.3-0.3,0.6-0.7,0.9-1c1.8-1.8,3.7-3.7,5.5-5.5c5.5-5.5,11-11,16.4-16.4
						c0.1-0.1,0.2-0.2,0.3-0.3c2.1-2.1,1.2-6.1-1.8-6.8c-15.3-3.7-32-0.9-45,8.2C94.7,8.4,89,14.5,84.9,21.5
						c-4,6.8-6.4,14.4-7.4,22.2c-1,8.3,0,17,2.9,24.8c0.3-1.3,0.7-2.6,1-4c-4.3,4.3-8.5,8.5-12.8,12.8C63,83,57.4,88.7,51.7,94.3
						c-8.3,8.3-16.6,16.6-24.9,24.9c-6.1,6.1-12.3,12.3-18.4,18.4c-1.9,1.9-3.8,3.8-5.4,6c-6.2,8.6-6.2,21-0.2,29.7
						c5.8,8.4,15.7,12.7,25.8,11.3c5.9-0.8,11-3.8,15.2-7.9c5-5,9.9-9.9,14.9-14.9c8.2-8.2,16.5-16.5,24.7-24.7
						c6.7-6.7,13.3-13.3,20-20c4-4,8-8,11.9-11.9c1.1-1.1,2.3-2.3,3.4-3.4c-1.3,0.3-2.6,0.7-4,1c14.5,5,30.8,3.7,44.4-3.4
						c14-7.3,24.5-20.9,28.2-36.2c2-8.6,2.1-17.5,0.1-26.1c-0.5-2.1-3-3.5-5-2.8c-2.2,0.7-3.3,2.8-2.8,5c0.2,0.9,0.4,1.7,0.5,2.6
						c0.1,0.4,0.1,0.8,0.2,1.2c0,0.2,0.1,0.4,0.1,0.6c0.1,0.5-0.1-0.8,0,0c0.2,1.8,0.3,3.5,0.4,5.3c0,1.7,0,3.5-0.2,5.2
						c0,0.5-0.1,0.9-0.1,1.4c0,0.3-0.2,0.9-0.1,1.2c0-0.1,0.1-1,0-0.2c0,0.2-0.1,0.4-0.1,0.6c-0.1,0.5-0.2,1-0.3,1.5
						c-0.6,3.4-1.7,6.8-3,10.1c-0.3,0.7,0,0,0-0.1c0,0.2-0.2,0.4-0.2,0.6c-0.2,0.4-0.4,0.9-0.6,1.3c-0.4,0.8-0.8,1.6-1.2,2.4
						c-0.9,1.6-1.9,3.2-2.9,4.7c-0.2,0.3-0.5,0.7-0.8,1c-0.1,0.2-0.3,0.3-0.4,0.5c-0.1,0.1-0.5,0.6-0.2,0.2c0.4-0.5-0.3,0.3-0.3,0.3
						c-0.1,0.2-0.3,0.3-0.4,0.5c-0.3,0.4-0.6,0.8-1,1.1c-1.3,1.4-2.6,2.8-4,4.1c-0.6,0.6-1.3,1.1-1.9,1.7c-0.3,0.3-0.6,0.5-1,0.8
						c-0.6,0.5,0,0,0.1-0.1c-0.2,0.2-0.5,0.4-0.8,0.6c-1.4,1-2.9,2-4.4,2.9c-1.5,0.9-3.1,1.7-4.6,2.4c-0.4,0.2-0.8,0.3-1.1,0.5
						c1-0.4-0.4,0.1-0.6,0.2c-0.8,0.3-1.6,0.6-2.4,0.9c-1.7,0.5-3.4,1-5.1,1.4c-0.8,0.2-1.7,0.3-2.5,0.5c-0.4,0.1-0.8,0.1-1.2,0.2
						c-0.2,0-0.8,0.1,0.2,0c-0.2,0-0.5,0.1-0.8,0.1c-3.8,0.4-7.7,0.5-11.5,0.1c-0.3,0-1.9-0.2-0.7-0.1c-0.5,0-1-0.1-1.5-0.2
						c-0.9-0.1-1.8-0.3-2.7-0.5c-1.9-0.4-3.9-1-5.8-1.6c-1.3-0.5-3,0.1-4,1c-4.2,4.2-8.5,8.5-12.7,12.7
						c-5.4,5.4-10.9,10.9-16.3,16.3c-8.2,8.2-16.3,16.3-24.4,24.4c-6.3,6.3-12.7,12.7-19,19c-1,1-2,2-3,3c-0.3,0.3-0.7,0.7-1.1,1
						c-0.2,0.2-0.4,0.3-0.6,0.5c-0.2,0.2-0.6,0.6,0,0c-0.6,0.8-1.9,1.3-2.8,1.8c-0.5,0.2-0.9,0.5-1.4,0.7c-0.7,0.3,0.1,0,0.2-0.1
						c-0.1,0.1-0.6,0.2-0.8,0.3c-1,0.4-2,0.6-3.1,0.9c-0.2,0-0.5,0.1-0.7,0.1c-0.3,0.1-1.1,0,0,0c-0.4,0-0.9,0.1-1.4,0.1
						c-1,0.1-2,0-3.1,0c-0.1,0-0.7,0-0.8-0.1c0.2,0,0.3,0,0.5,0.1c-0.2,0-0.4-0.1-0.5-0.1c-0.5-0.1-0.9-0.2-1.4-0.3
						c-1-0.2-2-0.6-2.9-0.9c-0.9-0.3,0.8,0.4-0.1,0c-0.3-0.1-0.5-0.2-0.8-0.4c-0.4-0.2-0.9-0.4-1.3-0.7s-0.8-0.5-1.2-0.8
						c-0.2-0.2-0.5-0.3-0.7-0.5c-0.7-0.5,0.5,0.5-0.1-0.1c-0.9-0.7-1.7-1.5-2.5-2.3c-0.4-0.4-0.8-0.8-1.1-1.3
						c0.6,0.8-0.1-0.1-0.2-0.2c-0.2-0.3-0.4-0.5-0.5-0.8c-0.3-0.5-0.6-1-0.9-1.6c-0.1-0.2-0.2-0.5-0.4-0.7c-0.1-0.2-0.6-1.1-0.1-0.2
						c-0.6-1-0.8-2.3-1.1-3.4c-0.1-0.6-0.2-1.1-0.3-1.7c-0.1-0.6,0.1,1,0,0c0-0.3-0.1-0.6-0.1-1c-0.1-1.2,0-2.3,0.1-3.5
						c0.1-1.1-0.2,0.9,0-0.2c0-0.2,0.1-0.4,0.1-0.6c0.1-0.6,0.3-1.2,0.4-1.9c0.1-0.5,0.3-1,0.5-1.5c0.1-0.3,0.2-0.6,0.3-0.9
						c-0.3,0.6-0.1,0.1,0.1-0.2c0.5-1.1,1.1-2.1,1.8-3.1c0.1-0.2,0.3-0.4,0.4-0.5c0.6-0.9-0.5,0.6,0.2-0.2c0.4-0.5,0.9-1,1.4-1.5
						c0.3-0.3,0.5-0.5,0.8-0.8c5.1-5.1,10.3-10.3,15.4-15.4c8.1-8.1,16.2-16.2,24.3-24.3c6.6-6.6,13.1-13.1,19.7-19.7
						c3.9-3.9,7.8-7.8,11.8-11.8c1.1-1.1,2.2-2.2,3.4-3.4c1-1,1.5-2.6,1-4c-0.6-1.7-1.1-3.4-1.5-5.1c-0.4-1.6-1-3.5-1-5.2
						c0,0.1,0.1,0.9,0,0.2c0-0.2,0-0.4-0.1-0.6c0-0.4-0.1-0.8-0.1-1.2c-0.1-0.9-0.1-1.8-0.2-2.7c-0.1-1.7,0-3.4,0.1-5.1
						c0.1-0.9,0.1-1.7,0.2-2.6c0-0.1,0.2-1.4,0.1-0.8c-0.1,0.7,0-0.3,0.1-0.3c0-0.2,0.1-0.5,0.1-0.8c0.3-1.7,0.7-3.4,1.1-5.2
						c0.5-1.7,1-3.3,1.6-4.9c0.1-0.4,0.3-0.8,0.4-1.1c-0.4,0.9,0.1-0.2,0.2-0.4c0.4-0.8,0.8-1.7,1.2-2.5c0.8-1.6,1.7-3.2,2.7-4.7
						c0.5-0.8,1-1.5,1.5-2.2c0.1-0.2,0.9-1.2,0.3-0.4c0.3-0.4,0.7-0.8,1-1.2c2.4-2.8,5-5.4,7.9-7.7c0.6-0.5,0.1,0-0.1,0
						c0.2-0.2,0.4-0.3,0.6-0.5c0.3-0.2,0.7-0.5,1-0.8c0.8-0.5,1.6-1.1,2.4-1.6c1.6-1,3.2-1.8,4.8-2.6c0.4-0.2,0.8-0.4,1.1-0.5
						c0.2-0.1,0.4-0.2,0.6-0.2c0.3-0.1,0.5-0.4-0.1,0c0.7-0.5,1.8-0.7,2.6-1c1.7-0.6,3.3-1.1,5.1-1.5c1-0.2,2-0.4,3-0.6
						c0.5-0.1,1-0.2,1.5-0.2c0.2,0,0.8-0.2-0.2,0c0.2,0,0.5-0.1,0.8-0.1c2-0.2,4-0.3,6-0.3c1.9,0,3.9,0.1,5.8,0.3
						c0.2,0,0.4,0,0.6,0.1c-1.1-0.2,0,0,0.1,0c0.5,0.1,1,0.2,1.5,0.3c1,0.2,2,0.4,3,0.6c-0.6-2.3-1.2-4.5-1.8-6.8
						c-5.1,5.1-10.1,10.1-15.1,15.1c-2.3,2.3-4.6,4.6-6.9,6.9c-4.7,4.7-8,10.7-9,17.3c-1.3,8.9,1,17.7,6.6,24.7
						c0.3,0.4,0.6,0.7,0.9,1.1c0.2,0.2,0.3,0.3,0.5,0.5c0.1,0.1,0.2,0.2,0.2,0.3c0.3,0.3,0.3,0.3,0,0c-0.1-0.1-0.1-0.2-0.2-0.3
						c0.2,0.3,0.5,0.7,0.8,1c0.2,0.2,0.4,0.4,0.6,0.6c0.4,0.4,0.9,0.8,1.3,1.1c1.8,1.4,3.6,2.7,5.6,3.8c3.9,2,8.1,3.1,12.5,3.5
						c8.4,0.6,16.8-2.5,23-8.1c1.9-1.7,3.7-3.7,5.6-5.5c5.7-5.7,11.4-11.4,17.1-17.1c0.1-0.1,0.3-0.3,0.4-0.4c1.5-1.5,1.6-4.3,0-5.7
						C184.9,33.8,182.4,33.7,180.8,35.3z"/>
					<path d="M24.8,160.2C24.2,160.8,25.4,159.9,24.8,160.2c-0.2,0.2-0.4,0.3-0.5,0.4c0.5-0.2,0.6-0.2,0.3-0.1
						c-0.3,0.1-0.5,0.1-0.8,0.2c-0.3,0.1-0.2,0,0.4-0.1c-0.2,0-0.4,0-0.5,0c-0.8,0.1,0.8,0.3,0,0c-0.2-0.1-0.7-0.1-0.8-0.2
						c0.5,0.2,0.6,0.3,0.3,0.1c-0.1-0.1-0.2-0.1-0.4-0.2c-0.3-0.2-0.3-0.2,0,0c0.3,0.2,0.3,0.2,0-0.1c-0.3-0.3-0.3-0.3,0.1,0.2
						c-0.1-0.1-0.1-0.2-0.2-0.2c-0.1-0.2-0.2-0.3-0.3-0.5c0.1,0.2,0.1,0.3,0.2,0.5c-0.1-0.1-0.2-0.6-0.2-0.8c-0.2-0.8,0,0.9,0-0.1
						c0-0.9-0.1,0.3,0,0c0-0.2,0.1-0.8,0.3-0.9c-0.1,0.2-0.1,0.3-0.2,0.5c0.1-0.2,0.2-0.3,0.3-0.5c0.1-0.1,0.1-0.2,0.2-0.2
						c-0.3,0.4-0.4,0.5-0.1,0.2c0.3-0.2,0.3-0.3,0-0.1c-0.3,0.2-0.2,0.2,0,0c0.1-0.1,0.2-0.1,0.4-0.2c0.3-0.1,0.2-0.1-0.3,0.1
						c0.1-0.1,0.6-0.2,0.8-0.2c0.8-0.3-0.8,0,0,0c0.2,0,0.4,0,0.5,0c-0.6-0.1-0.7-0.1-0.4-0.1c0.3,0.1,0.5,0.1,0.8,0.2
						c0.3,0.1,0.2,0.1-0.3-0.1c0.1,0.1,0.2,0.1,0.4,0.2c0.9,0.5-0.4-0.4,0.2,0.2c0.6,0.6-0.3-0.7,0.1,0.1c0,0.1,0.1,0.2,0.1,0.2
						c0.2,0.4,0.2,0.3,0-0.2c0,0.2,0.2,0.6,0.2,0.8c0.2,0.8,0-0.8,0,0c-0.1,1.1,0.1,0,0.1,0c0,0-0.2,0.7-0.2,0.8
						c-0.2,0.7,0.4-0.7-0.1,0.2C24.4,160.9,25.3,159.6,24.8,160.2c-1.5,1.5-1.6,4.2,0,5.7c1.6,1.5,4.2,1.6,5.7,0
						c2.9-3,3.5-7.3,1.7-11c-1.6-3.3-5.4-5.5-9-5.2c-4,0.3-7.6,3.1-8.7,7.1c-1,4,0.6,8,4,10.3c3.7,2.6,8.8,1.8,12-1.2
						c1.5-1.5,1.6-4.3,0-5.7C28.9,158.7,26.4,158.6,24.8,160.2z"/>
				</g>
			</g>
			<g>
				<g>
					<path d="M46.8,142c1.7-1.7,3.5-3.5,5.2-5.2c4.2-4.2,8.4-8.4,12.6-12.6c5.1-5.1,10.1-10.1,15.2-15.2c4.4-4.4,8.7-8.7,13.1-13.1
						c2.1-2.1,4.3-4.2,6.4-6.4c0,0,0.1-0.1,0.1-0.1c1.5-1.5,1.6-4.3,0-5.7c-1.6-1.5-4.1-1.6-5.7,0c-1.7,1.7-3.5,3.5-5.2,5.2
						c-4.2,4.2-8.4,8.4-12.6,12.6c-5.1,5.1-10.1,10.1-15.2,15.2c-4.4,4.4-8.7,8.7-13.1,13.1c-2.1,2.1-4.3,4.2-6.4,6.4
						c0,0-0.1,0.1-0.1,0.1c-1.5,1.5-1.6,4.3,0,5.7C42.7,143.5,45.2,143.6,46.8,142L46.8,142z"/>
				</g>
			</g>
		</g>
	</g>
</g>
<g class="st0">
	<title>Artboard 11</title>
	<g class="st1">
		<path d="M186.1,75.2h-10.8c-2.2-9.9-5.9-19.1-11.4-27.6l7.5-7.5c1.8-1.8,1.8-4.4,0-6.1l0,0l-18.6-18.6c-1.8-1.8-4.4-1.8-6.1,0l0,0
			l-7.5,7.5c-8.3-5.5-17.8-9.4-27.6-11.4V0.6c0-2.4-2-4.4-4.4-4.4l0,0H80.8c-2.4,0-4.4,2-4.4,4.4v0.2v10.7
			c-9.9,2.2-19.1,5.9-27.6,11.4l-7.5-7.7c-1.8-1.8-4.4-1.8-6.1,0l0,0L16.6,34c-1.8,1.8-1.8,4.4,0,6.1l0,0l7.5,7.5
			c-5.5,8.3-9.4,17.8-11.4,27.6H1.9c-2.4,0-4.4,2-4.4,4.4l0,0v26.3c0,2.4,2,4.4,4.4,4.4h0.2h10.7c2.2,9.8,5.9,19,11.4,27.6l-7.7,7.7
			c-1.8,1.7-1.8,4.4,0,6.1l0,0l18.6,18.6c1.8,1.7,4.4,1.7,6.1,0l0,0l7.5-7.4c8.3,5.5,17.8,9.4,27.6,11.4v10.7c0,2.4,2,4.4,4.4,4.4
			l0,0h26.3c2.4,0,4.4-2,4.4-4.4v0v-10.7c9.8-2.2,19-5.9,27.6-11.4l7.4,7.5c1.7,1.8,4.4,1.8,6.1,0l0,0l18.6-18.6
			c1.7-1.8,1.7-4.4,0-6.1l0,0l-7.4-7.5c5.5-8.3,9.4-17.8,11.4-27.6h10.9c2.4,0,4.4-2,4.4-4.4l0,0V79.6
			C190.5,77.2,188.5,75.2,186.1,75.2L186.1,75.2z M181.7,101.5h-9.7c-2.2,0-3.9,1.5-4.4,3.7c-1.8,11.2-6.1,21.5-12.7,30.7
			c-1.3,1.8-1.1,4.2,0.4,5.7l7,7l-12.5,12.5l-7-7c-1.5-1.5-3.9-1.8-5.7-0.4c-9.2,6.6-19.7,11-30.7,12.7c-2.2,0.4-3.7,2.2-3.7,4.4
			v9.7H85.2v-9.6c0-2.2-1.5-3.9-3.7-4.4c-11.2-1.8-21.6-6.1-30.8-12.7c-1.8-1.3-4.2-1.1-5.7,0.4l-7,7l-12.5-12.5l7-7
			c1.5-1.5,1.8-3.9,0.4-5.7c-6.6-9.2-11-19.7-12.8-30.7c-0.4-2.2-2.2-3.7-4.4-3.7H6.3V84h9.6c2.2,0,3.9-1.5,4.4-3.7
			C22.1,69,26.4,58.7,33,49.5c1.3-1.8,1.1-4.2-0.4-5.7l-7-7l12.5-12.5l7,7c1.5,1.5,3.9,1.8,5.7,0.4c9.2-6.6,19.7-11,30.7-12.8
			c2.2-0.4,3.7-2.2,3.7-4.4V5h17.5v8.8c0,2.2,1.5,4,3.7,4.4c11.2,1.8,21.6,6.2,30.8,12.9c1.8,1.3,4.2,1.1,5.7-0.4l7-7.1l12.5,12.7
			l-7,7.1c-1.5,1.6-1.8,4-0.4,5.8c6.6,9.3,11,20,12.8,31.1c0.4,2.2,2.2,3.8,4.4,3.8h9.5V101.5z"/>
		<path d="M93.3,31.3c-34,0-61.4,27.4-61.4,61.4s27.4,61.4,61.4,61.4s61.4-27.4,61.4-61.4S127.3,31.3,93.3,31.3z M85.2,144.5v-24.1
			c0-1.8-0.9-3.3-2.5-3.9c-13.5-6.1-19.1-21.7-12.8-34.9c1.6-3.3,3.8-6.1,6.5-8.3v17.3c0,4.8,3.9,8.8,8.8,8.8h17.5
			c4.8,0,8.8-3.9,8.8-8.8V73.2c11,9.7,12.1,26.1,2.2,36.8c-2.5,2.6-5.4,4.8-8.5,6.4c-1.6,0.7-2.5,2.2-2.5,3.9v24.1
			C96.8,145.6,90.8,145.6,85.2,144.5z M111.5,142.3V123c16.7-9.7,22.6-30.9,12.9-47.6c-3.5-6.1-9-11.2-15.4-14.3
			c-2.2-1.1-4.8-0.2-5.9,2c-0.2,0.7-0.4,1.3-0.4,2v25.4H85.2V65.1c0-2.4-2-4.4-4.4-4.4c-0.7,0-1.3,0.2-2,0.4
			c-17.5,8.1-25,29-16.7,46.5c3.1,6.6,8.1,11.8,14.3,15.4v19.3c-28.4-10-42.7-41.8-30.9-70C55.6,48.2,82.6,35.1,107.9,42
			c29.8,8.2,45.7,39.6,35.7,68.3C138.3,125.2,126.5,137.1,111.5,142.3z"/>
	</g>
</g>
<g class="st0">
	<g class="st1">
		<path d="M202.4,134.7c-0.5-12-10.1-21.6-22.1-21.6c-11.2,0-20.5,8.7-21.8,20.7h-51.6V81.9h8.7c1.6-1.3,2.7-2.4,2.2-4V61.5
			c0.5-1.6-2.2-4.2-2.2-4.2h-6V49c0-4.3-3.4-8.1-7.9-8.1H84.7c-4.2,0-7.9,3.5-7.9,8.1v8.3h-6c0,0-2.7,2.5-2.2,4.2v16.4
			c-0.5,1.6,0.5,2.7,2.2,4h8.7v51.9H28.2c-1.4-12.2-10.6-20.7-21.8-20.7c-12,0-21.6,9.6-22.1,21.6c0,0.3-0.3,0.5-0.3,0.8
			c0,1.6,1.1,2.7,2.7,3.8h96.4h20.2h96.6c1.6-1,2.7-2.1,2.7-3.8C202.7,135.2,202.7,134.9,202.4,134.7z M180.6,119.6
			c8.2,0,15,6.3,16.4,14.2h-32.8C165.3,125.9,172.1,119.6,180.6,119.6z M82,49.2c0-1.4,1.1-2.7,2.7-2.7h16.8c1.3,0,2.6,1.1,2.6,2.7
			v8.3H82.3v-8.2H82z M73.8,65.5h5.4h27.7h5.4v10.9h-9.2H83.2h-9.2V65.5H73.8z M6.4,119.6c8.2,0,15,6.3,16.4,14.2H-10
			C-8.6,125.9-1.8,119.6,6.4,119.6z M87.7,133.8V81.9h13.6v51.9H87.7z"/>
		<path d="M52,35c0.5,0.5,1.4,0.8,1.9,0.8c0.8,0,1.4-0.3,1.9-0.8c1.1-1.1,1.1-2.7,0-3.8l-7.6-7.9c-1.1-1.1-2.7-1.1-3.8,0
			c-1.1,1.1-1.1,2.7,0,3.8L52,35z"/>
		<path d="M30.4,49.7l10.1,2.2c0.3,0,0.3,0,0.5,0c1.4,0,2.5-0.8,2.7-2.2c0.3-1.4-0.5-3-2.2-3.3l-10.1-2.2c-1.4-0.3-3,0.5-3.3,2.2
			C28,48.1,29,49.4,30.4,49.7z"/>
		<path d="M31,79.2c0.3,0,0.3,0,0.5,0L41.6,77c1.4-0.3,2.5-1.6,2.2-3.3c-0.3-1.4-1.6-2.5-3.3-2.2l-10.1,2.2C29,74,28,75.4,28.2,77
			C28.8,78.4,29.9,79.2,31,79.2z"/>
		<path d="M50.6,89.4l-6.3,6.6c-1.1,1.1-1.1,2.7,0,3.8c0.5,0.5,1.1,0.8,1.9,0.8s1.4-0.3,1.9-0.8l6.3-6.6c1.1-1.1,1.1-2.7,0-3.8
			C53.3,88.3,51.7,88.3,50.6,89.4z"/>
		<path d="M135.8,35.9c0.8,0,1.4-0.3,1.9-0.8l7.6-7.9c1.1-1.1,1.1-2.7,0-3.8c-1.1-1.1-2.7-1.1-3.8,0l-7.6,7.9
			c-1.1,1.1-1.1,2.7,0,3.8C134.4,35.6,135,35.9,135.8,35.9z"/>
		<path d="M146.2,49.7c0.3,1.4,1.4,2.2,2.7,2.2c0.3,0,0.3,0,0.5,0l10.1-2.2c1.4-0.3,2.5-1.6,2.2-3.3c-0.3-1.4-1.6-2.5-3.3-2.2
			l-10.4,2.2C146.7,46.7,145.6,48.1,146.2,49.7z"/>
		<path d="M148.1,77l10.1,2.2c0.3,0,0.3,0,0.5,0c1.4,0,2.5-0.8,2.7-2.2s-0.5-3-2.2-3.3l-10.1-2.2c-1.4-0.3-3,0.5-3.3,2.2
			C145.6,75.1,146.7,76.5,148.1,77z"/>
		<path d="M139.1,89.4c-1.1-1.1-2.7-1.1-3.8,0c-1.1,1.1-1.1,2.7,0,3.8l6.3,6.6c0.5,0.5,1.4,0.8,1.9,0.8c0.8,0,1.4-0.3,1.9-0.8
			c1.1-1.1,1.1-2.7,0-3.8L139.1,89.4z"/>
	</g>
</g>
<g class="st0">
	<title>a</title>
	<g class="st1">
		<circle cx="63.4" cy="123.9" r="7.7"/>
		<path d="M193.4,104V93.3c0-1.1-0.4-1.9-1.1-2.7l-19.1-19.1c-0.8-0.8-1.5-1.1-2.7-1.1h-57.4V32c0-4.2-3.4-7.7-7.7-7.7H67.2
			c-4.2,0-7.7,3.4-7.7,7.7v26.8H-4c-2.3,0-4.2,0.8-5.7,2.7c-3.4,3.4-7.3,12.2-7.3,31.8V120c0,4.2,3.4,7.7,7.7,7.7h4.2
			c1.9,12.6,13.8,21,26.4,18.7c9.6-1.5,17.2-9.2,18.7-18.7h0.8c1.9,12.6,13.8,21,26.4,18.7c9.6-1.5,17.2-9.2,18.7-18.7h2.7
			c1.9,0,3.8-0.8,5.4-2.3l16.8-16.8c1.5-1.5,2.3-3.4,2.3-5.4v-9.9h48.2l7.7,7.7h-40.6c-4.2,0-7.7,3.4-7.7,7.7v24.5
			c0,3.1,1.5,5.7,4.2,6.9l13.4,6.5l0,0c0.4,0.4,1.1,0.4,1.5,0.4h11.5c2.3,0,3.8-1.5,3.8-3.8s-1.5-3.8-3.8-3.8h-7.7v-30.6h21
			c-9.1,10.4-7.5,26.6,4.5,34.5c8.7,5.8,20.7,4.9,28.3-2.3c10.1-9.5,9.8-25.2-0.3-34.2C196.1,105.9,195,104.7,193.4,104z M82.5,85.6
			V47.3h23v38.3H82.5z M-9.3,93.3C-9.3,74.1-5.1,68-4,66.5h63.5v34.8c-9.6,1.5-17.2,9.2-18.7,18.7h-0.4c0,0,0,0,0-0.4
			C38.1,107,26,99,13.2,101.3c-9.7,1.5-17.1,9.2-18.7,18.4c0,0,0,0,0,0.4h-3.8V93.3z M17.5,139.2c-8.4,0-15.3-6.9-15.3-15.3
			s6.9-15.3,15.3-15.3s15.3,6.9,15.3,15.3S25.9,139.2,17.5,139.2z M63.4,139.2c-8.4,0-15.3-6.9-15.3-15.3s6.9-15.3,15.3-15.3
			s15.3,6.9,15.3,15.3S71.9,139.2,63.4,139.2z M105.4,102.9L88.3,120h-2.7c-1.6-9.4-9-16.8-18.3-19.1c-0.4,0,0.4,0,0,0V32h38.3v7.7
			h-23c-4.2,0-7.7,3.4-7.7,7.7v38.3c0,4.2,3.4,7.7,7.7,7.7h23V102.9z M162.8,85.6h-49.7V78h55.9l16.8,16.8v6.1h-0.4
			c-1.1-0.4-2.3-0.4-3.4-0.4s-2.3,0-3.4,0.4h-0.4v-0.4c0-1.1-0.4-1.9-1.1-2.6l-11.5-11.2C164.7,86,164,85.6,162.8,85.6z
			 M128.4,108.6h7.7v28.3l-7.7-3.8V108.6z M182.1,139.2c-8.4,0-15.3-6.9-15.3-15.3c0-6.1,3.4-11.5,9.2-13.8l0,0
			c3.1-1.1,6.1-1.5,9.2-0.8c8.4,1.9,13.4,9.9,11.9,18.4C195.4,134.2,189.3,139.2,182.1,139.2z"/>
		<circle cx="182.1" cy="123.9" r="7.7"/>
		<circle cx="17.5" cy="123.9" r="7.7"/>
		<path d="M2.2,93.3h30.6c2.3,0,3.8-1.5,3.8-3.8c0-2.3-1.5-3.8-3.8-3.8H2.2c-2.3,0-3.8,1.5-3.8,3.8C-1.6,91.7-0.1,93.3,2.2,93.3z"/>
		<path d="M2.2,81.8h30.6c2.3,0,3.8-1.5,3.8-3.8s-1.5-3.8-3.8-3.8H2.2c-2.3,0-3.8,1.5-3.8,3.8S-0.1,81.8,2.2,81.8z"/>
	</g>
</g>
<g class="st0">
	<title>015 - Tractor</title>
	<desc>Created with Sketch.</desc>
	<g class="st1">
		<g>
			<path d="M23.2,125.3c-10.3,0-18.4,8.1-18.4,18.4s8.1,18.4,18.4,18.4s18.4-8.1,18.4-18.4S33.5,125.3,23.2,125.3z M23.2,154.8
				c-6.3,0-11.1-4.8-11.1-11.1c0-6.3,4.8-11.1,11.1-11.1s11.1,4.8,11.1,11.1C34.3,150,29.5,154.8,23.2,154.8z"/>
			<path d="M133.8,147.5c-4.4,0-8.5,2.6-10.3,7c-1.8,4.1-0.7,8.8,2.6,12.2c3.3,3.3,8.1,4.1,12.2,2.6c4.1-1.8,7-5.9,7-10.3
				C144.9,152.6,140.1,147.5,133.8,147.5z M133.8,162.2c-2.2,0-3.7-1.8-3.7-3.7c0-2.2,1.8-3.7,3.7-3.7c2.2,0,3.7,1.8,3.7,3.7
				C137.5,160.7,136,162.2,133.8,162.2z"/>
			<path d="M40.2,181.8c10.7-4.8,18.8-14.4,22.1-25.8h46.1c-1.5,10.3,3.3,20.6,12.2,25.8 M147.3,180.6c7.4-4.4,12.2-12.5,12.5-21.4
				s-3.7-17-11.1-22.1v-29.5c0-1.8-1.5-3.3-3.3-3.7l-22.1-2.6l10-52.3h37.6h16.6c1.1,0,1.8-0.4,2.6-1.1L202.9,35
				c1.4-1.4,1.4-3.7,0-5.2L171.6-1.5c-1.4-1.4-3.7-1.4-5.2,0l-12.9,12.9c-0.7,0.7-1.1,1.5-1.1,2.6v16.6c0,1.1,0.4,1.8,1.1,2.6
				l8.5,8.5h-30.2l-7.4-7.4h16.8c0,0,3.7-2.6,3.7-4.8s-1.5-3.7-3.7-2.6h-25.8c-0.4-1.1-0.7-1.1-1.5-0.7c0,0-0.4,0-0.4,0.4
				c-0.4,0-0.7,0.4-1.7,0.4l0,0v0.4c0.5,0.4,0.5,0.4,0.5,0.7l3.1,0.4v0.4L98.4,97.7l-12.3-1.5V52.7c0-2-1.7-3.7-3.7-3.7H16
				c-2.2,0-3.7,1.5-3.7,3.7s1.5,3.7,3.7,3.7h3.7v33.2H16c-2.2,0-3.7,1.5-3.7,3.7c0,2.2,1.5,3.7,3.7,3.7h3.7v6.6
				c-18.4,1.5-33.2,15.5-36.1,33.5c-2.9,18.1,6.3,35.8,22.9,43.5 M159.8,15.5l9.2-9.2l26.2,26.2l-9.2,9.2h-13.6l-12.5-12.5V15.5z
				 M78.7,100.7v14.7h-5.5c-4.4-8.5-11.8-15.9-20.3-20.3V56.4h25.8V100.7z M27.1,56.4h18.4v35.4c-4.8-1.5-9.6-2.2-14.7-2.2h-3.7
				V56.4z M30.8,97c5.9,0,11.4,1.1,17,3.7c8.8,4.1,15.9,11.1,19.9,19.9c2.6,5.2,3.7,11.1,3.7,17v11.1l-7.4,0
				c-0.1-0.1-0.1-0.1-0.1-0.2c1.9-22.6-14.5-41.8-36.7-43.7V97H30.8z M23.2,177c-14,0-26.5-8.8-31.3-22.1
				c-4.8-13.3-0.7-28,10.3-36.9c10.7-8.8,26.2-10,38-2.6c11.8,7.4,18.1,21.4,15.5,35C52.7,165.9,39.1,177,23.2,177z M152.2,158.5
				c0,10.3-8.1,18.4-18.4,18.4c-10.3,0-18.4-8.1-18.4-18.4s8.1-18.4,18.4-18.4C144.1,140.1,152.2,148.2,152.2,158.5z M141.4,134.9
				c-12.2-3.7-25.1,2.2-30.6,13.6H78.7v-11.1c0-5.2-0.7-10-2.2-14.7h5.9c0,0,0,0,0.4,0s0,0,0,0l47.2,3.7h0.4c2.2,0,3.7-1.5,3.7-3.7
				c0-2.2-1.5-3.7-3.7-3.7l-44.2-3.3v-10.7l55.3,6.6V134.9z M105.4,98.4l12.2-61.6l8.5,8.5l-10.3,54.2L105.4,98.4z"/>
		</g>
	</g>
</g>
<g class="st0">
	<path class="st1" d="M176.3,4.5L-16.8,142.1c-2,1.4-2.4,3.7-1,5.7l0,0L6,181.1c1.4,2,3.7,2.4,5.7,1l0,0L204.8,44.4
		c2-1.4,2.4-3.7,1-5.7l0,0L182,5.4C180.6,3.4,178.3,3.1,176.3,4.5L176.3,4.5z M183.4,49.6l-11.7,8.3c1.5-12.6-6.5-24-19-26.6
		l11.7-8.3L183.4,49.6z M26.2,142.5c-5.2-7.3-3.5-17.6,3.8-22.8s17.6-3.5,22.8,3.8c5.2,7.3,3.5,17.6-3.8,22.8
		C41.7,151.6,31.5,149.9,26.2,142.5z M46.2,107.2l21.6-15.4l7.1,10c1.4,2,3.7,2.4,5.7,1l0,0l26.6-19c2-1.4,2.4-3.7,1-5.7l0,0
		l-7.1-10l21.6-15.4c-1.5,12.6,6.5,24,19,26.6l-76.6,54.6C66.4,121.5,58.3,110.1,46.2,107.2z M132.8,66.6
		c-5.2-7.3-3.5-17.6,3.8-22.8c7.3-5.2,17.6-3.5,22.8,3.8s3.5,17.6-3.8,22.8C148.3,75.7,138,74,132.8,66.6z M94.5,72.8l4.7,6.7
		l-20,14.2l-4.7-6.7L94.5,72.8z M-8.7,146.4l6.7-4.7l19,26.6l-6.7,4.7L-8.7,146.4z M4.6,136.9l11.7-8.3c-1.5,12.6,6.5,24,19,26.6
		l-11.7,8.3L4.6,136.9z M196.7,40.1l-6.7,4.7l-19-26.6l6.7-4.7L196.7,40.1z"/>
	<path class="st1" d="M31.5,142.8l20-14.2c2-1.4,2.4-3.7,1-5.7s-3.7-2.4-5.7-1l-20,14.2c-2,1.4-2.4,3.7-1,5.7S29.5,144.3,31.5,142.8
		z"/>
	<path class="st1" d="M138,66.9l20-14.2c2-1.4,2.4-3.7,1-5.7c-1.4-2-3.7-2.4-5.7-1l-20,14.2c-2,1.4-2.4,3.7-1,5.7
		C133.7,68,136,68.3,138,66.9z"/>
</g>
<g class="st0">
	<path class="st1" d="M176.2-15.1l-29.2,34v31.6h-23.9V18.9L94-15.1l-29.2,34v31.6H41V18.9l-29.2-34l-29.2,34v182.7H41v-37.1h23.9
		v37.1h58.4v-37.1H147v37.1h58.4V18.9L176.2-15.1z M33,196.3h-45.1v-31.8H33v31.7V196.3z M33,159.2h-45.1V58.4H33v99.9V159.2z
		 M33,50.4h-45.1V21L10.4-6.1L33,21v29.9V50.4z M64.8,159.2H41V58.4h23.9V159.2z M117.6,196.3H70.1v-31.8h47.7v31.8H117.6z
		 M117.6,159.2H70.1V58.4h47.7v100.8H117.6z M117.6,50.4H70.1V21L94-6.1L117.9,21v29.4H117.6z M147,159.2h-23.9V58.4H147V159.2z
		 M197.4,196.3h-45.1v-31.8h45.1v31.7V196.3z M197.4,159.2h-45.1V58.4h45.1v99.9V159.2z M199.8,50.4h-47.5V21l23.9-27.1L200.1,21
		v29.4H199.8z"/>
</g>
</svg>
