<?xml version="1.0" encoding="utf-8"?>
<!-- Generator: Adobe Illustrator 23.0.4, SVG Export Plug-In . SVG Version: 6.00 Build 0)  -->
<svg version="1.1" id="Layer_1" xmlns="http://www.w3.org/2000/svg" xmlns:xlink="http://www.w3.org/1999/xlink" x="0px" y="0px"
	 viewBox="0 0 200.6 157.7" style="enable-background:new 0 0 200.6 157.7;" xml:space="preserve">
<style type="text/css">
	.st0{display:none;}
	.st1{display:inline;}
</style>
<g class="st0">
	<g class="st1">
		<path d="M-5.2,155l204.3,0c2.4,0,4.6-1.4,5.4-3.6c1.2-3.7-1.6-7.2-5.1-7.2h-11.9c3.5-12.1,8.6-26.4,16.2-37c0,0,0-0.3,0.3-0.3
			v-0.9c0,0-0.5-1.9-0.5-3c0-3-2.4-5.4-5.4-5.4c-0.8,0-1.6,0.3-2.2,0.5c-1.3,0.5-15.9,7-30,20c-2.2-7.8-4.3-18.1-5.4-30
			c-0.3-2.2-1.9-4.3-4-4.9c-2.2-0.5-4.6,0.3-5.9,2.2c-0.3,0.5-6.2,9.4-12.4,22.1c-5.1-22.4-1.9-48-1.6-48.3c0.3-2.7-1.1-5.1-3.5-5.9
			c-2.4-0.8-5.1,0.3-6.5,2.4l-40.5,71c-4.6-39.4,6.7-85.3,7-85.8c0.5-2.4-0.5-4.9-2.7-6.2c-2.2-1.1-4.9-0.5-6.5,1.3
			c-15.9,18.9-25.4,42.4-31,63.1c-5.7-15.1-10.3-24-10.5-24.6c-1.3-2.4-4-3.5-6.5-2.7c-2.4,0.8-4,3.5-3.5,6.2
			c1.1,5.4,1.3,20.5,1.1,42.4C23.6,105.3,15,94.5,14.5,93.9c-1.6-2.2-4.6-2.7-7-1.3c-2.4,1.3-3.2,4.3-2.2,6.7
			c7.8,17.8,8.9,32.9,8.1,44.9H-5c-3-1.5-5.4,1-5.4,3.9C-10.4,151.1-5.2,155-5.2,155z M183.9,118.3c-3.8,8.9-6.7,17.8-8.9,25.9
			h-16.7c2.4-4,5.4-7.8,8.9-11.3l0.3-0.3C172.9,126.7,178.8,122.1,183.9,118.3z M151.8,105.6c1.6,8.6,3.5,16.2,5.4,22.1
			c-4.6,5.1-8.4,10.5-11.3,16.5h-8.6c1.1-5.7,2.7-11.6,5.4-18.1C145.3,118.3,148.8,111.3,151.8,105.6z M131.6,124.3
			c-2.7,7-4.3,13.8-5.4,20h-37l35.1-61.8C124.6,95.1,126.2,111,131.6,124.3z M77.6,143.1l-0.5,1.1H65.5c-1.6-7.8-3.8-15.9-6.2-23.7
			c3-15.7,8.4-35.6,18.1-54.2C74.1,87.3,71.7,117.5,77.6,143.1z M48.5,122.1L48.5,122.1c2.2,7.6,4,14.8,5.7,22.1h-8.4
			c-0.8-1.6-1.6-3-2.4-4.3c0.3-10,0.5-20.8,0.5-31C45.5,112.9,46.8,117.2,48.5,122.1z M23.6,127.2c3.3,5.3,6.7,10.8,10,17
			c0,0,0,0,0,0l-9.4,0C24.4,139.4,24.4,133.7,23.6,127.2z"/>
	</g>
</g>
<g class="st0">
	<path class="st1" d="M44.4,177c1,1,1.5,2.2,1.5,3.4c0,1.2-0.5,2.4-1.5,3.4s-2.2,1.5-3.4,1.5c-0.7,0-1.2-0.2-1.9-0.5
		c-0.5-0.2-1.2-0.5-1.5-1c-1-1-1.5-2.2-1.5-3.4c0-1.2,0.5-2.4,1.5-3.4c1.2-1.2,2.9-1.7,4.4-1.5c0.2,0,0.5,0.2,1,0.2
		c0.2,0.2,0.5,0.2,0.7,0.5S44.1,176.7,44.4,177z M192.1,188.1c-0.2-0.2-0.2-0.5-0.5-0.7c-0.2-0.2-0.5-0.5-0.5-0.7
		c-1.2-1.2-3-1.7-4.5-1.5c-0.2,0-0.7,0.2-1,0.2c-0.2,0.2-0.5,0.2-0.7,0.5s-0.5,0.5-0.7,0.5c-0.2,0.2-0.5,0.5-0.5,0.7
		c-0.2,0.2-0.2,0.5-0.5,0.7c-0.2,0.2-0.2,0.5-0.2,1c0,0.2,0,0.7,0,1c0,1.2,0.5,2.5,1.5,3.5c0.7,1.2,2,1.7,3.2,1.7
		c0.7,0,1.2-0.2,2-0.5c0.5-0.2,1.2-0.5,1.5-1c1-1,1.5-2.2,1.5-3.5c0-0.2,0-0.7,0-1C192.3,188.9,192.3,188.4,192.1,188.1z
		 M211.4,196.3c-2.2,9.4-10,16.9-19.6,18.4c-9.7,1.6-18.4-2.6-23.5-9.4H65.6c-6.7,6.7-16.3,10.4-26.6,9.6
		c-16.4-1.3-29.7-14.5-31.2-30.9c-1.6-18.1,11-33.8,28.1-36.6L14.1,29.2c-0.5-2.2-2.4-3.9-4.9-3.9l-10.9,0c-2.1,0-4.2-1.2-4.8-3.2
		c-1.1-3.3,1.4-6.5,4.6-6.5H9.5c7.1,0,12.9,4.9,14.3,11.7l22.1,119.9c1.5,0.2,2.7,0.5,4.1,0.7l50.1,6.8v-15.1h-7.3
		c-2.7,0-4.9-2.2-4.9-4.9v-4.9c0-13.4,10.9-24.3,24.3-24.3h14.6c13.4,0,24.3,10.9,24.3,24.3v4.9c0,2.7-2.2,4.9-4.9,4.9h-7.3v20.2
		l49.1,6.6C203.2,166.7,215,180.8,211.4,196.3z M140.7,129.9c0-8-6.6-14.6-14.6-14.6h-14.6c-8,0-14.6,6.6-14.6,14.6H140.7z
		 M109.9,139.6v16.3l19.5,2.7v-19H109.9z M65.3,180.4c0-11.2-7.5-20.4-17.8-23.3l-6.8-1c-13.4,0.2-24.1,10.9-24.1,24.3
		c0,13.4,10.9,24.3,24.3,24.3S65.3,193.8,65.3,180.4z M169.4,173.9L67.9,160.3c4.4,5.8,7.1,12.9,7.1,20.7c0,5.4-1.2,10.2-3.4,14.6
		H163c-0.2-1.7-0.5-3.2-0.5-4.9C162.5,184.1,165.2,178.3,169.4,173.9z M201.5,190.1c0-8-6.6-14.6-14.6-14.6c-8,0-14.6,6.6-14.6,14.6
		c0,8,6.6,14.6,14.6,14.6C194.9,204.7,201.5,198.1,201.5,190.1z"/>
</g>
<g class="st0">
	<path class="st1" d="M17.7,160.1c4.2,0.4,7.7-1.1,10.4-4.1c4.2,5.1,11.8,5.7,16.9,1.2c0.6-0.3,0.9-0.9,1.2-1.2
		c4.2,5.1,11.8,5.7,16.9,1.2c0.6-0.3,0.9-0.9,1.2-1.2c4.2,5.1,11.8,5.7,16.9,1.2c0.6-0.3,0.9-0.9,1.2-1.2c4.2,5.1,11.8,5.7,16.9,1.2
		c0.6-0.3,0.9-0.9,1.2-1.2c4.2,5.1,11.8,5.7,16.9,1.2c2.4-2.1,3.9-4.8,4.2-8.1l31,31c1.1,1.1,2.3,1.2,5.5,0.2
		c10.6-3.4,17.7-13.4,17.7-24.6V109h3c1.7,0,3-1.3,3-3V93.9v-0.3v-0.3l-6-36.2c-0.3-1.5-1.5-2.4-3-2.4h-18.1c-1.5,0-2.7,1.2-3,2.4
		l-6,36.2v0.3v0.3V106c0,1.7,1.3,3,3,3h3v38l-30.1-30.1l0-59.3c0-6.3-5.1-12.2-11.3-12.6c-3.9-0.2-7.5,1.3-9.8,4.2
		c-4.2-5.1-11.8-5.7-16.9-1.2c-0.6,0.3-0.9,0.9-1.2,1.2c-4.2-5.1-11.8-5.7-16.9-1.2c-0.6,0.3-0.9,0.9-1.2,1.2
		c-4.2-5.1-11.8-5.7-16.9-1.2c-0.6,0.3-0.9,0.9-1.2,1.2C42,44,34.5,43.4,29.3,47.9c-0.6,0.3-0.9,0.9-1.2,1.2
		c-4.2-5.1-12.1-5.7-16.9-1.2C8.5,50,7,53.4,7,57l0,90.8C7,153.7,11.8,159.6,17.7,160.1z M175.8,103h-24.1v-6h24.1V103z M156.9,60.8
		h13l5.1,30.1H152L156.9,60.8z M169.8,109v51.2c0,7.2-5.1,13.3-12.1,14.8v-66H169.8z M151.7,154.6v15.7l-30.1-30.1v-15.7
		L151.7,154.6z M115.5,57.3c0,14.5,0,75.4,0,89.8c0,2.6-1.5,5.2-4,6c-4.2,1.4-8-1.7-8-5.7V57c0-4,3.9-7.1,8-5.7
		C114,52.1,115.5,54.6,115.5,57.3z M97.5,57.3c0,14.5,0,75.4,0,89.8c0,2.6-1.5,5.2-4,6c-4.2,1.4-8-1.7-8-5.7V57c0-4,3.9-7.1,8-5.7
		C95.9,52.1,97.5,54.6,97.5,57.3z M79.4,57.3c0,14.5,0,75.4,0,89.8c0,2.6-1.5,5.2-4,6c-4.2,1.4-8-1.7-8-5.7V57c0-4,3.9-7.1,8-5.7
		C77.8,52.1,79.4,54.6,79.4,57.3z M61.3,57.3c0,14.5,0,75.4,0,89.8c0,2.6-1.5,5.2-4,6c-4.2,1.4-8-1.7-8-5.7V57c0-4,3.9-7.1,8-5.7
		C59.8,52.1,61.3,54.6,61.3,57.3z M43.2,57.3c0,14.5,0,75.4,0,89.8c0,2.6-1.5,5.2-4,6c-4.2,1.4-8-1.7-8-5.7V57c0-4,3.9-7.1,8-5.7
		C41.7,52.1,43.2,54.6,43.2,57.3z M13.1,57c0-4,3.9-7.1,8-5.7c2.5,0.8,4,3.4,4,6c0,14.5,0,75.4,0,89.8c0,2.6-1.5,5.2-4,6
		c-4.2,1.4-8-1.7-8-5.7V57z"/>
	<path class="st1" d="M163.8,32.9c-1.8,0-3,1.2-3,3v9c0,1.8,1.2,3,3,3s3-1.2,3-3v-9C166.8,34.1,165.6,32.9,163.8,32.9z"/>
	<path class="st1" d="M166.8,14.8c0-1.8-1.2-3-3-3s-3,1.2-3,3v9c0,1.8,1.2,3,3,3s3-1.2,3-3V14.8z"/>
	<path class="st1" d="M139.4,32.9c0,1.8,1.2,3,3,3c5.1,0,9,3.9,9,9c0,1.8,1.2,3,3,3s3-1.2,3-3c0-8.4-6.6-15.1-15.1-15.1
		C140.6,29.8,139.4,31.1,139.4,32.9z"/>
	<path class="st1" d="M184.6,29.8c-8.4,0-15.1,6.6-15.1,15.1c0,1.8,1.2,3,3,3c1.8,0,3-1.2,3-3c0-5.1,3.9-9,9-9c1.8,0,3-1.2,3-3
		S186.4,29.8,184.6,29.8z"/>
</g>
<g class="st0">
	<g class="st1">
		<path d="M84.9,90.3c-4.2,3.9-4.3,10.1-0.4,14.3c3.9,4.2,10.1,4.3,14.3,0.4c4.2-3.9,4.3-10.1,0.4-14.3
			C95.3,86.6,89.1,86.4,84.9,90.3z M94.2,100.1c-1.5,1.4-3.4,1.3-4.8-0.1c-1.4-1.5-1.3-3.4,0.1-4.8c1.5-1.4,3.4-1.3,4.8,0.1
			C95.7,96.8,95.6,98.7,94.2,100.1z"/>
		<path d="M195.2,111.1L152,89l0,0c-0.2-0.2-0.7-0.3-1.2-0.3l0,0l0,0l-31.1-2.6l-0.2-0.2l-31.2-62l0,0C82.6,12.8,71.7,4.8,59.4,2.8
			C53.1,1.7,47,2.3,41,4.1c-1.2-0.3-1.5,0-2,0.4c-0.5,0.5-0.8,0.7-0.8,1.2c-0.5,1-0.3,2.2,0.4,2.9l42.1,64.4l-0.5,0.5l-10.6,10
			L8.1,37.5c-1-0.5-2.2-0.8-2.9-0.5s-1,0.5-1.5,0.9c-0.5,0.5-0.8,0.7-0.8,1.2c-2.4,6-2.9,12.1-2.4,18.2l0,0l0,0l0,0
			c1.2,12.4,8.6,23.8,19.3,30.1l60,34.9l0.2,0.2l0.7,31.2l0,0l0,0c0,0.5,0.2,0.7,0.2,1.2l0,0l19.5,44.5c1.8,3.9,5.1,6.9,8.9,8.5
			c4.1,1.3,8.5,0.9,12.5-1c1.2-0.7,2.5-1.4,3.5-2.4c5.1-4.8,6.6-12.3,3.4-18.7l-21.5-43.1l-5.6-24.7l12.1-11.4l24.3,7.1l41.7,24
			c6.2,3.5,13.8,2.5,18.8-2.3c1-1,1.8-2.2,2.6-3.4c2.3-3.6,2.8-8.2,1.7-12.4C201.8,116.6,199.1,113.1,195.2,111.1z M82.4,29.4
			L82.4,29.4l25.2,48.8l-2.3-2.4c-0.7-0.7-1.4-1.5-2.3-2c-0.2-0.2-0.5-0.5-0.7-0.3c-0.7-0.3-1.2-0.7-1.9-1c-0.2-0.2-0.2-0.2-0.7-0.3
			c-0.9-0.5-1.9-0.5-2.8-1l-0.5,0l-0.5,0l0,0c1.2-1.2,1.5-2.8,0.6-4.3L66.7,14.6C73.3,17.2,79.3,22.6,82.4,29.4z M53.5,13.3
			c0.5,0,1,0,1.4,0c1,0,1.7,0.3,2.6,0.3l31.9,55.9L87,71.9l-38.5-58C50.2,13.7,51.9,13.5,53.5,13.3z M9.9,55.8c0-0.5,0-1,0-1.4
			c0-1.4,0.3-3.1,0.6-4.7l55.9,41.7L64,93.5L10.1,58.4C10.1,57.4,10.1,56.5,9.9,55.8z M123.1,189.7c2,4.1,0.4,9.3-3.7,11.3
			c-2.2,1.1-4.3,1.3-6.9,0.5c-2.1-0.8-4-2.3-4.9-4.7l-18.1-40.8l13.5-6.3L123.1,189.7z M100.7,143.8l-12.3,5.6l-1-23.1
			c0.7,0.3,1.4,0,2.4,0.1l0.5,0c0.5,0,1.2-0.2,1.7-0.2c0.2-0.2,0.5,0,0.7-0.2c0.5,0,0.7-0.2,1.4-0.4c0.2-0.2,0.7-0.2,1-0.4
			c0.2-0.2,0.7-0.2,1-0.4L100.7,143.8z M112.7,103.2L98,117c-2.7,2.5-7,3.4-10.5,2.1c-0.5,0-0.9-0.5-1.6-0.8L26.8,83.7
			c-6.5-4-11.6-9.9-14-16.8l50.4,32.9c1.2,0.7,3.1,0.8,4.3-0.3l7.3-6.9L87.1,81c4.1-3.8,10.4-3.6,14.3,0.4l11.5,12.2
			c0.5,0.5,1.4,1,2.1,1.3l3.1,0.3l0,0l27.5,2.7l-6.3,11.9l-23.3-7.1C114.8,102,113.6,102.2,112.7,103.2z M194.6,124.8
			c0.6,2.2,0.3,4.8-0.9,6.9c-2.3,4-7.5,5.2-11.5,3l-38.4-22.6l7.1-13.1l39.6,20.5C192.3,120.9,193.9,122.6,194.6,124.8z"/>
	</g>
</g>
<g class="st0">
	<g class="st1">
		<g>
			<path d="M109.1,85.4c11.5-1.5,20.9-7.9,20.9-14.9c0-4.9-4.4-8.5-8.2-10.7c-5.5-3.2-11.9-4.5-18.1-4.5c4-4,7.4-9,9.2-14.4
				c1.5-4.7,2.3-11-1.3-14.9c-3.3-3.3-9-3-13.4-1.8c-6,1.7-11.7,5.2-16.1,9.7c0-8.2-2.3-17.9-8.9-23.6c-2.3-2.2-5.7-3.3-9-2.2
				c-4.2,1.5-7,5.5-8.9,9.4c-2.5,5-3.7,10.7-3.5,16.4C47.5,29.5,42,26,36,24.3c-4.4-1.2-10-1.7-13.6,1.8c-3.8,3.8-3,10.2-1.3,14.9
				c1.8,5.5,5.2,10.4,9.2,14.4c-6.2,0-12.7,1.3-18.1,4.5C8.4,62,4,65.6,4,70.5s4.4,8.5,8.2,10.7c5.5,3.2,11.9,4.5,18.1,4.5
				c-4,4-7.4,9-9.2,14.4c-1.5,4.7-2.3,11,1.3,14.9c3.8,3.8,10.2,2.8,14.7,1.3c5.5-1.8,10.5-5.2,14.6-9.2c0,6.2,1.3,12.7,4.5,18.1
				c2.2,3.8,5.9,8,10.7,8c4.9,0,8.5-4.2,10.7-8c3.2-5.5,4.5-11.9,4.5-18.1c4,4.2,9,7.4,14.6,9.2c4.5,1.5,10.9,2.3,14.7-1.3
				c4.9-4.9,2.3-13.4-0.2-18.6c2.3,2.3,4.5,4.9,6.7,7.7c14.2,18.9,24.4,52.5-6,105.9c-2.2,3.7,3.7,7,5.9,3.3
				c10.9-18.9,16.7-35.6,19.2-50.2c6.7,2.7,14.2,3.8,21.3,1.7c5.7-1.7,9-5,14.1-9.9c7.7-7.4,15.7-14.1,24.4-20.1
				c1.8-1.2,2-4,0.2-5.4c-13.2-10.5-31.8-12.2-46-4c-5.9,3.3-9.9,7.7-12.9,12C135.2,111,120,94.3,109.1,85.4z M104.1,62
				c11.9,0,19.4,6,19.4,8.5c0,2.5-7.5,8.5-19.4,8.5c-5.2,0-9.4-1.2-12.6-2.5c1-3.8,1-7.9,0-11.9C94.7,63.1,98.9,62,104.1,62z
				 M87.2,38.4c8.7-9.5,19.1-8.2,19.6-7.5c0.5,0.7,1.8,9.4-7.5,19.6c-3.5,3.7-7.4,5.9-10.7,7c-2-3.3-5-6.4-8.4-8.4
				C81.3,45.7,83.7,41.9,87.2,38.4C93.4,32.2,83.9,42.1,87.2,38.4z M67.1,14.3c2.5,0,8.5,7.5,8.5,19.4c0,5-1.2,9.4-2.5,12.6
				c-3.8-1-8-1-11.9,0c-1.5-3.2-2.5-7.5-2.5-12.6C58.6,21.8,64.6,14.3,67.1,14.3z M27.3,30.8c0.5-0.7,10.7-1.5,19.6,7.5l0,0
				c3.5,3.5,5.9,7.4,7,10.7c-3.3,2.2-6.4,5-8.4,8.4c-3.3-1.2-7.4-3.3-10.7-7C24.8,39.5,26.8,31.5,27.3,30.8z M30.1,79
				c-11.9,0-19.4-6-19.4-8.5c0-2.5,7.5-8.5,19.4-8.5c5.2,0,9.4,1.2,12.6,2.5c-1,3.8-1,8,0,11.9C39.5,77.9,35.2,79,30.1,79z
				 M47,102.6c-8.4,8.4-17.9,9.4-19.7,7.7c-0.3-0.3-2.8-9.5,7.7-19.7c3.7-3.5,7.4-5.9,10.7-7c2,3.3,5,6.4,8.4,8.4
				C52.7,95.4,50.4,99.3,47,102.6z M67.1,126.9c-2.5,0-8.5-7.5-8.5-19.4c0-5,1.2-9.4,2.5-12.6c3.8,1,8,1,11.9,0
				c1.5,3.2,2.5,7.5,2.5,12.6C75.7,119.4,69.6,126.9,67.1,126.9z M67.1,88.9c-10.2,0-18.4-8.2-18.4-18.4c0-10.2,8.2-18.4,18.4-18.4
				s18.4,8.2,18.4,18.4C85.5,80.7,77.2,88.9,67.1,88.9z M107,110.3c-1.8,1.8-11.4,0.7-19.7-7.7c-3.5-3.5-5.9-7.4-7-10.7
				c3.3-2,6.4-5,8.4-8.4c3.3,1.2,7,3.5,10.7,7C109.8,100.3,107.3,110,107,110.3z M154.1,131.4c8.7-4.9,19.2-5.5,28.6-2.2
				c-9.9,1.7-19.4,6.4-27.1,10.5c-7,4-12.2,7.4-16.2,10.4C141.3,144.3,145.3,136.4,154.1,131.4z M179.1,140
				c-5,4.2-8.5,7.5-11.4,10.4c-4.7,4.5-7.2,7-11.4,8.2c-4.5,1.3-9.5,1-15.4-1c4.4-3.3,9.9-7.2,18.1-11.7c9.9-5.5,18.1-8.9,25.3-9.9
				C182.4,137.1,180.8,138.6,179.1,140z"/>
		</g>
	</g>
</g>
<g class="st0">
	<title>Artboard 10</title>
	<g class="st1">
		<path d="M39.1,130.7c-0.7-1.9-2.3-3.3-4.5-3.3H9.8l-8.2-24.9c-0.9-2.3-3.5-3.8-5.9-3c-2.3,0.9-3.8,3.5-3,5.9l8.9,26.7l-8.9,26.7
			c-0.7,2.3,0.5,5.2,3,5.9c2.3,0.7,5.2-0.5,5.9-3l8.2-24.9h21.3l8.2,24.9c0.9,2.3,3.5,3.8,5.9,3c2.3-0.9,3.8-3.5,3-5.9L39.1,130.7z"
			/>
		<path d="M118.1,99.2H89.9V52.3h75c2.6,0,4.7-2.1,4.7-4.7l0,0v-9.4c0-1.9-0.9-3.5-2.6-4.2L87.2-3.5c-1.2-0.7-2.8-0.7-4,0L3.4,34
			c-1.6,0.7-2.6,2.3-2.6,4.2v9.4c0,2.6,2.1,4.7,4.7,4.7l0,0h75v46.9H53.4c-2.6-0.5-4.7,1.6-4.7,4.2s2.1,4.7,4.7,5.2h27.1v46.9
			l-4.7,0c-1.7,0-3.3,0.8-4.1,2.3c-1.8,3.5,0.7,7.1,4.1,7.1l18.8,0c1.7,0,3.3-0.8,4.1-2.3c1.8-3.5-0.7-7.1-4.1-7.1h-4.7v-46.9
			l27.9,0c2,0,4-1.2,4.7-3.1C123.6,102.3,121.2,99.2,118.1,99.2z M10.2,41.3l75-35.4l75,35.4v1.6H10.2V41.3z"/>
		<path d="M170.9,132.1l8.9-26.7c0.7-2.3-0.5-5.2-3-5.9c-2.3-0.7-5.2,0.5-5.9,3l-8.2,24.9h-24.9c-2.1,0-3.8,1.4-4.5,3.3l-9.4,28.1
			c-0.7,2.3,0.5,5.2,3,5.9c2.3,0.7,5.2-0.5,5.9-3l8.2-24.9h21.3l8.2,24.9c0.9,2.3,3.5,3.8,5.9,3c2.3-0.9,3.8-3.5,3-5.9L170.9,132.1z
			"/>
	</g>
</g>
<g class="st0">
	<path class="st1" d="M179.3,81.7C176.8,71,168.2,63,157.6,60.9c0-0.6-0.2-1.3-0.4-1.9c-1.7-7.2-5.9-13.3-12.2-17.1
		c-5.1-3.2-10.9-4.6-16.8-4c-4.8-12.6-18.3-20-31.8-16.8c-4,0.8-7.8,2.7-10.9,5.3c-5.1-3.8-10.9-5.9-17.1-5.9
		c-10.9,0-20.8,6.7-25.1,16.6C28.5,36,16.1,46.8,14.2,60.7C0.8,62.4-9.6,74-9.6,87.8c0,11.6,7.4,22.1,18.1,25.9c0,0,0,0,0,0
		c-0.6,14.1,9.6,25.1,26.5,28.6c1.7,0.4,14.3,0.4,30.3,0.4c24,0,55.6-0.2,69.1-0.4l8.2-0.6h0.6c12.2-2.7,21.3-15.8,21.3-29.1
		C175.9,107.2,182.3,94.4,179.3,81.7z M158.9,106.2l-3.2,1.1l0.4,3.2c1.3,10.1-5.5,20.8-14.6,23.2l-7.4,0.6
		c-37.3,0.4-94.1,0.6-98.1,0c-4.7-1.1-20.1-5.3-20.1-19.4c0-1.3,0.2-2.5,0.4-3.6l0.8-4l-4-0.8c-8.9-1.9-15.3-9.9-15.3-19
		c0-10.7,8.7-19.4,19.3-19.4h4v-4c0-10.7,8.7-19.4,19.3-19.4c1.3,0,2.5,0.2,4,0.4l3.8,0.6l1.1-3.6c2.3-8.2,10-13.9,18.7-13.9
		c5.3,0,10.4,2.1,14,5.9l3,3.2l3-3.2c2.5-2.7,5.9-4.8,9.8-5.7c10.4-2.3,20.8,4,23.3,14.5l0.8,4l4-0.8c5.1-1.3,10.2-0.2,14.6,2.3
		c4.5,2.7,7.4,6.9,8.7,12c0.2,1.3,0.4,2.5,0.4,3.8v3.8l3.8,0.2c8.5,0.4,15.9,6.5,17.8,15C173.6,93.1,168.3,103,158.9,106.2z"/>
	<path class="st1" d="M136.4,79.1c-6.1-3.2-13.3-2.3-18.3,2.1c-3.8-1.9-8-2.3-12-1.1c-4.2,1.3-7.6,4-9.7,8c-0.4,0.8-0.2,1.7,0.6,2.1
		c0.8,0.4,1.7,0.2,2.1-0.6c1.7-3.2,4.4-5.5,7.8-6.5c3.4-1.1,6.9-0.6,10.1,1.1c0.2,0,0.2,0.2,0.4,0.2l1.1,0.6l0.8-0.8
		c4.2-4.2,10.5-5.1,15.6-2.3c6.5,3.4,8.8,11.6,5.5,18.1c-0.4,0.8-0.2,1.7,0.6,2.1c0.2,0.2,0.4,0.2,0.6,0.2c0.6,0,1.1-0.2,1.3-0.8
		C147.3,93.4,144.4,83.3,136.4,79.1z"/>
	<path class="st1" d="M54.7,61c-4.2-1.3-8.6-0.6-12.4,1.5c-5.9,3.4-9.3,9.9-8.2,16.6c-7.6,4.4-10.3,14.3-5.9,22.1
		c0.2,0.4,0.8,0.8,1.3,0.8c0.2,0,0.4,0,0.8-0.2c0.8-0.4,1.1-1.3,0.6-2.1c-3.6-6.3-1.3-14.5,5.3-18.1c0.2,0,0.2-0.2,0.4-0.2l1.1-0.4
		l-0.2-1.3c-1.3-5.7,1.5-11.6,6.5-14.3c3.2-1.7,6.7-2.1,10.1-1.3c3.4,1.1,6.3,3.2,8,6.3c0.4,0.8,1.3,1.1,2.1,0.6
		c0.8-0.4,1.1-1.3,0.6-2.1C62.5,65,58.9,62.3,54.7,61z"/>
</g>
<g>
	<g>
		<g>
			<path d="M200.6,38.3v-2.4h-14.3V19.1l2.4-3.3L183,0l-5.5,15.8l4.1,3.3v16.8h-23.9V19.1l3.6-3.3L155.7,0l-5.5,15.8l2.6,3.3v16.8
				h-21.5V20.1l3.5-3.3l-6-15.8l-5.8,15.8l3.5,3.3v15.8h-23.9V19.1l3.8-3.3L101,0l-5.5,15.8l2.4,3.3v16.8H76.4V19.1l2.9-3.3L73.8,0
				l-5.5,15.8l3.3,3.3v16.8H47.8V20.1l3.5-3.3L45.3,1l-5.8,15.8l3.5,3.3v15.8H21.5V19.1l3.1-3.3L19.1,0l-5.5,15.8l3.1,3.3v16.8H0
				v4.8h16.7v93.2H0v4.8h16.7v19.1h4.8v-19.1H43v19.1h4.8v-19.1h23.9v19.1h4.8v-19.1h21.5v19.1h4.8v-19.1h23.9v19.1h4.8v-19.1h21.5
				v19.1h4.8v-19.1h23.9v19.1h4.8v-19.1h14.3v-4.8h-16.7V38.3H200.6z M21.5,133.8V38.3h23.9v95.5H21.5z M47.8,133.8V38.3h23.9v95.5
				H47.8z M76.4,133.8V38.3h23.9v95.5H76.4z M102.7,133.8V38.3h23.9v95.5H102.7z M129,133.8V38.3h23.9v95.5H129z M181.5,133.8h-23.9
				V38.3h23.9V133.8z"/>
		</g>
	</g>
</g>
<g class="st0">
	<g class="st1">
		<g>
			<g>
				<g>
					<path d="M36.1,35.7c1.6,1.6,3.3,3.3,4.9,4.9c3.9,3.9,7.9,7.9,11.8,11.8c4.7,4.7,9.5,9.5,14.2,14.2c4.1,4.1,8.2,8.2,12.3,12.3
						c2,2,3.9,4.1,6,6c0,0,0.1,0.1,0.1,0.1c0-1.9,0-3.8,0-5.7L77,87.8h5.7c-1.6-1.6-3.3-3.3-4.9-4.9C73.9,78.9,70,75,66,71.1
						c-4.7-4.7-9.5-9.5-14.2-14.2c-4.1-4.1-8.2-8.2-12.3-12.3c-2-2-4-4.1-6-6c0,0-0.1-0.1-0.1-0.1c-1.5-1.5-4.2-1.6-5.7,0
						c-0.4,0.4-0.8,0.8-1.2,1.2c-0.2,0.2-0.4,0.4-0.7,0.7c0,0-0.1,0.1-0.1,0.1c-0.1,0.1-0.1,0.1-0.2,0.2c-0.4,0.4,0.1-0.2,0.2-0.2
						c0,0-0.6,0.3-0.6,0.4c0,0,0.8-0.3,0.4-0.2C25,40.8,26,40.6,26,40.6c0.3,0,0.6,0.1,0.9,0.2c0.5,0.1,0.2,0.1,0,0
						c0,0,0.6,0.4,0.2,0.1c-0.4-0.4,0.3,0.4,0.3,0.4c-0.1-0.1-0.2-0.2-0.3-0.3c-1.4-1.9-2.8-3.8-4.2-5.6c-3-4-6.1-8-9-12
						c-0.1-0.1-0.1-0.2-0.2-0.3c-0.2-0.3-0.4-0.8-0.1-0.1c-0.1-0.2-0.3-0.5,0,0c0.2,0.3,0,0.3,0,0c0,0-0.2,0.8,0,0.4
						c0.2-0.5-0.3,0.7-0.1,0.2c0.2-0.4-0.4,0.3-0.1,0.2c0.1-0.1,0.2-0.2,0.3-0.3c0.9-0.9,1.8-1.8,2.7-2.7c1.2-1.2,2.3-2.3,3.4-3.4
						c0.4-0.4,0.8-0.8,1.1-1.1c0.1-0.1,0.2-0.2,0.3-0.3c0.2-0.3-0.5,0.3-0.2,0.1c0.4-0.2-0.3,0.1-0.3,0.1c0.1,0,0.6-0.1,0,0
						c-0.5,0.1-0.1,0,0,0c0,0-0.8-0.1-0.4,0s-0.3-0.1-0.3-0.1s0.4,0.2,0.4,0.2c0.1,0.1,0.3,0.2,0.4,0.3c0.1,0.1,0.2,0.2,0.4,0.3
						c0.7,0.5,1.4,1.1,2.2,1.6c2.5,1.9,5,3.8,7.5,5.7c2.2,1.7,4.5,3.4,6.7,5c0.4,0.3,0.8,0.6,1.3,1c0,0-0.5-0.4-0.5-0.4
						c0.1,0.1,0.5,0.3,0.1,0c-0.3-0.2-0.1-0.2,0,0c-0.1-0.3-0.2-0.5-0.3-0.8c0-0.3,0-0.6,0.1-0.9c0,0.2-0.2,0.4,0.1,0
						c0.4-0.8-0.3,0.3-0.2,0.3c0-0.1,0.5-0.6,0.2-0.3c-0.1,0.1-0.2,0.2-0.3,0.3c0,0-0.1,0.1-0.1,0.1c-0.2,0.2-0.5,0.5-0.7,0.7
						c-0.4,0.4-0.8,0.8-1.2,1.2C34.6,31.5,34.5,34.2,36.1,35.7c1.6,1.5,4.1,1.6,5.7,0c1.2-1.2,2.5-2.3,3.4-3.7
						c1-1.6,1.4-3.6,0.8-5.4c-0.5-1.7-1.7-2.8-3.1-3.8c-1.7-1.3-3.5-2.6-5.3-4c-2.9-2.1-5.7-4.3-8.6-6.4c-1.6-1.2-3.2-2.7-5-3.6
						c-3-1.6-6.4-1.1-8.8,1.3c-1,0.9-1.9,1.9-2.8,2.8c-1.2,1.2-2.5,2.5-3.7,3.7c-1.1,1.1-2.2,2.1-2.8,3.6c-1.1,2.5-0.5,5.3,1.1,7.4
						c0.5,0.7,1.1,1.5,1.7,2.2c2,2.7,4.1,5.5,6.1,8.2c1.7,2.3,3.4,4.5,5.1,6.8c1.2,1.5,2.3,3,4.3,3.6c3.1,1.1,5.7-0.8,7.8-2.9
						c0.5-0.5,0.9-0.9,1.4-1.4h-5.7c1.6,1.6,3.3,3.3,4.9,4.9c3.9,3.9,7.9,7.9,11.8,11.8c4.7,4.7,9.5,9.5,14.2,14.2
						c4.1,4.1,8.2,8.2,12.3,12.3c2,2,4,4.1,6,6c0,0,0.1,0.1,0.1,0.1c1.9,1.9,5.3,1.5,6.5-1.2c2.3-2.3,4.4-4.3,6.7-6.6
						c2.5-1.3,2.8-4.6,1-6.5c-1.6-1.6-3.3-3.3-4.9-4.9c-3.9-3.9-7.9-7.9-11.8-11.8c-4.7-4.7-9.5-9.5-14.2-14.2
						c-4.1-4.1-8.2-8.2-12.3-12.3c-2-2-4-4.1-6-6c0,0-0.1-0.1-0.1-0.1c-1.5-1.5-4.3-1.6-5.7,0C34.6,31.6,34.5,34.1,36.1,35.7z"/>
				</g>
			</g>
			<g>
				<g>
					<path d="M183.4,177.3c-2.1,2.1-4.2,4.2-6.3,6.3c-0.7,0.7-1.4,1.5-2.2,2.2c-0.3,0.3-0.6,0.5-0.9,0.8c-0.5,0.5,0.6-0.4-0.2,0.2
						c-0.6,0.4-1.2,0.7-1.9,1.1c-0.6,0.3,0.7-0.2-0.2,0.1c-0.3,0.1-0.6,0.2-0.9,0.3c-0.4,0.1-0.7,0.2-1.1,0.3c-0.1,0-0.3,0-0.4,0.1
						c-0.5,0.1,0.9-0.1,0.1,0c-0.6,0-1.3,0.1-1.9,0.1c-0.3,0-0.6,0-1-0.1c-0.6,0,0.8,0.2,0.2,0c-0.2-0.1-0.5-0.1-0.7-0.1
						c-0.6-0.1-1.3-0.3-1.9-0.6c-0.7-0.2,0.7,0.3-0.2-0.1c-0.3-0.2-0.7-0.3-1-0.5c-0.3-0.2-0.6-0.4-0.9-0.5c-0.6-0.4,0,0.1,0.1,0.1
						c-0.1-0.1-0.4-0.3-0.4-0.4c-0.2-0.2-0.4-0.4-0.7-0.6c-0.1-0.1-0.2-0.2-0.3-0.3c-1.3-1.3-2.6-2.6-3.9-3.9
						c-5.1-5.1-10.2-10.3-15.4-15.4c-4.6-4.6-9.1-9.1-13.7-13.7c-0.5-0.5-1-1-1.4-1.4c-0.1-0.1-0.2-0.2-0.3-0.3
						c0-0.1-0.4-0.5-0.4-0.4c0.1,0,0.5,0.8,0.1,0.1c-0.1-0.1-0.1-0.2-0.2-0.4c-0.1-0.1-0.4-0.6-0.1-0.1c0.3,0.4,0-0.1-0.1-0.3
						c0-0.2-0.3-1.2-0.1-0.5c0.1,0.6,0-0.3,0-0.5c0-0.7-0.2,0.8,0-0.1c0-0.2,0.1-0.4,0.1-0.5c0.1-0.2,0.3-0.6,0-0.2
						c-0.3,0.5,0.2-0.4,0.3-0.5c0.4-0.7-0.1,0.1-0.1,0.1c0-0.1,0.4-0.4,0.4-0.4c0.1-0.1,0.2-0.2,0.3-0.3c1.2-1.2,2.5-2.5,3.7-3.7
						c0.3-0.3,0.7-0.7,1-1c1.5-1.5,1.6-4.2,0-5.8c-4.9-4.9-9.9-9.9-14.8-14.8c-0.7-0.7-1.4-1.4-2.1-2.1c0,1.9,0,3.8,0,5.8
						c2.8-2.8,5.6-5.6,8.5-8.5c-1.9,0-3.8,0-5.7,0c4.9,4.9,9.9,9.9,14.8,14.8c0.7,0.7,1.4,1.4,2.1,2.1c1.5,1.5,4.2,1.6,5.7,0
						c1.6-1.6,3.3-3.3,4.9-5c0,0,0.4-0.4,0.4-0.4c0,0-0.6,0.4-0.2,0.2c0.1-0.1,0.2-0.2,0.4-0.2c0.1-0.1,0.3-0.1,0.4-0.2
						c0.3-0.2-0.3,0.1-0.3,0.1c0.2,0,0.7-0.2,0.9-0.3c0.1,0,0.3,0,0.4-0.1c0,0-0.8,0-0.4,0.1c0.3,0,0.6,0,0.8,0c0.4,0-0.4,0-0.4-0.1
						c0.1,0.1,0.3,0.1,0.4,0.1c0.2,0.1,0.7,0.3,0.9,0.3c-0.1,0-0.7-0.4-0.3-0.1c0.1,0.1,0.2,0.1,0.4,0.2c0.1,0.1,0.2,0.2,0.4,0.2
						c0.4,0.2-0.3-0.2-0.2-0.2c0,0,0.4,0.4,0.4,0.4c0.1,0.1,0.1,0.1,0.2,0.2c2.8,2.8,5.6,5.6,8.5,8.5c4.7,4.7,9.4,9.4,14.1,14.1
						c3.6,3.6,7.2,7.2,10.8,10.8c0.4,0.4,0.8,0.8,1.1,1.1c0.1,0.1,0.2,0.2,0.2,0.2l0,0c0.2,0.2,0.4,0.4,0.6,0.7
						c0.1,0.1,0.2,0.2,0.3,0.3c0.4,0.4-0.4-0.6-0.1-0.1c0.3,0.5,0.6,1,0.9,1.5c0.1,0.2,0.2,0.5,0.4,0.8c0.2,0.4-0.1-0.3-0.1-0.3
						c0,0.2,0.2,0.5,0.2,0.7c0.2,0.5,0.3,1.1,0.4,1.6c0,0.1,0.1,0.3,0.1,0.4c0,0.2,0.2,0.4,0,0c-0.2-0.4,0-0.2,0,0
						c0,0.2,0,0.4,0,0.5c0,0.5,0,1.1,0,1.7c0,0.3-0.1,0.6-0.1,0.8c0,0,0.1-0.8,0-0.4c0,0.2-0.1,0.4-0.1,0.5
						c-0.1,0.5-0.3,1.1-0.4,1.6c0,0.1-0.1,0.3-0.1,0.4c-0.3,0.7,0-0.1,0.1-0.2c-0.2,0.1-0.3,0.7-0.4,0.9c-0.3,0.5-0.6,1-0.9,1.5
						c-0.2,0.4,0.2-0.2,0.2-0.2c0,0-0.3,0.3-0.3,0.3C183.9,176.8,183.6,177,183.4,177.3c-1.5,1.5-1.6,4.2,0,5.8
						c1.6,1.5,4.2,1.6,5.7,0c4.3-4.4,6.1-10.7,4.8-16.7c-0.8-3.5-2.7-6.5-5.2-8.9c-3.2-3.3-6.5-6.5-9.7-9.8
						c-4.9-4.9-9.8-9.9-14.8-14.8c-3.2-3.2-6.4-6.4-9.6-9.6c-2.9-2.9-6.9-4.3-10.9-3.2c-3.8,1-6.4,4.3-9,7c-0.3,0.3-0.5,0.5-0.8,0.8
						c1.9,0,3.8,0,5.7,0c-4.9-4.9-9.9-9.9-14.8-14.8c-0.7-0.7-1.4-1.4-2.1-2.1c-1.5-1.5-4.2-1.6-5.7,0c-2.8,2.8-5.6,5.6-8.5,8.5
						c-1.5,1.5-1.6,4.2,0,5.8c4.9,4.9,9.9,9.9,14.8,14.8c0.7,0.7,1.4,1.4,2.1,2.1c0-1.9,0-3.8,0-5.8c-1.1,1.1-2.1,2.1-3.2,3.2
						c-1.4,1.4-3,2.8-3.9,4.7c-1.8,4-1.3,8.3,1.5,11.7c0.4,0.4,0.8,0.8,1.1,1.2c4.1,4.1,8.3,8.3,12.4,12.4
						c5.5,5.5,11,11.1,16.6,16.6c4.3,4.3,8.4,9.3,14.8,10.4c6.1,1,11.9-1,16.3-5.3c2.5-2.5,4.9-4.9,7.4-7.4c0.2-0.2,0.4-0.4,0.7-0.7
						c1.5-1.5,1.6-4.3,0-5.8C187.5,175.8,185,175.7,183.4,177.3z"/>
				</g>
			</g>
			<g>
				<g>
					<path d="M143.3,142.9c3.2,3.2,6.5,6.5,9.7,9.7c5.2,5.2,10.3,10.3,15.4,15.4c1.2,1.2,2.4,2.4,3.5,3.5c1.5,1.5,4.3,1.6,5.7,0
						c1.5-1.6,1.6-4.1,0-5.7c-3.2-3.2-6.5-6.5-9.7-9.7c-5.2-5.2-10.3-10.3-15.4-15.4c-1.2-1.2-2.4-2.4-3.5-3.5
						c-1.5-1.5-4.3-1.6-5.7,0C141.8,138.8,141.7,141.3,143.3,142.9L143.3,142.9z"/>
				</g>
			</g>
			<g>
				<g>
					<path d="M169.3,174.3c-3.2-3.2-6.5-6.5-9.7-9.7c-5.2-5.2-10.3-10.3-15.4-15.4c-1.2-1.2-2.4-2.4-3.5-3.5c-1.5-1.5-4.3-1.6-5.7,0
						s-1.6,4.1,0,5.7c3.2,3.2,6.5,6.5,9.7,9.7c5.2,5.2,10.3,10.3,15.4,15.4c1.2,1.2,2.4,2.4,3.5,3.5c1.5,1.5,4.3,1.6,5.7,0
						C170.8,178.5,170.9,175.9,169.3,174.3L169.3,174.3z"/>
				</g>
			</g>
		</g>
		<g>
			<g>
				<g>
					<path d="M187.8,47c-4.8,4.8-9.7,9.7-14.6,14.6c-2.3,2.3-4.7,4.7-7,7c-0.2,0.2-0.3,0.3-0.5,0.5c-0.4,0.4-0.9,0.9-1.3,1.2
						c-0.4,0.3-0.8,0.6-1.1,0.9c0.1-0.1,0.6-0.5,0-0.1c-0.3,0.2-0.5,0.4-0.8,0.5c-0.7,0.5-1.4,0.9-2.2,1.3c-0.4,0.2-0.8,0.4-1.1,0.6
						c-0.2,0.1-0.5,0.2-0.7,0.3c-0.4,0.2-0.5,0.3,0,0c-0.8,0.4-1.8,0.7-2.6,0.9c-0.9,0.3-1.8,0.5-2.7,0.6c-0.2,0-0.4,0.1-0.6,0.1
						c-0.6,0.1,0.1-0.1,0.2,0c-0.1-0.1-1.1,0.1-1.2,0.1c-0.9,0.1-1.8,0.1-2.8,0.1c-0.9,0-1.9,0-2.8-0.2c0.1,0,0.9,0.1,0.2,0
						c-0.2,0-0.4-0.1-0.6-0.1c-0.5-0.1-1-0.2-1.5-0.3c-0.9-0.2-1.7-0.5-2.5-0.8c-0.3-0.1-0.5-0.2-0.8-0.3c-0.1,0-0.8-0.3-0.3-0.1
						c0.5,0.2-0.2-0.1-0.3-0.1c-0.3-0.1-0.6-0.3-0.9-0.4c-0.9-0.4-1.7-0.9-2.5-1.4c-0.4-0.2-0.8-0.5-1.1-0.8
						c-0.2-0.1-0.4-0.3-0.5-0.4c0.7,0.5-0.2-0.2-0.2-0.2c-0.3-0.3-0.7-0.6-1-0.9c0,0-0.5-0.5-0.5-0.5c-0.2,0.1,1.1,1.2-0.4-0.4
						c-0.3-0.3-0.6-0.7-1-1c-0.2-0.2-0.4-0.4-0.6-0.6c-0.1-0.1-0.6-0.8-0.3-0.4c0.3,0.4-0.1-0.2-0.2-0.3c-0.2-0.2-0.3-0.5-0.5-0.7
						c-0.2-0.4-0.5-0.8-0.7-1.1c-0.5-0.9-1-1.7-1.4-2.6c-0.1-0.2-0.2-0.4-0.3-0.6c0.3,0.8,0.1,0.2,0,0.1c-0.2-0.5-0.3-0.9-0.5-1.4
						c-0.3-0.9-0.6-1.9-0.8-2.8c-0.1-0.4-0.2-0.9-0.3-1.4c0-0.2-0.2-0.8,0,0.2c0-0.2,0-0.4-0.1-0.6c-0.1-0.9-0.1-1.8-0.1-2.8
						c0-0.9,0-1.7,0.1-2.6c0-0.2,0-0.4,0.1-0.6c0.1-0.6-0.2,1,0,0c0.1-0.4,0.2-0.9,0.2-1.4c0.2-0.9,0.4-1.7,0.7-2.5
						c0.1-0.4,0.3-0.8,0.4-1.2c0.1-0.2,0.1-0.4,0.2-0.6c0.3-0.9-0.3,0.6,0.1-0.2c0.8-1.7,1.8-3.3,2.8-4.9c0.1-0.1,0.5-0.6-0.1,0
						c0.1-0.2,0.3-0.3,0.4-0.5c0.3-0.3,0.6-0.7,0.9-1c0.3-0.3,0.6-0.7,0.9-1c1.8-1.8,3.7-3.7,5.5-5.5c5.5-5.5,11-11,16.4-16.4
						c0.1-0.1,0.2-0.2,0.3-0.3c2.1-2.1,1.2-6.1-1.8-6.8c-15.3-3.7-32-0.9-45,8.2c-6.7,4.7-12.4,10.7-16.6,17.7
						c-4,6.8-6.4,14.4-7.4,22.2c-1,8.3,0,17,2.9,24.8c0.3-1.3,0.7-2.6,1-4c-4.3,4.3-8.5,8.5-12.8,12.8c-5.6,5.6-11.3,11.3-16.9,16.9
						c-8.3,8.3-16.6,16.6-24.9,24.9c-6.1,6.1-12.3,12.3-18.4,18.4c-1.9,1.9-3.8,3.8-5.4,6c-6.2,8.6-6.2,21-0.2,29.7
						c5.8,8.4,15.7,12.7,25.8,11.3c5.9-0.8,11-3.8,15.2-7.9c5-5,9.9-9.9,14.9-14.9c8.2-8.2,16.5-16.5,24.7-24.7
						c6.7-6.7,13.3-13.3,20-20c4-4,8-8,11.9-11.9c1.1-1.1,2.3-2.3,3.4-3.4c-1.3,0.3-2.6,0.7-4,1c14.5,5,30.8,3.7,44.4-3.4
						c14-7.3,24.5-20.9,28.2-36.2c2-8.6,2.1-17.5,0.1-26.1c-0.5-2.1-3-3.5-5-2.8c-2.2,0.7-3.3,2.8-2.8,5c0.2,0.9,0.4,1.7,0.5,2.6
						c0.1,0.4,0.1,0.8,0.2,1.2c0,0.2,0.1,0.4,0.1,0.6c0.1,0.5-0.1-0.8,0,0c0.2,1.8,0.3,3.5,0.4,5.3c0,1.7,0,3.5-0.2,5.2
						c0,0.5-0.1,0.9-0.1,1.4c0,0.3-0.2,0.9-0.1,1.2c0-0.1,0.1-1,0-0.2c0,0.2-0.1,0.4-0.1,0.6c-0.1,0.5-0.2,1-0.3,1.5
						c-0.6,3.4-1.7,6.8-3,10.1c-0.3,0.7,0,0,0-0.1c0,0.2-0.2,0.4-0.2,0.6c-0.2,0.4-0.4,0.9-0.6,1.3c-0.4,0.8-0.8,1.6-1.2,2.4
						c-0.9,1.6-1.9,3.2-2.9,4.7c-0.2,0.3-0.5,0.7-0.8,1c-0.1,0.2-0.3,0.3-0.4,0.5c-0.1,0.1-0.5,0.6-0.2,0.2c0.4-0.5-0.3,0.3-0.3,0.3
						c-0.1,0.2-0.3,0.3-0.4,0.5c-0.3,0.4-0.6,0.8-1,1.1c-1.3,1.4-2.6,2.8-4,4.1c-0.6,0.6-1.3,1.1-1.9,1.7c-0.3,0.3-0.6,0.5-1,0.8
						c-0.6,0.5,0,0,0.1-0.1c-0.2,0.2-0.5,0.4-0.8,0.6c-1.4,1-2.9,2-4.4,2.9c-1.5,0.9-3.1,1.7-4.6,2.4c-0.4,0.2-0.8,0.3-1.1,0.5
						c1-0.4-0.4,0.1-0.6,0.2c-0.8,0.3-1.6,0.6-2.4,0.9c-1.7,0.5-3.4,1-5.1,1.4c-0.8,0.2-1.7,0.3-2.5,0.5c-0.4,0.1-0.8,0.1-1.2,0.2
						c-0.2,0-0.8,0.1,0.2,0c-0.2,0-0.5,0.1-0.8,0.1c-3.8,0.4-7.7,0.5-11.5,0.1c-0.3,0-1.9-0.2-0.7-0.1c-0.5,0-1-0.1-1.5-0.2
						c-0.9-0.1-1.8-0.3-2.7-0.5c-1.9-0.4-3.9-1-5.8-1.6c-1.3-0.5-3,0.1-4,1c-4.2,4.2-8.5,8.5-12.7,12.7
						c-5.4,5.4-10.9,10.9-16.3,16.3c-8.2,8.2-16.3,16.3-24.4,24.4c-6.3,6.3-12.7,12.7-19,19c-1,1-2,2-3,3c-0.3,0.3-0.7,0.7-1.1,1
						c-0.2,0.2-0.4,0.3-0.6,0.5c-0.2,0.2-0.6,0.6,0,0c-0.6,0.8-1.9,1.3-2.8,1.8c-0.5,0.2-0.9,0.5-1.4,0.7c-0.7,0.3,0.1,0,0.2-0.1
						c-0.1,0.1-0.6,0.2-0.8,0.3c-1,0.4-2,0.6-3.1,0.9c-0.2,0-0.5,0.1-0.7,0.1c-0.3,0.1-1.1,0,0,0c-0.4,0-0.9,0.1-1.4,0.1
						c-1,0.1-2,0-3.1,0c-0.1,0-0.7,0-0.8-0.1c0.2,0,0.3,0,0.5,0.1c-0.2,0-0.4-0.1-0.5-0.1c-0.5-0.1-0.9-0.2-1.4-0.3
						c-1-0.2-2-0.6-2.9-0.9c-0.9-0.3,0.8,0.4-0.1,0c-0.3-0.1-0.5-0.2-0.8-0.4c-0.4-0.2-0.9-0.4-1.3-0.7c-0.4-0.2-0.8-0.5-1.2-0.8
						c-0.2-0.2-0.5-0.3-0.7-0.5c-0.7-0.5,0.5,0.5-0.1-0.1c-0.9-0.7-1.7-1.5-2.5-2.3c-0.4-0.4-0.8-0.8-1.1-1.3
						c0.6,0.8-0.1-0.1-0.2-0.2c-0.2-0.3-0.4-0.5-0.5-0.8c-0.3-0.5-0.6-1-0.9-1.6c-0.1-0.2-0.2-0.5-0.4-0.7c-0.1-0.2-0.6-1.1-0.1-0.2
						c-0.6-1-0.8-2.3-1.1-3.4c-0.1-0.6-0.2-1.1-0.3-1.7c-0.1-0.6,0.1,1,0,0c0-0.3-0.1-0.6-0.1-1c-0.1-1.2,0-2.3,0.1-3.5
						c0.1-1.1-0.2,0.9,0-0.2c0-0.2,0.1-0.4,0.1-0.6c0.1-0.6,0.3-1.2,0.4-1.9c0.1-0.5,0.3-1,0.5-1.5c0.1-0.3,0.2-0.6,0.3-0.9
						c-0.3,0.6-0.1,0.1,0.1-0.2c0.5-1.1,1.1-2.1,1.8-3.1c0.1-0.2,0.3-0.4,0.4-0.5c0.6-0.9-0.5,0.6,0.2-0.2c0.4-0.5,0.9-1,1.4-1.5
						c0.3-0.3,0.5-0.5,0.8-0.8c5.1-5.1,10.3-10.3,15.4-15.4c8.1-8.1,16.2-16.2,24.3-24.3c6.6-6.6,13.1-13.1,19.7-19.7
						c3.9-3.9,7.8-7.8,11.8-11.8c1.1-1.1,2.2-2.2,3.4-3.4c1-1,1.5-2.6,1-4c-0.6-1.7-1.1-3.4-1.5-5.1c-0.4-1.6-1-3.5-1-5.2
						c0,0.1,0.1,0.9,0,0.2c0-0.2,0-0.4-0.1-0.6c0-0.4-0.1-0.8-0.1-1.2c-0.1-0.9-0.1-1.8-0.2-2.7c-0.1-1.7,0-3.4,0.1-5.1
						c0.1-0.9,0.1-1.7,0.2-2.6c0-0.1,0.2-1.4,0.1-0.8c-0.1,0.7,0-0.3,0.1-0.3c0-0.2,0.1-0.5,0.1-0.8c0.3-1.7,0.7-3.4,1.1-5.2
						c0.5-1.7,1-3.3,1.6-4.9c0.1-0.4,0.3-0.8,0.4-1.1c-0.4,0.9,0.1-0.2,0.2-0.4c0.4-0.8,0.8-1.7,1.2-2.5c0.8-1.6,1.7-3.2,2.7-4.7
						c0.5-0.8,1-1.5,1.5-2.2c0.1-0.2,0.9-1.2,0.3-0.4c0.3-0.4,0.7-0.8,1-1.2c2.4-2.8,5-5.4,7.9-7.7c0.6-0.5,0.1,0-0.1,0
						c0.2-0.2,0.4-0.3,0.6-0.5c0.3-0.2,0.7-0.5,1-0.8c0.8-0.5,1.6-1.1,2.4-1.6c1.6-1,3.2-1.8,4.8-2.6c0.4-0.2,0.8-0.4,1.1-0.5
						c0.2-0.1,0.4-0.2,0.6-0.2c0.3-0.1,0.5-0.4-0.1,0c0.7-0.5,1.8-0.7,2.6-1c1.7-0.6,3.3-1.1,5.1-1.5c1-0.2,2-0.4,3-0.6
						c0.5-0.1,1-0.2,1.5-0.2c0.2,0,0.8-0.2-0.2,0c0.2,0,0.5-0.1,0.8-0.1c2-0.2,4-0.3,6-0.3c1.9,0,3.9,0.1,5.8,0.3
						c0.2,0,0.4,0,0.6,0.1c-1.1-0.2,0,0,0.1,0c0.5,0.1,1,0.2,1.5,0.3c1,0.2,2,0.4,3,0.6c-0.6-2.3-1.2-4.5-1.8-6.8
						c-5.1,5.1-10.1,10.1-15.1,15.1c-2.3,2.3-4.6,4.6-6.9,6.9c-4.7,4.7-8,10.7-9,17.3c-1.3,8.9,1,17.7,6.6,24.7
						c0.3,0.4,0.6,0.7,0.9,1.1c0.2,0.2,0.3,0.3,0.5,0.5c0.1,0.1,0.2,0.2,0.2,0.3c0.3,0.3,0.3,0.3,0,0c-0.1-0.1-0.1-0.2-0.2-0.3
						c0.2,0.3,0.5,0.7,0.8,1c0.2,0.2,0.4,0.4,0.6,0.6c0.4,0.4,0.9,0.8,1.3,1.1c1.8,1.4,3.6,2.7,5.6,3.8c3.9,2,8.1,3.1,12.5,3.5
						c8.4,0.6,16.8-2.5,23-8.1c1.9-1.7,3.7-3.7,5.6-5.5c5.7-5.7,11.4-11.4,17.1-17.1c0.1-0.1,0.3-0.3,0.4-0.4c1.5-1.5,1.6-4.3,0-5.7
						C191.9,45.5,189.4,45.4,187.8,47z"/>
					<path d="M31.8,172C31.2,172.6,32.4,171.7,31.8,172c-0.2,0.2-0.4,0.3-0.5,0.4c0.5-0.2,0.6-0.2,0.3-0.1c-0.3,0.1-0.5,0.1-0.8,0.2
						c-0.3,0.1-0.2,0,0.4-0.1c-0.2,0-0.4,0-0.5,0c-0.8,0.1,0.8,0.3,0,0c-0.2-0.1-0.7-0.1-0.8-0.2c0.5,0.2,0.6,0.3,0.3,0.1
						c-0.1-0.1-0.2-0.1-0.4-0.2c-0.3-0.2-0.3-0.2,0,0s0.3,0.2,0-0.1c-0.3-0.3-0.3-0.3,0.1,0.2c-0.1-0.1-0.1-0.2-0.2-0.2
						c-0.1-0.2-0.2-0.3-0.3-0.5c0.1,0.2,0.1,0.3,0.2,0.5c-0.1-0.1-0.2-0.6-0.2-0.8c-0.2-0.8,0,0.9,0-0.1c0-0.9-0.1,0.3,0,0
						c0-0.2,0.1-0.8,0.3-0.9c-0.1,0.2-0.1,0.3-0.2,0.5c0.1-0.2,0.2-0.3,0.3-0.5c0.1-0.1,0.1-0.2,0.2-0.2c-0.3,0.4-0.4,0.5-0.1,0.2
						c0.3-0.2,0.3-0.3,0-0.1c-0.3,0.2-0.2,0.2,0,0c0.1-0.1,0.2-0.1,0.4-0.2c0.3-0.1,0.2-0.1-0.3,0.1c0.1-0.1,0.6-0.2,0.8-0.2
						c0.8-0.3-0.8,0,0,0c0.2,0,0.4,0,0.5,0c-0.6-0.1-0.7-0.1-0.4-0.1c0.3,0.1,0.5,0.1,0.8,0.2c0.3,0.1,0.2,0.1-0.3-0.1
						c0.1,0.1,0.2,0.1,0.4,0.2c0.9,0.5-0.4-0.4,0.2,0.2c0.6,0.6-0.3-0.7,0.1,0.1c0,0.1,0.1,0.2,0.1,0.2c0.2,0.4,0.2,0.3,0-0.2
						c0,0.2,0.2,0.6,0.2,0.8c0.2,0.8,0-0.8,0,0c-0.1,1.1,0.1,0,0.1,0c0,0-0.2,0.7-0.2,0.8c-0.2,0.7,0.4-0.7-0.1,0.2
						C31.4,172.7,32.4,171.4,31.8,172c-1.5,1.5-1.6,4.2,0,5.7c1.6,1.5,4.2,1.6,5.7,0c2.9-3,3.5-7.3,1.7-11c-1.6-3.3-5.4-5.5-9-5.2
						c-4,0.3-7.6,3.1-8.7,7.1c-1,4,0.6,8,4,10.3c3.7,2.6,8.8,1.8,12-1.2c1.5-1.5,1.6-4.3,0-5.7C35.9,170.5,33.5,170.4,31.8,172z"/>
				</g>
			</g>
			<g>
				<g>
					<path d="M53.8,153.8c1.7-1.7,3.5-3.5,5.2-5.2c4.2-4.2,8.4-8.4,12.6-12.6c5.1-5.1,10.1-10.1,15.2-15.2
						c4.4-4.4,8.7-8.7,13.1-13.1c2.1-2.1,4.3-4.2,6.4-6.4c0,0,0.1-0.1,0.1-0.1c1.5-1.5,1.6-4.3,0-5.7c-1.6-1.5-4.1-1.6-5.7,0
						c-1.7,1.7-3.5,3.5-5.2,5.2c-4.2,4.2-8.4,8.4-12.6,12.6c-5.1,5.1-10.1,10.1-15.2,15.2c-4.4,4.4-8.7,8.7-13.1,13.1
						c-2.1,2.1-4.3,4.2-6.4,6.4c0,0-0.1,0.1-0.1,0.1c-1.5,1.5-1.6,4.3,0,5.7C49.7,155.3,52.2,155.4,53.8,153.8L53.8,153.8z"/>
				</g>
			</g>
		</g>
	</g>
</g>
<g class="st0">
	<title>Artboard 11</title>
	<g class="st1">
		<path d="M193.2,87h-10.8c-2.2-9.9-5.9-19.1-11.4-27.6l7.5-7.5c1.8-1.8,1.8-4.4,0-6.1l0,0l-18.6-18.6c-1.8-1.8-4.4-1.8-6.1,0l0,0
			l-7.5,7.5c-8.3-5.5-17.8-9.4-27.6-11.4V12.4c0-2.4-2-4.4-4.4-4.4l0,0H87.9c-2.4,0-4.4,2-4.4,4.4v0.2v10.7
			c-9.9,2.2-19.1,5.9-27.6,11.4l-7.5-7.7c-1.8-1.8-4.4-1.8-6.1,0l0,0L23.6,45.7c-1.8,1.8-1.8,4.4,0,6.1l0,0l7.5,7.5
			c-5.5,8.3-9.4,17.8-11.4,27.6H8.9c-2.4,0-4.4,2-4.4,4.4l0,0v26.3c0,2.4,2,4.4,4.4,4.4h0.2h10.7c2.2,9.8,5.9,19,11.4,27.6l-7.7,7.7
			c-1.8,1.7-1.8,4.4,0,6.1l0,0L42.3,182c1.8,1.7,4.4,1.7,6.1,0l0,0l7.5-7.4c8.3,5.5,17.8,9.4,27.6,11.4v10.7c0,2.4,2,4.4,4.4,4.4
			l0,0h26.3c2.4,0,4.4-2,4.4-4.4v0v-10.7c9.8-2.2,19-5.9,27.6-11.4l7.4,7.5c1.7,1.8,4.4,1.8,6.1,0l0,0l18.6-18.6
			c1.7-1.8,1.7-4.4,0-6.1l0,0l-7.4-7.5c5.5-8.3,9.4-17.8,11.4-27.6h10.9c2.4,0,4.4-2,4.4-4.4l0,0V91.4C197.5,88.9,195.6,87,193.2,87
			L193.2,87z M188.8,113.3h-9.6c-2.2,0-3.9,1.5-4.4,3.7c-1.8,11.2-6.1,21.5-12.7,30.7c-1.3,1.8-1.1,4.2,0.4,5.7l7,7L157,172.9l-7-7
			c-1.5-1.5-3.9-1.8-5.7-0.4c-9.2,6.6-19.7,11-30.7,12.7c-2.2,0.4-3.7,2.2-3.7,4.4v9.7H92.3v-9.6c0-2.2-1.5-3.9-3.7-4.4
			c-11.2-1.8-21.6-6.1-30.8-12.7c-1.8-1.3-4.2-1.1-5.7,0.4l-7,7l-12.5-12.5l7-7c1.5-1.5,1.8-3.9,0.4-5.7c-6.6-9.2-11-19.7-12.8-30.7
			c-0.4-2.2-2.2-3.7-4.4-3.7h-9.5V95.7H23c2.2,0,3.9-1.5,4.4-3.7c1.8-11.2,6.1-21.6,12.7-30.8c1.3-1.8,1.1-4.2-0.4-5.7l-7-7
			l12.5-12.5l7,7c1.5,1.5,3.9,1.8,5.7,0.4c9.2-6.6,19.7-11,30.7-12.8c2.2-0.4,3.7-2.2,3.7-4.4v-9.5h17.5v8.8c0,2.2,1.5,4,3.7,4.4
			c11.2,1.8,21.6,6.2,30.8,12.9c1.8,1.3,4.2,1.1,5.7-0.4l7-7.1L169.6,48l-7,7.1c-1.5,1.6-1.8,4-0.4,5.8c6.6,9.3,11,20,12.8,31.1
			c0.4,2.2,2.2,3.8,4.4,3.8h9.5V113.3z"/>
		<path d="M100.4,43.1c-34,0-61.4,27.4-61.4,61.4s27.4,61.4,61.4,61.4s61.4-27.4,61.4-61.4S134.4,43.1,100.4,43.1z M92.3,156.3
			v-24.1c0-1.8-0.9-3.3-2.5-3.9c-13.5-6.1-19.1-21.7-12.8-34.9c1.6-3.3,3.8-6.1,6.5-8.3v17.3c0,4.8,3.9,8.8,8.8,8.8h17.5
			c4.8,0,8.8-3.9,8.8-8.8V85c11,9.7,12.1,26.1,2.2,36.8c-2.5,2.6-5.4,4.8-8.5,6.4c-1.6,0.7-2.5,2.2-2.5,3.9v24.1
			C103.8,157.4,97.8,157.4,92.3,156.3z M118.6,154.1v-19.3c16.7-9.7,22.6-30.9,12.9-47.6c-3.5-6.1-9-11.2-15.4-14.3
			c-2.2-1.1-4.8-0.2-5.9,2c-0.2,0.7-0.4,1.3-0.4,2v25.4H92.3V76.9c0-2.4-2-4.4-4.4-4.4c-0.7,0-1.3,0.2-2,0.4
			c-17.5,8.1-25,29-16.7,46.5c3.1,6.6,8.1,11.8,14.3,15.4v19.3c-28.4-10-42.7-41.8-30.9-70c10.1-24.2,37.1-37.2,62.4-30.3
			c29.8,8.2,45.7,39.6,35.7,68.3C145.3,137,133.5,148.8,118.6,154.1z"/>
	</g>
</g>
<g class="st0">
	<g class="st1">
		<path d="M209.4,146.4c-0.5-12-10.1-21.6-22.1-21.6c-11.2,0-20.5,8.7-21.8,20.7h-51.6V93.7h8.7c1.6-1.3,2.7-2.4,2.2-4V73.3
			c0.5-1.6-2.2-4.2-2.2-4.2h-6v-8.3c0-4.3-3.4-8.1-7.9-8.1H91.8c-4.2,0-7.9,3.5-7.9,8.1v8.3h-6c0,0-2.7,2.5-2.2,4.2v16.4
			c-0.5,1.6,0.5,2.7,2.2,4h8.7v51.9H35.3c-1.4-12.2-10.6-20.7-21.8-20.7c-12,0-21.6,9.6-22.1,21.6c0,0.3-0.3,0.5-0.3,0.8
			c0,1.6,1.1,2.7,2.7,3.8h96.4h20.2H207c1.6-1,2.7-2.1,2.7-3.8C209.7,147,209.7,146.7,209.4,146.4z M187.6,131.4
			c8.2,0,15,6.3,16.4,14.2h-32.8C172.3,137.6,179.1,131.4,187.6,131.4z M89,60.9c0-1.4,1.1-2.7,2.7-2.7h16.8c1.3,0,2.6,1.1,2.6,2.7
			v8.3H89.3v-8.2H89z M80.9,77.3h5.4H114h5.4v10.9h-9.2H90.3h-9.2V77.3H80.9z M13.4,131.4c8.2,0,15,6.3,16.4,14.2H-3
			C-1.6,137.6,5.2,131.4,13.4,131.4z M94.8,145.6V93.7h13.6v51.9H94.8z"/>
		<path d="M59,46.8c0.5,0.5,1.4,0.8,1.9,0.8c0.8,0,1.4-0.3,1.9-0.8c1.1-1.1,1.1-2.7,0-3.8l-7.6-7.9c-1.1-1.1-2.7-1.1-3.8,0
			c-1.1,1.1-1.1,2.7,0,3.8L59,46.8z"/>
		<path d="M37.4,61.5l10.1,2.2c0.3,0,0.3,0,0.5,0c1.4,0,2.5-0.8,2.7-2.2c0.3-1.4-0.5-3-2.2-3.3L38.5,56c-1.4-0.3-3,0.5-3.3,2.2
			C35,59.8,36.1,61.2,37.4,61.5z"/>
		<path d="M38,91c0.3,0,0.3,0,0.5,0l10.1-2.2c1.4-0.3,2.5-1.6,2.2-3.3c-0.3-1.4-1.6-2.5-3.3-2.2l-10.1,2.2c-1.4,0.3-2.5,1.6-2.2,3.3
			C35.8,90.1,36.9,91,38,91z"/>
		<path d="M57.6,101.1l-6.3,6.6c-1.1,1.1-1.1,2.7,0,3.8c0.5,0.5,1.1,0.8,1.9,0.8c0.8,0,1.4-0.3,1.9-0.8l6.3-6.6
			c1.1-1.1,1.1-2.7,0-3.8C60.4,100,58.7,100,57.6,101.1z"/>
		<path d="M142.8,47.6c0.8,0,1.4-0.3,1.9-0.8l7.6-7.9c1.1-1.1,1.1-2.7,0-3.8c-1.1-1.1-2.7-1.1-3.8,0l-7.6,7.9
			c-1.1,1.1-1.1,2.7,0,3.8C141.5,47.3,142,47.6,142.8,47.6z"/>
		<path d="M153.2,61.5c0.3,1.4,1.4,2.2,2.7,2.2c0.3,0,0.3,0,0.5,0l10.1-2.2c1.4-0.3,2.5-1.6,2.2-3.3c-0.3-1.4-1.6-2.5-3.3-2.2
			l-10.4,2.2C153.7,58.5,152.6,59.8,153.2,61.5z"/>
		<path d="M155.1,88.8l10.1,2.2c0.3,0,0.3,0,0.5,0c1.4,0,2.5-0.8,2.7-2.2c0.3-1.4-0.5-3-2.2-3.3l-10.1-2.2c-1.4-0.3-3,0.5-3.3,2.2
			C152.6,86.9,153.7,88.2,155.1,88.8z"/>
		<path d="M146.1,101.1c-1.1-1.1-2.7-1.1-3.8,0c-1.1,1.1-1.1,2.7,0,3.8l6.3,6.6c0.5,0.5,1.4,0.8,1.9,0.8c0.8,0,1.4-0.3,1.9-0.8
			c1.1-1.1,1.1-2.7,0-3.8L146.1,101.1z"/>
	</g>
</g>
<g class="st0">
	<title>a</title>
	<g class="st1">
		<circle cx="70.5" cy="135.6" r="7.7"/>
		<path d="M200.5,115.7V105c0-1.1-0.4-1.9-1.1-2.7l-19.1-19.1c-0.8-0.8-1.5-1.1-2.7-1.1h-57.4V43.8c0-4.2-3.4-7.7-7.7-7.7H74.2
			c-4.2,0-7.7,3.4-7.7,7.7v26.8H3c-2.3,0-4.2,0.8-5.7,2.7C-6.1,76.7-10,85.5-10,105v26.8c0,4.2,3.4,7.7,7.7,7.7h4.2
			c1.9,12.6,13.8,21,26.4,18.7c9.6-1.5,17.2-9.2,18.7-18.7h0.8c1.9,12.6,13.8,21,26.4,18.7c9.6-1.5,17.2-9.2,18.7-18.7h2.7
			c1.9,0,3.8-0.8,5.4-2.3l16.8-16.8c1.5-1.5,2.3-3.4,2.3-5.4V105h48.2l7.7,7.7h-40.6c-4.2,0-7.7,3.4-7.7,7.7v24.5
			c0,3.1,1.5,5.7,4.2,6.9l13.4,6.5l0,0c0.4,0.4,1.1,0.4,1.5,0.4h11.5c2.3,0,3.8-1.5,3.8-3.8c0-2.3-1.5-3.8-3.8-3.8h-7.7v-30.6h21
			c-9.1,10.4-7.5,26.6,4.5,34.5c8.7,5.8,20.7,4.9,28.3-2.3c10.1-9.5,9.8-25.2-0.3-34.2C203.1,117.7,202,116.5,200.5,115.7z
			 M89.5,97.4V59.1h23v38.3H89.5z M-2.3,105c0-19.1,4.2-25.3,5.4-26.8h63.5v34.8c-9.6,1.5-17.2,9.2-18.7,18.7h-0.4c0,0,0,0,0-0.4
			c-2.3-12.6-14.4-20.7-27.2-18.4c-9.7,1.5-17.1,9.2-18.7,18.4c0,0,0,0,0,0.4h-3.8V105z M24.6,150.9c-8.4,0-15.3-6.9-15.3-15.3
			s6.9-15.3,15.3-15.3s15.3,6.9,15.3,15.3S33,150.9,24.6,150.9z M70.5,150.9c-8.4,0-15.3-6.9-15.3-15.3s6.9-15.3,15.3-15.3
			s15.3,6.9,15.3,15.3S78.9,150.9,70.5,150.9z M112.5,114.6l-17.2,17.2h-2.7c-1.6-9.4-9-16.8-18.3-19.1c-0.4,0,0.4,0,0,0V43.8h38.3
			v7.7h-23c-4.2,0-7.7,3.4-7.7,7.7v38.3c0,4.2,3.4,7.7,7.7,7.7h23V114.6z M169.9,97.4h-49.7v-7.7H176l16.8,16.8v6.1h-0.4
			c-1.1-0.4-2.3-0.4-3.4-0.4c-1.1,0-2.3,0-3.4,0.4h-0.4v-0.4c0-1.1-0.4-1.9-1.1-2.6l-11.5-11.2C171.8,97.7,171,97.4,169.9,97.4z
			 M135.4,120.3h7.7v28.3l-7.7-3.8V120.3z M189.1,150.9c-8.4,0-15.3-6.9-15.3-15.3c0-6.1,3.4-11.5,9.2-13.8l0,0
			c3.1-1.1,6.1-1.5,9.2-0.8c8.4,1.9,13.4,9.9,11.9,18.4C202.5,146,196.4,150.9,189.1,150.9z"/>
		<circle cx="189.1" cy="135.6" r="7.7"/>
		<circle cx="24.6" cy="135.6" r="7.7"/>
		<path d="M9.3,105h30.6c2.3,0,3.8-1.5,3.8-3.8s-1.5-3.8-3.8-3.8H9.3c-2.3,0-3.8,1.5-3.8,3.8S7,105,9.3,105z"/>
		<path d="M9.3,93.5h30.6c2.3,0,3.8-1.5,3.8-3.8c0-2.3-1.5-3.8-3.8-3.8H9.3c-2.3,0-3.8,1.5-3.8,3.8C5.4,92,7,93.5,9.3,93.5z"/>
	</g>
</g>
<g class="st0">
	<title>015 - Tractor</title>
	<desc>Created with Sketch.</desc>
	<g class="st1">
		<g>
			<path d="M30.3,137.1c-10.3,0-18.4,8.1-18.4,18.4c0,10.3,8.1,18.4,18.4,18.4s18.4-8.1,18.4-18.4C48.7,145.2,40.6,137.1,30.3,137.1
				z M30.3,166.6c-6.3,0-11.1-4.8-11.1-11.1c0-6.3,4.8-11.1,11.1-11.1s11.1,4.8,11.1,11.1C41.3,161.8,36.5,166.6,30.3,166.6z"/>
			<path d="M140.8,159.2c-4.4,0-8.5,2.6-10.3,7c-1.8,4.1-0.7,8.8,2.6,12.2c3.3,3.3,8.1,4.1,12.2,2.6c4.1-1.8,7-5.9,7-10.3
				C151.9,164.4,147.1,159.2,140.8,159.2z M140.8,174c-2.2,0-3.7-1.8-3.7-3.7c0-2.2,1.8-3.7,3.7-3.7c2.2,0,3.7,1.8,3.7,3.7
				C144.5,172.5,143.1,174,140.8,174z"/>
			<path d="M47.2,193.5c10.7-4.8,18.8-14.4,22.1-25.8h46.1c-1.5,10.3,3.3,20.6,12.2,25.8 M154.3,192.4c7.4-4.4,12.2-12.5,12.5-21.4
				s-3.7-17-11.1-22.1v-29.5c0-1.8-1.5-3.3-3.3-3.7l-22.1-2.6l10-52.3h37.6h16.6c1.1,0,1.8-0.4,2.6-1.1L210,46.8
				c1.4-1.4,1.4-3.7,0-5.2l-31.3-31.3c-1.4-1.4-3.7-1.4-5.2,0l-12.9,12.9c-0.7,0.7-1.1,1.5-1.1,2.6v16.6c0,1.1,0.4,1.8,1.1,2.6
				l8.5,8.5h-30.2l-7.4-7.4h16.8c0,0,3.7-2.6,3.7-4.8s-1.5-3.7-3.7-2.6h-25.8c-0.4-1.1-0.7-1.1-1.5-0.7c0,0-0.4,0-0.4,0.4
				c-0.4,0-0.7,0.4-1.7,0.4l0,0v0.4c0.5,0.4,0.5,0.4,0.5,0.7l3.1,0.4v0.4l-17.1,68.9L93.1,108V64.5c0-2-1.7-3.7-3.7-3.7H23.1
				c-2.2,0-3.7,1.5-3.7,3.7c0,2.2,1.5,3.7,3.7,3.7h3.7v33.2h-3.7c-2.2,0-3.7,1.5-3.7,3.7c0,2.2,1.5,3.7,3.7,3.7h3.7v6.6
				c-18.4,1.5-33.2,15.5-36.1,33.5s6.3,35.8,22.9,43.5 M166.8,27.3l9.2-9.2l26.2,26.2l-9.2,9.2h-13.6l-12.5-12.5V27.3z M85.7,112.4
				v14.7h-5.5c-4.4-8.5-11.8-15.9-20.3-20.3V68.2h25.8V112.4z M34.1,68.2h18.4v35.4c-4.8-1.5-9.6-2.2-14.7-2.2h-3.7V68.2z
				 M37.8,108.7c5.9,0,11.4,1.1,17,3.7c8.8,4.1,15.9,11.1,19.9,19.9c2.6,5.2,3.7,11.1,3.7,17v11.1l-7.4,0c-0.1-0.1-0.1-0.1-0.1-0.2
				c1.9-22.6-14.5-41.8-36.7-43.7v-7.7H37.8z M30.3,188.7c-14,0-26.5-8.8-31.3-22.1c-4.8-13.3-0.7-28,10.3-36.9
				c10.7-8.8,26.2-10,38-2.6c11.8,7.4,18.1,21.4,15.5,35C59.7,177.7,46.1,188.7,30.3,188.7z M159.3,170.3c0,10.3-8.1,18.4-18.4,18.4
				s-18.4-8.1-18.4-18.4s8.1-18.4,18.4-18.4S159.3,160,159.3,170.3z M148.4,146.7c-12.2-3.7-25.1,2.2-30.6,13.6H85.7v-11.1
				c0-5.2-0.7-10-2.2-14.7h5.9c0,0,0,0,0.4,0s0,0,0,0l47.2,3.7h0.4c2.2,0,3.7-1.5,3.7-3.7s-1.5-3.7-3.7-3.7l-44.2-3.3v-10.7
				l55.3,6.6V146.7z M112.5,110.2l12.2-61.6l8.5,8.5l-10.3,54.2L112.5,110.2z"/>
		</g>
	</g>
</g>
<g class="st0">
	<path class="st1" d="M183.3,16.2L-9.7,153.8c-2,1.4-2.4,3.7-1,5.7l0,0L13,192.8c1.4,2,3.7,2.4,5.7,1l0,0L211.8,56.2
		c2-1.4,2.4-3.7,1-5.7l0,0L189,17.2C187.6,15.2,185.3,14.8,183.3,16.2L183.3,16.2z M190.4,61.4l-11.7,8.3c1.5-12.6-6.5-24-19-26.6
		l11.7-8.3L190.4,61.4z M33.3,154.3c-5.2-7.3-3.5-17.6,3.8-22.8c7.3-5.2,17.6-3.5,22.8,3.8s3.5,17.6-3.8,22.8
		C48.8,163.4,38.5,161.6,33.3,154.3z M53.3,119l21.6-15.4l7.1,10c1.4,2,3.7,2.4,5.7,1l0,0l26.6-19c2-1.4,2.4-3.7,1-5.7l0,0l-7.1-10
		l21.6-15.4c-1.5,12.6,6.5,24,19,26.6l-76.6,54.6C73.4,133.2,65.4,121.9,53.3,119z M139.8,78.4c-5.2-7.3-3.5-17.6,3.8-22.8
		s17.6-3.5,22.8,3.8c5.2,7.3,3.5,17.6-3.8,22.8S145,85.7,139.8,78.4z M101.5,84.6l4.7,6.7l-20,14.2l-4.7-6.7L101.5,84.6z
		 M-1.7,158.1l6.7-4.7L24,180l-6.7,4.7L-1.7,158.1z M11.6,148.6l11.7-8.3c-1.5,12.6,6.5,24,19,26.6l-11.7,8.3L11.6,148.6z
		 M203.7,51.9l-6.7,4.7l-19-26.6l6.7-4.7L203.7,51.9z"/>
	<path class="st1" d="M38.5,154.6l20-14.2c2-1.4,2.4-3.7,1-5.7s-3.7-2.4-5.7-1l-20,14.2c-2,1.4-2.4,3.7-1,5.7S36.5,156,38.5,154.6z"
		/>
	<path class="st1" d="M145,78.7l20-14.2c2-1.4,2.4-3.7,1-5.7c-1.4-2-3.7-2.4-5.7-1l-20,14.2c-2,1.4-2.4,3.7-1,5.7S143,80.1,145,78.7
		z"/>
</g>
<g class="st0">
	<path class="st1" d="M183.3-3.3l-29.2,34v31.6h-23.9V30.6L101-3.3l-29.2,34v31.6H48V30.6l-29.2-34l-29.2,34v182.7H48v-37.1h23.9
		v37.1h58.4v-37.1h23.9v37.1h58.4V30.6L183.3-3.3z M40,208.1H-5.1v-31.8H40V208V208.1z M40,170.9H-5.1V70.1H40V170V170.9z M40,62.2
		H-5.1V32.7L17.5,5.7L40,32.7v29.9V62.2z M71.9,170.9H48V70.1h23.9V170.9z M124.6,208.1H77.2v-31.8h47.7v31.8H124.6z M124.6,170.9
		H77.2V70.1h47.7v100.8H124.6z M124.6,62.2H77.2V32.7L101,5.7l23.9,27.1v29.4H124.6z M154.1,170.9h-23.9V70.1h23.9V170.9z
		 M204.5,208.1h-45.1v-31.8h45.1V208V208.1z M204.5,170.9h-45.1V70.1h45.1V170V170.9z M206.9,62.2h-47.5V32.7l23.9-27.1l23.9,27.1
		v29.4H206.9z"/>
</g>
</svg>
