<?xml version="1.0" encoding="utf-8"?>
<!-- Generator: Adobe Illustrator 23.0.4, SVG Export Plug-In . SVG Version: 6.00 Build 0)  -->
<svg version="1.1" id="Layer_1" xmlns="http://www.w3.org/2000/svg" xmlns:xlink="http://www.w3.org/1999/xlink" x="0px" y="0px"
	 viewBox="0 0 187.5 168.9" style="enable-background:new 0 0 187.5 168.9;" xml:space="preserve">
<style type="text/css">
	.st0{display:none;}
	.st1{display:inline;}
</style>
<g class="st0">
	<g class="st1">
		<path d="M2.3,159l204.3,0c2.4,0,4.6-1.4,5.4-3.6c1.2-3.7-1.6-7.2-5.1-7.2h-11.9c3.5-12.1,8.6-26.4,16.2-37c0,0,0-0.3,0.3-0.3v-0.9
			c0,0-0.5-1.9-0.5-3c0-3-2.4-5.4-5.4-5.4c-0.8,0-1.6,0.3-2.2,0.5c-1.3,0.5-15.9,7-30,20c-2.2-7.8-4.3-18.1-5.4-30
			c-0.3-2.2-1.9-4.3-4-4.9c-2.2-0.5-4.6,0.3-5.9,2.2c-0.3,0.5-6.2,9.4-12.4,22.1c-5.1-22.4-1.9-48-1.6-48.3c0.3-2.7-1.1-5.1-3.5-5.9
			c-2.4-0.8-5.1,0.3-6.5,2.4l-40.5,71c-4.6-39.4,6.7-85.3,7-85.8c0.5-2.4-0.5-4.9-2.7-6.2c-2.2-1.1-4.9-0.5-6.5,1.3
			c-15.9,18.9-25.4,42.4-31,63.1c-5.7-15.1-10.3-24-10.5-24.6c-1.3-2.4-4-3.5-6.5-2.7s-4,3.5-3.5,6.2c1.1,5.4,1.3,20.5,1.1,42.4
			C31.2,109.3,22.5,98.5,22,97.9c-1.6-2.2-4.6-2.7-7-1.3c-2.4,1.3-3.2,4.3-2.2,6.7c7.8,17.8,8.9,32.9,8.1,44.9H2.5
			c-3-1.5-5.4,1-5.4,3.9S2.3,159,2.3,159z M191.4,122.3c-3.8,8.9-6.7,17.8-8.9,25.9h-16.7c2.4-4,5.4-7.8,8.9-11.3l0.3-0.3
			C180.4,130.7,186.3,126.1,191.4,122.3z M159.3,109.6c1.6,8.6,3.5,16.2,5.4,22.1c-4.6,5.1-8.4,10.5-11.3,16.5h-8.6
			c1.1-5.7,2.7-11.6,5.4-18.1C152.9,122.3,156.4,115.3,159.3,109.6z M139.1,128.3c-2.7,7-4.3,13.8-5.4,20h-37l35.1-61.8
			C132.1,99.1,133.7,115,139.1,128.3z M85.1,147.2l-0.5,1.1H73c-1.6-7.8-3.8-15.9-6.2-23.7c3-15.7,8.4-35.6,18.1-54.2
			C81.6,91.3,79.2,121.5,85.1,147.2z M56,126.1L56,126.1c2.2,7.6,4,14.8,5.7,22.1h-8.4c-0.8-1.6-1.6-3-2.4-4.3
			c0.3-10,0.5-20.8,0.5-31C53,116.9,54.4,121.3,56,126.1z M31.2,131.2c3.3,5.3,6.7,10.8,10,17c0,0,0,0,0,0l-9.4,0
			C32,143.4,32,137.7,31.2,131.2z"/>
	</g>
</g>
<g class="st0">
	<path class="st1" d="M51.9,181c1,1,1.5,2.2,1.5,3.4s-0.5,2.4-1.5,3.4s-2.2,1.5-3.4,1.5c-0.7,0-1.2-0.2-1.9-0.5
		c-0.5-0.2-1.2-0.5-1.5-1c-1-1-1.5-2.2-1.5-3.4s0.5-2.4,1.5-3.4c1.2-1.2,2.9-1.7,4.4-1.5c0.2,0,0.5,0.2,1,0.2
		c0.2,0.2,0.5,0.2,0.7,0.5S51.6,180.8,51.9,181z M199.6,192.1c-0.2-0.2-0.2-0.5-0.5-0.7c-0.2-0.2-0.5-0.5-0.5-0.7
		c-1.2-1.2-3-1.7-4.5-1.5c-0.2,0-0.7,0.2-1,0.2c-0.2,0.2-0.5,0.2-0.7,0.5c-0.2,0.2-0.5,0.5-0.7,0.5c-0.2,0.2-0.5,0.5-0.5,0.7
		c-0.2,0.2-0.2,0.5-0.5,0.7c-0.2,0.2-0.2,0.5-0.2,1c0,0.2,0,0.7,0,1c0,1.2,0.5,2.5,1.5,3.5c0.7,1.2,2,1.7,3.2,1.7
		c0.7,0,1.2-0.2,2-0.5c0.5-0.2,1.2-0.5,1.5-1c1-1,1.5-2.2,1.5-3.5c0-0.2,0-0.7,0-1C199.8,192.9,199.8,192.4,199.6,192.1z
		 M218.9,200.3c-2.2,9.4-10,16.9-19.6,18.4c-9.7,1.6-18.4-2.6-23.5-9.4H73.1c-6.7,6.7-16.3,10.4-26.6,9.6
		c-16.4-1.3-29.7-14.5-31.2-30.9c-1.6-18.1,11-33.8,28.1-36.6L21.6,33.2c-0.5-2.2-2.4-3.9-4.9-3.9l-10.9,0c-2.1,0-4.2-1.2-4.8-3.2
		c-1.1-3.3,1.4-6.5,4.6-6.5H17c7.1,0,12.9,4.9,14.3,11.7l22.1,119.9c1.5,0.2,2.7,0.5,4.1,0.7l50.1,6.8v-15.1h-7.3
		c-2.7,0-4.9-2.2-4.9-4.9v-4.9c0-13.4,10.9-24.3,24.3-24.3h14.6c13.4,0,24.3,10.9,24.3,24.3v4.9c0,2.7-2.2,4.9-4.9,4.9h-7.3v20.2
		l49.1,6.6C210.7,170.7,222.5,184.8,218.9,200.3z M148.2,133.9c0-8-6.6-14.6-14.6-14.6H119c-8,0-14.6,6.6-14.6,14.6H148.2z
		 M117.4,143.6v16.3l19.5,2.7v-19H117.4z M72.8,184.4c0-11.2-7.5-20.4-17.8-23.3l-6.8-1c-13.4,0.2-24.1,10.9-24.1,24.3
		s10.9,24.3,24.3,24.3S72.8,197.8,72.8,184.4z M176.9,177.9L75.5,164.3c4.4,5.8,7.1,12.9,7.1,20.7c0,5.4-1.2,10.2-3.4,14.6h91.4
		c-0.2-1.7-0.5-3.2-0.5-4.9C170.1,188.1,172.7,182.3,176.9,177.9z M209,194.1c0-8-6.6-14.6-14.6-14.6c-8,0-14.6,6.6-14.6,14.6
		c0,8,6.6,14.6,14.6,14.6C202.4,208.7,209,202.2,209,194.1z"/>
</g>
<g class="st0">
	<path class="st1" d="M25.2,164.2c4.2,0.4,7.7-1.1,10.4-4.1c4.2,5.1,11.8,5.7,16.9,1.2c0.6-0.3,0.9-0.9,1.2-1.2
		c4.2,5.1,11.8,5.7,16.9,1.2c0.6-0.3,0.9-0.9,1.2-1.2c4.2,5.1,11.8,5.7,16.9,1.2c0.6-0.3,0.9-0.9,1.2-1.2c4.2,5.1,11.8,5.7,16.9,1.2
		c0.6-0.3,0.9-0.9,1.2-1.2c4.2,5.1,11.8,5.7,16.9,1.2c2.4-2.1,3.9-4.8,4.2-8.1l31,31c1.1,1.1,2.3,1.2,5.5,0.2
		c10.6-3.4,17.7-13.4,17.7-24.6V113h3c1.7,0,3-1.3,3-3V97.9v-0.3v-0.3l-6-36.2c-0.3-1.5-1.5-2.4-3-2.4h-18.1c-1.5,0-2.7,1.2-3,2.4
		l-6,36.2v0.3v0.3V110c0,1.7,1.3,3,3,3h3v38l-30.1-30.1l0-59.3c0-6.3-5.1-12.2-11.3-12.6c-3.9-0.2-7.5,1.3-9.8,4.2
		c-4.2-5.1-11.8-5.7-16.9-1.2c-0.6,0.3-0.9,0.9-1.2,1.2C85.7,48,78.1,47.4,73,51.9c-0.6,0.3-0.9,0.9-1.2,1.2
		c-4.2-5.1-11.8-5.7-16.9-1.2c-0.6,0.3-0.9,0.9-1.2,1.2C49.5,48,42,47.4,36.9,51.9c-0.6,0.3-0.9,0.9-1.2,1.2
		c-4.2-5.1-12.1-5.7-16.9-1.2c-2.7,2.1-4.2,5.4-4.2,9l0,90.8C14.5,157.7,19.3,163.6,25.2,164.2z M183.3,107h-24.1v-6h24.1V107z
		 M164.4,64.8h13l5.1,30.1h-22.9L164.4,64.8z M177.3,113v51.2c0,7.2-5.1,13.3-12.1,14.8v-66H177.3z M159.2,158.6v15.7l-30.1-30.1
		v-15.7L159.2,158.6z M123.1,61.3c0,14.5,0,75.4,0,89.8c0,2.6-1.5,5.2-4,6c-4.2,1.4-8-1.7-8-5.7V61c0-4,3.9-7.1,8-5.7
		C121.5,56.1,123.1,58.7,123.1,61.3z M105,61.3c0,14.5,0,75.4,0,89.8c0,2.6-1.5,5.2-4,6c-4.2,1.4-8-1.7-8-5.7V61c0-4,3.9-7.1,8-5.7
		C103.4,56.1,105,58.7,105,61.3z M86.9,61.3c0,14.5,0,75.4,0,89.8c0,2.6-1.5,5.2-4,6c-4.2,1.4-8-1.7-8-5.7V61c0-4,3.9-7.1,8-5.7
		C85.4,56.1,86.9,58.7,86.9,61.3z M68.8,61.3c0,14.5,0,75.4,0,89.8c0,2.6-1.5,5.2-4,6c-4.2,1.4-8-1.7-8-5.7V61c0-4,3.9-7.1,8-5.7
		C67.3,56.1,68.8,58.7,68.8,61.3z M50.7,61.3c0,14.5,0,75.4,0,89.8c0,2.6-1.5,5.2-4,6c-4.2,1.4-8-1.7-8-5.7V61c0-4,3.9-7.1,8-5.7
		C49.2,56.1,50.7,58.7,50.7,61.3z M20.6,61c0-4,3.9-7.1,8-5.7c2.5,0.8,4,3.4,4,6c0,14.5,0,75.4,0,89.8c0,2.6-1.5,5.2-4,6
		c-4.2,1.4-8-1.7-8-5.7V61z"/>
	<path class="st1" d="M171.3,36.9c-1.8,0-3,1.2-3,3v9c0,1.8,1.2,3,3,3s3-1.2,3-3v-9C174.3,38.1,173.1,36.9,171.3,36.9z"/>
	<path class="st1" d="M174.3,18.8c0-1.8-1.2-3-3-3s-3,1.2-3,3v9c0,1.8,1.2,3,3,3s3-1.2,3-3V18.8z"/>
	<path class="st1" d="M146.9,36.9c0,1.8,1.2,3,3,3c5.1,0,9,3.9,9,9c0,1.8,1.2,3,3,3s3-1.2,3-3c0-8.4-6.6-15.1-15.1-15.1
		C148.1,33.9,146.9,35.1,146.9,36.9z"/>
	<path class="st1" d="M192.1,33.9c-8.4,0-15.1,6.6-15.1,15.1c0,1.8,1.2,3,3,3c1.8,0,3-1.2,3-3c0-5.1,3.9-9,9-9c1.8,0,3-1.2,3-3
		S193.9,33.9,192.1,33.9z"/>
</g>
<g class="st0">
	<g class="st1">
		<path d="M92.5,94.3c-4.2,3.9-4.3,10.1-0.4,14.3c3.9,4.2,10.1,4.3,14.3,0.4s4.3-10.1,0.4-14.3C102.8,90.6,96.6,90.4,92.5,94.3z
			 M101.7,104.1c-1.5,1.4-3.4,1.3-4.8-0.1c-1.4-1.5-1.3-3.4,0.1-4.8c1.5-1.4,3.4-1.3,4.8,0.1C103.2,100.8,103.2,102.7,101.7,104.1z"
			/>
		<path d="M202.7,115.1L159.5,93l0,0c-0.2-0.2-0.7-0.3-1.2-0.3l0,0l0,0l-31.1-2.6l-0.2-0.2l-31.2-62l0,0
			C90.1,16.8,79.2,8.8,66.9,6.8c-6.3-1.1-12.4-0.5-18.3,1.3c-1.2-0.3-1.5,0-2,0.4s-0.8,0.7-0.8,1.2c-0.5,1-0.3,2.2,0.4,2.9
			l42.1,64.4l-0.5,0.5l-10.6,10L15.6,41.5c-1-0.5-2.2-0.8-2.9-0.5c-0.7,0.2-1,0.5-1.5,0.9c-0.5,0.5-0.8,0.7-0.8,1.2
			C8,49.1,7.5,55.2,8,61.3l0,0l0,0l0,0c1.2,12.4,8.6,23.8,19.3,30.1l60,34.9l0.2,0.2l0.7,31.2l0,0l0,0c0,0.5,0.2,0.7,0.2,1.2l0,0
			l19.5,44.5c1.8,3.9,5.1,6.9,8.9,8.5c4.1,1.3,8.5,0.9,12.5-1c1.2-0.7,2.5-1.4,3.5-2.4c5.1-4.8,6.6-12.3,3.4-18.7l-21.5-43.1
			l-5.6-24.7l12.1-11.4l24.3,7.1l41.7,24c6.2,3.5,13.8,2.5,18.8-2.3c1-1,1.8-2.2,2.6-3.4c2.3-3.6,2.8-8.2,1.7-12.4
			C209.4,120.6,206.6,117.1,202.7,115.1z M89.9,33.4L89.9,33.4l25.2,48.8l-2.3-2.4c-0.7-0.7-1.4-1.5-2.3-2c-0.2-0.2-0.5-0.5-0.7-0.3
			c-0.7-0.3-1.2-0.7-1.9-1c-0.2-0.2-0.2-0.2-0.7-0.3c-0.9-0.5-1.9-0.5-2.8-1l-0.5,0l-0.5,0l0,0c1.2-1.2,1.5-2.8,0.6-4.3L74.2,18.6
			C80.8,21.2,86.8,26.6,89.9,33.4z M61,17.3c0.5,0,1,0,1.4,0c1,0,1.7,0.3,2.6,0.3L97,73.6l-2.4,2.3L56,17.9
			C57.7,17.7,59.4,17.5,61,17.3z M17.4,59.8c0-0.5,0-1,0-1.4c0-1.4,0.3-3.1,0.6-4.7l55.9,41.7l-2.4,2.3L17.6,62.4
			C17.6,61.4,17.6,60.5,17.4,59.8z M130.7,193.7c2,4.1,0.4,9.3-3.7,11.3c-2.2,1.1-4.3,1.3-6.9,0.5c-2.1-0.8-4-2.3-4.9-4.7
			l-18.1-40.8l13.5-6.3L130.7,193.7z M108.2,147.9l-12.3,5.6l-1-23.1c0.7,0.3,1.4,0,2.4,0.1l0.5,0c0.5,0,1.2-0.2,1.7-0.2
			c0.2-0.2,0.5,0,0.7-0.2c0.5,0,0.7-0.2,1.4-0.4c0.2-0.2,0.7-0.2,1-0.4c0.2-0.2,0.7-0.2,1-0.4L108.2,147.9z M120.2,107.2L105.5,121
			c-2.7,2.5-7,3.4-10.5,2.1c-0.5,0-0.9-0.5-1.6-0.8L34.4,87.7c-6.5-4-11.6-9.9-14-16.8l50.4,32.9c1.2,0.7,3.1,0.8,4.3-0.3l7.3-6.9
			L94.7,85c4.1-3.8,10.4-3.6,14.3,0.4l11.5,12.2c0.5,0.5,1.4,1,2.1,1.3l3.1,0.3l0,0l27.5,2.7l-6.3,11.9l-23.3-7.1
			C122.3,106,121.1,106.2,120.2,107.2z M202.1,128.8c0.6,2.2,0.3,4.8-0.9,6.9c-2.3,4-7.5,5.2-11.5,3l-38.4-22.6l7.1-13.1l39.6,20.5
			C199.8,124.9,201.4,126.6,202.1,128.8z"/>
	</g>
</g>
<g class="st0">
	<g class="st1">
		<g>
			<path d="M116.6,89.4c11.5-1.5,20.9-7.9,20.9-14.9c0-4.9-4.4-8.5-8.2-10.7c-5.5-3.2-11.9-4.5-18.1-4.5c4-4,7.4-9,9.2-14.4
				c1.5-4.7,2.3-11-1.3-14.9c-3.3-3.3-9-3-13.4-1.8c-6,1.7-11.7,5.2-16.1,9.7c0-8.2-2.3-17.9-8.9-23.6c-2.3-2.2-5.7-3.3-9-2.2
				c-4.2,1.5-7,5.5-8.9,9.4c-2.5,5-3.7,10.7-3.5,16.4c-4.4-4.4-9.9-7.9-15.9-9.5c-4.4-1.2-10-1.7-13.6,1.8c-3.8,3.8-3,10.2-1.3,14.9
				c1.8,5.5,5.2,10.4,9.2,14.4c-6.2,0-12.7,1.3-18.1,4.5c-3.8,2-8.2,5.7-8.2,10.5c0,4.9,4.4,8.5,8.2,10.7c5.5,3.2,11.9,4.5,18.1,4.5
				c-4,4-7.4,9-9.2,14.4c-1.5,4.7-2.3,11,1.3,14.9c3.8,3.8,10.2,2.8,14.7,1.3c5.5-1.8,10.5-5.2,14.6-9.2c0,6.2,1.3,12.7,4.5,18.1
				c2.2,3.8,5.9,8,10.7,8c4.9,0,8.5-4.2,10.7-8c3.2-5.5,4.5-11.9,4.5-18.1c4,4.2,9,7.4,14.6,9.2c4.5,1.5,10.9,2.3,14.7-1.3
				c4.9-4.9,2.3-13.4-0.2-18.6c2.3,2.3,4.5,4.9,6.7,7.7c14.2,18.9,24.4,52.5-6,105.9c-2.2,3.7,3.7,7,5.9,3.3
				c10.9-18.9,16.7-35.6,19.2-50.2c6.7,2.7,14.2,3.8,21.3,1.7c5.7-1.7,9-5,14.1-9.9c7.7-7.4,15.7-14.1,24.4-20.1
				c1.8-1.2,2-4,0.2-5.4c-13.2-10.5-31.8-12.2-46-4c-5.9,3.3-9.9,7.7-12.9,12C142.8,115,127.5,98.3,116.6,89.4z M111.6,66
				c11.9,0,19.4,6,19.4,8.5c0,2.5-7.5,8.5-19.4,8.5c-5.2,0-9.4-1.2-12.6-2.5c1-3.8,1-7.9,0-11.9C102.3,67.2,106.4,66,111.6,66z
				 M94.7,42.4c8.7-9.5,19.1-8.2,19.6-7.5s1.8,9.4-7.5,19.6c-3.5,3.7-7.4,5.9-10.7,7c-2-3.3-5-6.4-8.4-8.4
				C88.9,49.8,91.2,45.9,94.7,42.4C100.9,36.2,91.4,46.1,94.7,42.4z M74.6,18.3c2.5,0,8.5,7.5,8.5,19.4c0,5-1.2,9.4-2.5,12.6
				c-3.8-1-8-1-11.9,0c-1.5-3.2-2.5-7.5-2.5-12.6C66.1,25.8,72.1,18.3,74.6,18.3z M34.8,34.9c0.5-0.7,10.7-1.5,19.6,7.5l0,0
				c3.5,3.5,5.9,7.4,7,10.7c-3.3,2.2-6.4,5-8.4,8.4c-3.3-1.2-7.4-3.3-10.7-7C32.3,43.6,34.3,35.5,34.8,34.9z M37.7,83.1
				c-11.9,0-19.4-6-19.4-8.5S25.8,66,37.7,66c5.2,0,9.4,1.2,12.6,2.5c-1,3.8-1,8,0,11.9C47,81.9,42.7,83.1,37.7,83.1z M54.6,106.6
				c-8.4,8.4-17.9,9.4-19.7,7.7c-0.3-0.3-2.8-9.5,7.7-19.7c3.7-3.5,7.4-5.9,10.7-7c2,3.3,5,6.4,8.4,8.4
				C60.2,99.5,57.9,103.3,54.6,106.6z M74.6,130.9c-2.5,0-8.5-7.5-8.5-19.4c0-5,1.2-9.4,2.5-12.6c3.8,1,8,1,11.9,0
				c1.5,3.2,2.5,7.5,2.5,12.6C83.2,123.4,77.1,130.9,74.6,130.9z M74.6,92.9c-10.2,0-18.4-8.2-18.4-18.4s8.2-18.4,18.4-18.4
				S93,64.3,93,74.5S84.7,92.9,74.6,92.9z M114.5,114.3c-1.8,1.8-11.4,0.7-19.7-7.7c-3.5-3.5-5.9-7.4-7-10.7c3.3-2,6.4-5,8.4-8.4
				c3.3,1.2,7,3.5,10.7,7C117.3,104.3,114.8,114,114.5,114.3z M161.7,135.4c8.7-4.9,19.2-5.5,28.6-2.2c-9.9,1.7-19.4,6.4-27.1,10.5
				c-7,4-12.2,7.4-16.2,10.4C148.8,148.3,152.8,140.5,161.7,135.4z M186.6,144c-5,4.2-8.5,7.5-11.4,10.4c-4.7,4.5-7.2,7-11.4,8.2
				c-4.5,1.3-9.5,1-15.4-1c4.4-3.3,9.9-7.2,18.1-11.7c9.9-5.5,18.1-8.9,25.3-9.9C189.9,141.1,188.3,142.6,186.6,144z"/>
		</g>
	</g>
</g>
<g>
	<title>Artboard 10</title>
	<g>
		<path d="M46.6,134.7c-0.7-1.9-2.3-3.3-4.5-3.3H17.3l-8.2-24.9c-0.9-2.3-3.5-3.8-5.9-3c-2.3,0.9-3.8,3.5-3,5.9l8.9,26.7l-8.9,26.7
			c-0.7,2.3,0.5,5.2,3,5.9c2.3,0.7,5.2-0.5,5.9-3l8.2-24.9h21.3l8.2,24.9c0.9,2.3,3.5,3.8,5.9,3c2.3-0.9,3.8-3.5,3-5.9L46.6,134.7z"
			/>
		<path d="M125.6,103.2H97.4V56.3h75c2.6,0,4.7-2.1,4.7-4.7l0,0v-9.4c0-1.9-0.9-3.5-2.6-4.2L94.7,0.5c-1.2-0.7-2.8-0.7-4,0
			L10.9,38.1c-1.6,0.7-2.6,2.3-2.6,4.2v9.4c0,2.6,2.1,4.7,4.7,4.7l0,0h75v46.9H60.9c-2.6-0.5-4.7,1.6-4.7,4.2s2.1,4.7,4.7,5.2h27.1
			v46.9h-4.7c-1.7,0-3.3,0.8-4.1,2.3c-1.8,3.5,0.7,7.1,4.1,7.1h18.8c1.7,0,3.3-0.8,4.1-2.3c1.8-3.5-0.7-7.1-4.1-7.1h-4.7v-46.9
			l27.9,0c2,0,4-1.2,4.7-3.1C131.1,106.3,128.7,103.2,125.6,103.2z M17.7,45.3l75-35.4l75,35.4V47H17.7V45.3z"/>
		<path d="M178.4,136.1l8.9-26.7c0.7-2.3-0.5-5.2-3-5.9c-2.3-0.7-5.2,0.5-5.9,3l-8.2,24.9h-24.9c-2.1,0-3.8,1.4-4.5,3.3l-9.4,28.1
			c-0.7,2.3,0.5,5.2,3,5.9c2.3,0.7,5.2-0.5,5.9-3l8.2-24.9H170l8.2,24.9c0.9,2.3,3.5,3.8,5.9,3c2.3-0.9,3.8-3.5,3-5.9L178.4,136.1z"
			/>
	</g>
</g>
<g class="st0">
	<path class="st1" d="M216.5,95.4c-2.9-12.4-12.9-21.7-25.1-24.1c0-0.7-0.2-1.5-0.5-2.2c-1.9-8.3-6.8-15.3-14.1-19.7
		c-5.8-3.7-12.7-5.4-19.5-4.6c-5.6-14.6-21.2-23.1-36.8-19.5c-4.6,1-9,3.2-12.7,6.1c-5.8-4.4-12.7-6.8-19.7-6.8
		c-12.7,0-24.1,7.8-29,19.2C42,42.5,27.7,54.9,25.5,71C9.9,73-2.1,86.4-2.1,102.5c0,13.4,8.5,25.6,20.9,30c0,0,0,0,0,0
		c-0.7,16.3,11.1,29.1,30.7,33.1c1.9,0.5,16.6,0.5,35.1,0.5c27.8,0,64.3-0.2,79.9-0.5l9.5-0.7h0.7c14.1-3.2,24.6-18.3,24.6-33.6
		C212.6,124.9,219.9,110,216.5,95.4z M192.9,123.6l-3.7,1.2l0.5,3.7c1.5,11.7-6.4,24.1-16.9,26.8l-8.6,0.7
		c-43.2,0.5-108.9,0.7-113.5,0c-5.4-1.2-23.3-6.1-23.3-22.4c0-1.5,0.2-2.9,0.5-4.1l1-4.6l-4.7-1C13.9,121.7,6.5,112.4,6.5,102
		c0-12.4,10.1-22.4,22.3-22.4h4.7v-4.6c0-12.4,10.1-22.4,22.3-22.4c1.5,0,2.9,0.2,4.7,0.5l4.4,0.7l1.2-4.1
		c2.7-9.5,11.5-16.1,21.6-16.1c6.1,0,12,2.4,16.2,6.8l3.4,3.7l3.4-3.7c2.9-3.2,6.9-5.6,11.3-6.6c12-2.7,24,4.6,27,16.8l1,4.6l4.7-1
		c5.9-1.5,11.8-0.2,16.9,2.7c5.1,3.2,8.6,8,10.1,13.9c0.2,1.5,0.5,2.9,0.5,4.4v4.4l4.4,0.2c9.8,0.5,18.4,7.6,20.6,17.3
		C209.8,108.5,203.7,120,192.9,123.6z"/>
	<path class="st1" d="M166.8,92.3c-7.1-3.7-15.3-2.7-21.2,2.4c-4.4-2.2-9.3-2.7-13.9-1.2c-4.9,1.5-8.8,4.6-11.2,9.3
		c-0.5,1-0.2,1.9,0.7,2.4c1,0.5,1.9,0.2,2.4-0.7c1.9-3.7,5.1-6.3,9-7.6c3.9-1.2,8-0.7,11.7,1.2c0.2,0,0.2,0.2,0.5,0.2l1.2,0.7l1-1
		c4.9-4.9,12.2-5.8,18-2.7c7.6,3.9,10.2,13.4,6.3,20.9c-0.5,1-0.2,1.9,0.7,2.4c0.2,0.2,0.5,0.2,0.7,0.2c0.7,0,1.2-0.2,1.5-1
		C179.5,108.9,176,97.2,166.8,92.3z"/>
	<path class="st1" d="M72.3,71.4c-4.9-1.5-10-0.7-14.4,1.7c-6.8,3.9-10.7,11.4-9.5,19.2c-8.8,5.1-11.9,16.6-6.8,25.6
		c0.2,0.5,1,1,1.5,1c0.2,0,0.5,0,1-0.2c1-0.5,1.2-1.5,0.7-2.4c-4.1-7.3-1.5-16.8,6.1-20.9c0.2,0,0.2-0.2,0.5-0.2l1.2-0.5l-0.2-1.5
		c-1.5-6.6,1.7-13.4,7.6-16.6c3.7-1.9,7.8-2.4,11.7-1.5c3.9,1.2,7.3,3.7,9.3,7.3c0.5,1,1.5,1.2,2.4,0.7c1-0.5,1.2-1.5,0.7-2.4
		C81.3,76,77.1,72.8,72.3,71.4z"/>
</g>
<g class="st0">
	<g class="st1">
		<g>
			<g>
				<rect x="7.5" y="166.5" width="31.1" height="9.6"/>
				<rect x="76.8" y="166.5" width="31.1" height="9.6"/>
				<rect x="110.2" y="166.5" width="31.1" height="9.6"/>
				<rect x="41" y="166.5" width="31.1" height="9.6"/>
				<rect x="143.7" y="166.5" width="31.1" height="9.6"/>
				<rect x="179.5" y="166.5" width="31.1" height="9.6"/>
				<rect x="24.2" y="180.8" width="31.1" height="9.6"/>
				<rect x="57.7" y="180.8" width="31.1" height="9.6"/>
				<rect x="93.5" y="180.8" width="31.1" height="9.6"/>
				<rect x="126.9" y="180.8" width="31.1" height="9.6"/>
				<rect x="160.4" y="180.8" width="31.1" height="9.6"/>
				<rect x="196.2" y="180.8" width="11.9" height="9.6"/>
				<rect x="7.5" y="195.1" width="31.1" height="9.6"/>
				<rect x="41" y="195.1" width="31.1" height="9.6"/>
				<rect x="76.8" y="195.1" width="31.1" height="9.6"/>
				<rect x="110.2" y="195.1" width="31.1" height="9.6"/>
				<rect x="143.7" y="195.1" width="31.1" height="9.6"/>
				<rect x="179.5" y="195.1" width="31.1" height="9.6"/>
				<rect x="24.2" y="209.5" width="31.1" height="9.6"/>
				<rect x="57.7" y="209.5" width="31.1" height="9.6"/>
				<rect x="7.5" y="180.8" width="11.9" height="9.6"/>
				<rect x="7.5" y="209.5" width="11.9" height="9.6"/>
				<rect x="93.5" y="209.5" width="31.1" height="9.6"/>
				<rect x="126.9" y="209.5" width="31.1" height="9.6"/>
				<rect x="160.4" y="209.5" width="31.1" height="9.6"/>
				<rect x="196.2" y="209.5" width="11.9" height="9.6"/>
			</g>
			<path d="M208.2,42.3v-2.4h-14.3V23.1l2.4-3.3L190.5,4L185,19.8l4.1,3.3v16.8h-23.9V23.1l3.6-3.3L163.3,4l-5.5,15.8l2.6,3.3v16.8
				h-21.5V24.1l3.5-3.3l-6-15.8l-5.8,15.8l3.5,3.3v15.8h-23.9V23.1l3.8-3.3L108.6,4l-5.5,15.8l2.4,3.3v16.8H84V23.1l2.9-3.3L81.3,4
				l-5.5,15.8l3.3,3.3v16.8H55.3V24.1l3.5-3.3L52.8,5L47,20.8l3.5,3.3v15.8H29V23.1l3.1-3.3L26.6,4l-5.5,15.8l3.1,3.3v16.8H7.5v4.8
				h16.7v93.2H7.5v4.8h16.7v19.1H29v-19.1h21.5v19.1h4.8v-19.1h23.9v19.1H84v-19.1h21.5v19.1h4.8v-19.1h23.9v19.1h4.8v-19.1h21.5
				v19.1h4.8v-19.1h23.9v19.1h4.8v-19.1h14.3v-4.8h-16.7V42.3H208.2z M29,137.8V42.3h23.9v95.5H29z M55.3,137.8V42.3h23.9v95.5H55.3
				z M84,137.8V42.3h23.9v95.5H84z M110.2,137.8V42.3h23.9v95.5H110.2z M136.5,137.8V42.3h23.9v95.5H136.5z M189.1,137.8h-23.9V42.3
				h23.9V137.8z"/>
		</g>
	</g>
</g>
<g class="st0">
	<g class="st1">
		<g>
			<g>
				<g>
					<path d="M43.6,39.7c1.6,1.6,3.3,3.3,4.9,4.9c3.9,3.9,7.9,7.9,11.8,11.8c4.7,4.7,9.5,9.5,14.2,14.2c4.1,4.1,8.2,8.2,12.3,12.3
						c2,2,3.9,4.1,6,6c0,0,0.1,0.1,0.1,0.1c0-1.9,0-3.8,0-5.7l-8.5,8.5h5.7c-1.6-1.6-3.3-3.3-4.9-4.9C81.4,83,77.5,79,73.6,75.1
						c-4.7-4.7-9.5-9.5-14.2-14.2c-4.1-4.1-8.2-8.2-12.3-12.3c-2-2-4-4.1-6-6c0,0-0.1-0.1-0.1-0.1c-1.5-1.5-4.2-1.6-5.7,0
						c-0.4,0.4-0.8,0.8-1.2,1.2c-0.2,0.2-0.4,0.4-0.7,0.7c0,0-0.1,0.1-0.1,0.1c-0.1,0.1-0.1,0.1-0.2,0.2c-0.4,0.4,0.1-0.2,0.2-0.2
						c0,0-0.6,0.3-0.6,0.4c0,0,0.8-0.3,0.4-0.2c-0.4,0.1,0.5-0.1,0.5-0.1c0.3,0,0.6,0.1,0.9,0.2c0.5,0.1,0.2,0.1,0,0
						c0,0,0.6,0.4,0.2,0.1c-0.4-0.4,0.3,0.4,0.3,0.4c-0.1-0.1-0.2-0.2-0.3-0.3c-1.4-1.9-2.8-3.8-4.2-5.6c-3-4-6.1-8-9-12
						c-0.1-0.1-0.1-0.2-0.2-0.3c-0.2-0.3-0.4-0.8-0.1-0.1c-0.1-0.2-0.3-0.5,0,0c0.2,0.3,0,0.3,0,0c0,0-0.2,0.8,0,0.4
						c0.2-0.5-0.3,0.7-0.1,0.2c0.2-0.4-0.4,0.3-0.1,0.2c0.1-0.1,0.2-0.2,0.3-0.3c0.9-0.9,1.8-1.8,2.7-2.7c1.2-1.2,2.3-2.3,3.4-3.4
						c0.4-0.4,0.8-0.8,1.1-1.1c0.1-0.1,0.2-0.2,0.3-0.3c0.2-0.3-0.5,0.3-0.2,0.1c0.4-0.2-0.3,0.1-0.3,0.1c0.1,0,0.6-0.1,0,0
						c-0.5,0.1-0.1,0,0,0c0,0-0.8-0.1-0.4,0s-0.3-0.1-0.3-0.1c0,0,0.4,0.2,0.4,0.2c0.1,0.1,0.3,0.2,0.4,0.3c0.1,0.1,0.2,0.2,0.4,0.3
						c0.7,0.5,1.4,1.1,2.2,1.6c2.5,1.9,5,3.8,7.5,5.7c2.2,1.7,4.5,3.4,6.7,5c0.4,0.3,0.8,0.6,1.3,1c0,0-0.5-0.4-0.5-0.4
						c0.1,0.1,0.5,0.3,0.1,0c-0.3-0.2-0.1-0.2,0,0c-0.1-0.3-0.2-0.5-0.3-0.8c0-0.3,0-0.6,0.1-0.9c0,0.2-0.2,0.4,0.1,0
						c0.4-0.8-0.3,0.3-0.2,0.3c0-0.1,0.5-0.6,0.2-0.3c-0.1,0.1-0.2,0.2-0.3,0.3c0,0-0.1,0.1-0.1,0.1c-0.2,0.2-0.5,0.5-0.7,0.7
						c-0.4,0.4-0.8,0.8-1.2,1.2C42.1,35.5,42,38.2,43.6,39.7c1.6,1.5,4.1,1.6,5.7,0c1.2-1.2,2.5-2.3,3.4-3.7c1-1.6,1.4-3.6,0.8-5.4
						c-0.5-1.7-1.7-2.8-3.1-3.8c-1.7-1.3-3.5-2.6-5.3-4c-2.9-2.1-5.7-4.3-8.6-6.4c-1.6-1.2-3.2-2.7-5-3.6c-3-1.6-6.4-1.1-8.8,1.3
						C21.9,15,21,16,20,16.9c-1.2,1.2-2.5,2.5-3.7,3.7c-1.1,1.1-2.2,2.1-2.8,3.6c-1.1,2.5-0.5,5.3,1.1,7.4c0.5,0.7,1.1,1.5,1.7,2.2
						c2,2.7,4.1,5.5,6.1,8.2c1.7,2.3,3.4,4.5,5.1,6.8c1.2,1.5,2.3,3,4.3,3.6c3.1,1.1,5.7-0.8,7.8-2.9c0.5-0.5,0.9-0.9,1.4-1.4h-5.7
						c1.6,1.6,3.3,3.3,4.9,4.9C44,57,47.9,61,51.9,64.9c4.7,4.7,9.5,9.5,14.2,14.2c4.1,4.1,8.2,8.2,12.3,12.3c2,2,4,4.1,6,6
						c0,0,0.1,0.1,0.1,0.1c1.9,1.9,5.3,1.5,6.5-1.2c2.3-2.3,4.4-4.3,6.7-6.6c2.5-1.3,2.8-4.6,1-6.5c-1.6-1.6-3.3-3.3-4.9-4.9
						c-3.9-3.9-7.9-7.9-11.8-11.8c-4.7-4.7-9.5-9.5-14.2-14.2c-4.1-4.1-8.2-8.2-12.3-12.3c-2-2-4-4.1-6-6c0,0-0.1-0.1-0.1-0.1
						c-1.5-1.5-4.3-1.6-5.7,0C42.1,35.6,42,38.1,43.6,39.7z"/>
				</g>
			</g>
			<g>
				<g>
					<path d="M190.9,181.3c-2.1,2.1-4.2,4.2-6.3,6.3c-0.7,0.7-1.4,1.5-2.2,2.2c-0.3,0.3-0.6,0.5-0.9,0.8c-0.5,0.5,0.6-0.4-0.2,0.2
						c-0.6,0.4-1.2,0.7-1.9,1.1c-0.6,0.3,0.7-0.2-0.2,0.1c-0.3,0.1-0.6,0.2-0.9,0.3c-0.4,0.1-0.7,0.2-1.1,0.3c-0.1,0-0.3,0-0.4,0.1
						c-0.5,0.1,0.9-0.1,0.1,0c-0.6,0-1.3,0.1-1.9,0.1c-0.3,0-0.6,0-1-0.1c-0.6,0,0.8,0.2,0.2,0c-0.2-0.1-0.5-0.1-0.7-0.1
						c-0.6-0.1-1.3-0.3-1.9-0.6c-0.7-0.2,0.7,0.3-0.2-0.1c-0.3-0.2-0.7-0.3-1-0.5c-0.3-0.2-0.6-0.4-0.9-0.5c-0.6-0.4,0,0.1,0.1,0.1
						c-0.1-0.1-0.4-0.3-0.4-0.4c-0.2-0.2-0.4-0.4-0.7-0.6c-0.1-0.1-0.2-0.2-0.3-0.3c-1.3-1.3-2.6-2.6-3.9-3.9
						c-5.1-5.1-10.2-10.3-15.4-15.4c-4.6-4.6-9.1-9.1-13.7-13.7c-0.5-0.5-1-1-1.4-1.4c-0.1-0.1-0.2-0.2-0.3-0.3
						c0-0.1-0.4-0.5-0.4-0.4c0.1,0,0.5,0.8,0.1,0.1c-0.1-0.1-0.1-0.2-0.2-0.4c-0.1-0.1-0.4-0.6-0.1-0.1c0.3,0.4,0-0.1-0.1-0.3
						c0-0.2-0.3-1.2-0.1-0.5c0.1,0.6,0-0.3,0-0.5c0-0.7-0.2,0.8,0-0.1c0-0.2,0.1-0.4,0.1-0.5c0.1-0.2,0.3-0.6,0-0.2
						c-0.3,0.5,0.2-0.4,0.3-0.5c0.4-0.7-0.1,0.1-0.1,0.1c0-0.1,0.4-0.4,0.4-0.4c0.1-0.1,0.2-0.2,0.3-0.3c1.2-1.2,2.5-2.5,3.7-3.7
						c0.3-0.3,0.7-0.7,1-1c1.5-1.5,1.6-4.2,0-5.8c-4.9-4.9-9.9-9.9-14.8-14.8c-0.7-0.7-1.4-1.4-2.1-2.1c0,1.9,0,3.8,0,5.8
						c2.8-2.8,5.6-5.6,8.5-8.5c-1.9,0-3.8,0-5.7,0c4.9,4.9,9.9,9.9,14.8,14.8c0.7,0.7,1.4,1.4,2.1,2.1c1.5,1.5,4.2,1.6,5.7,0
						c1.6-1.6,3.3-3.3,4.9-5c0,0,0.4-0.4,0.4-0.4c0,0-0.6,0.4-0.2,0.2c0.1-0.1,0.2-0.2,0.4-0.2s0.3-0.1,0.4-0.2
						c0.3-0.2-0.3,0.1-0.3,0.1c0.2,0,0.7-0.2,0.9-0.3c0.1,0,0.3,0,0.4-0.1c0,0-0.8,0-0.4,0.1c0.3,0,0.6,0,0.8,0c0.4,0-0.4,0-0.4-0.1
						c0.1,0.1,0.3,0.1,0.4,0.1c0.2,0.1,0.7,0.3,0.9,0.3c-0.1,0-0.7-0.4-0.3-0.1c0.1,0.1,0.2,0.1,0.4,0.2c0.1,0.1,0.2,0.2,0.4,0.2
						c0.4,0.2-0.3-0.2-0.2-0.2c0,0,0.4,0.4,0.4,0.4c0.1,0.1,0.1,0.1,0.2,0.2c2.8,2.8,5.6,5.6,8.5,8.5c4.7,4.7,9.4,9.4,14.1,14.1
						c3.6,3.6,7.2,7.2,10.8,10.8c0.4,0.4,0.8,0.8,1.1,1.1c0.1,0.1,0.2,0.2,0.2,0.2l0,0c0.2,0.2,0.4,0.4,0.6,0.7
						c0.1,0.1,0.2,0.2,0.3,0.3c0.4,0.4-0.4-0.6-0.1-0.1c0.3,0.5,0.6,1,0.9,1.5c0.1,0.2,0.2,0.5,0.4,0.8c0.2,0.4-0.1-0.3-0.1-0.3
						c0,0.2,0.2,0.5,0.2,0.7c0.2,0.5,0.3,1.1,0.4,1.6c0,0.1,0.1,0.3,0.1,0.4c0,0.2,0.2,0.4,0,0c-0.2-0.4,0-0.2,0,0
						c0,0.2,0,0.4,0,0.5c0,0.5,0,1.1,0,1.7c0,0.3-0.1,0.6-0.1,0.8c0,0,0.1-0.8,0-0.4c0,0.2-0.1,0.4-0.1,0.5
						c-0.1,0.5-0.3,1.1-0.4,1.6c0,0.1-0.1,0.3-0.1,0.4c-0.3,0.7,0-0.1,0.1-0.2c-0.2,0.1-0.3,0.7-0.4,0.9c-0.3,0.5-0.6,1-0.9,1.5
						c-0.2,0.4,0.2-0.2,0.2-0.2c0,0-0.3,0.3-0.3,0.3C191.4,180.8,191.1,181.1,190.9,181.3c-1.5,1.5-1.6,4.2,0,5.8
						c1.6,1.5,4.2,1.6,5.7,0c4.3-4.4,6.1-10.7,4.8-16.7c-0.8-3.5-2.7-6.5-5.2-8.9c-3.2-3.3-6.5-6.5-9.7-9.8
						c-4.9-4.9-9.8-9.9-14.8-14.8c-3.2-3.2-6.4-6.4-9.6-9.6c-2.9-2.9-6.9-4.3-10.9-3.2c-3.8,1-6.4,4.3-9,7c-0.3,0.3-0.5,0.5-0.8,0.8
						c1.9,0,3.8,0,5.7,0c-4.9-4.9-9.9-9.9-14.8-14.8c-0.7-0.7-1.4-1.4-2.1-2.1c-1.5-1.5-4.2-1.6-5.7,0c-2.8,2.8-5.6,5.6-8.5,8.5
						c-1.5,1.5-1.6,4.2,0,5.8c4.9,4.9,9.9,9.9,14.8,14.8c0.7,0.7,1.4,1.4,2.1,2.1c0-1.9,0-3.8,0-5.8c-1.1,1.1-2.1,2.1-3.2,3.2
						c-1.4,1.4-3,2.8-3.9,4.7c-1.8,4-1.3,8.3,1.5,11.7c0.4,0.4,0.8,0.8,1.1,1.2c4.1,4.1,8.3,8.3,12.4,12.4
						c5.5,5.5,11,11.1,16.6,16.6c4.3,4.3,8.4,9.3,14.8,10.4c6.1,1,11.9-1,16.3-5.3c2.5-2.5,4.9-4.9,7.4-7.4c0.2-0.2,0.4-0.4,0.7-0.7
						c1.5-1.5,1.6-4.3,0-5.8C195,179.8,192.5,179.7,190.9,181.3z"/>
				</g>
			</g>
			<g>
				<g>
					<path d="M150.8,146.9c3.2,3.2,6.5,6.5,9.7,9.7c5.2,5.2,10.3,10.3,15.4,15.4c1.2,1.2,2.4,2.4,3.5,3.5c1.5,1.5,4.3,1.6,5.7,0
						s1.6-4.1,0-5.7c-3.2-3.2-6.5-6.5-9.7-9.7c-5.2-5.2-10.3-10.3-15.4-15.4c-1.2-1.2-2.4-2.4-3.5-3.5c-1.5-1.5-4.3-1.6-5.7,0
						C149.4,142.8,149.2,145.3,150.8,146.9L150.8,146.9z"/>
				</g>
			</g>
			<g>
				<g>
					<path d="M176.8,178.4c-3.2-3.2-6.5-6.5-9.7-9.7c-5.2-5.2-10.3-10.3-15.4-15.4c-1.2-1.2-2.4-2.4-3.5-3.5c-1.5-1.5-4.3-1.6-5.7,0
						c-1.5,1.6-1.6,4.1,0,5.7c3.2,3.2,6.5,6.5,9.7,9.7c5.2,5.2,10.3,10.3,15.4,15.4c1.2,1.2,2.4,2.4,3.5,3.5c1.5,1.5,4.3,1.6,5.7,0
						S178.4,180,176.8,178.4L176.8,178.4z"/>
				</g>
			</g>
		</g>
		<g>
			<g>
				<g>
					<path d="M195.3,51.1c-4.8,4.8-9.7,9.7-14.6,14.6c-2.3,2.3-4.7,4.7-7,7c-0.2,0.2-0.3,0.3-0.5,0.5c-0.4,0.4-0.9,0.9-1.3,1.2
						c-0.4,0.3-0.8,0.6-1.1,0.9c0.1-0.1,0.6-0.5,0-0.1c-0.3,0.2-0.5,0.4-0.8,0.5c-0.7,0.5-1.4,0.9-2.2,1.3c-0.4,0.2-0.8,0.4-1.1,0.6
						c-0.2,0.1-0.5,0.2-0.7,0.3c-0.4,0.2-0.5,0.3,0,0c-0.8,0.4-1.8,0.7-2.6,0.9c-0.9,0.3-1.8,0.5-2.7,0.6c-0.2,0-0.4,0.1-0.6,0.1
						c-0.6,0.1,0.1-0.1,0.2,0c-0.1-0.1-1.1,0.1-1.2,0.1c-0.9,0.1-1.8,0.1-2.8,0.1c-0.9,0-1.9,0-2.8-0.2c0.1,0,0.9,0.1,0.2,0
						c-0.2,0-0.4-0.1-0.6-0.1c-0.5-0.1-1-0.2-1.5-0.3c-0.9-0.2-1.7-0.5-2.5-0.8c-0.3-0.1-0.5-0.2-0.8-0.3c-0.1,0-0.8-0.3-0.3-0.1
						c0.5,0.2-0.2-0.1-0.3-0.1c-0.3-0.1-0.6-0.3-0.9-0.4c-0.9-0.4-1.7-0.9-2.5-1.4c-0.4-0.2-0.8-0.5-1.1-0.8
						c-0.2-0.1-0.4-0.3-0.5-0.4c0.7,0.5-0.2-0.2-0.2-0.2c-0.3-0.3-0.7-0.6-1-0.9c0,0-0.5-0.5-0.5-0.5c-0.2,0.1,1.1,1.2-0.4-0.4
						c-0.3-0.3-0.6-0.7-1-1c-0.2-0.2-0.4-0.4-0.6-0.6c-0.1-0.1-0.6-0.8-0.3-0.4c0.3,0.4-0.1-0.2-0.2-0.3c-0.2-0.2-0.3-0.5-0.5-0.7
						c-0.2-0.4-0.5-0.8-0.7-1.1c-0.5-0.9-1-1.7-1.4-2.6c-0.1-0.2-0.2-0.4-0.3-0.6c0.3,0.8,0.1,0.2,0,0.1c-0.2-0.5-0.3-0.9-0.5-1.4
						c-0.3-0.9-0.6-1.9-0.8-2.8c-0.1-0.4-0.2-0.9-0.3-1.4c0-0.2-0.2-0.8,0,0.2c0-0.2,0-0.4-0.1-0.6c-0.1-0.9-0.1-1.8-0.1-2.8
						c0-0.9,0-1.7,0.1-2.6c0-0.2,0-0.4,0.1-0.6c0.1-0.6-0.2,1,0,0c0.1-0.4,0.2-0.9,0.2-1.4c0.2-0.9,0.4-1.7,0.7-2.5
						c0.1-0.4,0.3-0.8,0.4-1.2c0.1-0.2,0.1-0.4,0.2-0.6c0.3-0.9-0.3,0.6,0.1-0.2c0.8-1.7,1.8-3.3,2.8-4.9c0.1-0.1,0.5-0.6-0.1,0
						c0.1-0.2,0.3-0.3,0.4-0.5c0.3-0.3,0.6-0.7,0.9-1c0.3-0.3,0.6-0.7,0.9-1c1.8-1.8,3.7-3.7,5.5-5.5c5.5-5.5,11-11,16.4-16.4
						c0.1-0.1,0.2-0.2,0.3-0.3c2.1-2.1,1.2-6.1-1.8-6.8c-15.3-3.7-32-0.9-45,8.2c-6.7,4.7-12.4,10.7-16.6,17.7
						c-4,6.8-6.4,14.4-7.4,22.2c-1,8.3,0,17,2.9,24.8c0.3-1.3,0.7-2.6,1-4c-4.3,4.3-8.5,8.5-12.8,12.8c-5.6,5.6-11.3,11.3-16.9,16.9
						c-8.3,8.3-16.6,16.6-24.9,24.9c-6.1,6.1-12.3,12.3-18.4,18.4c-1.9,1.9-3.8,3.8-5.4,6c-6.2,8.6-6.2,21-0.2,29.7
						c5.8,8.4,15.7,12.7,25.8,11.3c5.9-0.8,11-3.8,15.2-7.9c5-5,9.9-9.9,14.9-14.9c8.2-8.2,16.5-16.5,24.7-24.7
						c6.7-6.7,13.3-13.3,20-20c4-4,8-8,11.9-11.9c1.1-1.1,2.3-2.3,3.4-3.4c-1.3,0.3-2.6,0.7-4,1c14.5,5,30.8,3.7,44.4-3.4
						c14-7.3,24.5-20.9,28.2-36.2c2-8.6,2.1-17.5,0.1-26.1c-0.5-2.1-3-3.5-5-2.8c-2.2,0.7-3.3,2.8-2.8,5c0.2,0.9,0.4,1.7,0.5,2.6
						c0.1,0.4,0.1,0.8,0.2,1.2c0,0.2,0.1,0.4,0.1,0.6c0.1,0.5-0.1-0.8,0,0c0.2,1.8,0.3,3.5,0.4,5.3c0,1.7,0,3.5-0.2,5.2
						c0,0.5-0.1,0.9-0.1,1.4c0,0.3-0.2,0.9-0.1,1.2c0-0.1,0.1-1,0-0.2c0,0.2-0.1,0.4-0.1,0.6c-0.1,0.5-0.2,1-0.3,1.5
						c-0.6,3.4-1.7,6.8-3,10.1c-0.3,0.7,0,0,0-0.1c0,0.2-0.2,0.4-0.2,0.6c-0.2,0.4-0.4,0.9-0.6,1.3c-0.4,0.8-0.8,1.6-1.2,2.4
						c-0.9,1.6-1.9,3.2-2.9,4.7c-0.2,0.3-0.5,0.7-0.8,1c-0.1,0.2-0.3,0.3-0.4,0.5c-0.1,0.1-0.5,0.6-0.2,0.2c0.4-0.5-0.3,0.3-0.3,0.3
						c-0.1,0.2-0.3,0.3-0.4,0.5c-0.3,0.4-0.6,0.8-1,1.1c-1.3,1.4-2.6,2.8-4,4.1c-0.6,0.6-1.3,1.1-1.9,1.7c-0.3,0.3-0.6,0.5-1,0.8
						c-0.6,0.5,0,0,0.1-0.1c-0.2,0.2-0.5,0.4-0.8,0.6c-1.4,1-2.9,2-4.4,2.9c-1.5,0.9-3.1,1.7-4.6,2.4c-0.4,0.2-0.8,0.3-1.1,0.5
						c1-0.4-0.4,0.1-0.6,0.2c-0.8,0.3-1.6,0.6-2.4,0.9c-1.7,0.5-3.4,1-5.1,1.4c-0.8,0.2-1.7,0.3-2.5,0.5c-0.4,0.1-0.8,0.1-1.2,0.2
						c-0.2,0-0.8,0.1,0.2,0c-0.2,0-0.5,0.1-0.8,0.1c-3.8,0.4-7.7,0.5-11.5,0.1c-0.3,0-1.9-0.2-0.7-0.1c-0.5,0-1-0.1-1.5-0.2
						c-0.9-0.1-1.8-0.3-2.7-0.5c-1.9-0.4-3.9-1-5.8-1.6c-1.3-0.5-3,0.1-4,1c-4.2,4.2-8.5,8.5-12.7,12.7
						c-5.4,5.4-10.9,10.9-16.3,16.3c-8.2,8.2-16.3,16.3-24.4,24.4c-6.3,6.3-12.7,12.7-19,19c-1,1-2,2-3,3c-0.3,0.3-0.7,0.7-1.1,1
						c-0.2,0.2-0.4,0.3-0.6,0.5c-0.2,0.2-0.6,0.6,0,0c-0.6,0.8-1.9,1.3-2.8,1.8c-0.5,0.2-0.9,0.5-1.4,0.7c-0.7,0.3,0.1,0,0.2-0.1
						c-0.1,0.1-0.6,0.2-0.8,0.3c-1,0.4-2,0.6-3.1,0.9c-0.2,0-0.5,0.1-0.7,0.1c-0.3,0.1-1.1,0,0,0c-0.4,0-0.9,0.1-1.4,0.1
						c-1,0.1-2,0-3.1,0c-0.1,0-0.7,0-0.8-0.1c0.2,0,0.3,0,0.5,0.1c-0.2,0-0.4-0.1-0.5-0.1c-0.5-0.1-0.9-0.2-1.4-0.3
						c-1-0.2-2-0.6-2.9-0.9c-0.9-0.3,0.8,0.4-0.1,0c-0.3-0.1-0.5-0.2-0.8-0.4c-0.4-0.2-0.9-0.4-1.3-0.7c-0.4-0.2-0.8-0.5-1.2-0.8
						c-0.2-0.2-0.5-0.3-0.7-0.5c-0.7-0.5,0.5,0.5-0.1-0.1c-0.9-0.7-1.7-1.5-2.5-2.3c-0.4-0.4-0.8-0.8-1.1-1.3
						c0.6,0.8-0.1-0.1-0.2-0.2c-0.2-0.3-0.4-0.5-0.5-0.8c-0.3-0.5-0.6-1-0.9-1.6c-0.1-0.2-0.2-0.5-0.4-0.7c-0.1-0.2-0.6-1.1-0.1-0.2
						c-0.6-1-0.8-2.3-1.1-3.4c-0.1-0.6-0.2-1.1-0.3-1.7c-0.1-0.6,0.1,1,0,0c0-0.3-0.1-0.6-0.1-1c-0.1-1.2,0-2.3,0.1-3.5
						c0.1-1.1-0.2,0.9,0-0.2c0-0.2,0.1-0.4,0.1-0.6c0.1-0.6,0.3-1.2,0.4-1.9c0.1-0.5,0.3-1,0.5-1.5c0.1-0.3,0.2-0.6,0.3-0.9
						c-0.3,0.6-0.1,0.1,0.1-0.2c0.5-1.1,1.1-2.1,1.8-3.1c0.1-0.2,0.3-0.4,0.4-0.5c0.6-0.9-0.5,0.6,0.2-0.2c0.4-0.5,0.9-1,1.4-1.5
						c0.3-0.3,0.5-0.5,0.8-0.8c5.1-5.1,10.3-10.3,15.4-15.4c8.1-8.1,16.2-16.2,24.3-24.3c6.6-6.6,13.1-13.1,19.7-19.7
						c3.9-3.9,7.8-7.8,11.8-11.8c1.1-1.1,2.2-2.2,3.4-3.4c1-1,1.5-2.6,1-4c-0.6-1.7-1.1-3.4-1.5-5.1c-0.4-1.6-1-3.5-1-5.2
						c0,0.1,0.1,0.9,0,0.2c0-0.2,0-0.4-0.1-0.6c0-0.4-0.1-0.8-0.1-1.2c-0.1-0.9-0.1-1.8-0.2-2.7c-0.1-1.7,0-3.4,0.1-5.1
						c0.1-0.9,0.1-1.7,0.2-2.6c0-0.1,0.2-1.4,0.1-0.8c-0.1,0.7,0-0.3,0.1-0.3c0-0.2,0.1-0.5,0.1-0.8c0.3-1.7,0.7-3.4,1.1-5.2
						c0.5-1.7,1-3.3,1.6-4.9c0.1-0.4,0.3-0.8,0.4-1.1c-0.4,0.9,0.1-0.2,0.2-0.4c0.4-0.8,0.8-1.7,1.2-2.5c0.8-1.6,1.7-3.2,2.7-4.7
						c0.5-0.8,1-1.5,1.5-2.2c0.1-0.2,0.9-1.2,0.3-0.4c0.3-0.4,0.7-0.8,1-1.2c2.4-2.8,5-5.4,7.9-7.7c0.6-0.5,0.1,0-0.1,0
						c0.2-0.2,0.4-0.3,0.6-0.5c0.3-0.2,0.7-0.5,1-0.8c0.8-0.5,1.6-1.1,2.4-1.6c1.6-1,3.2-1.8,4.8-2.6c0.4-0.2,0.8-0.4,1.1-0.5
						c0.2-0.1,0.4-0.2,0.6-0.2c0.3-0.1,0.5-0.4-0.1,0c0.7-0.5,1.8-0.7,2.6-1c1.7-0.6,3.3-1.1,5.1-1.5c1-0.2,2-0.4,3-0.6
						c0.5-0.1,1-0.2,1.5-0.2c0.2,0,0.8-0.2-0.2,0c0.2,0,0.5-0.1,0.8-0.1c2-0.2,4-0.3,6-0.3c1.9,0,3.9,0.1,5.8,0.3
						c0.2,0,0.4,0,0.6,0.1c-1.1-0.2,0,0,0.1,0c0.5,0.1,1,0.2,1.5,0.3c1,0.2,2,0.4,3,0.6c-0.6-2.3-1.2-4.5-1.8-6.8
						c-5.1,5.1-10.1,10.1-15.1,15.1c-2.3,2.3-4.6,4.6-6.9,6.9c-4.7,4.7-8,10.7-9,17.3c-1.3,8.9,1,17.7,6.6,24.7
						c0.3,0.4,0.6,0.7,0.9,1.1c0.2,0.2,0.3,0.3,0.5,0.5c0.1,0.1,0.2,0.2,0.2,0.3c0.3,0.3,0.3,0.3,0,0c-0.1-0.1-0.1-0.2-0.2-0.3
						c0.2,0.3,0.5,0.7,0.8,1c0.2,0.2,0.4,0.4,0.6,0.6c0.4,0.4,0.9,0.8,1.3,1.1c1.8,1.4,3.6,2.7,5.6,3.8c3.9,2,8.1,3.1,12.5,3.5
						c8.4,0.6,16.8-2.5,23-8.1c1.9-1.7,3.7-3.7,5.6-5.5c5.7-5.7,11.4-11.4,17.1-17.1c0.1-0.1,0.3-0.3,0.4-0.4c1.5-1.5,1.6-4.3,0-5.7
						C199.4,49.6,196.9,49.5,195.3,51.1z"/>
					<path d="M39.3,176C38.7,176.6,40,175.7,39.3,176c-0.2,0.2-0.4,0.3-0.5,0.4c0.5-0.2,0.6-0.2,0.3-0.1c-0.3,0.1-0.5,0.1-0.8,0.2
						c-0.3,0.1-0.2,0,0.4-0.1c-0.2,0-0.4,0-0.5,0c-0.8,0.1,0.8,0.3,0,0c-0.2-0.1-0.7-0.1-0.8-0.2c0.5,0.2,0.6,0.3,0.3,0.1
						c-0.1-0.1-0.2-0.1-0.4-0.2c-0.3-0.2-0.3-0.2,0,0c0.3,0.2,0.3,0.2,0-0.1c-0.3-0.3-0.3-0.3,0.1,0.2c-0.1-0.1-0.1-0.2-0.2-0.2
						c-0.1-0.2-0.2-0.3-0.3-0.5c0.1,0.2,0.1,0.3,0.2,0.5c-0.1-0.1-0.2-0.6-0.2-0.8c-0.2-0.8,0,0.9,0-0.1c0-0.9-0.1,0.3,0,0
						c0-0.2,0.1-0.8,0.3-0.9c-0.1,0.2-0.1,0.3-0.2,0.5c0.1-0.2,0.2-0.3,0.3-0.5c0.1-0.1,0.1-0.2,0.2-0.2c-0.3,0.4-0.4,0.5-0.1,0.2
						c0.3-0.2,0.3-0.3,0-0.1c-0.3,0.2-0.2,0.2,0,0c0.1-0.1,0.2-0.1,0.4-0.2c0.3-0.1,0.2-0.1-0.3,0.1c0.1-0.1,0.6-0.2,0.8-0.2
						c0.8-0.3-0.8,0,0,0c0.2,0,0.4,0,0.5,0c-0.6-0.1-0.7-0.1-0.4-0.1c0.3,0.1,0.5,0.1,0.8,0.2c0.3,0.1,0.2,0.1-0.3-0.1
						c0.1,0.1,0.2,0.1,0.4,0.2c0.9,0.5-0.4-0.4,0.2,0.2c0.6,0.6-0.3-0.7,0.1,0.1c0,0.1,0.1,0.2,0.1,0.2c0.2,0.4,0.2,0.3,0-0.2
						c0,0.2,0.2,0.6,0.2,0.8c0.2,0.8,0-0.8,0,0c-0.1,1.1,0.1,0,0.1,0c0,0-0.2,0.7-0.2,0.8c-0.2,0.7,0.4-0.7-0.1,0.2
						C38.9,176.7,39.9,175.4,39.3,176c-1.5,1.5-1.6,4.2,0,5.7c1.6,1.5,4.2,1.6,5.7,0c2.9-3,3.5-7.3,1.7-11c-1.6-3.3-5.4-5.5-9-5.2
						c-4,0.3-7.6,3.1-8.7,7.1c-1,4,0.6,8,4,10.3c3.7,2.6,8.8,1.8,12-1.2c1.5-1.5,1.6-4.3,0-5.7C43.4,174.5,41,174.4,39.3,176z"/>
				</g>
			</g>
			<g>
				<g>
					<path d="M61.3,157.8c1.7-1.7,3.5-3.5,5.2-5.2c4.2-4.2,8.4-8.4,12.6-12.6c5.1-5.1,10.1-10.1,15.2-15.2
						c4.4-4.4,8.7-8.7,13.1-13.1c2.1-2.1,4.3-4.2,6.4-6.4c0,0,0.1-0.1,0.1-0.1c1.5-1.5,1.6-4.3,0-5.7c-1.6-1.5-4.1-1.6-5.7,0
						c-1.7,1.7-3.5,3.5-5.2,5.2c-4.2,4.2-8.4,8.4-12.6,12.6c-5.1,5.1-10.1,10.1-15.2,15.2c-4.4,4.4-8.7,8.7-13.1,13.1
						c-2.1,2.1-4.3,4.2-6.4,6.4c0,0-0.1,0.1-0.1,0.1c-1.5,1.5-1.6,4.3,0,5.7C57.2,159.3,59.7,159.4,61.3,157.8L61.3,157.8z"/>
				</g>
			</g>
		</g>
	</g>
</g>
<g class="st0">
	<title>Artboard 11</title>
	<g class="st1">
		<path d="M200.7,91h-10.8c-2.2-9.9-5.9-19.1-11.4-27.6l7.5-7.5c1.8-1.8,1.8-4.4,0-6.1l0,0l-18.6-18.6c-1.8-1.8-4.4-1.8-6.1,0l0,0
			l-7.5,7.5c-8.3-5.5-17.8-9.4-27.6-11.4V16.4c0-2.4-2-4.4-4.4-4.4l0,0H95.4C93,12,91,14,91,16.4v0.2v10.7
			c-9.9,2.2-19.1,5.9-27.6,11.4l-7.5-7.7c-1.8-1.8-4.4-1.8-6.1,0l0,0L31.1,49.8c-1.8,1.8-1.8,4.4,0,6.1l0,0l7.5,7.5
			c-5.5,8.3-9.4,17.8-11.4,27.6H16.4C14,91,12,93,12,95.4l0,0v26.3c0,2.4,2,4.4,4.4,4.4h0.2h10.7c2.2,9.8,5.9,19,11.4,27.6l-7.7,7.7
			c-1.8,1.7-1.8,4.4,0,6.1l0,0L49.8,186c1.8,1.7,4.4,1.7,6.1,0l0,0l7.5-7.4c8.3,5.5,17.8,9.4,27.6,11.4v10.7c0,2.4,2,4.4,4.4,4.4
			l0,0h26.3c2.4,0,4.4-2,4.4-4.4v0v-10.7c9.8-2.2,19-5.9,27.6-11.4l7.4,7.5c1.7,1.8,4.4,1.8,6.1,0l0,0l18.6-18.6
			c1.7-1.8,1.7-4.4,0-6.1l0,0l-7.4-7.5c5.5-8.3,9.4-17.8,11.4-27.6h10.9c2.4,0,4.4-2,4.4-4.4l0,0V95.4C205,93,203.1,91,200.7,91
			L200.7,91z M196.3,117.3h-9.6c-2.2,0-3.9,1.5-4.4,3.7c-1.8,11.2-6.1,21.5-12.7,30.7c-1.3,1.8-1.1,4.2,0.4,5.7l7,7L164.5,177l-7-7
			c-1.5-1.5-3.9-1.8-5.7-0.4c-9.2,6.6-19.7,11-30.7,12.7c-2.2,0.4-3.7,2.2-3.7,4.4v9.6H99.8v-9.6c0-2.2-1.5-3.9-3.7-4.4
			c-11.2-1.8-21.6-6.1-30.8-12.7c-1.8-1.3-4.2-1.1-5.7,0.4l-7,7L40,164.5l7-7c1.5-1.5,1.8-3.9,0.4-5.7c-6.6-9.2-11-19.7-12.8-30.7
			c-0.4-2.2-2.2-3.7-4.4-3.7h-9.5V99.8h9.6c2.2,0,3.9-1.5,4.4-3.7c1.8-11.2,6.1-21.6,12.7-30.8c1.3-1.8,1.1-4.2-0.4-5.7l-7-7
			l12.5-12.5l7,7c1.5,1.5,3.9,1.8,5.7,0.4c9.2-6.6,19.7-11,30.7-12.8c2.2-0.4,3.7-2.2,3.7-4.4v-9.5h17.5v8.8c0,2.2,1.5,4,3.7,4.4
			c11.2,1.8,21.6,6.2,30.8,12.9c1.8,1.3,4.2,1.1,5.7-0.4l7-7.1L177.1,52l-7,7.1c-1.5,1.6-1.8,4-0.4,5.8c6.6,9.3,11,20,12.8,31.1
			c0.4,2.2,2.2,3.8,4.4,3.8h9.5V117.3z"/>
		<path d="M107.9,47.1c-34,0-61.4,27.4-61.4,61.4s27.4,61.4,61.4,61.4s61.4-27.4,61.4-61.4S141.9,47.1,107.9,47.1z M99.8,160.3
			v-24.1c0-1.8-0.9-3.3-2.5-3.9c-13.5-6.1-19.1-21.7-12.8-34.9c1.6-3.3,3.8-6.1,6.5-8.3v17.3c0,4.8,3.9,8.8,8.8,8.8h17.5
			c4.8,0,8.8-3.9,8.8-8.8V89c11,9.7,12.1,26.1,2.2,36.8c-2.5,2.6-5.4,4.8-8.5,6.4c-1.6,0.7-2.5,2.2-2.5,3.9v24.1
			C111.3,161.4,105.3,161.4,99.8,160.3z M126.1,158.1v-19.3c16.7-9.6,22.6-30.9,12.9-47.6c-3.5-6.1-9-11.2-15.4-14.3
			c-2.2-1.1-4.8-0.2-5.9,2c-0.2,0.7-0.4,1.3-0.4,2v25.4H99.8V80.9c0-2.4-2-4.4-4.4-4.4c-0.7,0-1.3,0.2-2,0.4
			c-17.5,8.1-25,29-16.7,46.5c3.1,6.6,8.1,11.8,14.3,15.4v19.3c-28.4-10-42.7-41.8-30.9-70c10.1-24.2,37.1-37.2,62.4-30.3
			c29.8,8.2,45.7,39.6,35.7,68.3C152.9,141,141,152.8,126.1,158.1z"/>
	</g>
</g>
<g class="st0">
	<g class="st1">
		<path d="M216.9,150.5c-0.5-12-10.1-21.6-22.1-21.6c-11.2,0-20.5,8.7-21.8,20.7h-51.6V97.7h8.7c1.6-1.3,2.7-2.4,2.2-4V77.3
			c0.5-1.6-2.2-4.2-2.2-4.2h-6v-8.3c0-4.3-3.4-8.1-7.9-8.1H99.3c-4.2,0-7.9,3.5-7.9,8.1v8.3h-6c0,0-2.7,2.5-2.2,4.2v16.4
			c-0.5,1.6,0.5,2.7,2.2,4h8.7v51.9H42.8c-1.4-12.2-10.6-20.7-21.8-20.7c-12,0-21.6,9.6-22.1,21.6c0,0.3-0.3,0.5-0.3,0.8
			c0,1.6,1.1,2.7,2.7,3.8h96.4h20.2h96.6c1.6-1,2.7-2.1,2.7-3.8C217.2,151,217.2,150.7,216.9,150.5z M195.1,135.4
			c8.2,0,15,6.3,16.4,14.2h-32.8C179.8,141.7,186.6,135.4,195.1,135.4z M96.6,64.9c0-1.4,1.1-2.7,2.7-2.7H116c1.3,0,2.6,1.1,2.6,2.7
			v8.3H96.8v-8.2H96.6z M88.4,81.3h5.4h27.7h5.4v10.9h-9.2H97.8h-9.2V81.3H88.4z M20.9,135.4c8.2,0,15,6.3,16.4,14.2H4.6
			C5.9,141.7,12.7,135.4,20.9,135.4z M102.3,149.6V97.7h13.6v51.9H102.3z"/>
		<path d="M66.5,50.8c0.5,0.5,1.4,0.8,1.9,0.8c0.8,0,1.4-0.3,1.9-0.8c1.1-1.1,1.1-2.7,0-3.8l-7.6-7.9c-1.1-1.1-2.7-1.1-3.8,0
			c-1.1,1.1-1.1,2.7,0,3.8L66.5,50.8z"/>
		<path d="M45,65.5l10.1,2.2c0.3,0,0.3,0,0.5,0c1.4,0,2.5-0.8,2.7-2.2c0.3-1.4-0.5-3-2.2-3.3L46,60c-1.4-0.3-3,0.5-3.3,2.2
			C42.5,63.9,43.6,65.2,45,65.5z"/>
		<path d="M45.5,95c0.3,0,0.3,0,0.5,0l10.1-2.2c1.4-0.3,2.5-1.6,2.2-3.3c-0.3-1.4-1.6-2.5-3.3-2.2L45,89.5c-1.4,0.3-2.5,1.6-2.2,3.3
			C43.3,94.2,44.4,95,45.5,95z"/>
		<path d="M65.2,105.1l-6.3,6.6c-1.1,1.1-1.1,2.7,0,3.8c0.5,0.5,1.1,0.8,1.9,0.8c0.8,0,1.4-0.3,1.9-0.8L69,109
			c1.1-1.1,1.1-2.7,0-3.8C67.9,104,66.2,104,65.2,105.1z"/>
		<path d="M150.3,51.6c0.8,0,1.4-0.3,1.9-0.8l7.6-7.9c1.1-1.1,1.1-2.7,0-3.8c-1.1-1.1-2.7-1.1-3.8,0l-7.6,7.9
			c-1.1,1.1-1.1,2.7,0,3.8C149,51.4,149.5,51.6,150.3,51.6z"/>
		<path d="M160.7,65.5c0.3,1.4,1.4,2.2,2.7,2.2c0.3,0,0.3,0,0.5,0l10.1-2.2c1.4-0.3,2.5-1.6,2.2-3.3c-0.3-1.4-1.6-2.5-3.3-2.2
			l-10.4,2.2C161.2,62.5,160.2,63.9,160.7,65.5z"/>
		<path d="M162.6,92.8l10.1,2.2c0.3,0,0.3,0,0.5,0c1.4,0,2.5-0.8,2.7-2.2c0.3-1.4-0.5-3-2.2-3.3l-10.1-2.2c-1.4-0.3-3,0.5-3.3,2.2
			C160.2,90.9,161.2,92.2,162.6,92.8z"/>
		<path d="M153.6,105.1c-1.1-1.1-2.7-1.1-3.8,0c-1.1,1.1-1.1,2.7,0,3.8l6.3,6.6c0.5,0.5,1.4,0.8,1.9,0.8c0.8,0,1.4-0.3,1.9-0.8
			c1.1-1.1,1.1-2.7,0-3.8L153.6,105.1z"/>
	</g>
</g>
<g class="st0">
	<title>a</title>
	<g class="st1">
		<circle cx="78" cy="139.6" r="7.7"/>
		<path d="M208,119.8V109c0-1.1-0.4-1.9-1.1-2.7l-19.1-19.1c-0.8-0.8-1.5-1.1-2.7-1.1h-57.4V47.8c0-4.2-3.4-7.7-7.7-7.7H81.7
			c-4.2,0-7.7,3.4-7.7,7.7v26.8H10.6c-2.3,0-4.2,0.8-5.7,2.7C1.4,80.7-2.5,89.5-2.5,109v26.8c0,4.2,3.4,7.7,7.7,7.7h4.2
			c1.9,12.6,13.8,21,26.4,18.7c9.6-1.5,17.2-9.2,18.7-18.7h0.8c1.9,12.6,13.8,21,26.4,18.7c9.6-1.5,17.2-9.2,18.7-18.7h2.7
			c1.9,0,3.8-0.8,5.4-2.3l16.8-16.8c1.5-1.5,2.3-3.4,2.3-5.4V109h48.2l7.7,7.7h-40.6c-4.2,0-7.7,3.4-7.7,7.7v24.5
			c0,3.1,1.5,5.7,4.2,6.9l13.4,6.5l0,0c0.4,0.4,1.1,0.4,1.5,0.4h11.5c2.3,0,3.8-1.5,3.8-3.8c0-2.3-1.5-3.8-3.8-3.8h-7.7v-30.6h21
			c-9.1,10.4-7.5,26.6,4.5,34.5c8.7,5.8,20.7,4.9,28.3-2.3c10.1-9.5,9.8-25.2-0.3-34.2C210.7,121.7,209.5,120.5,208,119.8z
			 M97,101.4V63.1h23v38.3H97z M5.2,109c0-19.1,4.2-25.3,5.4-26.8h63.5v34.8c-9.6,1.5-17.2,9.2-18.7,18.7h-0.4c0,0,0,0,0-0.4
			c-2.3-12.6-14.4-20.7-27.2-18.4c-9.7,1.5-17.1,9.2-18.7,18.4c0,0,0,0,0,0.4H5.2V109z M32.1,155c-8.4,0-15.3-6.9-15.3-15.3
			c0-8.4,6.9-15.3,15.3-15.3s15.3,6.9,15.3,15.3C47.4,148.1,40.5,155,32.1,155z M78,155c-8.4,0-15.3-6.9-15.3-15.3
			c0-8.4,6.9-15.3,15.3-15.3s15.3,6.9,15.3,15.3C93.3,148.1,86.4,155,78,155z M120,118.6l-17.2,17.2h-2.7c-1.6-9.4-9-16.8-18.3-19.1
			c-0.4,0,0.4,0,0,0V47.8H120v7.7H97c-4.2,0-7.7,3.4-7.7,7.7v38.3c0,4.2,3.4,7.7,7.7,7.7h23V118.6z M177.4,101.4h-49.7v-7.7h55.9
			l16.8,16.8v6.1H200c-1.1-0.4-2.3-0.4-3.4-0.4c-1.1,0-2.3,0-3.4,0.4h-0.4v-0.4c0-1.1-0.4-1.9-1.1-2.6l-11.5-11.2
			C179.3,101.8,178.5,101.4,177.4,101.4z M142.9,124.3h7.7v28.3l-7.7-3.8V124.3z M196.6,155c-8.4,0-15.3-6.9-15.3-15.3
			c0-6.1,3.4-11.5,9.2-13.8l0,0c3.1-1.1,6.1-1.5,9.2-0.8c8.4,1.9,13.4,9.9,11.9,18.4C210,150,203.9,155,196.6,155z"/>
		<circle cx="196.6" cy="139.6" r="7.7"/>
		<circle cx="32.1" cy="139.6" r="7.7"/>
		<path d="M16.8,109h30.6c2.3,0,3.8-1.5,3.8-3.8c0-2.3-1.5-3.8-3.8-3.8H16.8c-2.3,0-3.8,1.5-3.8,3.8C12.9,107.5,14.5,109,16.8,109z"
			/>
		<path d="M16.8,97.6h30.6c2.3,0,3.8-1.5,3.8-3.8c0-2.3-1.5-3.8-3.8-3.8H16.8c-2.3,0-3.8,1.5-3.8,3.8C12.9,96,14.5,97.6,16.8,97.6z"
			/>
	</g>
</g>
<g class="st0">
	<title>015 - Tractor</title>
	<desc>Created with Sketch.</desc>
	<g class="st1">
		<g>
			<path d="M37.8,141.1c-10.3,0-18.4,8.1-18.4,18.4S27.4,178,37.8,178s18.4-8.1,18.4-18.4S48.1,141.1,37.8,141.1z M37.8,170.6
				c-6.3,0-11.1-4.8-11.1-11.1s4.8-11.1,11.1-11.1s11.1,4.8,11.1,11.1S44,170.6,37.8,170.6z"/>
			<path d="M148.4,163.2c-4.4,0-8.5,2.6-10.3,7c-1.8,4.1-0.7,8.8,2.6,12.2c3.3,3.3,8.1,4.1,12.2,2.6c4.1-1.8,7-5.9,7-10.3
				C159.4,168.4,154.6,163.2,148.4,163.2z M148.4,178c-2.2,0-3.7-1.8-3.7-3.7c0-2.2,1.8-3.7,3.7-3.7c2.2,0,3.7,1.8,3.7,3.7
				C152,176.5,150.6,178,148.4,178z"/>
			<path d="M54.7,197.5c10.7-4.8,18.8-14.4,22.1-25.8h46.1c-1.5,10.3,3.3,20.6,12.2,25.8 M161.8,196.4c7.4-4.4,12.2-12.5,12.5-21.4
				s-3.7-17-11.1-22.1v-29.5c0-1.8-1.5-3.3-3.3-3.7l-22.1-2.6l10-52.3h37.6H202c1.1,0,1.8-0.4,2.6-1.1l12.9-12.9
				c1.4-1.4,1.4-3.7,0-5.2l-31.3-31.3c-1.4-1.4-3.7-1.4-5.2,0l-12.9,12.9c-0.7,0.7-1.1,1.5-1.1,2.6v16.6c0,1.1,0.4,1.8,1.1,2.6
				l8.5,8.5h-30.2l-7.4-7.4h16.8c0,0,3.7-2.6,3.7-4.8s-1.5-3.7-3.7-2.6h-25.8c-0.4-1.1-0.7-1.1-1.5-0.7c0,0-0.4,0-0.4,0.4
				c-0.4,0-0.7,0.4-1.7,0.4l0,0v0.4c0.5,0.4,0.5,0.4,0.5,0.7l3.1,0.4v0.4L113,113.5l-12.3-1.5V68.5c0-2-1.7-3.7-3.7-3.7H30.6
				c-2.2,0-3.7,1.5-3.7,3.7c0,2.2,1.5,3.7,3.7,3.7h3.7v33.2h-3.7c-2.2,0-3.7,1.5-3.7,3.7c0,2.2,1.5,3.7,3.7,3.7h3.7v6.6
				c-18.4,1.5-33.2,15.5-36.1,33.5s6.3,35.8,22.9,43.5 M174.4,31.3l9.2-9.2l26.2,26.2l-9.2,9.2h-13.6l-12.5-12.5V31.3z M93.3,116.4
				v14.7h-5.5c-4.4-8.5-11.8-15.9-20.3-20.3V72.2h25.8V116.4z M41.6,72.2h18.4v35.4c-4.8-1.5-9.6-2.2-14.7-2.2h-3.7V72.2z
				 M45.3,112.7c5.9,0,11.4,1.1,17,3.7c8.8,4.1,15.9,11.1,19.9,19.9c2.6,5.2,3.7,11.1,3.7,17v11.1l-7.4,0c-0.1-0.1-0.1-0.1-0.1-0.2
				c1.9-22.6-14.5-41.8-36.7-43.7v-7.7H45.3z M37.8,192.7c-14,0-26.5-8.8-31.3-22.1c-4.8-13.3-0.7-28,10.3-36.9
				c10.7-8.8,26.2-10,38-2.6s18.1,21.4,15.5,35C67.3,181.7,53.6,192.7,37.8,192.7z M166.8,174.3c0,10.3-8.1,18.4-18.4,18.4
				s-18.4-8.1-18.4-18.4c0-10.3,8.1-18.4,18.4-18.4S166.8,164,166.8,174.3z M155.9,150.7c-12.2-3.7-25.1,2.2-30.6,13.6H93.3v-11.1
				c0-5.2-0.7-10-2.2-14.7h5.9c0,0,0,0,0.4,0s0,0,0,0l47.2,3.7h0.4c2.2,0,3.7-1.5,3.7-3.7c0-2.2-1.5-3.7-3.7-3.7l-44.2-3.3v-10.7
				l55.3,6.6V150.7z M120,114.2l12.2-61.6l8.5,8.5l-10.3,54.2L120,114.2z"/>
		</g>
	</g>
</g>
<g class="st0">
	<path class="st1" d="M190.9,20.3L-2.2,157.9c-2,1.4-2.4,3.7-1,5.7l0,0l23.7,33.3c1.4,2,3.7,2.4,5.7,1l0,0L219.3,60.2
		c2-1.4,2.4-3.7,1-5.7l0,0l-23.7-33.3C195.1,19.2,192.9,18.8,190.9,20.3L190.9,20.3z M197.9,65.4l-11.7,8.3c1.5-12.6-6.5-24-19-26.6
		l11.7-8.3L197.9,65.4z M40.8,158.3c-5.2-7.3-3.5-17.6,3.8-22.8c7.3-5.2,17.6-3.5,22.8,3.8c5.2,7.3,3.5,17.6-3.8,22.8
		C56.3,167.4,46,165.6,40.8,158.3z M60.8,123l21.6-15.4l7.1,10c1.4,2,3.7,2.4,5.7,1l0,0l26.6-19c2-1.4,2.4-3.7,1-5.7l0,0l-7.1-10
		l21.6-15.4c-1.5,12.6,6.5,24,19,26.6l-76.6,54.6C81,137.2,72.9,125.9,60.8,123z M147.3,82.4c-5.2-7.3-3.5-17.6,3.8-22.8
		s17.6-3.5,22.8,3.8c5.2,7.3,3.5,17.6-3.8,22.8S152.5,89.7,147.3,82.4z M109,88.6l4.7,6.7l-20,14.2l-4.7-6.7L109,88.6z M5.8,162.1
		l6.7-4.7l19,26.6l-6.7,4.7L5.8,162.1z M19.2,152.7l11.7-8.3c-1.5,12.6,6.5,24,19,26.6l-11.7,8.3L19.2,152.7z M211.3,55.9l-6.7,4.7
		l-19-26.6l6.7-4.7L211.3,55.9z"/>
	<path class="st1" d="M46,158.6l20-14.2c2-1.4,2.4-3.7,1-5.7c-1.4-2-3.7-2.4-5.7-1l-20,14.2c-2,1.4-2.4,3.7-1,5.7S44,160,46,158.6z"
		/>
	<path class="st1" d="M152.5,82.7l20-14.2c2-1.4,2.4-3.7,1-5.7s-3.7-2.4-5.7-1l-20,14.2c-2,1.4-2.4,3.7-1,5.7S150.5,84.1,152.5,82.7
		z"/>
</g>
<g class="st0">
	<path class="st1" d="M190.8,0.7l-29.2,34v31.6h-23.9V34.6l-29.2-34l-29.2,34v31.6H55.5V34.6l-29.2-34l-29.2,34v182.7h58.4v-37.1
		h23.9v37.1h58.4v-37.1h23.9v37.1h58.4V34.6L190.8,0.7z M47.5,212.1H2.5v-31.8h45.1V212V212.1z M47.5,174.9H2.5V74.2h45.1V174V174.9
		z M47.5,66.2H2.5V36.8L25,9.7l22.5,27.1v29.9V66.2z M79.4,174.9H55.5V74.2h23.9V174.9z M132.2,212.1H84.7v-31.8h47.7v31.8H132.2z
		 M132.2,174.9H84.7V74.2h47.7v100.8H132.2z M132.2,66.2H84.7V36.8l23.9-27.1l23.9,27.1v29.4H132.2z M161.6,174.9h-23.9V74.2h23.9
		V174.9z M212,212.1h-45.1v-31.8H212V212V212.1z M212,174.9h-45.1V74.2H212V174V174.9z M214.4,66.2h-47.5V36.8l23.9-27.1l23.9,27.1
		v29.4H214.4z"/>
</g>
</svg>
