<?xml version="1.0" encoding="utf-8"?>
<!-- Generator: Adobe Illustrator 23.0.4, SVG Export Plug-In . SVG Version: 6.00 Build 0)  -->
<svg version="1.1" id="Layer_1" xmlns="http://www.w3.org/2000/svg" xmlns:xlink="http://www.w3.org/1999/xlink" x="0px" y="0px"
	 viewBox="0 0 215.1 120.7" style="enable-background:new 0 0 215.1 120.7;" xml:space="preserve">
<style type="text/css">
	.st0{display:none;}
	.st1{display:inline;}
</style>
<g>
	<g>
		<path d="M5.1,120.7l204.3,0c2.4,0,4.6-1.4,5.4-3.6c1.2-3.7-1.6-7.2-5.1-7.2h-11.9c3.5-12.1,8.6-26.4,16.2-37c0,0,0-0.3,0.3-0.3
			v-0.9c0,0-0.5-1.9-0.5-3c0-3-2.4-5.4-5.4-5.4c-0.8,0-1.6,0.3-2.2,0.5c-1.3,0.5-15.9,7-30,20c-2.2-7.8-4.3-18.1-5.4-30
			c-0.3-2.2-1.9-4.3-4-4.9s-4.6,0.3-5.9,2.2c-0.3,0.5-6.2,9.4-12.4,22.1c-5.1-22.4-1.9-48-1.6-48.3c0.3-2.7-1.1-5.1-3.5-5.9
			c-2.4-0.8-5.1,0.3-6.5,2.4l-40.5,71c-4.6-39.4,6.7-85.3,7-85.8c0.5-2.4-0.5-4.9-2.7-6.2c-2.2-1.1-4.9-0.5-6.5,1.3
			C78.3,20.8,68.8,44.3,63.1,65c-5.7-15.1-10.3-24-10.5-24.6c-1.3-2.4-4-3.5-6.5-2.7s-4,3.5-3.5,6.2c1.1,5.4,1.3,20.5,1.1,42.4
			C34,71,25.4,60.2,24.8,59.6c-1.6-2.2-4.6-2.7-7-1.3c-2.4,1.3-3.2,4.3-2.2,6.7c7.8,17.8,8.9,32.9,8.1,44.9H5.4
			c-3-1.5-5.4,1-5.4,3.9C0,116.9,5.1,120.7,5.1,120.7z M194.3,84c-3.8,8.9-6.7,17.8-8.9,25.9h-16.7c2.4-4,5.4-7.8,8.9-11.3l0.3-0.3
			C183.2,92.4,189.2,87.8,194.3,84z M162.2,71.4c1.6,8.6,3.5,16.2,5.4,22.1c-4.6,5.1-8.4,10.5-11.3,16.5h-8.6
			c1.1-5.7,2.7-11.6,5.4-18.1C155.7,84,159.2,77,162.2,71.4z M141.9,90c-2.7,7-4.3,13.8-5.4,20h-37l35.1-61.8
			C134.9,60.8,136.5,76.8,141.9,90z M88,108.9l-0.5,1.1H75.8c-1.6-7.8-3.8-15.9-6.2-23.7c3-15.7,8.4-35.6,18.1-54.2
			C84.5,53,82,83.2,88,108.9z M58.8,87.8L58.8,87.8c2.2,7.6,4,14.8,5.7,22.1h-8.4c-0.8-1.6-1.6-3-2.4-4.3c0.3-10,0.5-20.8,0.5-31
			C55.9,78.6,57.2,83,58.8,87.8z M34,93c3.3,5.3,6.7,10.8,10,17c0,0,0,0,0,0l-9.4,0C34.8,105.1,34.8,99.4,34,93z"/>
	</g>
</g>
<g class="st0">
	<path class="st1" d="M54.7,142.7c1,1,1.5,2.2,1.5,3.4s-0.5,2.4-1.5,3.4c-1,1-2.2,1.5-3.4,1.5c-0.7,0-1.2-0.2-1.9-0.5
		c-0.5-0.2-1.2-0.5-1.5-1c-1-1-1.5-2.2-1.5-3.4s0.5-2.4,1.5-3.4c1.2-1.2,2.9-1.7,4.4-1.5c0.2,0,0.5,0.2,1,0.2
		c0.2,0.2,0.5,0.2,0.7,0.5S54.5,142.5,54.7,142.7z M202.4,153.9c-0.2-0.2-0.2-0.5-0.5-0.7c-0.2-0.2-0.5-0.5-0.5-0.7
		c-1.2-1.2-3-1.7-4.5-1.5c-0.2,0-0.7,0.2-1,0.2c-0.2,0.2-0.5,0.2-0.7,0.5c-0.2,0.2-0.5,0.5-0.7,0.5c-0.2,0.2-0.5,0.5-0.5,0.7
		c-0.2,0.2-0.2,0.5-0.5,0.7s-0.2,0.5-0.2,1c0,0.2,0,0.7,0,1c0,1.2,0.5,2.5,1.5,3.5c0.7,1.2,2,1.7,3.2,1.7c0.7,0,1.2-0.2,2-0.5
		c0.5-0.2,1.2-0.5,1.5-1c1-1,1.5-2.2,1.5-3.5c0-0.2,0-0.7,0-1C202.7,154.6,202.7,154.1,202.4,153.9z M221.8,162
		c-2.2,9.4-10,16.9-19.6,18.4c-9.7,1.6-18.4-2.6-23.5-9.4H76c-6.7,6.7-16.3,10.4-26.6,9.6c-16.4-1.3-29.7-14.5-31.2-30.9
		c-1.6-18.1,11-33.8,28.1-36.6L24.4-5.1c-0.5-2.2-2.4-3.9-4.9-3.9l-10.9,0c-2.1,0-4.2-1.2-4.8-3.2c-1.1-3.3,1.4-6.5,4.6-6.5h11.4
		c7.1,0,12.9,4.9,14.3,11.7l22.1,119.9c1.5,0.2,2.7,0.5,4.1,0.7l50.1,6.8v-15.1h-7.3c-2.7,0-4.9-2.2-4.9-4.9v-4.9
		c0-13.4,10.9-24.3,24.3-24.3h14.6c13.4,0,24.3,10.9,24.3,24.3v4.9c0,2.7-2.2,4.9-4.9,4.9h-7.3v20.2l49.1,6.6
		C213.5,132.4,225.3,146.5,221.8,162z M151,95.6c0-8-6.6-14.6-14.6-14.6h-14.6c-8,0-14.6,6.6-14.6,14.6H151z M120.3,105.4v16.3
		l19.5,2.7v-19H120.3z M75.6,146.1c0-11.2-7.5-20.4-17.8-23.3l-6.8-1C37.7,122,27,132.7,27,146.1s10.9,24.3,24.3,24.3
		S75.6,159.5,75.6,146.1z M179.7,139.6L78.3,126c4.4,5.8,7.1,12.9,7.1,20.7c0,5.4-1.2,10.2-3.4,14.6h91.4c-0.2-1.7-0.5-3.2-0.5-4.9
		C172.9,149.9,175.6,144,179.7,139.6z M211.8,155.8c0-8-6.6-14.6-14.6-14.6c-8,0-14.6,6.6-14.6,14.6c0,8,6.6,14.6,14.6,14.6
		C205.3,170.4,211.8,163.9,211.8,155.8z"/>
</g>
<g class="st0">
	<path class="st1" d="M28.1,125.9c4.2,0.4,7.7-1.1,10.4-4.1c4.2,5.1,11.8,5.7,16.9,1.2c0.6-0.3,0.9-0.9,1.2-1.2
		c4.2,5.1,11.8,5.7,16.9,1.2c0.6-0.3,0.9-0.9,1.2-1.2c4.2,5.1,11.8,5.7,16.9,1.2c0.6-0.3,0.9-0.9,1.2-1.2c4.2,5.1,11.8,5.7,16.9,1.2
		c0.6-0.3,0.9-0.9,1.2-1.2c4.2,5.1,11.8,5.7,16.9,1.2c2.4-2.1,3.9-4.8,4.2-8.1l31,31c1.1,1.1,2.3,1.2,5.5,0.2
		c10.6-3.4,17.7-13.4,17.7-24.6l0-46.7h3c1.7,0,3-1.3,3-3V59.6v-0.3V59l-6-36.2c-0.3-1.5-1.5-2.4-3-2.4h-18.1c-1.5,0-2.7,1.2-3,2.4
		L156,59v0.3v0.3v12.1c0,1.7,1.3,3,3,3h3v38l-30.1-30.1V23.3c0-6.3-5.1-12.2-11.3-12.6c-3.9-0.2-7.5,1.3-9.8,4.2
		c-4.2-5.1-11.8-5.7-16.9-1.2c-0.6,0.3-0.9,0.9-1.2,1.2C88.5,9.7,81,9.1,75.9,13.7c-0.6,0.3-0.9,0.9-1.2,1.2
		c-4.2-5.1-11.8-5.7-16.9-1.2c-0.6,0.3-0.9,0.9-1.2,1.2c-4.2-5.1-11.8-5.7-16.9-1.2c-0.6,0.3-0.9,0.9-1.2,1.2
		c-4.2-5.1-12.1-5.7-16.9-1.2c-2.7,2.1-4.2,5.4-4.2,9l0,90.8C17.4,119.4,22.2,125.3,28.1,125.9z M186.2,68.7h-24.1v-6h24.1V68.7z
		 M167.2,26.5h13l5.1,30.1h-22.9L167.2,26.5z M180.2,74.7v51.2c0,7.2-5.1,13.3-12.1,14.8v-66H180.2z M162.1,120.4V136l-30.1-30.1
		V90.2L162.1,120.4z M125.9,23c0,14.5,0,75.4,0,89.8c0,2.6-1.5,5.2-4,6c-4.2,1.4-8-1.7-8-5.7V22.7c0-4,3.9-7.1,8-5.7
		C124.4,17.8,125.9,20.4,125.9,23z M107.8,23c0,14.5,0,75.4,0,89.8c0,2.6-1.5,5.2-4,6c-4.2,1.4-8-1.7-8-5.7V22.7c0-4,3.9-7.1,8-5.7
		C106.3,17.8,107.8,20.4,107.8,23z M89.7,23c0,14.5,0,75.4,0,89.8c0,2.6-1.5,5.2-4,6c-4.2,1.4-8-1.7-8-5.7V22.7c0-4,3.9-7.1,8-5.7
		C88.2,17.8,89.7,20.4,89.7,23z M71.7,23c0,14.5,0,75.4,0,89.8c0,2.6-1.5,5.2-4,6c-4.2,1.4-8-1.7-8-5.7V22.7c0-4,3.9-7.1,8-5.7
		C70.1,17.8,71.7,20.4,71.7,23z M53.6,23c0,14.5,0,75.4,0,89.8c0,2.6-1.5,5.2-4,6c-4.2,1.4-8-1.7-8-5.7V22.7c0-4,3.9-7.1,8-5.7
		C52,17.8,53.6,20.4,53.6,23z M23.4,22.7c0-4,3.9-7.1,8-5.7c2.5,0.8,4,3.4,4,6c0,14.5,0,75.4,0,89.8c0,2.6-1.5,5.2-4,6
		c-4.2,1.4-8-1.7-8-5.7V22.7z"/>
	<path class="st1" d="M174.1-1.4c-1.8,0-3,1.2-3,3v9c0,1.8,1.2,3,3,3c1.8,0,3-1.2,3-3v-9C177.1-0.2,175.9-1.4,174.1-1.4z"/>
	<path class="st1" d="M177.1-19.5c0-1.8-1.2-3-3-3c-1.8,0-3,1.2-3,3v9c0,1.8,1.2,3,3,3c1.8,0,3-1.2,3-3V-19.5z"/>
	<path class="st1" d="M149.7-1.4c0,1.8,1.2,3,3,3c5.1,0,9,3.9,9,9c0,1.8,1.2,3,3,3s3-1.2,3-3c0-8.4-6.6-15.1-15.1-15.1
		C150.9-4.4,149.7-3.2,149.7-1.4z"/>
	<path class="st1" d="M194.9-4.4c-8.4,0-15.1,6.6-15.1,15.1c0,1.8,1.2,3,3,3s3-1.2,3-3c0-5.1,3.9-9,9-9c1.8,0,3-1.2,3-3
		S196.8-4.4,194.9-4.4z"/>
</g>
<g class="st0">
	<g class="st1">
		<path d="M95.3,56C91.1,60,91,66.1,94.9,70.3c3.9,4.2,10.1,4.3,14.3,0.4c4.2-3.9,4.3-10.1,0.4-14.3C105.7,52.3,99.5,52.1,95.3,56z
			 M104.5,65.8c-1.5,1.4-3.4,1.3-4.8-0.1c-1.4-1.5-1.3-3.4,0.1-4.8c1.5-1.4,3.4-1.3,4.8,0.1C106.1,62.5,106,64.4,104.5,65.8z"/>
		<path d="M205.6,76.8l-43.2-22.1l0,0c-0.2-0.2-0.7-0.3-1.2-0.3l0,0l0,0l-31.1-2.6l-0.2-0.2l-31.2-62l0,0
			C93-21.5,82.1-29.5,69.7-31.5c-6.3-1.1-12.4-0.5-18.3,1.3c-1.2-0.3-1.5,0-2,0.4c-0.5,0.5-0.8,0.7-0.8,1.2c-0.5,1-0.3,2.2,0.4,2.9
			l42.1,64.4l-0.5,0.5L80,49.3L18.4,3.2c-1-0.5-2.2-0.8-2.9-0.5c-0.7,0.2-1,0.5-1.5,0.9s-0.8,0.7-0.8,1.2c-2.4,6-2.9,12.1-2.4,18.2
			l0,0l0,0l0,0c1.2,12.4,8.6,23.8,19.3,30.1l60,34.9l0.2,0.2l0.7,31.2l0,0l0,0c0,0.5,0.2,0.7,0.2,1.2l0,0l19.5,44.5
			c1.8,3.9,5.1,6.9,8.9,8.5c4.1,1.3,8.5,0.9,12.5-1c1.2-0.7,2.5-1.4,3.5-2.4c5.1-4.8,6.6-12.3,3.4-18.7l-21.5-43.1L112,83.8
			l12.1-11.4l24.3,7.1l41.7,24c6.2,3.5,13.8,2.5,18.8-2.3c1-1,1.8-2.2,2.6-3.4c2.3-3.6,2.8-8.2,1.7-12.4
			C212.2,82.3,209.4,78.9,205.6,76.8z M92.8-4.9L92.8-4.9L118,43.9l-2.3-2.4c-0.7-0.7-1.4-1.5-2.3-2c-0.2-0.2-0.5-0.5-0.7-0.3
			c-0.7-0.3-1.2-0.7-1.9-1c-0.2-0.2-0.2-0.2-0.7-0.3c-0.9-0.5-1.9-0.5-2.8-1l-0.5,0l-0.5,0l0,0c1.2-1.2,1.5-2.8,0.6-4.3L77-19.7
			C83.6-17.1,89.7-11.7,92.8-4.9z M63.9-21c0.5,0,1,0,1.4,0c1,0,1.7,0.3,2.6,0.3l31.9,55.9l-2.4,2.3l-38.5-58
			C60.5-20.6,62.2-20.8,63.9-21z M20.3,21.5c0-0.5,0-1,0-1.4c0-1.4,0.3-3.1,0.6-4.7L76.8,57l-2.4,2.3L20.4,24.1
			C20.4,23.2,20.5,22.2,20.3,21.5z M133.5,155.5c2,4.1,0.4,9.3-3.7,11.3c-2.2,1.1-4.3,1.3-6.9,0.5c-2.1-0.8-4-2.3-4.9-4.7L100,121.9
			l13.5-6.3L133.5,155.5z M111.1,109.6l-12.3,5.6l-1-23.1c0.7,0.3,1.4,0,2.4,0.1l0.5,0c0.5,0,1.2-0.2,1.7-0.2c0.2-0.2,0.5,0,0.7-0.2
			c0.5,0,0.7-0.2,1.4-0.4c0.2-0.2,0.7-0.2,1-0.4c0.2-0.2,0.7-0.2,1-0.4L111.1,109.6z M123,68.9l-14.7,13.8c-2.7,2.5-7,3.4-10.5,2.1
			c-0.5,0-0.9-0.5-1.6-0.8L37.2,49.4c-6.5-4-11.6-9.9-14-16.8l50.4,32.9c1.2,0.7,3.1,0.8,4.3-0.3l7.3-6.9l12.2-11.5
			c4.1-3.8,10.4-3.6,14.3,0.4l11.5,12.2c0.5,0.5,1.4,1,2.1,1.3l3.1,0.3l0,0l27.5,2.7l-6.3,11.9l-23.3-7.1
			C125.2,67.8,124,68,123,68.9z M204.9,90.5c0.6,2.2,0.3,4.8-0.9,6.9c-2.3,4-7.5,5.2-11.5,3l-38.4-22.6l7.1-13.1l39.6,20.5
			C202.7,86.6,204.3,88.3,204.9,90.5z"/>
	</g>
</g>
<g class="st0">
	<g class="st1">
		<g>
			<path d="M119.5,51.1c11.5-1.5,20.9-7.9,20.9-14.9c0-4.9-4.4-8.5-8.2-10.7c-5.5-3.2-11.9-4.5-18.1-4.5c4-4,7.4-9,9.2-14.4
				c1.5-4.7,2.3-11-1.3-14.9c-3.3-3.3-9-3-13.4-1.8c-6,1.7-11.7,5.2-16.1,9.7c0-8.2-2.3-17.9-8.9-23.6c-2.3-2.2-5.7-3.3-9-2.2
				c-4.2,1.5-7,5.5-8.9,9.4c-2.5,5-3.7,10.7-3.5,16.4c-4.4-4.4-9.9-7.9-15.9-9.5c-4.4-1.2-10-1.7-13.6,1.8c-3.8,3.8-3,10.2-1.3,14.9
				c1.8,5.5,5.2,10.4,9.2,14.4c-6.2,0-12.7,1.3-18.1,4.5c-3.8,2-8.2,5.7-8.2,10.5c0,4.9,4.4,8.5,8.2,10.7c5.5,3.2,11.9,4.5,18.1,4.5
				c-4,4-7.4,9-9.2,14.4c-1.5,4.7-2.3,11,1.3,14.9c3.8,3.8,10.2,2.8,14.7,1.3c5.5-1.8,10.5-5.2,14.6-9.2c0,6.2,1.3,12.7,4.5,18.1
				c2.2,3.8,5.9,8,10.7,8s8.5-4.2,10.7-8c3.2-5.5,4.5-11.9,4.5-18.1c4,4.2,9,7.4,14.6,9.2c4.5,1.5,10.9,2.3,14.7-1.3
				c4.9-4.9,2.3-13.4-0.2-18.6c2.3,2.3,4.5,4.9,6.7,7.7c14.2,18.9,24.4,52.5-6,105.9c-2.2,3.7,3.7,7,5.9,3.3
				c10.9-18.9,16.7-35.6,19.2-50.2c6.7,2.7,14.2,3.8,21.3,1.7c5.7-1.7,9-5,14.1-9.9c7.7-7.4,15.7-14.1,24.4-20.1
				c1.8-1.2,2-4,0.2-5.4c-13.2-10.5-31.8-12.2-46-4c-5.9,3.3-9.9,7.7-12.9,12C145.6,76.7,130.4,60,119.5,51.1z M114.5,27.7
				c11.9,0,19.4,6,19.4,8.5s-7.5,8.5-19.4,8.5c-5.2,0-9.4-1.2-12.6-2.5c1-3.8,1-7.9,0-11.9C105.1,28.9,109.3,27.7,114.5,27.7z
				 M97.6,4.1c8.7-9.5,19.1-8.2,19.6-7.5s1.8,9.4-7.5,19.6c-3.5,3.7-7.4,5.9-10.7,7c-2-3.3-5-6.4-8.4-8.4
				C91.7,11.5,94.1,7.6,97.6,4.1C103.8-2.1,94.2,7.8,97.6,4.1z M77.5-20C80-20,86-12.5,86-0.6c0,5-1.2,9.4-2.5,12.6
				c-3.8-1-8-1-11.9,0c-1.5-3.2-2.5-7.5-2.5-12.6C69-12.5,75-20,77.5-20z M37.7-3.4c0.5-0.7,10.7-1.5,19.6,7.5l0,0
				c3.5,3.5,5.9,7.4,7,10.7c-3.3,2.2-6.4,5-8.4,8.4c-3.3-1.2-7.4-3.3-10.7-7C35.1,5.3,37.2-2.8,37.7-3.4z M40.5,44.8
				c-11.9,0-19.4-6-19.4-8.5c0-2.5,7.5-8.5,19.4-8.5c5.2,0,9.4,1.2,12.6,2.5c-1,3.8-1,8,0,11.9C49.9,43.6,45.5,44.8,40.5,44.8z
				 M57.4,68.4c-8.4,8.4-17.9,9.4-19.7,7.7c-0.3-0.3-2.8-9.5,7.7-19.7c3.7-3.5,7.4-5.9,10.7-7c2,3.3,5,6.4,8.4,8.4
				C63.1,61.2,60.8,65,57.4,68.4z M77.5,92.6c-2.5,0-8.5-7.5-8.5-19.4c0-5,1.2-9.4,2.5-12.6c3.8,1,8,1,11.9,0
				c1.5,3.2,2.5,7.5,2.5,12.6C86,85.1,80,92.6,77.5,92.6z M77.5,54.6c-10.2,0-18.4-8.2-18.4-18.4s8.2-18.4,18.4-18.4
				S95.9,26,95.9,36.2S87.5,54.6,77.5,54.6z M117.3,76.1c-1.8,1.8-11.4,0.7-19.7-7.7c-3.5-3.5-5.9-7.4-7-10.7c3.3-2,6.4-5,8.4-8.4
				c3.3,1.2,7,3.5,10.7,7C120.2,66,117.7,75.7,117.3,76.1z M164.5,97.1c8.7-4.9,19.2-5.5,28.6-2.2c-9.9,1.7-19.4,6.4-27.1,10.5
				c-7,4-12.2,7.4-16.2,10.4C151.6,110,155.6,102.2,164.5,97.1z M189.4,105.7c-5,4.2-8.5,7.5-11.4,10.4c-4.7,4.5-7.2,7-11.4,8.2
				c-4.5,1.3-9.5,1-15.4-1c4.4-3.3,9.9-7.2,18.1-11.7c9.9-5.5,18.1-8.9,25.3-9.9C192.8,102.8,191.1,104.3,189.4,105.7z"/>
		</g>
	</g>
</g>
<g class="st0">
	<title>Artboard 10</title>
	<g class="st1">
		<path d="M56.7,117.2c-0.8-2.2-2.7-3.8-5.1-3.8H22.8l-9.5-28.7c-1.1-2.7-4.1-4.3-6.8-3.5c-2.7,1.1-4.3,4.1-3.5,6.8l10.3,30.9
			L3.1,149.7c-0.8,2.7,0.5,6,3.5,6.8c2.7,0.8,6-0.5,6.8-3.5l9.5-28.7h24.6L57,153c1.1,2.7,4.1,4.3,6.8,3.5c2.7-1.1,4.3-4.1,3.5-6.8
			L56.7,117.2z"/>
		<path d="M147.8,80.9h-32.5V26.8H202c3,0,5.4-2.4,5.4-5.4l0,0V10.5c0-2.2-1.1-4.1-3-4.9l-92.2-43.3c-1.4-0.8-3.3-0.8-4.6,0
			L15.4,5.6c-1.9,0.8-3,2.7-3,4.9v10.8c0,3,2.4,5.4,5.4,5.4l0,0h86.7v54.2H73.2c-3-0.6-5.4,1.9-5.4,4.8s2.4,5.4,5.4,6h31.3v54.2
			l-5.4,0c-1.9,0-3.8,1-4.7,2.7c-2.1,4.1,0.8,8.2,4.7,8.2l21.7,0c1.9,0,3.8-1,4.7-2.7c2.1-4.1-0.8-8.2-4.7-8.2h-5.4V91.8l32.2,0
			c2.4,0,4.6-1.4,5.4-3.6C154.2,84.4,151.4,80.9,147.8,80.9z M23.3,14l86.7-40.9L196.6,14v1.9H23.3V14z"/>
		<path d="M208.9,118.8L219.2,88c0.8-2.7-0.5-6-3.5-6.8c-2.7-0.8-6,0.5-6.8,3.5l-9.5,28.7h-28.7c-2.4,0-4.3,1.6-5.1,3.8l-10.8,32.5
			c-0.8,2.7,0.5,6,3.5,6.8c2.7,0.8,6-0.5,6.8-3.5l9.5-28.7h24.6l9.5,28.7c1.1,2.7,4.1,4.3,6.8,3.5c2.7-1.1,4.3-4.1,3.5-6.8
			L208.9,118.8z"/>
	</g>
</g>
<g class="st0">
	<path class="st1" d="M219.3,57.1c-2.9-12.4-12.9-21.7-25.1-24.1c0-0.7-0.2-1.5-0.5-2.2c-1.9-8.3-6.8-15.3-14.1-19.7
		c-5.8-3.7-12.7-5.4-19.5-4.6c-5.6-14.6-21.2-23.1-36.8-19.5c-4.6,1-9,3.2-12.7,6.1c-5.8-4.4-12.7-6.8-19.7-6.8
		c-12.7,0-24.1,7.8-29,19.2C44.9,4.2,30.5,16.7,28.3,32.7C12.7,34.7,0.8,48.1,0.8,64.2c0,13.4,8.5,25.6,20.9,30c0,0,0,0,0,0
		c-0.7,16.3,11.1,29.1,30.7,33.1c1.9,0.5,16.6,0.5,35.1,0.5c27.8,0,64.3-0.2,79.9-0.5l9.5-0.7h0.7c14.1-3.2,24.6-18.3,24.6-33.6
		C215.4,86.6,222.7,71.7,219.3,57.1z M195.7,85.4l-3.7,1.2l0.5,3.7c1.5,11.7-6.4,24.1-16.9,26.8l-8.6,0.7
		c-43.2,0.5-108.9,0.7-113.5,0c-5.4-1.2-23.3-6.1-23.3-22.4c0-1.5,0.2-2.9,0.5-4.1l1-4.6l-4.7-1C16.7,83.4,9.4,74.2,9.4,63.7
		c0-12.4,10.1-22.4,22.3-22.4h4.7v-4.6c0-12.4,10.1-22.4,22.3-22.4c1.5,0,2.9,0.2,4.7,0.5l4.4,0.7l1.2-4.1
		C71.7,1.8,80.5-4.8,90.6-4.8c6.1,0,12,2.4,16.2,6.8l3.4,3.7l3.4-3.7c2.9-3.2,6.9-5.6,11.3-6.6c12-2.7,24,4.6,27,16.8l1,4.6l4.7-1
		c5.9-1.5,11.8-0.2,16.9,2.7c5.1,3.2,8.6,8,10.1,13.9c0.2,1.5,0.5,2.9,0.5,4.4v4.4l4.4,0.2c9.8,0.5,18.4,7.6,20.6,17.3
		C212.7,70.3,206.5,81.7,195.7,85.4z"/>
	<path class="st1" d="M169.6,54c-7.1-3.7-15.3-2.7-21.2,2.4c-4.4-2.2-9.3-2.7-13.9-1.2c-4.9,1.5-8.8,4.6-11.2,9.3
		c-0.5,1-0.2,1.9,0.7,2.4c1,0.5,1.9,0.2,2.4-0.7c1.9-3.7,5.1-6.3,9-7.6c3.9-1.2,8-0.7,11.7,1.2c0.2,0,0.2,0.2,0.5,0.2l1.2,0.7l1-1
		c4.9-4.9,12.2-5.8,18-2.7c7.6,3.9,10.2,13.4,6.3,20.9c-0.5,1-0.2,1.9,0.7,2.4c0.2,0.2,0.5,0.2,0.7,0.2c0.7,0,1.2-0.2,1.5-1
		C182.3,70.6,178.9,58.9,169.6,54z"/>
	<path class="st1" d="M75.1,33.1c-4.9-1.5-10-0.7-14.4,1.7C53.9,38.7,50,46.3,51.2,54c-8.8,5.1-11.9,16.6-6.8,25.6
		c0.2,0.5,1,1,1.5,1c0.2,0,0.5,0,1-0.2c1-0.5,1.2-1.5,0.7-2.4c-4.1-7.3-1.5-16.8,6.1-20.9c0.2,0,0.2-0.2,0.5-0.2l1.2-0.5l-0.2-1.5
		c-1.5-6.6,1.7-13.4,7.6-16.6c3.7-1.9,7.8-2.4,11.7-1.5c3.9,1.2,7.3,3.7,9.3,7.3c0.5,1,1.5,1.2,2.4,0.7c1-0.5,1.2-1.5,0.7-2.4
		C84.1,37.7,80,34.6,75.1,33.1z"/>
</g>
<g class="st0">
	<g class="st1">
		<g>
			<g>
				<rect x="10.4" y="128.2" width="31.1" height="9.6"/>
				<rect x="79.6" y="128.2" width="31.1" height="9.6"/>
				<rect x="113.1" y="128.2" width="31.1" height="9.6"/>
				<rect x="43.8" y="128.2" width="31.1" height="9.6"/>
				<rect x="146.5" y="128.2" width="31.1" height="9.6"/>
				<rect x="182.3" y="128.2" width="31.1" height="9.6"/>
				<rect x="27.1" y="142.5" width="31.1" height="9.6"/>
				<rect x="60.5" y="142.5" width="31.1" height="9.6"/>
				<rect x="96.4" y="142.5" width="31.1" height="9.6"/>
				<rect x="129.8" y="142.5" width="31.1" height="9.6"/>
				<rect x="163.2" y="142.5" width="31.1" height="9.6"/>
				<rect x="199.1" y="142.5" width="11.9" height="9.6"/>
				<rect x="10.4" y="156.9" width="31.1" height="9.6"/>
				<rect x="43.8" y="156.9" width="31.1" height="9.6"/>
				<rect x="79.6" y="156.9" width="31.1" height="9.6"/>
				<rect x="113.1" y="156.9" width="31.1" height="9.6"/>
				<rect x="146.5" y="156.9" width="31.1" height="9.6"/>
				<rect x="182.3" y="156.9" width="31.1" height="9.6"/>
				<rect x="27.1" y="171.2" width="31.1" height="9.6"/>
				<rect x="60.5" y="171.2" width="31.1" height="9.6"/>
				<rect x="10.4" y="142.5" width="11.9" height="9.6"/>
				<rect x="10.4" y="171.2" width="11.9" height="9.6"/>
				<rect x="96.4" y="171.2" width="31.1" height="9.6"/>
				<rect x="129.8" y="171.2" width="31.1" height="9.6"/>
				<rect x="163.2" y="171.2" width="31.1" height="9.6"/>
				<rect x="199.1" y="171.2" width="11.9" height="9.6"/>
			</g>
			<path d="M211,4V1.6h-14.3v-16.8l2.4-3.3l-5.7-15.8l-5.5,15.8l4.1,3.3V1.6H168v-16.8l3.6-3.3l-5.5-15.8l-5.5,15.8l2.6,3.3V1.6
				h-21.5v-15.8l3.5-3.3l-6-15.8l-5.8,15.8l3.5,3.3V1.6h-23.9v-16.8l3.8-3.3l-5.5-15.8l-5.5,15.8l2.4,3.3V1.6H86.8v-16.8l2.9-3.3
				l-5.5-15.8l-5.5,15.8l3.3,3.3V1.6H58.1v-15.8l3.5-3.3l-6-15.8l-5.8,15.8l3.5,3.3V1.6H31.9v-16.8l3.1-3.3l-5.5-15.8L24-18.5
				l3.1,3.3V1.6H10.4v4.8h16.7v93.2H10.4v4.8h16.7v19.1h4.8v-19.1h21.5v19.1h4.8v-19.1H82v19.1h4.8v-19.1h21.5v19.1h4.8v-19.1H137
				v19.1h4.8v-19.1h21.5v19.1h4.8v-19.1h23.9v19.1h4.8v-19.1H211v-4.8h-16.7V4H211z M31.9,99.5V4h23.9v95.5H31.9z M58.1,99.5V4H82
				v95.5H58.1z M86.8,99.5V4h23.9v95.5H86.8z M113.1,99.5V4H137v95.5H113.1z M139.3,99.5V4h23.9v95.5H139.3z M191.9,99.5H168V4h23.9
				V99.5z"/>
		</g>
	</g>
</g>
<g class="st0">
	<g class="st1">
		<g>
			<g>
				<g>
					<path d="M46.5,1.4c1.6,1.6,3.3,3.3,4.9,4.9c3.9,3.9,7.9,7.9,11.8,11.8c4.7,4.7,9.5,9.5,14.2,14.2c4.1,4.1,8.2,8.2,12.3,12.3
						c2,2,3.9,4.1,6,6c0,0,0.1,0.1,0.1,0.1c0-1.9,0-3.8,0-5.7l-8.5,8.5h5.7c-1.6-1.6-3.3-3.3-4.9-4.9c-3.9-3.9-7.9-7.9-11.8-11.8
						c-4.7-4.7-9.5-9.5-14.2-14.2c-4.1-4.1-8.2-8.2-12.3-12.3c-2-2-4-4.1-6-6c0,0-0.1-0.1-0.1-0.1c-1.5-1.5-4.2-1.6-5.7,0
						c-0.4,0.4-0.8,0.8-1.2,1.2c-0.2,0.2-0.4,0.4-0.7,0.7c0,0-0.1,0.1-0.1,0.1c-0.1,0.1-0.1,0.1-0.2,0.2c-0.4,0.4,0.1-0.2,0.2-0.2
						c0,0-0.6,0.3-0.6,0.4c0,0,0.8-0.3,0.4-0.2c-0.4,0.1,0.5-0.1,0.5-0.1c0.3,0,0.6,0.1,0.9,0.2c0.5,0.1,0.2,0.1,0,0
						c0,0,0.6,0.4,0.2,0.1C37.1,6.2,37.8,7,37.8,7c-0.1-0.1-0.2-0.2-0.3-0.3c-1.4-1.9-2.8-3.8-4.2-5.6c-3-4-6.1-8-9-12
						c-0.1-0.1-0.1-0.2-0.2-0.3c-0.2-0.3-0.4-0.8-0.1-0.1c-0.1-0.2-0.3-0.5,0,0c0.2,0.3,0,0.3,0,0c0,0-0.2,0.8,0,0.4
						c0.2-0.5-0.3,0.7-0.1,0.2c0.2-0.4-0.4,0.3-0.1,0.2c0.1-0.1,0.2-0.2,0.3-0.3c0.9-0.9,1.8-1.8,2.7-2.7c1.2-1.2,2.3-2.3,3.4-3.4
						c0.4-0.4,0.8-0.8,1.1-1.1c0.1-0.1,0.2-0.2,0.3-0.3c0.2-0.3-0.5,0.3-0.2,0.1c0.4-0.2-0.3,0.1-0.3,0.1c0.1,0,0.6-0.1,0,0
						c-0.5,0.1-0.1,0,0,0c0,0-0.8-0.1-0.4,0s-0.3-0.1-0.3-0.1c0,0,0.4,0.2,0.4,0.2c0.1,0.1,0.3,0.2,0.4,0.3c0.1,0.1,0.2,0.2,0.4,0.3
						c0.7,0.5,1.4,1.1,2.2,1.6c2.5,1.9,5,3.8,7.5,5.7c2.2,1.7,4.5,3.4,6.7,5c0.4,0.3,0.8,0.6,1.3,1c0,0-0.5-0.4-0.5-0.4
						c0.1,0.1,0.5,0.3,0.1,0c-0.3-0.2-0.1-0.2,0,0c-0.1-0.3-0.2-0.5-0.3-0.8c0-0.3,0-0.6,0.1-0.9c0,0.2-0.2,0.4,0.1,0
						c0.4-0.8-0.3,0.3-0.2,0.3c0-0.1,0.5-0.6,0.2-0.3c-0.1,0.1-0.2,0.2-0.3,0.3c0,0-0.1,0.1-0.1,0.1c-0.2,0.2-0.5,0.5-0.7,0.7
						c-0.4,0.4-0.8,0.8-1.2,1.2C45-2.8,44.9,0,46.5,1.4c1.6,1.5,4.1,1.6,5.7,0c1.2-1.2,2.5-2.3,3.4-3.7c1-1.6,1.4-3.6,0.8-5.4
						c-0.5-1.7-1.7-2.8-3.1-3.8c-1.7-1.3-3.5-2.6-5.3-4c-2.9-2.1-5.7-4.3-8.6-6.4c-1.6-1.2-3.2-2.7-5-3.6c-3-1.6-6.4-1.1-8.8,1.3
						c-1,0.9-1.9,1.9-2.8,2.8c-1.2,1.2-2.5,2.5-3.7,3.7c-1.1,1.1-2.2,2.1-2.8,3.6c-1.1,2.5-0.5,5.3,1.1,7.4C18-6,18.5-5.2,19.1-4.5
						c2,2.7,4.1,5.5,6.1,8.2c1.7,2.3,3.4,4.5,5.1,6.8c1.2,1.5,2.3,3,4.3,3.6c3.1,1.1,5.7-0.8,7.8-2.9c0.5-0.5,0.9-0.9,1.4-1.4H38
						c1.6,1.6,3.3,3.3,4.9,4.9c3.9,3.9,7.9,7.9,11.8,11.8c4.7,4.7,9.5,9.5,14.2,14.2c4.1,4.1,8.2,8.2,12.3,12.3c2,2,4,4.1,6,6
						c0,0,0.1,0.1,0.1,0.1c1.9,1.9,5.3,1.5,6.5-1.2c2.3-2.3,4.4-4.3,6.7-6.6c2.5-1.3,2.8-4.6,1-6.5c-1.6-1.6-3.3-3.3-4.9-4.9
						c-3.9-3.9-7.9-7.9-11.8-11.8c-4.7-4.7-9.5-9.5-14.2-14.2C66.5,10,62.4,5.9,58.3,1.8c-2-2-4-4.1-6-6c0,0-0.1-0.1-0.1-0.1
						c-1.5-1.5-4.3-1.6-5.7,0C45-2.7,44.9-0.2,46.5,1.4z"/>
				</g>
			</g>
			<g>
				<g>
					<path d="M193.7,143c-2.1,2.1-4.2,4.2-6.3,6.3c-0.7,0.7-1.4,1.5-2.2,2.2c-0.3,0.3-0.6,0.5-0.9,0.8c-0.5,0.5,0.6-0.4-0.2,0.2
						c-0.6,0.4-1.2,0.7-1.9,1.1c-0.6,0.3,0.7-0.2-0.2,0.1c-0.3,0.1-0.6,0.2-0.9,0.3c-0.4,0.1-0.7,0.2-1.1,0.3c-0.1,0-0.3,0-0.4,0.1
						c-0.5,0.1,0.9-0.1,0.1,0c-0.6,0-1.3,0.1-1.9,0.1c-0.3,0-0.6,0-1-0.1c-0.6,0,0.8,0.2,0.2,0c-0.2-0.1-0.5-0.1-0.7-0.1
						c-0.6-0.1-1.3-0.3-1.9-0.6c-0.7-0.2,0.7,0.3-0.2-0.1c-0.3-0.2-0.7-0.3-1-0.5c-0.3-0.2-0.6-0.4-0.9-0.5c-0.6-0.4,0,0.1,0.1,0.1
						c-0.1-0.1-0.4-0.3-0.4-0.4c-0.2-0.2-0.4-0.4-0.7-0.6c-0.1-0.1-0.2-0.2-0.3-0.3c-1.3-1.3-2.6-2.6-3.9-3.9
						c-5.1-5.1-10.2-10.3-15.4-15.4c-4.6-4.6-9.1-9.1-13.7-13.7c-0.5-0.5-1-1-1.4-1.4c-0.1-0.1-0.2-0.2-0.3-0.3
						c0-0.1-0.4-0.5-0.4-0.4c0.1,0,0.5,0.8,0.1,0.1c-0.1-0.1-0.1-0.2-0.2-0.4c-0.1-0.1-0.4-0.6-0.1-0.1c0.3,0.4,0-0.1-0.1-0.3
						c0-0.2-0.3-1.2-0.1-0.5c0.1,0.6,0-0.3,0-0.5c0-0.7-0.2,0.8,0-0.1c0-0.2,0.1-0.4,0.1-0.5c0.1-0.2,0.3-0.6,0-0.2
						c-0.3,0.5,0.2-0.4,0.3-0.5c0.4-0.7-0.1,0.1-0.1,0.1c0-0.1,0.4-0.4,0.4-0.4c0.1-0.1,0.2-0.2,0.3-0.3c1.2-1.2,2.5-2.5,3.7-3.7
						c0.3-0.3,0.7-0.7,1-1c1.5-1.5,1.6-4.2,0-5.8c-4.9-4.9-9.9-9.9-14.8-14.8c-0.7-0.7-1.4-1.4-2.1-2.1c0,1.9,0,3.8,0,5.8
						c2.8-2.8,5.6-5.6,8.5-8.5c-1.9,0-3.8,0-5.7,0c4.9,4.9,9.9,9.9,14.8,14.8c0.7,0.7,1.4,1.4,2.1,2.1c1.5,1.5,4.2,1.6,5.7,0
						c1.6-1.6,3.3-3.3,4.9-5c0,0,0.4-0.4,0.4-0.4c0,0-0.6,0.4-0.2,0.2c0.1-0.1,0.2-0.2,0.4-0.2c0.1-0.1,0.3-0.1,0.4-0.2
						c0.3-0.2-0.3,0.1-0.3,0.1c0.2,0,0.7-0.2,0.9-0.3c0.1,0,0.3,0,0.4-0.1c0,0-0.8,0-0.4,0.1c0.3,0,0.6,0,0.8,0c0.4,0-0.4,0-0.4-0.1
						c0.1,0.1,0.3,0.1,0.4,0.1c0.2,0.1,0.7,0.3,0.9,0.3c-0.1,0-0.7-0.4-0.3-0.1c0.1,0.1,0.2,0.1,0.4,0.2c0.1,0.1,0.2,0.2,0.4,0.2
						c0.4,0.2-0.3-0.2-0.2-0.2c0,0,0.4,0.4,0.4,0.4c0.1,0.1,0.1,0.1,0.2,0.2c2.8,2.8,5.6,5.6,8.5,8.5c4.7,4.7,9.4,9.4,14.1,14.1
						c3.6,3.6,7.2,7.2,10.8,10.8c0.4,0.4,0.8,0.8,1.1,1.1c0.1,0.1,0.2,0.2,0.2,0.2l0,0c0.2,0.2,0.4,0.4,0.6,0.7
						c0.1,0.1,0.2,0.2,0.3,0.3c0.4,0.4-0.4-0.6-0.1-0.1c0.3,0.5,0.6,1,0.9,1.5c0.1,0.2,0.2,0.5,0.4,0.8c0.2,0.4-0.1-0.3-0.1-0.3
						c0,0.2,0.2,0.5,0.2,0.7c0.2,0.5,0.3,1.1,0.4,1.6c0,0.1,0.1,0.3,0.1,0.4c0,0.2,0.2,0.4,0,0c-0.2-0.4,0-0.2,0,0
						c0,0.2,0,0.4,0,0.5c0,0.5,0,1.1,0,1.7c0,0.3-0.1,0.6-0.1,0.8c0,0,0.1-0.8,0-0.4c0,0.2-0.1,0.4-0.1,0.5
						c-0.1,0.5-0.3,1.1-0.4,1.6c0,0.1-0.1,0.3-0.1,0.4c-0.3,0.7,0-0.1,0.1-0.2c-0.2,0.1-0.3,0.7-0.4,0.9c-0.3,0.5-0.6,1-0.9,1.5
						c-0.2,0.4,0.2-0.2,0.2-0.2c0,0-0.3,0.3-0.3,0.3C194.2,142.5,194,142.8,193.7,143c-1.5,1.5-1.6,4.2,0,5.8c1.6,1.5,4.2,1.6,5.7,0
						c4.3-4.4,6.1-10.7,4.8-16.7c-0.8-3.5-2.7-6.5-5.2-8.9c-3.2-3.3-6.5-6.5-9.7-9.8c-4.9-4.9-9.8-9.9-14.8-14.8
						c-3.2-3.2-6.4-6.4-9.6-9.6c-2.9-2.9-6.9-4.3-10.9-3.2c-3.8,1-6.4,4.3-9,7c-0.3,0.3-0.5,0.5-0.8,0.8c1.9,0,3.8,0,5.7,0
						c-4.9-4.9-9.9-9.9-14.8-14.8c-0.7-0.7-1.4-1.4-2.1-2.1c-1.5-1.5-4.2-1.6-5.7,0c-2.8,2.8-5.6,5.6-8.5,8.5
						c-1.5,1.5-1.6,4.2,0,5.8c4.9,4.9,9.9,9.9,14.8,14.8c0.7,0.7,1.4,1.4,2.1,2.1c0-1.9,0-3.8,0-5.8c-1.1,1.1-2.1,2.1-3.2,3.2
						c-1.4,1.4-3,2.8-3.9,4.7c-1.8,4-1.3,8.3,1.5,11.7c0.4,0.4,0.8,0.8,1.1,1.2c4.1,4.1,8.3,8.3,12.4,12.4
						c5.5,5.5,11,11.1,16.6,16.6c4.3,4.3,8.4,9.3,14.8,10.4c6.1,1,11.9-1,16.3-5.3c2.5-2.5,4.9-4.9,7.4-7.4c0.2-0.2,0.4-0.4,0.7-0.7
						c1.5-1.5,1.6-4.3,0-5.8C197.9,141.5,195.3,141.4,193.7,143z"/>
				</g>
			</g>
			<g>
				<g>
					<path d="M153.7,108.7c3.2,3.2,6.5,6.5,9.7,9.7c5.2,5.2,10.3,10.3,15.4,15.4c1.2,1.2,2.4,2.4,3.5,3.5c1.5,1.5,4.3,1.6,5.7,0
						s1.6-4.1,0-5.7c-3.2-3.2-6.5-6.5-9.7-9.7c-5.2-5.2-10.3-10.3-15.4-15.4c-1.2-1.2-2.4-2.4-3.5-3.5c-1.5-1.5-4.3-1.6-5.7,0
						C152.2,104.5,152.1,107.1,153.7,108.7L153.7,108.7z"/>
				</g>
			</g>
			<g>
				<g>
					<path d="M179.6,140.1c-3.2-3.2-6.5-6.5-9.7-9.7c-5.2-5.2-10.3-10.3-15.4-15.4c-1.2-1.2-2.4-2.4-3.5-3.5c-1.5-1.5-4.3-1.6-5.7,0
						c-1.5,1.6-1.6,4.1,0,5.7c3.2,3.2,6.5,6.5,9.7,9.7c5.2,5.2,10.3,10.3,15.4,15.4c1.2,1.2,2.4,2.4,3.5,3.5c1.5,1.5,4.3,1.6,5.7,0
						C181.1,144.2,181.2,141.7,179.6,140.1L179.6,140.1z"/>
				</g>
			</g>
		</g>
		<g>
			<g>
				<g>
					<path d="M198.2,12.8c-4.8,4.8-9.7,9.7-14.6,14.6c-2.3,2.3-4.7,4.7-7,7c-0.2,0.2-0.3,0.3-0.5,0.5c-0.4,0.4-0.9,0.9-1.3,1.2
						c-0.4,0.3-0.8,0.6-1.1,0.9c0.1-0.1,0.6-0.5,0-0.1c-0.3,0.2-0.5,0.4-0.8,0.5c-0.7,0.5-1.4,0.9-2.2,1.3c-0.4,0.2-0.8,0.4-1.1,0.6
						c-0.2,0.1-0.5,0.2-0.7,0.3c-0.4,0.2-0.5,0.3,0,0c-0.8,0.4-1.8,0.7-2.6,0.9c-0.9,0.3-1.8,0.5-2.7,0.6c-0.2,0-0.4,0.1-0.6,0.1
						c-0.6,0.1,0.1-0.1,0.2,0c-0.1-0.1-1.1,0.1-1.2,0.1c-0.9,0.1-1.8,0.1-2.8,0.1c-0.9,0-1.9,0-2.8-0.2c0.1,0,0.9,0.1,0.2,0
						c-0.2,0-0.4-0.1-0.6-0.1c-0.5-0.1-1-0.2-1.5-0.3c-0.9-0.2-1.7-0.5-2.5-0.8c-0.3-0.1-0.5-0.2-0.8-0.3c-0.1,0-0.8-0.3-0.3-0.1
						c0.5,0.2-0.2-0.1-0.3-0.1c-0.3-0.1-0.6-0.3-0.9-0.4c-0.9-0.4-1.7-0.9-2.5-1.4c-0.4-0.2-0.8-0.5-1.1-0.8
						c-0.2-0.1-0.4-0.3-0.5-0.4c0.7,0.5-0.2-0.2-0.2-0.2c-0.3-0.3-0.7-0.6-1-0.9c0,0-0.5-0.5-0.5-0.5c-0.2,0.1,1.1,1.2-0.4-0.4
						c-0.3-0.3-0.6-0.7-1-1c-0.2-0.2-0.4-0.4-0.6-0.6c-0.1-0.1-0.6-0.8-0.3-0.4c0.3,0.4-0.1-0.2-0.2-0.3c-0.2-0.2-0.3-0.5-0.5-0.7
						c-0.2-0.4-0.5-0.8-0.7-1.1c-0.5-0.9-1-1.7-1.4-2.6c-0.1-0.2-0.2-0.4-0.3-0.6c0.3,0.8,0.1,0.2,0,0.1c-0.2-0.5-0.3-0.9-0.5-1.4
						c-0.3-0.9-0.6-1.9-0.8-2.8c-0.1-0.4-0.2-0.9-0.3-1.4c0-0.2-0.2-0.8,0,0.2c0-0.2,0-0.4-0.1-0.6c-0.1-0.9-0.1-1.8-0.1-2.8
						c0-0.9,0-1.7,0.1-2.6c0-0.2,0-0.4,0.1-0.6c0.1-0.6-0.2,1,0,0c0.1-0.4,0.2-0.9,0.2-1.4c0.2-0.9,0.4-1.7,0.7-2.5
						c0.1-0.4,0.3-0.8,0.4-1.2c0.1-0.2,0.1-0.4,0.2-0.6c0.3-0.9-0.3,0.6,0.1-0.2c0.8-1.7,1.8-3.3,2.8-4.9c0.1-0.1,0.5-0.6-0.1,0
						c0.1-0.2,0.3-0.3,0.4-0.5c0.3-0.3,0.6-0.7,0.9-1c0.3-0.3,0.6-0.7,0.9-1c1.8-1.8,3.7-3.7,5.5-5.5c5.5-5.5,11-11,16.4-16.4
						c0.1-0.1,0.2-0.2,0.3-0.3c2.1-2.1,1.2-6.1-1.8-6.8c-15.3-3.7-32-0.9-45,8.2C112.1-14.1,106.4-8,102.3-1
						c-4,6.8-6.4,14.4-7.4,22.2c-1,8.3,0,17,2.9,24.8c0.3-1.3,0.7-2.6,1-4c-4.3,4.3-8.5,8.5-12.8,12.8c-5.6,5.6-11.3,11.3-16.9,16.9
						c-8.3,8.3-16.6,16.6-24.9,24.9c-6.1,6.1-12.3,12.3-18.4,18.4c-1.9,1.9-3.8,3.8-5.4,6c-6.2,8.6-6.2,21-0.2,29.7
						c5.8,8.4,15.7,12.7,25.8,11.3c5.9-0.8,11-3.8,15.2-7.9c5-5,9.9-9.9,14.9-14.9c8.2-8.2,16.5-16.5,24.7-24.7
						c6.7-6.7,13.3-13.3,20-20c4-4,8-8,11.9-11.9c1.1-1.1,2.3-2.3,3.4-3.4c-1.3,0.3-2.6,0.7-4,1c14.5,5,30.8,3.7,44.4-3.4
						c14-7.3,24.5-20.9,28.2-36.2c2-8.6,2.1-17.5,0.1-26.1c-0.5-2.1-3-3.5-5-2.8c-2.2,0.7-3.3,2.8-2.8,5c0.2,0.9,0.4,1.7,0.5,2.6
						c0.1,0.4,0.1,0.8,0.2,1.2c0,0.2,0.1,0.4,0.1,0.6c0.1,0.5-0.1-0.8,0,0c0.2,1.8,0.3,3.5,0.4,5.3c0,1.7,0,3.5-0.2,5.2
						c0,0.5-0.1,0.9-0.1,1.4c0,0.3-0.2,0.9-0.1,1.2c0-0.1,0.1-1,0-0.2c0,0.2-0.1,0.4-0.1,0.6c-0.1,0.5-0.2,1-0.3,1.5
						c-0.6,3.4-1.7,6.8-3,10.1c-0.3,0.7,0,0,0-0.1c0,0.2-0.2,0.4-0.2,0.6c-0.2,0.4-0.4,0.9-0.6,1.3c-0.4,0.8-0.8,1.6-1.2,2.4
						c-0.9,1.6-1.9,3.2-2.9,4.7c-0.2,0.3-0.5,0.7-0.8,1c-0.1,0.2-0.3,0.3-0.4,0.5c-0.1,0.1-0.5,0.6-0.2,0.2c0.4-0.5-0.3,0.3-0.3,0.3
						c-0.1,0.2-0.3,0.3-0.4,0.5c-0.3,0.4-0.6,0.8-1,1.1c-1.3,1.4-2.6,2.8-4,4.1c-0.6,0.6-1.3,1.1-1.9,1.7c-0.3,0.3-0.6,0.5-1,0.8
						c-0.6,0.5,0,0,0.1-0.1c-0.2,0.2-0.5,0.4-0.8,0.6c-1.4,1-2.9,2-4.4,2.9c-1.5,0.9-3.1,1.7-4.6,2.4c-0.4,0.2-0.8,0.3-1.1,0.5
						c1-0.4-0.4,0.1-0.6,0.2c-0.8,0.3-1.6,0.6-2.4,0.9c-1.7,0.5-3.4,1-5.1,1.4c-0.8,0.2-1.7,0.3-2.5,0.5c-0.4,0.1-0.8,0.1-1.2,0.2
						c-0.2,0-0.8,0.1,0.2,0c-0.2,0-0.5,0.1-0.8,0.1c-3.8,0.4-7.7,0.5-11.5,0.1c-0.3,0-1.9-0.2-0.7-0.1c-0.5,0-1-0.1-1.5-0.2
						c-0.9-0.1-1.8-0.3-2.7-0.5c-1.9-0.4-3.9-1-5.8-1.6c-1.3-0.5-3,0.1-4,1c-4.2,4.2-8.5,8.5-12.7,12.7
						c-5.4,5.4-10.9,10.9-16.3,16.3c-8.2,8.2-16.3,16.3-24.4,24.4c-6.3,6.3-12.7,12.7-19,19c-1,1-2,2-3,3c-0.3,0.3-0.7,0.7-1.1,1
						c-0.2,0.2-0.4,0.3-0.6,0.5c-0.2,0.2-0.6,0.6,0,0c-0.6,0.8-1.9,1.3-2.8,1.8c-0.5,0.2-0.9,0.5-1.4,0.7c-0.7,0.3,0.1,0,0.2-0.1
						c-0.1,0.1-0.6,0.2-0.8,0.3c-1,0.4-2,0.6-3.1,0.9c-0.2,0-0.5,0.1-0.7,0.1c-0.3,0.1-1.1,0,0,0c-0.4,0-0.9,0.1-1.4,0.1
						c-1,0.1-2,0-3.1,0c-0.1,0-0.7,0-0.8-0.1c0.2,0,0.3,0,0.5,0.1c-0.2,0-0.4-0.1-0.5-0.1c-0.5-0.1-0.9-0.2-1.4-0.3
						c-1-0.2-2-0.6-2.9-0.9c-0.9-0.3,0.8,0.4-0.1,0c-0.3-0.1-0.5-0.2-0.8-0.4c-0.4-0.2-0.9-0.4-1.3-0.7c-0.4-0.2-0.8-0.5-1.2-0.8
						c-0.2-0.2-0.5-0.3-0.7-0.5c-0.7-0.5,0.5,0.5-0.1-0.1c-0.9-0.7-1.7-1.5-2.5-2.3c-0.4-0.4-0.8-0.8-1.1-1.3
						c0.6,0.8-0.1-0.1-0.2-0.2c-0.2-0.3-0.4-0.5-0.5-0.8c-0.3-0.5-0.6-1-0.9-1.6c-0.1-0.2-0.2-0.5-0.4-0.7c-0.1-0.2-0.6-1.1-0.1-0.2
						c-0.6-1-0.8-2.3-1.1-3.4c-0.1-0.6-0.2-1.1-0.3-1.7c-0.1-0.6,0.1,1,0,0c0-0.3-0.1-0.6-0.1-1c-0.1-1.2,0-2.3,0.1-3.5
						c0.1-1.1-0.2,0.9,0-0.2c0-0.2,0.1-0.4,0.1-0.6c0.1-0.6,0.3-1.2,0.4-1.9c0.1-0.5,0.3-1,0.5-1.5c0.1-0.3,0.2-0.6,0.3-0.9
						c-0.3,0.6-0.1,0.1,0.1-0.2c0.5-1.1,1.1-2.1,1.8-3.1c0.1-0.2,0.3-0.4,0.4-0.5c0.6-0.9-0.5,0.6,0.2-0.2c0.4-0.5,0.9-1,1.4-1.5
						c0.3-0.3,0.5-0.5,0.8-0.8c5.1-5.1,10.3-10.3,15.4-15.4c8.1-8.1,16.2-16.2,24.3-24.3c6.6-6.6,13.1-13.1,19.7-19.7
						c3.9-3.9,7.8-7.8,11.8-11.8c1.1-1.1,2.2-2.2,3.4-3.4c1-1,1.5-2.6,1-4c-0.6-1.7-1.1-3.4-1.5-5.1c-0.4-1.6-1-3.5-1-5.2
						c0,0.1,0.1,0.9,0,0.2c0-0.2,0-0.4-0.1-0.6c0-0.4-0.1-0.8-0.1-1.2c-0.1-0.9-0.1-1.8-0.2-2.7c-0.1-1.7,0-3.4,0.1-5.1
						c0.1-0.9,0.1-1.7,0.2-2.6c0-0.1,0.2-1.4,0.1-0.8c-0.1,0.7,0-0.3,0.1-0.3c0-0.2,0.1-0.5,0.1-0.8c0.3-1.7,0.7-3.4,1.1-5.2
						c0.5-1.7,1-3.3,1.6-4.9c0.1-0.4,0.3-0.8,0.4-1.1c-0.4,0.9,0.1-0.2,0.2-0.4c0.4-0.8,0.8-1.7,1.2-2.5c0.8-1.6,1.7-3.2,2.7-4.7
						c0.5-0.8,1-1.5,1.5-2.2c0.1-0.2,0.9-1.2,0.3-0.4c0.3-0.4,0.7-0.8,1-1.2c2.4-2.8,5-5.4,7.9-7.7c0.6-0.5,0.1,0-0.1,0
						c0.2-0.2,0.4-0.3,0.6-0.5c0.3-0.2,0.7-0.5,1-0.8c0.8-0.5,1.6-1.1,2.4-1.6c1.6-1,3.2-1.8,4.8-2.6c0.4-0.2,0.8-0.4,1.1-0.5
						c0.2-0.1,0.4-0.2,0.6-0.2c0.3-0.1,0.5-0.4-0.1,0c0.7-0.5,1.8-0.7,2.6-1c1.7-0.6,3.3-1.1,5.1-1.5c1-0.2,2-0.4,3-0.6
						c0.5-0.1,1-0.2,1.5-0.2c0.2,0,0.8-0.2-0.2,0c0.2,0,0.5-0.1,0.8-0.1c2-0.2,4-0.3,6-0.3c1.9,0,3.9,0.1,5.8,0.3
						c0.2,0,0.4,0,0.6,0.1c-1.1-0.2,0,0,0.1,0c0.5,0.1,1,0.2,1.5,0.3c1,0.2,2,0.4,3,0.6c-0.6-2.3-1.2-4.5-1.8-6.8
						c-5.1,5.1-10.1,10.1-15.1,15.1c-2.3,2.3-4.6,4.6-6.9,6.9c-4.7,4.7-8,10.7-9,17.3c-1.3,8.9,1,17.7,6.6,24.7
						c0.3,0.4,0.6,0.7,0.9,1.1c0.2,0.2,0.3,0.3,0.5,0.5c0.1,0.1,0.2,0.2,0.2,0.3c0.3,0.3,0.3,0.3,0,0c-0.1-0.1-0.1-0.2-0.2-0.3
						c0.2,0.3,0.5,0.7,0.8,1c0.2,0.2,0.4,0.4,0.6,0.6c0.4,0.4,0.9,0.8,1.3,1.1c1.8,1.4,3.6,2.7,5.6,3.8c3.9,2,8.1,3.1,12.5,3.5
						c8.4,0.6,16.8-2.5,23-8.1c1.9-1.7,3.7-3.7,5.6-5.5c5.7-5.7,11.4-11.4,17.1-17.1c0.1-0.1,0.3-0.3,0.4-0.4c1.5-1.5,1.6-4.3,0-5.7
						C202.3,11.3,199.8,11.2,198.2,12.8z"/>
					<path d="M42.2,137.7C41.5,138.3,42.8,137.4,42.2,137.7c-0.2,0.2-0.4,0.3-0.5,0.4c0.5-0.2,0.6-0.2,0.3-0.1
						c-0.3,0.1-0.5,0.1-0.8,0.2c-0.3,0.1-0.2,0,0.4-0.1c-0.2,0-0.4,0-0.5,0c-0.8,0.1,0.8,0.3,0,0c-0.2-0.1-0.7-0.1-0.8-0.2
						c0.5,0.2,0.6,0.3,0.3,0.1c-0.1-0.1-0.2-0.1-0.4-0.2c-0.3-0.2-0.3-0.2,0,0c0.3,0.2,0.3,0.2,0-0.1c-0.3-0.3-0.3-0.3,0.1,0.2
						c-0.1-0.1-0.1-0.2-0.2-0.2c-0.1-0.2-0.2-0.3-0.3-0.5c0.1,0.2,0.1,0.3,0.2,0.5c-0.1-0.1-0.2-0.6-0.2-0.8c-0.2-0.8,0,0.9,0-0.1
						c0-0.9-0.1,0.3,0,0c0-0.2,0.1-0.8,0.3-0.9c-0.1,0.2-0.1,0.3-0.2,0.5c0.1-0.2,0.2-0.3,0.3-0.5c0.1-0.1,0.1-0.2,0.2-0.2
						c-0.3,0.4-0.4,0.5-0.1,0.2c0.3-0.2,0.3-0.3,0-0.1c-0.3,0.2-0.2,0.2,0,0c0.1-0.1,0.2-0.1,0.4-0.2c0.3-0.1,0.2-0.1-0.3,0.1
						c0.1-0.1,0.6-0.2,0.8-0.2c0.8-0.3-0.8,0,0,0c0.2,0,0.4,0,0.5,0c-0.6-0.1-0.7-0.1-0.4-0.1c0.3,0.1,0.5,0.1,0.8,0.2
						c0.3,0.1,0.2,0.1-0.3-0.1c0.1,0.1,0.2,0.1,0.4,0.2c0.9,0.5-0.4-0.4,0.2,0.2c0.6,0.6-0.3-0.7,0.1,0.1c0,0.1,0.1,0.2,0.1,0.2
						c0.2,0.4,0.2,0.3,0-0.2c0,0.2,0.2,0.6,0.2,0.8c0.2,0.8,0-0.8,0,0c-0.1,1.1,0.1,0,0.1,0c0,0-0.2,0.7-0.2,0.8
						c-0.2,0.7,0.4-0.7-0.1,0.2C41.8,138.4,42.7,137.1,42.2,137.7c-1.5,1.5-1.6,4.2,0,5.7c1.6,1.5,4.2,1.6,5.7,0
						c2.9-3,3.5-7.3,1.7-11c-1.6-3.3-5.4-5.5-9-5.2c-4,0.3-7.6,3.1-8.7,7.1c-1,4,0.6,8,4,10.3c3.7,2.6,8.8,1.8,12-1.2
						c1.5-1.5,1.6-4.3,0-5.7C46.3,136.2,43.8,136.1,42.2,137.7z"/>
				</g>
			</g>
			<g>
				<g>
					<path d="M64.2,119.5c1.7-1.7,3.5-3.5,5.2-5.2c4.2-4.2,8.4-8.4,12.6-12.6c5.1-5.1,10.1-10.1,15.2-15.2
						c4.4-4.4,8.7-8.7,13.1-13.1c2.1-2.1,4.3-4.2,6.4-6.4c0,0,0.1-0.1,0.1-0.1c1.5-1.5,1.6-4.3,0-5.7c-1.6-1.5-4.1-1.6-5.7,0
						c-1.7,1.7-3.5,3.5-5.2,5.2c-4.2,4.2-8.4,8.4-12.6,12.6C88.1,84.1,83.1,89.1,78,94.2c-4.4,4.4-8.7,8.7-13.1,13.1
						c-2.1,2.1-4.3,4.2-6.4,6.4c0,0-0.1,0.1-0.1,0.1c-1.5,1.5-1.6,4.3,0,5.7C60,121,62.6,121.1,64.2,119.5L64.2,119.5z"/>
				</g>
			</g>
		</g>
	</g>
</g>
<g class="st0">
	<title>Artboard 11</title>
	<g class="st1">
		<path d="M203.5,52.7h-10.8c-2.2-9.9-5.9-19.1-11.4-27.6l7.5-7.5c1.8-1.8,1.8-4.4,0-6.1l0,0L170.2-7.2c-1.8-1.8-4.4-1.8-6.1,0l0,0
			l-7.5,7.5c-8.3-5.5-17.8-9.4-27.6-11.4v-10.7c0-2.4-2-4.4-4.4-4.4l0,0H98.2c-2.4,0-4.4,2-4.4,4.4v0.2v10.7C84-8.7,74.8-5,66.2,0.5
			l-7.5-7.7c-1.8-1.8-4.4-1.8-6.1,0l0,0L34,11.5c-1.8,1.8-1.8,4.4,0,6.1l0,0l7.5,7.5C36,33.4,32,42.8,30,52.7H19.3
			c-2.4,0-4.4,2-4.4,4.4l0,0v26.3c0,2.4,2,4.4,4.4,4.4h0.2h10.7c2.2,9.8,5.9,19,11.4,27.6L34,123c-1.8,1.7-1.8,4.4,0,6.1l0,0
			l18.6,18.6c1.8,1.7,4.4,1.7,6.1,0l0,0l7.5-7.4c8.3,5.5,17.8,9.4,27.6,11.4v10.7c0,2.4,2,4.4,4.4,4.4l0,0h26.3c2.4,0,4.4-2,4.4-4.4
			v0v-10.7c9.8-2.2,19-5.9,27.6-11.4l7.4,7.5c1.7,1.8,4.4,1.8,6.1,0l0,0l18.6-18.6c1.7-1.8,1.7-4.4,0-6.1l0,0l-7.4-7.5
			c5.5-8.3,9.4-17.8,11.4-27.6h10.9c2.4,0,4.4-2,4.4-4.4l0,0V57.1C207.9,54.7,205.9,52.7,203.5,52.7L203.5,52.7z M199.1,79h-9.6
			c-2.2,0-3.9,1.5-4.4,3.7c-1.8,11.2-6.1,21.5-12.7,30.7c-1.3,1.8-1.1,4.2,0.4,5.7l7,7l-12.5,12.5l-7-7c-1.5-1.5-3.9-1.8-5.7-0.4
			c-9.2,6.6-19.7,11-30.7,12.7c-2.2,0.4-3.7,2.2-3.7,4.4v9.6h-17.5v-9.6c0-2.2-1.5-3.9-3.7-4.4c-11.2-1.8-21.6-6.1-30.8-12.7
			c-1.8-1.3-4.2-1.1-5.7,0.4l-7,7l-12.5-12.5l7-7c1.5-1.5,1.8-3.9,0.4-5.7c-6.6-9.2-11-19.7-12.8-30.7c-0.4-2.2-2.2-3.7-4.4-3.7
			h-9.5V61.5h9.6c2.2,0,3.9-1.5,4.4-3.7c1.8-11.2,6.1-21.6,12.7-30.8c1.3-1.8,1.1-4.2-0.4-5.7l-7-7L55.5,1.7l7,7
			c1.5,1.5,3.9,1.8,5.7,0.4c9.2-6.6,19.7-11,30.7-12.8c2.2-0.4,3.7-2.2,3.7-4.4v-9.5h17.5v8.8c0,2.2,1.5,4,3.7,4.4
			c11.2,1.8,21.6,6.2,30.8,12.9c1.8,1.3,4.2,1.1,5.7-0.4l7-7.1L180,13.7l-7,7.1c-1.5,1.6-1.8,4-0.4,5.8c6.6,9.3,11,20,12.8,31.1
			c0.4,2.2,2.2,3.8,4.4,3.8h9.5V79z"/>
		<path d="M110.7,8.8c-34,0-61.4,27.4-61.4,61.4s27.4,61.4,61.4,61.4s61.4-27.4,61.4-61.4S144.7,8.8,110.7,8.8z M102.6,122V97.9
			c0-1.8-0.9-3.3-2.5-3.9C86.7,87.8,81,72.2,87.3,59.1c1.6-3.3,3.8-6.1,6.5-8.3v17.3c0,4.8,3.9,8.8,8.8,8.8h17.5
			c4.8,0,8.8-3.9,8.8-8.8V50.7c11,9.7,12.1,26.1,2.2,36.8c-2.5,2.6-5.4,4.8-8.5,6.4c-1.6,0.7-2.5,2.2-2.5,3.9V122
			C114.2,123.1,108.2,123.1,102.6,122z M128.9,119.8v-19.3c16.7-9.7,22.6-30.9,12.9-47.6c-3.5-6.1-9-11.2-15.4-14.3
			c-2.2-1.1-4.8-0.2-5.9,2c-0.2,0.7-0.4,1.3-0.4,2v25.4h-17.5V42.6c0-2.4-2-4.4-4.4-4.4c-0.7,0-1.3,0.2-2,0.4
			c-17.5,8.1-25,29-16.7,46.5c3.1,6.6,8.1,11.8,14.3,15.4v19.3c-28.4-10-42.7-41.8-30.9-70C73,25.7,100,12.6,125.3,19.5
			c29.8,8.2,45.7,39.6,35.7,68.3C155.7,102.7,143.9,114.5,128.9,119.8z"/>
	</g>
</g>
<g class="st0">
	<g class="st1">
		<path d="M219.8,112.2c-0.5-12-10.1-21.6-22.1-21.6c-11.2,0-20.5,8.7-21.8,20.7h-51.6V59.4h8.7c1.6-1.3,2.7-2.4,2.2-4V39
			c0.5-1.6-2.2-4.2-2.2-4.2h-6v-8.3c0-4.3-3.4-8.1-7.9-8.1h-16.9c-4.2,0-7.9,3.5-7.9,8.1v8.3h-6c0,0-2.7,2.5-2.2,4.2v16.4
			c-0.5,1.6,0.5,2.7,2.2,4h8.7v51.9H45.6C44.3,99.1,35,90.6,23.8,90.6c-12,0-21.6,9.6-22.1,21.6c0,0.3-0.3,0.5-0.3,0.8
			c0,1.6,1.1,2.7,2.7,3.8h96.4h20.2h96.6c1.6-1,2.7-2.1,2.7-3.8C220.1,112.7,220.1,112.4,219.8,112.2z M197.9,97.1
			c8.2,0,15,6.3,16.4,14.2h-32.8C182.7,103.4,189.5,97.1,197.9,97.1z M99.4,26.7c0-1.4,1.1-2.7,2.7-2.7h16.8c1.3,0,2.6,1.1,2.6,2.7
			v8.3H99.7v-8.2H99.4z M91.2,43h5.4h27.7h5.4V54h-9.2h-19.9h-9.2V43H91.2z M23.8,97.1c8.2,0,15,6.3,16.4,14.2H7.4
			C8.8,103.4,15.6,97.1,23.8,97.1z M105.1,111.3V59.4h13.6v51.9H105.1z"/>
		<path d="M69.4,12.5c0.5,0.5,1.4,0.8,1.9,0.8c0.8,0,1.4-0.3,1.9-0.8c1.1-1.1,1.1-2.7,0-3.8l-7.6-7.9c-1.1-1.1-2.7-1.1-3.8,0
			s-1.1,2.7,0,3.8L69.4,12.5z"/>
		<path d="M47.8,27.2l10.1,2.2c0.3,0,0.3,0,0.5,0c1.4,0,2.5-0.8,2.7-2.2c0.3-1.4-0.5-3-2.2-3.3l-10.1-2.2c-1.4-0.3-3,0.5-3.3,2.2
			C45.3,25.6,46.4,26.9,47.8,27.2z"/>
		<path d="M48.4,56.7c0.3,0,0.3,0,0.5,0L59,54.5c1.4-0.3,2.5-1.6,2.2-3.3c-0.3-1.4-1.6-2.5-3.3-2.2l-10.1,2.2
			c-1.4,0.3-2.5,1.6-2.2,3.3C46.2,55.9,47.3,56.7,48.4,56.7z"/>
		<path d="M68,66.9l-6.3,6.6c-1.1,1.1-1.1,2.7,0,3.8c0.5,0.5,1.1,0.8,1.9,0.8s1.4-0.3,1.9-0.8l6.3-6.6c1.1-1.1,1.1-2.7,0-3.8
			C70.7,65.8,69.1,65.8,68,66.9z"/>
		<path d="M153.2,13.3c0.8,0,1.4-0.3,1.9-0.8l7.6-7.9c1.1-1.1,1.1-2.7,0-3.8c-1.1-1.1-2.7-1.1-3.8,0l-7.6,7.9
			c-1.1,1.1-1.1,2.7,0,3.8C151.8,13.1,152.4,13.3,153.2,13.3z"/>
		<path d="M163.6,27.2c0.3,1.4,1.4,2.2,2.7,2.2c0.3,0,0.3,0,0.5,0l10.1-2.2c1.4-0.3,2.5-1.6,2.2-3.3c-0.3-1.4-1.6-2.5-3.3-2.2
			l-10.4,2.2C164.1,24.2,163,25.6,163.6,27.2z"/>
		<path d="M165.5,54.5l10.1,2.2c0.3,0,0.3,0,0.5,0c1.4,0,2.5-0.8,2.7-2.2c0.3-1.4-0.5-3-2.2-3.3L166.6,49c-1.4-0.3-3,0.5-3.3,2.2
			C163,52.6,164.1,54,165.5,54.5z"/>
		<path d="M156.5,66.9c-1.1-1.1-2.7-1.1-3.8,0c-1.1,1.1-1.1,2.7,0,3.8l6.3,6.6c0.5,0.5,1.4,0.8,1.9,0.8c0.8,0,1.4-0.3,1.9-0.8
			c1.1-1.1,1.1-2.7,0-3.8L156.5,66.9z"/>
	</g>
</g>
<g class="st0">
	<title>a</title>
	<g class="st1">
		<circle cx="80.8" cy="101.4" r="7.7"/>
		<path d="M210.8,81.5V70.8c0-1.1-0.4-1.9-1.1-2.7l-19.1-19.1c-0.8-0.8-1.5-1.1-2.7-1.1h-57.4V9.5c0-4.2-3.4-7.7-7.7-7.7H84.6
			c-4.2,0-7.7,3.4-7.7,7.7v26.8H13.4c-2.3,0-4.2,0.8-5.7,2.7c-3.4,3.4-7.3,12.2-7.3,31.8v26.8c0,4.2,3.4,7.7,7.7,7.7h4.2
			c1.9,12.6,13.8,21,26.4,18.7c9.6-1.5,17.2-9.2,18.7-18.7h0.8c1.9,12.6,13.8,21,26.4,18.7c9.6-1.5,17.2-9.2,18.7-18.7h2.7
			c1.9,0,3.8-0.8,5.4-2.3l16.8-16.8c1.5-1.5,2.3-3.4,2.3-5.4v-9.9h48.2l7.7,7.7h-40.6c-4.2,0-7.7,3.4-7.7,7.7v24.5
			c0,3.1,1.5,5.7,4.2,6.9l13.4,6.5l0,0c0.4,0.4,1.1,0.4,1.5,0.4h11.5c2.3,0,3.8-1.5,3.8-3.8s-1.5-3.8-3.8-3.8h-7.7V86.1h21
			c-9.1,10.4-7.5,26.6,4.5,34.5c8.7,5.8,20.7,4.9,28.3-2.3c10.1-9.5,9.8-25.2-0.3-34.2C213.5,83.4,212.4,82.2,210.8,81.5z
			 M99.9,63.1V24.8h23v38.3H99.9z M8,70.8c0-19.1,4.2-25.3,5.4-26.8h63.5v34.8c-9.6,1.5-17.2,9.2-18.7,18.7h-0.4c0,0,0,0,0-0.4
			c-2.3-12.6-14.4-20.7-27.2-18.4c-9.7,1.5-17.1,9.2-18.7,18.4c0,0,0,0,0,0.4H8V70.8z M34.9,116.7c-8.4,0-15.3-6.9-15.3-15.3
			s6.9-15.3,15.3-15.3s15.3,6.9,15.3,15.3S43.3,116.7,34.9,116.7z M80.8,116.7c-8.4,0-15.3-6.9-15.3-15.3s6.9-15.3,15.3-15.3
			s15.3,6.9,15.3,15.3S89.3,116.7,80.8,116.7z M122.8,80.4l-17.2,17.2h-2.7c-1.6-9.4-9-16.8-18.3-19.1c-0.4,0,0.4,0,0,0V9.5h38.3
			v7.7h-23c-4.2,0-7.7,3.4-7.7,7.7v38.3c0,4.2,3.4,7.7,7.7,7.7h23V80.4z M180.2,63.1h-49.7v-7.7h55.9l16.8,16.8v6.1h-0.4
			c-1.1-0.4-2.3-0.4-3.4-0.4c-1.1,0-2.3,0-3.4,0.4h-0.4V78c0-1.1-0.4-1.9-1.1-2.6l-11.5-11.2C182.1,63.5,181.4,63.1,180.2,63.1z
			 M145.8,86.1h7.7v28.3l-7.7-3.8V86.1z M199.4,116.7c-8.4,0-15.3-6.9-15.3-15.3c0-6.1,3.4-11.5,9.2-13.8l0,0
			c3.1-1.1,6.1-1.5,9.2-0.8c8.4,1.9,13.4,9.9,11.9,18.4C212.8,111.7,206.7,116.7,199.4,116.7z"/>
		<circle cx="199.4" cy="101.4" r="7.7"/>
		<circle cx="34.9" cy="101.4" r="7.7"/>
		<path d="M19.6,70.8h30.6c2.3,0,3.8-1.5,3.8-3.8c0-2.3-1.5-3.8-3.8-3.8H19.6c-2.3,0-3.8,1.5-3.8,3.8C15.8,69.2,17.3,70.8,19.6,70.8
			z"/>
		<path d="M19.6,59.3h30.6c2.3,0,3.8-1.5,3.8-3.8c0-2.3-1.5-3.8-3.8-3.8H19.6c-2.3,0-3.8,1.5-3.8,3.8C15.8,57.7,17.3,59.3,19.6,59.3
			z"/>
	</g>
</g>
<g class="st0">
	<title>015 - Tractor</title>
	<desc>Created with Sketch.</desc>
	<g class="st1">
		<g>
			<path d="M40.6,102.8c-10.3,0-18.4,8.1-18.4,18.4s8.1,18.4,18.4,18.4S59,131.6,59,121.3S50.9,102.8,40.6,102.8z M40.6,132.3
				c-6.3,0-11.1-4.8-11.1-11.1c0-6.3,4.8-11.1,11.1-11.1s11.1,4.8,11.1,11.1C51.7,127.5,46.9,132.3,40.6,132.3z"/>
			<path d="M151.2,125c-4.4,0-8.5,2.6-10.3,7c-1.8,4.1-0.7,8.8,2.6,12.2c3.3,3.3,8.1,4.1,12.2,2.6c4.1-1.8,7-5.9,7-10.3
				C162.3,130.1,157.5,125,151.2,125z M151.2,139.7c-2.2,0-3.7-1.8-3.7-3.7c0-2.2,1.8-3.7,3.7-3.7c2.2,0,3.7,1.8,3.7,3.7
				C154.9,138.2,153.4,139.7,151.2,139.7z"/>
			<path d="M57.6,159.2c10.7-4.8,18.8-14.4,22.1-25.8h46.1c-1.5,10.3,3.3,20.6,12.2,25.8 M164.7,158.1c7.4-4.4,12.2-12.5,12.5-21.4
				s-3.7-17-11.1-22.1V85.2c0-1.8-1.5-3.3-3.3-3.7l-22.1-2.6l10-52.3h37.6h16.6c1.1,0,1.8-0.4,2.6-1.1l12.9-12.9
				c1.4-1.4,1.4-3.7,0-5.2L189-24c-1.4-1.4-3.7-1.4-5.2,0l-12.9,12.9c-0.7,0.7-1.1,1.5-1.1,2.6V8.1c0,1.1,0.4,1.8,1.1,2.6l8.5,8.5
				h-30.2l-7.4-7.4h16.8c0,0,3.7-2.6,3.7-4.8s-1.5-3.7-3.7-2.6h-25.8c-0.4-1.1-0.7-1.1-1.5-0.7c0,0-0.4,0-0.4,0.4
				c-0.4,0-0.7,0.4-1.7,0.4l0,0v0.4c0.5,0.4,0.5,0.4,0.5,0.7l3.1,0.4v0.4l-17.1,68.9l-12.3-1.5V30.2c0-2-1.7-3.7-3.7-3.7H33.4
				c-2.2,0-3.7,1.5-3.7,3.7s1.5,3.7,3.7,3.7h3.7v33.2h-3.7c-2.2,0-3.7,1.5-3.7,3.7s1.5,3.7,3.7,3.7h3.7v6.6
				C18.7,82.6,3.9,96.6,1,114.6s6.3,35.8,22.9,43.5 M177.2-7l9.2-9.2L212.6,10l-9.2,9.2h-13.6L177.2,6.6V-7z M96.1,78.1v14.7h-5.5
				C86.1,84.4,78.8,77,70.3,72.6V33.9h25.8V78.1z M44.5,33.9h18.4v35.4c-4.8-1.5-9.6-2.2-14.7-2.2h-3.7V33.9z M48.2,74.5
				c5.9,0,11.4,1.1,17,3.7C74,82.2,81,89.2,85,98.1c2.6,5.2,3.7,11.1,3.7,17v11.1l-7.4,0c-0.1-0.1-0.1-0.1-0.1-0.2
				c1.9-22.6-14.5-41.8-36.7-43.7v-7.7H48.2z M40.6,154.4c-14,0-26.5-8.8-31.3-22.1c-4.8-13.3-0.7-28,10.3-36.9
				c10.7-8.8,26.2-10,38-2.6c11.8,7.4,18.1,21.4,15.5,35C70.1,143.4,56.5,154.4,40.6,154.4z M169.6,136c0,10.3-8.1,18.4-18.4,18.4
				s-18.4-8.1-18.4-18.4s8.1-18.4,18.4-18.4S169.6,125.7,169.6,136z M158.8,112.4c-12.2-3.7-25.1,2.2-30.6,13.6H96.1V115
				c0-5.2-0.7-10-2.2-14.7h5.9c0,0,0,0,0.4,0s0,0,0,0l47.2,3.7h0.4c2.2,0,3.7-1.5,3.7-3.7c0-2.2-1.5-3.7-3.7-3.7l-44.2-3.3V82.6
				l55.3,6.6V112.4z M122.8,75.9L135,14.4l8.5,8.5L133.1,77L122.8,75.9z"/>
		</g>
	</g>
</g>
<g class="st0">
	<path class="st1" d="M193.7-18L0.6,119.6c-2,1.4-2.4,3.7-1,5.7l0,0l23.7,33.3c1.4,2,3.7,2.4,5.7,1l0,0L222.2,21.9
		c2-1.4,2.4-3.7,1-5.7l0,0l-23.7-33.3C198-19.1,195.7-19.4,193.7-18L193.7-18z M200.8,27.1l-11.7,8.3c1.5-12.6-6.5-24-19-26.6
		l11.7-8.3L200.8,27.1z M43.6,120c-5.2-7.3-3.5-17.6,3.8-22.8c7.3-5.2,17.6-3.5,22.8,3.8c5.2,7.3,3.5,17.6-3.8,22.8
		C59.1,129.1,48.9,127.4,43.6,120z M63.6,84.7l21.6-15.4l7.1,10c1.4,2,3.7,2.4,5.7,1l0,0l26.6-19c2-1.4,2.4-3.7,1-5.7l0,0l-7.1-10
		l21.6-15.4c-1.5,12.6,6.5,24,19,26.6l-76.6,54.6C83.8,98.9,75.7,87.6,63.6,84.7z M150.2,44.1c-5.2-7.3-3.5-17.6,3.8-22.8
		s17.6-3.5,22.8,3.8c5.2,7.3,3.5,17.6-3.8,22.8C165.6,53.2,155.4,51.4,150.2,44.1z M111.9,50.3l4.7,6.7l-20,14.2l-4.7-6.7
		L111.9,50.3z M8.7,123.9l6.7-4.7l19,26.6l-6.7,4.7L8.7,123.9z M22,114.4l11.7-8.3c-1.5,12.6,6.5,24,19,26.6L41,141L22,114.4z
		 M214.1,17.6l-6.7,4.7l-19-26.6l6.7-4.7L214.1,17.6z"/>
	<path class="st1" d="M48.9,120.3l20-14.2c2-1.4,2.4-3.7,1-5.7c-1.4-2-3.7-2.4-5.7-1l-20,14.2c-2,1.4-2.4,3.7-1,5.7
		S46.9,121.8,48.9,120.3z"/>
	<path class="st1" d="M155.4,44.4l20-14.2c2-1.4,2.4-3.7,1-5.7s-3.7-2.4-5.7-1l-20,14.2c-2,1.4-2.4,3.7-1,5.7S153.4,45.8,155.4,44.4
		z"/>
</g>
<g class="st0">
	<path class="st1" d="M193.6-37.6l-29.2,34v31.6h-23.9V-3.7l-29.2-34l-29.2,34v31.6H58.3V-3.7l-29.2-34L0-3.7v182.7h58.4V142h23.9
		v37.1h58.4V142h23.9v37.1h58.4V-3.7L193.6-37.6z M50.4,173.8H5.3V142h45.1v31.7V173.8z M50.4,136.7H5.3V35.9h45.1v99.9V136.7z
		 M50.4,27.9H5.3V-1.5l22.5-27.1L50.4-1.5v29.9V27.9z M82.2,136.7H58.3V35.9h23.9V136.7z M135,173.8H87.5V142h47.7v31.8H135z
		 M135,136.7H87.5V35.9h47.7v100.8H135z M135,27.9H87.5V-1.5l23.9-27.1l23.9,27.1v29.4H135z M164.4,136.7h-23.9V35.9h23.9V136.7z
		 M214.8,173.8h-45.1V142h45.1v31.7V173.8z M214.8,136.7h-45.1V35.9h45.1v99.9V136.7z M217.2,27.9h-47.5V-1.5l23.9-27.1l23.9,27.1
		v29.4H217.2z"/>
</g>
</svg>
