<?xml version="1.0" encoding="utf-8"?>
<!-- Generator: Adobe Illustrator 23.0.4, SVG Export Plug-In . SVG Version: 6.00 Build 0)  -->
<svg version="1.1" id="Layer_1" xmlns="http://www.w3.org/2000/svg" xmlns:xlink="http://www.w3.org/1999/xlink" x="0px" y="0px"
	 viewBox="0 0 154.6 154.9" style="enable-background:new 0 0 154.6 154.9;" xml:space="preserve">
<style type="text/css">
	.st0{display:none;}
	.st1{display:inline;}
</style>
<g class="st0">
	<g class="st1">
		<path d="M-10.7,149.2l204.3,0c2.4,0,4.6-1.4,5.4-3.6c1.2-3.7-1.6-7.2-5.1-7.2H182c3.5-12.1,8.6-26.4,16.2-37c0,0,0-0.3,0.3-0.3
			v-0.9c0,0-0.5-1.9-0.5-3c0-3-2.4-5.4-5.4-5.4c-0.8,0-1.6,0.3-2.2,0.5c-1.3,0.5-15.9,7-30,20c-2.2-7.8-4.3-18.1-5.4-30
			c-0.3-2.2-1.9-4.3-4-4.9s-4.6,0.3-5.9,2.2c-0.3,0.5-6.2,9.4-12.4,22.1c-5.1-22.4-1.9-48-1.6-48.3c0.3-2.7-1.1-5.1-3.5-5.9
			c-2.4-0.8-5.1,0.3-6.5,2.4l-40.5,71c-4.6-39.4,6.7-85.3,7-85.8c0.5-2.4-0.5-4.9-2.7-6.2c-2.2-1.1-4.9-0.5-6.5,1.3
			C62.5,49.3,53,72.8,47.4,93.5c-5.7-15.1-10.3-24-10.5-24.6c-1.3-2.4-4-3.5-6.5-2.7s-4,3.5-3.5,6.2c1.1,5.4,1.3,20.5,1.1,42.4
			C18.2,99.5,9.6,88.7,9,88.1c-1.6-2.2-4.6-2.7-7-1.3c-2.4,1.3-3.2,4.3-2.2,6.7c7.8,17.8,8.9,32.9,8.1,44.9h-18.3
			c-3-1.5-5.4,1-5.4,3.9S-10.7,149.2-10.7,149.2z M178.5,112.5c-3.8,8.9-6.7,17.8-8.9,25.9h-16.7c2.4-4,5.4-7.8,8.9-11.3l0.3-0.3
			C167.4,120.9,173.4,116.3,178.5,112.5z M146.4,99.9c1.6,8.6,3.5,16.2,5.4,22.1c-4.6,5.1-8.4,10.5-11.3,16.5h-8.6
			c1.1-5.7,2.7-11.6,5.4-18.1C139.9,112.5,143.4,105.5,146.4,99.9z M126.2,118.5c-2.7,7-4.3,13.8-5.4,20h-37l35.1-61.8
			C119.1,89.3,120.8,105.3,126.2,118.5z M72.2,137.4l-0.5,1.1H60c-1.6-7.8-3.8-15.9-6.2-23.7c3-15.7,8.4-35.6,18.1-54.2
			C68.7,81.5,66.3,111.7,72.2,137.4z M43,116.3L43,116.3c2.2,7.6,4,14.8,5.7,22.1h-8.4c-0.8-1.6-1.6-3-2.4-4.3
			c0.3-10,0.5-20.8,0.5-31C40.1,107.1,41.4,111.5,43,116.3z M18.2,121.4c3.3,5.3,6.7,10.8,10,17c0,0,0,0,0,0l-9.4,0
			C19,133.6,19,127.9,18.2,121.4z"/>
	</g>
</g>
<g class="st0">
	<path class="st1" d="M38.9,171.2c1,1,1.5,2.2,1.5,3.4s-0.5,2.4-1.5,3.4c-1,1-2.2,1.5-3.4,1.5c-0.7,0-1.2-0.2-1.9-0.5
		c-0.5-0.2-1.2-0.5-1.5-1c-1-1-1.5-2.2-1.5-3.4s0.5-2.4,1.5-3.4c1.2-1.2,2.9-1.7,4.4-1.5c0.2,0,0.5,0.2,1,0.2
		c0.2,0.2,0.5,0.2,0.7,0.5S38.7,171,38.9,171.2z M186.7,182.3c-0.2-0.2-0.2-0.5-0.5-0.7c-0.2-0.2-0.5-0.5-0.5-0.7
		c-1.2-1.2-3-1.7-4.5-1.5c-0.2,0-0.7,0.2-1,0.2c-0.2,0.2-0.5,0.2-0.7,0.5c-0.2,0.2-0.5,0.5-0.7,0.5c-0.2,0.2-0.5,0.5-0.5,0.7
		c-0.2,0.2-0.2,0.5-0.5,0.7c-0.2,0.2-0.2,0.5-0.2,1c0,0.2,0,0.7,0,1c0,1.2,0.5,2.5,1.5,3.5c0.7,1.2,2,1.7,3.2,1.7
		c0.7,0,1.2-0.2,2-0.5c0.5-0.2,1.2-0.5,1.5-1c1-1,1.5-2.2,1.5-3.5c0-0.2,0-0.7,0-1C186.9,183.1,186.9,182.6,186.7,182.3z M206,190.5
		c-2.2,9.4-10,16.9-19.6,18.4c-9.7,1.6-18.4-2.6-23.5-9.4H60.2c-6.7,6.7-16.3,10.4-26.6,9.6c-16.4-1.3-29.7-14.5-31.2-30.9
		c-1.6-18.1,11-33.8,28.1-36.6L8.7,23.4c-0.5-2.2-2.4-3.9-4.9-3.9l-10.9,0c-2.1,0-4.2-1.2-4.8-3.2c-1.1-3.3,1.4-6.5,4.6-6.5H4
		c7.1,0,12.9,4.9,14.3,11.7l22.1,119.9c1.5,0.2,2.7,0.5,4.1,0.7l50.1,6.8v-15.1h-7.3c-2.7,0-4.9-2.2-4.9-4.9v-4.9
		c0-13.4,10.9-24.3,24.3-24.3h14.6c13.4,0,24.3,10.9,24.3,24.3v4.9c0,2.7-2.2,4.9-4.9,4.9h-7.3V154l49.1,6.6
		C197.7,160.9,209.5,175,206,190.5z M135.2,124.1c0-8-6.6-14.6-14.6-14.6h-14.6c-8,0-14.6,6.6-14.6,14.6H135.2z M104.5,133.8v16.3
		l19.5,2.7v-19H104.5z M59.8,174.6c0-11.2-7.5-20.4-17.8-23.3l-6.8-1c-13.4,0.2-24.1,10.9-24.1,24.3s10.9,24.3,24.3,24.3
		S59.8,188,59.8,174.6z M163.9,168.1L62.5,154.5c4.4,5.8,7.1,12.9,7.1,20.7c0,5.4-1.2,10.2-3.4,14.6h91.4c-0.2-1.7-0.5-3.2-0.5-4.9
		C157.1,178.4,159.8,172.5,163.9,168.1z M196,184.3c0-8-6.6-14.6-14.6-14.6c-8,0-14.6,6.6-14.6,14.6c0,8,6.6,14.6,14.6,14.6
		C189.5,198.9,196,192.4,196,184.3z"/>
</g>
<g class="st0">
	<path class="st1" d="M12.3,154.4c4.2,0.4,7.7-1.1,10.4-4.1c4.2,5.1,11.8,5.7,16.9,1.2c0.6-0.3,0.9-0.9,1.2-1.2
		c4.2,5.1,11.8,5.7,16.9,1.2c0.6-0.3,0.9-0.9,1.2-1.2c4.2,5.1,11.8,5.7,16.9,1.2c0.6-0.3,0.9-0.9,1.2-1.2c4.2,5.1,11.8,5.7,16.9,1.2
		c0.6-0.3,0.9-0.9,1.2-1.2c4.2,5.1,11.8,5.7,16.9,1.2c2.4-2.1,3.9-4.8,4.2-8.1l31,31c1.1,1.1,2.3,1.2,5.5,0.2
		c10.6-3.4,17.7-13.4,17.7-24.6l0-46.7h3c1.7,0,3-1.3,3-3V88.1v-0.3v-0.3l-6-36.2c-0.3-1.5-1.5-2.4-3-2.4h-18.1
		c-1.5,0-2.7,1.2-3,2.4l-6,36.2v0.3v0.3v12.1c0,1.7,1.3,3,3,3h3v38L116.2,111l0-59.3c0-6.3-5.1-12.2-11.3-12.6
		c-3.9-0.2-7.5,1.3-9.8,4.2c-4.2-5.1-11.8-5.7-16.9-1.2c-0.6,0.3-0.9,0.9-1.2,1.2c-4.2-5.1-11.8-5.7-16.9-1.2
		c-0.6,0.3-0.9,0.9-1.2,1.2c-4.2-5.1-11.8-5.7-16.9-1.2c-0.6,0.3-0.9,0.9-1.2,1.2c-4.2-5.1-11.8-5.7-16.9-1.2
		c-0.6,0.3-0.9,0.9-1.2,1.2c-4.2-5.1-12.1-5.7-16.9-1.2c-2.7,2.1-4.2,5.4-4.2,9l0,90.8C1.6,147.9,6.4,153.8,12.3,154.4z M170.4,97.2
		h-24.1v-6h24.1V97.2z M151.4,55h13l5.1,30.1h-22.9L151.4,55z M164.4,103.2v51.2c0,7.2-5.1,13.3-12.1,14.8v-66H164.4z M146.3,148.9
		v15.7l-30.1-30.1v-15.7L146.3,148.9z M110.1,51.5c0,14.5,0,75.4,0,89.8c0,2.6-1.5,5.2-4,6c-4.2,1.4-8-1.7-8-5.7V51.2
		c0-4,3.9-7.1,8-5.7C108.6,46.3,110.1,48.9,110.1,51.5z M92,51.5c0,14.5,0,75.4,0,89.8c0,2.6-1.5,5.2-4,6c-4.2,1.4-8-1.7-8-5.7V51.2
		c0-4,3.9-7.1,8-5.7C90.5,46.3,92,48.9,92,51.5z M74,51.5c0,14.5,0,75.4,0,89.8c0,2.6-1.5,5.2-4,6c-4.2,1.4-8-1.7-8-5.7V51.2
		c0-4,3.9-7.1,8-5.7C72.4,46.3,74,48.9,74,51.5z M55.9,51.5c0,14.5,0,75.4,0,89.8c0,2.6-1.5,5.2-4,6c-4.2,1.4-8-1.7-8-5.7V51.2
		c0-4,3.9-7.1,8-5.7C54.3,46.3,55.9,48.9,55.9,51.5z M37.8,51.5c0,14.5,0,75.4,0,89.8c0,2.6-1.5,5.2-4,6c-4.2,1.4-8-1.7-8-5.7V51.2
		c0-4,3.9-7.1,8-5.7C36.3,46.3,37.8,48.9,37.8,51.5z M7.6,51.2c0-4,3.9-7.1,8-5.7c2.5,0.8,4,3.4,4,6c0,14.5,0,75.4,0,89.8
		c0,2.6-1.5,5.2-4,6c-4.2,1.4-8-1.7-8-5.7V51.2z"/>
	<path class="st1" d="M158.4,27.1c-1.8,0-3,1.2-3,3v9c0,1.8,1.2,3,3,3s3-1.2,3-3v-9C161.4,28.3,160.2,27.1,158.4,27.1z"/>
	<path class="st1" d="M161.4,9c0-1.8-1.2-3-3-3s-3,1.2-3,3v9c0,1.8,1.2,3,3,3s3-1.2,3-3V9z"/>
	<path class="st1" d="M134,27.1c0,1.8,1.2,3,3,3c5.1,0,9,3.9,9,9c0,1.8,1.2,3,3,3c1.8,0,3-1.2,3-3c0-8.4-6.6-15.1-15.1-15.1
		C135.2,24.1,134,25.3,134,27.1z"/>
	<path class="st1" d="M179.2,24.1c-8.4,0-15.1,6.6-15.1,15.1c0,1.8,1.2,3,3,3s3-1.2,3-3c0-5.1,3.9-9,9-9c1.8,0,3-1.2,3-3
		S181,24.1,179.2,24.1z"/>
</g>
<g class="st0">
	<g class="st1">
		<path d="M79.5,84.5c-4.2,3.9-4.3,10.1-0.4,14.3c3.9,4.2,10.1,4.3,14.3,0.4c4.2-3.9,4.3-10.1,0.4-14.3
			C89.9,80.8,83.7,80.6,79.5,84.5z M88.8,94.3c-1.5,1.4-3.4,1.3-4.8-0.1c-1.4-1.5-1.3-3.4,0.1-4.8c1.5-1.4,3.4-1.3,4.8,0.1
			C90.3,91,90.2,92.9,88.8,94.3z"/>
		<path d="M189.8,105.3l-43.2-22.1l0,0c-0.2-0.2-0.7-0.3-1.2-0.3l0,0l0,0l-31.1-2.6l-0.2-0.2l-31.2-62l0,0C77.2,7,66.3-1,53.9-3
			c-6.3-1.1-12.4-0.5-18.3,1.3c-1.2-0.3-1.5,0-2,0.4c-0.5,0.5-0.8,0.7-0.8,1.2c-0.5,1-0.3,2.2,0.4,2.9l42.1,64.4l-0.5,0.5l-10.6,10
			L2.7,31.7c-1-0.5-2.2-0.8-2.9-0.5s-1,0.5-1.5,0.9c-0.5,0.5-0.8,0.7-0.8,1.2c-2.4,6-2.9,12.1-2.4,18.2l0,0l0,0l0,0
			C-3.7,64,3.7,75.3,14.4,81.6l60,34.9l0.2,0.2l0.7,31.2l0,0l0,0c0,0.5,0.2,0.7,0.2,1.2l0,0l19.5,44.5c1.8,3.9,5.1,6.9,8.9,8.5
			c4.1,1.3,8.5,0.9,12.5-1c1.2-0.7,2.5-1.4,3.5-2.4c5.1-4.8,6.6-12.3,3.4-18.7L101.9,137l-5.6-24.7l12.1-11.4l24.3,7.1l41.7,24
			c6.2,3.5,13.8,2.5,18.8-2.3c1-1,1.8-2.2,2.6-3.4c2.3-3.6,2.8-8.2,1.7-12.4C196.4,110.8,193.6,107.3,189.8,105.3z M77,23.6L77,23.6
			l25.2,48.8L99.9,70c-0.7-0.7-1.4-1.5-2.3-2c-0.2-0.2-0.5-0.5-0.7-0.3c-0.7-0.3-1.2-0.7-1.9-1c-0.2-0.2-0.2-0.2-0.7-0.3
			c-0.9-0.5-1.9-0.5-2.8-1l-0.5,0l-0.5,0l0,0c1.2-1.2,1.5-2.8,0.6-4.3L61.3,8.8C67.9,11.4,73.9,16.8,77,23.6z M48.1,7.5
			c0.5,0,1,0,1.4,0c1,0,1.7,0.3,2.6,0.3L84,63.8l-2.4,2.3l-38.5-58C44.8,7.9,46.4,7.7,48.1,7.5z M4.5,50c0-0.5,0-1,0-1.4
			c0-1.4,0.3-3.1,0.6-4.7L61,85.5l-2.4,2.3L4.6,52.6C4.7,51.7,4.7,50.7,4.5,50z M117.7,183.9c2,4.1,0.4,9.3-3.7,11.3
			c-2.2,1.1-4.3,1.3-6.9,0.5c-2.1-0.8-4-2.3-4.9-4.7l-18.1-40.8l13.5-6.3L117.7,183.9z M95.3,138.1L83,143.6l-1-23.1
			c0.7,0.3,1.4,0,2.4,0.1l0.5,0c0.5,0,1.2-0.2,1.7-0.2c0.2-0.2,0.5,0,0.7-0.2c0.5,0,0.7-0.2,1.4-0.4c0.2-0.2,0.7-0.2,1-0.4
			c0.2-0.2,0.7-0.2,1-0.4L95.3,138.1z M107.2,97.4l-14.7,13.8c-2.7,2.5-7,3.4-10.5,2.1c-0.5,0-0.9-0.5-1.6-0.8L21.4,77.9
			c-6.5-4-11.6-9.9-14-16.8L57.8,94c1.2,0.7,3.1,0.8,4.3-0.3l7.3-6.9l12.2-11.5c4.1-3.8,10.4-3.6,14.3,0.4l11.5,12.2
			c0.5,0.5,1.4,1,2.1,1.3l3.1,0.3l0,0l27.5,2.7l-6.3,11.9L110.6,97C109.4,96.3,108.2,96.5,107.2,97.4z M189.2,119
			c0.6,2.2,0.3,4.8-0.9,6.9c-2.3,4-7.5,5.2-11.5,3l-38.4-22.6l7.1-13.1l39.6,20.5C186.9,115.1,188.5,116.8,189.2,119z"/>
	</g>
</g>
<g class="st0">
	<g class="st1">
		<g>
			<path d="M103.7,79.6c11.5-1.5,20.9-7.9,20.9-14.9c0-4.9-4.4-8.5-8.2-10.7c-5.5-3.2-11.9-4.5-18.1-4.5c4-4,7.4-9,9.2-14.4
				c1.5-4.7,2.3-11-1.3-14.9c-3.3-3.3-9-3-13.4-1.8c-6,1.7-11.7,5.2-16.1,9.7c0-8.2-2.3-17.9-8.9-23.6c-2.3-2.2-5.7-3.3-9-2.2
				c-4.2,1.5-7,5.5-8.9,9.4c-2.5,5-3.7,10.7-3.5,16.4c-4.4-4.4-9.9-7.9-15.9-9.5c-4.4-1.2-10-1.7-13.6,1.8c-3.8,3.8-3,10.2-1.3,14.9
				c1.8,5.5,5.2,10.4,9.2,14.4c-6.2,0-12.7,1.3-18.1,4.5c-3.8,2-8.2,5.7-8.2,10.5S3,73.3,6.8,75.4c5.5,3.2,11.9,4.5,18.1,4.5
				c-4,4-7.4,9-9.2,14.4c-1.5,4.7-2.3,11,1.3,14.9c3.8,3.8,10.2,2.8,14.7,1.3c5.5-1.8,10.5-5.2,14.6-9.2c0,6.2,1.3,12.7,4.5,18.1
				c2.2,3.8,5.9,8,10.7,8s8.5-4.2,10.7-8c3.2-5.5,4.5-11.9,4.5-18.1c4,4.2,9,7.4,14.6,9.2c4.5,1.5,10.9,2.3,14.7-1.3
				c4.9-4.9,2.3-13.4-0.2-18.6c2.3,2.3,4.5,4.9,6.7,7.7c14.2,18.9,24.4,52.5-6,105.9c-2.2,3.7,3.7,7,5.9,3.3
				c10.9-18.9,16.7-35.6,19.2-50.2c6.7,2.7,14.2,3.8,21.3,1.7c5.7-1.7,9-5,14.1-9.9c7.7-7.4,15.7-14.1,24.4-20.1
				c1.8-1.2,2-4,0.2-5.4c-13.2-10.5-31.8-12.2-46-4c-5.9,3.3-9.9,7.7-12.9,12C129.8,105.2,114.6,88.5,103.7,79.6z M98.7,56.2
				c11.9,0,19.4,6,19.4,8.5s-7.5,8.5-19.4,8.5c-5.2,0-9.4-1.2-12.6-2.5c1-3.8,1-7.9,0-11.9C89.3,57.4,93.5,56.2,98.7,56.2z
				 M81.8,32.6c8.7-9.5,19.1-8.2,19.6-7.5s1.8,9.4-7.5,19.6c-3.5,3.7-7.4,5.9-10.7,7c-2-3.3-5-6.4-8.4-8.4
				C75.9,40,78.3,36.1,81.8,32.6C88,26.4,78.4,36.3,81.8,32.6z M61.7,8.5c2.5,0,8.5,7.5,8.5,19.4c0,5-1.2,9.4-2.5,12.6
				c-3.8-1-8-1-11.9,0c-1.5-3.2-2.5-7.5-2.5-12.6C53.2,16,59.2,8.5,61.7,8.5z M21.9,25.1c0.5-0.7,10.7-1.5,19.6,7.5l0,0
				c3.5,3.5,5.9,7.4,7,10.7c-3.3,2.2-6.4,5-8.4,8.4c-3.3-1.2-7.4-3.3-10.7-7C19.4,33.8,21.4,25.7,21.9,25.1z M24.7,73.3
				c-11.9,0-19.4-6-19.4-8.5c0-2.5,7.5-8.5,19.4-8.5c5.2,0,9.4,1.2,12.6,2.5c-1,3.8-1,8,0,11.9C34.1,72.1,29.7,73.3,24.7,73.3z
				 M41.6,96.9c-8.4,8.4-17.9,9.4-19.7,7.7c-0.3-0.3-2.8-9.5,7.7-19.7c3.7-3.5,7.4-5.9,10.7-7c2,3.3,5,6.4,8.4,8.4
				C47.3,89.7,45,93.5,41.6,96.9z M61.7,121.1c-2.5,0-8.5-7.5-8.5-19.4c0-5,1.2-9.4,2.5-12.6c3.8,1,8,1,11.9,0
				c1.5,3.2,2.5,7.5,2.5,12.6C70.2,113.6,64.2,121.1,61.7,121.1z M61.7,83.1c-10.2,0-18.4-8.2-18.4-18.4s8.2-18.4,18.4-18.4
				s18.4,8.2,18.4,18.4S71.7,83.1,61.7,83.1z M101.5,104.6c-1.8,1.8-11.4,0.7-19.7-7.7c-3.5-3.5-5.9-7.4-7-10.7c3.3-2,6.4-5,8.4-8.4
				c3.3,1.2,7,3.5,10.7,7C104.4,94.5,101.9,104.2,101.5,104.6z M148.7,125.6c8.7-4.9,19.2-5.5,28.6-2.2c-9.9,1.7-19.4,6.4-27.1,10.5
				c-7,4-12.2,7.4-16.2,10.4C135.8,138.5,139.9,130.7,148.7,125.6z M173.7,134.2c-5,4.2-8.5,7.5-11.4,10.4c-4.7,4.5-7.2,7-11.4,8.2
				c-4.5,1.3-9.5,1-15.4-1c4.4-3.3,9.9-7.2,18.1-11.7c9.9-5.5,18.1-8.9,25.3-9.9C177,131.3,175.3,132.8,173.7,134.2z"/>
		</g>
	</g>
</g>
<g class="st0">
	<title>Artboard 10</title>
	<g class="st1">
		<path d="M33.7,124.9c-0.7-1.9-2.3-3.3-4.5-3.3H4.4l-8.2-24.9c-0.9-2.3-3.5-3.8-5.9-3c-2.3,0.9-3.8,3.5-3,5.9l8.9,26.7l-8.9,26.7
			c-0.7,2.3,0.5,5.2,3,5.9c2.3,0.7,5.2-0.5,5.9-3L4.4,131h21.3l8.2,24.9c0.9,2.3,3.5,3.8,5.9,3c2.3-0.9,3.8-3.5,3-5.9L33.7,124.9z"
			/>
		<path d="M112.7,93.5H84.5V46.6h75c2.6,0,4.7-2.1,4.7-4.7l0,0v-9.4c0-1.9-0.9-3.5-2.6-4.2L81.8-9.3c-1.2-0.7-2.8-0.7-4,0L-2,28.3
			c-1.6,0.7-2.6,2.3-2.6,4.2v9.4c0,2.6,2.1,4.7,4.7,4.7l0,0h75v46.9H48c-2.6-0.5-4.7,1.6-4.7,4.2c0,2.6,2.1,4.7,4.7,5.2h27.1v46.9
			h-4.7c-1.7,0-3.3,0.8-4.1,2.3c-1.8,3.5,0.7,7.1,4.1,7.1h18.8c1.7,0,3.3-0.8,4.1-2.3c1.8-3.5-0.7-7.1-4.1-7.1h-4.7v-46.9l27.9,0
			c2,0,4-1.2,4.7-3.1C118.2,96.5,115.7,93.5,112.7,93.5z M4.8,35.5l75-35.4l75,35.4v1.6H4.8V35.5z"/>
		<path d="M165.5,126.3l8.9-26.7c0.7-2.3-0.5-5.2-3-5.9c-2.3-0.7-5.2,0.5-5.9,3l-8.2,24.9h-24.9c-2.1,0-3.8,1.4-4.5,3.3l-9.4,28.1
			c-0.7,2.3,0.5,5.2,3,5.9c2.3,0.7,5.2-0.5,5.9-3l8.2-24.9h21.3l8.2,24.9c0.9,2.3,3.5,3.8,5.9,3c2.3-0.9,3.8-3.5,3-5.9L165.5,126.3z
			"/>
	</g>
</g>
<g class="st0">
	<path class="st1" d="M173.9,76c-2.5-10.7-11.2-18.7-21.7-20.8c0-0.6-0.2-1.3-0.4-1.9c-1.7-7.2-5.9-13.3-12.2-17.1
		c-5.1-3.2-10.9-4.6-16.8-4c-4.8-12.6-18.3-20-31.8-16.8c-4,0.8-7.8,2.7-10.9,5.3c-5.1-3.8-10.9-5.9-17.1-5.9
		c-10.9,0-20.8,6.7-25.1,16.6C23.1,30.3,10.7,41,8.8,54.9C-4.7,56.6-15,68.2-15,82.1c0,11.6,7.4,22.1,18.1,25.9c0,0,0,0,0,0
		c-0.6,14.1,9.6,25.1,26.5,28.6C31.3,137,44,137,60,137c24,0,55.6-0.2,69.1-0.4l8.2-0.6h0.6c12.2-2.7,21.3-15.8,21.3-29.1
		C170.5,101.4,176.8,88.6,173.9,76z M153.5,100.4l-3.2,1.1l0.4,3.2c1.3,10.1-5.5,20.8-14.6,23.2l-7.4,0.6c-37.3,0.4-94.1,0.6-98.1,0
		c-4.7-1.1-20.1-5.3-20.1-19.4c0-1.3,0.2-2.5,0.4-3.6l0.8-4l-4-0.8c-8.9-1.9-15.3-9.9-15.3-19c0-10.7,8.7-19.4,19.3-19.4h4v-4
		c0-10.7,8.7-19.4,19.3-19.4c1.3,0,2.5,0.2,4,0.4l3.8,0.6l1.1-3.6c2.3-8.2,10-13.9,18.7-13.9c5.3,0,10.4,2.1,14,5.9l3,3.2l3-3.2
		c2.5-2.7,5.9-4.8,9.8-5.7c10.4-2.3,20.8,4,23.3,14.5l0.8,4l4-0.8c5.1-1.3,10.2-0.2,14.6,2.3c4.5,2.7,7.4,6.9,8.7,12
		c0.2,1.3,0.4,2.5,0.4,3.8v3.8l3.8,0.2c8.5,0.4,15.9,6.5,17.8,15C168.2,87.3,162.9,97.2,153.5,100.4z"/>
	<path class="st1" d="M131,73.3c-6.1-3.2-13.3-2.3-18.3,2.1c-3.8-1.9-8-2.3-12-1.1c-4.2,1.3-7.6,4-9.7,8c-0.4,0.8-0.2,1.7,0.6,2.1
		c0.8,0.4,1.7,0.2,2.1-0.6c1.7-3.2,4.4-5.5,7.8-6.5c3.4-1.1,6.9-0.6,10.1,1.1c0.2,0,0.2,0.2,0.4,0.2l1.1,0.6l0.8-0.8
		c4.2-4.2,10.5-5.1,15.6-2.3c6.5,3.4,8.8,11.6,5.5,18.1c-0.4,0.8-0.2,1.7,0.6,2.1c0.2,0.2,0.4,0.2,0.6,0.2c0.6,0,1.1-0.2,1.3-0.8
		C141.9,87.6,139,77.5,131,73.3z"/>
	<path class="st1" d="M49.3,55.2c-4.2-1.3-8.6-0.6-12.4,1.5c-5.9,3.4-9.3,9.9-8.2,16.6c-7.6,4.4-10.3,14.3-5.9,22.1
		c0.2,0.4,0.8,0.8,1.3,0.8c0.2,0,0.4,0,0.8-0.2c0.8-0.4,1.1-1.3,0.6-2.1c-3.6-6.3-1.3-14.5,5.3-18.1c0.2,0,0.2-0.2,0.4-0.2l1.1-0.4
		L32,74c-1.3-5.7,1.5-11.6,6.5-14.3c3.2-1.7,6.7-2.1,10.1-1.3c3.4,1.1,6.3,3.2,8,6.3c0.4,0.8,1.3,1.1,2.1,0.6
		c0.8-0.4,1.1-1.3,0.6-2.1C57,59.2,53.5,56.5,49.3,55.2z"/>
</g>
<g class="st0">
	<g class="st1">
		<g>
			<path d="M195.2,32.5v-2.4h-14.3V13.3l2.4-3.3l-5.7-15.8L172.1,10l4.1,3.3v16.8h-23.9V13.3l3.6-3.3l-5.5-15.8L144.8,10l2.6,3.3
				v16.8H126V14.3l3.5-3.3l-6-15.8L117.7,11l3.5,3.3v15.8H97.3V13.3l3.8-3.3L95.6-5.8L90.1,10l2.4,3.3v16.8H71V13.3l2.9-3.3
				L68.4-5.8L62.9,10l3.3,3.3v16.8H42.4V14.3l3.5-3.3l-6-15.8L34.1,11l3.5,3.3v15.8H16.1V13.3l3.1-3.3L13.7-5.8L8.2,10l3.1,3.3v16.8
				H-5.4v4.8h16.7V128H-5.4v4.8h16.7v19.1h4.8v-19.1h21.5v19.1h4.8v-19.1h23.9v19.1H71v-19.1h21.5v19.1h4.8v-19.1h23.9v19.1h4.8
				v-19.1h21.5v19.1h4.8v-19.1h23.9v19.1h4.8v-19.1h14.3V128h-16.7V32.5H195.2z M16.1,128V32.5H40V128H16.1z M42.4,128V32.5h23.9
				V128H42.4z M71,128V32.5h23.9V128H71z M97.3,128V32.5h23.9V128H97.3z M123.6,128V32.5h23.9V128H123.6z M176.1,128h-23.9V32.5
				h23.9V128z"/>
		</g>
	</g>
</g>
<g>
	<g>
		<g>
			<g>
				<g>
					<path d="M24.9,24.3c1.3,1.3,2.7,2.7,4,4c3.2,3.2,6.4,6.4,9.6,9.6c3.8,3.8,7.7,7.7,11.5,11.5c3.3,3.3,6.7,6.7,10,10
						c1.6,1.6,3.2,3.3,4.9,4.9c0,0,0,0,0.1,0.1c0-1.5,0-3.1,0-4.7l-6.9,6.9h4.7c-1.3-1.3-2.7-2.7-4-4c-3.2-3.2-6.4-6.4-9.6-9.6
						c-3.8-3.8-7.7-7.7-11.5-11.5c-3.3-3.3-6.7-6.7-10-10c-1.6-1.6-3.2-3.3-4.9-4.9c0,0,0,0-0.1-0.1c-1.2-1.2-3.4-1.3-4.7,0
						c-0.3,0.3-0.7,0.7-1,1c-0.2,0.2-0.4,0.4-0.6,0.6c0,0-0.1,0.1-0.1,0.1c0,0-0.1,0.1-0.1,0.1c-0.3,0.4,0.1-0.1,0.2-0.1
						c0,0-0.5,0.3-0.5,0.3c0,0,0.7-0.3,0.3-0.2c-0.3,0.1,0.4-0.1,0.4-0.1c0.3,0,0.5,0.1,0.7,0.1c0.4,0.1,0.1,0.1,0,0
						c0,0,0.5,0.4,0.2,0.1c-0.3-0.3,0.2,0.3,0.2,0.3c-0.1-0.1-0.1-0.2-0.2-0.3c-1.2-1.5-2.3-3-3.4-4.6c-2.4-3.3-4.9-6.5-7.3-9.8
						c0-0.1-0.1-0.1-0.2-0.2c-0.2-0.3-0.3-0.6-0.1-0.1c0-0.1-0.2-0.4,0,0c0.1,0.3,0,0.2,0,0c0,0-0.1,0.7,0,0.3
						c0.1-0.4-0.3,0.6-0.1,0.2c0.2-0.3-0.3,0.3-0.1,0.1c0.1,0,0.2-0.2,0.2-0.2c0.7-0.7,1.5-1.5,2.2-2.2c0.9-0.9,1.9-1.9,2.8-2.8
						c0.3-0.3,0.6-0.6,0.9-0.9c0.1-0.1,0.2-0.1,0.2-0.2c0.2-0.2-0.4,0.2-0.1,0.1c0.3-0.2-0.3,0.1-0.3,0.1c0.1,0,0.5-0.1,0,0
						c-0.4,0.1-0.1,0,0,0c0,0-0.7-0.1-0.3,0s-0.2-0.1-0.2-0.1c0,0,0.3,0.2,0.3,0.2c0.1,0.1,0.2,0.1,0.3,0.2c0.1,0.1,0.2,0.1,0.3,0.2
						c0.6,0.4,1.2,0.9,1.8,1.3c2,1.5,4.1,3.1,6.1,4.6c1.8,1.4,3.6,2.7,5.4,4.1c0.3,0.3,0.7,0.5,1,0.8c0,0-0.4-0.3-0.4-0.3
						c0.1,0.1,0.4,0.3,0.1,0c-0.2-0.2-0.1-0.1,0,0c-0.1-0.2-0.2-0.4-0.2-0.7c0-0.3,0-0.5,0-0.8c0,0.1-0.1,0.4,0,0
						c0.3-0.6-0.2,0.3-0.2,0.3c0,0,0.4-0.5,0.2-0.3c-0.1,0.1-0.1,0.1-0.2,0.2c0,0,0,0-0.1,0.1c-0.2,0.2-0.4,0.4-0.6,0.6
						c-0.3,0.3-0.7,0.7-1,1C23.7,20.9,23.6,23.1,24.9,24.3c1.3,1.2,3.4,1.3,4.7,0c1-1,2-1.9,2.7-3c0.8-1.3,1.1-2.9,0.7-4.4
						c-0.4-1.4-1.4-2.3-2.5-3.1c-1.4-1.1-2.8-2.1-4.3-3.2c-2.3-1.7-4.6-3.5-7-5.2c-1.3-1-2.6-2.2-4-2.9C12.7,1.1,10,1.5,8.1,3.5
						C7.3,4.2,6.5,5,5.8,5.8c-1,1-2,2-3,3C1.9,9.6,1,10.5,0.5,11.7c-0.9,2-0.4,4.3,0.9,6c0.4,0.6,0.9,1.2,1.3,1.8
						c1.7,2.2,3.3,4.4,5,6.6c1.4,1.8,2.8,3.7,4.1,5.5c0.9,1.2,1.9,2.4,3.5,3c2.5,0.9,4.7-0.7,6.3-2.3c0.4-0.4,0.7-0.7,1.1-1.1H18
						c1.3,1.3,2.7,2.7,4,4c3.2,3.2,6.4,6.4,9.6,9.6c3.8,3.8,7.7,7.7,11.5,11.5c3.3,3.3,6.7,6.7,10,10c1.6,1.6,3.2,3.3,4.9,4.9
						c0,0,0,0,0.1,0.1c1.5,1.5,4.3,1.2,5.3-0.9c1.8-1.8,3.5-3.5,5.4-5.3c2-1,2.3-3.7,0.8-5.2c-1.3-1.3-2.7-2.7-4-4
						c-3.2-3.2-6.4-6.4-9.6-9.6c-3.8-3.8-7.7-7.7-11.5-11.5c-3.3-3.3-6.7-6.7-10-10c-1.6-1.6-3.2-3.3-4.9-4.9c0,0,0,0-0.1-0.1
						c-1.2-1.2-3.5-1.3-4.7,0C23.7,20.9,23.6,23,24.9,24.3z"/>
				</g>
			</g>
			<g>
				<g>
					<path d="M144.4,139.1c-1.7,1.7-3.4,3.4-5.1,5.1c-0.6,0.6-1.2,1.2-1.8,1.8c-0.2,0.2-0.5,0.4-0.7,0.7c-0.4,0.4,0.5-0.3-0.2,0.1
						c-0.5,0.3-1,0.6-1.5,0.9c-0.5,0.3,0.5-0.2-0.2,0.1c-0.2,0.1-0.5,0.2-0.8,0.2c-0.3,0.1-0.6,0.2-0.9,0.2c-0.1,0-0.2,0-0.3,0.1
						c-0.4,0.1,0.7,0,0.1,0c-0.5,0-1.1,0.1-1.6,0c-0.3,0-0.5,0-0.8-0.1c-0.5,0,0.7,0.1,0.2,0c-0.2,0-0.4-0.1-0.6-0.1
						c-0.5-0.1-1-0.3-1.5-0.5c-0.6-0.2,0.6,0.3-0.2-0.1c-0.3-0.1-0.5-0.3-0.8-0.4c-0.2-0.1-0.5-0.3-0.7-0.4c-0.5-0.3,0,0,0.1,0.1
						c-0.1,0-0.3-0.2-0.4-0.3c-0.2-0.2-0.4-0.3-0.5-0.5c-0.1-0.1-0.1-0.1-0.2-0.2c-1.1-1.1-2.1-2.1-3.2-3.2
						c-4.2-4.2-8.3-8.3-12.5-12.5c-3.7-3.7-7.4-7.4-11.1-11.1c-0.4-0.4-0.8-0.8-1.2-1.2c-0.1-0.1-0.1-0.1-0.2-0.2
						c0,0-0.3-0.4-0.3-0.4c0,0,0.4,0.7,0.1,0.1c-0.1-0.1-0.1-0.2-0.2-0.3c-0.1-0.1-0.3-0.5-0.1-0.1c0.2,0.4,0-0.1-0.1-0.2
						c0-0.1-0.2-1-0.1-0.4c0.1,0.5,0-0.3,0-0.4c0-0.6-0.1,0.6,0-0.1c0-0.1,0.1-0.3,0.1-0.4c0-0.1,0.3-0.5,0-0.1
						c-0.3,0.4,0.2-0.3,0.3-0.4c0.3-0.6-0.1,0.1-0.1,0.1c0-0.1,0.3-0.3,0.3-0.3c0.1-0.1,0.1-0.1,0.2-0.2c1-1,2-2,3-3
						c0.3-0.3,0.5-0.5,0.8-0.8c1.3-1.3,1.3-3.4,0-4.7c-4-4-8-8-12-12c-0.6-0.6-1.1-1.1-1.7-1.7c0,1.5,0,3.1,0,4.7
						c2.3-2.3,4.6-4.6,6.9-6.9c-1.5,0-3.1,0-4.7,0c4,4,8,8,12,12c0.6,0.6,1.1,1.1,1.7,1.7c1.3,1.3,3.4,1.3,4.7,0
						c1.3-1.3,2.6-2.7,4-4c0,0,0.4-0.3,0.4-0.3c0,0-0.5,0.3-0.2,0.2c0.1,0,0.2-0.1,0.3-0.2c0.1,0,0.2-0.1,0.3-0.2
						c0.3-0.2-0.2,0.1-0.3,0.1c0.2,0,0.5-0.2,0.7-0.2c0.1,0,0.2,0,0.3-0.1c0,0-0.7,0-0.3,0c0.2,0,0.5,0,0.7,0c0.3,0-0.3,0-0.3,0
						c0.1,0,0.2,0,0.3,0.1c0.2,0,0.6,0.2,0.7,0.2c0,0-0.6-0.3-0.3-0.1c0.1,0.1,0.2,0.1,0.3,0.2c0.1,0.1,0.2,0.1,0.3,0.2
						c0.3,0.2-0.2-0.1-0.2-0.2c0,0,0.3,0.3,0.4,0.3c0.1,0,0.1,0.1,0.2,0.2c2.3,2.3,4.6,4.6,6.9,6.9c3.8,3.8,7.6,7.6,11.4,11.5
						c2.9,2.9,5.8,5.9,8.8,8.8c0.3,0.3,0.6,0.6,0.9,0.9c0.1,0.1,0.1,0.1,0.2,0.2l0,0c0.2,0.2,0.3,0.3,0.5,0.5
						c0.1,0.1,0.1,0.2,0.2,0.3c0.3,0.3-0.3-0.5-0.1-0.1c0.3,0.4,0.5,0.8,0.8,1.2c0.1,0.2,0.2,0.4,0.3,0.6c0.2,0.3-0.1-0.2-0.1-0.3
						c0,0.2,0.1,0.4,0.2,0.5c0.1,0.4,0.3,0.9,0.4,1.3c0,0.1,0,0.2,0.1,0.3c0,0.2,0.2,0.3,0,0s0-0.2,0,0c0,0.1,0,0.3,0,0.4
						c0,0.4,0,0.9,0,1.4c0,0.2-0.1,0.5-0.1,0.7c0,0,0.1-0.7,0-0.3c0,0.1,0,0.3-0.1,0.4c-0.1,0.4-0.2,0.9-0.4,1.3
						c0,0.1-0.1,0.2-0.1,0.3c-0.2,0.6,0-0.1,0.1-0.1c-0.1,0.1-0.3,0.6-0.4,0.7c-0.2,0.4-0.5,0.8-0.8,1.2c-0.2,0.3,0.1-0.2,0.1-0.2
						c0,0-0.2,0.3-0.2,0.3C144.7,138.7,144.5,138.9,144.4,139.1c-1.2,1.2-1.3,3.4,0,4.7c1.3,1.2,3.4,1.3,4.7,0
						c3.5-3.6,5-8.7,3.9-13.6c-0.6-2.8-2.2-5.2-4.2-7.3c-2.6-2.6-5.3-5.3-7.9-7.9c-4-4-8-8-12-12c-2.6-2.6-5.2-5.2-7.8-7.8
						c-2.3-2.3-5.6-3.5-8.9-2.6c-3,0.8-5.2,3.5-7.3,5.7c-0.2,0.2-0.4,0.4-0.6,0.6c1.5,0,3.1,0,4.7,0c-4-4-8-8-12-12
						c-0.6-0.6-1.1-1.1-1.7-1.7c-1.3-1.3-3.4-1.3-4.7,0c-2.3,2.3-4.6,4.6-6.9,6.9c-1.3,1.3-1.3,3.4,0,4.7c4,4,8,8,12,12
						c0.6,0.6,1.1,1.1,1.7,1.7c0-1.5,0-3.1,0-4.7c-0.9,0.9-1.7,1.7-2.6,2.6c-1.2,1.2-2.4,2.3-3.1,3.8c-1.5,3.2-1,6.8,1.2,9.5
						c0.3,0.4,0.6,0.7,0.9,1c3.3,3.3,6.7,6.7,10,10.1c4.5,4.5,9,9,13.4,13.5c3.5,3.5,6.8,7.6,12,8.4c5,0.8,9.7-0.8,13.2-4.3
						c2-2,4-4,6-6c0.2-0.2,0.4-0.4,0.6-0.6c1.2-1.2,1.3-3.5,0-4.7C147.7,137.9,145.7,137.8,144.4,139.1z"/>
				</g>
			</g>
			<g>
				<g>
					<path d="M111.9,111.2c2.6,2.6,5.2,5.2,7.9,7.9c4.2,4.2,8.4,8.4,12.5,12.5c1,1,1.9,1.9,2.9,2.9c1.2,1.2,3.5,1.3,4.7,0
						c1.2-1.3,1.3-3.4,0-4.7c-2.6-2.6-5.2-5.2-7.9-7.9c-4.2-4.2-8.4-8.4-12.5-12.5c-1-1-1.9-1.9-2.9-2.9c-1.2-1.2-3.5-1.3-4.7,0
						C110.7,107.9,110.6,109.9,111.9,111.2L111.9,111.2z"/>
				</g>
			</g>
			<g>
				<g>
					<path d="M132.9,136.7c-2.6-2.6-5.2-5.2-7.9-7.9c-4.2-4.2-8.4-8.4-12.5-12.5c-1-1-1.9-1.9-2.9-2.9c-1.2-1.2-3.5-1.3-4.7,0
						c-1.2,1.3-1.3,3.4,0,4.7c2.6,2.6,5.2,5.2,7.9,7.9c4.2,4.2,8.4,8.4,12.5,12.5c1,1,1.9,1.9,2.9,2.9c1.2,1.2,3.5,1.3,4.7,0
						C134.1,140.1,134.2,138,132.9,136.7L132.9,136.7z"/>
				</g>
			</g>
		</g>
		<g>
			<g>
				<g>
					<path d="M147.9,33.5c-3.9,3.9-7.9,7.9-11.8,11.8c-1.9,1.9-3.8,3.8-5.7,5.7c-0.1,0.1-0.3,0.3-0.4,0.4c-0.3,0.3-0.7,0.7-1.1,1
						c-0.3,0.3-0.6,0.5-0.9,0.8c0.1-0.1,0.5-0.4,0,0c-0.2,0.1-0.4,0.3-0.6,0.4c-0.6,0.4-1.2,0.7-1.8,1.1c-0.3,0.2-0.6,0.3-0.9,0.5
						c-0.2,0.1-0.4,0.2-0.6,0.3c-0.4,0.2-0.4,0.2,0,0c-0.6,0.4-1.5,0.5-2.1,0.7c-0.7,0.2-1.5,0.4-2.2,0.5c-0.2,0-0.3,0-0.5,0.1
						c-0.5,0.1,0-0.1,0.1,0c-0.1-0.1-0.9,0.1-1,0.1c-0.7,0-1.5,0.1-2.2,0c-0.7,0-1.5,0-2.2-0.2c0.1,0,0.7,0.1,0.1,0
						c-0.2,0-0.3,0-0.5-0.1c-0.4-0.1-0.8-0.2-1.3-0.3c-0.7-0.2-1.4-0.4-2-0.6c-0.2-0.1-0.4-0.1-0.6-0.2c-0.1,0-0.6-0.2-0.2-0.1
						c0.4,0.2-0.1-0.1-0.2-0.1c-0.2-0.1-0.5-0.2-0.7-0.3c-0.7-0.3-1.4-0.7-2-1.2c-0.3-0.2-0.6-0.4-0.9-0.6c-0.1-0.1-0.3-0.2-0.4-0.3
						c0.6,0.4-0.1-0.1-0.2-0.2c-0.3-0.2-0.6-0.5-0.8-0.7c0,0-0.4-0.4-0.4-0.4c-0.1,0.1,0.9,1-0.3-0.3c-0.2-0.3-0.5-0.5-0.8-0.8
						c-0.1-0.2-0.3-0.3-0.5-0.5c0-0.1-0.5-0.7-0.3-0.3c0.2,0.3-0.1-0.1-0.2-0.2c-0.1-0.2-0.3-0.4-0.4-0.6c-0.2-0.3-0.4-0.6-0.6-0.9
						c-0.4-0.7-0.8-1.4-1.2-2.1c-0.1-0.2-0.1-0.3-0.2-0.5c0.3,0.6,0.1,0.2,0,0c-0.1-0.4-0.3-0.8-0.4-1.1c-0.2-0.8-0.5-1.5-0.6-2.3
						c-0.1-0.4-0.1-0.7-0.2-1.1c0-0.2-0.1-0.6,0,0.1c0-0.2,0-0.3,0-0.5c-0.1-0.7-0.1-1.5-0.1-2.2c0-0.7,0-1.4,0.1-2.1
						c0-0.2,0-0.3,0-0.5c0-0.5-0.1,0.8,0,0c0.1-0.4,0.1-0.7,0.2-1.1c0.1-0.7,0.3-1.4,0.5-2.1c0.1-0.3,0.2-0.6,0.3-1
						c0-0.2,0.1-0.3,0.2-0.5c0.2-0.7-0.2,0.5,0.1-0.1c0.6-1.4,1.4-2.7,2.3-4c0.1-0.1,0.4-0.5,0,0c0.1-0.1,0.2-0.3,0.3-0.4
						c0.2-0.3,0.5-0.5,0.7-0.8c0.2-0.3,0.5-0.5,0.8-0.8c1.5-1.5,3-3,4.4-4.4c4.4-4.4,8.9-8.9,13.3-13.3c0.1-0.1,0.2-0.2,0.3-0.3
						c1.7-1.7,1-4.9-1.4-5.5c-12.4-3-26-0.7-36.5,6.6c-5.4,3.8-10.1,8.7-13.5,14.4c-3.3,5.5-5.2,11.7-6,18c-0.8,6.7,0,13.8,2.3,20.2
						c0.3-1.1,0.6-2.1,0.8-3.2c-3.5,3.5-6.9,6.9-10.3,10.3c-4.6,4.6-9.1,9.1-13.7,13.7c-6.7,6.7-13.5,13.5-20.2,20.2
						c-5,5-10,10-15,15c-1.5,1.5-3.1,3-4.4,4.9c-5,7-5,17-0.1,24.1c4.7,6.8,12.8,10.3,21,9.2c4.8-0.7,9-3,12.3-6.4
						c4-4,8.1-8.1,12.1-12.1c6.7-6.7,13.3-13.3,20-20c5.4-5.4,10.8-10.8,16.2-16.2c3.2-3.2,6.5-6.5,9.7-9.7c0.9-0.9,1.8-1.8,2.7-2.7
						c-1.1,0.3-2.1,0.6-3.2,0.8c11.8,4,25,3,36-2.8c11.4-5.9,19.9-16.9,22.9-29.4c1.7-7,1.7-14.2,0.1-21.2c-0.4-1.7-2.4-2.8-4-2.3
						c-1.8,0.6-2.7,2.3-2.3,4c0.1,0.7,0.3,1.4,0.4,2.1c0.1,0.3,0.1,0.7,0.2,1c0,0.2,0,0.3,0.1,0.5c0.1,0.4-0.1-0.7,0,0
						c0.1,1.4,0.3,2.9,0.3,4.3c0,1.4,0,2.8-0.1,4.2c0,0.4-0.1,0.7-0.1,1.1c0,0.3-0.2,0.7-0.1,1c0-0.1,0.1-0.8,0-0.1
						c0,0.2,0,0.3-0.1,0.5c-0.1,0.4-0.1,0.8-0.2,1.2c-0.5,2.8-1.3,5.5-2.4,8.2c-0.2,0.6,0,0,0-0.1c0,0.1-0.1,0.3-0.2,0.5
						c-0.1,0.3-0.3,0.7-0.5,1c-0.3,0.7-0.6,1.3-1,1.9c-0.7,1.3-1.5,2.6-2.4,3.8c-0.2,0.3-0.4,0.6-0.6,0.8c-0.1,0.1-0.2,0.3-0.3,0.4
						c-0.1,0.1-0.4,0.5-0.1,0.2c0.3-0.4-0.2,0.3-0.2,0.3c-0.1,0.1-0.2,0.3-0.3,0.4c-0.2,0.3-0.5,0.6-0.8,0.9c-1,1.2-2.1,2.3-3.2,3.3
						c-0.5,0.5-1,0.9-1.6,1.4c-0.3,0.2-0.5,0.4-0.8,0.6c-0.5,0.4,0,0,0.1,0c-0.2,0.2-0.4,0.3-0.6,0.5c-1.2,0.8-2.4,1.6-3.6,2.4
						c-1.2,0.7-2.5,1.4-3.8,1.9c-0.3,0.1-0.6,0.3-0.9,0.4c0.8-0.3-0.3,0.1-0.5,0.2c-0.7,0.2-1.3,0.5-2,0.7c-1.4,0.4-2.7,0.8-4.1,1.1
						c-0.7,0.1-1.3,0.3-2,0.4c-0.3,0-0.6,0.1-1,0.1c-0.2,0-0.6,0.1,0.1,0c-0.2,0-0.4,0-0.6,0.1c-3.1,0.4-6.2,0.4-9.3,0.1
						c-0.2,0-1.5-0.1-0.6,0c-0.4,0-0.8-0.1-1.2-0.2c-0.7-0.1-1.4-0.3-2.2-0.4c-1.6-0.3-3.1-0.8-4.7-1.3c-1.1-0.4-2.4,0-3.2,0.8
						c-3.4,3.4-6.9,6.9-10.3,10.3c-4.4,4.4-8.8,8.8-13.2,13.2c-6.6,6.6-13.2,13.2-19.8,19.8c-5.1,5.1-10.3,10.3-15.4,15.4
						c-0.8,0.8-1.6,1.6-2.5,2.5c-0.3,0.3-0.6,0.6-0.9,0.8c-0.1,0.1-0.3,0.3-0.5,0.4c-0.2,0.1-0.5,0.5,0,0c-0.5,0.6-1.6,1.1-2.3,1.4
						c-0.4,0.2-0.8,0.4-1.1,0.6c-0.6,0.3,0.1,0,0.1-0.1c-0.1,0.1-0.5,0.2-0.6,0.2c-0.8,0.3-1.7,0.5-2.5,0.7c-0.2,0-0.4,0.1-0.6,0.1
						c-0.3,0-0.9,0,0,0c-0.4,0-0.8,0.1-1.1,0.1c-0.8,0-1.7,0-2.5,0c-0.1,0-0.6,0-0.7-0.1c0.1,0,0.3,0,0.4,0.1c-0.1,0-0.3,0-0.4-0.1
						c-0.4-0.1-0.7-0.1-1.1-0.2c-0.8-0.2-1.6-0.5-2.4-0.7c-0.7-0.3,0.7,0.3-0.1,0c-0.2-0.1-0.4-0.2-0.6-0.3c-0.3-0.2-0.7-0.3-1-0.5
						c-0.3-0.2-0.7-0.4-1-0.6c-0.2-0.1-0.4-0.3-0.6-0.4c-0.6-0.4,0.4,0.4-0.1-0.1c-0.7-0.6-1.4-1.2-2-1.9c-0.3-0.3-0.6-0.7-0.9-1
						c0.5,0.6-0.1-0.1-0.1-0.2c-0.1-0.2-0.3-0.4-0.4-0.7c-0.3-0.4-0.5-0.8-0.7-1.3c-0.1-0.2-0.2-0.4-0.3-0.6
						c-0.1-0.1-0.5-0.9-0.1-0.2c-0.5-0.8-0.7-1.9-0.9-2.7c-0.1-0.5-0.2-0.9-0.3-1.4c-0.1-0.5,0.1,0.8,0,0c0-0.3,0-0.5-0.1-0.8
						c0-1,0-1.9,0.1-2.8c0-0.9-0.1,0.7,0-0.1c0-0.2,0-0.3,0.1-0.5c0.1-0.5,0.2-1,0.3-1.5c0.1-0.4,0.2-0.8,0.4-1.2
						c0.1-0.2,0.2-0.5,0.3-0.7c-0.3,0.5,0,0.1,0.1-0.2c0.4-0.9,0.9-1.7,1.4-2.5c0.1-0.1,0.2-0.3,0.3-0.4c0.5-0.7-0.4,0.5,0.1-0.2
						c0.4-0.4,0.7-0.8,1.1-1.2c0.2-0.2,0.4-0.4,0.6-0.6c4.2-4.2,8.3-8.3,12.5-12.5c6.6-6.6,13.2-13.2,19.7-19.7
						c5.3-5.3,10.6-10.6,16-16c3.2-3.2,6.4-6.4,9.5-9.5c0.9-0.9,1.8-1.8,2.7-2.7c0.8-0.8,1.2-2.1,0.8-3.2c-0.5-1.3-0.9-2.7-1.3-4.1
						c-0.3-1.3-0.8-2.8-0.8-4.2c0,0.1,0.1,0.8,0,0.1c0-0.2,0-0.3-0.1-0.5c0-0.3-0.1-0.6-0.1-1c-0.1-0.7-0.1-1.5-0.1-2.2
						c0-1.4,0-2.8,0-4.1c0-0.7,0.1-1.4,0.2-2.1c0-0.1,0.1-1.2,0.1-0.7c-0.1,0.6,0-0.2,0-0.3c0-0.2,0.1-0.4,0.1-0.6
						c0.2-1.4,0.5-2.8,0.9-4.2c0.4-1.3,0.8-2.7,1.3-4c0.1-0.3,0.2-0.6,0.4-0.9c-0.4,0.7,0.1-0.1,0.2-0.3c0.3-0.7,0.6-1.3,1-2
						c0.7-1.3,1.4-2.6,2.2-3.8c0.4-0.6,0.8-1.2,1.2-1.8c0.1-0.2,0.7-1,0.3-0.3c0.2-0.3,0.5-0.7,0.8-1c1.9-2.3,4.1-4.4,6.4-6.2
						c0.5-0.4,0,0,0,0c0.2-0.1,0.3-0.3,0.5-0.4c0.3-0.2,0.6-0.4,0.8-0.6c0.6-0.4,1.3-0.9,1.9-1.3c1.3-0.8,2.6-1.5,3.9-2.1
						c0.3-0.1,0.6-0.3,0.9-0.4c0.1-0.1,0.3-0.1,0.5-0.2c0.2-0.1,0.4-0.3-0.1,0c0.6-0.4,1.5-0.6,2.1-0.8c1.3-0.5,2.7-0.9,4.1-1.2
						c0.8-0.2,1.6-0.4,2.5-0.5c0.4-0.1,0.8-0.1,1.2-0.2c0.2,0,0.6-0.1-0.1,0c0.2,0,0.4,0,0.6-0.1c1.6-0.2,3.2-0.3,4.9-0.3
						c1.6,0,3.2,0.1,4.7,0.3c0.2,0,0.3,0,0.5,0.1c-0.9-0.2,0,0,0.1,0c0.4,0.1,0.8,0.1,1.2,0.2c0.8,0.1,1.6,0.3,2.5,0.5
						c-0.5-1.8-1-3.7-1.4-5.5c-4.1,4.1-8.2,8.2-12.3,12.3c-1.9,1.9-3.7,3.7-5.6,5.6c-3.8,3.8-6.5,8.7-7.3,14.1
						c-1.1,7.2,0.8,14.4,5.4,20.1c0.2,0.3,0.5,0.6,0.7,0.9c0.1,0.1,0.2,0.3,0.4,0.4c0.1,0.1,0.1,0.1,0.2,0.2c0.2,0.3,0.3,0.3,0,0
						c0-0.1-0.1-0.1-0.2-0.2c0.2,0.3,0.4,0.5,0.6,0.8c0.2,0.2,0.3,0.3,0.5,0.5c0.3,0.3,0.7,0.6,1.1,0.9c1.4,1.2,2.9,2.2,4.6,3.1
						c3.2,1.6,6.6,2.6,10.1,2.8c6.8,0.5,13.6-2,18.7-6.6c1.6-1.4,3-3,4.5-4.5c4.6-4.6,9.2-9.2,13.9-13.9c0.1-0.1,0.2-0.2,0.3-0.3
						c1.2-1.2,1.3-3.5,0-4.7C151.3,32.3,149.2,32.2,147.9,33.5z"/>
					<path d="M21.4,134.8C20.9,135.3,21.9,134.6,21.4,134.8c-0.2,0.1-0.3,0.2-0.4,0.3c0.4-0.2,0.5-0.2,0.3-0.1
						c-0.2,0.1-0.4,0.1-0.6,0.2c-0.2,0-0.1,0,0.3,0c-0.1,0-0.3,0-0.4,0c-0.6,0,0.6,0.2,0,0c-0.1,0-0.6-0.1-0.6-0.2
						c0.4,0.2,0.5,0.2,0.3,0.1c-0.1,0-0.2-0.1-0.3-0.2c-0.2-0.2-0.2-0.2,0,0c0.2,0.2,0.2,0.1,0,0c-0.2-0.3-0.2-0.2,0.1,0.1
						c0-0.1-0.1-0.1-0.1-0.2c-0.1-0.1-0.2-0.3-0.2-0.4c0,0.1,0.1,0.2,0.1,0.4c-0.1-0.1-0.1-0.5-0.2-0.6c-0.2-0.6,0,0.7,0-0.1
						c0-0.8-0.1,0.3,0,0c0-0.1,0.1-0.7,0.2-0.7c0,0.1-0.1,0.2-0.1,0.4c0.1-0.1,0.1-0.3,0.2-0.4c0-0.1,0.1-0.1,0.1-0.2
						c-0.3,0.4-0.3,0.4-0.1,0.1c0.2-0.2,0.2-0.2,0,0c-0.2,0.1-0.2,0.1,0,0c0.1-0.1,0.2-0.1,0.3-0.2c0.2-0.1,0.1-0.1-0.3,0.1
						c0.1-0.1,0.5-0.1,0.6-0.2c0.6-0.2-0.6,0,0,0c0.1,0,0.3,0,0.4,0c-0.5-0.1-0.6-0.1-0.3,0c0.2,0.1,0.4,0.1,0.6,0.2
						c0.2,0.1,0.1,0-0.3-0.1c0.1,0,0.2,0.1,0.3,0.2c0.7,0.4-0.3-0.3,0.1,0.1c0.5,0.5-0.3-0.5,0.1,0c0,0.1,0.1,0.1,0.1,0.2
						c0.2,0.3,0.1,0.3,0-0.2c0,0.2,0.1,0.5,0.2,0.6c0.2,0.6,0-0.7,0,0c-0.1,0.9,0,0,0,0c0,0-0.1,0.6-0.2,0.6
						c-0.1,0.6,0.3-0.6-0.1,0.1C21.1,135.4,21.9,134.3,21.4,134.8c-1.2,1.3-1.3,3.4,0,4.7c1.3,1.2,3.4,1.3,4.7,0
						c2.3-2.5,2.8-5.9,1.4-8.9c-1.3-2.7-4.4-4.4-7.3-4.2c-3.3,0.2-6.2,2.5-7,5.7c-0.8,3.2,0.5,6.5,3.2,8.4c3,2.1,7.1,1.5,9.7-1
						c1.3-1.2,1.3-3.5,0-4.7C24.7,133.6,22.7,133.5,21.4,134.8z"/>
				</g>
			</g>
			<g>
				<g>
					<path d="M39.2,120c1.4-1.4,2.8-2.8,4.2-4.2c3.4-3.4,6.8-6.8,10.2-10.2c4.1-4.1,8.2-8.2,12.3-12.3c3.5-3.5,7.1-7.1,10.6-10.6
						c1.7-1.7,3.5-3.4,5.2-5.2c0,0,0,0,0.1-0.1c1.2-1.2,1.3-3.5,0-4.7c-1.3-1.2-3.4-1.3-4.7,0c-1.4,1.4-2.8,2.8-4.2,4.2
						c-3.4,3.4-6.8,6.8-10.2,10.2c-4.1,4.1-8.2,8.2-12.3,12.3c-3.5,3.5-7.1,7.1-10.6,10.6c-1.7,1.7-3.5,3.4-5.2,5.2c0,0,0,0-0.1,0.1
						c-1.2,1.2-1.3,3.5,0,4.7C35.9,121.2,37.9,121.3,39.2,120L39.2,120z"/>
				</g>
			</g>
		</g>
	</g>
</g>
<g class="st0">
	<title>Artboard 11</title>
	<g class="st1">
		<path d="M187.7,81.2H177c-2.2-9.9-5.9-19.1-11.4-27.6l7.5-7.5c1.8-1.8,1.8-4.4,0-6.1l0,0l-18.6-18.6c-1.8-1.8-4.4-1.8-6.1,0l0,0
			l-7.5,7.5c-8.3-5.5-17.8-9.4-27.6-11.4V6.6c0-2.4-2-4.4-4.4-4.4l0,0H82.5c-2.4,0-4.4,2-4.4,4.4v0.2v10.7
			C68.2,19.8,59,23.5,50.4,29L43,21.3c-1.8-1.8-4.4-1.8-6.1,0l0,0L18.2,40c-1.8,1.8-1.8,4.4,0,6.1l0,0l7.5,7.5
			c-5.5,8.3-9.4,17.8-11.4,27.6H3.5c-2.4,0-4.4,2-4.4,4.4l0,0v26.3c0,2.4,2,4.4,4.4,4.4h0.2h10.7c2.2,9.8,5.9,19,11.4,27.6l-7.7,7.7
			c-1.8,1.7-1.8,4.4,0,6.1l0,0l18.6,18.6c1.8,1.7,4.4,1.7,6.1,0l0,0l7.5-7.4c8.3,5.5,17.8,9.4,27.6,11.4v10.7c0,2.4,2,4.4,4.4,4.4
			l0,0h26.3c2.4,0,4.4-2,4.4-4.4v0v-10.7c9.8-2.2,19-5.9,27.6-11.4l7.4,7.5c1.7,1.8,4.4,1.8,6.1,0l0,0l18.6-18.6
			c1.7-1.8,1.7-4.4,0-6.1l0,0l-7.4-7.5c5.5-8.3,9.4-17.8,11.4-27.6h10.9c2.4,0,4.4-2,4.4-4.4l0,0V85.6
			C192.1,83.2,190.1,81.2,187.7,81.2L187.7,81.2z M183.3,107.5h-9.6c-2.2,0-3.9,1.5-4.4,3.7c-1.8,11.2-6.1,21.5-12.7,30.7
			c-1.3,1.8-1.1,4.2,0.4,5.7l7,7l-12.5,12.5l-7-7c-1.5-1.5-3.9-1.8-5.7-0.4c-9.2,6.6-19.7,11-30.7,12.7c-2.2,0.4-3.7,2.2-3.7,4.4
			v9.6H86.8v-9.6c0-2.2-1.5-3.9-3.7-4.4c-11.2-1.8-21.6-6.1-30.8-12.7c-1.8-1.3-4.2-1.1-5.7,0.4l-7,7L27,154.7l7-7
			c1.5-1.5,1.8-3.9,0.4-5.7c-6.6-9.2-11-19.7-12.8-30.7c-0.4-2.2-2.2-3.7-4.4-3.7H7.9V90h9.6c2.2,0,3.9-1.5,4.4-3.7
			c1.8-11.2,6.1-21.6,12.7-30.8c1.3-1.8,1.1-4.2-0.4-5.7l-7-7l12.5-12.5l7,7c1.5,1.5,3.9,1.8,5.7,0.4c9.2-6.6,19.7-11,30.7-12.8
			c2.2-0.4,3.7-2.2,3.7-4.4V11h17.5v8.8c0,2.2,1.5,4,3.7,4.4c11.2,1.8,21.6,6.2,30.8,12.9c1.8,1.3,4.2,1.1,5.7-0.4l7-7.1l12.5,12.7
			l-7,7.1c-1.5,1.6-1.8,4-0.4,5.8c6.6,9.3,11,20,12.8,31.1c0.4,2.2,2.2,3.8,4.4,3.8h9.5V107.5z"/>
		<path d="M95,37.3c-34,0-61.4,27.4-61.4,61.4S61,160.1,95,160.1s61.4-27.4,61.4-61.4S129,37.3,95,37.3z M86.8,150.5v-24.1
			c0-1.8-0.9-3.3-2.5-3.9c-13.5-6.1-19.1-21.7-12.8-34.9c1.6-3.3,3.8-6.1,6.5-8.3v17.3c0,4.8,3.9,8.8,8.8,8.8h17.5
			c4.8,0,8.8-3.9,8.8-8.8V79.2c11,9.7,12.1,26.1,2.2,36.8c-2.5,2.6-5.4,4.8-8.5,6.4c-1.6,0.7-2.5,2.2-2.5,3.9v24.1
			C98.4,151.6,92.4,151.6,86.8,150.5z M113.2,148.3V129c16.7-9.7,22.6-30.9,12.9-47.6c-3.5-6.1-9-11.2-15.4-14.3
			c-2.2-1.1-4.8-0.2-5.9,2c-0.2,0.7-0.4,1.3-0.4,2v25.4H86.8V71.1c0-2.4-2-4.4-4.4-4.4c-0.7,0-1.3,0.2-2,0.4
			c-17.5,8.1-25,29-16.7,46.5c3.1,6.6,8.1,11.8,14.3,15.4v19.3c-28.4-10-42.7-41.8-30.9-70C57.2,54.2,84.3,41.1,109.5,48
			c29.8,8.2,45.7,39.6,35.7,68.3C139.9,131.2,128.1,143,113.2,148.3z"/>
	</g>
</g>
<g class="st0">
	<g class="st1">
		<path d="M204,140.7c-0.5-12-10.1-21.6-22.1-21.6c-11.2,0-20.5,8.7-21.8,20.7h-51.6V87.9h8.7c1.6-1.3,2.7-2.4,2.2-4V67.5
			c0.5-1.6-2.2-4.2-2.2-4.2h-6V55c0-4.3-3.4-8.1-7.9-8.1H86.4c-4.2,0-7.9,3.5-7.9,8.1v8.3h-6c0,0-2.7,2.5-2.2,4.2v16.4
			c-0.5,1.6,0.5,2.7,2.2,4h8.7v51.9H29.8c-1.4-12.2-10.6-20.7-21.8-20.7c-12,0-21.6,9.6-22.1,21.6c0,0.3-0.3,0.5-0.3,0.8
			c0,1.6,1.1,2.7,2.7,3.8h96.4h20.2h96.6c1.6-1,2.7-2.1,2.7-3.8C204.3,141.2,204.3,140.9,204,140.7z M182.2,125.6
			c8.2,0,15,6.3,16.4,14.2h-32.8C166.9,131.9,173.7,125.6,182.2,125.6z M83.6,55.2c0-1.4,1.1-2.7,2.7-2.7h16.8
			c1.3,0,2.6,1.1,2.6,2.7v8.3H83.9v-8.2H83.6z M75.4,71.5h5.4h27.7h5.4v10.9h-9.2H84.9h-9.2V71.5H75.4z M8,125.6
			c8.2,0,15,6.3,16.4,14.2H-8.4C-7,131.9-0.2,125.6,8,125.6z M89.4,139.8V87.9H103v51.9H89.4z"/>
		<path d="M53.6,41c0.5,0.5,1.4,0.8,1.9,0.8c0.8,0,1.4-0.3,1.9-0.8c1.1-1.1,1.1-2.7,0-3.8l-7.6-7.9c-1.1-1.1-2.7-1.1-3.8,0
			c-1.1,1.1-1.1,2.7,0,3.8L53.6,41z"/>
		<path d="M32,55.7l10.1,2.2c0.3,0,0.3,0,0.5,0c1.4,0,2.5-0.8,2.7-2.2c0.3-1.4-0.5-3-2.2-3.3l-10.1-2.2c-1.4-0.3-3,0.5-3.3,2.2
			C29.6,54.1,30.7,55.4,32,55.7z"/>
		<path d="M32.6,85.2c0.3,0,0.3,0,0.5,0L43.2,83c1.4-0.3,2.5-1.6,2.2-3.3c-0.3-1.4-1.6-2.5-3.3-2.2L32,79.7
			c-1.4,0.3-2.5,1.6-2.2,3.3C30.4,84.4,31.5,85.2,32.6,85.2z"/>
		<path d="M52.2,95.3l-6.3,6.6c-1.1,1.1-1.1,2.7,0,3.8c0.5,0.5,1.1,0.8,1.9,0.8s1.4-0.3,1.9-0.8l6.3-6.6c1.1-1.1,1.1-2.7,0-3.8
			C55,94.3,53.3,94.3,52.2,95.3z"/>
		<path d="M137.4,41.8c0.8,0,1.4-0.3,1.9-0.8l7.6-7.9c1.1-1.1,1.1-2.7,0-3.8c-1.1-1.1-2.7-1.1-3.8,0l-7.6,7.9
			c-1.1,1.1-1.1,2.7,0,3.8C136,41.6,136.6,41.8,137.4,41.8z"/>
		<path d="M147.8,55.7c0.3,1.4,1.4,2.2,2.7,2.2c0.3,0,0.3,0,0.5,0l10.1-2.2c1.4-0.3,2.5-1.6,2.2-3.3c-0.3-1.4-1.6-2.5-3.3-2.2
			l-10.4,2.2C148.3,52.7,147.2,54.1,147.8,55.7z"/>
		<path d="M149.7,83l10.1,2.2c0.3,0,0.3,0,0.5,0c1.4,0,2.5-0.8,2.7-2.2c0.3-1.4-0.5-3-2.2-3.3l-10.1-2.2c-1.4-0.3-3,0.5-3.3,2.2
			C147.2,81.1,148.3,82.5,149.7,83z"/>
		<path d="M140.7,95.3c-1.1-1.1-2.7-1.1-3.8,0s-1.1,2.7,0,3.8l6.3,6.6c0.5,0.5,1.4,0.8,1.9,0.8c0.8,0,1.4-0.3,1.9-0.8
			c1.1-1.1,1.1-2.7,0-3.8L140.7,95.3z"/>
	</g>
</g>
<g class="st0">
	<title>a</title>
	<g class="st1">
		<circle cx="65.1" cy="129.9" r="7.7"/>
		<path d="M195.1,110V99.2c0-1.1-0.4-1.9-1.1-2.7l-19.1-19.1c-0.8-0.8-1.5-1.1-2.7-1.1h-57.4V38c0-4.2-3.4-7.7-7.7-7.7H68.8
			c-4.2,0-7.7,3.4-7.7,7.7v26.8H-2.4c-2.3,0-4.2,0.8-5.7,2.7c-3.4,3.4-7.3,12.2-7.3,31.8V126c0,4.2,3.4,7.7,7.7,7.7h4.2
			c1.9,12.6,13.8,21,26.4,18.7c9.6-1.5,17.2-9.2,18.7-18.7h0.8c1.9,12.6,13.8,21,26.4,18.7c9.6-1.5,17.2-9.2,18.7-18.7h2.7
			c1.9,0,3.8-0.8,5.4-2.3l16.8-16.8c1.5-1.5,2.3-3.4,2.3-5.4v-9.9h48.2l7.7,7.7H130c-4.2,0-7.7,3.4-7.7,7.7V139
			c0,3.1,1.5,5.7,4.2,6.9l13.4,6.5l0,0c0.4,0.4,1.1,0.4,1.5,0.4H153c2.3,0,3.8-1.5,3.8-3.8s-1.5-3.8-3.8-3.8h-7.7v-30.6h21
			c-9.1,10.4-7.5,26.6,4.5,34.5c8.7,5.8,20.7,4.9,28.3-2.3c10.1-9.5,9.8-25.2-0.3-34.2C197.7,111.9,196.6,110.7,195.1,110z
			 M84.1,91.6V53.3h23v38.3H84.1z M-7.7,99.2c0-19.1,4.2-25.3,5.4-26.8h63.5v34.8c-9.6,1.5-17.2,9.2-18.7,18.7H42c0,0,0,0,0-0.4
			C39.7,113,27.6,105,14.8,107.3c-9.7,1.5-17.1,9.2-18.7,18.4c0,0,0,0,0,0.4h-3.8V99.2z M19.1,145.2c-8.4,0-15.3-6.9-15.3-15.3
			c0-8.4,6.9-15.3,15.3-15.3s15.3,6.9,15.3,15.3C34.5,138.3,27.6,145.2,19.1,145.2z M65.1,145.2c-8.4,0-15.3-6.9-15.3-15.3
			c0-8.4,6.9-15.3,15.3-15.3s15.3,6.9,15.3,15.3C80.4,138.3,73.5,145.2,65.1,145.2z M107.1,108.9L89.9,126h-2.7
			c-1.6-9.4-9-16.8-18.3-19.1c-0.4,0,0.4,0,0,0V38h38.3v7.7h-23c-4.2,0-7.7,3.4-7.7,7.7v38.3c0,4.2,3.4,7.7,7.7,7.7h23V108.9z
			 M164.4,91.6h-49.7v-7.7h55.9l16.8,16.8v6.1H187c-1.1-0.4-2.3-0.4-3.4-0.4s-2.3,0-3.4,0.4h-0.4v-0.4c0-1.1-0.4-1.9-1.1-2.6
			l-11.5-11.2C166.4,92,165.6,91.6,164.4,91.6z M130,114.6h7.7v28.3L130,139V114.6z M183.7,145.2c-8.4,0-15.3-6.9-15.3-15.3
			c0-6.1,3.4-11.5,9.2-13.8l0,0c3.1-1.1,6.1-1.5,9.2-0.8c8.4,1.9,13.4,9.9,11.9,18.4C197.1,140.2,190.9,145.2,183.7,145.2z"/>
		<circle cx="183.7" cy="129.9" r="7.7"/>
		<circle cx="19.1" cy="129.9" r="7.7"/>
		<path d="M3.8,99.2h30.6c2.3,0,3.8-1.5,3.8-3.8s-1.5-3.8-3.8-3.8H3.8c-2.3,0-3.8,1.5-3.8,3.8S1.5,99.2,3.8,99.2z"/>
		<path d="M3.8,87.8h30.6c2.3,0,3.8-1.5,3.8-3.8c0-2.3-1.5-3.8-3.8-3.8H3.8c-2.3,0-3.8,1.5-3.8,3.8C0,86.2,1.5,87.8,3.8,87.8z"/>
	</g>
</g>
<g class="st0">
	<title>015 - Tractor</title>
	<desc>Created with Sketch.</desc>
	<g class="st1">
		<g>
			<path d="M24.8,131.3c-10.3,0-18.4,8.1-18.4,18.4s8.1,18.4,18.4,18.4s18.4-8.1,18.4-18.4S35.2,131.3,24.8,131.3z M24.8,160.8
				c-6.3,0-11.1-4.8-11.1-11.1s4.8-11.1,11.1-11.1s11.1,4.8,11.1,11.1S31.1,160.8,24.8,160.8z"/>
			<path d="M135.4,153.4c-4.4,0-8.5,2.6-10.3,7c-1.8,4.1-0.7,8.8,2.6,12.2c3.3,3.3,8.1,4.1,12.2,2.6c4.1-1.8,7-5.9,7-10.3
				C146.5,158.6,141.7,153.4,135.4,153.4z M135.4,168.2c-2.2,0-3.7-1.8-3.7-3.7c0-2.2,1.8-3.7,3.7-3.7c2.2,0,3.7,1.8,3.7,3.7
				C139.1,166.7,137.6,168.2,135.4,168.2z"/>
			<path d="M41.8,187.7c10.7-4.8,18.8-14.4,22.1-25.8H110c-1.5,10.3,3.3,20.6,12.2,25.8 M148.9,186.6c7.4-4.4,12.2-12.5,12.5-21.4
				s-3.7-17-11.1-22.1v-29.5c0-1.8-1.5-3.3-3.3-3.7l-22.1-2.6l10-52.3h37.6h16.6c1.1,0,1.8-0.4,2.6-1.1L204.5,41
				c1.4-1.4,1.4-3.7,0-5.2L173.2,4.5c-1.4-1.4-3.7-1.4-5.2,0l-12.9,12.9c-0.7,0.7-1.1,1.5-1.1,2.6v16.6c0,1.1,0.4,1.8,1.1,2.6
				l8.5,8.5h-30.2l-7.4-7.4h16.8c0,0,3.7-2.6,3.7-4.8c0-2.2-1.5-3.7-3.7-2.6H117c-0.4-1.1-0.7-1.1-1.5-0.7c0,0-0.4,0-0.4,0.4
				c-0.4,0-0.7,0.4-1.7,0.4l0,0v0.4c0.5,0.4,0.5,0.4,0.5,0.7l3.1,0.4v0.4L100,103.7l-12.3-1.5V58.7c0-2-1.7-3.7-3.7-3.7H17.7
				c-2.2,0-3.7,1.5-3.7,3.7s1.5,3.7,3.7,3.7h3.7v33.2h-3.7c-2.2,0-3.7,1.5-3.7,3.7c0,2.2,1.5,3.7,3.7,3.7h3.7v6.6
				c-18.4,1.5-33.2,15.5-36.1,33.5s6.3,35.8,22.9,43.5 M161.4,21.5l9.2-9.2l26.2,26.2l-9.2,9.2H174l-12.5-12.5V21.5z M80.3,106.6
				v14.7h-5.5c-4.4-8.5-11.8-15.9-20.3-20.3V62.4h25.8V106.6z M28.7,62.4h18.4v35.4c-4.8-1.5-9.6-2.2-14.7-2.2h-3.7V62.4z M32.4,103
				c5.9,0,11.4,1.1,17,3.7c8.8,4.1,15.9,11.1,19.9,19.9c2.6,5.2,3.7,11.1,3.7,17v11.1l-7.4,0c-0.1-0.1-0.1-0.1-0.1-0.2
				c1.9-22.6-14.5-41.8-36.7-43.7V103H32.4z M24.8,182.9c-14,0-26.5-8.8-31.3-22.1c-4.8-13.3-0.7-28,10.3-36.9
				c10.7-8.8,26.2-10,38-2.6c11.8,7.4,18.1,21.4,15.5,35C54.3,171.9,40.7,182.9,24.8,182.9z M153.9,164.5c0,10.3-8.1,18.4-18.4,18.4
				s-18.4-8.1-18.4-18.4s8.1-18.4,18.4-18.4S153.9,154.2,153.9,164.5z M143,140.9c-12.2-3.7-25.1,2.2-30.6,13.6H80.3v-11.1
				c0-5.2-0.7-10-2.2-14.7H84c0,0,0,0,0.4,0s0,0,0,0l47.2,3.7h0.4c2.2,0,3.7-1.5,3.7-3.7c0-2.2-1.5-3.7-3.7-3.7l-44.2-3.3v-10.7
				l55.3,6.6V140.9z M107,104.4l12.2-61.6l8.5,8.5l-10.3,54.2L107,104.4z"/>
		</g>
	</g>
</g>
<g class="st0">
	<path class="st1" d="M177.9,10.5L-15.2,148.1c-2,1.4-2.4,3.7-1,5.7l0,0l23.7,33.3c1.4,2,3.7,2.4,5.7,1l0,0L206.4,50.4
		c2-1.4,2.4-3.7,1-5.7l0,0l-23.7-33.3C182.2,9.4,179.9,9,177.9,10.5L177.9,10.5z M185,55.6l-11.7,8.3c1.5-12.6-6.5-24-19-26.6
		L166,29L185,55.6z M27.9,148.5c-5.2-7.3-3.5-17.6,3.8-22.8s17.6-3.5,22.8,3.8c5.2,7.3,3.5,17.6-3.8,22.8S33.1,155.9,27.9,148.5z
		 M47.8,113.2l21.6-15.4l7.1,10c1.4,2,3.7,2.4,5.7,1l0,0l26.6-19c2-1.4,2.4-3.7,1-5.7l0,0l-7.1-10l21.6-15.4
		c-1.5,12.6,6.5,24,19,26.6l-76.6,54.6C68,127.4,60,116.1,47.8,113.2z M134.4,72.6c-5.2-7.3-3.5-17.6,3.8-22.8
		c7.3-5.2,17.6-3.5,22.8,3.8c5.2,7.3,3.5,17.6-3.8,22.8C149.9,81.7,139.6,79.9,134.4,72.6z M96.1,78.8l4.7,6.7l-20,14.2L76.1,93
		L96.1,78.8z M-7.1,152.3l6.7-4.7l19,26.6l-6.7,4.7L-7.1,152.3z M6.2,142.9l11.7-8.3c-1.5,12.6,6.5,24,19,26.6l-11.7,8.3L6.2,142.9z
		 M198.3,46.1l-6.7,4.7l-19-26.6l6.7-4.7L198.3,46.1z"/>
	<path class="st1" d="M33.1,148.8l20-14.2c2-1.4,2.4-3.7,1-5.7c-1.4-2-3.7-2.4-5.7-1l-20,14.2c-2,1.4-2.4,3.7-1,5.7
		C28.8,149.9,31.1,150.2,33.1,148.8z"/>
	<path class="st1" d="M139.6,72.9l20-14.2c2-1.4,2.4-3.7,1-5.7c-1.4-2-3.7-2.4-5.7-1l-20,14.2c-2,1.4-2.4,3.7-1,5.7
		S137.6,74.3,139.6,72.9z"/>
</g>
<g class="st0">
	<path class="st1" d="M177.8-9.1l-29.2,34v31.6h-23.9V24.8l-29.2-34l-29.2,34v31.6H42.6V24.8l-29.2-34l-29.2,34v182.7h58.4v-37.1
		h23.9v37.1h58.4v-37.1h23.9v37.1H207V24.8L177.8-9.1z M34.6,202.3h-45.1v-31.8h45.1v31.7V202.3z M34.6,165.1h-45.1V64.4h45.1v99.9
		V165.1z M34.6,56.4h-45.1V27L12.1-0.1L34.6,27v29.9V56.4z M66.4,165.1H42.6V64.4h23.9V165.1z M119.2,202.3H71.7v-31.8h47.7v31.8
		H119.2z M119.2,165.1H71.7V64.4h47.7v100.8H119.2z M119.2,56.4H71.7V27L95.6-0.1L119.5,27v29.4H119.2z M148.7,165.1h-23.9V64.4
		h23.9V165.1z M199.1,202.3H154v-31.8h45.1v31.7V202.3z M199.1,165.1H154V64.4h45.1v99.9V165.1z M201.4,56.4H154V27l23.9-27.1
		L201.7,27v29.4H201.4z"/>
</g>
</svg>
