<?xml version="1.0" encoding="utf-8"?>
<!-- Generator: Adobe Illustrator 23.0.4, SVG Export Plug-In . SVG Version: 6.00 Build 0)  -->
<svg version="1.1" id="Layer_1" xmlns="http://www.w3.org/2000/svg" xmlns:xlink="http://www.w3.org/1999/xlink" x="0px" y="0px"
	 viewBox="0 0 178.9 149.2" style="enable-background:new 0 0 178.9 149.2;" xml:space="preserve">
<style type="text/css">
	.st0{display:none;}
	.st1{display:inline;}
</style>
<g class="st0">
	<g class="st1">
		<path d="M4.7,145.8l204.3,0c2.4,0,4.6-1.4,5.4-3.6c1.2-3.7-1.6-7.2-5.1-7.2h-11.9c3.5-12.1,8.6-26.4,16.2-37c0,0,0-0.3,0.3-0.3
			v-0.9c0,0-0.5-1.9-0.5-3c0-3-2.4-5.4-5.4-5.4c-0.8,0-1.6,0.3-2.2,0.5c-1.3,0.5-15.9,7-30,20c-2.2-7.8-4.3-18.1-5.4-30
			c-0.3-2.2-1.9-4.3-4-4.9c-2.2-0.5-4.6,0.3-5.9,2.2c-0.3,0.5-6.2,9.4-12.4,22.1c-5.1-22.4-1.9-48-1.6-48.3c0.3-2.7-1.1-5.1-3.5-5.9
			c-2.4-0.8-5.1,0.3-6.5,2.4l-40.5,71c-4.6-39.4,6.7-85.3,7-85.8c0.5-2.4-0.5-4.9-2.7-6.2c-2.2-1.1-4.9-0.5-6.5,1.3
			c-15.9,18.9-25.4,42.4-31,63.1C57,75,52.4,66.1,52.2,65.5c-1.3-2.4-4-3.5-6.5-2.7c-2.4,0.8-4,3.5-3.5,6.2
			c1.1,5.4,1.3,20.5,1.1,42.4C33.6,96,24.9,85.2,24.4,84.7c-1.6-2.2-4.6-2.7-7-1.3s-3.2,4.3-2.2,6.7c7.8,17.8,8.9,32.9,8.1,44.9H4.9
			c-3-1.5-5.4,1-5.4,3.9S4.7,145.8,4.7,145.8z M193.8,109.1c-3.8,8.9-6.7,17.8-8.9,25.9h-16.7c2.4-4,5.4-7.8,8.9-11.3l0.3-0.3
			C182.8,117.4,188.7,112.9,193.8,109.1z M161.7,96.4c1.6,8.6,3.5,16.2,5.4,22.1c-4.6,5.1-8.4,10.5-11.3,16.5h-8.6
			c1.1-5.7,2.7-11.6,5.4-18.1C155.3,109.1,158.8,102.1,161.7,96.4z M141.5,115c-2.7,7-4.3,13.8-5.4,20h-37l35.1-61.8
			C134.5,85.9,136.1,101.8,141.5,115z M87.5,133.9L87,135H75.4c-1.6-7.8-3.8-15.9-6.2-23.7c3-15.7,8.4-35.6,18.1-54.2
			C84,78,81.6,108.3,87.5,133.9z M58.4,112.9L58.4,112.9c2.2,7.6,4,14.8,5.7,22.1h-8.4c-0.8-1.6-1.6-3-2.4-4.3
			c0.3-10,0.5-20.8,0.5-31C55.4,103.7,56.8,108,58.4,112.9z M33.6,118c3.3,5.3,6.7,10.8,10,17c0,0,0,0,0,0l-9.4,0
			C34.4,130.1,34.4,124.5,33.6,118z"/>
	</g>
</g>
<g class="st0">
	<path class="st1" d="M54.3,167.7c1,1,1.5,2.2,1.5,3.4s-0.5,2.4-1.5,3.4s-2.2,1.5-3.4,1.5c-0.7,0-1.2-0.2-1.9-0.5
		c-0.5-0.2-1.2-0.5-1.5-1c-1-1-1.5-2.2-1.5-3.4s0.5-2.4,1.5-3.4c1.2-1.2,2.9-1.7,4.4-1.5c0.2,0,0.5,0.2,1,0.2
		c0.2,0.2,0.5,0.2,0.7,0.5C53.8,167.3,54,167.5,54.3,167.7z M202,178.9c-0.2-0.2-0.2-0.5-0.5-0.7c-0.2-0.2-0.5-0.5-0.5-0.7
		c-1.2-1.2-3-1.7-4.5-1.5c-0.2,0-0.7,0.2-1,0.2c-0.2,0.2-0.5,0.2-0.7,0.5c-0.2,0.2-0.5,0.5-0.7,0.5c-0.2,0.2-0.5,0.5-0.5,0.7
		c-0.2,0.2-0.2,0.5-0.5,0.7c-0.2,0.2-0.2,0.5-0.2,1c0,0.2,0,0.7,0,1c0,1.2,0.5,2.5,1.5,3.5c0.7,1.2,2,1.7,3.2,1.7
		c0.7,0,1.2-0.2,2-0.5c0.5-0.2,1.2-0.5,1.5-1c1-1,1.5-2.2,1.5-3.5c0-0.2,0-0.7,0-1C202.2,179.6,202.2,179.1,202,178.9z M221.3,187
		c-2.2,9.4-10,16.9-19.6,18.4c-9.7,1.6-18.4-2.6-23.5-9.4H75.5c-6.7,6.7-16.3,10.4-26.6,9.6c-16.4-1.3-29.7-14.5-31.2-30.9
		c-1.6-18.1,11-33.8,28.1-36.6L24,20c-0.5-2.2-2.4-3.9-4.9-3.9l-10.9,0c-2.1,0-4.2-1.2-4.8-3.2C2.2,9.5,4.7,6.4,7.9,6.4h11.4
		c7.1,0,12.9,4.9,14.3,11.7l22.1,119.9c1.5,0.2,2.7,0.5,4.1,0.7l50.1,6.8v-15.1h-7.3c-2.7,0-4.9-2.2-4.9-4.9v-4.9
		c0-13.4,10.9-24.3,24.3-24.3h14.6c13.4,0,24.3,10.9,24.3,24.3v4.9c0,2.7-2.2,4.9-4.9,4.9H149v20.2l49.1,6.6
		C213.1,157.4,224.9,171.6,221.3,187z M150.6,120.7c0-8-6.6-14.6-14.6-14.6h-14.6c-8,0-14.6,6.6-14.6,14.6H150.6z M119.8,130.4v16.3
		l19.5,2.7v-19H119.8z M75.2,171.2c0-11.2-7.5-20.4-17.8-23.3l-6.8-1c-13.4,0.2-24.1,10.9-24.1,24.3s10.9,24.3,24.3,24.3
		S75.2,184.5,75.2,171.2z M179.3,164.7L77.9,151.1c4.4,5.8,7.1,12.9,7.1,20.7c0,5.4-1.2,10.2-3.4,14.6h91.4
		c-0.2-1.7-0.5-3.2-0.5-4.9C172.5,174.9,175.1,169.1,179.3,164.7z M211.4,180.9c0-8-6.6-14.6-14.6-14.6s-14.6,6.6-14.6,14.6
		c0,8,6.6,14.6,14.6,14.6S211.4,188.9,211.4,180.9z"/>
</g>
<g class="st0">
	<path class="st1" d="M27.6,150.9c4.2,0.4,7.7-1.1,10.4-4.1c4.2,5.1,11.8,5.7,16.9,1.2c0.6-0.3,0.9-0.9,1.2-1.2
		c4.2,5.1,11.8,5.7,16.9,1.2c0.6-0.3,0.9-0.9,1.2-1.2c4.2,5.1,11.8,5.7,16.9,1.2c0.6-0.3,0.9-0.9,1.2-1.2c4.2,5.1,11.8,5.7,16.9,1.2
		c0.6-0.3,0.9-0.9,1.2-1.2c4.2,5.1,11.8,5.7,16.9,1.2c2.4-2.1,3.9-4.8,4.2-8.1l31,31c1.1,1.1,2.3,1.2,5.5,0.2
		c10.6-3.4,17.7-13.4,17.7-24.6l0-46.7h3c1.7,0,3-1.3,3-3V84.7v-0.3v-0.3l-6-36.2c-0.3-1.5-1.5-2.4-3-2.4h-18.1
		c-1.5,0-2.7,1.2-3,2.4l-6,36.2v0.3v0.3v12.1c0,1.7,1.3,3,3,3h3v38l-30.1-30.1l0-59.3c0-6.3-5.1-12.2-11.3-12.6
		c-3.9-0.2-7.5,1.3-9.8,4.2c-4.2-5.1-11.8-5.7-16.9-1.2c-0.6,0.3-0.9,0.9-1.2,1.2c-4.2-5.1-11.8-5.7-16.9-1.2
		c-0.6,0.3-0.9,0.9-1.2,1.2c-4.2-5.1-11.8-5.7-16.9-1.2c-0.6,0.3-0.9,0.9-1.2,1.2c-4.2-5.1-11.8-5.7-16.9-1.2
		c-0.6,0.3-0.9,0.9-1.2,1.2c-4.2-5.1-12.1-5.7-16.9-1.2c-2.7,2.1-4.2,5.4-4.2,9l0,90.8C16.9,144.4,21.7,150.3,27.6,150.9z
		 M185.7,93.7h-24.1v-6h24.1V93.7z M166.8,51.5h13l5.1,30.1h-22.9L166.8,51.5z M179.7,99.7V151c0,7.2-5.1,13.3-12.1,14.8v-66H179.7z
		 M161.6,145.4v15.7l-30.1-30.1v-15.7L161.6,145.4z M125.5,48c0,14.5,0,75.4,0,89.8c0,2.6-1.5,5.2-4,6c-4.2,1.4-8-1.7-8-5.7V47.7
		c0-4,3.9-7.1,8-5.7C123.9,42.9,125.5,45.4,125.5,48z M107.4,48c0,14.5,0,75.4,0,89.8c0,2.6-1.5,5.2-4,6c-4.2,1.4-8-1.7-8-5.7V47.7
		c0-4,3.9-7.1,8-5.7C105.8,42.9,107.4,45.4,107.4,48z M89.3,48c0,14.5,0,75.4,0,89.8c0,2.6-1.5,5.2-4,6c-4.2,1.4-8-1.7-8-5.7V47.7
		c0-4,3.9-7.1,8-5.7C87.8,42.9,89.3,45.4,89.3,48z M71.2,48c0,14.5,0,75.4,0,89.8c0,2.6-1.5,5.2-4,6c-4.2,1.4-8-1.7-8-5.7V47.7
		c0-4,3.9-7.1,8-5.7C69.7,42.9,71.2,45.4,71.2,48z M53.1,48c0,14.5,0,75.4,0,89.8c0,2.6-1.5,5.2-4,6c-4.2,1.4-8-1.7-8-5.7V47.7
		c0-4,3.9-7.1,8-5.7C51.6,42.9,53.1,45.4,53.1,48z M23,47.7c0-4,3.9-7.1,8-5.7c2.5,0.8,4,3.4,4,6c0,14.5,0,75.4,0,89.8
		c0,2.6-1.5,5.2-4,6c-4.2,1.4-8-1.7-8-5.7V47.7z"/>
	<path class="st1" d="M173.7,23.6c-1.8,0-3,1.2-3,3v9c0,1.8,1.2,3,3,3s3-1.2,3-3v-9C176.7,24.8,175.5,23.6,173.7,23.6z"/>
	<path class="st1" d="M176.7,5.5c0-1.8-1.2-3-3-3s-3,1.2-3,3v9c0,1.8,1.2,3,3,3s3-1.2,3-3V5.5z"/>
	<path class="st1" d="M149.3,23.6c0,1.8,1.2,3,3,3c5.1,0,9,3.9,9,9c0,1.8,1.2,3,3,3s3-1.2,3-3c0-8.4-6.6-15.1-15.1-15.1
		C150.5,20.6,149.3,21.8,149.3,23.6z"/>
	<path class="st1" d="M194.5,20.6c-8.4,0-15.1,6.6-15.1,15.1c0,1.8,1.2,3,3,3c1.8,0,3-1.2,3-3c0-5.1,3.9-9,9-9c1.8,0,3-1.2,3-3
		S196.3,20.6,194.5,20.6z"/>
</g>
<g class="st0">
	<g class="st1">
		<path d="M94.9,81.1c-4.2,3.9-4.3,10.1-0.4,14.3s10.1,4.3,14.3,0.4s4.3-10.1,0.4-14.3S99,77.1,94.9,81.1z M104.1,90.9
			c-1.5,1.4-3.4,1.3-4.8-0.1c-1.4-1.5-1.3-3.4,0.1-4.8c1.5-1.4,3.4-1.3,4.8,0.1C105.6,87.6,105.6,89.5,104.1,90.9z"/>
		<path d="M205.1,101.9l-43.2-22.1l0,0c-0.2-0.2-0.7-0.3-1.2-0.3l0,0l0,0l-31.1-2.6l-0.2-0.2l-31.2-62l0,0
			C92.5,3.5,81.6-4.5,69.3-6.4C63-7.6,56.9-7,50.9-5.1c-1.2-0.3-1.5,0-2,0.4c-0.5,0.5-0.8,0.7-0.8,1.2c-0.5,1-0.3,2.2,0.4,2.9
			l42.1,64.4l-0.5,0.5l-10.6,10L18,28.3c-1-0.5-2.2-0.8-2.9-0.5c-0.7,0.2-1,0.5-1.5,0.9c-0.5,0.5-0.8,0.7-0.8,1.2
			c-2.4,6-2.9,12.1-2.4,18.2l0,0l0,0l0,0c1.2,12.4,8.6,23.8,19.3,30.1l60,34.9l0.2,0.2l0.7,31.2l0,0l0,0c0,0.5,0.2,0.7,0.2,1.2l0,0
			l19.5,44.5c1.8,3.9,5.1,6.9,8.9,8.5c4.1,1.3,8.5,0.9,12.5-1c1.2-0.7,2.5-1.4,3.5-2.4c5.1-4.8,6.6-12.3,3.4-18.7l-21.5-43.1
			l-5.6-24.7l12.1-11.4l24.3,7.1l41.7,24c6.2,3.5,13.8,2.5,18.8-2.3c1-1,1.8-2.2,2.6-3.4c2.3-3.6,2.8-8.2,1.7-12.4
			C211.8,107.4,209,103.9,205.1,101.9z M92.3,20.1L92.3,20.1l25.2,48.8l-2.3-2.4c-0.7-0.7-1.4-1.5-2.3-2c-0.2-0.2-0.5-0.5-0.7-0.3
			c-0.7-0.3-1.2-0.7-1.9-1c-0.2-0.2-0.2-0.2-0.7-0.3c-0.9-0.5-1.9-0.5-2.8-1l-0.5,0l-0.5,0l0,0c1.2-1.2,1.5-2.8,0.6-4.3L76.6,5.4
			C83.2,7.9,89.2,13.4,92.3,20.1z M63.4,4c0.5,0,1,0,1.4,0c1,0,1.7,0.3,2.6,0.3l31.9,55.9l-2.4,2.3l-38.5-58
			C60.1,4.4,61.8,4.2,63.4,4z M19.8,46.5c0-0.5,0-1,0-1.4c0-1.4,0.3-3.1,0.6-4.7L76.3,82l-2.4,2.3L20,49.1
			C20,48.2,20,47.2,19.8,46.5z M133.1,180.5c2,4.1,0.4,9.3-3.7,11.3c-2.2,1.1-4.3,1.3-6.9,0.5c-2.1-0.8-4-2.3-4.9-4.7l-18.1-40.8
			l13.5-6.3L133.1,180.5z M110.6,134.6l-12.3,5.6l-1-23.1c0.7,0.3,1.4,0,2.4,0.1l0.5,0c0.5,0,1.2-0.2,1.7-0.2c0.2-0.2,0.5,0,0.7-0.2
			c0.5,0,0.7-0.2,1.4-0.4c0.2-0.2,0.7-0.2,1-0.4c0.2-0.2,0.7-0.2,1-0.4L110.6,134.6z M122.6,93.9l-14.7,13.8
			c-2.7,2.5-7,3.4-10.5,2.1c-0.5,0-0.9-0.5-1.6-0.8L36.8,74.5c-6.5-4-11.6-9.9-14-16.8l50.4,32.9c1.2,0.7,3.1,0.8,4.3-0.3l7.3-6.9
			l12.2-11.5c4.1-3.8,10.4-3.6,14.3,0.4l11.5,12.2c0.5,0.5,1.4,1,2.1,1.3L128,86l0,0l27.5,2.7l-6.3,11.9l-23.3-7.1
			C124.7,92.8,123.5,93,122.6,93.9z M204.5,115.5c0.6,2.2,0.3,4.8-0.9,6.9c-2.3,4-7.5,5.2-11.5,3l-38.4-22.6l7.1-13.1l39.6,20.5
			C202.2,111.6,203.8,113.4,204.5,115.5z"/>
	</g>
</g>
<g class="st0">
	<g class="st1">
		<g>
			<path d="M119,76.2c11.5-1.5,20.9-7.9,20.9-14.9c0-4.9-4.4-8.5-8.2-10.7c-5.5-3.2-11.9-4.5-18.1-4.5c4-4,7.4-9,9.2-14.4
				c1.5-4.7,2.3-11-1.3-14.9c-3.3-3.3-9-3-13.4-1.8c-6,1.7-11.7,5.2-16.1,9.7c0-8.2-2.3-17.9-8.9-23.6c-2.3-2.2-5.7-3.3-9-2.2
				c-4.2,1.5-7,5.5-8.9,9.4c-2.5,5-3.7,10.7-3.5,16.4c-4.4-4.4-9.9-7.9-15.9-9.5c-4.4-1.2-10-1.7-13.6,1.8c-3.8,3.8-3,10.2-1.3,14.9
				c1.8,5.5,5.2,10.4,9.2,14.4c-6.2,0-12.7,1.3-18.1,4.5c-3.8,2-8.2,5.7-8.2,10.5c0,4.9,4.4,8.5,8.2,10.7c5.5,3.2,11.9,4.5,18.1,4.5
				c-4,4-7.4,9-9.2,14.4c-1.5,4.7-2.3,11,1.3,14.9c3.8,3.8,10.2,2.8,14.7,1.3c5.5-1.8,10.5-5.2,14.6-9.2c0,6.2,1.3,12.7,4.5,18.1
				c2.2,3.8,5.9,8,10.7,8c4.9,0,8.5-4.2,10.7-8c3.2-5.5,4.5-11.9,4.5-18.1c4,4.2,9,7.4,14.6,9.2c4.5,1.5,10.9,2.3,14.7-1.3
				c4.9-4.9,2.3-13.4-0.2-18.6c2.3,2.3,4.5,4.9,6.7,7.7c14.2,18.9,24.4,52.5-6,105.9c-2.2,3.7,3.7,7,5.9,3.3
				c10.9-18.9,16.7-35.6,19.2-50.2c6.7,2.7,14.2,3.8,21.3,1.7c5.7-1.7,9-5,14.1-9.9c7.7-7.4,15.7-14.1,24.4-20.1
				c1.8-1.2,2-4,0.2-5.4c-13.2-10.5-31.8-12.2-46-4c-5.9,3.3-9.9,7.7-12.9,12C145.1,101.8,129.9,85,119,76.2z M114,52.7
				c11.9,0,19.4,6,19.4,8.5c0,2.5-7.5,8.5-19.4,8.5c-5.2,0-9.4-1.2-12.6-2.5c1-3.8,1-7.9,0-11.9C104.7,53.9,108.8,52.7,114,52.7z
				 M97.1,29.1c8.7-9.5,19.1-8.2,19.6-7.5c0.5,0.7,1.8,9.4-7.5,19.6c-3.5,3.7-7.4,5.9-10.7,7c-2-3.3-5-6.4-8.4-8.4
				C91.3,36.5,93.6,32.6,97.1,29.1C103.3,22.9,93.8,32.8,97.1,29.1z M77,5c2.5,0,8.5,7.5,8.5,19.4c0,5-1.2,9.4-2.5,12.6
				c-3.8-1-8-1-11.9,0c-1.5-3.2-2.5-7.5-2.5-12.6C68.5,12.6,74.5,5,77,5z M37.2,21.6c0.5-0.7,10.7-1.5,19.6,7.5l0,0
				c3.5,3.5,5.9,7.4,7,10.7c-3.3,2.2-6.4,5-8.4,8.4c-3.3-1.2-7.4-3.3-10.7-7C34.7,30.3,36.7,22.3,37.2,21.6z M40.1,69.8
				c-11.9,0-19.4-6-19.4-8.5c0-2.5,7.5-8.5,19.4-8.5c5.2,0,9.4,1.2,12.6,2.5c-1,3.8-1,8,0,11.9C49.4,68.6,45.1,69.8,40.1,69.8z
				 M57,93.4c-8.4,8.4-17.9,9.4-19.7,7.7c-0.3-0.3-2.8-9.5,7.7-19.7c3.7-3.5,7.4-5.9,10.7-7c2,3.3,5,6.4,8.4,8.4
				C62.6,86.2,60.3,90,57,93.4z M77,117.7c-2.5,0-8.5-7.5-8.5-19.4c0-5,1.2-9.4,2.5-12.6c3.8,1,8,1,11.9,0c1.5,3.2,2.5,7.5,2.5,12.6
				C85.6,110.1,79.5,117.7,77,117.7z M77,79.7c-10.2,0-18.4-8.2-18.4-18.4S66.8,42.9,77,42.9s18.4,8.2,18.4,18.4S87.1,79.7,77,79.7z
				 M116.9,101.1c-1.8,1.8-11.4,0.7-19.7-7.7c-3.5-3.5-5.9-7.4-7-10.7c3.3-2,6.4-5,8.4-8.4c3.3,1.2,7,3.5,10.7,7
				C119.7,91.1,117.2,100.8,116.9,101.1z M164.1,122.2c8.7-4.9,19.2-5.5,28.6-2.2c-9.9,1.7-19.4,6.4-27.1,10.5
				c-7,4-12.2,7.4-16.2,10.4C151.2,135.1,155.2,127.2,164.1,122.2z M189,130.7c-5,4.2-8.5,7.5-11.4,10.4c-4.7,4.5-7.2,7-11.4,8.2
				c-4.5,1.3-9.5,1-15.4-1c4.4-3.3,9.9-7.2,18.1-11.7c9.9-5.5,18.1-8.9,25.3-9.9C192.3,127.9,190.7,129.4,189,130.7z"/>
		</g>
	</g>
</g>
<g class="st0">
	<title>Artboard 10</title>
	<g class="st1">
		<path d="M49,121.4c-0.7-1.9-2.3-3.3-4.5-3.3H19.7l-8.2-24.9c-0.9-2.3-3.5-3.8-5.9-3c-2.3,0.9-3.8,3.5-3,5.9l8.9,26.7l-8.9,26.7
			c-0.7,2.3,0.5,5.2,3,5.9c2.3,0.7,5.2-0.5,5.9-3l8.2-24.9h21.3l8.2,24.9c0.9,2.3,3.5,3.8,5.9,3c2.3-0.9,3.8-3.5,3-5.9L49,121.4z"/>
		<path d="M128,90H99.8V43.1h75c2.6,0,4.7-2.1,4.7-4.7l0,0V29c0-1.9-0.9-3.5-2.6-4.2L97.1-12.7c-1.2-0.7-2.8-0.7-4,0L13.3,24.8
			c-1.6,0.7-2.6,2.3-2.6,4.2v9.4c0,2.6,2.1,4.7,4.7,4.7l0,0h75V90H63.3c-2.6-0.5-4.7,1.6-4.7,4.2s2.1,4.7,4.7,5.2h27.1v46.9h-4.7
			c-1.7,0-3.3,0.8-4.1,2.3c-1.8,3.5,0.7,7.1,4.1,7.1l18.8,0c1.7,0,3.3-0.8,4.1-2.3c1.8-3.5-0.7-7.1-4.1-7.1h-4.7V99.4l27.9,0
			c2,0,4-1.2,4.7-3.1C133.5,93,131.1,90,128,90z M20.1,32.1l75-35.4l75,35.4v1.6H20.1V32.1z"/>
		<path d="M180.8,122.8l8.9-26.7c0.7-2.3-0.5-5.2-3-5.9c-2.3-0.7-5.2,0.5-5.9,3l-8.2,24.9h-24.9c-2.1,0-3.8,1.4-4.5,3.3l-9.4,28.1
			c-0.7,2.3,0.5,5.2,3,5.9c2.3,0.7,5.2-0.5,5.9-3l8.2-24.9h21.3l8.2,24.9c0.9,2.3,3.5,3.8,5.9,3c2.3-0.9,3.8-3.5,3-5.9L180.8,122.8z
			"/>
	</g>
</g>
<g class="st0">
	<path class="st1" d="M189.2,72.5c-2.5-10.7-11.2-18.7-21.7-20.8c0-0.6-0.2-1.3-0.4-1.9c-1.7-7.2-5.9-13.3-12.2-17.1
		c-5.1-3.2-10.9-4.6-16.8-4c-4.8-12.6-18.3-20-31.8-16.8c-4,0.8-7.8,2.7-10.9,5.3c-5.1-3.8-10.9-5.9-17.1-5.9
		c-10.9,0-20.8,6.7-25.1,16.6C38.5,26.8,26,37.5,24.1,51.4C10.7,53.1,0.3,64.7,0.3,78.6c0,11.6,7.4,22.1,18.1,25.9c0,0,0,0,0,0
		c-0.6,14.1,9.6,25.1,26.5,28.6c1.7,0.4,14.3,0.4,30.3,0.4c24,0,55.6-0.2,69.1-0.4l8.2-0.6h0.6c12.2-2.7,21.3-15.8,21.3-29.1
		C185.9,98,192.2,85.1,189.2,72.5z M168.9,96.9l-3.2,1.1l0.4,3.2c1.3,10.1-5.5,20.8-14.6,23.2l-7.4,0.6c-37.3,0.4-94.1,0.6-98.1,0
		c-4.7-1.1-20.1-5.3-20.1-19.4c0-1.3,0.2-2.5,0.4-3.6l0.8-4l-4-0.8c-8.9-1.9-15.3-9.9-15.3-19c0-10.7,8.7-19.4,19.3-19.4h4v-4
		c0-10.7,8.7-19.4,19.3-19.4c1.3,0,2.5,0.2,4,0.4l3.8,0.6l1.1-3.6c2.3-8.2,10-13.9,18.7-13.9c5.3,0,10.4,2.1,14,5.9l3,3.2l3-3.2
		c2.5-2.7,5.9-4.8,9.8-5.7c10.4-2.3,20.8,4,23.3,14.5l0.8,4l4-0.8c5.1-1.3,10.2-0.2,14.6,2.3c4.5,2.7,7.4,6.9,8.7,12
		c0.2,1.3,0.4,2.5,0.4,3.8v3.8l3.8,0.2c8.5,0.4,15.9,6.5,17.8,15C183.5,83.9,178.2,93.8,168.9,96.9z"/>
	<path class="st1" d="M146.3,69.9c-6.1-3.2-13.3-2.3-18.3,2.1c-3.8-1.9-8-2.3-12-1.1c-4.2,1.3-7.6,4-9.7,8c-0.4,0.8-0.2,1.7,0.6,2.1
		c0.8,0.4,1.7,0.2,2.1-0.6c1.7-3.2,4.4-5.5,7.8-6.5c3.4-1.1,6.9-0.6,10.1,1.1c0.2,0,0.2,0.2,0.4,0.2l1.1,0.6l0.8-0.8
		c4.2-4.2,10.5-5.1,15.6-2.3c6.5,3.4,8.8,11.6,5.5,18.1c-0.4,0.8-0.2,1.7,0.6,2.1c0.2,0.2,0.4,0.2,0.6,0.2c0.6,0,1.1-0.2,1.3-0.8
		C157.2,84.2,154.3,74.1,146.3,69.9z"/>
	<path class="st1" d="M64.6,51.8c-4.2-1.3-8.6-0.6-12.4,1.5c-5.9,3.4-9.3,9.9-8.2,16.6c-7.6,4.4-10.3,14.3-5.9,22.1
		c0.2,0.4,0.8,0.8,1.3,0.8c0.2,0,0.4,0,0.8-0.2c0.8-0.4,1.1-1.3,0.6-2.1c-3.6-6.3-1.3-14.5,5.3-18.1c0.2,0,0.2-0.2,0.4-0.2l1.1-0.4
		l-0.2-1.3c-1.3-5.7,1.5-11.6,6.5-14.3c3.2-1.7,6.7-2.1,10.1-1.3c3.4,1.1,6.3,3.2,8,6.3c0.4,0.8,1.3,1.1,2.1,0.6s1.1-1.3,0.6-2.1
		C72.4,55.8,68.8,53,64.6,51.8z"/>
</g>
<g class="st0">
	<g class="st1">
		<g>
			<path d="M210.6,29v-2.4h-14.3V9.9l2.4-3.3l-5.7-15.8l-5.5,15.8l4.1,3.3v16.8h-23.9V9.9l3.6-3.3l-5.5-15.8l-5.5,15.8l2.6,3.3v16.8
				h-21.5V10.9l3.5-3.3l-6-15.8L133,7.5l3.5,3.3v15.8h-23.9V9.9l3.8-3.3L111-9.2l-5.5,15.8l2.4,3.3v16.8H86.3V9.9l2.9-3.3L83.7-9.2
				L78.2,6.5l3.3,3.3v16.8H57.7V10.9l3.5-3.3l-6-15.8L49.4,7.5l3.5,3.3v15.8H31.4V9.9l3.1-3.3L29-9.2L23.5,6.5l3.1,3.3v16.8H9.9v4.8
				h16.7v93.2H9.9v4.8h16.7v19.1h4.8v-19.1h21.5v19.1h4.8v-19.1h23.9v19.1h4.8v-19.1h21.5v19.1h4.8v-19.1h23.9v19.1h4.8v-19.1h21.5
				v19.1h4.8v-19.1h23.9v19.1h4.8v-19.1h14.3v-4.8h-16.7V29H210.6z M31.4,124.6V29h23.9v95.5H31.4z M57.7,124.6V29h23.9v95.5H57.7z
				 M86.3,124.6V29h23.9v95.5H86.3z M112.6,124.6V29h23.9v95.5H112.6z M138.9,124.6V29h23.9v95.5H138.9z M191.5,124.6h-23.9V29h23.9
				V124.6z"/>
		</g>
	</g>
</g>
<g class="st0">
	<g class="st1">
		<g>
			<g>
				<g>
					<path d="M40.2,20.8c1.3,1.3,2.7,2.7,4,4c3.2,3.2,6.4,6.4,9.6,9.6c3.8,3.8,7.7,7.7,11.5,11.5c3.3,3.3,6.7,6.7,10,10
						c1.6,1.6,3.2,3.3,4.9,4.9c0,0,0,0,0.1,0.1c0-1.5,0-3.1,0-4.7l-6.9,6.9h4.7c-1.3-1.3-2.7-2.7-4-4c-3.2-3.2-6.4-6.4-9.6-9.6
						C60.7,45.7,56.8,41.8,53,38c-3.3-3.3-6.7-6.7-10-10c-1.6-1.6-3.2-3.3-4.9-4.9c0,0,0,0-0.1-0.1c-1.2-1.2-3.4-1.3-4.7,0
						c-0.3,0.3-0.7,0.7-1,1c-0.2,0.2-0.4,0.4-0.6,0.6c0,0-0.1,0.1-0.1,0.1c0,0-0.1,0.1-0.1,0.1c-0.3,0.4,0.1-0.1,0.2-0.1
						c0,0-0.5,0.3-0.5,0.3c0,0,0.7-0.3,0.3-0.2c-0.3,0.1,0.4-0.1,0.4-0.1c0.3,0,0.5,0.1,0.7,0.1c0.4,0.1,0.1,0.1,0,0
						c0,0,0.5,0.4,0.2,0.1c-0.3-0.3,0.2,0.3,0.2,0.3c-0.1-0.1-0.1-0.2-0.2-0.3c-1.2-1.5-2.3-3-3.4-4.6c-2.4-3.3-4.9-6.5-7.3-9.8
						c0-0.1-0.1-0.1-0.2-0.2c-0.2-0.3-0.3-0.6-0.1-0.1c0-0.1-0.2-0.4,0,0c0.1,0.3,0,0.2,0,0c0,0-0.1,0.7,0,0.3
						c0.1-0.4-0.3,0.6-0.1,0.2c0.2-0.3-0.3,0.3-0.1,0.1c0.1,0,0.2-0.2,0.2-0.2c0.7-0.7,1.5-1.5,2.2-2.2C25.1,7.6,26,6.6,27,5.7
						c0.3-0.3,0.6-0.6,0.9-0.9c0.1-0.1,0.2-0.1,0.2-0.2c0.2-0.2-0.4,0.2-0.1,0.1c0.3-0.2-0.3,0.1-0.3,0.1c0.1,0,0.5-0.1,0,0
						c-0.4,0.1-0.1,0,0,0c0,0-0.7-0.1-0.3,0c0.4,0.1-0.2-0.1-0.2-0.1c0,0,0.3,0.2,0.3,0.2c0.1,0.1,0.2,0.1,0.3,0.2
						c0.1,0.1,0.2,0.1,0.3,0.2c0.6,0.4,1.2,0.9,1.8,1.3c2,1.5,4.1,3.1,6.1,4.6c1.8,1.4,3.6,2.7,5.4,4.1c0.3,0.3,0.7,0.5,1,0.8
						c0,0-0.4-0.3-0.4-0.3c0.1,0.1,0.4,0.3,0.1,0c-0.2-0.2-0.1-0.1,0,0c-0.1-0.2-0.2-0.4-0.2-0.7c0-0.3,0-0.5,0-0.8
						c0,0.1-0.1,0.4,0,0c0.3-0.6-0.2,0.3-0.2,0.3c0,0,0.4-0.5,0.2-0.3c-0.1,0.1-0.1,0.1-0.2,0.2c0,0,0,0-0.1,0.1
						c-0.2,0.2-0.4,0.4-0.6,0.6c-0.3,0.3-0.7,0.7-1,1C39,17.4,38.9,19.6,40.2,20.8c1.3,1.2,3.4,1.3,4.7,0c1-1,2-1.9,2.7-3
						c0.8-1.3,1.1-2.9,0.7-4.4c-0.4-1.4-1.4-2.3-2.5-3.1c-1.4-1.1-2.8-2.1-4.3-3.2c-2.3-1.7-4.6-3.5-7-5.2c-1.3-1-2.6-2.2-4-2.9
						c-2.5-1.3-5.2-0.9-7.2,1.1c-0.8,0.8-1.5,1.5-2.3,2.3c-1,1-2,2-3,3c-0.9,0.9-1.8,1.7-2.3,2.9c-0.9,2-0.4,4.3,0.9,6
						c0.4,0.6,0.9,1.2,1.3,1.8c1.7,2.2,3.3,4.4,5,6.6c1.4,1.8,2.8,3.7,4.1,5.5c0.9,1.2,1.9,2.4,3.5,3c2.5,0.9,4.7-0.7,6.3-2.3
						c0.4-0.4,0.7-0.7,1.1-1.1h-4.7c1.3,1.3,2.7,2.7,4,4c3.2,3.2,6.4,6.4,9.6,9.6c3.8,3.8,7.7,7.7,11.5,11.5c3.3,3.3,6.7,6.7,10,10
						c1.6,1.6,3.2,3.3,4.9,4.9c0,0,0,0,0.1,0.1c1.5,1.5,4.3,1.2,5.3-0.9c1.8-1.8,3.5-3.5,5.4-5.3c2-1,2.3-3.7,0.8-5.2
						c-1.3-1.3-2.7-2.7-4-4c-3.2-3.2-6.4-6.4-9.6-9.6c-3.8-3.8-7.7-7.7-11.5-11.5c-3.3-3.3-6.7-6.7-10-10c-1.6-1.6-3.2-3.3-4.9-4.9
						c0,0,0,0-0.1-0.1c-1.2-1.2-3.5-1.3-4.7,0C39,17.5,38.9,19.5,40.2,20.8z"/>
				</g>
			</g>
			<g>
				<g>
					<path d="M159.7,135.7c-1.7,1.7-3.4,3.4-5.1,5.1c-0.6,0.6-1.2,1.2-1.8,1.8c-0.2,0.2-0.5,0.4-0.7,0.7c-0.4,0.4,0.5-0.3-0.2,0.1
						c-0.5,0.3-1,0.6-1.5,0.9c-0.5,0.3,0.5-0.2-0.2,0.1c-0.2,0.1-0.5,0.2-0.8,0.2c-0.3,0.1-0.6,0.2-0.9,0.2c-0.1,0-0.2,0-0.3,0.1
						c-0.4,0.1,0.7,0,0.1,0c-0.5,0-1.1,0.1-1.6,0c-0.3,0-0.5,0-0.8-0.1c-0.5,0,0.7,0.1,0.2,0c-0.2,0-0.4-0.1-0.6-0.1
						c-0.5-0.1-1-0.3-1.5-0.5c-0.6-0.2,0.6,0.3-0.2-0.1c-0.3-0.1-0.5-0.3-0.8-0.4c-0.2-0.1-0.5-0.3-0.7-0.4c-0.5-0.3,0,0,0.1,0.1
						c-0.1,0-0.3-0.2-0.4-0.3c-0.2-0.2-0.4-0.3-0.5-0.5c-0.1-0.1-0.1-0.1-0.2-0.2c-1.1-1.1-2.1-2.1-3.2-3.2
						c-4.2-4.2-8.3-8.3-12.5-12.5c-3.7-3.7-7.4-7.4-11.1-11.1c-0.4-0.4-0.8-0.8-1.2-1.2c-0.1-0.1-0.1-0.1-0.2-0.2
						c0,0-0.3-0.4-0.3-0.4c0,0,0.4,0.7,0.1,0.1c-0.1-0.1-0.1-0.2-0.2-0.3c-0.1-0.1-0.3-0.5-0.1-0.1c0.2,0.4,0-0.1-0.1-0.2
						c0-0.1-0.2-1-0.1-0.4c0.1,0.5,0-0.3,0-0.4c0-0.6-0.1,0.6,0-0.1c0-0.1,0.1-0.3,0.1-0.4c0-0.1,0.3-0.5,0-0.1
						c-0.3,0.4,0.2-0.3,0.3-0.4c0.3-0.6-0.1,0.1-0.1,0.1c0-0.1,0.3-0.3,0.3-0.3c0.1-0.1,0.1-0.1,0.2-0.2c1-1,2-2,3-3
						c0.3-0.3,0.5-0.5,0.8-0.8c1.3-1.3,1.3-3.4,0-4.7c-4-4-8-8-12-12c-0.6-0.6-1.1-1.1-1.7-1.7c0,1.5,0,3.1,0,4.7
						c2.3-2.3,4.6-4.6,6.9-6.9c-1.5,0-3.1,0-4.7,0c4,4,8,8,12,12c0.6,0.6,1.1,1.1,1.7,1.7c1.3,1.3,3.4,1.3,4.7,0
						c1.3-1.3,2.6-2.7,4-4c0,0,0.4-0.3,0.4-0.3c0,0-0.5,0.3-0.2,0.2c0.1,0,0.2-0.1,0.3-0.2c0.1,0,0.2-0.1,0.3-0.2
						c0.3-0.2-0.2,0.1-0.3,0.1c0.2,0,0.5-0.2,0.7-0.2c0.1,0,0.2,0,0.3-0.1c0,0-0.7,0-0.3,0c0.2,0,0.5,0,0.7,0c0.3,0-0.3,0-0.3,0
						c0.1,0,0.2,0,0.3,0.1c0.2,0,0.6,0.2,0.7,0.2c0,0-0.6-0.3-0.3-0.1c0.1,0.1,0.2,0.1,0.3,0.2c0.1,0.1,0.2,0.1,0.3,0.2
						c0.3,0.2-0.2-0.1-0.2-0.2c0,0,0.3,0.3,0.4,0.3c0.1,0,0.1,0.1,0.2,0.2c2.3,2.3,4.6,4.6,6.9,6.9c3.8,3.8,7.6,7.6,11.4,11.5
						c2.9,2.9,5.8,5.9,8.8,8.8c0.3,0.3,0.6,0.6,0.9,0.9c0.1,0.1,0.1,0.1,0.2,0.2l0,0c0.2,0.2,0.3,0.3,0.5,0.5
						c0.1,0.1,0.1,0.2,0.2,0.3c0.3,0.3-0.3-0.5-0.1-0.1c0.3,0.4,0.5,0.8,0.8,1.2c0.1,0.2,0.2,0.4,0.3,0.6c0.2,0.3-0.1-0.2-0.1-0.3
						c0,0.2,0.1,0.4,0.2,0.5c0.1,0.4,0.3,0.9,0.4,1.3c0,0.1,0,0.2,0.1,0.3c0,0.2,0.2,0.3,0,0s0-0.2,0,0c0,0.1,0,0.3,0,0.4
						c0,0.4,0,0.9,0,1.4c0,0.2-0.1,0.5-0.1,0.7c0,0,0.1-0.7,0-0.3c0,0.1,0,0.3-0.1,0.4c-0.1,0.4-0.2,0.9-0.4,1.3
						c0,0.1-0.1,0.2-0.1,0.3c-0.2,0.6,0-0.1,0.1-0.1c-0.1,0.1-0.3,0.6-0.4,0.7c-0.2,0.4-0.5,0.8-0.8,1.2c-0.2,0.3,0.1-0.2,0.1-0.2
						c0,0-0.2,0.3-0.2,0.3C160.1,135.3,159.9,135.5,159.7,135.7c-1.2,1.2-1.3,3.4,0,4.7c1.3,1.2,3.4,1.3,4.7,0
						c3.5-3.6,5-8.7,3.9-13.6c-0.6-2.8-2.2-5.2-4.2-7.3c-2.6-2.6-5.3-5.3-7.9-7.9c-4-4-8-8-12-12c-2.6-2.6-5.2-5.2-7.8-7.8
						c-2.3-2.3-5.6-3.5-8.9-2.6c-3,0.8-5.2,3.5-7.3,5.7c-0.2,0.2-0.4,0.4-0.6,0.6c1.5,0,3.1,0,4.7,0c-4-4-8-8-12-12
						c-0.6-0.6-1.1-1.1-1.7-1.7c-1.3-1.3-3.4-1.3-4.7,0c-2.3,2.3-4.6,4.6-6.9,6.9c-1.3,1.3-1.3,3.4,0,4.7c4,4,8,8,12,12
						c0.6,0.6,1.1,1.1,1.7,1.7c0-1.5,0-3.1,0-4.7c-0.9,0.9-1.7,1.7-2.6,2.6c-1.2,1.2-2.4,2.3-3.1,3.8c-1.5,3.2-1,6.8,1.2,9.5
						c0.3,0.4,0.6,0.7,0.9,1c3.3,3.3,6.7,6.7,10,10.1c4.5,4.5,9,9,13.4,13.5c3.5,3.5,6.8,7.6,12,8.4c5,0.8,9.7-0.8,13.2-4.3
						c2-2,4-4,6-6c0.2-0.2,0.4-0.4,0.6-0.6c1.2-1.2,1.3-3.5,0-4.7C163,134.4,161,134.4,159.7,135.7z"/>
				</g>
			</g>
			<g>
				<g>
					<path d="M127.2,107.8c2.6,2.6,5.2,5.2,7.9,7.9c4.2,4.2,8.4,8.4,12.5,12.5c1,1,1.9,1.9,2.9,2.9c1.2,1.2,3.5,1.3,4.7,0
						c1.2-1.3,1.3-3.4,0-4.7c-2.6-2.6-5.2-5.2-7.9-7.9c-4.2-4.2-8.4-8.4-12.5-12.5c-1-1-1.9-1.9-2.9-2.9c-1.2-1.2-3.5-1.3-4.7,0
						C126,104.4,125.9,106.5,127.2,107.8L127.2,107.8z"/>
				</g>
			</g>
			<g>
				<g>
					<path d="M148.2,133.3c-2.6-2.6-5.2-5.2-7.9-7.9c-4.2-4.2-8.4-8.4-12.5-12.5c-1-1-1.9-1.9-2.9-2.9c-1.2-1.2-3.5-1.3-4.7,0
						c-1.2,1.3-1.3,3.4,0,4.7c2.6,2.6,5.2,5.2,7.9,7.9c4.2,4.2,8.4,8.4,12.5,12.5c1,1,1.9,1.9,2.9,2.9c1.2,1.2,3.5,1.3,4.7,0
						C149.5,136.6,149.5,134.6,148.2,133.3L148.2,133.3z"/>
				</g>
			</g>
		</g>
		<g>
			<g>
				<g>
					<path d="M163.3,30c-3.9,3.9-7.9,7.9-11.8,11.8c-1.9,1.9-3.8,3.8-5.7,5.7c-0.1,0.1-0.3,0.3-0.4,0.4c-0.3,0.3-0.7,0.7-1.1,1
						c-0.3,0.3-0.6,0.5-0.9,0.8c0.1-0.1,0.5-0.4,0,0c-0.2,0.1-0.4,0.3-0.6,0.4c-0.6,0.4-1.2,0.7-1.8,1.1c-0.3,0.2-0.6,0.3-0.9,0.5
						c-0.2,0.1-0.4,0.2-0.6,0.3c-0.4,0.2-0.4,0.2,0,0c-0.6,0.4-1.5,0.5-2.1,0.7c-0.7,0.2-1.5,0.4-2.2,0.5c-0.2,0-0.3,0-0.5,0.1
						c-0.5,0.1,0-0.1,0.1,0c-0.1-0.1-0.9,0.1-1,0.1c-0.7,0-1.5,0.1-2.2,0c-0.7,0-1.5,0-2.2-0.2c0.1,0,0.7,0.1,0.1,0
						c-0.2,0-0.3,0-0.5-0.1c-0.4-0.1-0.8-0.2-1.3-0.3c-0.7-0.2-1.4-0.4-2-0.6c-0.2-0.1-0.4-0.1-0.6-0.2c-0.1,0-0.6-0.2-0.2-0.1
						c0.4,0.2-0.1-0.1-0.2-0.1c-0.2-0.1-0.5-0.2-0.7-0.3c-0.7-0.3-1.4-0.7-2-1.2c-0.3-0.2-0.6-0.4-0.9-0.6c-0.1-0.1-0.3-0.2-0.4-0.3
						c0.6,0.4-0.1-0.1-0.2-0.2c-0.3-0.2-0.6-0.5-0.8-0.7c0,0-0.4-0.4-0.4-0.4c-0.1,0.1,0.9,1-0.3-0.3c-0.2-0.3-0.5-0.5-0.8-0.8
						c-0.1-0.2-0.3-0.3-0.5-0.5c0-0.1-0.5-0.7-0.3-0.3c0.2,0.3-0.1-0.1-0.2-0.2c-0.1-0.2-0.3-0.4-0.4-0.6c-0.2-0.3-0.4-0.6-0.6-0.9
						c-0.4-0.7-0.8-1.4-1.2-2.1c-0.1-0.2-0.1-0.3-0.2-0.5c0.3,0.6,0.1,0.2,0,0c-0.1-0.4-0.3-0.8-0.4-1.1c-0.2-0.8-0.5-1.5-0.6-2.3
						c-0.1-0.4-0.1-0.7-0.2-1.1c0-0.2-0.1-0.6,0,0.1c0-0.2,0-0.3,0-0.5c-0.1-0.7-0.1-1.5-0.1-2.2c0-0.7,0-1.4,0.1-2.1
						c0-0.2,0-0.3,0-0.5c0-0.5-0.1,0.8,0,0c0.1-0.4,0.1-0.7,0.2-1.1c0.1-0.7,0.3-1.4,0.5-2.1c0.1-0.3,0.2-0.6,0.3-1
						c0-0.2,0.1-0.3,0.2-0.5c0.2-0.7-0.2,0.5,0.1-0.1c0.6-1.4,1.4-2.7,2.3-4c0.1-0.1,0.4-0.5,0,0c0.1-0.1,0.2-0.3,0.3-0.4
						c0.2-0.3,0.5-0.5,0.7-0.8c0.2-0.3,0.5-0.5,0.8-0.8c1.5-1.5,3-3,4.4-4.4c4.4-4.4,8.9-8.9,13.3-13.3c0.1-0.1,0.2-0.2,0.3-0.3
						c1.7-1.7,1-4.9-1.4-5.5c-12.4-3-26-0.7-36.5,6.6c-5.4,3.8-10.1,8.7-13.5,14.4c-3.3,5.5-5.2,11.7-6,18c-0.8,6.7,0,13.8,2.3,20.2
						c0.3-1.1,0.6-2.1,0.8-3.2c-3.5,3.5-6.9,6.9-10.3,10.3c-4.6,4.6-9.1,9.1-13.7,13.7c-6.7,6.7-13.5,13.5-20.2,20.2
						c-5,5-10,10-15,15c-1.5,1.5-3.1,3-4.4,4.9c-5,7-5,17-0.1,24.1c4.7,6.8,12.8,10.3,21,9.2c4.8-0.7,9-3,12.3-6.4
						c4-4,8.1-8.1,12.1-12.1c6.7-6.7,13.3-13.3,20-20c5.4-5.4,10.8-10.8,16.2-16.2c3.2-3.2,6.5-6.5,9.7-9.7c0.9-0.9,1.8-1.8,2.7-2.7
						c-1.1,0.3-2.1,0.6-3.2,0.8c11.8,4,25,3,36-2.8c11.4-5.9,19.9-16.9,22.9-29.4c1.7-7,1.7-14.2,0.1-21.2c-0.4-1.7-2.4-2.8-4-2.3
						c-1.8,0.6-2.7,2.3-2.3,4c0.1,0.7,0.3,1.4,0.4,2.1c0.1,0.3,0.1,0.7,0.2,1c0,0.2,0,0.3,0.1,0.5c0.1,0.4-0.1-0.7,0,0
						c0.1,1.4,0.3,2.9,0.3,4.3c0,1.4,0,2.8-0.1,4.2c0,0.4-0.1,0.7-0.1,1.1c0,0.3-0.2,0.7-0.1,1c0-0.1,0.1-0.8,0-0.1
						c0,0.2,0,0.3-0.1,0.5c-0.1,0.4-0.1,0.8-0.2,1.2c-0.5,2.8-1.3,5.5-2.4,8.2c-0.2,0.6,0,0,0-0.1c0,0.1-0.1,0.3-0.2,0.5
						c-0.1,0.3-0.3,0.7-0.5,1c-0.3,0.7-0.6,1.3-1,1.9c-0.7,1.3-1.5,2.6-2.4,3.8c-0.2,0.3-0.4,0.6-0.6,0.8c-0.1,0.1-0.2,0.3-0.3,0.4
						c-0.1,0.1-0.4,0.5-0.1,0.2c0.3-0.4-0.2,0.3-0.2,0.3c-0.1,0.1-0.2,0.3-0.3,0.4c-0.2,0.3-0.5,0.6-0.8,0.9c-1,1.2-2.1,2.3-3.2,3.3
						c-0.5,0.5-1,0.9-1.6,1.4c-0.3,0.2-0.5,0.4-0.8,0.6c-0.5,0.4,0,0,0.1,0c-0.2,0.2-0.4,0.3-0.6,0.5c-1.2,0.8-2.4,1.6-3.6,2.4
						c-1.2,0.7-2.5,1.4-3.8,1.9c-0.3,0.1-0.6,0.3-0.9,0.4c0.8-0.3-0.3,0.1-0.5,0.2c-0.7,0.2-1.3,0.5-2,0.7c-1.4,0.4-2.7,0.8-4.1,1.1
						c-0.7,0.1-1.3,0.3-2,0.4c-0.3,0-0.6,0.1-1,0.1c-0.2,0-0.6,0.1,0.1,0c-0.2,0-0.4,0-0.6,0.1c-3.1,0.4-6.2,0.4-9.3,0.1
						c-0.2,0-1.5-0.1-0.6,0c-0.4,0-0.8-0.1-1.2-0.2c-0.7-0.1-1.4-0.3-2.2-0.4c-1.6-0.3-3.1-0.8-4.7-1.3c-1.1-0.4-2.4,0-3.2,0.8
						c-3.4,3.4-6.9,6.9-10.3,10.3c-4.4,4.4-8.8,8.8-13.2,13.2c-6.6,6.6-13.2,13.2-19.8,19.8c-5.1,5.1-10.3,10.3-15.4,15.4
						c-0.8,0.8-1.6,1.6-2.5,2.5c-0.3,0.3-0.6,0.6-0.9,0.8c-0.1,0.1-0.3,0.3-0.5,0.4c-0.2,0.1-0.5,0.5,0,0c-0.5,0.6-1.6,1.1-2.3,1.4
						c-0.4,0.2-0.8,0.4-1.1,0.6c-0.6,0.3,0.1,0,0.1-0.1c-0.1,0.1-0.5,0.2-0.6,0.2c-0.8,0.3-1.7,0.5-2.5,0.7c-0.2,0-0.4,0.1-0.6,0.1
						c-0.3,0-0.9,0,0,0c-0.4,0-0.8,0.1-1.1,0.1c-0.8,0-1.7,0-2.5,0c-0.1,0-0.6,0-0.7-0.1c0.1,0,0.3,0,0.4,0.1c-0.1,0-0.3,0-0.4-0.1
						c-0.4-0.1-0.7-0.1-1.1-0.2c-0.8-0.2-1.6-0.5-2.4-0.7c-0.7-0.3,0.7,0.3-0.1,0c-0.2-0.1-0.4-0.2-0.6-0.3c-0.3-0.2-0.7-0.3-1-0.5
						c-0.3-0.2-0.7-0.4-1-0.6c-0.2-0.1-0.4-0.3-0.6-0.4c-0.6-0.4,0.4,0.4-0.1-0.1c-0.7-0.6-1.4-1.2-2-1.9c-0.3-0.3-0.6-0.7-0.9-1
						c0.5,0.6-0.1-0.1-0.1-0.2c-0.1-0.2-0.3-0.4-0.4-0.7c-0.3-0.4-0.5-0.8-0.7-1.3c-0.1-0.2-0.2-0.4-0.3-0.6
						c-0.1-0.1-0.5-0.9-0.1-0.2c-0.5-0.8-0.7-1.9-0.9-2.7c-0.1-0.5-0.2-0.9-0.3-1.4c-0.1-0.5,0.1,0.8,0,0c0-0.3,0-0.5-0.1-0.8
						c0-1,0-1.9,0.1-2.8c0-0.9-0.1,0.7,0-0.1c0-0.2,0-0.3,0.1-0.5c0.1-0.5,0.2-1,0.3-1.5c0.1-0.4,0.2-0.8,0.4-1.2
						c0.1-0.2,0.2-0.5,0.3-0.7c-0.3,0.5,0,0.1,0.1-0.2c0.4-0.9,0.9-1.7,1.4-2.5c0.1-0.1,0.2-0.3,0.3-0.4c0.5-0.7-0.4,0.5,0.1-0.2
						c0.4-0.4,0.7-0.8,1.1-1.2c0.2-0.2,0.4-0.4,0.6-0.6c4.2-4.2,8.3-8.3,12.5-12.5c6.6-6.6,13.2-13.2,19.7-19.7
						c5.3-5.3,10.6-10.6,16-16c3.2-3.2,6.4-6.4,9.5-9.5c0.9-0.9,1.8-1.8,2.7-2.7c0.8-0.8,1.2-2.1,0.8-3.2c-0.5-1.3-0.9-2.7-1.3-4.1
						c-0.3-1.3-0.8-2.8-0.8-4.2c0,0.1,0.1,0.8,0,0.1c0-0.2,0-0.3-0.1-0.5c0-0.3-0.1-0.6-0.1-1c-0.1-0.7-0.1-1.5-0.1-2.2
						c0-1.4,0-2.8,0-4.1c0-0.7,0.1-1.4,0.2-2.1c0-0.1,0.1-1.2,0.1-0.7c-0.1,0.6,0-0.2,0-0.3c0-0.2,0.1-0.4,0.1-0.6
						c0.2-1.4,0.5-2.8,0.9-4.2c0.4-1.3,0.8-2.7,1.3-4c0.1-0.3,0.2-0.6,0.4-0.9c-0.4,0.7,0.1-0.1,0.2-0.3c0.3-0.7,0.6-1.3,1-2
						c0.7-1.3,1.4-2.6,2.2-3.8c0.4-0.6,0.8-1.2,1.2-1.8c0.1-0.2,0.7-1,0.3-0.3c0.2-0.3,0.5-0.7,0.8-1c1.9-2.3,4.1-4.4,6.4-6.2
						c0.5-0.4,0,0,0,0c0.2-0.1,0.3-0.3,0.5-0.4c0.3-0.2,0.6-0.4,0.8-0.6c0.6-0.4,1.3-0.9,1.9-1.3c1.3-0.8,2.6-1.5,3.9-2.1
						c0.3-0.1,0.6-0.3,0.9-0.4c0.1-0.1,0.3-0.1,0.5-0.2c0.2-0.1,0.4-0.3-0.1,0c0.6-0.4,1.5-0.6,2.1-0.8c1.3-0.5,2.7-0.9,4.1-1.2
						c0.8-0.2,1.6-0.4,2.5-0.5c0.4-0.1,0.8-0.1,1.2-0.2c0.2,0,0.6-0.1-0.1,0c0.2,0,0.4,0,0.6-0.1c1.6-0.2,3.2-0.3,4.9-0.3
						c1.6,0,3.2,0.1,4.7,0.3c0.2,0,0.3,0,0.5,0.1c-0.9-0.2,0,0,0.1,0c0.4,0.1,0.8,0.1,1.2,0.2c0.8,0.1,1.6,0.3,2.5,0.5
						c-0.5-1.8-1-3.7-1.4-5.5c-4.1,4.1-8.2,8.2-12.3,12.3c-1.9,1.9-3.7,3.7-5.6,5.6c-3.8,3.8-6.5,8.7-7.3,14.1
						c-1.1,7.2,0.8,14.4,5.4,20.1c0.2,0.3,0.5,0.6,0.7,0.9c0.1,0.1,0.2,0.3,0.4,0.4c0.1,0.1,0.1,0.1,0.2,0.2c0.2,0.3,0.3,0.3,0,0
						c0-0.1-0.1-0.1-0.2-0.2c0.2,0.3,0.4,0.5,0.6,0.8c0.2,0.2,0.3,0.3,0.5,0.5c0.3,0.3,0.7,0.6,1.1,0.9c1.4,1.2,2.9,2.2,4.6,3.1
						c3.2,1.6,6.6,2.6,10.1,2.8c6.8,0.5,13.6-2,18.7-6.6c1.6-1.4,3-3,4.5-4.5c4.6-4.6,9.2-9.2,13.9-13.9c0.1-0.1,0.2-0.2,0.3-0.3
						c1.2-1.2,1.3-3.5,0-4.7C166.6,28.8,164.6,28.7,163.3,30z"/>
					<path d="M36.7,131.3C36.2,131.8,37.3,131.1,36.7,131.3c-0.2,0.1-0.3,0.2-0.4,0.3c0.4-0.2,0.5-0.2,0.3-0.1
						c-0.2,0.1-0.4,0.1-0.6,0.2c-0.2,0-0.1,0,0.3,0c-0.1,0-0.3,0-0.4,0c-0.6,0,0.6,0.2,0,0c-0.1,0-0.6-0.1-0.6-0.2
						c0.4,0.2,0.5,0.2,0.3,0.1c-0.1,0-0.2-0.1-0.3-0.2c-0.2-0.2-0.2-0.2,0,0s0.2,0.1,0,0c-0.2-0.3-0.2-0.2,0.1,0.1
						c0-0.1-0.1-0.1-0.1-0.2c-0.1-0.1-0.2-0.3-0.2-0.4c0,0.1,0.1,0.2,0.1,0.4c-0.1-0.1-0.1-0.5-0.2-0.6c-0.2-0.6,0,0.7,0-0.1
						c0-0.8-0.1,0.3,0,0c0-0.1,0.1-0.7,0.2-0.7c0,0.1-0.1,0.2-0.1,0.4c0.1-0.1,0.1-0.3,0.2-0.4c0-0.1,0.1-0.1,0.1-0.2
						c-0.3,0.4-0.3,0.4-0.1,0.1c0.2-0.2,0.2-0.2,0,0c-0.2,0.1-0.2,0.1,0,0c0.1-0.1,0.2-0.1,0.3-0.2c0.2-0.1,0.1-0.1-0.3,0.1
						c0.1-0.1,0.5-0.1,0.6-0.2c0.6-0.2-0.6,0,0,0c0.1,0,0.3,0,0.4,0c-0.5-0.1-0.6-0.1-0.3,0c0.2,0.1,0.4,0.1,0.6,0.2
						c0.2,0.1,0.1,0-0.3-0.1c0.1,0,0.2,0.1,0.3,0.2c0.7,0.4-0.3-0.3,0.1,0.1c0.5,0.5-0.3-0.5,0.1,0c0,0.1,0.1,0.1,0.1,0.2
						c0.2,0.3,0.1,0.3,0-0.2c0,0.2,0.1,0.5,0.2,0.6c0.2,0.6,0-0.7,0,0c-0.1,0.9,0,0,0,0c0,0-0.1,0.6-0.2,0.6
						c-0.1,0.6,0.3-0.6-0.1,0.1C36.4,131.9,37.2,130.9,36.7,131.3c-1.2,1.3-1.3,3.4,0,4.7c1.3,1.2,3.4,1.3,4.7,0
						c2.3-2.5,2.8-5.9,1.4-8.9c-1.3-2.7-4.4-4.4-7.3-4.2c-3.3,0.2-6.2,2.5-7,5.7c-0.8,3.2,0.5,6.5,3.2,8.4c3,2.1,7.1,1.5,9.7-1
						c1.3-1.2,1.3-3.5,0-4.7C40.1,130.1,38.1,130.1,36.7,131.3z"/>
				</g>
			</g>
			<g>
				<g>
					<path d="M54.6,116.6c1.4-1.4,2.8-2.8,4.2-4.2c3.4-3.4,6.8-6.8,10.2-10.2c4.1-4.1,8.2-8.2,12.3-12.3c3.5-3.5,7.1-7.1,10.6-10.6
						c1.7-1.7,3.5-3.4,5.2-5.2c0,0,0,0,0.1-0.1c1.2-1.2,1.3-3.5,0-4.7c-1.3-1.2-3.4-1.3-4.7,0c-1.4,1.4-2.8,2.8-4.2,4.2
						c-3.4,3.4-6.8,6.8-10.2,10.2C74,87.8,69.9,91.9,65.8,96c-3.5,3.5-7.1,7.1-10.6,10.6c-1.7,1.7-3.5,3.4-5.2,5.2c0,0,0,0-0.1,0.1
						c-1.2,1.2-1.3,3.5,0,4.7C51.2,117.8,53.3,117.9,54.6,116.6L54.6,116.6z"/>
				</g>
			</g>
		</g>
	</g>
</g>
<g class="st0">
	<title>Artboard 11</title>
	<g class="st1">
		<path d="M160.1,59.7h-8.3c-1.7-7.6-4.6-14.7-8.8-21.3l5.8-5.8c1.4-1.4,1.4-3.4,0-4.7l0,0l-14.4-14.4c-1.4-1.4-3.4-1.4-4.7,0l0,0
			l-5.8,5.8c-6.4-4.2-13.7-7.3-21.3-8.8V2.2c0-1.9-1.5-3.4-3.4-3.4l0,0H78.8c-1.9,0-3.4,1.5-3.4,3.4v0.2v8.3
			c-7.6,1.7-14.7,4.6-21.3,8.8l-5.8-5.9c-1.4-1.4-3.4-1.4-4.7,0l0,0L29.2,27.9c-1.4,1.4-1.4,3.4,0,4.7l0,0l5.8,5.8
			c-4.2,6.4-7.3,13.7-8.8,21.3h-8.3c-1.9,0-3.4,1.5-3.4,3.4l0,0v20.3c0,1.9,1.5,3.4,3.4,3.4H18h8.3c1.7,7.6,4.6,14.7,8.8,21.3
			l-5.9,5.9c-1.4,1.4-1.4,3.4,0,4.7l0,0l14.4,14.4c1.4,1.4,3.4,1.4,4.7,0l0,0l5.8-5.7c6.4,4.2,13.7,7.3,21.3,8.8v8.3
			c0,1.9,1.5,3.4,3.4,3.4l0,0h20.3c1.9,0,3.4-1.5,3.4-3.4v0v-8.3c7.6-1.7,14.7-4.6,21.3-8.8l5.7,5.8c1.4,1.4,3.4,1.4,4.7,0l0,0
			l14.4-14.4c1.4-1.4,1.4-3.4,0-4.7l0,0l-5.7-5.8c4.2-6.4,7.3-13.7,8.8-21.3h8.4c1.9,0,3.4-1.5,3.4-3.4l0,0V63.1
			C163.4,61.3,161.9,59.7,160.1,59.7L160.1,59.7z M156.7,80h-7.4c-1.7,0-3,1.2-3.4,2.9c-1.4,8.6-4.7,16.6-9.8,23.7
			c-1,1.4-0.8,3.2,0.3,4.4l5.4,5.4l-9.7,9.7l-5.4-5.4c-1.2-1.2-3-1.4-4.4-0.3c-7.1,5.1-15.2,8.5-23.7,9.8c-1.7,0.3-2.9,1.7-2.9,3.4
			v7.4H82.2v-7.4c0-1.7-1.2-3-2.9-3.4c-8.7-1.4-16.6-4.7-23.8-9.8c-1.4-1-3.2-0.8-4.4,0.3l-5.4,5.4l-9.7-9.7l5.4-5.4
			c1.2-1.2,1.4-3,0.3-4.4c-5.1-7.1-8.5-15.2-9.8-23.7c-0.3-1.7-1.7-2.9-3.4-2.9h-7.3V66.5h7.4c1.7,0,3-1.2,3.4-2.9
			c1.4-8.7,4.7-16.6,9.8-23.8c1-1.4,0.8-3.2-0.3-4.4L36.1,30l9.7-9.7l5.4,5.4c1.2,1.2,3,1.4,4.4,0.3c7.1-5.1,15.2-8.5,23.7-9.8
			c1.7-0.3,2.9-1.7,2.9-3.4V5.5h13.5v6.8c0,1.7,1.2,3.1,2.9,3.4c8.7,1.4,16.6,4.8,23.8,9.9c1.4,1,3.2,0.9,4.4-0.3l5.4-5.5l9.7,9.8
			l-5.4,5.5c-1.2,1.2-1.4,3.1-0.3,4.5c5.1,7.2,8.5,15.4,9.8,24c0.3,1.7,1.7,2.9,3.4,2.9h7.3V80z"/>
		<path d="M88.4,25.9C62.2,25.9,41,47,41,73.3s21.2,47.4,47.4,47.4s47.4-21.2,47.4-47.4S114.7,25.9,88.4,25.9z M82.2,113.2V94.6
			c0-1.4-0.7-2.5-1.9-3c-10.4-4.7-14.8-16.8-9.9-26.9c1.2-2.5,3-4.7,5-6.4v13.4c0,3.7,3,6.8,6.8,6.8h13.5c3.7,0,6.8-3,6.8-6.8V58.2
			c8.5,7.5,9.4,20.1,1.7,28.4c-1.9,2-4.2,3.7-6.6,4.9c-1.2,0.5-1.9,1.7-1.9,3v18.6C91.1,114.1,86.5,114.1,82.2,113.2z M102.5,111.5
			V96.6c12.9-7.5,17.4-23.9,10-36.7c-2.7-4.7-6.9-8.6-11.9-11c-1.7-0.8-3.7-0.2-4.6,1.5c-0.2,0.5-0.3,1-0.3,1.5v19.6H82.2V51.9
			c0-1.9-1.5-3.4-3.4-3.4c-0.5,0-1,0.2-1.5,0.3C63.7,55.2,58,71.2,64.4,84.8c2.4,5.1,6.3,9.1,11,11.9v14.9
			c-21.9-7.7-32.9-32.3-23.9-54c7.8-18.7,28.6-28.7,48.1-23.4c23,6.3,35.3,30.6,27.5,52.7C123.2,98.3,114,107.5,102.5,111.5z"/>
	</g>
</g>
<g class="st0">
	<g class="st1">
		<path d="M162.7,108.1c-0.4-8.9-7.5-16-16.4-16c-8.3,0-15.2,6.5-16.2,15.3H92V69h6.5c1.2-1,2-1.8,1.6-3V53.9
			c0.4-1.2-1.6-3.1-1.6-3.1H94v-6.2c0-3.2-2.5-6-5.9-6H75.6c-3.1,0-5.9,2.6-5.9,6v6.2h-4.4c0,0-2,1.9-1.6,3.1v12.1
			c-0.4,1.2,0.4,2,1.6,3h6.5v38.4h-38c-1-9.1-7.9-15.3-16.2-15.3c-8.9,0-16,7.1-16.4,16c0,0.2-0.2,0.4-0.2,0.6c0,1.2,0.8,2,2,2.8
			h71.4h15h71.6c1.2-0.8,2-1.6,2-2.8C162.9,108.5,162.9,108.3,162.7,108.1z M146.6,97c6.1,0,11.1,4.7,12.1,10.5h-24.3
			C135.2,101.6,140.3,97,146.6,97z M73.6,44.8c0-1,0.8-2,2-2H88c1,0,1.9,0.8,1.9,2v6.1H73.8v-6.1H73.6z M67.5,56.9h4H92h4V65h-6.8
			H74.5h-6.8v-8.1H67.5z M17.5,97c6.1,0,11.1,4.7,12.1,10.5H5.4C6.4,101.6,11.5,97,17.5,97z M77.8,107.5V69h10.1v38.4H77.8z"/>
		<path d="M51.3,34.3c0.4,0.4,1,0.6,1.4,0.6c0.6,0,1-0.2,1.4-0.6c0.8-0.8,0.8-2,0-2.8l-5.7-5.9c-0.8-0.8-2-0.8-2.8,0
			c-0.8,0.8-0.8,2,0,2.8L51.3,34.3z"/>
		<path d="M35.3,45.2l7.5,1.6c0.2,0,0.2,0,0.4,0c1,0,1.8-0.6,2-1.6c0.2-1-0.4-2.2-1.6-2.4l-7.5-1.6c-1-0.2-2.2,0.4-2.4,1.6
			C33.5,44,34.3,45,35.3,45.2z"/>
		<path d="M35.7,67c0.2,0,0.2,0,0.4,0l7.5-1.6c1-0.2,1.8-1.2,1.6-2.4c-0.2-1-1.2-1.8-2.4-1.6L35.3,63c-1,0.2-1.8,1.2-1.6,2.4
			C34.1,66.4,34.9,67,35.7,67z"/>
		<path d="M50.3,74.5l-4.7,4.9c-0.8,0.8-0.8,2,0,2.8c0.4,0.4,0.8,0.6,1.4,0.6s1-0.2,1.4-0.6l4.7-4.9c0.8-0.8,0.8-2,0-2.8
			C52.3,73.7,51.1,73.7,50.3,74.5z"/>
		<path d="M113.4,34.9c0.6,0,1-0.2,1.4-0.6l5.7-5.9c0.8-0.8,0.8-2,0-2.8c-0.8-0.8-2-0.8-2.8,0l-5.7,5.9c-0.8,0.8-0.8,2,0,2.8
			C112.4,34.7,112.8,34.9,113.4,34.9z"/>
		<path d="M121.1,45.2c0.2,1,1,1.6,2,1.6c0.2,0,0.2,0,0.4,0l7.5-1.6c1-0.2,1.8-1.2,1.6-2.4c-0.2-1-1.2-1.8-2.4-1.6l-7.7,1.6
			C121.5,43,120.7,44,121.1,45.2z"/>
		<path d="M122.5,65.4L130,67c0.2,0,0.2,0,0.4,0c1,0,1.8-0.6,2-1.6c0.2-1-0.4-2.2-1.6-2.4l-7.5-1.6c-1-0.2-2.2,0.4-2.4,1.6
			C120.7,64,121.5,65,122.5,65.4z"/>
		<path d="M115.8,74.5c-0.8-0.8-2-0.8-2.8,0s-0.8,2,0,2.8l4.7,4.9c0.4,0.4,1,0.6,1.4,0.6c0.6,0,1-0.2,1.4-0.6c0.8-0.8,0.8-2,0-2.8
			L115.8,74.5z"/>
	</g>
</g>
<g class="st0">
	<title>a</title>
	<g class="st1">
		<circle cx="65.5" cy="108" r="6.2"/>
		<path d="M171.5,91.8v-8.7c0-0.9-0.3-1.6-0.9-2.2L155,65.3c-0.6-0.6-1.2-0.9-2.2-0.9H106V33.2c0-3.4-2.8-6.2-6.2-6.2H68.6
			c-3.4,0-6.2,2.8-6.2,6.2V55H10.6c-1.9,0-3.4,0.6-4.7,2.2c-2.8,2.8-5.9,10-5.9,25.9v21.8c0,3.4,2.8,6.2,6.2,6.2h3.4
			c1.6,10.3,11.2,17.2,21.5,15.3c7.8-1.2,14-7.5,15.3-15.3h0.6c1.6,10.3,11.2,17.2,21.5,15.3c7.8-1.2,14-7.5,15.3-15.3H86
			c1.6,0,3.1-0.6,4.4-1.9l13.7-13.7c1.2-1.2,1.9-2.8,1.9-4.4v-8.1h39.3l6.2,6.2h-33.1c-3.4,0-6.2,2.8-6.2,6.2v20
			c0,2.5,1.2,4.7,3.4,5.6l10.9,5.3l0,0c0.3,0.3,0.9,0.3,1.2,0.3h9.4c1.9,0,3.1-1.2,3.1-3.1c0-1.9-1.2-3.1-3.1-3.1H131v-25h17.2
			c-7.4,8.5-6.1,21.7,3.7,28.1c7.1,4.7,16.9,4,23.1-1.9c8.2-7.7,8-20.6-0.3-27.8C173.7,93.4,172.8,92.4,171.5,91.8z M81.1,76.8V45.6
			h18.7v31.2H81.1z M6.2,83.1c0-15.6,3.4-20.6,4.4-21.8h51.8v28.4c-7.8,1.2-14,7.5-15.3,15.3h-0.3c0,0,0,0,0-0.3
			c-1.9-10.3-11.7-16.8-22.2-15c-7.9,1.2-14,7.5-15.2,15c0,0,0,0,0,0.3H6.2V83.1z M28.1,120.5c-6.9,0-12.5-5.6-12.5-12.5
			c0-6.9,5.6-12.5,12.5-12.5s12.5,5.6,12.5,12.5C40.6,114.9,35,120.5,28.1,120.5z M65.5,120.5c-6.9,0-12.5-5.6-12.5-12.5
			c0-6.9,5.6-12.5,12.5-12.5c6.9,0,12.5,5.6,12.5,12.5C78,114.9,72.4,120.5,65.5,120.5z M99.8,90.9l-14,14h-2.2
			c-1.3-7.6-7.3-13.7-15-15.6c-0.3,0,0.3,0,0,0V33.2h31.2v6.2H81.1c-3.4,0-6.2,2.8-6.2,6.2v31.2c0,3.4,2.8,6.2,6.2,6.2h18.7V90.9z
			 M146.6,76.8H106v-6.2h45.5l13.7,13.7v5H165c-0.9-0.3-1.9-0.3-2.8-0.3c-0.9,0-1.9,0-2.8,0.3H159V89c0-0.9-0.3-1.5-0.9-2.1
			l-9.4-9.1C148.1,77.1,147.5,76.8,146.6,76.8z M118.5,95.5h6.2v23.1l-6.2-3.1V95.5z M162.2,120.5c-6.9,0-12.5-5.6-12.5-12.5
			c0-5,2.8-9.4,7.5-11.2l0,0c2.5-0.9,5-1.2,7.5-0.6c6.9,1.6,10.9,8.1,9.7,15C173.2,116.4,168.2,120.5,162.2,120.5z"/>
		<circle cx="162.2" cy="108" r="6.2"/>
		<circle cx="28.1" cy="108" r="6.2"/>
		<path d="M15.6,83.1h25c1.9,0,3.1-1.2,3.1-3.1c0-1.9-1.2-3.1-3.1-3.1h-25c-1.9,0-3.1,1.2-3.1,3.1C12.5,81.8,13.8,83.1,15.6,83.1z"
			/>
		<path d="M15.6,73.7h25c1.9,0,3.1-1.2,3.1-3.1s-1.2-3.1-3.1-3.1h-25c-1.9,0-3.1,1.2-3.1,3.1S13.8,73.7,15.6,73.7z"/>
	</g>
</g>
<g>
	<title>015 - Tractor</title>
	<desc>Created with Sketch.</desc>
	<g>
		<g>
			<path d="M32.5,103.6c-8.4,0-14.9,6.6-14.9,14.9s6.6,14.9,14.9,14.9s14.9-6.6,14.9-14.9S40.9,103.6,32.5,103.6z M32.5,127.4
				c-5.1,0-9-3.9-9-9s3.9-9,9-9s9,3.9,9,9S37.6,127.4,32.5,127.4z"/>
			<path d="M122.1,121.5c-3.6,0-6.9,2.1-8.4,5.7c-1.5,3.3-0.6,7.2,2.1,9.9c2.7,2.7,6.6,3.3,9.9,2.1c3.3-1.5,5.7-4.8,5.7-8.4
				C131.1,125.7,127.2,121.5,122.1,121.5z M122.1,133.4c-1.8,0-3-1.5-3-3c0-1.8,1.5-3,3-3c1.8,0,3,1.5,3,3
				C125.1,132.2,123.9,133.4,122.1,133.4z"/>
			<path d="M46.3,149.2c8.7-3.9,15.2-11.6,17.9-20.9h37.3c-1.2,8.4,2.7,16.7,9.9,20.9 M133,148.3c6-3.6,9.9-10.2,10.2-17.3
				c0.3-7.2-3-13.7-9-17.9V89.2c0-1.5-1.2-2.7-2.7-3l-17.9-2.1l8.1-42.4h30.5h13.4c0.9,0,1.5-0.3,2.1-0.9l10.4-10.4
				c1.2-1.2,1.2-3,0-4.2L152.7,0.9c-1.2-1.2-3-1.2-4.2,0l-10.4,10.4c-0.6,0.6-0.9,1.2-0.9,2.1v13.4c0,0.9,0.3,1.5,0.9,2.1l6.9,6.9
				h-24.5l-6-6h13.6c0,0,3-2.1,3-3.9s-1.2-3-3-2.1h-20.9c-0.3-0.9-0.6-0.9-1.2-0.6c0,0-0.3,0-0.3,0.3c-0.3,0-0.6,0.3-1.3,0.3l0,0
				v0.3c0.4,0.3,0.4,0.3,0.4,0.6l2.5,0.3v0.3L93.4,81.2l-10-1.2V44.8c0-1.6-1.3-3-3-3H26.7c-1.8,0-3,1.2-3,3c0,1.8,1.2,3,3,3h3v26.9
				h-3c-1.8,0-3,1.2-3,3s1.2,3,3,3h3v5.4C14.8,87.1,2.8,98.5,0.4,113.1s5.1,29,18.5,35.2 M143.2,14.6l7.5-7.5l21.2,21.2l-7.5,7.5
				h-11l-10.2-10.2V14.6z M77.5,83.6v11.9H73c-3.6-6.9-9.6-12.8-16.4-16.4V47.7h20.9V83.6z M35.7,47.7h14.9v28.7
				c-3.9-1.2-7.8-1.8-11.9-1.8h-3V47.7z M38.7,80.6c4.8,0,9.3,0.9,13.7,3c7.2,3.3,12.8,9,16.1,16.1c2.1,4.2,3,9,3,13.7v9l-6,0
				c0-0.1-0.1-0.1-0.1-0.1c1.5-18.3-11.8-33.8-29.7-35.4v-6.3H38.7z M32.5,145.4c-11.3,0-21.5-7.2-25.4-17.9s-0.6-22.7,8.4-29.9
				c8.7-7.2,21.2-8.1,30.8-2.1c9.6,6,14.6,17.3,12.5,28.4C56.4,136.4,45.4,145.4,32.5,145.4z M137,130.4c0,8.4-6.6,14.9-14.9,14.9
				s-14.9-6.6-14.9-14.9c0-8.4,6.6-14.9,14.9-14.9S137,122.1,137,130.4z M128.2,111.3c-9.9-3-20.3,1.8-24.8,11h-26v-9
				c0-4.2-0.6-8.1-1.8-11.9h4.8c0,0,0,0,0.3,0c0.3,0,0,0,0,0l38.2,3h0.3c1.8,0,3-1.2,3-3c0-1.8-1.2-3-3-3l-35.8-2.7v-8.7l44.8,5.4
				V111.3z M99.1,81.8l9.9-49.9l6.9,6.9l-8.4,43.9L99.1,81.8z"/>
		</g>
	</g>
</g>
<g class="st0">
	<path class="st1" d="M193.3,7L0.2,144.6c-2,1.4-2.4,3.7-1,5.7l0,0l23.7,33.3c1.4,2,3.7,2.4,5.7,1l0,0L221.7,47c2-1.4,2.4-3.7,1-5.7
		l0,0L199,8C197.5,6,195.3,5.6,193.3,7L193.3,7z M200.3,52.2l-11.7,8.3c1.5-12.6-6.5-24-19-26.6l11.7-8.3L200.3,52.2z M43.2,145.1
		c-5.2-7.3-3.5-17.6,3.8-22.8s17.6-3.5,22.8,3.8c5.2,7.3,3.5,17.6-3.8,22.8C58.7,154.1,48.4,152.4,43.2,145.1z M63.2,109.7
		l21.6-15.4l7.1,10c1.4,2,3.7,2.4,5.7,1l0,0l26.6-19c2-1.4,2.4-3.7,1-5.7l0,0l-7.1-10l21.6-15.4c-1.5,12.6,6.5,24,19,26.6
		l-76.6,54.6C83.4,124,75.3,112.7,63.2,109.7z M149.7,69.2c-5.2-7.3-3.5-17.6,3.8-22.8c7.3-5.2,17.6-3.5,22.8,3.8s3.5,17.6-3.8,22.8
		S154.9,76.5,149.7,69.2z M111.4,75.3l4.7,6.7l-20,14.2l-4.7-6.7L111.4,75.3z M8.2,148.9l6.7-4.7l19,26.6l-6.7,4.7L8.2,148.9z
		 M21.6,139.4l11.7-8.3c-1.5,12.6,6.5,24,19,26.6L40.5,166L21.6,139.4z M213.7,42.7l-6.7,4.7l-19-26.6l6.7-4.7L213.7,42.7z"/>
	<path class="st1" d="M48.4,145.4l20-14.2c2-1.4,2.4-3.7,1-5.7s-3.7-2.4-5.7-1l-20,14.2c-2,1.4-2.4,3.7-1,5.7S46.4,146.8,48.4,145.4
		z"/>
	<path class="st1" d="M154.9,69.4l20-14.2c2-1.4,2.4-3.7,1-5.7c-1.4-2-3.7-2.4-5.7-1l-20,14.2c-2,1.4-2.4,3.7-1,5.7
		S152.9,70.9,154.9,69.4z"/>
</g>
<g class="st0">
	<path class="st1" d="M193.2-12.6l-29.2,34v31.6h-23.9V21.4l-29.2-34l-29.2,34v31.6H57.9V21.4l-29.2-34l-29.2,34v182.7h58.4V167
		h23.9v37.1h58.4V167H164v37.1h58.4V21.4L193.2-12.6z M49.9,198.8H4.9V167h45.1v31.7V198.8z M49.9,161.7H4.9V60.9h45.1v99.9V161.7z
		 M49.9,52.9H4.9V23.5L27.4-3.6l22.5,27.1v29.9V52.9z M81.8,161.7H57.9V60.9h23.9V161.7z M134.6,198.8H87.1V167h47.7v31.8H134.6z
		 M134.6,161.7H87.1V60.9h47.7v100.8H134.6z M134.6,52.9H87.1V23.5l23.9-27.1l23.9,27.1v29.4H134.6z M164,161.7h-23.9V60.9H164
		V161.7z M214.4,198.8h-45.1V167h45.1v31.7V198.8z M214.4,161.7h-45.1V60.9h45.1v99.9V161.7z M216.8,52.9h-47.5V23.5l23.9-27.1
		L217,23.5v29.4H216.8z"/>
</g>
</svg>
