<?xml version="1.0" encoding="utf-8"?>
<!-- Generator: Adobe Illustrator 23.0.4, SVG Export Plug-In . SVG Version: 6.00 Build 0)  -->
<svg version="1.1" id="Layer_1" xmlns="http://www.w3.org/2000/svg" xmlns:xlink="http://www.w3.org/1999/xlink" x="0px" y="0px"
	 viewBox="0 0 189.6 122.4" style="enable-background:new 0 0 189.6 122.4;" xml:space="preserve">
<style type="text/css">
	.st0{display:none;}
	.st1{display:inline;}
</style>
<g class="st0">
	<g class="st1">
		<path d="M4.3,134.6l204.3,0c2.4,0,4.6-1.4,5.4-3.6c1.2-3.7-1.6-7.2-5.1-7.2H197c3.5-12.1,8.6-26.4,16.2-37c0,0,0-0.3,0.3-0.3v-0.9
			c0,0-0.5-1.9-0.5-3c0-3-2.4-5.4-5.4-5.4c-0.8,0-1.6,0.3-2.2,0.5c-1.3,0.5-15.9,7-30,20c-2.2-7.8-4.3-18.1-5.4-30
			c-0.3-2.2-1.9-4.3-4-4.9c-2.2-0.5-4.6,0.3-5.9,2.2c-0.3,0.5-6.2,9.4-12.4,22.1c-5.1-22.4-1.9-48-1.6-48.3c0.3-2.7-1.1-5.1-3.5-5.9
			c-2.4-0.8-5.1,0.3-6.5,2.4l-40.5,71c-4.6-39.4,6.7-85.3,7-85.8c0.5-2.4-0.5-4.9-2.7-6.2c-2.2-1.1-4.9-0.5-6.5,1.3
			C77.5,34.7,68,58.2,62.3,78.9c-5.7-15.1-10.3-24-10.5-24.6c-1.3-2.4-4-3.5-6.5-2.7s-4,3.5-3.5,6.2c1.1,5.4,1.3,20.5,1.1,42.4
			C33.2,84.9,24.6,74.1,24,73.5c-1.6-2.2-4.6-2.7-7-1.3s-3.2,4.3-2.2,6.7c7.8,17.8,8.9,32.9,8.1,44.9H4.6c-3-1.5-5.4,1-5.4,3.9
			C-0.8,130.8,4.3,134.6,4.3,134.6z M193.5,97.9c-3.8,8.9-6.7,17.8-8.9,25.9h-16.7c2.4-4,5.4-7.8,8.9-11.3l0.3-0.3
			C182.4,106.3,188.4,101.7,193.5,97.9z M161.4,85.3c1.6,8.6,3.5,16.2,5.4,22.1c-4.6,5.1-8.4,10.5-11.3,16.5h-8.6
			c1.1-5.7,2.7-11.6,5.4-18.1C154.9,97.9,158.4,90.9,161.4,85.3z M141.1,103.9c-2.7,7-4.3,13.8-5.4,20h-37l35.1-61.8
			C134.1,74.7,135.7,90.7,141.1,103.9z M87.2,122.8l-0.5,1.1H75c-1.6-7.8-3.8-15.9-6.2-23.7c3-15.7,8.4-35.6,18.1-54.2
			C83.7,66.9,81.2,97.1,87.2,122.8z M58,101.7L58,101.7c2.2,7.6,4,14.8,5.7,22.1h-8.4c-0.8-1.6-1.6-3-2.4-4.3
			c0.3-10,0.5-20.8,0.5-31C55.1,92.6,56.4,96.9,58,101.7z M33.2,106.9c3.3,5.3,6.7,10.8,10,17c0,0,0,0,0,0l-9.4,0
			C34,119,34,113.3,33.2,106.9z"/>
	</g>
</g>
<g class="st0">
	<path class="st1" d="M53.9,156.6c1,1,1.5,2.2,1.5,3.4s-0.5,2.4-1.5,3.4c-1,1-2.2,1.5-3.4,1.5c-0.7,0-1.2-0.2-1.9-0.5
		c-0.5-0.2-1.2-0.5-1.5-1c-1-1-1.5-2.2-1.5-3.4s0.5-2.4,1.5-3.4c1.2-1.2,2.9-1.7,4.4-1.5c0.2,0,0.5,0.2,1,0.2
		c0.2,0.2,0.5,0.2,0.7,0.5S53.7,156.4,53.9,156.6z M201.6,167.8c-0.2-0.2-0.2-0.5-0.5-0.7c-0.2-0.2-0.5-0.5-0.5-0.7
		c-1.2-1.2-3-1.7-4.5-1.5c-0.2,0-0.7,0.2-1,0.2c-0.2,0.2-0.5,0.2-0.7,0.5c-0.2,0.2-0.5,0.5-0.7,0.5c-0.2,0.2-0.5,0.5-0.5,0.7
		c-0.2,0.2-0.2,0.5-0.5,0.7c-0.2,0.2-0.2,0.5-0.2,1c0,0.2,0,0.7,0,1c0,1.2,0.5,2.5,1.5,3.5c0.7,1.2,2,1.7,3.2,1.7
		c0.7,0,1.2-0.2,2-0.5c0.5-0.2,1.2-0.5,1.5-1c1-1,1.5-2.2,1.5-3.5c0-0.2,0-0.7,0-1C201.9,168.5,201.9,168,201.6,167.8z M221,175.9
		c-2.2,9.4-10,16.9-19.6,18.4c-9.7,1.6-18.4-2.6-23.5-9.4H75.2c-6.7,6.7-16.3,10.4-26.6,9.6c-16.4-1.3-29.7-14.5-31.2-30.9
		c-1.6-18.1,11-33.8,28.1-36.6L23.6,8.8C23.2,6.7,21.2,5,18.8,5L7.8,5C5.7,5,3.7,3.7,3,1.7C1.9-1.6,4.4-4.8,7.6-4.8H19
		c7.1,0,12.9,4.9,14.3,11.7l22.1,119.9c1.5,0.2,2.7,0.5,4.1,0.7l50.1,6.8v-15.1h-7.3c-2.7,0-4.9-2.2-4.9-4.9v-4.9
		c0-13.4,10.9-24.3,24.3-24.3h14.6c13.4,0,24.3,10.9,24.3,24.3v4.9c0,2.7-2.2,4.9-4.9,4.9h-7.3v20.2l49.1,6.6
		C212.7,146.3,224.5,160.4,221,175.9z M150.2,109.5c0-8-6.6-14.6-14.6-14.6H121c-8,0-14.6,6.6-14.6,14.6H150.2z M119.5,119.3v16.3
		l19.5,2.7v-19H119.5z M74.8,160c0-11.2-7.5-20.4-17.8-23.3l-6.8-1c-13.4,0.2-24.1,10.9-24.1,24.3s10.9,24.3,24.3,24.3
		S74.8,173.4,74.8,160z M178.9,153.5L77.5,139.9c4.4,5.8,7.1,12.9,7.1,20.7c0,5.4-1.2,10.2-3.4,14.6h91.4c-0.2-1.7-0.5-3.2-0.5-4.9
		C172.1,163.8,174.8,157.9,178.9,153.5z M211,169.7c0-8-6.6-14.6-14.6-14.6c-8,0-14.6,6.6-14.6,14.6s6.6,14.6,14.6,14.6
		C204.5,184.3,211,177.8,211,169.7z"/>
</g>
<g class="st0">
	<path class="st1" d="M27.3,139.8c4.2,0.4,7.7-1.1,10.4-4.1c4.2,5.1,11.8,5.7,16.9,1.2c0.6-0.3,0.9-0.9,1.2-1.2
		c4.2,5.1,11.8,5.7,16.9,1.2c0.6-0.3,0.9-0.9,1.2-1.2c4.2,5.1,11.8,5.7,16.9,1.2c0.6-0.3,0.9-0.9,1.2-1.2c4.2,5.1,11.8,5.7,16.9,1.2
		c0.6-0.3,0.9-0.9,1.2-1.2c4.2,5.1,11.8,5.7,16.9,1.2c2.4-2.1,3.9-4.8,4.2-8.1l31,31c1.1,1.1,2.3,1.2,5.5,0.2
		c10.6-3.4,17.7-13.4,17.7-24.6V88.6h3c1.7,0,3-1.3,3-3V73.5v-0.3v-0.3l-6-36.2c-0.3-1.5-1.5-2.4-3-2.4h-18.1c-1.5,0-2.7,1.2-3,2.4
		l-6,36.2v0.3v0.3v12.1c0,1.7,1.3,3,3,3h3v38l-30.1-30.1l0-59.3c0-6.3-5.1-12.2-11.3-12.6c-3.9-0.2-7.5,1.3-9.8,4.2
		c-4.2-5.1-11.8-5.7-16.9-1.2c-0.6,0.3-0.9,0.9-1.2,1.2c-4.2-5.1-11.8-5.7-16.9-1.2c-0.6,0.3-0.9,0.9-1.2,1.2
		C69.6,23.6,62.1,23,57,27.6c-0.6,0.3-0.9,0.9-1.2,1.2C51.6,23.6,44,23,38.9,27.6c-0.6,0.3-0.9,0.9-1.2,1.2
		c-4.2-5.1-12.1-5.7-16.9-1.2c-2.7,2.1-4.2,5.4-4.2,9l0,90.8C16.6,133.3,21.4,139.2,27.3,139.8z M185.4,82.6h-24.1v-6h24.1V82.6z
		 M166.4,40.4h13l5.1,30.1h-22.9L166.4,40.4z M179.4,88.6v51.2c0,7.2-5.1,13.3-12.1,14.8v-66H179.4z M161.3,134.3v15.7l-30.1-30.1
		v-15.7L161.3,134.3z M125.1,36.9c0,14.5,0,75.4,0,89.8c0,2.6-1.5,5.2-4,6c-4.2,1.4-8-1.7-8-5.7V36.6c0-4,3.9-7.1,8-5.7
		C123.6,31.7,125.1,34.3,125.1,36.9z M107,36.9c0,14.5,0,75.4,0,89.8c0,2.6-1.5,5.2-4,6c-4.2,1.4-8-1.7-8-5.7V36.6
		c0-4,3.9-7.1,8-5.7C105.5,31.7,107,34.3,107,36.9z M88.9,36.9c0,14.5,0,75.4,0,89.8c0,2.6-1.5,5.2-4,6c-4.2,1.4-8-1.7-8-5.7V36.6
		c0-4,3.9-7.1,8-5.7C87.4,31.7,88.9,34.3,88.9,36.9z M70.9,36.9c0,14.5,0,75.4,0,89.8c0,2.6-1.5,5.2-4,6c-4.2,1.4-8-1.7-8-5.7V36.6
		c0-4,3.9-7.1,8-5.7C69.3,31.7,70.9,34.3,70.9,36.9z M52.8,36.9c0,14.5,0,75.4,0,89.8c0,2.6-1.5,5.2-4,6c-4.2,1.4-8-1.7-8-5.7V36.6
		c0-4,3.9-7.1,8-5.7C51.2,31.7,52.8,34.3,52.8,36.9z M22.6,36.6c0-4,3.9-7.1,8-5.7c2.5,0.8,4,3.4,4,6c0,14.5,0,75.4,0,89.8
		c0,2.6-1.5,5.2-4,6c-4.2,1.4-8-1.7-8-5.7V36.6z"/>
	<path class="st1" d="M173.3,12.5c-1.8,0-3,1.2-3,3v9c0,1.8,1.2,3,3,3s3-1.2,3-3v-9C176.3,13.7,175.1,12.5,173.3,12.5z"/>
	<path class="st1" d="M176.3-5.6c0-1.8-1.2-3-3-3s-3,1.2-3,3v9c0,1.8,1.2,3,3,3s3-1.2,3-3V-5.6z"/>
	<path class="st1" d="M148.9,12.5c0,1.8,1.2,3,3,3c5.1,0,9,3.9,9,9c0,1.8,1.2,3,3,3s3-1.2,3-3c0-8.4-6.6-15.1-15.1-15.1
		C150.1,9.5,148.9,10.7,148.9,12.5z"/>
	<path class="st1" d="M194.1,9.5c-8.4,0-15.1,6.6-15.1,15.1c0,1.8,1.2,3,3,3c1.8,0,3-1.2,3-3c0-5.1,3.9-9,9-9c1.8,0,3-1.2,3-3
		S196,9.5,194.1,9.5z"/>
</g>
<g class="st0">
	<g class="st1">
		<path d="M94.5,69.9c-4.2,3.9-4.3,10.1-0.4,14.3c3.9,4.2,10.1,4.3,14.3,0.4c4.2-3.9,4.3-10.1,0.4-14.3
			C104.9,66.2,98.7,66,94.5,69.9z M103.7,79.7c-1.5,1.4-3.4,1.3-4.8-0.1c-1.4-1.5-1.3-3.4,0.1-4.8c1.5-1.4,3.4-1.3,4.8,0.1
			C105.3,76.4,105.2,78.3,103.7,79.7z"/>
		<path d="M204.8,90.7l-43.2-22.1l0,0c-0.2-0.2-0.7-0.3-1.2-0.3l0,0l0,0l-31.1-2.6l-0.2-0.2l-31.2-62l0,0
			C92.2-7.6,81.3-15.6,68.9-17.6c-6.3-1.1-12.4-0.5-18.3,1.3c-1.2-0.3-1.5,0-2,0.4c-0.5,0.5-0.8,0.7-0.8,1.2c-0.5,1-0.3,2.2,0.4,2.9
			l42.1,64.4l-0.5,0.5l-10.6,10L17.6,17.1c-1-0.5-2.2-0.8-2.9-0.5c-0.7,0.2-1,0.5-1.5,0.9c-0.5,0.5-0.8,0.7-0.8,1.2
			c-2.4,6-2.9,12.1-2.4,18.2l0,0l0,0l0,0c1.2,12.4,8.6,23.8,19.3,30.1l60,34.9l0.2,0.2l0.7,31.2l0,0l0,0c0,0.5,0.2,0.7,0.2,1.2l0,0
			L110,179c1.8,3.9,5.1,6.9,8.9,8.5c4.1,1.3,8.5,0.9,12.5-1c1.2-0.7,2.5-1.4,3.5-2.4c5.1-4.8,6.6-12.3,3.4-18.7l-21.5-43.1
			l-5.6-24.7l12.1-11.4l24.3,7.1l41.7,24c6.2,3.5,13.8,2.5,18.8-2.3c1-1,1.8-2.2,2.6-3.4c2.3-3.6,2.8-8.2,1.7-12.4
			C211.4,96.2,208.6,92.8,204.8,90.7z M92,9L92,9l25.2,48.8l-2.3-2.4c-0.7-0.7-1.4-1.5-2.3-2c-0.2-0.2-0.5-0.5-0.7-0.3
			c-0.7-0.3-1.2-0.7-1.9-1c-0.2-0.2-0.2-0.2-0.7-0.3c-0.9-0.5-1.9-0.5-2.8-1l-0.5,0l-0.5,0l0,0c1.2-1.2,1.5-2.8,0.6-4.3L76.2-5.8
			C82.8-3.2,88.9,2.2,92,9z M63.1-7.1c0.5,0,1,0,1.4,0c1,0,1.7,0.3,2.6,0.3L99,49.2l-2.4,2.3l-38.5-58C59.7-6.7,61.4-6.9,63.1-7.1z
			 M19.5,35.4c0-0.5,0-1,0-1.4c0-1.4,0.3-3.1,0.6-4.7L76,70.9l-2.4,2.3L19.6,38C19.6,37.1,19.7,36.1,19.5,35.4z M132.7,169.4
			c2,4.1,0.4,9.3-3.7,11.3c-2.2,1.1-4.3,1.3-6.9,0.5c-2.1-0.8-4-2.3-4.9-4.7l-18.1-40.8l13.5-6.3L132.7,169.4z M110.3,123.5
			L98,129.1l-1-23.1c0.7,0.3,1.4,0,2.4,0.1l0.5,0c0.5,0,1.2-0.2,1.7-0.2c0.2-0.2,0.5,0,0.7-0.2c0.5,0,0.7-0.2,1.4-0.4
			c0.2-0.2,0.7-0.2,1-0.4c0.2-0.2,0.7-0.2,1-0.4L110.3,123.5z M122.2,82.8l-14.7,13.8c-2.7,2.5-7,3.4-10.5,2.1
			c-0.5,0-0.9-0.5-1.6-0.8L36.4,63.3c-6.5-4-11.6-9.9-14-16.8l50.4,32.9c1.2,0.7,3.1,0.8,4.3-0.3l7.3-6.9l12.2-11.5
			c4.1-3.8,10.4-3.6,14.3,0.4l11.5,12.2c0.5,0.5,1.4,1,2.1,1.3l3.1,0.3l0,0l27.5,2.7l-6.3,11.9l-23.3-7.1
			C124.4,81.7,123.2,81.9,122.2,82.8z M204.1,104.4c0.6,2.2,0.3,4.8-0.9,6.9c-2.3,4-7.5,5.2-11.5,3l-38.4-22.6l7.1-13.1L200,99
			C201.9,100.5,203.5,102.2,204.1,104.4z"/>
	</g>
</g>
<g class="st0">
	<g class="st1">
		<g>
			<path d="M118.7,65c11.5-1.5,20.9-7.9,20.9-14.9c0-4.9-4.4-8.5-8.2-10.7c-5.5-3.2-11.9-4.5-18.1-4.5c4-4,7.4-9,9.2-14.4
				c1.5-4.7,2.3-11-1.3-14.9c-3.3-3.3-9-3-13.4-1.8c-6,1.7-11.7,5.2-16.1,9.7c0-8.2-2.3-17.9-8.9-23.6c-2.3-2.2-5.7-3.3-9-2.2
				c-4.2,1.5-7,5.5-8.9,9.4c-2.5,5-3.7,10.7-3.5,16.4c-4.4-4.4-9.9-7.9-15.9-9.5c-4.4-1.2-10-1.7-13.6,1.8c-3.8,3.8-3,10.2-1.3,14.9
				c1.8,5.5,5.2,10.4,9.2,14.4c-6.2,0-12.7,1.3-18.1,4.5c-3.8,2-8.2,5.7-8.2,10.5c0,4.9,4.4,8.5,8.2,10.7c5.5,3.2,11.9,4.5,18.1,4.5
				c-4,4-7.4,9-9.2,14.4c-1.5,4.7-2.3,11,1.3,14.9c3.8,3.8,10.2,2.8,14.7,1.3c5.5-1.8,10.5-5.2,14.6-9.2c0,6.2,1.3,12.7,4.5,18.1
				c2.2,3.8,5.9,8,10.7,8c4.9,0,8.5-4.2,10.7-8c3.2-5.5,4.5-11.9,4.5-18.1c4,4.2,9,7.4,14.6,9.2c4.5,1.5,10.9,2.3,14.7-1.3
				c4.9-4.9,2.3-13.4-0.2-18.6c2.3,2.3,4.5,4.9,6.7,7.7c14.2,18.9,24.4,52.5-6,105.9c-2.2,3.7,3.7,7,5.9,3.3
				c10.9-18.9,16.7-35.6,19.2-50.2c6.7,2.7,14.2,3.8,21.3,1.7c5.7-1.7,9-5,14.1-9.9c7.7-7.4,15.7-14.1,24.4-20.1
				c1.8-1.2,2-4,0.2-5.4c-13.2-10.5-31.8-12.2-46-4c-5.9,3.3-9.9,7.7-12.9,12C144.8,90.6,129.6,73.9,118.7,65z M113.7,41.6
				c11.9,0,19.4,6,19.4,8.5s-7.5,8.5-19.4,8.5c-5.2,0-9.4-1.2-12.6-2.5c1-3.8,1-7.9,0-11.9C104.3,42.8,108.5,41.6,113.7,41.6z
				 M96.8,18c8.7-9.5,19.1-8.2,19.6-7.5c0.5,0.7,1.8,9.4-7.5,19.6c-3.5,3.7-7.4,5.9-10.7,7c-2-3.3-5-6.4-8.4-8.4
				C90.9,25.4,93.3,21.5,96.8,18C103,11.8,93.4,21.7,96.8,18z M76.7-6.1c2.5,0,8.5,7.5,8.5,19.4c0,5-1.2,9.4-2.5,12.6
				c-3.8-1-8-1-11.9,0c-1.5-3.2-2.5-7.5-2.5-12.6C68.2,1.4,74.2-6.1,76.7-6.1z M36.9,10.5C37.4,9.8,47.6,9,56.4,18l0,0
				c3.5,3.5,5.9,7.4,7,10.7c-3.3,2.2-6.4,5-8.4,8.4c-3.3-1.2-7.4-3.3-10.7-7C34.4,19.2,36.4,11.1,36.9,10.5z M39.7,58.7
				c-11.9,0-19.4-6-19.4-8.5s7.5-8.5,19.4-8.5c5.2,0,9.4,1.2,12.6,2.5c-1,3.8-1,8,0,11.9C49.1,57.5,44.7,58.7,39.7,58.7z M56.6,82.3
				c-8.4,8.4-17.9,9.4-19.7,7.7c-0.3-0.3-2.8-9.5,7.7-19.7c3.7-3.5,7.4-5.9,10.7-7c2,3.3,5,6.4,8.4,8.4C62.3,75.1,60,78.9,56.6,82.3
				z M76.7,106.5c-2.5,0-8.5-7.5-8.5-19.4c0-5,1.2-9.4,2.5-12.6c3.8,1,8,1,11.9,0c1.5,3.2,2.5,7.5,2.5,12.6
				C85.2,99,79.2,106.5,76.7,106.5z M76.7,68.5c-10.2,0-18.4-8.2-18.4-18.4s8.2-18.4,18.4-18.4s18.4,8.2,18.4,18.4
				S86.7,68.5,76.7,68.5z M116.5,90c-1.8,1.8-11.4,0.7-19.7-7.7c-3.5-3.5-5.9-7.4-7-10.7c3.3-2,6.4-5,8.4-8.4c3.3,1.2,7,3.5,10.7,7
				C119.4,79.9,116.9,89.6,116.5,90z M163.7,111c8.7-4.9,19.2-5.5,28.6-2.2c-9.9,1.7-19.4,6.4-27.1,10.5c-7,4-12.2,7.4-16.2,10.4
				C150.8,123.9,154.8,116.1,163.7,111z M188.6,119.6c-5,4.2-8.5,7.5-11.4,10.4c-4.7,4.5-7.2,7-11.4,8.2c-4.5,1.3-9.5,1-15.4-1
				c4.4-3.3,9.9-7.2,18.1-11.7c9.9-5.5,18.1-8.9,25.3-9.9C192,116.7,190.3,118.2,188.6,119.6z"/>
		</g>
	</g>
</g>
<g class="st0">
	<title>Artboard 10</title>
	<g class="st1">
		<path d="M48.7,110.3c-0.7-1.9-2.3-3.3-4.5-3.3H19.4l-8.2-24.9c-0.9-2.3-3.5-3.8-5.9-3C3,80,1.5,82.6,2.3,85l8.9,26.7l-8.9,26.7
			c-0.7,2.3,0.5,5.2,3,5.9c2.3,0.7,5.2-0.5,5.9-3l8.2-24.9h21.3l8.2,24.9c0.9,2.3,3.5,3.8,5.9,3c2.3-0.9,3.8-3.5,3-5.9L48.7,110.3z"
			/>
		<path d="M127.6,78.9H99.5V32h75c2.6,0,4.7-2.1,4.7-4.7l0,0v-9.4c0-1.9-0.9-3.5-2.6-4.2L96.8-23.9c-1.2-0.7-2.8-0.7-4,0L13,13.7
			c-1.6,0.7-2.6,2.3-2.6,4.2v9.4c0,2.6,2.1,4.7,4.7,4.7l0,0h75v46.9H63c-2.6-0.5-4.7,1.6-4.7,4.2c0,2.6,2.1,4.7,4.7,5.2h27.1v46.9
			l-4.7,0c-1.7,0-3.3,0.8-4.1,2.3c-1.8,3.5,0.7,7.1,4.1,7.1l18.8,0c1.7,0,3.3-0.8,4.1-2.3c1.8-3.5-0.7-7.1-4.1-7.1h-4.7V88.2l27.9,0
			c2,0,4-1.2,4.7-3.1C133.1,81.9,130.7,78.9,127.6,78.9z M19.8,20.9l75-35.4l75,35.4v1.6H19.8V20.9z"/>
		<path d="M180.5,111.7l8.9-26.7c0.7-2.3-0.5-5.2-3-5.9c-2.3-0.7-5.2,0.5-5.9,3l-8.2,24.9h-24.9c-2.1,0-3.8,1.4-4.5,3.3l-9.4,28.1
			c-0.7,2.3,0.5,5.2,3,5.9c2.3,0.7,5.2-0.5,5.9-3l8.2-24.9H172l8.2,24.9c0.9,2.3,3.5,3.8,5.9,3c2.3-0.9,3.8-3.5,3-5.9L180.5,111.7z"
			/>
	</g>
</g>
<g>
	<path d="M188.9,61.4c-2.5-10.7-11.2-18.7-21.7-20.8c0-0.6-0.2-1.3-0.4-1.9c-1.7-7.2-5.9-13.3-12.2-17.1c-5.1-3.2-10.9-4.6-16.8-4
		c-4.8-12.6-18.3-20-31.8-16.8c-4,0.8-7.8,2.7-10.9,5.3C89.9,2.2,84,0.1,77.9,0.1C67,0.1,57.1,6.8,52.9,16.7
		c-14.7-1.1-27.2,9.7-29.1,23.6C10.3,42,0,53.6,0,67.5c0,11.6,7.4,22.1,18.1,25.9c0,0,0,0,0,0c-0.6,14.1,9.6,25.1,26.5,28.6
		c1.7,0.4,14.3,0.4,30.3,0.4c24,0,55.6-0.2,69.1-0.4l8.2-0.6h0.6c12.2-2.7,21.3-15.8,21.3-29.1C185.5,86.9,191.8,74,188.9,61.4z
		 M168.5,85.8l-3.2,1.1l0.4,3.2c1.3,10.1-5.5,20.8-14.6,23.2l-7.4,0.6c-37.3,0.4-94.1,0.6-98.1,0c-4.7-1.1-20.1-5.3-20.1-19.4
		c0-1.3,0.2-2.5,0.4-3.6l0.8-4l-4-0.8c-8.9-1.9-15.3-9.9-15.3-19c0-10.7,8.7-19.4,19.3-19.4h4v-4c0-10.7,8.7-19.4,19.3-19.4
		c1.3,0,2.5,0.2,4,0.4l3.8,0.6l1.1-3.6c2.3-8.2,10-13.9,18.7-13.9c5.3,0,10.4,2.1,14,5.9l3,3.2l3-3.2c2.5-2.7,5.9-4.8,9.8-5.7
		c10.4-2.3,20.8,4,23.3,14.5l0.8,4l4-0.8c5.1-1.3,10.2-0.2,14.6,2.3c4.5,2.7,7.4,6.9,8.7,12c0.2,1.3,0.4,2.5,0.4,3.8v3.8l3.8,0.2
		c8.5,0.4,15.9,6.5,17.8,15C183.1,72.7,177.8,82.6,168.5,85.8z"/>
	<path d="M145.9,58.7c-6.1-3.2-13.3-2.3-18.3,2.1c-3.8-1.9-8-2.3-12-1.1c-4.2,1.3-7.6,4-9.7,8c-0.4,0.8-0.2,1.7,0.6,2.1
		c0.8,0.4,1.7,0.2,2.1-0.6c1.7-3.2,4.4-5.5,7.8-6.5c3.4-1.1,6.9-0.6,10.1,1.1c0.2,0,0.2,0.2,0.4,0.2l1.1,0.6l0.8-0.8
		c4.2-4.2,10.5-5.1,15.6-2.3c6.5,3.4,8.8,11.6,5.5,18.1c-0.4,0.8-0.2,1.7,0.6,2.1c0.2,0.2,0.4,0.2,0.6,0.2c0.6,0,1.1-0.2,1.3-0.8
		C156.9,73.1,153.9,62.9,145.9,58.7z"/>
	<path d="M64.2,40.6c-4.2-1.3-8.6-0.6-12.4,1.5c-5.9,3.4-9.3,9.9-8.2,16.6c-7.6,4.4-10.3,14.3-5.9,22.1c0.2,0.4,0.8,0.8,1.3,0.8
		c0.2,0,0.4,0,0.8-0.2c0.8-0.4,1.1-1.3,0.6-2.1c-3.6-6.3-1.3-14.5,5.3-18.1c0.2,0,0.2-0.2,0.4-0.2l1.1-0.4L47,59.4
		c-1.3-5.7,1.5-11.6,6.5-14.3c3.2-1.7,6.7-2.1,10.1-1.3c3.4,1.1,6.3,3.2,8,6.3c0.4,0.8,1.3,1.1,2.1,0.6c0.8-0.4,1.1-1.3,0.6-2.1
		C72,44.6,68.5,41.9,64.2,40.6z"/>
</g>
<g class="st0">
	<g class="st1">
		<g>
			<g>
				<rect x="9.6" y="142.1" width="31.1" height="9.6"/>
				<rect x="78.8" y="142.1" width="31.1" height="9.6"/>
				<rect x="112.3" y="142.1" width="31.1" height="9.6"/>
				<rect x="43" y="142.1" width="31.1" height="9.6"/>
				<rect x="145.7" y="142.1" width="31.1" height="9.6"/>
				<rect x="181.5" y="142.1" width="31.1" height="9.6"/>
				<rect x="26.3" y="156.4" width="31.1" height="9.6"/>
				<rect x="59.7" y="156.4" width="31.1" height="9.6"/>
				<rect x="95.6" y="156.4" width="31.1" height="9.6"/>
				<rect x="129" y="156.4" width="31.1" height="9.6"/>
				<rect x="162.4" y="156.4" width="31.1" height="9.6"/>
				<rect x="198.3" y="156.4" width="11.9" height="9.6"/>
				<rect x="9.6" y="170.8" width="31.1" height="9.6"/>
				<rect x="43" y="170.8" width="31.1" height="9.6"/>
				<rect x="78.8" y="170.8" width="31.1" height="9.6"/>
				<rect x="112.3" y="170.8" width="31.1" height="9.6"/>
				<rect x="145.7" y="170.8" width="31.1" height="9.6"/>
				<rect x="181.5" y="170.8" width="31.1" height="9.6"/>
				<rect x="26.3" y="185.1" width="31.1" height="9.6"/>
				<rect x="59.7" y="185.1" width="31.1" height="9.6"/>
				<rect x="9.6" y="156.4" width="11.9" height="9.6"/>
				<rect x="9.6" y="185.1" width="11.9" height="9.6"/>
				<rect x="95.6" y="185.1" width="31.1" height="9.6"/>
				<rect x="129" y="185.1" width="31.1" height="9.6"/>
				<rect x="162.4" y="185.1" width="31.1" height="9.6"/>
				<rect x="198.3" y="185.1" width="11.9" height="9.6"/>
			</g>
			<path d="M210.2,17.9v-2.4h-14.3V-1.3l2.4-3.3l-5.7-15.8L187-4.6l4.1,3.3v16.8h-23.9V-1.3l3.6-3.3l-5.5-15.8l-5.5,15.8l2.6,3.3
				v16.8h-21.5V-0.3l3.5-3.3l-6-15.8l-5.8,15.8l3.5,3.3v15.8h-23.9V-1.3l3.8-3.3l-5.5-15.8l-5.5,15.8l2.4,3.3v16.8H86V-1.3l2.9-3.3
				l-5.5-15.8L77.9-4.6l3.3,3.3v16.8H57.3V-0.3l3.5-3.3l-6-15.8L49-3.6l3.5,3.3v15.8H31.1V-1.3l3.1-3.3l-5.5-15.8L23.2-4.6l3.1,3.3
				v16.8H9.6v4.8h16.7v93.2H9.6v4.8h16.7v19.1h4.8v-19.1h21.5v19.1h4.8v-19.1h23.9v19.1H86v-19.1h21.5v19.1h4.8v-19.1h23.9v19.1h4.8
				v-19.1h21.5v19.1h4.8v-19.1h23.9v19.1h4.8v-19.1h14.3v-4.8h-16.7V17.9H210.2z M31.1,113.4V17.9h23.9v95.5H31.1z M57.3,113.4V17.9
				h23.9v95.5H57.3z M86,113.4V17.9h23.9v95.5H86z M112.3,113.4V17.9h23.9v95.5H112.3z M138.6,113.4V17.9h23.9v95.5H138.6z
				 M191.1,113.4h-23.9V17.9h23.9V113.4z"/>
		</g>
	</g>
</g>
<g class="st0">
	<g class="st1">
		<g>
			<g>
				<g>
					<path d="M45.7,15.3c1.6,1.6,3.3,3.3,4.9,4.9c3.9,3.9,7.9,7.9,11.8,11.8c4.7,4.7,9.5,9.5,14.2,14.2c4.1,4.1,8.2,8.2,12.3,12.3
						c2,2,3.9,4.1,6,6c0,0,0.1,0.1,0.1,0.1c0-1.9,0-3.8,0-5.7l-8.5,8.5h5.7c-1.6-1.6-3.3-3.3-4.9-4.9c-3.9-3.9-7.9-7.9-11.8-11.8
						c-4.7-4.7-9.5-9.5-14.2-14.2c-4.1-4.1-8.2-8.2-12.3-12.3c-2-2-4-4.1-6-6c0,0-0.1-0.1-0.1-0.1c-1.5-1.5-4.2-1.6-5.7,0
						c-0.4,0.4-0.8,0.8-1.2,1.2c-0.2,0.2-0.4,0.4-0.7,0.7c0,0-0.1,0.1-0.1,0.1c-0.1,0.1-0.1,0.1-0.2,0.2c-0.4,0.4,0.1-0.2,0.2-0.2
						c0,0-0.6,0.3-0.6,0.4c0,0,0.8-0.3,0.4-0.2c-0.4,0.1,0.5-0.1,0.5-0.1c0.3,0,0.6,0.1,0.9,0.2c0.5,0.1,0.2,0.1,0,0
						c0,0,0.6,0.4,0.2,0.1c-0.4-0.4,0.3,0.4,0.3,0.4c-0.1-0.1-0.2-0.2-0.3-0.3c-1.4-1.9-2.8-3.8-4.2-5.6c-3-4-6.1-8-9-12
						c-0.1-0.1-0.1-0.2-0.2-0.3c-0.2-0.3-0.4-0.8-0.1-0.1c-0.1-0.2-0.3-0.5,0,0c0.2,0.3,0,0.3,0,0c0,0-0.2,0.8,0,0.4
						c0.2-0.5-0.3,0.7-0.1,0.2c0.2-0.4-0.4,0.3-0.1,0.2C22.9,3.1,23,3,23.1,2.9C24,2,25,1.1,25.9,0.2C27-1,28.2-2.1,29.3-3.3
						c0.4-0.4,0.8-0.8,1.1-1.1c0.1-0.1,0.2-0.2,0.3-0.3C31-5,30.2-4.4,30.6-4.6c0.4-0.2-0.3,0.1-0.3,0.1c0.1,0,0.6-0.1,0,0
						c-0.5,0.1-0.1,0,0,0c0,0-0.8-0.1-0.4,0s-0.3-0.1-0.3-0.1c0,0,0.4,0.2,0.4,0.2c0.1,0.1,0.3,0.2,0.4,0.3c0.1,0.1,0.2,0.2,0.4,0.3
						c0.7,0.5,1.4,1.1,2.2,1.6c2.5,1.9,5,3.8,7.5,5.7c2.2,1.7,4.5,3.4,6.7,5c0.4,0.3,0.8,0.6,1.3,1C48.5,9.4,48,9,48,9
						c0.1,0.1,0.5,0.3,0.1,0c-0.3-0.2-0.1-0.2,0,0c-0.1-0.3-0.2-0.5-0.3-0.8c0-0.3,0-0.6,0.1-0.9c0,0.2-0.2,0.4,0.1,0
						c0.4-0.8-0.3,0.3-0.2,0.3c0-0.1,0.5-0.6,0.2-0.3c-0.1,0.1-0.2,0.2-0.3,0.3c0,0-0.1,0.1-0.1,0.1c-0.2,0.2-0.5,0.5-0.7,0.7
						c-0.4,0.4-0.8,0.8-1.2,1.2C44.2,11.1,44.1,13.9,45.7,15.3c1.6,1.5,4.1,1.6,5.7,0c1.2-1.2,2.5-2.3,3.4-3.7
						c1-1.6,1.4-3.6,0.8-5.4c-0.5-1.7-1.7-2.8-3.1-3.8c-1.7-1.3-3.5-2.6-5.3-4c-2.9-2.1-5.7-4.3-8.6-6.4c-1.6-1.2-3.2-2.7-5-3.6
						c-3-1.6-6.4-1.1-8.8,1.3c-1,0.9-1.9,1.9-2.8,2.8c-1.2,1.2-2.5,2.5-3.7,3.7c-1.1,1.1-2.2,2.1-2.8,3.6c-1.1,2.5-0.5,5.3,1.1,7.4
						c0.5,0.7,1.1,1.5,1.7,2.2c2,2.7,4.1,5.5,6.1,8.2c1.7,2.3,3.4,4.5,5.1,6.8c1.2,1.5,2.3,3,4.3,3.6c3.1,1.1,5.7-0.8,7.8-2.9
						c0.5-0.5,0.9-0.9,1.4-1.4h-5.7c1.6,1.6,3.3,3.3,4.9,4.9c3.9,3.9,7.9,7.9,11.8,11.8c4.7,4.7,9.5,9.5,14.2,14.2
						c4.1,4.1,8.2,8.2,12.3,12.3c2,2,4,4.1,6,6c0,0,0.1,0.1,0.1,0.1c1.9,1.9,5.3,1.5,6.5-1.2c2.3-2.3,4.4-4.3,6.7-6.6
						c2.5-1.3,2.8-4.6,1-6.5c-1.6-1.6-3.3-3.3-4.9-4.9c-3.9-3.9-7.9-7.9-11.8-11.8c-4.7-4.7-9.5-9.5-14.2-14.2
						c-4.1-4.1-8.2-8.2-12.3-12.3c-2-2-4-4.1-6-6c0,0-0.1-0.1-0.1-0.1c-1.5-1.5-4.3-1.6-5.7,0C44.2,11.2,44.1,13.7,45.7,15.3z"/>
				</g>
			</g>
			<g>
				<g>
					<path d="M192.9,156.9c-2.1,2.1-4.2,4.2-6.3,6.3c-0.7,0.7-1.4,1.5-2.2,2.2c-0.3,0.3-0.6,0.5-0.9,0.8c-0.5,0.5,0.6-0.4-0.2,0.2
						c-0.6,0.4-1.2,0.7-1.9,1.1c-0.6,0.3,0.7-0.2-0.2,0.1c-0.3,0.1-0.6,0.2-0.9,0.3c-0.4,0.1-0.7,0.2-1.1,0.3c-0.1,0-0.3,0-0.4,0.1
						c-0.5,0.1,0.9-0.1,0.1,0c-0.6,0-1.3,0.1-1.9,0.1c-0.3,0-0.6,0-1-0.1c-0.6,0,0.8,0.2,0.2,0c-0.2-0.1-0.5-0.1-0.7-0.1
						c-0.6-0.1-1.3-0.3-1.9-0.6c-0.7-0.2,0.7,0.3-0.2-0.1c-0.3-0.2-0.7-0.3-1-0.5c-0.3-0.2-0.6-0.4-0.9-0.5c-0.6-0.4,0,0.1,0.1,0.1
						c-0.1-0.1-0.4-0.3-0.4-0.4c-0.2-0.2-0.4-0.4-0.7-0.6c-0.1-0.1-0.2-0.2-0.3-0.3c-1.3-1.3-2.6-2.6-3.9-3.9
						c-5.1-5.1-10.2-10.3-15.4-15.4c-4.6-4.6-9.1-9.1-13.7-13.7c-0.5-0.5-1-1-1.4-1.4c-0.1-0.1-0.2-0.2-0.3-0.3
						c0-0.1-0.4-0.5-0.4-0.4c0.1,0,0.5,0.8,0.1,0.1c-0.1-0.1-0.1-0.2-0.2-0.4c-0.1-0.1-0.4-0.6-0.1-0.1c0.3,0.4,0-0.1-0.1-0.3
						c0-0.2-0.3-1.2-0.1-0.5c0.1,0.6,0-0.3,0-0.5c0-0.7-0.2,0.8,0-0.1c0-0.2,0.1-0.4,0.1-0.5c0.1-0.2,0.3-0.6,0-0.2
						c-0.3,0.5,0.2-0.4,0.3-0.5c0.4-0.7-0.1,0.1-0.1,0.1c0-0.1,0.4-0.4,0.4-0.4c0.1-0.1,0.2-0.2,0.3-0.3c1.2-1.2,2.5-2.5,3.7-3.7
						c0.3-0.3,0.7-0.7,1-1c1.5-1.5,1.6-4.2,0-5.8c-4.9-4.9-9.9-9.9-14.8-14.8c-0.7-0.7-1.4-1.4-2.1-2.1c0,1.9,0,3.8,0,5.8
						c2.8-2.8,5.6-5.6,8.5-8.5c-1.9,0-3.8,0-5.7,0c4.9,4.9,9.9,9.9,14.8,14.8c0.7,0.7,1.4,1.4,2.1,2.1c1.5,1.5,4.2,1.6,5.7,0
						c1.6-1.6,3.3-3.3,4.9-5c0,0,0.4-0.4,0.4-0.4c0,0-0.6,0.4-0.2,0.2c0.1-0.1,0.2-0.2,0.4-0.2c0.1-0.1,0.3-0.1,0.4-0.2
						c0.3-0.2-0.3,0.1-0.3,0.1c0.2,0,0.7-0.2,0.9-0.3c0.1,0,0.3,0,0.4-0.1c0,0-0.8,0-0.4,0.1c0.3,0,0.6,0,0.8,0c0.4,0-0.4,0-0.4-0.1
						c0.1,0.1,0.3,0.1,0.4,0.1c0.2,0.1,0.7,0.3,0.9,0.3c-0.1,0-0.7-0.4-0.3-0.1c0.1,0.1,0.2,0.1,0.4,0.2s0.2,0.2,0.4,0.2
						c0.4,0.2-0.3-0.2-0.2-0.2c0,0,0.4,0.4,0.4,0.4c0.1,0.1,0.1,0.1,0.2,0.2c2.8,2.8,5.6,5.6,8.5,8.5c4.7,4.7,9.4,9.4,14.1,14.1
						c3.6,3.6,7.2,7.2,10.8,10.8c0.4,0.4,0.8,0.8,1.1,1.1c0.1,0.1,0.2,0.2,0.2,0.2l0,0c0.2,0.2,0.4,0.4,0.6,0.7
						c0.1,0.1,0.2,0.2,0.3,0.3c0.4,0.4-0.4-0.6-0.1-0.1c0.3,0.5,0.6,1,0.9,1.5c0.1,0.2,0.2,0.5,0.4,0.8c0.2,0.4-0.1-0.3-0.1-0.3
						c0,0.2,0.2,0.5,0.2,0.7c0.2,0.5,0.3,1.1,0.4,1.6c0,0.1,0.1,0.3,0.1,0.4c0,0.2,0.2,0.4,0,0c-0.2-0.4,0-0.2,0,0
						c0,0.2,0,0.4,0,0.5c0,0.5,0,1.1,0,1.7c0,0.3-0.1,0.6-0.1,0.8c0,0,0.1-0.8,0-0.4c0,0.2-0.1,0.4-0.1,0.5
						c-0.1,0.5-0.3,1.1-0.4,1.6c0,0.1-0.1,0.3-0.1,0.4c-0.3,0.7,0-0.1,0.1-0.2c-0.2,0.1-0.3,0.7-0.4,0.9c-0.3,0.5-0.6,1-0.9,1.5
						c-0.2,0.4,0.2-0.2,0.2-0.2c0,0-0.3,0.3-0.3,0.3C193.4,156.4,193.2,156.7,192.9,156.9c-1.5,1.5-1.6,4.2,0,5.8
						c1.6,1.5,4.2,1.6,5.7,0c4.3-4.4,6.1-10.7,4.8-16.7c-0.8-3.5-2.7-6.5-5.2-8.9c-3.2-3.3-6.5-6.5-9.7-9.8
						c-4.9-4.9-9.8-9.9-14.8-14.8c-3.2-3.2-6.4-6.4-9.6-9.6c-2.9-2.9-6.9-4.3-10.9-3.2c-3.8,1-6.4,4.3-9,7c-0.3,0.3-0.5,0.5-0.8,0.8
						c1.9,0,3.8,0,5.7,0c-4.9-4.9-9.9-9.9-14.8-14.8c-0.7-0.7-1.4-1.4-2.1-2.1c-1.5-1.5-4.2-1.6-5.7,0c-2.8,2.8-5.6,5.6-8.5,8.5
						c-1.5,1.5-1.6,4.2,0,5.8c4.9,4.9,9.9,9.9,14.8,14.8c0.7,0.7,1.4,1.4,2.1,2.1c0-1.9,0-3.8,0-5.8c-1.1,1.1-2.1,2.1-3.2,3.2
						c-1.4,1.4-3,2.8-3.9,4.7c-1.8,4-1.3,8.3,1.5,11.7c0.4,0.4,0.8,0.8,1.1,1.2c4.1,4.1,8.3,8.3,12.4,12.4
						c5.5,5.5,11,11.1,16.6,16.6c4.3,4.3,8.4,9.3,14.8,10.4c6.1,1,11.9-1,16.3-5.3c2.5-2.5,4.9-4.9,7.4-7.4c0.2-0.2,0.4-0.4,0.7-0.7
						c1.5-1.5,1.6-4.3,0-5.8C197.1,155.4,194.5,155.3,192.9,156.9z"/>
				</g>
			</g>
			<g>
				<g>
					<path d="M152.9,122.6c3.2,3.2,6.5,6.5,9.7,9.7c5.2,5.2,10.3,10.3,15.4,15.4c1.2,1.2,2.4,2.4,3.5,3.5c1.5,1.5,4.3,1.6,5.7,0
						s1.6-4.1,0-5.7c-3.2-3.2-6.5-6.5-9.7-9.7c-5.2-5.2-10.3-10.3-15.4-15.4c-1.2-1.2-2.4-2.4-3.5-3.5c-1.5-1.5-4.3-1.6-5.7,0
						C151.4,118.4,151.3,121,152.9,122.6L152.9,122.6z"/>
				</g>
			</g>
			<g>
				<g>
					<path d="M178.8,154c-3.2-3.2-6.5-6.5-9.7-9.7c-5.2-5.2-10.3-10.3-15.4-15.4c-1.2-1.2-2.4-2.4-3.5-3.5c-1.5-1.5-4.3-1.6-5.7,0
						c-1.5,1.6-1.6,4.1,0,5.7c3.2,3.2,6.5,6.5,9.7,9.7c5.2,5.2,10.3,10.3,15.4,15.4c1.2,1.2,2.4,2.4,3.5,3.5c1.5,1.5,4.3,1.6,5.7,0
						C180.3,158.1,180.5,155.6,178.8,154L178.8,154z"/>
				</g>
			</g>
		</g>
		<g>
			<g>
				<g>
					<path d="M197.4,26.7c-4.8,4.8-9.7,9.7-14.6,14.6c-2.3,2.3-4.7,4.7-7,7c-0.2,0.2-0.3,0.3-0.5,0.5c-0.4,0.4-0.9,0.9-1.3,1.2
						c-0.4,0.3-0.8,0.6-1.1,0.9c0.1-0.1,0.6-0.5,0-0.1c-0.3,0.2-0.5,0.4-0.8,0.5c-0.7,0.5-1.4,0.9-2.2,1.3c-0.4,0.2-0.8,0.4-1.1,0.6
						c-0.2,0.1-0.5,0.2-0.7,0.3c-0.4,0.2-0.5,0.3,0,0c-0.8,0.4-1.8,0.7-2.6,0.9c-0.9,0.3-1.8,0.5-2.7,0.6c-0.2,0-0.4,0.1-0.6,0.1
						c-0.6,0.1,0.1-0.1,0.2,0c-0.1-0.1-1.1,0.1-1.2,0.1c-0.9,0.1-1.8,0.1-2.8,0.1c-0.9,0-1.9,0-2.8-0.2c0.1,0,0.9,0.1,0.2,0
						c-0.2,0-0.4-0.1-0.6-0.1c-0.5-0.1-1-0.2-1.5-0.3c-0.9-0.2-1.7-0.5-2.5-0.8c-0.3-0.1-0.5-0.2-0.8-0.3c-0.1,0-0.8-0.3-0.3-0.1
						s-0.2-0.1-0.3-0.1c-0.3-0.1-0.6-0.3-0.9-0.4c-0.9-0.4-1.7-0.9-2.5-1.4c-0.4-0.2-0.8-0.5-1.1-0.8c-0.2-0.1-0.4-0.3-0.5-0.4
						c0.7,0.5-0.2-0.2-0.2-0.2c-0.3-0.3-0.7-0.6-1-0.9c0,0-0.5-0.5-0.5-0.5c-0.2,0.1,1.1,1.2-0.4-0.4c-0.3-0.3-0.6-0.7-1-1
						c-0.2-0.2-0.4-0.4-0.6-0.6c-0.1-0.1-0.6-0.8-0.3-0.4c0.3,0.4-0.1-0.2-0.2-0.3c-0.2-0.2-0.3-0.5-0.5-0.7
						c-0.2-0.4-0.5-0.8-0.7-1.1c-0.5-0.9-1-1.7-1.4-2.6c-0.1-0.2-0.2-0.4-0.3-0.6c0.3,0.8,0.1,0.2,0,0.1c-0.2-0.5-0.3-0.9-0.5-1.4
						c-0.3-0.9-0.6-1.9-0.8-2.8c-0.1-0.4-0.2-0.9-0.3-1.4c0-0.2-0.2-0.8,0,0.2c0-0.2,0-0.4-0.1-0.6c-0.1-0.9-0.1-1.8-0.1-2.8
						c0-0.9,0-1.7,0.1-2.6c0-0.2,0-0.4,0.1-0.6c0.1-0.6-0.2,1,0,0c0.1-0.4,0.2-0.9,0.2-1.4c0.2-0.9,0.4-1.7,0.7-2.5
						c0.1-0.4,0.3-0.8,0.4-1.2c0.1-0.2,0.1-0.4,0.2-0.6c0.3-0.9-0.3,0.6,0.1-0.2c0.8-1.7,1.8-3.3,2.8-4.9c0.1-0.1,0.5-0.6-0.1,0
						c0.1-0.2,0.3-0.3,0.4-0.5c0.3-0.3,0.6-0.7,0.9-1c0.3-0.3,0.6-0.7,0.9-1c1.8-1.8,3.7-3.7,5.5-5.5c5.5-5.5,11-11,16.4-16.4
						c0.1-0.1,0.2-0.2,0.3-0.3c2.1-2.1,1.2-6.1-1.8-6.8c-15.3-3.7-32-0.9-45,8.2c-6.7,4.7-12.4,10.7-16.6,17.7
						c-4,6.8-6.4,14.4-7.4,22.2c-1,8.3,0,17,2.9,24.8c0.3-1.3,0.7-2.6,1-4c-4.3,4.3-8.5,8.5-12.8,12.8C79.6,74.4,74,80.1,68.3,85.7
						C60,94,51.7,102.3,43.4,110.6c-6.1,6.1-12.3,12.3-18.4,18.4c-1.9,1.9-3.8,3.8-5.4,6c-6.2,8.6-6.2,21-0.2,29.7
						c5.8,8.4,15.7,12.7,25.8,11.3c5.9-0.8,11-3.8,15.2-7.9c5-5,9.9-9.9,14.9-14.9c8.2-8.2,16.5-16.5,24.7-24.7
						c6.7-6.7,13.3-13.3,20-20c4-4,8-8,11.9-11.9c1.1-1.1,2.3-2.3,3.4-3.4c-1.3,0.3-2.6,0.7-4,1c14.5,5,30.8,3.7,44.4-3.4
						c14-7.3,24.5-20.9,28.2-36.2c2-8.6,2.1-17.5,0.1-26.1c-0.5-2.1-3-3.5-5-2.8c-2.2,0.7-3.3,2.8-2.8,5c0.2,0.9,0.4,1.7,0.5,2.6
						c0.1,0.4,0.1,0.8,0.2,1.2c0,0.2,0.1,0.4,0.1,0.6c0.1,0.5-0.1-0.8,0,0c0.2,1.8,0.3,3.5,0.4,5.3c0,1.7,0,3.5-0.2,5.2
						c0,0.5-0.1,0.9-0.1,1.4c0,0.3-0.2,0.9-0.1,1.2c0-0.1,0.1-1,0-0.2c0,0.2-0.1,0.4-0.1,0.6c-0.1,0.5-0.2,1-0.3,1.5
						c-0.6,3.4-1.7,6.8-3,10.1c-0.3,0.7,0,0,0-0.1c0,0.2-0.2,0.4-0.2,0.6c-0.2,0.4-0.4,0.9-0.6,1.3c-0.4,0.8-0.8,1.6-1.2,2.4
						c-0.9,1.6-1.9,3.2-2.9,4.7c-0.2,0.3-0.5,0.7-0.8,1c-0.1,0.2-0.3,0.3-0.4,0.5c-0.1,0.1-0.5,0.6-0.2,0.2c0.4-0.5-0.3,0.3-0.3,0.3
						c-0.1,0.2-0.3,0.3-0.4,0.5c-0.3,0.4-0.6,0.8-1,1.1c-1.3,1.4-2.6,2.8-4,4.1c-0.6,0.6-1.3,1.1-1.9,1.7c-0.3,0.3-0.6,0.5-1,0.8
						c-0.6,0.5,0,0,0.1-0.1c-0.2,0.2-0.5,0.4-0.8,0.6c-1.4,1-2.9,2-4.4,2.9c-1.5,0.9-3.1,1.7-4.6,2.4c-0.4,0.2-0.8,0.3-1.1,0.5
						c1-0.4-0.4,0.1-0.6,0.2c-0.8,0.3-1.6,0.6-2.4,0.9c-1.7,0.5-3.4,1-5.1,1.4c-0.8,0.2-1.7,0.3-2.5,0.5c-0.4,0.1-0.8,0.1-1.2,0.2
						c-0.2,0-0.8,0.1,0.2,0c-0.2,0-0.5,0.1-0.8,0.1c-3.8,0.4-7.7,0.5-11.5,0.1c-0.3,0-1.9-0.2-0.7-0.1c-0.5,0-1-0.1-1.5-0.2
						c-0.9-0.1-1.8-0.3-2.7-0.5c-1.9-0.4-3.9-1-5.8-1.6c-1.3-0.5-3,0.1-4,1c-4.2,4.2-8.5,8.5-12.7,12.7
						c-5.4,5.4-10.9,10.9-16.3,16.3c-8.2,8.2-16.3,16.3-24.4,24.4c-6.3,6.3-12.7,12.7-19,19c-1,1-2,2-3,3c-0.3,0.3-0.7,0.7-1.1,1
						c-0.2,0.2-0.4,0.3-0.6,0.5c-0.2,0.2-0.6,0.6,0,0c-0.6,0.8-1.9,1.3-2.8,1.8c-0.5,0.2-0.9,0.5-1.4,0.7c-0.7,0.3,0.1,0,0.2-0.1
						c-0.1,0.1-0.6,0.2-0.8,0.3c-1,0.4-2,0.6-3.1,0.9c-0.2,0-0.5,0.1-0.7,0.1c-0.3,0.1-1.1,0,0,0c-0.4,0-0.9,0.1-1.4,0.1
						c-1,0.1-2,0-3.1,0c-0.1,0-0.7,0-0.8-0.1c0.2,0,0.3,0,0.5,0.1c-0.2,0-0.4-0.1-0.5-0.1c-0.5-0.1-0.9-0.2-1.4-0.3
						c-1-0.2-2-0.6-2.9-0.9c-0.9-0.3,0.8,0.4-0.1,0c-0.3-0.1-0.5-0.2-0.8-0.4c-0.4-0.2-0.9-0.4-1.3-0.7c-0.4-0.2-0.8-0.5-1.2-0.8
						c-0.2-0.2-0.5-0.3-0.7-0.5c-0.7-0.5,0.5,0.5-0.1-0.1c-0.9-0.7-1.7-1.5-2.5-2.3c-0.4-0.4-0.8-0.8-1.1-1.3
						c0.6,0.8-0.1-0.1-0.2-0.2c-0.2-0.3-0.4-0.5-0.5-0.8c-0.3-0.5-0.6-1-0.9-1.6c-0.1-0.2-0.2-0.5-0.4-0.7c-0.1-0.2-0.6-1.1-0.1-0.2
						c-0.6-1-0.8-2.3-1.1-3.4c-0.1-0.6-0.2-1.1-0.3-1.7c-0.1-0.6,0.1,1,0,0c0-0.3-0.1-0.6-0.1-1c-0.1-1.2,0-2.3,0.1-3.5
						c0.1-1.1-0.2,0.9,0-0.2c0-0.2,0.1-0.4,0.1-0.6c0.1-0.6,0.3-1.2,0.4-1.9c0.1-0.5,0.3-1,0.5-1.5c0.1-0.3,0.2-0.6,0.3-0.9
						c-0.3,0.6-0.1,0.1,0.1-0.2c0.5-1.1,1.1-2.1,1.8-3.1c0.1-0.2,0.3-0.4,0.4-0.5c0.6-0.9-0.5,0.6,0.2-0.2c0.4-0.5,0.9-1,1.4-1.5
						c0.3-0.3,0.5-0.5,0.8-0.8c5.1-5.1,10.3-10.3,15.4-15.4c8.1-8.1,16.2-16.2,24.3-24.3c6.6-6.6,13.1-13.1,19.7-19.7
						c3.9-3.9,7.8-7.8,11.8-11.8c1.1-1.1,2.2-2.2,3.4-3.4c1-1,1.5-2.6,1-4c-0.6-1.7-1.1-3.4-1.5-5.1c-0.4-1.6-1-3.5-1-5.2
						c0,0.1,0.1,0.9,0,0.2c0-0.2,0-0.4-0.1-0.6c0-0.4-0.1-0.8-0.1-1.2c-0.1-0.9-0.1-1.8-0.2-2.7c-0.1-1.7,0-3.4,0.1-5.1
						c0.1-0.9,0.1-1.7,0.2-2.6c0-0.1,0.2-1.4,0.1-0.8c-0.1,0.7,0-0.3,0.1-0.3c0-0.2,0.1-0.5,0.1-0.8c0.3-1.7,0.7-3.4,1.1-5.2
						c0.5-1.7,1-3.3,1.6-4.9c0.1-0.4,0.3-0.8,0.4-1.1c-0.4,0.9,0.1-0.2,0.2-0.4c0.4-0.8,0.8-1.7,1.2-2.5c0.8-1.6,1.7-3.2,2.7-4.7
						c0.5-0.8,1-1.5,1.5-2.2c0.1-0.2,0.9-1.2,0.3-0.4c0.3-0.4,0.7-0.8,1-1.2c2.4-2.8,5-5.4,7.9-7.7c0.6-0.5,0.1,0-0.1,0
						c0.2-0.2,0.4-0.3,0.6-0.5c0.3-0.2,0.7-0.5,1-0.8c0.8-0.5,1.6-1.1,2.4-1.6c1.6-1,3.2-1.8,4.8-2.6c0.4-0.2,0.8-0.4,1.1-0.5
						c0.2-0.1,0.4-0.2,0.6-0.2c0.3-0.1,0.5-0.4-0.1,0c0.7-0.5,1.8-0.7,2.6-1c1.7-0.6,3.3-1.1,5.1-1.5c1-0.2,2-0.4,3-0.6
						c0.5-0.1,1-0.2,1.5-0.2c0.2,0,0.8-0.2-0.2,0c0.2,0,0.5-0.1,0.8-0.1c2-0.2,4-0.3,6-0.3c1.9,0,3.9,0.1,5.8,0.3
						c0.2,0,0.4,0,0.6,0.1c-1.1-0.2,0,0,0.1,0c0.5,0.1,1,0.2,1.5,0.3c1,0.2,2,0.4,3,0.6c-0.6-2.3-1.2-4.5-1.8-6.8
						C154-7,148.9-2,143.9,3.1c-2.3,2.3-4.6,4.6-6.9,6.9c-4.7,4.7-8,10.7-9,17.3c-1.3,8.9,1,17.7,6.6,24.7c0.3,0.4,0.6,0.7,0.9,1.1
						c0.2,0.2,0.3,0.3,0.5,0.5c0.1,0.1,0.2,0.2,0.2,0.3c0.3,0.3,0.3,0.3,0,0c-0.1-0.1-0.1-0.2-0.2-0.3c0.2,0.3,0.5,0.7,0.8,1
						c0.2,0.2,0.4,0.4,0.6,0.6c0.4,0.4,0.9,0.8,1.3,1.1c1.8,1.4,3.6,2.7,5.6,3.8c3.9,2,8.1,3.1,12.5,3.5c8.4,0.6,16.8-2.5,23-8.1
						c1.9-1.7,3.7-3.7,5.6-5.5c5.7-5.7,11.4-11.4,17.1-17.1c0.1-0.1,0.3-0.3,0.4-0.4c1.5-1.5,1.6-4.3,0-5.7
						C201.5,25.2,199,25.1,197.4,26.7z"/>
					<path d="M41.4,151.6C40.8,152.2,42,151.3,41.4,151.6c-0.2,0.2-0.4,0.3-0.5,0.4c0.5-0.2,0.6-0.2,0.3-0.1
						c-0.3,0.1-0.5,0.1-0.8,0.2c-0.3,0.1-0.2,0,0.4-0.1c-0.2,0-0.4,0-0.5,0c-0.8,0.1,0.8,0.3,0,0c-0.2-0.1-0.7-0.1-0.8-0.2
						c0.5,0.2,0.6,0.3,0.3,0.1c-0.1-0.1-0.2-0.1-0.4-0.2c-0.3-0.2-0.3-0.2,0,0c0.3,0.2,0.3,0.2,0-0.1c-0.3-0.3-0.3-0.3,0.1,0.2
						c-0.1-0.1-0.1-0.2-0.2-0.2c-0.1-0.2-0.2-0.3-0.3-0.5c0.1,0.2,0.1,0.3,0.2,0.5c-0.1-0.1-0.2-0.6-0.2-0.8c-0.2-0.8,0,0.9,0-0.1
						c0-0.9-0.1,0.3,0,0c0-0.2,0.1-0.8,0.3-0.9c-0.1,0.2-0.1,0.3-0.2,0.5c0.1-0.2,0.2-0.3,0.3-0.5c0.1-0.1,0.1-0.2,0.2-0.2
						c-0.3,0.4-0.4,0.5-0.1,0.2c0.3-0.2,0.3-0.3,0-0.1c-0.3,0.2-0.2,0.2,0,0c0.1-0.1,0.2-0.1,0.4-0.2c0.3-0.1,0.2-0.1-0.3,0.1
						c0.1-0.1,0.6-0.2,0.8-0.2c0.8-0.3-0.8,0,0,0c0.2,0,0.4,0,0.5,0c-0.6-0.1-0.7-0.1-0.4-0.1c0.3,0.1,0.5,0.1,0.8,0.2
						c0.3,0.1,0.2,0.1-0.3-0.1c0.1,0.1,0.2,0.1,0.4,0.2c0.9,0.5-0.4-0.4,0.2,0.2c0.6,0.6-0.3-0.7,0.1,0.1c0,0.1,0.1,0.2,0.1,0.2
						c0.2,0.4,0.2,0.3,0-0.2c0,0.2,0.2,0.6,0.2,0.8c0.2,0.8,0-0.8,0,0c-0.1,1.1,0.1,0,0.1,0c0,0-0.2,0.7-0.2,0.8
						c-0.2,0.7,0.4-0.7-0.1,0.2C41,152.3,41.9,151,41.4,151.6c-1.5,1.5-1.6,4.2,0,5.7c1.6,1.5,4.2,1.6,5.7,0c2.9-3,3.5-7.3,1.7-11
						c-1.6-3.3-5.4-5.5-9-5.2c-4,0.3-7.6,3.1-8.7,7.1c-1,4,0.6,8,4,10.3c3.7,2.6,8.8,1.8,12-1.2c1.5-1.5,1.6-4.3,0-5.7
						C45.5,150.1,43,150,41.4,151.6z"/>
				</g>
			</g>
			<g>
				<g>
					<path d="M63.4,133.4c1.7-1.7,3.5-3.5,5.2-5.2c4.2-4.2,8.4-8.4,12.6-12.6c5.1-5.1,10.1-10.1,15.2-15.2
						c4.4-4.4,8.7-8.7,13.1-13.1c2.1-2.1,4.3-4.2,6.4-6.4c0,0,0.1-0.1,0.1-0.1c1.5-1.5,1.6-4.3,0-5.7c-1.6-1.5-4.1-1.6-5.7,0
						c-1.7,1.7-3.5,3.5-5.2,5.2c-4.2,4.2-8.4,8.4-12.6,12.6C87.3,98,82.3,103,77.2,108.1c-4.4,4.4-8.7,8.7-13.1,13.1
						c-2.1,2.1-4.3,4.2-6.4,6.4c0,0-0.1,0.1-0.1,0.1c-1.5,1.5-1.6,4.3,0,5.7C59.3,134.9,61.8,135,63.4,133.4L63.4,133.4z"/>
				</g>
			</g>
		</g>
	</g>
</g>
<g class="st0">
	<title>Artboard 11</title>
	<g class="st1">
		<path d="M202.7,66.6H192c-2.2-9.9-5.9-19.1-11.4-27.6l7.5-7.5c1.8-1.8,1.8-4.4,0-6.1l0,0L169.4,6.7c-1.8-1.8-4.4-1.8-6.1,0l0,0
			l-7.5,7.5c-8.3-5.5-17.8-9.4-27.6-11.4V-8c0-2.4-2-4.4-4.4-4.4l0,0H97.4c-2.4,0-4.4,2-4.4,4.4v0.2V3C83.2,5.2,74,8.9,65.4,14.4
			L58,6.7c-1.8-1.8-4.4-1.8-6.1,0l0,0L33.2,25.4c-1.8,1.8-1.8,4.4,0,6.1l0,0l7.5,7.5c-5.5,8.3-9.4,17.8-11.4,27.6H18.5
			c-2.4,0-4.4,2-4.4,4.4l0,0v26.3c0,2.4,2,4.4,4.4,4.4h0.2h10.7c2.2,9.8,5.9,19,11.4,27.6l-7.7,7.7c-1.8,1.7-1.8,4.4,0,6.1l0,0
			l18.6,18.6c1.8,1.7,4.4,1.7,6.1,0l0,0l7.5-7.4c8.3,5.5,17.8,9.4,27.6,11.4v10.7c0,2.4,2,4.4,4.4,4.4l0,0h26.3c2.4,0,4.4-2,4.4-4.4
			v0v-10.7c9.8-2.2,19-5.9,27.6-11.4l7.4,7.5c1.7,1.8,4.4,1.8,6.1,0l0,0l18.6-18.6c1.7-1.8,1.7-4.4,0-6.1l0,0l-7.4-7.5
			c5.5-8.3,9.4-17.8,11.4-27.6h10.9c2.4,0,4.4-2,4.4-4.4l0,0V71C207.1,68.6,205.1,66.6,202.7,66.6L202.7,66.6z M198.3,92.9h-9.6
			c-2.2,0-3.9,1.5-4.4,3.7c-1.8,11.2-6.1,21.5-12.7,30.7c-1.3,1.8-1.1,4.2,0.4,5.7l7,7l-12.5,12.5l-7-7c-1.5-1.5-3.9-1.8-5.7-0.4
			c-9.2,6.6-19.7,11-30.7,12.7c-2.2,0.4-3.7,2.2-3.7,4.4v9.7h-17.5v-9.7c0-2.2-1.5-3.9-3.7-4.4c-11.2-1.8-21.6-6.1-30.8-12.7
			c-1.8-1.3-4.2-1.1-5.7,0.4l-7,7L42,140.1l7-7c1.5-1.5,1.8-3.9,0.4-5.7c-6.6-9.2-11-19.7-12.8-30.7c-0.4-2.2-2.2-3.7-4.4-3.7h-9.5
			V75.4h9.6c2.2,0,3.9-1.5,4.4-3.7c1.8-11.2,6.1-21.6,12.7-30.8c1.3-1.8,1.1-4.2-0.4-5.7l-7-7l12.5-12.5l7,7
			c1.5,1.5,3.9,1.8,5.7,0.4c9.2-6.6,19.7-11,30.7-12.8c2.2-0.4,3.7-2.2,3.7-4.4v-9.5h17.5v8.8c0,2.2,1.5,4,3.7,4.4
			c11.2,1.8,21.6,6.2,30.8,12.9c1.8,1.3,4.2,1.1,5.7-0.4l7-7.1l12.5,12.7l-7,7.1c-1.5,1.6-1.8,4-0.4,5.8c6.6,9.3,11,20,12.8,31.1
			c0.4,2.2,2.2,3.8,4.4,3.8h9.5V92.9z"/>
		<path d="M109.9,22.7c-34,0-61.4,27.4-61.4,61.4s27.4,61.4,61.4,61.4s61.4-27.4,61.4-61.4S143.9,22.7,109.9,22.7z M101.8,135.9
			v-24.1c0-1.8-0.9-3.3-2.5-3.9C85.9,101.7,80.2,86.1,86.5,73c1.6-3.3,3.8-6.1,6.5-8.3V82c0,4.8,3.9,8.8,8.8,8.8h17.5
			c4.8,0,8.8-3.9,8.8-8.8V64.6c11,9.7,12.1,26.1,2.2,36.8c-2.5,2.6-5.4,4.8-8.5,6.4c-1.6,0.7-2.5,2.2-2.5,3.9v24.1
			C113.4,137,107.4,137,101.8,135.9z M128.1,133.7v-19.3c16.7-9.7,22.6-30.9,12.9-47.6c-3.5-6.1-9-11.2-15.4-14.3
			c-2.2-1.1-4.8-0.2-5.9,2c-0.2,0.7-0.4,1.3-0.4,2V82h-17.5V56.5c0-2.4-2-4.4-4.4-4.4c-0.7,0-1.3,0.2-2,0.4
			c-17.5,8.1-25,29-16.7,46.5c3.1,6.6,8.1,11.8,14.3,15.4v19.3c-28.4-10-42.7-41.8-30.9-70c10.1-24.2,37.1-37.2,62.4-30.3
			c29.8,8.2,45.7,39.6,35.7,68.3C154.9,116.6,143.1,128.4,128.1,133.7z"/>
	</g>
</g>
<g class="st0">
	<g class="st1">
		<path d="M219,126.1c-0.5-12-10.1-21.6-22.1-21.6c-11.2,0-20.5,8.7-21.8,20.7h-51.6V73.3h8.7c1.6-1.3,2.7-2.4,2.2-4V52.9
			c0.5-1.6-2.2-4.2-2.2-4.2h-6v-8.3c0-4.3-3.4-8.1-7.9-8.1h-16.9c-4.2,0-7.9,3.5-7.9,8.1v8.3h-6c0,0-2.7,2.5-2.2,4.2v16.4
			c-0.5,1.6,0.5,2.7,2.2,4h8.7v51.9H44.8C43.5,113,34.2,104.5,23,104.5c-12,0-21.6,9.6-22.1,21.6c0,0.3-0.3,0.5-0.3,0.8
			c0,1.6,1.1,2.7,2.7,3.8h96.4h20.2h96.6c1.6-1,2.7-2.1,2.7-3.8C219.3,126.6,219.3,126.3,219,126.1z M197.2,111
			c8.2,0,15,6.3,16.4,14.2h-32.8C181.9,117.3,188.7,111,197.2,111z M98.6,40.6c0-1.4,1.1-2.7,2.7-2.7h16.8c1.3,0,2.6,1.1,2.6,2.7
			v8.3H98.9v-8.2H98.6z M90.4,56.9h5.4h27.7h5.4v10.9h-9.2H99.8h-9.2V56.9H90.4z M23,111c8.2,0,15,6.3,16.4,14.2H6.6
			C8,117.3,14.8,111,23,111z M104.3,125.2V73.3H118v51.9H104.3z"/>
		<path d="M68.6,26.4c0.5,0.5,1.4,0.8,1.9,0.8c0.8,0,1.4-0.3,1.9-0.8c1.1-1.1,1.1-2.7,0-3.8l-7.6-7.9c-1.1-1.1-2.7-1.1-3.8,0
			s-1.1,2.7,0,3.8L68.6,26.4z"/>
		<path d="M47,41.1l10.1,2.2c0.3,0,0.3,0,0.5,0c1.4,0,2.5-0.8,2.7-2.2s-0.5-3-2.2-3.3l-10.1-2.2c-1.4-0.3-3,0.5-3.3,2.2
			C44.6,39.5,45.6,40.8,47,41.1z"/>
		<path d="M47.6,70.6c0.3,0,0.3,0,0.5,0l10.1-2.2c1.4-0.3,2.5-1.6,2.2-3.3c-0.3-1.4-1.6-2.5-3.3-2.2L47,65.1
			c-1.4,0.3-2.5,1.6-2.2,3.3C45.4,69.8,46.5,70.6,47.6,70.6z"/>
		<path d="M67.2,80.8l-6.3,6.6c-1.1,1.1-1.1,2.7,0,3.8c0.5,0.5,1.1,0.8,1.9,0.8c0.8,0,1.4-0.3,1.9-0.8l6.3-6.6
			c1.1-1.1,1.1-2.7,0-3.8C69.9,79.7,68.3,79.7,67.2,80.8z"/>
		<path d="M152.4,27.2c0.8,0,1.4-0.3,1.9-0.8l7.6-7.9c1.1-1.1,1.1-2.7,0-3.8c-1.1-1.1-2.7-1.1-3.8,0l-7.6,7.9
			c-1.1,1.1-1.1,2.7,0,3.8C151,27,151.6,27.2,152.4,27.2z"/>
		<path d="M162.8,41.1c0.3,1.4,1.4,2.2,2.7,2.2c0.3,0,0.3,0,0.5,0l10.1-2.2c1.4-0.3,2.5-1.6,2.2-3.3c-0.3-1.4-1.6-2.5-3.3-2.2
			l-10.4,2.2C163.3,38.1,162.2,39.5,162.8,41.1z"/>
		<path d="M164.7,68.4l10.1,2.2c0.3,0,0.3,0,0.5,0c1.4,0,2.5-0.8,2.7-2.2c0.3-1.4-0.5-3-2.2-3.3l-10.1-2.2c-1.4-0.3-3,0.5-3.3,2.2
			C162.2,66.5,163.3,67.9,164.7,68.4z"/>
		<path d="M155.7,80.8c-1.1-1.1-2.7-1.1-3.8,0c-1.1,1.1-1.1,2.7,0,3.8l6.3,6.6c0.5,0.5,1.4,0.8,1.9,0.8c0.8,0,1.4-0.3,1.9-0.8
			c1.1-1.1,1.1-2.7,0-3.8L155.7,80.8z"/>
	</g>
</g>
<g class="st0">
	<title>a</title>
	<g class="st1">
		<circle cx="80" cy="115.3" r="7.7"/>
		<path d="M210,95.4V84.7c0-1.1-0.4-1.9-1.1-2.7l-19.1-19.1c-0.8-0.8-1.5-1.1-2.7-1.1h-57.4V23.4c0-4.2-3.4-7.7-7.7-7.7H83.8
			c-4.2,0-7.7,3.4-7.7,7.7v26.8H12.6c-2.3,0-4.2,0.8-5.7,2.7c-3.4,3.4-7.3,12.2-7.3,31.8v26.8c0,4.2,3.4,7.7,7.7,7.7h4.2
			c1.9,12.6,13.8,21,26.4,18.7c9.6-1.5,17.2-9.2,18.7-18.7h0.8c1.9,12.6,13.8,21,26.4,18.7c9.6-1.5,17.2-9.2,18.7-18.7h2.7
			c1.9,0,3.8-0.8,5.4-2.3l16.8-16.8c1.5-1.5,2.3-3.4,2.3-5.4v-9.9h48.2l7.7,7.7H145c-4.2,0-7.7,3.4-7.7,7.7v24.5
			c0,3.1,1.5,5.7,4.2,6.9l13.4,6.5l0,0c0.4,0.4,1.1,0.4,1.5,0.4h11.5c2.3,0,3.8-1.5,3.8-3.8s-1.5-3.8-3.8-3.8h-7.7V100h21
			c-9.1,10.4-7.5,26.6,4.5,34.5c8.7,5.8,20.7,4.9,28.3-2.3c10.1-9.5,9.8-25.2-0.3-34.2C212.7,97.3,211.6,96.1,210,95.4z M99.1,77
			V38.7h23V77H99.1z M7.3,84.7c0-19.1,4.2-25.3,5.4-26.8h63.5v34.8c-9.6,1.5-17.2,9.2-18.7,18.7H57c0,0,0,0,0-0.4
			c-2.3-12.6-14.4-20.7-27.2-18.4c-9.7,1.5-17.1,9.2-18.7,18.4c0,0,0,0,0,0.4H7.3V84.7z M34.1,130.6c-8.4,0-15.3-6.9-15.3-15.3
			S25.7,100,34.1,100s15.3,6.9,15.3,15.3S42.5,130.6,34.1,130.6z M80,130.6c-8.4,0-15.3-6.9-15.3-15.3S71.6,100,80,100
			s15.3,6.9,15.3,15.3S88.5,130.6,80,130.6z M122,94.3l-17.2,17.2h-2.7c-1.6-9.4-9-16.8-18.3-19.1c-0.4,0,0.4,0,0,0V23.4H122v7.7
			h-23c-4.2,0-7.7,3.4-7.7,7.7V77c0,4.2,3.4,7.7,7.7,7.7h23V94.3z M179.4,77h-49.7v-7.7h55.9l16.8,16.8v6.1H202
			c-1.1-0.4-2.3-0.4-3.4-0.4c-1.1,0-2.3,0-3.4,0.4h-0.4v-0.4c0-1.1-0.4-1.9-1.1-2.6l-11.5-11.2C181.3,77.4,180.6,77,179.4,77z
			 M145,100h7.7v28.3l-7.7-3.8V100z M198.7,130.6c-8.4,0-15.3-6.9-15.3-15.3c0-6.1,3.4-11.5,9.2-13.8l0,0c3.1-1.1,6.1-1.5,9.2-0.8
			c8.4,1.9,13.4,9.9,11.9,18.4C212,125.6,205.9,130.6,198.7,130.6z"/>
		<circle cx="198.7" cy="115.3" r="7.7"/>
		<circle cx="34.1" cy="115.3" r="7.7"/>
		<path d="M18.8,84.7h30.6c2.3,0,3.8-1.5,3.8-3.8c0-2.3-1.5-3.8-3.8-3.8H18.8c-2.3,0-3.8,1.5-3.8,3.8C15,83.1,16.5,84.7,18.8,84.7z"
			/>
		<path d="M18.8,73.2h30.6c2.3,0,3.8-1.5,3.8-3.8s-1.5-3.8-3.8-3.8H18.8c-2.3,0-3.8,1.5-3.8,3.8S16.5,73.2,18.8,73.2z"/>
	</g>
</g>
<g class="st0">
	<title>015 - Tractor</title>
	<desc>Created with Sketch.</desc>
	<g class="st1">
		<g>
			<path d="M39.8,116.7c-10.3,0-18.4,8.1-18.4,18.4s8.1,18.4,18.4,18.4s18.4-8.1,18.4-18.4S50.1,116.7,39.8,116.7z M39.8,146.2
				c-6.3,0-11.1-4.8-11.1-11.1c0-6.3,4.8-11.1,11.1-11.1s11.1,4.8,11.1,11.1C50.9,141.4,46.1,146.2,39.8,146.2z"/>
			<path d="M150.4,138.9c-4.4,0-8.5,2.6-10.3,7c-1.8,4.1-0.7,8.8,2.6,12.2c3.3,3.3,8.1,4.1,12.2,2.6c4.1-1.8,7-5.9,7-10.3
				C161.5,144,156.7,138.9,150.4,138.9z M150.4,153.6c-2.2,0-3.7-1.8-3.7-3.7c0-2.2,1.8-3.7,3.7-3.7c2.2,0,3.7,1.8,3.7,3.7
				C154.1,152.1,152.6,153.6,150.4,153.6z"/>
			<path d="M56.8,173.1c10.7-4.8,18.8-14.4,22.1-25.8H125c-1.5,10.3,3.3,20.6,12.2,25.8 M163.9,172c7.4-4.4,12.2-12.5,12.5-21.4
				s-3.7-17-11.1-22.1V99.1c0-1.8-1.5-3.3-3.3-3.7l-22.1-2.6l10-52.3h37.6H204c1.1,0,1.8-0.4,2.6-1.1l12.9-12.9
				c1.4-1.4,1.4-3.7,0-5.2l-31.3-31.3c-1.4-1.4-3.7-1.4-5.2,0L170.1,2.8c-0.7,0.7-1.1,1.5-1.1,2.6V22c0,1.1,0.4,1.8,1.1,2.6l8.5,8.5
				h-30.2l-7.4-7.4h16.8c0,0,3.7-2.6,3.7-4.8s-1.5-3.7-3.7-2.6H132c-0.4-1.1-0.7-1.1-1.5-0.7c0,0-0.4,0-0.4,0.4
				c-0.4,0-0.7,0.4-1.7,0.4l0,0v0.4c0.5,0.4,0.5,0.4,0.5,0.7l3.1,0.4v0.4L115,89.1l-12.3-1.5V44.1c0-2-1.7-3.7-3.7-3.7H32.6
				c-2.2,0-3.7,1.5-3.7,3.7s1.5,3.7,3.7,3.7h3.7V81h-3.7c-2.2,0-3.7,1.5-3.7,3.7c0,2.2,1.5,3.7,3.7,3.7h3.7V95
				c-18.4,1.5-33.2,15.5-36.1,33.5c-2.9,18.1,6.3,35.8,22.9,43.5 M176.4,6.9l9.2-9.2l26.2,26.2l-9.2,9.2h-13.6l-12.5-12.5V6.9z
				 M95.3,92v14.7h-5.5C85.4,98.3,78,90.9,69.5,86.5V47.8h25.8V92z M43.7,47.8h18.4v35.4c-4.8-1.5-9.6-2.2-14.7-2.2h-3.7V47.8z
				 M47.4,88.4c5.9,0,11.4,1.1,17,3.7c8.8,4.1,15.9,11.1,19.9,19.9c2.6,5.2,3.7,11.1,3.7,17V140h-7.4c-0.1-0.1-0.1-0.1-0.1-0.2
				c1.9-22.6-14.5-41.8-36.7-43.7v-7.7H47.4z M39.8,168.3c-14,0-26.5-8.8-31.3-22.1c-4.8-13.3-0.7-28,10.3-36.9
				c10.7-8.8,26.2-10,38-2.6c11.8,7.4,18.1,21.4,15.5,35C69.3,157.3,55.7,168.3,39.8,168.3z M168.8,149.9c0,10.3-8.1,18.4-18.4,18.4
				s-18.4-8.1-18.4-18.4s8.1-18.4,18.4-18.4S168.8,139.6,168.8,149.9z M158,126.3c-12.2-3.7-25.1,2.2-30.6,13.6H95.3v-11.1
				c0-5.2-0.7-10-2.2-14.7H99c0,0,0,0,0.4,0s0,0,0,0l47.2,3.7h0.4c2.2,0,3.7-1.5,3.7-3.7c0-2.2-1.5-3.7-3.7-3.7l-44.2-3.3V96.5
				l55.3,6.6V126.3z M122,89.8l12.2-61.6l8.5,8.5l-10.3,54.2L122,89.8z"/>
		</g>
	</g>
</g>
<g class="st0">
	<path class="st1" d="M192.9-4.1L-0.2,133.5c-2,1.4-2.4,3.7-1,5.7l0,0l23.7,33.3c1.4,2,3.7,2.4,5.7,1l0,0L221.4,35.8
		c2-1.4,2.4-3.7,1-5.7l0,0L198.6-3.2C197.2-5.2,194.9-5.5,192.9-4.1L192.9-4.1z M200,41l-11.7,8.3c1.5-12.6-6.5-24-19-26.6l11.7-8.3
		L200,41z M42.8,133.9c-5.2-7.3-3.5-17.6,3.8-22.8s17.6-3.5,22.8,3.8c5.2,7.3,3.5,17.6-3.8,22.8C58.3,143,48.1,141.3,42.8,133.9z
		 M62.8,98.6l21.6-15.4l7.1,10c1.4,2,3.7,2.4,5.7,1l0,0l26.6-19c2-1.4,2.4-3.7,1-5.7l0,0l-7.1-10L139.4,44c-1.5,12.6,6.5,24,19,26.6
		l-76.6,54.6C83,112.8,74.9,101.5,62.8,98.6z M149.4,58c-5.2-7.3-3.5-17.6,3.8-22.8s17.6-3.5,22.8,3.8c5.2,7.3,3.5,17.6-3.8,22.8
		S154.6,65.3,149.4,58z M111.1,64.2l4.7,6.7l-20,14.2l-4.7-6.7L111.1,64.2z M7.9,137.8l6.7-4.7l19,26.6l-6.7,4.7L7.9,137.8z
		 M21.2,128.3l11.7-8.3c-1.5,12.6,6.5,24,19,26.6l-11.7,8.3L21.2,128.3z M213.3,31.5l-6.7,4.7l-19-26.6l6.7-4.7L213.3,31.5z"/>
	<path class="st1" d="M48.1,134.2L68,120c2-1.4,2.4-3.7,1-5.7s-3.7-2.4-5.7-1l-20,14.2c-2,1.4-2.4,3.7-1,5.7S46.1,135.7,48.1,134.2z
		"/>
	<path class="st1" d="M154.6,58.3l20-14.2c2-1.4,2.4-3.7,1-5.7s-3.7-2.4-5.7-1l-20,14.2c-2,1.4-2.4,3.7-1,5.7
		C150.3,59.4,152.6,59.7,154.6,58.3z"/>
</g>
<g class="st0">
	<path class="st1" d="M192.8-23.7l-29.2,34v31.6h-23.9V10.2l-29.2-34l-29.2,34v31.6H57.6V10.2l-29.2-34l-29.2,34V193h58.4v-37.1
		h23.9V193h58.4v-37.1h23.9V193H222V10.2L192.8-23.7z M49.6,187.7H4.5v-31.8h45.1v31.7V187.7z M49.6,150.6H4.5V49.8h45.1v99.9V150.6
		z M49.6,41.8H4.5V12.4L27-14.7l22.5,27.1v29.9V41.8z M81.4,150.6H57.6V49.8h23.9V150.6z M134.2,187.7H86.7v-31.8h47.7v31.8H134.2z
		 M134.2,150.6H86.7V49.8h47.7v100.8H134.2z M134.2,41.8H86.7V12.4l23.9-27.1l23.9,27.1v29.4H134.2z M163.6,150.6h-23.9V49.8h23.9
		V150.6z M214,187.7H169v-31.8H214v31.7V187.7z M214,150.6H169V49.8H214v99.9V150.6z M216.4,41.8H169V12.4l23.9-27.1l23.9,27.1v29.4
		H216.4z"/>
</g>
</svg>
