<?xml version="1.0" encoding="utf-8"?>
<!-- Generator: Adobe Illustrator 23.0.4, SVG Export Plug-In . SVG Version: 6.00 Build 0)  -->
<svg version="1.1" id="Layer_1" xmlns="http://www.w3.org/2000/svg" xmlns:xlink="http://www.w3.org/1999/xlink" x="0px" y="0px"
	 viewBox="0 0 169.3 134.7" style="enable-background:new 0 0 169.3 134.7;" xml:space="preserve">
<style type="text/css">
	.st0{display:none;}
	.st1{display:inline;}
</style>
<g class="st0">
	<g class="st1">
		<path d="M0.2,139.7l204.3,0c2.4,0,4.6-1.4,5.4-3.6c1.2-3.7-1.6-7.2-5.1-7.2h-11.9c3.5-12.1,8.6-26.4,16.2-37c0,0,0-0.3,0.3-0.3
			v-0.9c0,0-0.5-1.9-0.5-3c0-3-2.4-5.4-5.4-5.4c-0.8,0-1.6,0.3-2.2,0.5c-1.3,0.5-15.9,7-30,20c-2.2-7.8-4.3-18.1-5.4-30
			c-0.3-2.2-1.9-4.3-4-4.9c-2.2-0.5-4.6,0.3-5.9,2.2c-0.3,0.5-6.2,9.4-12.4,22.1c-5.1-22.4-1.9-48-1.6-48.3c0.3-2.7-1.1-5.1-3.5-5.9
			c-2.4-0.8-5.1,0.3-6.5,2.4l-40.5,71c-4.6-39.4,6.7-85.3,7-85.8c0.5-2.4-0.5-4.9-2.7-6.2c-2.2-1.1-4.9-0.5-6.5,1.3
			C73.3,39.7,63.8,63.2,58.2,84c-5.7-15.1-10.3-24-10.5-24.6c-1.3-2.4-4-3.5-6.5-2.7c-2.4,0.8-4,3.5-3.5,6.2
			c1.1,5.4,1.3,20.5,1.1,42.4C29,89.9,20.4,79.1,19.9,78.6c-1.6-2.2-4.6-2.7-7-1.3c-2.4,1.3-3.2,4.3-2.2,6.7
			c7.8,17.8,8.9,32.9,8.1,44.9H0.4c-3-1.5-5.4,1-5.4,3.9C-5,135.8,0.2,139.7,0.2,139.7z M189.3,103c-3.8,8.9-6.7,17.8-8.9,25.9
			h-16.7c2.4-4,5.4-7.8,8.9-11.3l0.3-0.3C178.3,111.4,184.2,106.8,189.3,103z M157.2,90.3c1.6,8.6,3.5,16.2,5.4,22.1
			c-4.6,5.1-8.4,10.5-11.3,16.5h-8.6c1.1-5.7,2.7-11.6,5.4-18.1C150.7,103,154.2,96,157.2,90.3z M137,108.9c-2.7,7-4.3,13.8-5.4,20
			h-37l35.1-61.8C130,79.8,131.6,95.7,137,108.9z M83,127.8l-0.5,1.1H70.9c-1.6-7.8-3.8-15.9-6.2-23.7c3-15.7,8.4-35.6,18.1-54.2
			C79.5,72,77.1,102.2,83,127.8z M53.9,106.8L53.9,106.8c2.2,7.6,4,14.8,5.7,22.1h-8.4c-0.8-1.6-1.6-3-2.4-4.3
			c0.3-10,0.5-20.8,0.5-31C50.9,97.6,52.2,101.9,53.9,106.8z M29,111.9c3.3,5.3,6.7,10.8,10,17c0,0,0,0,0,0l-9.4,0
			C29.8,124,29.8,118.4,29,111.9z"/>
	</g>
</g>
<g class="st0">
	<path class="st1" d="M49.7,161.7c1,1,1.5,2.2,1.5,3.4s-0.5,2.4-1.5,3.4s-2.2,1.5-3.4,1.5c-0.7,0-1.2-0.2-1.9-0.5
		c-0.5-0.2-1.2-0.5-1.5-1c-1-1-1.5-2.2-1.5-3.4s0.5-2.4,1.5-3.4c1.2-1.2,2.9-1.7,4.4-1.5c0.2,0,0.5,0.2,1,0.2
		c0.2,0.2,0.5,0.2,0.7,0.5C49.3,161.2,49.5,161.4,49.7,161.7z M197.5,172.8c-0.2-0.2-0.2-0.5-0.5-0.7c-0.2-0.2-0.5-0.5-0.5-0.7
		c-1.2-1.2-3-1.7-4.5-1.5c-0.2,0-0.7,0.2-1,0.2c-0.2,0.2-0.5,0.2-0.7,0.5s-0.5,0.5-0.7,0.5c-0.2,0.2-0.5,0.5-0.5,0.7
		c-0.2,0.2-0.2,0.5-0.5,0.7c-0.2,0.2-0.2,0.5-0.2,1c0,0.2,0,0.7,0,1c0,1.2,0.5,2.5,1.5,3.5c0.7,1.2,2,1.7,3.2,1.7
		c0.7,0,1.2-0.2,2-0.5c0.5-0.2,1.2-0.5,1.5-1c1-1,1.5-2.2,1.5-3.5c0-0.2,0-0.7,0-1C197.7,173.5,197.7,173.1,197.5,172.8z
		 M216.8,180.9c-2.2,9.4-10,16.9-19.6,18.4c-9.7,1.6-18.4-2.6-23.5-9.4H71c-6.7,6.7-16.3,10.4-26.6,9.6
		c-16.4-1.3-29.7-14.5-31.2-30.9c-1.6-18.1,11-33.8,28.1-36.6L19.5,13.9C19,11.7,17,10,14.6,10L3.7,10c-2.1,0-4.2-1.2-4.8-3.2
		c-1.1-3.3,1.4-6.5,4.6-6.5h11.4c7.1,0,12.9,4.9,14.3,11.7l22.1,119.9c1.5,0.2,2.7,0.5,4.1,0.7l50.1,6.8v-15.1h-7.3
		c-2.7,0-4.9-2.2-4.9-4.9v-4.9c0-13.4,10.9-24.3,24.3-24.3h14.6c13.4,0,24.3,10.9,24.3,24.3v4.9c0,2.7-2.2,4.9-4.9,4.9h-7.3v20.2
		l49.1,6.6C208.5,151.3,220.3,165.5,216.8,180.9z M146.1,114.6c0-8-6.6-14.6-14.6-14.6h-14.6c-8,0-14.6,6.6-14.6,14.6H146.1z
		 M115.3,124.3v16.3l19.5,2.7v-19H115.3z M70.7,165.1c0-11.2-7.5-20.4-17.8-23.3l-6.8-1C32.7,141,22,151.7,22,165.1
		c0,13.4,10.9,24.3,24.3,24.3S70.7,178.4,70.7,165.1z M174.8,158.6L73.3,145c4.4,5.8,7.1,12.9,7.1,20.7c0,5.4-1.2,10.2-3.4,14.6
		h91.4c-0.2-1.7-0.5-3.2-0.5-4.9C167.9,168.8,170.6,163,174.8,158.6z M206.9,174.8c0-8-6.6-14.6-14.6-14.6c-8,0-14.6,6.6-14.6,14.6
		s6.6,14.6,14.6,14.6C200.3,189.4,206.9,182.8,206.9,174.8z"/>
</g>
<g class="st0">
	<path class="st1" d="M23.1,144.8c4.2,0.4,7.7-1.1,10.4-4.1c4.2,5.1,11.8,5.7,16.9,1.2c0.6-0.3,0.9-0.9,1.2-1.2
		c4.2,5.1,11.8,5.7,16.9,1.2c0.6-0.3,0.9-0.9,1.2-1.2c4.2,5.1,11.8,5.7,16.9,1.2c0.6-0.3,0.9-0.9,1.2-1.2c4.2,5.1,11.8,5.7,16.9,1.2
		c0.6-0.3,0.9-0.9,1.2-1.2c4.2,5.1,11.8,5.7,16.9,1.2c2.4-2.1,3.9-4.8,4.2-8.1l31,31c1.1,1.1,2.3,1.2,5.5,0.2
		c10.6-3.4,17.7-13.4,17.7-24.6l0-46.7h3c1.7,0,3-1.3,3-3V78.6v-0.3V78l-6-36.2c-0.3-1.5-1.5-2.4-3-2.4h-18.1c-1.5,0-2.7,1.2-3,2.4
		l-6,36.2v0.3v0.3v12.1c0,1.7,1.3,3,3,3h3v38L127,101.5l0-59.3c0-6.3-5.1-12.2-11.3-12.6c-3.9-0.2-7.5,1.3-9.8,4.2
		c-4.2-5.1-11.8-5.7-16.9-1.2c-0.6,0.3-0.9,0.9-1.2,1.2c-4.2-5.1-11.8-5.7-16.9-1.2c-0.6,0.3-0.9,0.9-1.2,1.2
		c-4.2-5.1-11.8-5.7-16.9-1.2c-0.6,0.3-0.9,0.9-1.2,1.2c-4.2-5.1-11.8-5.7-16.9-1.2c-0.6,0.3-0.9,0.9-1.2,1.2
		c-4.2-5.1-12.1-5.7-16.9-1.2c-2.7,2.1-4.2,5.4-4.2,9l0,90.8C12.4,138.4,17.2,144.2,23.1,144.8z M181.2,87.6h-24.1v-6h24.1V87.6z
		 M162.2,45.4h13l5.1,30.1h-22.9L162.2,45.4z M175.2,93.7v51.2c0,7.2-5.1,13.3-12.1,14.8v-66H175.2z M157.1,139.3V155L127,124.8
		v-15.7L157.1,139.3z M120.9,41.9c0,14.5,0,75.4,0,89.8c0,2.6-1.5,5.2-4,6c-4.2,1.4-8-1.7-8-5.7V41.6c0-4,3.9-7.1,8-5.7
		C119.4,36.8,120.9,39.3,120.9,41.9z M102.9,41.9c0,14.5,0,75.4,0,89.8c0,2.6-1.5,5.2-4,6c-4.2,1.4-8-1.7-8-5.7V41.6
		c0-4,3.9-7.1,8-5.7C101.3,36.8,102.9,39.3,102.9,41.9z M84.8,41.9c0,14.5,0,75.4,0,89.8c0,2.6-1.5,5.2-4,6c-4.2,1.4-8-1.7-8-5.7
		V41.6c0-4,3.9-7.1,8-5.7C83.2,36.8,84.8,39.3,84.8,41.9z M66.7,41.9c0,14.5,0,75.4,0,89.8c0,2.6-1.5,5.2-4,6c-4.2,1.4-8-1.7-8-5.7
		V41.6c0-4,3.9-7.1,8-5.7C65.2,36.8,66.7,39.3,66.7,41.9z M48.6,41.9c0,14.5,0,75.4,0,89.8c0,2.6-1.5,5.2-4,6c-4.2,1.4-8-1.7-8-5.7
		V41.6c0-4,3.9-7.1,8-5.7C47.1,36.8,48.6,39.3,48.6,41.9z M18.5,41.6c0-4,3.9-7.1,8-5.7c2.5,0.8,4,3.4,4,6c0,14.5,0,75.4,0,89.8
		c0,2.6-1.5,5.2-4,6c-4.2,1.4-8-1.7-8-5.7V41.6z"/>
	<path class="st1" d="M169.2,17.5c-1.8,0-3,1.2-3,3v9c0,1.8,1.2,3,3,3s3-1.2,3-3v-9C172.2,18.7,171,17.5,169.2,17.5z"/>
	<path class="st1" d="M172.2-0.5c0-1.8-1.2-3-3-3s-3,1.2-3,3v9c0,1.8,1.2,3,3,3s3-1.2,3-3V-0.5z"/>
	<path class="st1" d="M144.8,17.5c0,1.8,1.2,3,3,3c5.1,0,9,3.9,9,9c0,1.8,1.2,3,3,3s3-1.2,3-3c0-8.4-6.6-15.1-15.1-15.1
		C146,14.5,144.8,15.7,144.8,17.5z"/>
	<path class="st1" d="M190,14.5c-8.4,0-15.1,6.6-15.1,15.1c0,1.8,1.2,3,3,3s3-1.2,3-3c0-5.1,3.9-9,9-9c1.8,0,3-1.2,3-3
		S191.8,14.5,190,14.5z"/>
</g>
<g class="st0">
	<g class="st1">
		<path d="M90.3,75c-4.2,3.9-4.3,10.1-0.4,14.3c3.9,4.2,10.1,4.3,14.3,0.4s4.3-10.1,0.4-14.3C100.7,71.2,94.5,71.1,90.3,75z
			 M99.6,84.8c-1.5,1.4-3.4,1.3-4.8-0.1s-1.3-3.4,0.1-4.8c1.5-1.4,3.4-1.3,4.8,0.1C101.1,81.5,101,83.4,99.6,84.8z"/>
		<path d="M200.6,95.8l-43.2-22.1l0,0c-0.2-0.2-0.7-0.3-1.2-0.3l0,0l0,0l-31.1-2.6l-0.2-0.2l-31.2-62l0,0
			C88-2.5,77.1-10.6,64.7-12.5c-6.3-1.1-12.4-0.5-18.3,1.3c-1.2-0.3-1.5,0-2,0.4c-0.5,0.5-0.8,0.7-0.8,1.2c-0.5,1-0.3,2.2,0.4,2.9
			l42.1,64.4l-0.5,0.5L75,68.3L13.5,22.2c-1-0.5-2.2-0.8-2.9-0.5c-0.7,0.2-1,0.5-1.5,0.9c-0.5,0.5-0.8,0.7-0.8,1.2
			c-2.4,6-2.9,12.1-2.4,18.2l0,0l0,0l0,0c1.2,12.4,8.6,23.8,19.3,30.1l60,34.9l0.2,0.2l0.7,31.2l0,0l0,0c0,0.5,0.2,0.7,0.2,1.2l0,0
			l19.5,44.5c1.8,3.9,5.1,6.9,8.9,8.5c4.1,1.3,8.5,0.9,12.5-1c1.2-0.7,2.5-1.4,3.5-2.4c5.1-4.8,6.6-12.3,3.4-18.7l-21.5-43.1
			l-5.6-24.7l12.1-11.4l24.3,7.1l41.7,24c6.2,3.5,13.8,2.5,18.8-2.3c1-1,1.8-2.2,2.6-3.4c2.3-3.6,2.8-8.2,1.7-12.4
			C207.2,101.3,204.4,97.8,200.6,95.8z M87.8,14L87.8,14L113,62.9l-2.3-2.4c-0.7-0.7-1.4-1.5-2.3-2c-0.2-0.2-0.5-0.5-0.7-0.3
			c-0.7-0.3-1.2-0.7-1.9-1c-0.2-0.2-0.2-0.2-0.7-0.3c-0.9-0.5-1.9-0.5-2.8-1l-0.5,0l-0.5,0l0,0c1.2-1.2,1.5-2.8,0.6-4.3L72.1-0.7
			C78.7,1.9,84.7,7.3,87.8,14z M58.9-2c0.5,0,1,0,1.4,0c1,0,1.7,0.3,2.6,0.3l31.9,55.9l-2.4,2.3l-38.5-58C55.6-1.7,57.2-1.9,58.9-2z
			 M15.3,40.4c0-0.5,0-1,0-1.4c0-1.4,0.3-3.1,0.6-4.7l55.9,41.7l-2.4,2.3L15.4,43.1C15.5,42.1,15.5,41.2,15.3,40.4z M128.5,174.4
			c2,4.1,0.4,9.3-3.7,11.3c-2.2,1.1-4.3,1.3-6.9,0.5c-2.1-0.8-4-2.3-4.9-4.7L95,140.8l13.5-6.3L128.5,174.4z M106.1,128.5l-12.3,5.6
			l-1-23.1c0.7,0.3,1.4,0,2.4,0.1l0.5,0c0.5,0,1.2-0.2,1.7-0.2c0.2-0.2,0.5,0,0.7-0.2c0.5,0,0.7-0.2,1.4-0.4c0.2-0.2,0.7-0.2,1-0.4
			c0.2-0.2,0.7-0.2,1-0.4L106.1,128.5z M118,87.8l-14.7,13.8c-2.7,2.5-7,3.4-10.5,2.1c-0.5,0-0.9-0.5-1.6-0.8L32.2,68.4
			c-6.5-4-11.6-9.9-14-16.8l50.4,32.9c1.2,0.7,3.1,0.8,4.3-0.3l7.3-6.9l12.2-11.5c4.1-3.8,10.4-3.6,14.3,0.4l11.5,12.2
			c0.5,0.5,1.4,1,2.1,1.3l3.1,0.3l0,0l27.5,2.7l-6.3,11.9l-23.3-7.1C120.2,86.7,119,86.9,118,87.8z M200,109.4
			c0.6,2.2,0.3,4.8-0.9,6.9c-2.3,4-7.5,5.2-11.5,3l-38.4-22.6l7.1-13.1l39.6,20.5C197.7,105.6,199.3,107.3,200,109.4z"/>
	</g>
</g>
<g class="st0">
	<g class="st1">
		<g>
			<path d="M114.5,70.1c11.5-1.5,20.9-7.9,20.9-14.9c0-4.9-4.4-8.5-8.2-10.7c-5.5-3.2-11.9-4.5-18.1-4.5c4-4,7.4-9,9.2-14.4
				c1.5-4.7,2.3-11-1.3-14.9c-3.3-3.3-9-3-13.4-1.8c-6,1.7-11.7,5.2-16.1,9.7c0-8.2-2.3-17.9-8.9-23.6c-2.3-2.2-5.7-3.3-9-2.2
				c-4.2,1.5-7,5.5-8.9,9.4c-2.5,5-3.7,10.7-3.5,16.4c-4.4-4.4-9.9-7.9-15.9-9.5c-4.4-1.2-10-1.7-13.6,1.8c-3.8,3.8-3,10.2-1.3,14.9
				c1.8,5.5,5.2,10.4,9.2,14.4c-6.2,0-12.7,1.3-18.1,4.5c-3.8,2-8.2,5.7-8.2,10.5s4.4,8.5,8.2,10.7c5.5,3.2,11.9,4.5,18.1,4.5
				c-4,4-7.4,9-9.2,14.4c-1.5,4.7-2.3,11,1.3,14.9c3.8,3.8,10.2,2.8,14.7,1.3c5.5-1.8,10.5-5.2,14.6-9.2c0,6.2,1.3,12.7,4.5,18.1
				c2.2,3.8,5.9,8,10.7,8c4.9,0,8.5-4.2,10.7-8c3.2-5.5,4.5-11.9,4.5-18.1c4,4.2,9,7.4,14.6,9.2c4.5,1.5,10.9,2.3,14.7-1.3
				c4.9-4.9,2.3-13.4-0.2-18.6c2.3,2.3,4.5,4.9,6.7,7.7c14.2,18.9,24.4,52.5-6,105.9c-2.2,3.7,3.7,7,5.9,3.3
				c10.9-18.9,16.7-35.6,19.2-50.2c6.7,2.7,14.2,3.8,21.3,1.7c5.7-1.7,9-5,14.1-9.9c7.7-7.4,15.7-14.1,24.4-20.1
				c1.8-1.2,2-4,0.2-5.4c-13.2-10.5-31.8-12.2-46-4c-5.9,3.3-9.9,7.7-12.9,12C140.6,95.7,125.4,78.9,114.5,70.1z M109.5,46.6
				c11.9,0,19.4,6,19.4,8.5c0,2.5-7.5,8.5-19.4,8.5c-5.2,0-9.4-1.2-12.6-2.5c1-3.8,1-7.9,0-11.9C100.1,47.8,104.3,46.6,109.5,46.6z
				 M92.6,23c8.7-9.5,19.1-8.2,19.6-7.5c0.5,0.7,1.8,9.4-7.5,19.6c-3.5,3.7-7.4,5.9-10.7,7c-2-3.3-5-6.4-8.4-8.4
				C86.7,30.4,89.1,26.6,92.6,23C98.8,16.9,89.3,26.7,92.6,23z M72.5-1.1c2.5,0,8.5,7.5,8.5,19.4c0,5-1.2,9.4-2.5,12.6
				c-3.8-1-8-1-11.9,0c-1.5-3.2-2.5-7.5-2.5-12.6C64,6.5,70-1.1,72.5-1.1z M32.7,15.5c0.5-0.7,10.7-1.5,19.6,7.5l0,0
				c3.5,3.5,5.9,7.4,7,10.7c-3.3,2.2-6.4,5-8.4,8.4c-3.3-1.2-7.4-3.3-10.7-7C30.2,24.2,32.2,16.2,32.7,15.5z M35.5,63.7
				c-11.9,0-19.4-6-19.4-8.5c0-2.5,7.5-8.5,19.4-8.5c5.2,0,9.4,1.2,12.6,2.5c-1,3.8-1,8,0,11.9C44.9,62.5,40.6,63.7,35.5,63.7z
				 M52.4,87.3c-8.4,8.4-17.9,9.4-19.7,7.7c-0.3-0.3-2.8-9.5,7.7-19.7c3.7-3.5,7.4-5.9,10.7-7c2,3.3,5,6.4,8.4,8.4
				C58.1,80.1,55.8,84,52.4,87.3z M72.5,111.6c-2.5,0-8.5-7.5-8.5-19.4c0-5,1.2-9.4,2.5-12.6c3.8,1,8,1,11.9,0
				c1.5,3.2,2.5,7.5,2.5,12.6C81.1,104,75,111.6,72.5,111.6z M72.5,73.6c-10.2,0-18.4-8.2-18.4-18.4s8.2-18.4,18.4-18.4
				S90.9,45,90.9,55.2S82.6,73.6,72.5,73.6z M112.3,95c-1.8,1.8-11.4,0.7-19.7-7.7c-3.5-3.5-5.9-7.4-7-10.7c3.3-2,6.4-5,8.4-8.4
				c3.3,1.2,7,3.5,10.7,7C115.2,85,112.7,94.7,112.3,95z M159.5,116.1c8.7-4.9,19.2-5.5,28.6-2.2c-9.9,1.7-19.4,6.4-27.1,10.5
				c-7,4-12.2,7.4-16.2,10.4C146.7,129,150.7,121.1,159.5,116.1z M184.5,124.6c-5,4.2-8.5,7.5-11.4,10.4c-4.7,4.5-7.2,7-11.4,8.2
				c-4.5,1.3-9.5,1-15.4-1c4.4-3.3,9.9-7.2,18.1-11.7c9.9-5.5,18.1-8.9,25.3-9.9C187.8,121.8,186.2,123.3,184.5,124.6z"/>
		</g>
	</g>
</g>
<g class="st0">
	<title>Artboard 10</title>
	<g class="st1">
		<path d="M44.5,115.3c-0.7-1.9-2.3-3.3-4.5-3.3H15.2L7,87.2c-0.9-2.3-3.5-3.8-5.9-3c-2.3,0.9-3.8,3.5-3,5.9L7,116.7l-8.9,26.7
			c-0.7,2.3,0.5,5.2,3,5.9c2.3,0.7,5.2-0.5,5.9-3l8.2-24.9h21.3l8.2,24.9c0.9,2.3,3.5,3.8,5.9,3c2.3-0.9,3.8-3.5,3-5.9L44.5,115.3z"
			/>
		<path d="M123.5,83.9H95.3V37h75c2.6,0,4.7-2.1,4.7-4.7l0,0v-9.4c0-1.9-0.9-3.5-2.6-4.2L92.6-18.8c-1.2-0.7-2.8-0.7-4,0L8.8,18.7
			c-1.6,0.7-2.6,2.3-2.6,4.2v9.4c0,2.6,2.1,4.7,4.7,4.7l0,0h75v46.9H58.8c-2.6-0.5-4.7,1.6-4.7,4.2s2.1,4.7,4.7,5.2h27.1v46.9
			l-4.7,0c-1.7,0-3.3,0.8-4.1,2.3c-1.8,3.5,0.7,7.1,4.1,7.1l18.8,0c1.7,0,3.3-0.8,4.1-2.3c1.8-3.5-0.7-7.1-4.1-7.1h-4.7V93.3l27.9,0
			c2,0,4-1.2,4.7-3.1C129,86.9,126.5,83.9,123.5,83.9z M15.6,26l75-35.4l75,35.4v1.6H15.6V26z"/>
		<path d="M176.3,116.7l8.9-26.7c0.7-2.3-0.5-5.2-3-5.9c-2.3-0.7-5.2,0.5-5.9,3l-8.2,24.9h-24.9c-2.1,0-3.8,1.4-4.5,3.3l-9.4,28.1
			c-0.7,2.3,0.5,5.2,3,5.9c2.3,0.7,5.2-0.5,5.9-3l8.2-24.9h21.3l8.2,24.9c0.9,2.3,3.5,3.8,5.9,3c2.3-0.9,3.8-3.5,3-5.9L176.3,116.7z
			"/>
	</g>
</g>
<g class="st0">
	<path class="st1" d="M184.7,66.4c-2.5-10.7-11.2-18.7-21.7-20.8c0-0.6-0.2-1.3-0.4-1.9c-1.7-7.2-5.9-13.3-12.2-17.1
		c-5.1-3.2-10.9-4.6-16.8-4c-4.8-12.6-18.3-20-31.8-16.8c-4,0.8-7.8,2.7-10.9,5.3c-5.1-3.8-10.9-5.9-17.1-5.9
		c-10.9,0-20.8,6.7-25.1,16.6c-14.7-1.1-27.2,9.7-29.1,23.6C6.1,47-4.2,58.6-4.2,72.5c0,11.6,7.4,22.1,18.1,25.9c0,0,0,0,0,0
		c-0.6,14.1,9.6,25.1,26.5,28.6c1.7,0.4,14.3,0.4,30.3,0.4c24,0,55.6-0.2,69.1-0.4l8.2-0.6h0.6c12.2-2.7,21.3-15.8,21.3-29.1
		C181.3,91.9,187.7,79.1,184.7,66.4z M164.3,90.8l-3.2,1.1l0.4,3.2c1.3,10.1-5.5,20.8-14.6,23.2l-7.4,0.6c-37.3,0.4-94.1,0.6-98.1,0
		c-4.7-1.1-20.1-5.3-20.1-19.4c0-1.3,0.2-2.5,0.4-3.6l0.8-4l-4-0.8c-8.9-1.9-15.3-9.9-15.3-19c0-10.7,8.7-19.4,19.3-19.4h4v-4
		c0-10.7,8.7-19.4,19.3-19.4c1.3,0,2.5,0.2,4,0.4l3.8,0.6l1.1-3.6c2.3-8.2,10-13.9,18.7-13.9c5.3,0,10.4,2.1,14,5.9l3,3.2l3-3.2
		c2.5-2.7,5.9-4.8,9.8-5.7c10.4-2.3,20.8,4,23.3,14.5l0.8,4l4-0.8c5.1-1.3,10.2-0.2,14.6,2.3c4.5,2.7,7.4,6.9,8.7,12
		c0.2,1.3,0.4,2.5,0.4,3.8v3.8l3.8,0.2c8.5,0.4,15.9,6.5,17.8,15C179,77.8,173.7,87.7,164.3,90.8z"/>
	<path class="st1" d="M141.8,63.8c-6.1-3.2-13.3-2.3-18.3,2.1c-3.8-1.9-8-2.3-12-1.1c-4.2,1.3-7.6,4-9.7,8c-0.4,0.8-0.2,1.7,0.6,2.1
		c0.8,0.4,1.7,0.2,2.1-0.6c1.7-3.2,4.4-5.5,7.8-6.5s6.9-0.6,10.1,1.1c0.2,0,0.2,0.2,0.4,0.2l1.1,0.6l0.8-0.8
		c4.2-4.2,10.5-5.1,15.6-2.3c6.5,3.4,8.8,11.6,5.5,18.1c-0.4,0.8-0.2,1.7,0.6,2.1c0.2,0.2,0.4,0.2,0.6,0.2c0.6,0,1.1-0.2,1.3-0.8
		C152.7,78.1,149.8,68,141.8,63.8z"/>
	<path class="st1" d="M60.1,45.7c-4.2-1.3-8.6-0.6-12.4,1.5c-5.9,3.4-9.3,9.9-8.2,16.6c-7.6,4.4-10.3,14.3-5.9,22.1
		c0.2,0.4,0.8,0.8,1.3,0.8c0.2,0,0.4,0,0.8-0.2c0.8-0.4,1.1-1.3,0.6-2.1c-3.6-6.3-1.3-14.5,5.3-18.1c0.2,0,0.2-0.2,0.4-0.2l1.1-0.4
		l-0.2-1.3c-1.3-5.7,1.5-11.6,6.5-14.3c3.2-1.7,6.7-2.1,10.1-1.3c3.4,1.1,6.3,3.2,8,6.3c0.4,0.8,1.3,1.1,2.1,0.6
		c0.8-0.4,1.1-1.3,0.6-2.1C67.9,49.7,64.3,46.9,60.1,45.7z"/>
</g>
<g class="st0">
	<g class="st1">
		<g>
			<path d="M206,22.9v-2.4h-14.3V3.8l2.4-3.3l-5.7-15.8l-5.5,15.8l4.1,3.3v16.8H163V3.8l3.6-3.3l-5.5-15.8l-5.5,15.8l2.6,3.3v16.8
				h-21.5V4.8l3.5-3.3l-6-15.8l-5.8,15.8l3.5,3.3v15.8h-23.9V3.8l3.8-3.3l-5.5-15.8l-5.5,15.8l2.4,3.3v16.8H81.8V3.8l2.9-3.3
				l-5.5-15.8L73.7,0.4l3.3,3.3v16.8H53.2V4.8l3.5-3.3l-6-15.8L44.9,1.4l3.5,3.3v15.8H26.9V3.8L30,0.4l-5.5-15.8L19,0.4l3.1,3.3
				v16.8H5.4v4.8h16.7v93.2H5.4v4.8h16.7v19.1h4.8v-19.1h21.5v19.1h4.8v-19.1h23.9v19.1h4.8v-19.1h21.5v19.1h4.8v-19.1H132v19.1h4.8
				v-19.1h21.5v19.1h4.8v-19.1h23.9v19.1h4.8v-19.1H206v-4.8h-16.7V22.9H206z M26.9,118.5V22.9h23.9v95.5H26.9z M53.2,118.5V22.9
				h23.9v95.5H53.2z M81.8,118.5V22.9h23.9v95.5H81.8z M108.1,118.5V22.9H132v95.5H108.1z M134.4,118.5V22.9h23.9v95.5H134.4z
				 M186.9,118.5H163V22.9h23.9V118.5z"/>
		</g>
	</g>
</g>
<g class="st0">
	<g class="st1">
		<g>
			<g>
				<g>
					<path d="M35.7,14.7c1.3,1.3,2.7,2.7,4,4c3.2,3.2,6.4,6.4,9.6,9.6c3.8,3.8,7.7,7.7,11.5,11.5c3.3,3.3,6.7,6.7,10,10
						c1.6,1.6,3.2,3.3,4.9,4.9c0,0,0,0,0.1,0.1c0-1.5,0-3.1,0-4.7L68.9,57h4.7c-1.3-1.3-2.7-2.7-4-4c-3.2-3.2-6.4-6.4-9.6-9.6
						c-3.8-3.8-7.7-7.7-11.5-11.5c-3.3-3.3-6.7-6.7-10-10c-1.6-1.6-3.2-3.3-4.9-4.9c0,0,0,0-0.1-0.1c-1.2-1.2-3.4-1.3-4.7,0
						c-0.3,0.3-0.7,0.7-1,1c-0.2,0.2-0.4,0.4-0.6,0.6c0,0-0.1,0.1-0.1,0.1c0,0-0.1,0.1-0.1,0.1c-0.3,0.4,0.1-0.1,0.2-0.1
						c0,0-0.5,0.3-0.5,0.3c0,0,0.7-0.3,0.3-0.2c-0.3,0.1,0.4-0.1,0.4-0.1c0.3,0,0.5,0.1,0.7,0.1c0.4,0.1,0.1,0.1,0,0
						c0,0,0.5,0.4,0.2,0.1c-0.3-0.3,0.2,0.3,0.2,0.3c-0.1-0.1-0.1-0.2-0.2-0.3c-1.2-1.5-2.3-3-3.4-4.6c-2.4-3.3-4.9-6.5-7.3-9.8
						c0-0.1-0.1-0.1-0.2-0.2c-0.2-0.3-0.3-0.6-0.1-0.1c0-0.1-0.2-0.4,0,0c0.1,0.3,0,0.2,0,0c0,0-0.1,0.7,0,0.3
						c0.1-0.4-0.3,0.6-0.1,0.2c0.2-0.3-0.3,0.3-0.1,0.1c0.1,0,0.2-0.2,0.2-0.2c0.7-0.7,1.5-1.5,2.2-2.2c0.9-0.9,1.9-1.9,2.8-2.8
						C22.8-0.7,23-1,23.4-1.3c0.1-0.1,0.2-0.1,0.2-0.2c0.2-0.2-0.4,0.2-0.1,0.1c0.3-0.2-0.3,0.1-0.3,0.1c0.1,0,0.5-0.1,0,0
						c-0.4,0.1-0.1,0,0,0c0,0-0.7-0.1-0.3,0c0.4,0.1-0.2-0.1-0.2-0.1c0,0,0.3,0.2,0.3,0.2c0.1,0.1,0.2,0.1,0.3,0.2
						c0.1,0.1,0.2,0.1,0.3,0.2c0.6,0.4,1.2,0.9,1.8,1.3c2,1.5,4.1,3.1,6.1,4.6c1.8,1.4,3.6,2.7,5.4,4.1c0.3,0.3,0.7,0.5,1,0.8
						c0,0-0.4-0.3-0.4-0.3c0.1,0.1,0.4,0.3,0.1,0c-0.2-0.2-0.1-0.1,0,0c-0.1-0.2-0.2-0.4-0.2-0.7c0-0.3,0-0.5,0-0.8
						c0,0.1-0.1,0.4,0,0c0.3-0.6-0.2,0.3-0.2,0.3c0,0,0.4-0.5,0.2-0.3c-0.1,0.1-0.1,0.1-0.2,0.2c0,0,0,0-0.1,0.1
						c-0.2,0.2-0.4,0.4-0.6,0.6c-0.3,0.3-0.7,0.7-1,1C34.5,11.3,34.4,13.5,35.7,14.7c1.3,1.2,3.4,1.3,4.7,0c1-1,2-1.9,2.7-3
						c0.8-1.3,1.1-2.9,0.7-4.4C43.4,6,42.4,5,41.3,4.2C39.9,3.1,38.4,2.1,37,1c-2.3-1.7-4.6-3.5-7-5.2c-1.3-1-2.6-2.2-4-2.9
						c-2.5-1.3-5.2-0.9-7.2,1.1c-0.8,0.8-1.5,1.5-2.3,2.3c-1,1-2,2-3,3c-0.9,0.9-1.8,1.7-2.3,2.9c-0.9,2-0.4,4.3,0.9,6
						c0.4,0.6,0.9,1.2,1.3,1.8c1.7,2.2,3.3,4.4,5,6.6c1.4,1.8,2.8,3.7,4.1,5.5c0.9,1.2,1.9,2.4,3.5,3c2.5,0.9,4.7-0.7,6.3-2.3
						c0.4-0.4,0.7-0.7,1.1-1.1h-4.7c1.3,1.3,2.7,2.7,4,4c3.2,3.2,6.4,6.4,9.6,9.6c3.8,3.8,7.7,7.7,11.5,11.5c3.3,3.3,6.7,6.7,10,10
						c1.6,1.6,3.2,3.3,4.9,4.9c0,0,0,0,0.1,0.1c1.5,1.5,4.3,1.2,5.3-0.9c1.8-1.8,3.5-3.5,5.4-5.3c2-1,2.3-3.7,0.8-5.2
						c-1.3-1.3-2.7-2.7-4-4c-3.2-3.2-6.4-6.4-9.6-9.6C63,32.7,59.2,28.9,55.3,25c-3.3-3.3-6.7-6.7-10-10c-1.6-1.6-3.2-3.3-4.9-4.9
						c0,0,0,0-0.1-0.1c-1.2-1.2-3.5-1.3-4.7,0C34.5,11.4,34.4,13.4,35.7,14.7z"/>
				</g>
			</g>
			<g>
				<g>
					<path d="M155.2,129.6c-1.7,1.7-3.4,3.4-5.1,5.1c-0.6,0.6-1.2,1.2-1.8,1.8c-0.2,0.2-0.5,0.4-0.7,0.7c-0.4,0.4,0.5-0.3-0.2,0.1
						c-0.5,0.3-1,0.6-1.5,0.9c-0.5,0.3,0.5-0.2-0.2,0.1c-0.2,0.1-0.5,0.2-0.8,0.2c-0.3,0.1-0.6,0.2-0.9,0.2c-0.1,0-0.2,0-0.3,0.1
						c-0.4,0.1,0.7,0,0.1,0c-0.5,0-1.1,0.1-1.6,0c-0.3,0-0.5,0-0.8-0.1c-0.5,0,0.7,0.1,0.2,0c-0.2,0-0.4-0.1-0.6-0.1
						c-0.5-0.1-1-0.3-1.5-0.5c-0.6-0.2,0.6,0.3-0.2-0.1c-0.3-0.1-0.5-0.3-0.8-0.4c-0.2-0.1-0.5-0.3-0.7-0.4c-0.5-0.3,0,0,0.1,0.1
						c-0.1,0-0.3-0.2-0.4-0.3c-0.2-0.2-0.4-0.3-0.5-0.5c-0.1-0.1-0.1-0.1-0.2-0.2c-1.1-1.1-2.1-2.1-3.2-3.2
						c-4.2-4.2-8.3-8.3-12.5-12.5c-3.7-3.7-7.4-7.4-11.1-11.1c-0.4-0.4-0.8-0.8-1.2-1.2c-0.1-0.1-0.1-0.1-0.2-0.2
						c0,0-0.3-0.4-0.3-0.4c0,0,0.4,0.7,0.1,0.1c-0.1-0.1-0.1-0.2-0.2-0.3c-0.1-0.1-0.3-0.5-0.1-0.1c0.2,0.4,0-0.1-0.1-0.2
						c0-0.1-0.2-1-0.1-0.4c0.1,0.5,0-0.3,0-0.4c0-0.6-0.1,0.6,0-0.1c0-0.1,0.1-0.3,0.1-0.4c0-0.1,0.3-0.5,0-0.1
						c-0.3,0.4,0.2-0.3,0.3-0.4c0.3-0.6-0.1,0.1-0.1,0.1c0-0.1,0.3-0.3,0.3-0.3c0.1-0.1,0.1-0.1,0.2-0.2c1-1,2-2,3-3
						c0.3-0.3,0.5-0.5,0.8-0.8c1.3-1.3,1.3-3.4,0-4.7c-4-4-8-8-12-12c-0.6-0.6-1.1-1.1-1.7-1.7c0,1.5,0,3.1,0,4.7
						c2.3-2.3,4.6-4.6,6.9-6.9c-1.5,0-3.1,0-4.7,0c4,4,8,8,12,12c0.6,0.6,1.1,1.1,1.7,1.7c1.3,1.3,3.4,1.3,4.7,0
						c1.3-1.3,2.6-2.7,4-4c0,0,0.4-0.3,0.4-0.3c0,0-0.5,0.3-0.2,0.2c0.1,0,0.2-0.1,0.3-0.2c0.1,0,0.2-0.1,0.3-0.2
						c0.3-0.2-0.2,0.1-0.3,0.1c0.2,0,0.5-0.2,0.7-0.2c0.1,0,0.2,0,0.3-0.1c0,0-0.7,0-0.3,0c0.2,0,0.5,0,0.7,0c0.3,0-0.3,0-0.3,0
						c0.1,0,0.2,0,0.3,0.1c0.2,0,0.6,0.2,0.7,0.2c0,0-0.6-0.3-0.3-0.1c0.1,0.1,0.2,0.1,0.3,0.2c0.1,0.1,0.2,0.1,0.3,0.2
						c0.3,0.2-0.2-0.1-0.2-0.2c0,0,0.3,0.3,0.4,0.3c0.1,0,0.1,0.1,0.2,0.2c2.3,2.3,4.6,4.6,6.9,6.9c3.8,3.8,7.6,7.6,11.4,11.5
						c2.9,2.9,5.8,5.9,8.8,8.8c0.3,0.3,0.6,0.6,0.9,0.9c0.1,0.1,0.1,0.1,0.2,0.2l0,0c0.2,0.2,0.3,0.3,0.5,0.5
						c0.1,0.1,0.1,0.2,0.2,0.3c0.3,0.3-0.3-0.5-0.1-0.1c0.3,0.4,0.5,0.8,0.8,1.2c0.1,0.2,0.2,0.4,0.3,0.6c0.2,0.3-0.1-0.2-0.1-0.3
						c0,0.2,0.1,0.4,0.2,0.5c0.1,0.4,0.3,0.9,0.4,1.3c0,0.1,0,0.2,0.1,0.3c0,0.2,0.2,0.3,0,0c-0.1-0.3,0-0.2,0,0c0,0.1,0,0.3,0,0.4
						c0,0.4,0,0.9,0,1.4c0,0.2-0.1,0.5-0.1,0.7c0,0,0.1-0.7,0-0.3c0,0.1,0,0.3-0.1,0.4c-0.1,0.4-0.2,0.9-0.4,1.3
						c0,0.1-0.1,0.2-0.1,0.3c-0.2,0.6,0-0.1,0.1-0.1c-0.1,0.1-0.3,0.6-0.4,0.7c-0.2,0.4-0.5,0.8-0.8,1.2c-0.2,0.3,0.1-0.2,0.1-0.2
						c0,0-0.2,0.3-0.2,0.3C155.6,129.2,155.4,129.4,155.2,129.6c-1.2,1.2-1.3,3.4,0,4.7c1.3,1.2,3.4,1.3,4.7,0
						c3.5-3.6,5-8.7,3.9-13.6c-0.6-2.8-2.2-5.2-4.2-7.3c-2.6-2.6-5.3-5.3-7.9-7.9c-4-4-8-8-12-12c-2.6-2.6-5.2-5.2-7.8-7.8
						c-2.3-2.3-5.6-3.5-8.9-2.6c-3,0.8-5.2,3.5-7.3,5.7c-0.2,0.2-0.4,0.4-0.6,0.6c1.5,0,3.1,0,4.7,0c-4-4-8-8-12-12
						c-0.6-0.6-1.1-1.1-1.7-1.7c-1.3-1.3-3.4-1.3-4.7,0c-2.3,2.3-4.6,4.6-6.9,6.9c-1.3,1.3-1.3,3.4,0,4.7c4,4,8,8,12,12
						c0.6,0.6,1.1,1.1,1.7,1.7c0-1.5,0-3.1,0-4.7c-0.9,0.9-1.7,1.7-2.6,2.6c-1.2,1.2-2.4,2.3-3.1,3.8c-1.5,3.2-1,6.8,1.2,9.5
						c0.3,0.4,0.6,0.7,0.9,1c3.3,3.3,6.7,6.7,10,10.1c4.5,4.5,9,9,13.4,13.5c3.5,3.5,6.8,7.6,12,8.4c5,0.8,9.7-0.8,13.2-4.3
						c2-2,4-4,6-6c0.2-0.2,0.4-0.4,0.6-0.6c1.2-1.2,1.3-3.5,0-4.7C158.5,128.4,156.5,128.3,155.2,129.6z"/>
				</g>
			</g>
			<g>
				<g>
					<path d="M122.7,101.7c2.6,2.6,5.2,5.2,7.9,7.9c4.2,4.2,8.4,8.4,12.5,12.5c1,1,1.9,1.9,2.9,2.9c1.2,1.2,3.5,1.3,4.7,0
						c1.2-1.3,1.3-3.4,0-4.7c-2.6-2.6-5.2-5.2-7.9-7.9c-4.2-4.2-8.4-8.4-12.5-12.5c-1-1-1.9-1.9-2.9-2.9c-1.2-1.2-3.5-1.3-4.7,0
						C121.5,98.4,121.4,100.4,122.7,101.7L122.7,101.7z"/>
				</g>
			</g>
			<g>
				<g>
					<path d="M143.7,127.2c-2.6-2.6-5.2-5.2-7.9-7.9c-4.2-4.2-8.4-8.4-12.5-12.5c-1-1-1.9-1.9-2.9-2.9c-1.2-1.2-3.5-1.3-4.7,0
						c-1.2,1.3-1.3,3.4,0,4.7c2.6,2.6,5.2,5.2,7.9,7.9c4.2,4.2,8.4,8.4,12.5,12.5c1,1,1.9,1.9,2.9,2.9c1.2,1.2,3.5,1.3,4.7,0
						C144.9,130.5,145,128.5,143.7,127.2L143.7,127.2z"/>
				</g>
			</g>
		</g>
		<g>
			<g>
				<g>
					<path d="M158.8,23.9c-3.9,3.9-7.9,7.9-11.8,11.8c-1.9,1.9-3.8,3.8-5.7,5.7c-0.1,0.1-0.3,0.3-0.4,0.4c-0.3,0.3-0.7,0.7-1.1,1
						c-0.3,0.3-0.6,0.5-0.9,0.8c0.1-0.1,0.5-0.4,0,0c-0.2,0.1-0.4,0.3-0.6,0.4c-0.6,0.4-1.2,0.7-1.8,1.1c-0.3,0.2-0.6,0.3-0.9,0.5
						c-0.2,0.1-0.4,0.2-0.6,0.3c-0.4,0.2-0.4,0.2,0,0c-0.6,0.4-1.5,0.5-2.1,0.7c-0.7,0.2-1.5,0.4-2.2,0.5c-0.2,0-0.3,0-0.5,0.1
						c-0.5,0.1,0-0.1,0.1,0c-0.1-0.1-0.9,0.1-1,0.1c-0.7,0-1.5,0.1-2.2,0c-0.7,0-1.5,0-2.2-0.2c0.1,0,0.7,0.1,0.1,0
						c-0.2,0-0.3,0-0.5-0.1c-0.4-0.1-0.8-0.2-1.3-0.3c-0.7-0.2-1.4-0.4-2-0.6c-0.2-0.1-0.4-0.1-0.6-0.2c-0.1,0-0.6-0.2-0.2-0.1
						c0.4,0.2-0.1-0.1-0.2-0.1c-0.2-0.1-0.5-0.2-0.7-0.3c-0.7-0.3-1.4-0.7-2-1.2c-0.3-0.2-0.6-0.4-0.9-0.6c-0.1-0.1-0.3-0.2-0.4-0.3
						c0.6,0.4-0.1-0.1-0.2-0.2c-0.3-0.2-0.6-0.5-0.8-0.7c0,0-0.4-0.4-0.4-0.4c-0.1,0.1,0.9,1-0.3-0.3c-0.2-0.3-0.5-0.5-0.8-0.8
						c-0.1-0.2-0.3-0.3-0.5-0.5c0-0.1-0.5-0.7-0.3-0.3c0.2,0.3-0.1-0.1-0.2-0.2c-0.1-0.2-0.3-0.4-0.4-0.6c-0.2-0.3-0.4-0.6-0.6-0.9
						c-0.4-0.7-0.8-1.4-1.2-2.1c-0.1-0.2-0.1-0.3-0.2-0.5c0.3,0.6,0.1,0.2,0,0c-0.1-0.4-0.3-0.8-0.4-1.1c-0.2-0.8-0.5-1.5-0.6-2.3
						c-0.1-0.4-0.1-0.7-0.2-1.1c0-0.2-0.1-0.6,0,0.1c0-0.2,0-0.3,0-0.5c-0.1-0.7-0.1-1.5-0.1-2.2c0-0.7,0-1.4,0.1-2.1
						c0-0.2,0-0.3,0-0.5c0-0.5-0.1,0.8,0,0c0.1-0.4,0.1-0.7,0.2-1.1c0.1-0.7,0.3-1.4,0.5-2.1c0.1-0.3,0.2-0.6,0.3-1
						c0-0.2,0.1-0.3,0.2-0.5c0.2-0.7-0.2,0.5,0.1-0.1c0.6-1.4,1.4-2.7,2.3-4c0.1-0.1,0.4-0.5,0,0c0.1-0.1,0.2-0.3,0.3-0.4
						c0.2-0.3,0.5-0.5,0.7-0.8c0.2-0.3,0.5-0.5,0.8-0.8c1.5-1.5,3-3,4.4-4.4c4.4-4.4,8.9-8.9,13.3-13.3c0.1-0.1,0.2-0.2,0.3-0.3
						c1.7-1.7,1-4.9-1.4-5.5c-12.4-3-26-0.7-36.5,6.6C89,2.2,84.4,7,81,12.8c-3.3,5.5-5.2,11.7-6,18c-0.8,6.7,0,13.8,2.3,20.2
						c0.3-1.1,0.6-2.1,0.8-3.2c-3.5,3.5-6.9,6.9-10.3,10.3c-4.6,4.6-9.1,9.1-13.7,13.7C47.4,78.5,40.6,85.3,33.9,92
						c-5,5-10,10-15,15c-1.5,1.5-3.1,3-4.4,4.9c-5,7-5,17-0.1,24.1c4.7,6.8,12.8,10.3,21,9.2c4.8-0.7,9-3,12.3-6.4
						c4-4,8.1-8.1,12.1-12.1c6.7-6.7,13.3-13.3,20-20c5.4-5.4,10.8-10.8,16.2-16.2c3.2-3.2,6.5-6.5,9.7-9.7c0.9-0.9,1.8-1.8,2.7-2.7
						c-1.1,0.3-2.1,0.6-3.2,0.8c11.8,4,25,3,36-2.8c11.4-5.9,19.9-16.9,22.9-29.4c1.7-7,1.7-14.2,0.1-21.2c-0.4-1.7-2.4-2.8-4-2.3
						c-1.8,0.6-2.7,2.3-2.3,4c0.1,0.7,0.3,1.4,0.4,2.1c0.1,0.3,0.1,0.7,0.2,1c0,0.2,0,0.3,0.1,0.5c0.1,0.4-0.1-0.7,0,0
						c0.1,1.4,0.3,2.9,0.3,4.3c0,1.4,0,2.8-0.1,4.2c0,0.4-0.1,0.7-0.1,1.1c0,0.3-0.2,0.7-0.1,1c0-0.1,0.1-0.8,0-0.1
						c0,0.2,0,0.3-0.1,0.5c-0.1,0.4-0.1,0.8-0.2,1.2c-0.5,2.8-1.3,5.5-2.4,8.2c-0.2,0.6,0,0,0-0.1c0,0.1-0.1,0.3-0.2,0.5
						c-0.1,0.3-0.3,0.7-0.5,1c-0.3,0.7-0.6,1.3-1,1.9c-0.7,1.3-1.5,2.6-2.4,3.8c-0.2,0.3-0.4,0.6-0.6,0.8c-0.1,0.1-0.2,0.3-0.3,0.4
						c-0.1,0.1-0.4,0.5-0.1,0.2c0.3-0.4-0.2,0.3-0.2,0.3c-0.1,0.1-0.2,0.3-0.3,0.4c-0.2,0.3-0.5,0.6-0.8,0.9c-1,1.2-2.1,2.3-3.2,3.3
						c-0.5,0.5-1,0.9-1.6,1.4c-0.3,0.2-0.5,0.4-0.8,0.6c-0.5,0.4,0,0,0.1,0c-0.2,0.2-0.4,0.3-0.6,0.5c-1.2,0.8-2.4,1.6-3.6,2.4
						c-1.2,0.7-2.5,1.4-3.8,1.9c-0.3,0.1-0.6,0.3-0.9,0.4c0.8-0.3-0.3,0.1-0.5,0.2c-0.7,0.2-1.3,0.5-2,0.7c-1.4,0.4-2.7,0.8-4.1,1.1
						c-0.7,0.1-1.3,0.3-2,0.4c-0.3,0-0.6,0.1-1,0.1c-0.2,0-0.6,0.1,0.1,0c-0.2,0-0.4,0-0.6,0.1c-3.1,0.4-6.2,0.4-9.3,0.1
						c-0.2,0-1.5-0.1-0.6,0c-0.4,0-0.8-0.1-1.2-0.2c-0.7-0.1-1.4-0.3-2.2-0.4c-1.6-0.3-3.1-0.8-4.7-1.3c-1.1-0.4-2.4,0-3.2,0.8
						c-3.4,3.4-6.9,6.9-10.3,10.3c-4.4,4.4-8.8,8.8-13.2,13.2c-6.6,6.6-13.2,13.2-19.8,19.8c-5.1,5.1-10.3,10.3-15.4,15.4
						c-0.8,0.8-1.6,1.6-2.5,2.5c-0.3,0.3-0.6,0.6-0.9,0.8c-0.1,0.1-0.3,0.3-0.5,0.4c-0.2,0.1-0.5,0.5,0,0c-0.5,0.6-1.6,1.1-2.3,1.4
						c-0.4,0.2-0.8,0.4-1.1,0.6c-0.6,0.3,0.1,0,0.1-0.1c-0.1,0.1-0.5,0.2-0.6,0.2c-0.8,0.3-1.7,0.5-2.5,0.7c-0.2,0-0.4,0.1-0.6,0.1
						c-0.3,0-0.9,0,0,0c-0.4,0-0.8,0.1-1.1,0.1c-0.8,0-1.7,0-2.5,0c-0.1,0-0.6,0-0.7-0.1c0.1,0,0.3,0,0.4,0.1c-0.1,0-0.3,0-0.4-0.1
						c-0.4-0.1-0.7-0.1-1.1-0.2c-0.8-0.2-1.6-0.5-2.4-0.7c-0.7-0.3,0.7,0.3-0.1,0c-0.2-0.1-0.4-0.2-0.6-0.3c-0.3-0.2-0.7-0.3-1-0.5
						c-0.3-0.2-0.7-0.4-1-0.6c-0.2-0.1-0.4-0.3-0.6-0.4c-0.6-0.4,0.4,0.4-0.1-0.1c-0.7-0.6-1.4-1.2-2-1.9c-0.3-0.3-0.6-0.7-0.9-1
						c0.5,0.6-0.1-0.1-0.1-0.2c-0.1-0.2-0.3-0.4-0.4-0.7c-0.3-0.4-0.5-0.8-0.7-1.3c-0.1-0.2-0.2-0.4-0.3-0.6
						c-0.1-0.1-0.5-0.9-0.1-0.2c-0.5-0.8-0.7-1.9-0.9-2.7c-0.1-0.5-0.2-0.9-0.3-1.4c-0.1-0.5,0.1,0.8,0,0c0-0.3,0-0.5-0.1-0.8
						c0-1,0-1.9,0.1-2.8c0-0.9-0.1,0.7,0-0.1c0-0.2,0-0.3,0.1-0.5c0.1-0.5,0.2-1,0.3-1.5c0.1-0.4,0.2-0.8,0.4-1.2
						c0.1-0.2,0.2-0.5,0.3-0.7c-0.3,0.5,0,0.1,0.1-0.2c0.4-0.9,0.9-1.7,1.4-2.5c0.1-0.1,0.2-0.3,0.3-0.4c0.5-0.7-0.4,0.5,0.1-0.2
						c0.4-0.4,0.7-0.8,1.1-1.2c0.2-0.2,0.4-0.4,0.6-0.6c4.2-4.2,8.3-8.3,12.5-12.5c6.6-6.6,13.2-13.2,19.7-19.7
						c5.3-5.3,10.6-10.6,16-16c3.2-3.2,6.4-6.4,9.5-9.5c0.9-0.9,1.8-1.8,2.7-2.7c0.8-0.8,1.2-2.1,0.8-3.2c-0.5-1.3-0.9-2.7-1.3-4.1
						c-0.3-1.3-0.8-2.8-0.8-4.2c0,0.1,0.1,0.8,0,0.1c0-0.2,0-0.3-0.1-0.5c0-0.3-0.1-0.6-0.1-1c-0.1-0.7-0.1-1.5-0.1-2.2
						c0-1.4,0-2.8,0-4.1c0-0.7,0.1-1.4,0.2-2.1c0-0.1,0.1-1.2,0.1-0.7c-0.1,0.6,0-0.2,0-0.3c0-0.2,0.1-0.4,0.1-0.6
						c0.2-1.4,0.5-2.8,0.9-4.2c0.4-1.3,0.8-2.7,1.3-4c0.1-0.3,0.2-0.6,0.4-0.9c-0.4,0.7,0.1-0.1,0.2-0.3c0.3-0.7,0.6-1.3,1-2
						c0.7-1.3,1.4-2.6,2.2-3.8c0.4-0.6,0.8-1.2,1.2-1.8c0.1-0.2,0.7-1,0.3-0.3c0.2-0.3,0.5-0.7,0.8-1c1.9-2.3,4.1-4.4,6.4-6.2
						c0.5-0.4,0,0,0,0c0.2-0.1,0.3-0.3,0.5-0.4c0.3-0.2,0.6-0.4,0.8-0.6c0.6-0.4,1.3-0.9,1.9-1.3c1.3-0.8,2.6-1.5,3.9-2.1
						c0.3-0.1,0.6-0.3,0.9-0.4c0.1-0.1,0.3-0.1,0.5-0.2c0.2-0.1,0.4-0.3-0.1,0c0.6-0.4,1.5-0.6,2.1-0.8c1.3-0.5,2.7-0.9,4.1-1.2
						c0.8-0.2,1.6-0.4,2.5-0.5c0.4-0.1,0.8-0.1,1.2-0.2c0.2,0,0.6-0.1-0.1,0c0.2,0,0.4,0,0.6-0.1c1.6-0.2,3.2-0.3,4.9-0.3
						c1.6,0,3.2,0.1,4.7,0.3c0.2,0,0.3,0,0.5,0.1c-0.9-0.2,0,0,0.1,0c0.4,0.1,0.8,0.1,1.2,0.2c0.8,0.1,1.6,0.3,2.5,0.5
						c-0.5-1.8-1-3.7-1.4-5.5c-4.1,4.1-8.2,8.2-12.3,12.3c-1.9,1.9-3.7,3.7-5.6,5.6c-3.8,3.8-6.5,8.7-7.3,14.1
						c-1.1,7.2,0.8,14.4,5.4,20.1c0.2,0.3,0.5,0.6,0.7,0.9c0.1,0.1,0.2,0.3,0.4,0.4c0.1,0.1,0.1,0.1,0.2,0.2c0.2,0.3,0.3,0.3,0,0
						c0-0.1-0.1-0.1-0.2-0.2c0.2,0.3,0.4,0.5,0.6,0.8c0.2,0.2,0.3,0.3,0.5,0.5c0.3,0.3,0.7,0.6,1.1,0.9c1.4,1.2,2.9,2.2,4.6,3.1
						c3.2,1.6,6.6,2.6,10.1,2.8c6.8,0.5,13.6-2,18.7-6.6c1.6-1.4,3-3,4.5-4.5c4.6-4.6,9.2-9.2,13.9-13.9c0.1-0.1,0.2-0.2,0.3-0.3
						c1.2-1.2,1.3-3.5,0-4.7C162.1,22.7,160.1,22.6,158.8,23.9z"/>
					<path d="M32.2,125.3C31.7,125.8,32.7,125,32.2,125.3c-0.2,0.1-0.3,0.2-0.4,0.3c0.4-0.2,0.5-0.2,0.3-0.1
						c-0.2,0.1-0.4,0.1-0.6,0.2c-0.2,0-0.1,0,0.3,0c-0.1,0-0.3,0-0.4,0c-0.6,0,0.6,0.2,0,0c-0.1,0-0.6-0.1-0.6-0.2
						c0.4,0.2,0.5,0.2,0.3,0.1c-0.1,0-0.2-0.1-0.3-0.2c-0.2-0.2-0.2-0.2,0,0c0.2,0.2,0.2,0.1,0,0c-0.2-0.3-0.2-0.2,0.1,0.1
						c0-0.1-0.1-0.1-0.1-0.2c-0.1-0.1-0.2-0.3-0.2-0.4c0,0.1,0.1,0.2,0.1,0.4c-0.1-0.1-0.1-0.5-0.2-0.6c-0.2-0.6,0,0.7,0-0.1
						c0-0.8-0.1,0.3,0,0c0-0.1,0.1-0.7,0.2-0.7c0,0.1-0.1,0.2-0.1,0.4c0.1-0.1,0.1-0.3,0.2-0.4c0-0.1,0.1-0.1,0.1-0.2
						c-0.3,0.4-0.3,0.4-0.1,0.1c0.2-0.2,0.2-0.2,0,0c-0.2,0.1-0.2,0.1,0,0c0.1-0.1,0.2-0.1,0.3-0.2c0.2-0.1,0.1-0.1-0.3,0.1
						c0.1-0.1,0.5-0.1,0.6-0.2c0.6-0.2-0.6,0,0,0c0.1,0,0.3,0,0.4,0c-0.5-0.1-0.6-0.1-0.3,0c0.2,0.1,0.4,0.1,0.6,0.2
						c0.2,0.1,0.1,0-0.3-0.1c0.1,0,0.2,0.1,0.3,0.2c0.7,0.4-0.3-0.3,0.1,0.1c0.5,0.5-0.3-0.5,0.1,0c0,0.1,0.1,0.1,0.1,0.2
						c0.2,0.3,0.1,0.3,0-0.2c0,0.2,0.1,0.5,0.2,0.6c0.2,0.6,0-0.7,0,0c-0.1,0.9,0,0,0,0c0,0-0.1,0.6-0.2,0.6
						c-0.1,0.6,0.3-0.6-0.1,0.1C31.9,125.8,32.7,124.8,32.2,125.3c-1.2,1.3-1.3,3.4,0,4.7c1.3,1.2,3.4,1.3,4.7,0
						c2.3-2.5,2.8-5.9,1.4-8.9c-1.3-2.7-4.4-4.4-7.3-4.2c-3.3,0.2-6.2,2.5-7,5.7c-0.8,3.2,0.5,6.5,3.2,8.4c3,2.1,7.1,1.5,9.7-1
						c1.3-1.2,1.3-3.5,0-4.7C35.5,124,33.6,124,32.2,125.3z"/>
				</g>
			</g>
			<g>
				<g>
					<path d="M50.1,110.5c1.4-1.4,2.8-2.8,4.2-4.2c3.4-3.4,6.8-6.8,10.2-10.2c4.1-4.1,8.2-8.2,12.3-12.3c3.5-3.5,7.1-7.1,10.6-10.6
						c1.7-1.7,3.5-3.4,5.2-5.2c0,0,0,0,0.1-0.1c1.2-1.2,1.3-3.5,0-4.7c-1.3-1.2-3.4-1.3-4.7,0c-1.4,1.4-2.8,2.8-4.2,4.2
						c-3.4,3.4-6.8,6.8-10.2,10.2c-4.1,4.1-8.2,8.2-12.3,12.3c-3.5,3.5-7.1,7.1-10.6,10.6c-1.7,1.7-3.5,3.4-5.2,5.2c0,0,0,0-0.1,0.1
						c-1.2,1.2-1.3,3.5,0,4.7C46.7,111.7,48.8,111.8,50.1,110.5L50.1,110.5z"/>
				</g>
			</g>
		</g>
	</g>
</g>
<g class="st0">
	<title>Artboard 11</title>
	<g class="st1">
		<path d="M155.6,53.6h-8.3c-1.7-7.6-4.6-14.7-8.8-21.3l5.8-5.8c1.4-1.4,1.4-3.4,0-4.7l0,0L129.8,7.4c-1.4-1.4-3.4-1.4-4.7,0l0,0
			l-5.8,5.8c-6.4-4.2-13.7-7.3-21.3-8.8v-8.3c0-1.9-1.5-3.4-3.4-3.4l0,0H74.3c-1.9,0-3.4,1.5-3.4,3.4v0.2v8.3
			c-7.6,1.7-14.7,4.6-21.3,8.8l-5.8-5.9c-1.4-1.4-3.4-1.4-4.7,0l0,0L24.7,21.8c-1.4,1.4-1.4,3.4,0,4.7l0,0l5.8,5.8
			c-4.2,6.4-7.3,13.7-8.8,21.3h-8.3c-1.9,0-3.4,1.5-3.4,3.4l0,0v20.3c0,1.9,1.5,3.4,3.4,3.4h0.2h8.3c1.7,7.6,4.6,14.7,8.8,21.3
			l-5.9,5.9c-1.4,1.4-1.4,3.4,0,4.7l0,0L39.1,127c1.4,1.4,3.4,1.4,4.7,0l0,0l5.8-5.7c6.4,4.2,13.7,7.3,21.3,8.8v8.3
			c0,1.9,1.5,3.4,3.4,3.4l0,0h20.3c1.9,0,3.4-1.5,3.4-3.4v0V130c7.6-1.7,14.7-4.6,21.3-8.8l5.7,5.8c1.4,1.4,3.4,1.4,4.7,0l0,0
			l14.4-14.4c1.4-1.4,1.4-3.4,0-4.7l0,0l-5.7-5.8c4.2-6.4,7.3-13.7,8.8-21.3h8.4c1.9,0,3.4-1.5,3.4-3.4l0,0V57
			C158.9,55.2,157.4,53.6,155.6,53.6L155.6,53.6z M152.2,74h-7.4c-1.7,0-3,1.2-3.4,2.9c-1.4,8.6-4.7,16.6-9.8,23.7
			c-1,1.4-0.8,3.2,0.3,4.4l5.4,5.4l-9.7,9.7l-5.4-5.4c-1.2-1.2-3-1.4-4.4-0.3c-7.1,5.1-15.2,8.5-23.7,9.8c-1.7,0.3-2.9,1.7-2.9,3.4
			v7.5H77.7v-7.5c0-1.7-1.2-3-2.9-3.4c-8.7-1.4-16.6-4.7-23.8-9.8c-1.4-1-3.2-0.8-4.4,0.3l-5.4,5.4l-9.7-9.7l5.4-5.4
			c1.2-1.2,1.4-3,0.3-4.4c-5.1-7.1-8.5-15.2-9.8-23.7C27.1,75.1,25.7,74,24,74h-7.3V60.4h7.4c1.7,0,3-1.2,3.4-2.9
			c1.4-8.7,4.7-16.6,9.8-23.8c1-1.4,0.8-3.2-0.3-4.4l-5.4-5.4l9.7-9.7l5.4,5.4c1.2,1.2,3,1.4,4.4,0.3c7.1-5.1,15.2-8.5,23.7-9.8
			c1.7-0.3,2.9-1.7,2.9-3.4v-7.3h13.5v6.8c0,1.7,1.2,3.1,2.9,3.4c8.7,1.4,16.6,4.8,23.8,9.9c1.4,1,3.2,0.9,4.4-0.3l5.4-5.5l9.7,9.8
			L132,29c-1.2,1.2-1.4,3.1-0.3,4.5c5.1,7.2,8.5,15.4,9.8,24c0.3,1.7,1.7,2.9,3.4,2.9h7.3V74z"/>
		<path d="M83.9,19.8c-26.2,0-47.4,21.2-47.4,47.4s21.2,47.4,47.4,47.4s47.4-21.2,47.4-47.4S110.2,19.8,83.9,19.8z M77.7,107.2V88.5
			c0-1.4-0.7-2.5-1.9-3C65.3,80.7,61,68.7,65.8,58.6c1.2-2.5,3-4.7,5-6.4v13.4c0,3.7,3,6.8,6.8,6.8h13.5c3.7,0,6.8-3,6.8-6.8V52.1
			c8.5,7.5,9.4,20.1,1.7,28.4c-1.9,2-4.2,3.7-6.6,4.9c-1.2,0.5-1.9,1.7-1.9,3v18.6C86.6,108,82,108,77.7,107.2z M98,105.5V90.6
			c12.9-7.5,17.4-23.9,10-36.7c-2.7-4.7-6.9-8.6-11.9-11c-1.7-0.8-3.7-0.2-4.6,1.5c-0.2,0.5-0.3,1-0.3,1.5v19.6H77.7V45.9
			c0-1.9-1.5-3.4-3.4-3.4c-0.5,0-1,0.2-1.5,0.3c-13.5,6.3-19.3,22.3-12.9,35.9c2.4,5.1,6.3,9.1,11,11.9v14.9
			C49,97.7,38,73.2,47,51.4C54.8,32.8,75.7,22.7,95.2,28c23,6.3,35.3,30.6,27.5,52.7C118.6,92.3,109.5,101.4,98,105.5z"/>
	</g>
</g>
<g class="st0">
	<g class="st1">
		<path d="M158.2,102c-0.4-8.9-7.5-16-16.4-16c-8.3,0-15.2,6.5-16.2,15.3H87.4V63h6.5c1.2-1,2-1.8,1.6-3V47.8
			c0.4-1.2-1.6-3.1-1.6-3.1h-4.4v-6.2c0-3.2-2.5-6-5.9-6H71.1c-3.1,0-5.9,2.6-5.9,6v6.2h-4.4c0,0-2,1.9-1.6,3.1V60
			c-0.4,1.2,0.4,2,1.6,3h6.5v38.4h-38c-1-9.1-7.9-15.3-16.2-15.3c-8.9,0-16,7.1-16.4,16c0,0.2-0.2,0.4-0.2,0.6c0,1.2,0.8,2,2,2.8
			h71.4h15h71.6c1.2-0.8,2-1.6,2-2.8C158.4,102.4,158.4,102.2,158.2,102z M142,90.9c6.1,0,11.1,4.7,12.1,10.5h-24.3
			C130.7,95.5,135.8,90.9,142,90.9z M69,38.7c0-1,0.8-2,2-2h12.4c1,0,1.9,0.8,1.9,2v6.1H69.2v-6.1H69z M63,50.8h4h20.5h4v8.1h-6.8
			H70h-6.8v-8.1H63z M13,90.9c6.1,0,11.1,4.7,12.1,10.5H0.9C1.9,95.5,6.9,90.9,13,90.9z M73.3,101.4V63h10.1v38.4H73.3z"/>
		<path d="M46.8,28.2c0.4,0.4,1,0.6,1.4,0.6c0.6,0,1-0.2,1.4-0.6c0.8-0.8,0.8-2,0-2.8L44,19.5c-0.8-0.8-2-0.8-2.8,0
			c-0.8,0.8-0.8,2,0,2.8L46.8,28.2z"/>
		<path d="M30.8,39.1l7.5,1.6c0.2,0,0.2,0,0.4,0c1,0,1.8-0.6,2-1.6c0.2-1-0.4-2.2-1.6-2.4L31.6,35c-1-0.2-2.2,0.4-2.4,1.6
			C29,37.9,29.8,38.9,30.8,39.1z"/>
		<path d="M31.2,60.9c0.2,0,0.2,0,0.4,0l7.5-1.6c1-0.2,1.8-1.2,1.6-2.4c-0.2-1-1.2-1.8-2.4-1.6l-7.5,1.6c-1,0.2-1.8,1.2-1.6,2.4
			C29.6,60.3,30.4,60.9,31.2,60.9z"/>
		<path d="M45.8,68.5l-4.7,4.9c-0.8,0.8-0.8,2,0,2.8c0.4,0.4,0.8,0.6,1.4,0.6s1-0.2,1.4-0.6l4.7-4.9c0.8-0.8,0.8-2,0-2.8
			C47.8,67.7,46.6,67.7,45.8,68.5z"/>
		<path d="M108.9,28.8c0.6,0,1-0.2,1.4-0.6l5.7-5.9c0.8-0.8,0.8-2,0-2.8c-0.8-0.8-2-0.8-2.8,0l-5.7,5.9c-0.8,0.8-0.8,2,0,2.8
			C107.9,28.6,108.3,28.8,108.9,28.8z"/>
		<path d="M116.6,39.1c0.2,1,1,1.6,2,1.6c0.2,0,0.2,0,0.4,0l7.5-1.6c1-0.2,1.8-1.2,1.6-2.4c-0.2-1-1.2-1.8-2.4-1.6l-7.7,1.6
			C117,36.9,116.2,37.9,116.6,39.1z"/>
		<path d="M118,59.3l7.5,1.6c0.2,0,0.2,0,0.4,0c1,0,1.8-0.6,2-1.6c0.2-1-0.4-2.2-1.6-2.4l-7.5-1.6c-1-0.2-2.2,0.4-2.4,1.6
			C116.2,57.9,117,58.9,118,59.3z"/>
		<path d="M111.3,68.5c-0.8-0.8-2-0.8-2.8,0s-0.8,2,0,2.8l4.7,4.9c0.4,0.4,1,0.6,1.4,0.6c0.6,0,1-0.2,1.4-0.6c0.8-0.8,0.8-2,0-2.8
			L111.3,68.5z"/>
	</g>
</g>
<g class="st0">
	<title>a</title>
	<g class="st1">
		<circle cx="61" cy="101.9" r="6.2"/>
		<path d="M167,85.7V77c0-0.9-0.3-1.6-0.9-2.2l-15.6-15.6c-0.6-0.6-1.2-0.9-2.2-0.9h-46.8V27.1c0-3.4-2.8-6.2-6.2-6.2H64.1
			c-3.4,0-6.2,2.8-6.2,6.2v21.8H6c-1.9,0-3.4,0.6-4.7,2.2c-2.8,2.8-5.9,10-5.9,25.9v21.8c0,3.4,2.8,6.2,6.2,6.2h3.4
			c1.6,10.3,11.2,17.2,21.5,15.3c7.8-1.2,14-7.5,15.3-15.3h0.6c1.6,10.3,11.2,17.2,21.5,15.3c7.8-1.2,14-7.5,15.3-15.3h2.2
			c1.6,0,3.1-0.6,4.4-1.9l13.7-13.7c1.2-1.2,1.9-2.8,1.9-4.4V77h39.3l6.2,6.2H114c-3.4,0-6.2,2.8-6.2,6.2v20c0,2.5,1.2,4.7,3.4,5.6
			l10.9,5.3l0,0c0.3,0.3,0.9,0.3,1.2,0.3h9.4c1.9,0,3.1-1.2,3.1-3.1c0-1.9-1.2-3.1-3.1-3.1h-6.2v-25h17.2
			c-7.4,8.5-6.1,21.7,3.7,28.1c7.1,4.7,16.9,4,23.1-1.9c8.2-7.7,8-20.6-0.3-27.8C169.2,87.3,168.2,86.3,167,85.7z M76.5,70.7V39.5
			h18.7v31.2H76.5z M1.7,77c0-15.6,3.4-20.6,4.4-21.8h51.8v28.4c-7.8,1.2-14,7.5-15.3,15.3h-0.3c0,0,0,0,0-0.3
			c-1.9-10.3-11.7-16.8-22.2-15c-7.9,1.2-14,7.5-15.2,15c0,0,0,0,0,0.3H1.7V77z M23.6,114.4c-6.9,0-12.5-5.6-12.5-12.5
			c0-6.9,5.6-12.5,12.5-12.5s12.5,5.6,12.5,12.5C36.1,108.8,30.4,114.4,23.6,114.4z M61,114.4c-6.9,0-12.5-5.6-12.5-12.5
			c0-6.9,5.6-12.5,12.5-12.5s12.5,5.6,12.5,12.5C73.5,108.8,67.9,114.4,61,114.4z M95.3,84.8l-14,14H79c-1.3-7.6-7.3-13.7-15-15.6
			c-0.3,0,0.3,0,0,0V27.1h31.2v6.2H76.5c-3.4,0-6.2,2.8-6.2,6.2v31.2c0,3.4,2.8,6.2,6.2,6.2h18.7V84.8z M142,70.7h-40.6v-6.2H147
			l13.7,13.7v5h-0.3c-0.9-0.3-1.9-0.3-2.8-0.3c-0.9,0-1.9,0-2.8,0.3h-0.3v-0.3c0-0.9-0.3-1.5-0.9-2.1l-9.4-9.1
			C143.6,71,143,70.7,142,70.7z M114,89.5h6.2v23.1l-6.2-3.1V89.5z M157.7,114.4c-6.9,0-12.5-5.6-12.5-12.5c0-5,2.8-9.4,7.5-11.2
			l0,0c2.5-0.9,5-1.2,7.5-0.6c6.9,1.6,10.9,8.1,9.7,15C168.6,110.4,163.6,114.4,157.7,114.4z"/>
		<circle cx="157.7" cy="101.9" r="6.2"/>
		<circle cx="23.6" cy="101.9" r="6.2"/>
		<path d="M11.1,77h25c1.9,0,3.1-1.2,3.1-3.1c0-1.9-1.2-3.1-3.1-3.1h-25C9.2,70.7,8,72,8,73.9C8,75.7,9.2,77,11.1,77z"/>
		<path d="M11.1,67.6h25c1.9,0,3.1-1.2,3.1-3.1s-1.2-3.1-3.1-3.1h-25c-1.9,0-3.1,1.2-3.1,3.1S9.2,67.6,11.1,67.6z"/>
	</g>
</g>
<g class="st0">
	<title>015 - Tractor</title>
	<desc>Created with Sketch.</desc>
	<g class="st1">
		<g>
			<path d="M28,97.5c-8.4,0-14.9,6.6-14.9,14.9s6.6,14.9,14.9,14.9s14.9-6.6,14.9-14.9S36.4,97.5,28,97.5z M28,121.4
				c-5.1,0-9-3.9-9-9c0-5.1,3.9-9,9-9s9,3.9,9,9C37,117.5,33.1,121.4,28,121.4z"/>
			<path d="M117.6,115.4c-3.6,0-6.9,2.1-8.4,5.7c-1.5,3.3-0.6,7.2,2.1,9.9c2.7,2.7,6.6,3.3,9.9,2.1c3.3-1.5,5.7-4.8,5.7-8.4
				C126.5,119.6,122.7,115.4,117.6,115.4z M117.6,127.3c-1.8,0-3-1.5-3-3c0-1.8,1.5-3,3-3c1.8,0,3,1.5,3,3
				C120.6,126.1,119.4,127.3,117.6,127.3z"/>
			<path d="M41.7,143.2c8.7-3.9,15.2-11.6,17.9-20.9H97c-1.2,8.4,2.7,16.7,9.9,20.9 M128.5,142.3c6-3.6,9.9-10.2,10.2-17.3
				c0.3-7.2-3-13.7-9-17.9V83.2c0-1.5-1.2-2.7-2.7-3l-17.9-2.1l8.1-42.4h30.5H161c0.9,0,1.5-0.3,2.1-0.9l10.4-10.4
				c1.2-1.2,1.2-3,0-4.2L148.2-5.2c-1.2-1.2-3-1.2-4.2,0L133.6,5.2c-0.6,0.6-0.9,1.2-0.9,2.1v13.4c0,0.9,0.3,1.5,0.9,2.1l6.9,6.9
				h-24.5l-6-6h13.6c0,0,3-2.1,3-3.9s-1.2-3-3-2.1h-20.9c-0.3-0.9-0.6-0.9-1.2-0.6c0,0-0.3,0-0.3,0.3c-0.3,0-0.6,0.3-1.3,0.3l0,0
				v0.3c0.4,0.3,0.4,0.3,0.4,0.6l2.5,0.3v0.3L88.9,75.1l-10-1.2V38.7c0-1.6-1.3-3-3-3H22.2c-1.8,0-3,1.2-3,3s1.2,3,3,3h3v26.9h-3
				c-1.8,0-3,1.2-3,3s1.2,3,3,3h3v5.4C10.3,81.1-1.7,92.4-4.1,107s5.1,29,18.5,35.2 M138.6,8.5l7.5-7.5l21.2,21.2l-7.5,7.5h-11
				l-10.2-10.2V8.5z M73,77.5v11.9h-4.5c-3.6-6.9-9.6-12.8-16.4-16.4V41.7H73V77.5z M31.2,41.7h14.9v28.7c-3.9-1.2-7.8-1.8-11.9-1.8
				h-3V41.7z M34.1,74.5c4.8,0,9.3,0.9,13.7,3c7.2,3.3,12.8,9,16.1,16.1c2.1,4.2,3,9,3,13.7v9l-6,0c0-0.1-0.1-0.1-0.1-0.1
				c1.5-18.3-11.8-33.8-29.7-35.4v-6.3H34.1z M28,139.3c-11.3,0-21.5-7.2-25.4-17.9S2,98.7,11,91.5c8.7-7.2,21.2-8.1,30.8-2.1
				c9.6,6,14.6,17.3,12.5,28.4C51.9,130.3,40.8,139.3,28,139.3z M132.5,124.3c0,8.4-6.6,14.9-14.9,14.9s-14.9-6.6-14.9-14.9
				s6.6-14.9,14.9-14.9S132.5,116,132.5,124.3z M123.7,105.2c-9.9-3-20.3,1.8-24.8,11H73v-9c0-4.2-0.6-8.1-1.8-11.9h4.8
				c0,0,0,0,0.3,0c0.3,0,0,0,0,0l38.2,3h0.3c1.8,0,3-1.2,3-3c0-1.8-1.2-3-3-3l-35.8-2.7v-8.7l44.8,5.4V105.2z M94.6,75.7l9.9-49.9
				l6.9,6.9l-8.4,43.9L94.6,75.7z"/>
		</g>
	</g>
</g>
<g>
	<path d="M146.5,0.6L1.4,104.1c-1.5,1.1-1.8,2.8-0.7,4.3l0,0l17.8,25c1.1,1.5,2.8,1.8,4.3,0.7l0,0L167.9,30.7
		c1.5-1.1,1.8-2.8,0.7-4.3l0,0l-17.8-25C149.7-0.1,148-0.4,146.5,0.6L146.5,0.6z M151.8,34.6l-8.8,6.2c1.2-9.5-4.9-18-14.3-20
		l8.8-6.2L151.8,34.6z M33.7,104.4c-3.9-5.5-2.6-13.2,2.9-17.1s13.2-2.6,17.1,2.9c3.9,5.5,2.6,13.2-2.9,17.1
		C45.3,111.2,37.6,109.9,33.7,104.4z M48.7,77.9L65,66.3l5.3,7.5c1.1,1.5,2.8,1.8,4.3,0.7l0,0l20-14.3c1.5-1.1,1.8-2.8,0.7-4.3l0,0
		L90,48.4l16.3-11.6c-1.2,9.5,4.9,18,14.3,20L63,97.9C63.9,88.6,57.8,80.1,48.7,77.9z M113.8,47.4c-3.9-5.5-2.6-13.2,2.9-17.1
		s13.2-2.6,17.1,2.9s2.6,13.2-2.9,17.1C125.4,54.2,117.7,52.9,113.8,47.4z M85,52l3.6,5l-15,10.7l-3.6-5L85,52z M7.4,107.3l5-3.6
		l14.3,20l-5,3.6L7.4,107.3z M17.4,100.2l8.8-6.2c-1.2,9.5,4.9,18,14.3,20l-8.8,6.2L17.4,100.2z M161.8,27.4l-5,3.6l-14.3-20l5-3.6
		L161.8,27.4z"/>
	<path d="M37.6,104.6l15-10.7c1.5-1.1,1.8-2.8,0.7-4.3s-2.8-1.8-4.3-0.7l-15,10.7c-1.5,1.1-1.8,2.8-0.7,4.3
		C34.4,105.4,36.1,105.7,37.6,104.6z"/>
	<path d="M117.7,47.6l15-10.7c1.5-1.1,1.8-2.8,0.7-4.3c-1.1-1.5-2.8-1.8-4.3-0.7l-15,10.7c-1.5,1.1-1.8,2.8-0.7,4.3
		C114.5,48.4,116.2,48.6,117.7,47.6z"/>
</g>
<g class="st0">
	<path class="st1" d="M188.7-18.7l-29.2,34v31.6h-23.9V15.3l-29.2-34l-29.2,34v31.6H53.4V15.3l-29.2-34L-5,15.3V198h58.4v-37.1h23.9
		V198h58.4v-37.1h23.9V198h58.4V15.3L188.7-18.7z M45.4,192.7H0.3v-31.8h45.1v31.7V192.7z M45.4,155.6H0.3V54.8h45.1v99.9V155.6z
		 M45.4,46.9H0.3V17.4L22.9-9.6l22.5,27.1v29.9V46.9z M77.3,155.6H53.4V54.8h23.9V155.6z M130,192.7H82.6v-31.8h47.7v31.8H130z
		 M130,155.6H82.6V54.8h47.7v100.8H130z M130,46.9H82.6V17.4l23.9-27.1l23.9,27.1v29.4H130z M159.5,155.6h-23.9V54.8h23.9V155.6z
		 M209.9,192.7h-45.1v-31.8h45.1v31.7V192.7z M209.9,155.6h-45.1V54.8h45.1v99.9V155.6z M212.3,46.9h-47.5V17.4l23.9-27.1l23.9,27.1
		v29.4H212.3z"/>
</g>
</svg>
