<?xml version="1.0" encoding="utf-8"?>
<!-- Generator: Adobe Illustrator 23.0.4, SVG Export Plug-In . SVG Version: 6.00 Build 0)  -->
<svg version="1.1" id="Layer_1" xmlns="http://www.w3.org/2000/svg" xmlns:xlink="http://www.w3.org/1999/xlink" x="0px" y="0px"
	 viewBox="0 0 149 149" style="enable-background:new 0 0 149 149;" xml:space="preserve">
<style type="text/css">
	.st0{display:none;}
	.st1{display:inline;}
</style>
<g class="st0">
	<g class="st1">
		<path d="M-9.8,147l204.3,0c2.4,0,4.6-1.4,5.4-3.6c1.2-3.7-1.6-7.2-5.1-7.2h-11.9c3.5-12.1,8.6-26.4,16.2-37c0,0,0-0.3,0.3-0.3V98
			c0,0-0.5-1.9-0.5-3c0-3-2.4-5.4-5.4-5.4c-0.8,0-1.6,0.3-2.2,0.5c-1.3,0.5-15.9,7-30,20c-2.2-7.8-4.3-18.1-5.4-30
			c-0.3-2.2-1.9-4.3-4-4.9c-2.2-0.5-4.6,0.3-5.9,2.2c-0.3,0.5-6.2,9.4-12.4,22.1c-5.1-22.4-1.9-48-1.6-48.3c0.3-2.7-1.1-5.1-3.5-5.9
			c-2.4-0.8-5.1,0.3-6.5,2.4l-40.5,71c-4.6-39.4,6.7-85.3,7-85.8c0.5-2.4-0.5-4.9-2.7-6.2c-2.2-1.1-4.9-0.5-6.5,1.3
			C63.4,47,53.9,70.5,48.2,91.3c-5.7-15.1-10.3-24-10.5-24.6c-1.3-2.4-4-3.5-6.5-2.7s-4,3.5-3.5,6.2c1.1,5.4,1.3,20.5,1.1,42.4
			C19.1,97.2,10.5,86.4,9.9,85.9c-1.6-2.2-4.6-2.7-7-1.3s-3.2,4.3-2.2,6.7c7.8,17.8,8.9,32.9,8.1,44.9H-9.5c-3-1.5-5.4,1-5.4,3.9
			C-14.9,143.1-9.8,147-9.8,147z M179.4,110.3c-3.8,8.9-6.7,17.8-8.9,25.9h-16.7c2.4-4,5.4-7.8,8.9-11.3l0.3-0.3
			C168.3,118.7,174.3,114.1,179.4,110.3z M147.3,97.6c1.6,8.6,3.5,16.2,5.4,22.1c-4.6,5.1-8.4,10.5-11.3,16.5h-8.6
			c1.1-5.7,2.7-11.6,5.4-18.1C140.8,110.3,144.3,103.3,147.3,97.6z M127,116.2c-2.7,7-4.3,13.8-5.4,20h-37l35.1-61.8
			C120,87.1,121.6,103,127,116.2z M73.1,135.1l-0.5,1.1H60.9c-1.6-7.8-3.8-15.9-6.2-23.7c3-15.7,8.4-35.6,18.1-54.2
			C69.6,79.3,67.1,109.5,73.1,135.1z M43.9,114.1L43.9,114.1c2.2,7.6,4,14.8,5.7,22.1h-8.4c-0.8-1.6-1.6-3-2.4-4.3
			c0.3-10,0.5-20.8,0.5-31C41,104.9,42.3,109.2,43.9,114.1z M19.1,119.2c3.3,5.3,6.7,10.8,10,17c0,0,0,0,0,0l-9.4,0
			C19.9,131.3,19.9,125.7,19.1,119.2z"/>
	</g>
</g>
<g class="st0">
	<path class="st1" d="M39.8,169c1,1,1.5,2.2,1.5,3.4s-0.5,2.4-1.5,3.4c-1,1-2.2,1.5-3.4,1.5c-0.7,0-1.2-0.2-1.9-0.5
		c-0.5-0.2-1.2-0.5-1.5-1c-1-1-1.5-2.2-1.5-3.4s0.5-2.4,1.5-3.4c1.2-1.2,2.9-1.7,4.4-1.5c0.2,0,0.5,0.2,1,0.2
		c0.2,0.2,0.5,0.2,0.7,0.5C39.3,168.5,39.6,168.7,39.8,169z M187.5,180.1c-0.2-0.2-0.2-0.5-0.5-0.7c-0.2-0.2-0.5-0.5-0.5-0.7
		c-1.2-1.2-3-1.7-4.5-1.5c-0.2,0-0.7,0.2-1,0.2c-0.2,0.2-0.5,0.2-0.7,0.5c-0.2,0.2-0.5,0.5-0.7,0.5c-0.2,0.2-0.5,0.5-0.5,0.7
		c-0.2,0.2-0.2,0.5-0.5,0.7c-0.2,0.2-0.2,0.5-0.2,1c0,0.2,0,0.7,0,1c0,1.2,0.5,2.5,1.5,3.5c0.7,1.2,2,1.7,3.2,1.7
		c0.7,0,1.2-0.2,2-0.5c0.5-0.2,1.2-0.5,1.5-1c1-1,1.5-2.2,1.5-3.5c0-0.2,0-0.7,0-1C187.8,180.9,187.8,180.4,187.5,180.1z
		 M206.9,188.2c-2.2,9.4-10,16.9-19.6,18.4c-9.7,1.6-18.4-2.6-23.5-9.4H61.1c-6.7,6.7-16.3,10.4-26.6,9.6
		C18.2,205.6,4.8,192.4,3.4,176c-1.6-18.1,11-33.8,28.1-36.6L9.5,21.2c-0.5-2.2-2.4-3.9-4.9-3.9l-10.9,0c-2.1,0-4.2-1.2-4.8-3.2
		c-1.1-3.3,1.4-6.5,4.6-6.5H4.9c7.1,0,12.9,4.9,14.3,11.7l22.1,119.9c1.5,0.2,2.7,0.5,4.1,0.7l50.1,6.8v-15.1h-7.3
		c-2.7,0-4.9-2.2-4.9-4.9v-4.9c0-13.4,10.9-24.3,24.3-24.3h14.6c13.4,0,24.3,10.9,24.3,24.3v4.9c0,2.7-2.2,4.9-4.9,4.9h-7.3v20.2
		l49.1,6.6C198.6,158.6,210.4,172.8,206.9,188.2z M136.1,121.9c0-8-6.6-14.6-14.6-14.6h-14.6c-8,0-14.6,6.6-14.6,14.6H136.1z
		 M105.4,131.6v16.3l19.5,2.7v-19H105.4z M60.7,172.4c0-11.2-7.5-20.4-17.8-23.3l-6.8-1c-13.4,0.2-24.1,10.9-24.1,24.3
		s10.9,24.3,24.3,24.3S60.7,185.7,60.7,172.4z M164.8,165.9L63.4,152.3c4.4,5.8,7.1,12.9,7.1,20.7c0,5.4-1.2,10.2-3.4,14.6h91.4
		c-0.2-1.7-0.5-3.2-0.5-4.9C158,176.1,160.7,170.3,164.8,165.9z M196.9,182.1c0-8-6.6-14.6-14.6-14.6c-8,0-14.6,6.6-14.6,14.6
		s6.6,14.6,14.6,14.6C190.4,196.7,196.9,190.1,196.9,182.1z"/>
</g>
<g class="st0">
	<path class="st1" d="M13.2,152.1c4.2,0.4,7.7-1.1,10.4-4.1c4.2,5.1,11.8,5.7,16.9,1.2c0.6-0.3,0.9-0.9,1.2-1.2
		c4.2,5.1,11.8,5.7,16.9,1.2c0.6-0.3,0.9-0.9,1.2-1.2c4.2,5.1,11.8,5.7,16.9,1.2c0.6-0.3,0.9-0.9,1.2-1.2c4.2,5.1,11.8,5.7,16.9,1.2
		c0.6-0.3,0.9-0.9,1.2-1.2c4.2,5.1,11.8,5.7,16.9,1.2c2.4-2.1,3.9-4.8,4.2-8.1l31,31c1.1,1.1,2.3,1.2,5.5,0.2
		c10.6-3.4,17.7-13.4,17.7-24.6l0-46.7h3c1.7,0,3-1.3,3-3V85.9v-0.3v-0.3l-6-36.2c-0.3-1.5-1.5-2.4-3-2.4h-18.1
		c-1.5,0-2.7,1.2-3,2.4l-6,36.2v0.3v0.3v12.1c0,1.7,1.3,3,3,3h3v38L117,108.8l0-59.3c0-6.3-5.1-12.2-11.3-12.6
		c-3.9-0.2-7.5,1.3-9.8,4.2c-4.2-5.1-11.8-5.7-16.9-1.2c-0.6,0.3-0.9,0.9-1.2,1.2C73.6,36,66.1,35.4,61,39.9
		c-0.6,0.3-0.9,0.9-1.2,1.2C55.5,36,48,35.4,42.9,39.9c-0.6,0.3-0.9,0.9-1.2,1.2c-4.2-5.1-11.8-5.7-16.9-1.2
		c-0.6,0.3-0.9,0.9-1.2,1.2c-4.2-5.1-12.1-5.7-16.9-1.2C4,42,2.5,45.3,2.5,49l0,90.8C2.5,145.7,7.3,151.5,13.2,152.1z M171.3,94.9
		h-24.1v-6h24.1V94.9z M152.3,52.7h13l5.1,30.1h-22.9L152.3,52.7z M165.3,101v51.2c0,7.2-5.1,13.3-12.1,14.8v-66H165.3z
		 M147.2,146.6v15.7L117,132.1v-15.7L147.2,146.6z M111,49.3c0,14.5,0,75.4,0,89.8c0,2.6-1.5,5.2-4,6c-4.2,1.4-8-1.7-8-5.7V49
		c0-4,3.9-7.1,8-5.7C109.5,44.1,111,46.6,111,49.3z M92.9,49.3c0,14.5,0,75.4,0,89.8c0,2.6-1.5,5.2-4,6c-4.2,1.4-8-1.7-8-5.7V49
		c0-4,3.9-7.1,8-5.7C91.4,44.1,92.9,46.6,92.9,49.3z M74.8,49.3c0,14.5,0,75.4,0,89.8c0,2.6-1.5,5.2-4,6c-4.2,1.4-8-1.7-8-5.7V49
		c0-4,3.9-7.1,8-5.7C73.3,44.1,74.8,46.6,74.8,49.3z M56.8,49.3c0,14.5,0,75.4,0,89.8c0,2.6-1.5,5.2-4,6c-4.2,1.4-8-1.7-8-5.7V49
		c0-4,3.9-7.1,8-5.7C55.2,44.1,56.8,46.6,56.8,49.3z M38.7,49.3c0,14.5,0,75.4,0,89.8c0,2.6-1.5,5.2-4,6c-4.2,1.4-8-1.7-8-5.7V49
		c0-4,3.9-7.1,8-5.7C37.1,44.1,38.7,46.6,38.7,49.3z M8.5,49c0-4,3.9-7.1,8-5.7c2.5,0.8,4,3.4,4,6c0,14.5,0,75.4,0,89.8
		c0,2.6-1.5,5.2-4,6c-4.2,1.4-8-1.7-8-5.7V49z"/>
	<path class="st1" d="M159.2,24.8c-1.8,0-3,1.2-3,3v9c0,1.8,1.2,3,3,3s3-1.2,3-3v-9C162.2,26.1,161,24.8,159.2,24.8z"/>
	<path class="st1" d="M162.2,6.8c0-1.8-1.2-3-3-3s-3,1.2-3,3v9c0,1.8,1.2,3,3,3s3-1.2,3-3V6.8z"/>
	<path class="st1" d="M134.8,24.8c0,1.8,1.2,3,3,3c5.1,0,9,3.9,9,9c0,1.8,1.2,3,3,3s3-1.2,3-3c0-8.4-6.6-15.1-15.1-15.1
		C136,21.8,134.8,23,134.8,24.8z"/>
	<path class="st1" d="M180,21.8c-8.4,0-15.1,6.6-15.1,15.1c0,1.8,1.2,3,3,3s3-1.2,3-3c0-5.1,3.9-9,9-9c1.8,0,3-1.2,3-3
		S181.9,21.8,180,21.8z"/>
</g>
<g class="st0">
	<g class="st1">
		<path d="M80.4,82.3c-4.2,3.9-4.3,10.1-0.4,14.3c3.9,4.2,10.1,4.3,14.3,0.4c4.2-3.9,4.3-10.1,0.4-14.3
			C90.8,78.5,84.6,78.4,80.4,82.3z M89.6,92.1c-1.5,1.4-3.4,1.3-4.8-0.1c-1.4-1.5-1.3-3.4,0.1-4.8c1.5-1.4,3.4-1.3,4.8,0.1
			C91.2,88.8,91.1,90.7,89.6,92.1z"/>
		<path d="M190.7,103.1L147.5,81l0,0c-0.2-0.2-0.7-0.3-1.2-0.3l0,0l0,0l-31.1-2.6l-0.2-0.2l-31.2-62l0,0C78.1,4.8,67.2-3.3,54.8-5.2
			c-6.3-1.1-12.4-0.5-18.3,1.3c-1.2-0.3-1.5,0-2,0.4C34-3,33.8-2.7,33.8-2.3c-0.5,1-0.3,2.2,0.4,2.9l42.1,64.4l-0.5,0.5l-10.6,10
			L3.5,29.5c-1-0.5-2.2-0.8-2.9-0.5c-0.7,0.2-1,0.5-1.5,0.9s-0.8,0.7-0.8,1.2c-2.4,6-2.9,12.1-2.4,18.2l0,0l0,0l0,0
			c1.2,12.4,8.6,23.8,19.3,30.1l60,34.9l0.2,0.2l0.7,31.2l0,0l0,0c0,0.5,0.2,0.7,0.2,1.2l0,0l19.5,44.5c1.8,3.9,5.1,6.9,8.9,8.5
			c4.1,1.3,8.5,0.9,12.5-1c1.2-0.7,2.5-1.4,3.5-2.4c5.1-4.8,6.6-12.3,3.4-18.7l-21.5-43.1l-5.6-24.7l12.1-11.4l24.3,7.1l41.7,24
			c6.2,3.5,13.8,2.5,18.8-2.3c1-1,1.8-2.2,2.6-3.4c2.3-3.6,2.8-8.2,1.7-12.4C197.3,108.6,194.5,105.1,190.7,103.1z M77.9,21.3
			L77.9,21.3l25.2,48.8l-2.3-2.4c-0.7-0.7-1.4-1.5-2.3-2c-0.2-0.2-0.5-0.5-0.7-0.3c-0.7-0.3-1.2-0.7-1.9-1c-0.2-0.2-0.2-0.2-0.7-0.3
			c-0.9-0.5-1.9-0.5-2.8-1l-0.5,0l-0.5,0l0,0c1.2-1.2,1.5-2.8,0.6-4.3L62.1,6.6C68.7,9.2,74.8,14.6,77.9,21.3z M49,5.3
			c0.5,0,1,0,1.4,0c1,0,1.7,0.3,2.6,0.3l31.9,55.9l-2.4,2.3L44,5.8C45.6,5.6,47.3,5.4,49,5.3z M5.4,47.7c0-0.5,0-1,0-1.4
			c0-1.4,0.3-3.1,0.6-4.7l55.9,41.7l-2.4,2.3L5.5,50.4C5.5,49.4,5.6,48.5,5.4,47.7z M118.6,181.7c2,4.1,0.4,9.3-3.7,11.3
			c-2.2,1.1-4.3,1.3-6.9,0.5c-2.1-0.8-4-2.3-4.9-4.7l-18.1-40.8l13.5-6.3L118.6,181.7z M96.2,135.8l-12.3,5.6l-1-23.1
			c0.7,0.3,1.4,0,2.4,0.1l0.5,0c0.5,0,1.2-0.2,1.7-0.2c0.2-0.2,0.5,0,0.7-0.2c0.5,0,0.7-0.2,1.4-0.4c0.2-0.2,0.7-0.2,1-0.4
			c0.2-0.2,0.7-0.2,1-0.4L96.2,135.8z M108.1,95.1L93.4,109c-2.7,2.5-7,3.4-10.5,2.1c-0.5,0-0.9-0.5-1.6-0.8L22.3,75.7
			c-6.5-4-11.6-9.9-14-16.8l50.4,32.9c1.2,0.7,3.1,0.8,4.3-0.3l7.3-6.9L82.6,73c4.1-3.8,10.4-3.6,14.3,0.4l11.5,12.2
			c0.5,0.5,1.4,1,2.1,1.3l3.1,0.3l0,0l27.5,2.7l-6.3,11.9l-23.3-7.1C110.3,94,109.1,94.2,108.1,95.1z M190,116.7
			c0.6,2.2,0.3,4.8-0.9,6.9c-2.3,4-7.5,5.2-11.5,3L139.3,104l7.1-13.1l39.6,20.5C187.8,112.9,189.4,114.6,190,116.7z"/>
	</g>
</g>
<g class="st0">
	<g class="st1">
		<g>
			<path d="M104.6,77.4c11.5-1.5,20.9-7.9,20.9-14.9c0-4.9-4.4-8.5-8.2-10.7c-5.5-3.2-11.9-4.5-18.1-4.5c4-4,7.4-9,9.2-14.4
				c1.5-4.7,2.3-11-1.3-14.9c-3.3-3.3-9-3-13.4-1.8c-6,1.7-11.7,5.2-16.1,9.7c0-8.2-2.3-17.9-8.9-23.6c-2.3-2.2-5.7-3.3-9-2.2
				c-4.2,1.5-7,5.5-8.9,9.4c-2.5,5-3.7,10.7-3.5,16.4c-4.4-4.4-9.9-7.9-15.9-9.5c-4.4-1.2-10-1.7-13.6,1.8c-3.8,3.8-3,10.2-1.3,14.9
				c1.8,5.5,5.2,10.4,9.2,14.4c-6.2,0-12.7,1.3-18.1,4.5c-3.8,2-8.2,5.7-8.2,10.5S3.9,71,7.7,73.2c5.5,3.2,11.9,4.5,18.1,4.5
				c-4,4-7.4,9-9.2,14.4c-1.5,4.7-2.3,11,1.3,14.9c3.8,3.8,10.2,2.8,14.7,1.3c5.5-1.8,10.5-5.2,14.6-9.2c0,6.2,1.3,12.7,4.5,18.1
				c2.2,3.8,5.9,8,10.7,8s8.5-4.2,10.7-8c3.2-5.5,4.5-11.9,4.5-18.1c4,4.2,9,7.4,14.6,9.2c4.5,1.5,10.9,2.3,14.7-1.3
				c4.9-4.9,2.3-13.4-0.2-18.6c2.3,2.3,4.5,4.9,6.7,7.7c14.2,18.9,24.4,52.5-6,105.9c-2.2,3.7,3.7,7,5.9,3.3
				c10.9-18.9,16.7-35.6,19.2-50.2c6.7,2.7,14.2,3.8,21.3,1.7c5.7-1.7,9-5,14.1-9.9c7.7-7.4,15.7-14.1,24.4-20.1
				c1.8-1.2,2-4,0.2-5.4c-13.2-10.5-31.8-12.2-46-4c-5.9,3.3-9.9,7.7-12.9,12C130.7,103,115.5,86.3,104.6,77.4z M99.6,54
				c11.9,0,19.4,6,19.4,8.5S111.5,71,99.6,71c-5.2,0-9.4-1.2-12.6-2.5c1-3.8,1-7.9,0-11.9C90.2,55.1,94.4,54,99.6,54z M82.7,30.4
				c8.7-9.5,19.1-8.2,19.6-7.5c0.5,0.7,1.8,9.4-7.5,19.6c-3.5,3.7-7.4,5.9-10.7,7c-2-3.3-5-6.4-8.4-8.4
				C76.8,37.7,79.2,33.9,82.7,30.4C88.9,24.2,79.3,34,82.7,30.4z M62.6,6.3c2.5,0,8.5,7.5,8.5,19.4c0,5-1.2,9.4-2.5,12.6
				c-3.8-1-8-1-11.9,0c-1.5-3.2-2.5-7.5-2.5-12.6C54.1,13.8,60.1,6.3,62.6,6.3z M22.8,22.8c0.5-0.7,10.7-1.5,19.6,7.5l0,0
				c3.5,3.5,5.9,7.4,7,10.7c-3.3,2.2-6.4,5-8.4,8.4c-3.3-1.2-7.4-3.3-10.7-7C20.3,31.5,22.3,23.5,22.8,22.8z M25.6,71
				c-11.9,0-19.4-6-19.4-8.5S13.7,54,25.6,54c5.2,0,9.4,1.2,12.6,2.5c-1,3.8-1,8,0,11.9C35,69.9,30.6,71,25.6,71z M42.5,94.6
				c-8.4,8.4-17.9,9.4-19.7,7.7c-0.3-0.3-2.8-9.5,7.7-19.7c3.7-3.5,7.4-5.9,10.7-7c2,3.3,5,6.4,8.4,8.4
				C48.2,87.4,45.9,91.3,42.5,94.6z M62.6,118.9c-2.5,0-8.5-7.5-8.5-19.4c0-5,1.2-9.4,2.5-12.6c3.8,1,8,1,11.9,0
				C70,90.1,71,94.5,71,99.5C71.1,111.4,65.1,118.9,62.6,118.9z M62.6,80.9c-10.2,0-18.4-8.2-18.4-18.4s8.2-18.4,18.4-18.4
				S81,52.3,81,62.5S72.6,80.9,62.6,80.9z M102.4,102.3c-1.8,1.8-11.4,0.7-19.7-7.7c-3.5-3.5-5.9-7.4-7-10.7c3.3-2,6.4-5,8.4-8.4
				c3.3,1.2,7,3.5,10.7,7C105.3,92.3,102.8,102,102.4,102.3z M149.6,123.4c8.7-4.9,19.2-5.5,28.6-2.2c-9.9,1.7-19.4,6.4-27.1,10.5
				c-7,4-12.2,7.4-16.2,10.4C136.7,136.3,140.7,128.4,149.6,123.4z M174.5,131.9c-5,4.2-8.5,7.5-11.4,10.4c-4.7,4.5-7.2,7-11.4,8.2
				c-4.5,1.3-9.5,1-15.4-1c4.4-3.3,9.9-7.2,18.1-11.7c9.9-5.5,18.1-8.9,25.3-9.9C177.9,129.1,176.2,130.6,174.5,131.9z"/>
		</g>
	</g>
</g>
<g class="st0">
	<title>Artboard 10</title>
	<g class="st1">
		<path d="M34.6,122.6c-0.7-1.9-2.3-3.3-4.5-3.3H5.3l-8.2-24.9c-0.9-2.3-3.5-3.8-5.9-3c-2.3,0.9-3.8,3.5-3,5.9l8.9,26.7l-8.9,26.7
			c-0.7,2.3,0.5,5.2,3,5.9c2.3,0.7,5.2-0.5,5.9-3l8.2-24.9h21.3l8.2,24.9c0.9,2.3,3.5,3.8,5.9,3c2.3-0.9,3.8-3.5,3-5.9L34.6,122.6z"
			/>
		<path d="M113.5,91.2H85.4V44.3h75c2.6,0,4.7-2.1,4.7-4.7l0,0v-9.4c0-1.9-0.9-3.5-2.6-4.2L82.7-11.5c-1.2-0.7-2.8-0.7-4,0L-1.1,26
			c-1.6,0.7-2.6,2.3-2.6,4.2v9.4c0,2.6,2.1,4.7,4.7,4.7l0,0h75v46.9H48.9c-2.6-0.5-4.7,1.6-4.7,4.2c0,2.6,2.1,4.7,4.7,5.2H76v46.9
			l-4.7,0c-1.7,0-3.3,0.8-4.1,2.3c-1.8,3.5,0.7,7.1,4.1,7.1l18.8,0c1.7,0,3.3-0.8,4.1-2.3c1.8-3.5-0.7-7.1-4.1-7.1h-4.7v-46.9
			l27.9,0c2,0,4-1.2,4.7-3.1C119,94.2,116.6,91.2,113.5,91.2z M5.7,33.3l75-35.4l75,35.4v1.6H5.7V33.3z"/>
		<path d="M166.4,124l8.9-26.7c0.7-2.3-0.5-5.2-3-5.9c-2.3-0.7-5.2,0.5-5.9,3l-8.2,24.9h-24.9c-2.1,0-3.8,1.4-4.5,3.3l-9.4,28.1
			c-0.7,2.3,0.5,5.2,3,5.9c2.3,0.7,5.2-0.5,5.9-3l8.2-24.9h21.3l8.2,24.9c0.9,2.3,3.5,3.8,5.9,3c2.3-0.9,3.8-3.5,3-5.9L166.4,124z"
			/>
	</g>
</g>
<g class="st0">
	<path class="st1" d="M174.8,73.7C172.3,63,163.6,55,153.1,52.9c0-0.6-0.2-1.3-0.4-1.9c-1.7-7.2-5.9-13.3-12.2-17.1
		c-5.1-3.2-10.9-4.6-16.8-4c-4.8-12.6-18.3-20-31.8-16.8c-4,0.8-7.8,2.7-10.9,5.3c-5.1-3.8-10.9-5.9-17.1-5.9
		c-10.9,0-20.8,6.7-25.1,16.6C24,28,11.6,38.8,9.7,52.7c-13.5,1.7-23.8,13.3-23.8,27.2c0,11.6,7.4,22.1,18.1,25.9c0,0,0,0,0,0
		c-0.6,14.1,9.6,25.1,26.5,28.6c1.7,0.4,14.3,0.4,30.3,0.4c24,0,55.6-0.2,69.1-0.4l8.2-0.6h0.6C151,131,160,117.9,160,104.7
		C171.4,99.2,177.7,86.4,174.8,73.7z M154.4,98.2l-3.2,1.1l0.4,3.2c1.3,10.1-5.5,20.8-14.6,23.2l-7.4,0.6c-37.3,0.4-94.1,0.6-98.1,0
		c-4.7-1.1-20.1-5.3-20.1-19.4c0-1.3,0.2-2.5,0.4-3.6l0.8-4l-4-0.8c-8.9-1.9-15.3-9.9-15.3-19C-6.7,68.7,2,60,12.6,60h4v-4
		c0-10.7,8.7-19.4,19.3-19.4c1.3,0,2.5,0.2,4,0.4l3.8,0.6l1.1-3.6c2.3-8.2,10-13.9,18.7-13.9c5.3,0,10.4,2.1,14,5.9l3,3.2l3-3.2
		c2.5-2.7,5.9-4.8,9.8-5.7c10.4-2.3,20.8,4,23.3,14.5l0.8,4l4-0.8c5.1-1.3,10.2-0.2,14.6,2.3c4.5,2.7,7.4,6.9,8.7,12
		c0.2,1.3,0.4,2.5,0.4,3.8V60l3.8,0.2c8.5,0.4,15.9,6.5,17.8,15C169,85.1,163.7,95,154.4,98.2z"/>
	<path class="st1" d="M131.8,71.1c-6.1-3.2-13.3-2.3-18.3,2.1c-3.8-1.9-8-2.3-12-1.1c-4.2,1.3-7.6,4-9.7,8c-0.4,0.8-0.2,1.7,0.6,2.1
		c0.8,0.4,1.7,0.2,2.1-0.6c1.7-3.2,4.4-5.5,7.8-6.5c3.4-1.1,6.9-0.6,10.1,1.1c0.2,0,0.2,0.2,0.4,0.2l1.1,0.6l0.8-0.8
		c4.2-4.2,10.5-5.1,15.6-2.3c6.5,3.4,8.8,11.6,5.5,18.1c-0.4,0.8-0.2,1.7,0.6,2.1c0.2,0.2,0.4,0.2,0.6,0.2c0.6,0,1.1-0.2,1.3-0.8
		C142.8,85.4,139.8,75.3,131.8,71.1z"/>
	<path class="st1" d="M50.1,53c-4.2-1.3-8.6-0.6-12.4,1.5c-5.9,3.4-9.3,9.9-8.2,16.6c-7.6,4.4-10.3,14.3-5.9,22.1
		c0.2,0.4,0.8,0.8,1.3,0.8c0.2,0,0.4,0,0.8-0.2c0.8-0.4,1.1-1.3,0.6-2.1c-3.6-6.3-1.3-14.5,5.3-18.1c0.2,0,0.2-0.2,0.4-0.2l1.1-0.4
		l-0.2-1.3c-1.3-5.7,1.5-11.6,6.5-14.3c3.2-1.7,6.7-2.1,10.1-1.3c3.4,1.1,6.3,3.2,8,6.3c0.4,0.8,1.3,1.1,2.1,0.6s1.1-1.3,0.6-2.1
		C57.9,57,54.4,54.2,50.1,53z"/>
</g>
<g class="st0">
	<g class="st1">
		<g>
			<path d="M196.1,30.2v-2.4h-14.3V11.1l2.4-3.3L178.4-8l-5.5,15.8l4.1,3.3v16.8h-23.9V11.1l3.6-3.3L151.2-8l-5.5,15.8l2.6,3.3v16.8
				h-21.5V12.1l3.5-3.3l-6-15.8l-5.8,15.8l3.5,3.3v15.8H98.2V11.1l3.8-3.3L96.5-8L91,7.7l2.4,3.3v16.8H71.9V11.1l2.9-3.3L69.3-8
				L63.8,7.7l3.3,3.3v16.8H43.2V12.1l3.5-3.3L40.7-7L34.9,8.7l3.5,3.3v15.8H17V11.1l3.1-3.3L14.6-8L9.1,7.7l3.1,3.3v16.8H-4.5v4.8
				h16.7v93.2H-4.5v4.8h16.7v19.1H17v-19.1h21.5v19.1h4.8v-19.1h23.9v19.1h4.8v-19.1h21.5v19.1h4.8v-19.1h23.9v19.1h4.8v-19.1h21.5
				v19.1h4.8v-19.1H177v19.1h4.8v-19.1h14.3v-4.8h-16.7V30.2H196.1z M17,125.8V30.2h23.9v95.5H17z M43.2,125.8V30.2h23.9v95.5H43.2z
				 M71.9,125.8V30.2h23.9v95.5H71.9z M98.2,125.8V30.2h23.9v95.5H98.2z M124.5,125.8V30.2h23.9v95.5H124.5z M177,125.8h-23.9V30.2
				H177V125.8z"/>
		</g>
	</g>
</g>
<g class="st0">
	<g class="st1">
		<g>
			<g>
				<g>
					<path d="M25.8,22c1.3,1.3,2.7,2.7,4,4c3.2,3.2,6.4,6.4,9.6,9.6c3.8,3.8,7.7,7.7,11.5,11.5c3.3,3.3,6.7,6.7,10,10
						c1.6,1.6,3.2,3.3,4.9,4.9c0,0,0,0,0.1,0.1c0-1.5,0-3.1,0-4.7L59,64.3h4.7c-1.3-1.3-2.7-2.7-4-4c-3.2-3.2-6.4-6.4-9.6-9.6
						c-3.8-3.8-7.7-7.7-11.5-11.5c-3.3-3.3-6.7-6.7-10-10c-1.6-1.6-3.2-3.3-4.9-4.9c0,0,0,0-0.1-0.1c-1.2-1.2-3.4-1.3-4.7,0
						c-0.3,0.3-0.7,0.7-1,1c-0.2,0.2-0.4,0.4-0.6,0.6c0,0-0.1,0.1-0.1,0.1c0,0-0.1,0.1-0.1,0.1c-0.3,0.4,0.1-0.1,0.2-0.1
						c0,0-0.5,0.3-0.5,0.3c0,0,0.7-0.3,0.3-0.2c-0.3,0.1,0.4-0.1,0.4-0.1c0.3,0,0.5,0.1,0.7,0.1c0.4,0.1,0.1,0.1,0,0
						c0,0,0.5,0.4,0.2,0.1c-0.3-0.3,0.2,0.3,0.2,0.3c-0.1-0.1-0.1-0.2-0.2-0.3c-1.2-1.5-2.3-3-3.4-4.6c-2.4-3.3-4.9-6.5-7.3-9.8
						c0-0.1-0.1-0.1-0.2-0.2c-0.2-0.3-0.3-0.6-0.1-0.1c0-0.1-0.2-0.4,0,0c0.1,0.3,0,0.2,0,0c0,0-0.1,0.7,0,0.3
						c0.1-0.4-0.3,0.6-0.1,0.2c0.2-0.3-0.3,0.3-0.1,0.1c0.1,0,0.2-0.2,0.2-0.2c0.7-0.7,1.5-1.5,2.2-2.2c0.9-0.9,1.9-1.9,2.8-2.8
						c0.3-0.3,0.6-0.6,0.9-0.9c0.1-0.1,0.2-0.1,0.2-0.2c0.2-0.2-0.4,0.2-0.1,0.1c0.3-0.2-0.3,0.1-0.3,0.1c0.1,0,0.5-0.1,0,0
						c-0.4,0.1-0.1,0,0,0c0,0-0.7-0.1-0.3,0s-0.2-0.1-0.2-0.1c0,0,0.3,0.2,0.3,0.2c0.1,0.1,0.2,0.1,0.3,0.2c0.1,0.1,0.2,0.1,0.3,0.2
						c0.6,0.4,1.2,0.9,1.8,1.3c2,1.5,4.1,3.1,6.1,4.6c1.8,1.4,3.6,2.7,5.4,4.1c0.3,0.3,0.7,0.5,1,0.8c0,0-0.4-0.3-0.4-0.3
						c0.1,0.1,0.4,0.3,0.1,0c-0.2-0.2-0.1-0.1,0,0c-0.1-0.2-0.2-0.4-0.2-0.7c0-0.3,0-0.5,0-0.8c0,0.1-0.1,0.4,0,0
						c0.3-0.6-0.2,0.3-0.2,0.3c0,0,0.4-0.5,0.2-0.3c-0.1,0.1-0.1,0.1-0.2,0.2c0,0,0,0-0.1,0.1c-0.2,0.2-0.4,0.4-0.6,0.6
						c-0.3,0.3-0.7,0.7-1,1C24.6,18.6,24.5,20.8,25.8,22c1.3,1.2,3.4,1.3,4.7,0c1-1,2-1.9,2.7-3c0.8-1.3,1.1-2.9,0.7-4.4
						c-0.4-1.4-1.4-2.3-2.5-3.1c-1.4-1.1-2.8-2.1-4.3-3.2c-2.3-1.7-4.6-3.5-7-5.2c-1.3-1-2.6-2.2-4-2.9c-2.5-1.3-5.2-0.9-7.2,1.1
						C8.2,2,7.4,2.8,6.6,3.5c-1,1-2,2-3,3C2.8,7.4,1.9,8.2,1.4,9.4c-0.9,2-0.4,4.3,0.9,6c0.4,0.6,0.9,1.2,1.3,1.8
						c1.7,2.2,3.3,4.4,5,6.6c1.4,1.8,2.8,3.7,4.1,5.5c0.9,1.2,1.9,2.4,3.5,3c2.5,0.9,4.7-0.7,6.3-2.3c0.4-0.4,0.7-0.7,1.1-1.1h-4.7
						c1.3,1.3,2.7,2.7,4,4c3.2,3.2,6.4,6.4,9.6,9.6c3.8,3.8,7.7,7.7,11.5,11.5c3.3,3.3,6.7,6.7,10,10c1.6,1.6,3.2,3.3,4.9,4.9
						c0,0,0,0,0.1,0.1c1.5,1.5,4.3,1.2,5.3-0.9c1.8-1.8,3.5-3.5,5.4-5.3c2-1,2.3-3.7,0.8-5.2c-1.3-1.3-2.7-2.7-4-4
						c-3.2-3.2-6.4-6.4-9.6-9.6c-3.8-3.8-7.7-7.7-11.5-11.5c-3.3-3.3-6.7-6.7-10-10c-1.6-1.6-3.2-3.3-4.9-4.9c0,0,0,0-0.1-0.1
						c-1.2-1.2-3.5-1.3-4.7,0C24.6,18.7,24.5,20.7,25.8,22z"/>
				</g>
			</g>
			<g>
				<g>
					<path d="M145.2,136.9c-1.7,1.7-3.4,3.4-5.1,5.1c-0.6,0.6-1.2,1.2-1.8,1.8c-0.2,0.2-0.5,0.4-0.7,0.7c-0.4,0.4,0.5-0.3-0.2,0.1
						c-0.5,0.3-1,0.6-1.5,0.9c-0.5,0.3,0.5-0.2-0.2,0.1c-0.2,0.1-0.5,0.2-0.8,0.2c-0.3,0.1-0.6,0.2-0.9,0.2c-0.1,0-0.2,0-0.3,0.1
						c-0.4,0.1,0.7,0,0.1,0c-0.5,0-1.1,0.1-1.6,0c-0.3,0-0.5,0-0.8-0.1c-0.5,0,0.7,0.1,0.2,0c-0.2,0-0.4-0.1-0.6-0.1
						c-0.5-0.1-1-0.3-1.5-0.5c-0.6-0.2,0.6,0.3-0.2-0.1c-0.3-0.1-0.5-0.3-0.8-0.4c-0.2-0.1-0.5-0.3-0.7-0.4c-0.5-0.3,0,0,0.1,0.1
						c-0.1,0-0.3-0.2-0.4-0.3c-0.2-0.2-0.4-0.3-0.5-0.5c-0.1-0.1-0.1-0.1-0.2-0.2c-1.1-1.1-2.1-2.1-3.2-3.2
						c-4.2-4.2-8.3-8.3-12.5-12.5c-3.7-3.7-7.4-7.4-11.1-11.1c-0.4-0.4-0.8-0.8-1.2-1.2c-0.1-0.1-0.1-0.1-0.2-0.2
						c0,0-0.3-0.4-0.3-0.4c0,0,0.4,0.7,0.1,0.1c-0.1-0.1-0.1-0.2-0.2-0.3c-0.1-0.1-0.3-0.5-0.1-0.1c0.2,0.4,0-0.1-0.1-0.2
						c0-0.1-0.2-1-0.1-0.4c0.1,0.5,0-0.3,0-0.4c0-0.6-0.1,0.6,0-0.1c0-0.1,0.1-0.3,0.1-0.4c0-0.1,0.3-0.5,0-0.1
						c-0.3,0.4,0.2-0.3,0.3-0.4c0.3-0.6-0.1,0.1-0.1,0.1c0-0.1,0.3-0.3,0.3-0.3c0.1-0.1,0.1-0.1,0.2-0.2c1-1,2-2,3-3
						c0.3-0.3,0.5-0.5,0.8-0.8c1.3-1.3,1.3-3.4,0-4.7c-4-4-8-8-12-12c-0.6-0.6-1.1-1.1-1.7-1.7c0,1.5,0,3.1,0,4.7
						c2.3-2.3,4.6-4.6,6.9-6.9c-1.5,0-3.1,0-4.7,0c4,4,8,8,12,12c0.6,0.6,1.1,1.1,1.7,1.7c1.3,1.3,3.4,1.3,4.7,0
						c1.3-1.3,2.6-2.7,4-4c0,0,0.4-0.3,0.4-0.3c0,0-0.5,0.3-0.2,0.2c0.1,0,0.2-0.1,0.3-0.2s0.2-0.1,0.3-0.2c0.3-0.2-0.2,0.1-0.3,0.1
						c0.2,0,0.5-0.2,0.7-0.2c0.1,0,0.2,0,0.3-0.1c0,0-0.7,0-0.3,0c0.2,0,0.5,0,0.7,0c0.3,0-0.3,0-0.3,0c0.1,0,0.2,0,0.3,0.1
						c0.2,0,0.6,0.2,0.7,0.2c0,0-0.6-0.3-0.3-0.1c0.1,0.1,0.2,0.1,0.3,0.2s0.2,0.1,0.3,0.2c0.3,0.2-0.2-0.1-0.2-0.2
						c0,0,0.3,0.3,0.4,0.3c0.1,0,0.1,0.1,0.2,0.2c2.3,2.3,4.6,4.6,6.9,6.9c3.8,3.8,7.6,7.6,11.4,11.5c2.9,2.9,5.8,5.9,8.8,8.8
						c0.3,0.3,0.6,0.6,0.9,0.9c0.1,0.1,0.1,0.1,0.2,0.2l0,0c0.2,0.2,0.3,0.3,0.5,0.5c0.1,0.1,0.1,0.2,0.2,0.3
						c0.3,0.3-0.3-0.5-0.1-0.1c0.3,0.4,0.5,0.8,0.8,1.2c0.1,0.2,0.2,0.4,0.3,0.6c0.2,0.3-0.1-0.2-0.1-0.3c0,0.2,0.1,0.4,0.2,0.5
						c0.1,0.4,0.3,0.9,0.4,1.3c0,0.1,0,0.2,0.1,0.3c0,0.2,0.2,0.3,0,0s0-0.2,0,0c0,0.1,0,0.3,0,0.4c0,0.4,0,0.9,0,1.4
						c0,0.2-0.1,0.5-0.1,0.7c0,0,0.1-0.7,0-0.3c0,0.1,0,0.3-0.1,0.4c-0.1,0.4-0.2,0.9-0.4,1.3c0,0.1-0.1,0.2-0.1,0.3
						c-0.2,0.6,0-0.1,0.1-0.1c-0.1,0.1-0.3,0.6-0.4,0.7c-0.2,0.4-0.5,0.8-0.8,1.2c-0.2,0.3,0.1-0.2,0.1-0.2c0,0-0.2,0.3-0.2,0.3
						C145.6,136.5,145.4,136.7,145.2,136.9c-1.2,1.2-1.3,3.4,0,4.7c1.3,1.2,3.4,1.3,4.7,0c3.5-3.6,5-8.7,3.9-13.6
						c-0.6-2.8-2.2-5.2-4.2-7.3c-2.6-2.6-5.3-5.3-7.9-7.9c-4-4-8-8-12-12c-2.6-2.6-5.2-5.2-7.8-7.8c-2.3-2.3-5.6-3.5-8.9-2.6
						c-3,0.8-5.2,3.5-7.3,5.7c-0.2,0.2-0.4,0.4-0.6,0.6c1.5,0,3.1,0,4.7,0c-4-4-8-8-12-12c-0.6-0.6-1.1-1.1-1.7-1.7
						c-1.3-1.3-3.4-1.3-4.7,0c-2.3,2.3-4.6,4.6-6.9,6.9c-1.3,1.3-1.3,3.4,0,4.7c4,4,8,8,12,12c0.6,0.6,1.1,1.1,1.7,1.7
						c0-1.5,0-3.1,0-4.7c-0.9,0.9-1.7,1.7-2.6,2.6c-1.2,1.2-2.4,2.3-3.1,3.8c-1.5,3.2-1,6.8,1.2,9.5c0.3,0.4,0.6,0.7,0.9,1
						c3.3,3.3,6.7,6.7,10,10.1c4.5,4.5,9,9,13.4,13.5c3.5,3.5,6.8,7.6,12,8.4c5,0.8,9.7-0.8,13.2-4.3c2-2,4-4,6-6
						c0.2-0.2,0.4-0.4,0.6-0.6c1.2-1.2,1.3-3.5,0-4.7C148.6,135.7,146.5,135.6,145.2,136.9z"/>
				</g>
			</g>
			<g>
				<g>
					<path d="M112.7,109c2.6,2.6,5.2,5.2,7.9,7.9c4.2,4.2,8.4,8.4,12.5,12.5c1,1,1.9,1.9,2.9,2.9c1.2,1.2,3.5,1.3,4.7,0
						c1.2-1.3,1.3-3.4,0-4.7c-2.6-2.6-5.2-5.2-7.9-7.9c-4.2-4.2-8.4-8.4-12.5-12.5c-1-1-1.9-1.9-2.9-2.9c-1.2-1.2-3.5-1.3-4.7,0
						C111.5,105.7,111.4,107.7,112.7,109L112.7,109z"/>
				</g>
			</g>
			<g>
				<g>
					<path d="M133.8,134.5c-2.6-2.6-5.2-5.2-7.9-7.9c-4.2-4.2-8.4-8.4-12.5-12.5c-1-1-1.9-1.9-2.9-2.9c-1.2-1.2-3.5-1.3-4.7,0
						c-1.2,1.3-1.3,3.4,0,4.7c2.6,2.6,5.2,5.2,7.9,7.9c4.2,4.2,8.4,8.4,12.5,12.5c1,1,1.9,1.9,2.9,2.9c1.2,1.2,3.5,1.3,4.7,0
						C135,137.8,135.1,135.8,133.8,134.5L133.8,134.5z"/>
				</g>
			</g>
		</g>
		<g>
			<g>
				<g>
					<path d="M148.8,31.2c-3.9,3.9-7.9,7.9-11.8,11.8c-1.9,1.9-3.8,3.8-5.7,5.7c-0.1,0.1-0.3,0.3-0.4,0.4c-0.3,0.3-0.7,0.7-1.1,1
						c-0.3,0.3-0.6,0.5-0.9,0.8c0.1-0.1,0.5-0.4,0,0c-0.2,0.1-0.4,0.3-0.6,0.4c-0.6,0.4-1.2,0.7-1.8,1.1c-0.3,0.2-0.6,0.3-0.9,0.5
						c-0.2,0.1-0.4,0.2-0.6,0.3c-0.4,0.2-0.4,0.2,0,0c-0.6,0.4-1.5,0.5-2.1,0.7c-0.7,0.2-1.5,0.4-2.2,0.5c-0.2,0-0.3,0-0.5,0.1
						c-0.5,0.1,0-0.1,0.1,0c-0.1-0.1-0.9,0.1-1,0.1c-0.7,0-1.5,0.1-2.2,0c-0.7,0-1.5,0-2.2-0.2c0.1,0,0.7,0.1,0.1,0
						c-0.2,0-0.3,0-0.5-0.1c-0.4-0.1-0.8-0.2-1.3-0.3c-0.7-0.2-1.4-0.4-2-0.6c-0.2-0.1-0.4-0.1-0.6-0.2c-0.1,0-0.6-0.2-0.2-0.1
						c0.4,0.2-0.1-0.1-0.2-0.1c-0.2-0.1-0.5-0.2-0.7-0.3c-0.7-0.3-1.4-0.7-2-1.2c-0.3-0.2-0.6-0.4-0.9-0.6c-0.1-0.1-0.3-0.2-0.4-0.3
						c0.6,0.4-0.1-0.1-0.2-0.2c-0.3-0.2-0.6-0.5-0.8-0.7c0,0-0.4-0.4-0.4-0.4c-0.1,0.1,0.9,1-0.3-0.3c-0.2-0.3-0.5-0.5-0.8-0.8
						c-0.1-0.2-0.3-0.3-0.5-0.5c0-0.1-0.5-0.7-0.3-0.3c0.2,0.3-0.1-0.1-0.2-0.2c-0.1-0.2-0.3-0.4-0.4-0.6c-0.2-0.3-0.4-0.6-0.6-0.9
						c-0.4-0.7-0.8-1.4-1.2-2.1c-0.1-0.2-0.1-0.3-0.2-0.5c0.3,0.6,0.1,0.2,0,0c-0.1-0.4-0.3-0.8-0.4-1.1c-0.2-0.8-0.5-1.5-0.6-2.3
						c-0.1-0.4-0.1-0.7-0.2-1.1c0-0.2-0.1-0.6,0,0.1c0-0.2,0-0.3,0-0.5c-0.1-0.7-0.1-1.5-0.1-2.2c0-0.7,0-1.4,0.1-2.1
						c0-0.2,0-0.3,0-0.5c0-0.5-0.1,0.8,0,0c0.1-0.4,0.1-0.7,0.2-1.1c0.1-0.7,0.3-1.4,0.5-2.1c0.1-0.3,0.2-0.6,0.3-1
						c0-0.2,0.1-0.3,0.2-0.5c0.2-0.7-0.2,0.5,0.1-0.1c0.6-1.4,1.4-2.7,2.3-4c0.1-0.1,0.4-0.5,0,0c0.1-0.1,0.2-0.3,0.3-0.4
						c0.2-0.3,0.5-0.5,0.7-0.8c0.2-0.3,0.5-0.5,0.8-0.8c1.5-1.5,3-3,4.4-4.4c4.4-4.4,8.9-8.9,13.3-13.3c0.1-0.1,0.2-0.2,0.3-0.3
						c1.7-1.7,1-4.9-1.4-5.5c-12.4-3-26-0.7-36.5,6.6C79,9.5,74.4,14.3,71,20.1c-3.3,5.5-5.2,11.7-6,18c-0.8,6.7,0,13.8,2.3,20.2
						c0.3-1.1,0.6-2.1,0.8-3.2c-3.5,3.5-6.9,6.9-10.3,10.3c-4.6,4.6-9.1,9.1-13.7,13.7C37.4,85.8,30.7,92.6,24,99.3
						c-5,5-10,10-15,15c-1.5,1.5-3.1,3-4.4,4.9c-5,7-5,17-0.1,24.1c4.7,6.8,12.8,10.3,21,9.2c4.8-0.7,9-3,12.3-6.4
						c4-4,8.1-8.1,12.1-12.1c6.7-6.7,13.3-13.3,20-20c5.4-5.4,10.8-10.8,16.2-16.2c3.2-3.2,6.5-6.5,9.7-9.7c0.9-0.9,1.8-1.8,2.7-2.7
						c-1.1,0.3-2.1,0.6-3.2,0.8c11.8,4,25,3,36-2.8c11.4-5.9,19.9-16.9,22.9-29.4c1.7-7,1.7-14.2,0.1-21.2c-0.4-1.7-2.4-2.8-4-2.3
						c-1.8,0.6-2.7,2.3-2.3,4c0.1,0.7,0.3,1.4,0.4,2.1c0.1,0.3,0.1,0.7,0.2,1c0,0.2,0,0.3,0.1,0.5c0.1,0.4-0.1-0.7,0,0
						c0.1,1.4,0.3,2.9,0.3,4.3c0,1.4,0,2.8-0.1,4.2c0,0.4-0.1,0.7-0.1,1.1c0,0.3-0.2,0.7-0.1,1c0-0.1,0.1-0.8,0-0.1
						c0,0.2,0,0.3-0.1,0.5c-0.1,0.4-0.1,0.8-0.2,1.2c-0.5,2.8-1.3,5.5-2.4,8.2c-0.2,0.6,0,0,0-0.1c0,0.1-0.1,0.3-0.2,0.5
						c-0.1,0.3-0.3,0.7-0.5,1c-0.3,0.7-0.6,1.3-1,1.9c-0.7,1.3-1.5,2.6-2.4,3.8c-0.2,0.3-0.4,0.6-0.6,0.8c-0.1,0.1-0.2,0.3-0.3,0.4
						c-0.1,0.1-0.4,0.5-0.1,0.2c0.3-0.4-0.2,0.3-0.2,0.3c-0.1,0.1-0.2,0.3-0.3,0.4c-0.2,0.3-0.5,0.6-0.8,0.9c-1,1.2-2.1,2.3-3.2,3.3
						c-0.5,0.5-1,0.9-1.6,1.4c-0.3,0.2-0.5,0.4-0.8,0.6c-0.5,0.4,0,0,0.1,0c-0.2,0.2-0.4,0.3-0.6,0.5c-1.2,0.8-2.4,1.6-3.6,2.4
						c-1.2,0.7-2.5,1.4-3.8,1.9c-0.3,0.1-0.6,0.3-0.9,0.4c0.8-0.3-0.3,0.1-0.5,0.2c-0.7,0.2-1.3,0.5-2,0.7c-1.4,0.4-2.7,0.8-4.1,1.1
						c-0.7,0.1-1.3,0.3-2,0.4c-0.3,0-0.6,0.1-1,0.1c-0.2,0-0.6,0.1,0.1,0c-0.2,0-0.4,0-0.6,0.1c-3.1,0.4-6.2,0.4-9.3,0.1
						c-0.2,0-1.5-0.1-0.6,0c-0.4,0-0.8-0.1-1.2-0.2c-0.7-0.1-1.4-0.3-2.2-0.4c-1.6-0.3-3.1-0.8-4.7-1.3c-1.1-0.4-2.4,0-3.2,0.8
						C90.4,84,87,87.4,83.6,90.8c-4.4,4.4-8.8,8.8-13.2,13.2c-6.6,6.6-13.2,13.2-19.8,19.8c-5.1,5.1-10.3,10.3-15.4,15.4
						c-0.8,0.8-1.6,1.6-2.5,2.5c-0.3,0.3-0.6,0.6-0.9,0.8c-0.1,0.1-0.3,0.3-0.5,0.4c-0.2,0.1-0.5,0.5,0,0c-0.5,0.6-1.6,1.1-2.3,1.4
						c-0.4,0.2-0.8,0.4-1.1,0.6c-0.6,0.3,0.1,0,0.1-0.1c-0.1,0.1-0.5,0.2-0.6,0.2c-0.8,0.3-1.7,0.5-2.5,0.7c-0.2,0-0.4,0.1-0.6,0.1
						c-0.3,0-0.9,0,0,0c-0.4,0-0.8,0.1-1.1,0.1c-0.8,0-1.7,0-2.5,0c-0.1,0-0.6,0-0.7-0.1c0.1,0,0.3,0,0.4,0.1c-0.1,0-0.3,0-0.4-0.1
						c-0.4-0.1-0.7-0.1-1.1-0.2c-0.8-0.2-1.6-0.5-2.4-0.7c-0.7-0.3,0.7,0.3-0.1,0c-0.2-0.1-0.4-0.2-0.6-0.3c-0.3-0.2-0.7-0.3-1-0.5
						c-0.3-0.2-0.7-0.4-1-0.6c-0.2-0.1-0.4-0.3-0.6-0.4c-0.6-0.4,0.4,0.4-0.1-0.1c-0.7-0.6-1.4-1.2-2-1.9c-0.3-0.3-0.6-0.7-0.9-1
						c0.5,0.6-0.1-0.1-0.1-0.2c-0.1-0.2-0.3-0.4-0.4-0.7c-0.3-0.4-0.5-0.8-0.7-1.3c-0.1-0.2-0.2-0.4-0.3-0.6
						c-0.1-0.1-0.5-0.9-0.1-0.2c-0.5-0.8-0.7-1.9-0.9-2.7c-0.1-0.5-0.2-0.9-0.3-1.4c-0.1-0.5,0.1,0.8,0,0c0-0.3,0-0.5-0.1-0.8
						c0-1,0-1.9,0.1-2.8c0-0.9-0.1,0.7,0-0.1c0-0.2,0-0.3,0.1-0.5c0.1-0.5,0.2-1,0.3-1.5c0.1-0.4,0.2-0.8,0.4-1.2
						c0.1-0.2,0.2-0.5,0.3-0.7c-0.3,0.5,0,0.1,0.1-0.2c0.4-0.9,0.9-1.7,1.4-2.5c0.1-0.1,0.2-0.3,0.3-0.4c0.5-0.7-0.4,0.5,0.1-0.2
						c0.4-0.4,0.7-0.8,1.1-1.2c0.2-0.2,0.4-0.4,0.6-0.6c4.2-4.2,8.3-8.3,12.5-12.5C31.4,101,38,94.5,44.6,87.9
						c5.3-5.3,10.6-10.6,16-16c3.2-3.2,6.4-6.4,9.5-9.5c0.9-0.9,1.8-1.8,2.7-2.7c0.8-0.8,1.2-2.1,0.8-3.2c-0.5-1.3-0.9-2.7-1.3-4.1
						c-0.3-1.3-0.8-2.8-0.8-4.2c0,0.1,0.1,0.8,0,0.1c0-0.2,0-0.3-0.1-0.5c0-0.3-0.1-0.6-0.1-1c-0.1-0.7-0.1-1.5-0.1-2.2
						c0-1.4,0-2.8,0-4.1c0-0.7,0.1-1.4,0.2-2.1c0-0.1,0.1-1.2,0.1-0.7c-0.1,0.6,0-0.2,0-0.3c0-0.2,0.1-0.4,0.1-0.6
						c0.2-1.4,0.5-2.8,0.9-4.2c0.4-1.3,0.8-2.7,1.3-4c0.1-0.3,0.2-0.6,0.4-0.9c-0.4,0.7,0.1-0.1,0.2-0.3c0.3-0.7,0.6-1.3,1-2
						c0.7-1.3,1.4-2.6,2.2-3.8c0.4-0.6,0.8-1.2,1.2-1.8c0.1-0.2,0.7-1,0.3-0.3c0.2-0.3,0.5-0.7,0.8-1c1.9-2.3,4.1-4.4,6.4-6.2
						c0.5-0.4,0,0,0,0c0.2-0.1,0.3-0.3,0.5-0.4c0.3-0.2,0.6-0.4,0.8-0.6c0.6-0.4,1.3-0.9,1.9-1.3c1.3-0.8,2.6-1.5,3.9-2.1
						c0.3-0.1,0.6-0.3,0.9-0.4c0.1-0.1,0.3-0.1,0.5-0.2c0.2-0.1,0.4-0.3-0.1,0c0.6-0.4,1.5-0.6,2.1-0.8c1.3-0.5,2.7-0.9,4.1-1.2
						c0.8-0.2,1.6-0.4,2.5-0.5c0.4-0.1,0.8-0.1,1.2-0.2c0.2,0,0.6-0.1-0.1,0c0.2,0,0.4,0,0.6-0.1c1.6-0.2,3.2-0.3,4.9-0.3
						c1.6,0,3.2,0.1,4.7,0.3c0.2,0,0.3,0,0.5,0.1c-0.9-0.2,0,0,0.1,0c0.4,0.1,0.8,0.1,1.2,0.2c0.8,0.1,1.6,0.3,2.5,0.5
						c-0.5-1.8-1-3.7-1.4-5.5c-4.1,4.1-8.2,8.2-12.3,12.3c-1.9,1.9-3.7,3.7-5.6,5.6c-3.8,3.8-6.5,8.7-7.3,14.1
						c-1.1,7.2,0.8,14.4,5.4,20.1c0.2,0.3,0.5,0.6,0.7,0.9c0.1,0.1,0.2,0.3,0.4,0.4c0.1,0.1,0.1,0.1,0.2,0.2c0.2,0.3,0.3,0.3,0,0
						c0-0.1-0.1-0.1-0.2-0.2c0.2,0.3,0.4,0.5,0.6,0.8c0.2,0.2,0.3,0.3,0.5,0.5c0.3,0.3,0.7,0.6,1.1,0.9c1.4,1.2,2.9,2.2,4.6,3.1
						c3.2,1.6,6.6,2.6,10.1,2.8c6.8,0.5,13.6-2,18.7-6.6c1.6-1.4,3-3,4.5-4.5c4.6-4.6,9.2-9.2,13.9-13.9c0.1-0.1,0.2-0.2,0.3-0.3
						c1.2-1.2,1.3-3.5,0-4.7C152.2,30,150.1,29.9,148.8,31.2z"/>
					<path d="M22.3,132.6C21.8,133.1,22.8,132.3,22.3,132.6c-0.2,0.1-0.3,0.2-0.4,0.3c0.4-0.2,0.5-0.2,0.3-0.1
						c-0.2,0.1-0.4,0.1-0.6,0.2c-0.2,0-0.1,0,0.3,0c-0.1,0-0.3,0-0.4,0c-0.6,0,0.6,0.2,0,0c-0.1,0-0.6-0.1-0.6-0.2
						c0.4,0.2,0.5,0.2,0.3,0.1c-0.1,0-0.2-0.1-0.3-0.2c-0.2-0.2-0.2-0.2,0,0c0.2,0.2,0.2,0.1,0,0c-0.2-0.3-0.2-0.2,0.1,0.1
						c0-0.1-0.1-0.1-0.1-0.2c-0.1-0.1-0.2-0.3-0.2-0.4c0,0.1,0.1,0.2,0.1,0.4c-0.1-0.1-0.1-0.5-0.2-0.6c-0.2-0.6,0,0.7,0-0.1
						c0-0.8-0.1,0.3,0,0c0-0.1,0.1-0.7,0.2-0.7c0,0.1-0.1,0.2-0.1,0.4c0.1-0.1,0.1-0.3,0.2-0.4c0-0.1,0.1-0.1,0.1-0.2
						c-0.3,0.4-0.3,0.4-0.1,0.1c0.2-0.2,0.2-0.2,0,0c-0.2,0.1-0.2,0.1,0,0c0.1-0.1,0.2-0.1,0.3-0.2c0.2-0.1,0.1-0.1-0.3,0.1
						c0.1-0.1,0.5-0.1,0.6-0.2c0.6-0.2-0.6,0,0,0c0.1,0,0.3,0,0.4,0c-0.5-0.1-0.6-0.1-0.3,0c0.2,0.1,0.4,0.1,0.6,0.2
						c0.2,0.1,0.1,0-0.3-0.1c0.1,0,0.2,0.1,0.3,0.2c0.7,0.4-0.3-0.3,0.1,0.1c0.5,0.5-0.3-0.5,0.1,0c0,0.1,0.1,0.1,0.1,0.2
						c0.2,0.3,0.1,0.3,0-0.2c0,0.2,0.1,0.5,0.2,0.6c0.2,0.6,0-0.7,0,0c-0.1,0.9,0,0,0,0c0,0-0.1,0.6-0.2,0.6
						c-0.1,0.6,0.3-0.6-0.1,0.1C22,133.1,22.7,132.1,22.3,132.6c-1.2,1.3-1.3,3.4,0,4.7c1.3,1.2,3.4,1.3,4.7,0
						c2.3-2.5,2.8-5.9,1.4-8.9c-1.3-2.7-4.4-4.4-7.3-4.2c-3.3,0.2-6.2,2.5-7,5.7c-0.8,3.2,0.5,6.5,3.2,8.4c3,2.1,7.1,1.5,9.7-1
						c1.3-1.2,1.3-3.5,0-4.7C25.6,131.3,23.6,131.3,22.3,132.6z"/>
				</g>
			</g>
			<g>
				<g>
					<path d="M40.1,117.8c1.4-1.4,2.8-2.8,4.2-4.2c3.4-3.4,6.8-6.8,10.2-10.2c4.1-4.1,8.2-8.2,12.3-12.3c3.5-3.5,7.1-7.1,10.6-10.6
						c1.7-1.7,3.5-3.4,5.2-5.2c0,0,0,0,0.1-0.1c1.2-1.2,1.3-3.5,0-4.7c-1.3-1.2-3.4-1.3-4.7,0c-1.4,1.4-2.8,2.8-4.2,4.2
						c-3.4,3.4-6.8,6.8-10.2,10.2c-4.1,4.1-8.2,8.2-12.3,12.3c-3.5,3.5-7.1,7.1-10.6,10.6c-1.7,1.7-3.5,3.4-5.2,5.2c0,0,0,0-0.1,0.1
						c-1.2,1.2-1.3,3.5,0,4.7C36.8,119,38.8,119.1,40.1,117.8L40.1,117.8z"/>
				</g>
			</g>
		</g>
	</g>
</g>
<g>
	<title>Artboard 11</title>
	<g>
		<path d="M145.6,61h-8.3c-1.7-7.6-4.6-14.7-8.8-21.3l5.8-5.8c1.4-1.4,1.4-3.4,0-4.7l0,0l-14.4-14.4c-1.4-1.4-3.4-1.4-4.7,0l0,0
			l-5.8,5.8c-6.4-4.2-13.7-7.3-21.3-8.8V3.4C88,1.5,86.5,0,84.7,0l0,0H64.3C62.5,0,61,1.5,61,3.4v0.2v8.3
			c-7.6,1.7-14.7,4.6-21.3,8.8l-5.8-5.9c-1.4-1.4-3.4-1.4-4.7,0l0,0L14.7,29.1c-1.4,1.4-1.4,3.4,0,4.7l0,0l5.8,5.8
			c-4.2,6.4-7.3,13.7-8.8,21.3H3.4C1.5,61,0,62.5,0,64.3l0,0v20.3C0,86.5,1.5,88,3.4,88h0.2h8.3c1.7,7.6,4.6,14.7,8.8,21.3l-5.9,5.9
			c-1.4,1.4-1.4,3.4,0,4.7l0,0l14.4,14.4c1.4,1.4,3.4,1.4,4.7,0l0,0l5.8-5.7c6.4,4.2,13.7,7.3,21.3,8.8v8.3c0,1.9,1.5,3.4,3.4,3.4
			l0,0h20.3c1.9,0,3.4-1.5,3.4-3.4v0v-8.3c7.6-1.7,14.7-4.6,21.3-8.8l5.7,5.8c1.4,1.4,3.4,1.4,4.7,0l0,0l14.4-14.4
			c1.4-1.4,1.4-3.4,0-4.7l0,0l-5.7-5.8c4.2-6.4,7.3-13.7,8.8-21.3h8.4c1.9,0,3.4-1.5,3.4-3.4l0,0V64.3C149,62.5,147.5,61,145.6,61
			L145.6,61z M142.2,81.3h-7.4c-1.7,0-3,1.2-3.4,2.9c-1.4,8.6-4.7,16.6-9.8,23.7c-1,1.4-0.8,3.2,0.3,4.4l5.4,5.4l-9.7,9.7l-5.4-5.4
			c-1.2-1.2-3-1.4-4.4-0.3c-7.1,5.1-15.2,8.5-23.7,9.8c-1.7,0.3-2.9,1.7-2.9,3.4v7.5H67.7v-7.4c0-1.7-1.2-3-2.9-3.4
			c-8.7-1.4-16.6-4.7-23.8-9.8c-1.4-1-3.2-0.8-4.4,0.3l-5.4,5.4l-9.7-9.7l5.4-5.4c1.2-1.2,1.4-3,0.3-4.4c-5.1-7.1-8.5-15.2-9.8-23.7
			c-0.3-1.7-1.7-2.9-3.4-2.9H6.8V67.7h7.4c1.7,0,3-1.2,3.4-2.9c1.4-8.7,4.7-16.6,9.8-23.8c1-1.4,0.8-3.2-0.3-4.4l-5.4-5.4l9.7-9.7
			l5.4,5.4c1.2,1.2,3,1.4,4.4,0.3c7.1-5.1,15.2-8.5,23.7-9.8c1.7-0.3,2.9-1.7,2.9-3.4V6.8h13.5v6.8c0,1.7,1.2,3.1,2.9,3.4
			c8.7,1.4,16.6,4.8,23.8,9.9c1.4,1,3.2,0.9,4.4-0.3l5.4-5.5l9.7,9.8l-5.4,5.5c-1.2,1.2-1.4,3.1-0.3,4.5c5.1,7.2,8.5,15.4,9.8,24
			c0.3,1.7,1.7,2.9,3.4,2.9h7.3V81.3z"/>
		<path d="M74,27.1c-26.2,0-47.4,21.2-47.4,47.4s21.2,47.4,47.4,47.4s47.4-21.2,47.4-47.4S100.2,27.1,74,27.1z M67.7,114.5V95.8
			c0-1.4-0.7-2.5-1.9-3C55.4,88,51.1,76,55.9,65.9c1.2-2.5,3-4.7,5-6.4v13.4c0,3.7,3,6.8,6.8,6.8h13.5c3.7,0,6.8-3,6.8-6.8V59.4
			c8.5,7.5,9.4,20.1,1.7,28.4c-1.9,2-4.2,3.7-6.6,4.9c-1.2,0.5-1.9,1.7-1.9,3v18.6C76.6,115.3,72,115.3,67.7,114.5z M88,112.8V97.9
			c12.9-7.4,17.4-23.9,10-36.7c-2.7-4.7-6.9-8.6-11.9-11c-1.7-0.8-3.7-0.2-4.6,1.5c-0.2,0.5-0.3,1-0.3,1.5v19.6H67.7V53.2
			c0-1.9-1.5-3.4-3.4-3.4c-0.5,0-1,0.2-1.5,0.3C49.3,56.4,43.5,72.5,49.9,86c2.4,5.1,6.3,9.1,11,11.9v14.9
			C39,105.1,28,80.5,37.1,58.7C44.9,40.1,65.7,30,85.2,35.4c23,6.3,35.3,30.6,27.5,52.7C108.7,99.6,99.6,108.7,88,112.8z"/>
	</g>
</g>
<g class="st0">
	<g class="st1">
		<path d="M204.9,138.4c-0.5-12-10.1-21.6-22.1-21.6c-11.2,0-20.5,8.7-21.8,20.7h-51.6V85.7h8.7c1.6-1.3,2.7-2.4,2.2-4V65.3
			c0.5-1.6-2.2-4.2-2.2-4.2h-6v-8.3c0-4.3-3.4-8.1-7.9-8.1H87.2c-4.2,0-7.9,3.5-7.9,8.1v8.3h-6c0,0-2.7,2.5-2.2,4.2v16.4
			c-0.5,1.6,0.5,2.7,2.2,4H82v51.9H30.7c-1.4-12.2-10.6-20.7-21.8-20.7c-12,0-21.6,9.6-22.1,21.6c0,0.3-0.3,0.5-0.3,0.8
			c0,1.6,1.1,2.7,2.7,3.8h96.4h20.2h96.6c1.6-1,2.7-2.1,2.7-3.8C205.2,139,205.2,138.7,204.9,138.4z M183.1,123.3
			c8.2,0,15,6.3,16.4,14.2h-32.8C167.8,129.6,174.6,123.3,183.1,123.3z M84.5,52.9c0-1.4,1.1-2.7,2.7-2.7H104c1.3,0,2.6,1.1,2.6,2.7
			v8.3H84.8v-8.2H84.5z M76.3,69.3h5.4h27.7h5.4v10.9h-9.2H85.7h-9.2V69.3H76.3z M8.9,123.3c8.2,0,15,6.3,16.4,14.2H-7.5
			C-6.1,129.6,0.7,123.3,8.9,123.3z M90.2,137.5V85.7h13.6v51.9H90.2z"/>
		<path d="M54.5,38.8c0.5,0.5,1.4,0.8,1.9,0.8c0.8,0,1.4-0.3,1.9-0.8c1.1-1.1,1.1-2.7,0-3.8L50.7,27c-1.1-1.1-2.7-1.1-3.8,0
			c-1.1,1.1-1.1,2.7,0,3.8L54.5,38.8z"/>
		<path d="M32.9,53.5L43,55.6c0.3,0,0.3,0,0.5,0c1.4,0,2.5-0.8,2.7-2.2c0.3-1.4-0.5-3-2.2-3.3L34,48c-1.4-0.3-3,0.5-3.3,2.2
			C30.5,51.8,31.5,53.2,32.9,53.5z"/>
		<path d="M33.5,82.9c0.3,0,0.3,0,0.5,0l10.1-2.2c1.4-0.3,2.5-1.6,2.2-3.3C46,76.1,44.6,75,43,75.3l-10.1,2.2
			c-1.4,0.3-2.5,1.6-2.2,3.3C31.3,82.1,32.4,82.9,33.5,82.9z"/>
		<path d="M53.1,93.1l-6.3,6.6c-1.1,1.1-1.1,2.7,0,3.8c0.5,0.5,1.1,0.8,1.9,0.8s1.4-0.3,1.9-0.8l6.3-6.6c1.1-1.1,1.1-2.7,0-3.8
			C55.8,92,54.2,92,53.1,93.1z"/>
		<path d="M138.3,39.6c0.8,0,1.4-0.3,1.9-0.8l7.6-7.9c1.1-1.1,1.1-2.7,0-3.8s-2.7-1.1-3.8,0l-7.6,7.9c-1.1,1.1-1.1,2.7,0,3.8
			C136.9,39.3,137.5,39.6,138.3,39.6z"/>
		<path d="M148.7,53.5c0.3,1.4,1.4,2.2,2.7,2.2c0.3,0,0.3,0,0.5,0l10.1-2.2c1.4-0.3,2.5-1.6,2.2-3.3c-0.3-1.4-1.6-2.5-3.3-2.2
			l-10.4,2.2C149.2,50.5,148.1,51.8,148.7,53.5z"/>
		<path d="M150.6,80.8l10.1,2.2c0.3,0,0.3,0,0.5,0c1.4,0,2.5-0.8,2.7-2.2s-0.5-3-2.2-3.3l-10.1-2.2c-1.4-0.3-3,0.5-3.3,2.2
			C148.1,78.8,149.2,80.2,150.6,80.8z"/>
		<path d="M141.6,93.1c-1.1-1.1-2.7-1.1-3.8,0c-1.1,1.1-1.1,2.7,0,3.8l6.3,6.6c0.5,0.5,1.4,0.8,1.9,0.8c0.8,0,1.4-0.3,1.9-0.8
			c1.1-1.1,1.1-2.7,0-3.8L141.6,93.1z"/>
	</g>
</g>
<g class="st0">
	<title>a</title>
	<g class="st1">
		<circle cx="65.9" cy="127.6" r="7.7"/>
		<path d="M195.9,107.7V97c0-1.1-0.4-1.9-1.1-2.7l-19.1-19.1c-0.8-0.8-1.5-1.1-2.7-1.1h-57.4V35.8c0-4.2-3.4-7.7-7.7-7.7H69.7
			c-4.2,0-7.7,3.4-7.7,7.7v26.8H-1.5c-2.3,0-4.2,0.8-5.7,2.7c-3.4,3.4-7.3,12.2-7.3,31.8v26.8c0,4.2,3.4,7.7,7.7,7.7h4.2
			c1.9,12.6,13.8,21,26.4,18.7c9.6-1.5,17.2-9.2,18.7-18.7h0.8c1.9,12.6,13.8,21,26.4,18.7c9.6-1.5,17.2-9.2,18.7-18.7h2.7
			c1.9,0,3.8-0.8,5.4-2.3l16.8-16.8c1.5-1.5,2.3-3.4,2.3-5.4V97h48.2l7.7,7.7h-40.6c-4.2,0-7.7,3.4-7.7,7.7v24.5
			c0,3.1,1.5,5.7,4.2,6.9l13.4,6.5l0,0c0.4,0.4,1.1,0.4,1.5,0.4h11.5c2.3,0,3.8-1.5,3.8-3.8s-1.5-3.8-3.8-3.8h-7.7v-30.6h21
			c-9.1,10.4-7.5,26.6,4.5,34.5c8.7,5.8,20.7,4.9,28.3-2.3c10.1-9.5,9.8-25.2-0.3-34.2C198.6,109.6,197.5,108.5,195.9,107.7z
			 M85,89.4V51.1h23v38.3H85z M-6.8,97c0-19.1,4.2-25.3,5.4-26.8H62V105c-9.6,1.5-17.2,9.2-18.7,18.7h-0.4c0,0,0,0,0-0.4
			c-2.3-12.6-14.4-20.7-27.2-18.4c-9.7,1.5-17.1,9.2-18.7,18.4c0,0,0,0,0,0.4h-3.8V97z M20,142.9c-8.4,0-15.3-6.9-15.3-15.3
			s6.9-15.3,15.3-15.3s15.3,6.9,15.3,15.3S28.4,142.9,20,142.9z M65.9,142.9c-8.4,0-15.3-6.9-15.3-15.3s6.9-15.3,15.3-15.3
			s15.3,6.9,15.3,15.3S74.4,142.9,65.9,142.9z M107.9,106.6l-17.2,17.2H88c-1.6-9.4-9-16.8-18.3-19.1c-0.4,0,0.4,0,0,0V35.8h38.3
			v7.7H85c-4.2,0-7.7,3.4-7.7,7.7v38.3c0,4.2,3.4,7.7,7.7,7.7h23V106.6z M165.3,89.4h-49.7v-7.7h55.9l16.8,16.8v6.1h-0.4
			c-1.1-0.4-2.3-0.4-3.4-0.4s-2.3,0-3.4,0.4h-0.4v-0.4c0-1.1-0.4-1.9-1.1-2.6L168,90.5C167.2,89.7,166.5,89.4,165.3,89.4z
			 M130.9,112.3h7.7v28.3l-7.7-3.8V112.3z M184.6,142.9c-8.4,0-15.3-6.9-15.3-15.3c0-6.1,3.4-11.5,9.2-13.8l0,0
			c3.1-1.1,6.1-1.5,9.2-0.8c8.4,1.9,13.4,9.9,11.9,18.4C197.9,137.9,191.8,142.9,184.6,142.9z"/>
		<circle cx="184.6" cy="127.6" r="7.7"/>
		<circle cx="20" cy="127.6" r="7.7"/>
		<path d="M4.7,97h30.6c2.3,0,3.8-1.5,3.8-3.8c0-2.3-1.5-3.8-3.8-3.8H4.7c-2.3,0-3.8,1.5-3.8,3.8C0.9,95.5,2.4,97,4.7,97z"/>
		<path d="M4.7,85.5h30.6c2.3,0,3.8-1.5,3.8-3.8s-1.5-3.8-3.8-3.8H4.7c-2.3,0-3.8,1.5-3.8,3.8S2.4,85.5,4.7,85.5z"/>
	</g>
</g>
<g class="st0">
	<title>015 - Tractor</title>
	<desc>Created with Sketch.</desc>
	<g class="st1">
		<g>
			<path d="M25.7,129.1c-10.3,0-18.4,8.1-18.4,18.4S15.4,166,25.7,166s18.4-8.1,18.4-18.4S36,129.1,25.7,129.1z M25.7,158.6
				c-6.3,0-11.1-4.8-11.1-11.1c0-6.3,4.8-11.1,11.1-11.1s11.1,4.8,11.1,11.1C36.8,153.8,32,158.6,25.7,158.6z"/>
			<path d="M136.3,151.2c-4.4,0-8.5,2.6-10.3,7c-1.8,4.1-0.7,8.8,2.6,12.2c3.3,3.3,8.1,4.1,12.2,2.6c4.1-1.8,7-5.9,7-10.3
				C147.4,156.4,142.6,151.2,136.3,151.2z M136.3,166c-2.2,0-3.7-1.8-3.7-3.7c0-2.2,1.8-3.7,3.7-3.7c2.2,0,3.7,1.8,3.7,3.7
				C140,164.5,138.5,166,136.3,166z"/>
			<path d="M42.7,185.5c10.7-4.8,18.8-14.4,22.1-25.8h46.1c-1.5,10.3,3.3,20.6,12.2,25.8 M149.8,184.4c7.4-4.4,12.2-12.5,12.5-21.4
				s-3.7-17-11.1-22.1v-29.5c0-1.8-1.5-3.3-3.3-3.7l-22.1-2.6l10-52.3h37.6h16.6c1.1,0,1.8-0.4,2.6-1.1l12.9-12.9
				c1.4-1.4,1.4-3.7,0-5.2L174.1,2.3c-1.4-1.4-3.7-1.4-5.2,0L156,15.2c-0.7,0.7-1.1,1.5-1.1,2.6v16.6c0,1.1,0.4,1.8,1.1,2.6l8.5,8.5
				h-30.2l-7.4-7.4h16.8c0,0,3.7-2.6,3.7-4.8s-1.5-3.7-3.7-2.6h-25.8c-0.4-1.1-0.7-1.1-1.5-0.7c0,0-0.4,0-0.4,0.4
				c-0.4,0-0.7,0.4-1.7,0.4l0,0V31c0.5,0.4,0.5,0.4,0.5,0.7l3.1,0.4v0.4l-17.1,68.9L88.6,100V56.5c0-2-1.7-3.7-3.7-3.7H18.5
				c-2.2,0-3.7,1.5-3.7,3.7s1.5,3.7,3.7,3.7h3.7v33.2h-3.7c-2.2,0-3.7,1.5-3.7,3.7c0,2.2,1.5,3.7,3.7,3.7h3.7v6.6
				c-18.4,1.5-33.2,15.5-36.1,33.5C-16.9,159-7.6,176.6,9,184.4 M162.3,19.2l9.2-9.2l26.2,26.2l-9.2,9.2h-13.6l-12.5-12.5V19.2z
				 M81.2,104.4v14.7h-5.5c-4.4-8.5-11.8-15.9-20.3-20.3V60.2h25.8V104.4z M29.6,60.2H48v35.4c-4.8-1.5-9.6-2.2-14.7-2.2h-3.7V60.2z
				 M33.3,100.7c5.9,0,11.4,1.1,17,3.7c8.8,4.1,15.9,11.1,19.9,19.9c2.6,5.2,3.7,11.1,3.7,17v11.1h-7.4c-0.1-0.1-0.1-0.1-0.1-0.2
				c1.9-22.6-14.5-41.8-36.7-43.7v-7.7H33.3z M25.7,180.7c-14,0-26.5-8.8-31.3-22.1c-4.8-13.3-0.7-28,10.3-36.9
				c10.7-8.8,26.2-10,38-2.6c11.8,7.4,18.1,21.4,15.5,35C55.2,169.6,41.6,180.7,25.7,180.7z M154.7,162.3c0,10.3-8.1,18.4-18.4,18.4
				c-10.3,0-18.4-8.1-18.4-18.4s8.1-18.4,18.4-18.4C146.6,143.8,154.7,151.9,154.7,162.3z M143.9,138.7
				c-12.2-3.7-25.1,2.2-30.6,13.6H81.2v-11.1c0-5.2-0.7-10-2.2-14.7h5.9c0,0,0,0,0.4,0s0,0,0,0l47.2,3.7h0.4c2.2,0,3.7-1.5,3.7-3.7
				c0-2.2-1.5-3.7-3.7-3.7l-44.2-3.3v-10.7l55.3,6.6V138.7z M107.9,102.2l12.2-61.6l8.5,8.5l-10.3,54.2L107.9,102.2z"/>
		</g>
	</g>
</g>
<g class="st0">
	<path class="st1" d="M178.8,8.2L-14.3,145.8c-2,1.4-2.4,3.7-1,5.7l0,0l23.7,33.3c1.4,2,3.7,2.4,5.7,1l0,0L207.3,48.2
		c2-1.4,2.4-3.7,1-5.7l0,0L184.5,9.2C183.1,7.2,180.8,6.8,178.8,8.2L178.8,8.2z M185.9,53.4l-11.7,8.3c1.5-12.6-6.5-24-19-26.6
		l11.7-8.3L185.9,53.4z M28.7,146.3c-5.2-7.3-3.5-17.6,3.8-22.8c7.3-5.2,17.6-3.5,22.8,3.8c5.2,7.3,3.5,17.6-3.8,22.8
		C44.2,155.3,34,153.6,28.7,146.3z M48.7,111l21.6-15.4l7.1,10c1.4,2,3.7,2.4,5.7,1l0,0l26.6-19c2-1.4,2.4-3.7,1-5.7l0,0l-7.1-10
		l21.6-15.4c-1.5,12.6,6.5,24,19,26.6l-76.6,54.6C68.9,125.2,60.8,113.9,48.7,111z M135.3,70.4c-5.2-7.3-3.5-17.6,3.8-22.8
		c7.3-5.2,17.6-3.5,22.8,3.8s3.5,17.6-3.8,22.8C150.8,79.4,140.5,77.7,135.3,70.4z M97,76.6l4.7,6.7l-20,14.2L77,90.8L97,76.6z
		 M-6.2,150.1l6.7-4.7l19,26.6l-6.7,4.7L-6.2,150.1z M7.1,140.6l11.7-8.3c-1.5,12.6,6.5,24,19,26.6l-11.7,8.3L7.1,140.6z
		 M199.2,43.9l-6.7,4.7l-19-26.6l6.7-4.7L199.2,43.9z"/>
	<path class="st1" d="M34,146.6l20-14.2c2-1.4,2.4-3.7,1-5.7s-3.7-2.4-5.7-1l-20,14.2c-2,1.4-2.4,3.7-1,5.7S32,148,34,146.6z"/>
	<path class="st1" d="M140.5,70.7l20-14.2c2-1.4,2.4-3.7,1-5.7c-1.4-2-3.7-2.4-5.7-1l-20,14.2c-2,1.4-2.4,3.7-1,5.7
		C136.2,71.7,138.5,72.1,140.5,70.7z"/>
</g>
<g class="st0">
	<path class="st1" d="M178.7-11.4l-29.2,34v31.6h-23.9V22.6l-29.2-34l-29.2,34v31.6H43.5V22.6l-29.2-34l-29.2,34v182.7h58.4v-37.1
		h23.9v37.1h58.4v-37.1h23.9v37.1h58.4V22.6L178.7-11.4z M35.5,200H-9.6v-31.8h45.1v31.7V200z M35.5,162.9H-9.6V62.1h45.1V162V162.9
		z M35.5,54.2H-9.6V24.7L12.9-2.3l22.5,27.1v29.9V54.2z M67.3,162.9H43.5V62.1h23.9V162.9z M120.1,200H72.6v-31.8h47.7V200H120.1z
		 M120.1,162.9H72.6V62.1h47.7v100.8H120.1z M120.1,54.2H72.6V24.7L96.5-2.3l23.9,27.1v29.4H120.1z M149.5,162.9h-23.9V62.1h23.9
		V162.9z M199.9,200h-45.1v-31.8h45.1v31.7V200z M199.9,162.9h-45.1V62.1h45.1V162V162.9z M202.3,54.2h-47.5V24.7l23.9-27.1
		l23.9,27.1v29.4H202.3z"/>
</g>
</svg>
