<?xml version="1.0" encoding="utf-8"?>
<!-- Generator: Adobe Illustrator 23.0.4, SVG Export Plug-In . SVG Version: 6.00 Build 0)  -->
<svg version="1.1" id="Layer_1" xmlns="http://www.w3.org/2000/svg" xmlns:xlink="http://www.w3.org/1999/xlink" x="0px" y="0px"
	 viewBox="0 0 218.9 199.4" style="enable-background:new 0 0 218.9 199.4;" xml:space="preserve">
<style type="text/css">
	.st0{display:none;}
	.st1{display:inline;}
</style>
<g class="st0">
	<g class="st1">
		<path d="M1.6,139.4l204.3,0c2.4,0,4.6-1.4,5.4-3.6c1.2-3.7-1.6-7.2-5.1-7.2h-11.9c3.5-12.1,8.6-26.4,16.2-37c0,0,0-0.3,0.3-0.3
			v-0.9c0,0-0.5-1.9-0.5-3c0-3-2.4-5.4-5.4-5.4c-0.8,0-1.6,0.3-2.2,0.5c-1.3,0.5-15.9,7-30,20c-2.2-7.8-4.3-18.1-5.4-30
			c-0.3-2.2-1.9-4.3-4-4.9c-2.2-0.5-4.6,0.3-5.9,2.2c-0.3,0.5-6.2,9.4-12.4,22.1c-5.1-22.4-1.9-48-1.6-48.3c0.3-2.7-1.1-5.1-3.5-5.9
			s-5.1,0.3-6.5,2.4l-40.5,71c-4.6-39.4,6.7-85.3,7-85.8c0.5-2.4-0.5-4.9-2.7-6.2c-2.2-1.1-4.9-0.5-6.5,1.3
			c-15.9,18.9-25.4,42.4-31,63.1c-5.7-15.1-10.3-24-10.5-24.6c-1.3-2.4-4-3.5-6.5-2.7s-4,3.5-3.5,6.2c1.1,5.4,1.3,20.5,1.1,42.4
			c-9.7-15.4-18.3-26.2-18.9-26.7c-1.6-2.2-4.6-2.7-7-1.3c-2.4,1.3-3.2,4.3-2.2,6.7c7.8,17.8,8.9,32.9,8.1,44.9H1.9
			c-3-1.5-5.4,1-5.4,3.9C-3.5,135.5,1.6,139.4,1.6,139.4z M190.8,102.7c-3.8,8.9-6.7,17.8-8.9,25.9h-16.7c2.4-4,5.4-7.8,8.9-11.3
			l0.3-0.3C179.7,111.1,185.6,106.5,190.8,102.7z M158.7,90c1.6,8.6,3.5,16.2,5.4,22.1c-4.6,5.1-8.4,10.5-11.3,16.5h-8.6
			c1.1-5.7,2.7-11.6,5.4-18.1C152.2,102.7,155.7,95.7,158.7,90z M138.4,108.7c-2.7,7-4.3,13.8-5.4,20h-37l35.1-61.8
			C131.4,79.5,133,95.4,138.4,108.7z M84.5,127.5l-0.5,1.1H72.3c-1.6-7.8-3.8-15.9-6.2-23.7c3-15.7,8.4-35.6,18.1-54.2
			C80.9,71.7,78.5,101.9,84.5,127.5z M55.3,106.5L55.3,106.5c2.2,7.6,4,14.8,5.7,22.1h-8.4c-0.8-1.6-1.6-3-2.4-4.3
			c0.3-10,0.5-20.8,0.5-31C52.3,97.3,53.7,101.6,55.3,106.5z M30.5,111.6c3.3,5.3,6.7,10.8,10,17c0,0,0,0,0,0l-9.4,0
			C31.3,123.8,31.3,118.1,30.5,111.6z"/>
	</g>
</g>
<g>
	<path d="M51.2,161.4c1,1,1.5,2.2,1.5,3.4c0,1.2-0.5,2.4-1.5,3.4s-2.2,1.5-3.4,1.5c-0.7,0-1.2-0.2-1.9-0.5c-0.5-0.2-1.2-0.5-1.5-1
		c-1-1-1.5-2.2-1.5-3.4c0-1.2,0.5-2.4,1.5-3.4c1.2-1.2,2.9-1.7,4.4-1.5c0.2,0,0.5,0.2,1,0.2c0.2,0.2,0.5,0.2,0.7,0.5
		S51,161.1,51.2,161.4z M198.9,172.5c-0.2-0.2-0.2-0.5-0.5-0.7c-0.2-0.2-0.5-0.5-0.5-0.7c-1.2-1.2-3-1.7-4.5-1.5
		c-0.2,0-0.7,0.2-1,0.2c-0.2,0.2-0.5,0.2-0.7,0.5s-0.5,0.5-0.7,0.5c-0.2,0.2-0.5,0.5-0.5,0.7c-0.2,0.2-0.2,0.5-0.5,0.7
		c-0.2,0.2-0.2,0.5-0.2,1c0,0.2,0,0.7,0,1c0,1.2,0.5,2.5,1.5,3.5c0.7,1.2,2,1.7,3.2,1.7c0.7,0,1.2-0.2,2-0.5c0.5-0.2,1.2-0.5,1.5-1
		c1-1,1.5-2.2,1.5-3.5c0-0.2,0-0.7,0-1C199.2,173.3,199.2,172.8,198.9,172.5z M218.2,180.7c-2.2,9.4-10,16.9-19.6,18.4
		c-9.7,1.6-18.4-2.6-23.5-9.4H72.5c-6.7,6.7-16.3,10.4-26.6,9.6c-16.4-1.3-29.7-14.5-31.2-30.9c-1.6-18.1,11-33.8,28.1-36.6
		L20.9,13.6c-0.5-2.2-2.4-3.9-4.9-3.9l-10.9,0C3,9.7,0.9,8.5,0.3,6.5C-0.8,3.1,1.7,0,4.9,0h11.4c7.1,0,12.9,4.9,14.3,11.7
		l22.1,119.9c1.5,0.2,2.7,0.5,4.1,0.7l50.1,6.8V124h-7.3c-2.7,0-4.9-2.2-4.9-4.9v-4.9c0-13.4,10.9-24.3,24.3-24.3h14.6
		c13.4,0,24.3,10.9,24.3,24.3v4.9c0,2.7-2.2,4.9-4.9,4.9h-7.3v20.2l49.1,6.6C210,151.1,221.8,165.2,218.2,180.7z M147.5,114.3
		c0-8-6.6-14.6-14.6-14.6h-14.6c-8,0-14.6,6.6-14.6,14.6H147.5z M116.7,124v16.3l19.5,2.7v-19H116.7z M72.1,164.8
		c0-11.2-7.5-20.4-17.8-23.3l-6.8-1c-13.4,0.2-24.1,10.9-24.1,24.3c0,13.4,10.9,24.3,24.3,24.3S72.1,178.2,72.1,164.8z M176.2,158.3
		L74.8,144.7c4.4,5.8,7.1,12.9,7.1,20.7c0,5.4-1.2,10.2-3.4,14.6h91.4c-0.2-1.7-0.5-3.2-0.5-4.9
		C169.4,168.5,172.1,162.7,176.2,158.3z M208.3,174.5c0-8-6.6-14.6-14.6-14.6c-8,0-14.6,6.6-14.6,14.6c0,8,6.6,14.6,14.6,14.6
		C201.7,189.1,208.3,182.5,208.3,174.5z"/>
</g>
<g class="st0">
	<path class="st1" d="M24.6,144.6c4.2,0.4,7.7-1.1,10.4-4.1c4.2,5.1,11.8,5.7,16.9,1.2c0.6-0.3,0.9-0.9,1.2-1.2
		c4.2,5.1,11.8,5.7,16.9,1.2c0.6-0.3,0.9-0.9,1.2-1.2c4.2,5.1,11.8,5.7,16.9,1.2c0.6-0.3,0.9-0.9,1.2-1.2c4.2,5.1,11.8,5.7,16.9,1.2
		c0.6-0.3,0.9-0.9,1.2-1.2c4.2,5.1,11.8,5.7,16.9,1.2c2.4-2.1,3.9-4.8,4.2-8.1l31,31c1.1,1.1,2.3,1.2,5.5,0.2
		c10.6-3.4,17.7-13.4,17.7-24.6l0-46.7h3c1.7,0,3-1.3,3-3V78.3V78v-0.3l-6-36.2c-0.3-1.5-1.5-2.4-3-2.4h-18.1c-1.5,0-2.7,1.2-3,2.4
		l-6,36.2V78v0.3v12.1c0,1.7,1.3,3,3,3h3v38l-30.1-30.1V41.9c0-6.3-5.1-12.2-11.3-12.6c-3.9-0.2-7.5,1.3-9.8,4.2
		c-4.2-5.1-11.8-5.7-16.9-1.2c-0.6,0.3-0.9,0.9-1.2,1.2c-4.2-5.1-11.8-5.7-16.9-1.2c-0.6,0.3-0.9,0.9-1.2,1.2
		c-4.2-5.1-11.8-5.7-16.9-1.2c-0.6,0.3-0.9,0.9-1.2,1.2c-4.2-5.1-11.8-5.7-16.9-1.2c-0.6,0.3-0.9,0.9-1.2,1.2
		c-4.2-5.1-12.1-5.7-16.9-1.2c-2.7,2.1-4.2,5.4-4.2,9l0,90.8C13.9,138.1,18.6,144,24.6,144.6z M182.7,87.4h-24.1v-6h24.1V87.4z
		 M163.7,45.2h13l5.1,30.1h-22.9L163.7,45.2z M176.6,93.4v51.2c0,7.2-5.1,13.3-12.1,14.8v-66H176.6z M158.6,139v15.7l-30.1-30.1
		v-15.7L158.6,139z M122.4,41.7c0,14.5,0,75.4,0,89.8c0,2.6-1.5,5.2-4,6c-4.2,1.4-8-1.7-8-5.7V41.4c0-4,3.9-7.1,8-5.7
		C120.9,36.5,122.4,39,122.4,41.7z M104.3,41.7c0,14.5,0,75.4,0,89.8c0,2.6-1.5,5.2-4,6c-4.2,1.4-8-1.7-8-5.7V41.4
		c0-4,3.9-7.1,8-5.7C102.8,36.5,104.3,39,104.3,41.7z M86.2,41.7c0,14.5,0,75.4,0,89.8c0,2.6-1.5,5.2-4,6c-4.2,1.4-8-1.7-8-5.7V41.4
		c0-4,3.9-7.1,8-5.7C84.7,36.5,86.2,39,86.2,41.7z M68.1,41.7c0,14.5,0,75.4,0,89.8c0,2.6-1.5,5.2-4,6c-4.2,1.4-8-1.7-8-5.7V41.4
		c0-4,3.9-7.1,8-5.7C66.6,36.5,68.1,39,68.1,41.7z M50,41.7c0,14.5,0,75.4,0,89.8c0,2.6-1.5,5.2-4,6c-4.2,1.4-8-1.7-8-5.7V41.4
		c0-4,3.9-7.1,8-5.7C48.5,36.5,50,39,50,41.7z M19.9,41.4c0-4,3.9-7.1,8-5.7c2.5,0.8,4,3.4,4,6c0,14.5,0,75.4,0,89.8
		c0,2.6-1.5,5.2-4,6c-4.2,1.4-8-1.7-8-5.7V41.4z"/>
	<path class="st1" d="M170.6,17.3c-1.8,0-3,1.2-3,3v9c0,1.8,1.2,3,3,3s3-1.2,3-3v-9C173.6,18.5,172.4,17.3,170.6,17.3z"/>
	<path class="st1" d="M173.6-0.8c0-1.8-1.2-3-3-3s-3,1.2-3,3v9c0,1.8,1.2,3,3,3s3-1.2,3-3V-0.8z"/>
	<path class="st1" d="M146.2,17.3c0,1.8,1.2,3,3,3c5.1,0,9,3.9,9,9c0,1.8,1.2,3,3,3c1.8,0,3-1.2,3-3c0-8.4-6.6-15.1-15.1-15.1
		C147.4,14.3,146.2,15.5,146.2,17.3z"/>
	<path class="st1" d="M191.4,14.3c-8.4,0-15.1,6.6-15.1,15.1c0,1.8,1.2,3,3,3s3-1.2,3-3c0-5.1,3.9-9,9-9c1.8,0,3-1.2,3-3
		C194.4,15.5,193.2,14.3,191.4,14.3z"/>
</g>
<g class="st0">
	<g class="st1">
		<path d="M91.8,74.7c-4.2,3.9-4.3,10.1-0.4,14.3c3.9,4.2,10.1,4.3,14.3,0.4c4.2-3.9,4.3-10.1,0.4-14.3C102.1,71,96,70.8,91.8,74.7z
			 M101,84.5c-1.5,1.4-3.4,1.3-4.8-0.1c-1.4-1.5-1.3-3.4,0.1-4.8c1.5-1.4,3.4-1.3,4.8,0.1C102.5,81.2,102.5,83.1,101,84.5z"/>
		<path d="M202.1,95.5l-43.2-22.1l0,0c-0.2-0.2-0.7-0.3-1.2-0.3l0,0l0,0l-31.1-2.6l-0.2-0.2l-31.2-62l0,0
			C89.4-2.8,78.5-10.8,66.2-12.8c-6.3-1.1-12.4-0.5-18.3,1.3c-1.2-0.3-1.5,0-2,0.4s-0.8,0.7-0.8,1.2c-0.5,1-0.3,2.2,0.4,2.9
			l42.1,64.4L87.1,58L76.5,68L14.9,21.9c-1-0.5-2.2-0.8-2.9-0.5c-0.7,0.2-1,0.5-1.5,0.9C10,22.8,9.8,23,9.7,23.5
			c-2.4,6-2.9,12.1-2.4,18.2l0,0l0,0l0,0c1.2,12.4,8.6,23.8,19.3,30.1l60,34.9l0.2,0.2l0.7,31.2l0,0l0,0c0,0.5,0.2,0.7,0.2,1.2l0,0
			l19.5,44.5c1.8,3.9,5.1,6.9,8.9,8.5c4.1,1.3,8.5,0.9,12.5-1c1.2-0.7,2.5-1.4,3.5-2.4c5.1-4.8,6.6-12.3,3.4-18.7l-21.5-43.1
			l-5.6-24.7l12.1-11.4l24.3,7.1l41.7,24c6.2,3.5,13.8,2.5,18.8-2.3c1-1,1.8-2.2,2.6-3.4c2.3-3.6,2.8-8.2,1.7-12.4
			C208.7,101,205.9,97.5,202.1,95.5z M89.3,13.8L89.3,13.8l25.2,48.8l-2.3-2.4c-0.7-0.7-1.4-1.5-2.3-2c-0.2-0.2-0.5-0.5-0.7-0.3
			c-0.7-0.3-1.2-0.7-1.9-1c-0.2-0.2-0.2-0.2-0.7-0.3c-0.9-0.5-1.9-0.5-2.8-1l-0.5,0l-0.5,0l0,0c1.2-1.2,1.5-2.8,0.6-4.3L73.5-1
			C80.1,1.6,86.1,7,89.3,13.8z M60.4-2.3c0.5,0,1,0,1.4,0c1,0,1.7,0.3,2.6,0.3L96.3,54l-2.4,2.3l-38.5-58C57-1.9,58.7-2.1,60.4-2.3z
			 M16.7,40.2c0-0.5,0-1,0-1.4c0-1.4,0.3-3.1,0.6-4.7l55.9,41.7L70.8,78L16.9,42.8C16.9,41.8,17,40.9,16.7,40.2z M130,174.1
			c2,4.1,0.4,9.3-3.7,11.3c-2.2,1.1-4.3,1.3-6.9,0.5c-2.1-0.8-4-2.3-4.9-4.7l-18.1-40.8l13.5-6.3L130,174.1z M107.6,128.2l-12.3,5.6
			l-1-23.1c0.7,0.3,1.4,0,2.4,0.1l0.5,0c0.5,0,1.2-0.2,1.7-0.2c0.2-0.2,0.5,0,0.7-0.2c0.5,0,0.7-0.2,1.4-0.4c0.2-0.2,0.7-0.2,1-0.4
			c0.2-0.2,0.7-0.2,1-0.4L107.6,128.2z M119.5,87.6l-14.7,13.8c-2.7,2.5-7,3.4-10.5,2.1c-0.5,0-0.9-0.5-1.6-0.8L33.7,68.1
			c-6.5-4-11.6-9.9-14-16.8l50.4,32.9c1.2,0.7,3.1,0.8,4.3-0.3l7.3-6.9L94,65.4c4.1-3.8,10.4-3.6,14.3,0.4l11.5,12.2
			c0.5,0.5,1.4,1,2.1,1.3l3.1,0.3l0,0l27.5,2.7l-6.3,11.9l-23.3-7.1C121.7,86.4,120.5,86.6,119.5,87.6z M201.4,109.2
			c0.6,2.2,0.3,4.8-0.9,6.9c-2.3,4-7.5,5.2-11.5,3l-38.4-22.6l7.1-13.1l39.6,20.5C199.2,105.3,200.8,107,201.4,109.2z"/>
	</g>
</g>
<g class="st0">
	<g class="st1">
		<g>
			<path d="M116,69.8c11.5-1.5,20.9-7.9,20.9-14.9c0-4.9-4.4-8.5-8.2-10.7c-5.5-3.2-11.9-4.5-18.1-4.5c4-4,7.4-9,9.2-14.4
				c1.5-4.7,2.3-11-1.3-14.9c-3.3-3.3-9-3-13.4-1.8c-6,1.7-11.7,5.2-16.1,9.7c0-8.2-2.3-17.9-8.9-23.6c-2.3-2.2-5.7-3.3-9-2.2
				c-4.2,1.5-7,5.5-8.9,9.4c-2.5,5-3.7,10.7-3.5,16.4c-4.4-4.4-9.9-7.9-15.9-9.5c-4.4-1.2-10-1.7-13.6,1.8c-3.8,3.8-3,10.2-1.3,14.9
				c1.8,5.5,5.2,10.4,9.2,14.4c-6.2,0-12.7,1.3-18.1,4.5c-3.8,2-8.2,5.7-8.2,10.5c0,4.9,4.4,8.5,8.2,10.7c5.5,3.2,11.9,4.5,18.1,4.5
				c-4,4-7.4,9-9.2,14.4c-1.5,4.7-2.3,11,1.3,14.9c3.8,3.8,10.2,2.8,14.7,1.3c5.5-1.8,10.5-5.2,14.6-9.2c0,6.2,1.3,12.7,4.5,18.1
				c2.2,3.8,5.9,8,10.7,8c4.9,0,8.5-4.2,10.7-8c3.2-5.5,4.5-11.9,4.5-18.1c4,4.2,9,7.4,14.6,9.2c4.5,1.5,10.9,2.3,14.7-1.3
				c4.9-4.9,2.3-13.4-0.2-18.6c2.3,2.3,4.5,4.9,6.7,7.7c14.2,18.9,24.4,52.5-6,105.9c-2.2,3.7,3.7,7,5.9,3.3
				c10.9-18.9,16.7-35.6,19.2-50.2c6.7,2.7,14.2,3.8,21.3,1.7c5.7-1.7,9-5,14.1-9.9c7.7-7.4,15.7-14.1,24.4-20.1
				c1.8-1.2,2-4,0.2-5.4c-13.2-10.5-31.8-12.2-46-4c-5.9,3.3-9.9,7.7-12.9,12C142.1,95.4,126.9,78.7,116,69.8z M111,46.4
				c11.9,0,19.4,6,19.4,8.5s-7.5,8.5-19.4,8.5c-5.2,0-9.4-1.2-12.6-2.5c1-3.8,1-7.9,0-11.9C101.6,47.5,105.8,46.4,111,46.4z
				 M94.1,22.8c8.7-9.5,19.1-8.2,19.6-7.5c0.5,0.7,1.8,9.4-7.5,19.6c-3.5,3.7-7.4,5.9-10.7,7c-2-3.3-5-6.4-8.4-8.4
				C88.2,30.1,90.5,26.3,94.1,22.8C100.2,16.6,90.7,26.5,94.1,22.8z M74-1.3c2.5,0,8.5,7.5,8.5,19.4c0,5-1.2,9.4-2.5,12.6
				c-3.8-1-8-1-11.9,0c-1.5-3.2-2.5-7.5-2.5-12.6C65.4,6.2,71.5-1.3,74-1.3z M34.1,15.2c0.5-0.7,10.7-1.5,19.6,7.5l0,0
				c3.5,3.5,5.9,7.4,7,10.7c-3.3,2.2-6.4,5-8.4,8.4c-3.3-1.2-7.4-3.3-10.7-7C31.6,23.9,33.6,15.9,34.1,15.2z M37,63.4
				c-11.9,0-19.4-6-19.4-8.5s7.5-8.5,19.4-8.5c5.2,0,9.4,1.2,12.6,2.5c-1,3.8-1,8,0,11.9C46.4,62.3,42,63.4,37,63.4z M53.9,87
				c-8.4,8.4-17.9,9.4-19.7,7.7c-0.3-0.3-2.8-9.5,7.7-19.7c3.7-3.5,7.4-5.9,10.7-7c2,3.3,5,6.4,8.4,8.4C59.6,79.8,57.2,83.7,53.9,87
				z M74,111.3c-2.5,0-8.5-7.5-8.5-19.4c0-5,1.2-9.4,2.5-12.6c3.8,1,8,1,11.9,0c1.5,3.2,2.5,7.5,2.5,12.6
				C82.5,103.8,76.5,111.3,74,111.3z M74,73.3c-10.2,0-18.4-8.2-18.4-18.4S63.8,36.5,74,36.5s18.4,8.2,18.4,18.4S84,73.3,74,73.3z
				 M113.8,94.7c-1.8,1.8-11.4,0.7-19.7-7.7c-3.5-3.5-5.9-7.4-7-10.7c3.3-2,6.4-5,8.4-8.4c3.3,1.2,7,3.5,10.7,7
				C116.6,84.7,114.1,94.4,113.8,94.7z M161,115.8c8.7-4.9,19.2-5.5,28.6-2.2c-9.9,1.7-19.4,6.4-27.1,10.5c-7,4-12.2,7.4-16.2,10.4
				C148.1,128.7,152.1,120.8,161,115.8z M185.9,124.4c-5,4.2-8.5,7.5-11.4,10.4c-4.7,4.5-7.2,7-11.4,8.2c-4.5,1.3-9.5,1-15.4-1
				c4.4-3.3,9.9-7.2,18.1-11.7c9.9-5.5,18.1-8.9,25.3-9.9C189.3,121.5,187.6,123,185.9,124.4z"/>
		</g>
	</g>
</g>
<g class="st0">
	<title>Artboard 10</title>
	<g class="st1">
		<path d="M53.2,135.9c-0.8-2.2-2.7-3.8-5.1-3.8H19.3l-9.5-28.7c-1.1-2.7-4.1-4.3-6.8-3.5c-2.7,1.1-4.3,4.1-3.5,6.8l10.3,30.9
			l-10.3,30.9c-0.8,2.7,0.5,6,3.5,6.8c2.7,0.8,6-0.5,6.8-3.5l9.5-28.7H44l9.5,28.7c1.1,2.7,4.1,4.3,6.8,3.5c2.7-1.1,4.3-4.1,3.5-6.8
			L53.2,135.9z"/>
		<path d="M144.3,99.6h-32.5V45.4h86.6c3,0,5.4-2.4,5.4-5.4l0,0V29.2c0-2.2-1.1-4.1-3-4.9L108.7-19c-1.4-0.8-3.3-0.8-4.6,0
			L11.9,24.3c-1.9,0.8-3,2.7-3,4.9V40c0,3,2.4,5.4,5.4,5.4l0,0H101v54.2H69.7c-3-0.6-5.4,1.9-5.4,4.8c0,3,2.4,5.4,5.4,6H101v54.2
			h-5.4c-1.9,0-3.8,1-4.7,2.7c-2.1,4.1,0.8,8.2,4.7,8.2l21.7,0c1.9,0,3.8-1,4.7-2.7c2.1-4.1-0.8-8.2-4.7-8.2h-5.4v-54.2l32.2,0
			c2.4,0,4.6-1.4,5.4-3.6C150.7,103.1,147.9,99.6,144.3,99.6z M19.8,32.7l86.7-40.9l86.7,40.9v1.9H19.8V32.7z"/>
		<path d="M205.4,137.5l10.3-30.9c0.8-2.7-0.5-6-3.5-6.8c-2.7-0.8-6,0.5-6.8,3.5l-9.5,28.7h-28.7c-2.4,0-4.3,1.6-5.1,3.8l-10.8,32.5
			c-0.8,2.7,0.5,6,3.5,6.8c2.7,0.8,6-0.5,6.8-3.5l9.5-28.7h24.6l9.5,28.7c1.1,2.7,4.1,4.3,6.8,3.5c2.7-1.1,4.3-4.1,3.5-6.8
			L205.4,137.5z"/>
	</g>
</g>
<g class="st0">
	<path class="st1" d="M215.8,75.8c-2.9-12.4-12.9-21.7-25.1-24.1c0-0.7-0.2-1.5-0.5-2.2c-1.9-8.3-6.8-15.3-14.1-19.7
		c-5.8-3.7-12.7-5.4-19.5-4.6C151,10.5,135.4,2,119.8,5.6c-4.6,1-9,3.2-12.7,6.1c-5.8-4.4-12.7-6.8-19.7-6.8
		c-12.7,0-24.1,7.8-29,19.2C41.4,22.9,27,35.3,24.8,51.4C9.2,53.4-2.7,66.8-2.7,82.8c0,13.4,8.5,25.6,20.9,30c0,0,0,0,0,0
		c-0.7,16.3,11.1,29.1,30.7,33.1c1.9,0.5,16.6,0.5,35.1,0.5c27.8,0,64.3-0.2,79.9-0.5l9.5-0.7h0.7c14.1-3.2,24.6-18.3,24.6-33.6
		C211.9,105.3,219.2,90.4,215.8,75.8z M192.2,104l-3.7,1.2l0.5,3.7c1.5,11.7-6.4,24.1-16.9,26.8l-8.6,0.7
		c-43.2,0.5-108.9,0.7-113.5,0c-5.4-1.2-23.3-6.1-23.3-22.4c0-1.5,0.2-2.9,0.5-4.1l1-4.6l-4.7-1C13.2,102.1,5.9,92.8,5.9,82.4
		c0-12.4,10.1-22.4,22.3-22.4h4.7v-4.6c0-12.4,10.1-22.4,22.3-22.4c1.5,0,2.9,0.2,4.7,0.5l4.4,0.7l1.2-4.1
		C68.2,20.5,77,13.9,87,13.9c6.1,0,12,2.4,16.2,6.8l3.4,3.7l3.4-3.7c2.9-3.2,6.9-5.6,11.3-6.6c12-2.7,24,4.6,27,16.8l1,4.6l4.7-1
		c5.9-1.5,11.8-0.2,16.9,2.7c5.1,3.2,8.6,8,10.1,13.9c0.2,1.5,0.5,2.9,0.5,4.4v4.4l4.4,0.2c9.8,0.5,18.4,7.6,20.6,17.3
		C209.2,88.9,203,100.4,192.2,104z"/>
	<path class="st1" d="M166.1,72.7c-7.1-3.7-15.3-2.7-21.2,2.4c-4.4-2.2-9.3-2.7-13.9-1.2c-4.9,1.5-8.8,4.6-11.2,9.3
		c-0.5,1-0.2,1.9,0.7,2.4s1.9,0.2,2.4-0.7c1.9-3.7,5.1-6.3,9-7.6s8-0.7,11.7,1.2c0.2,0,0.2,0.2,0.5,0.2l1.2,0.7l1-1
		c4.9-4.9,12.2-5.8,18-2.7c7.6,3.9,10.2,13.4,6.3,20.9c-0.5,1-0.2,1.9,0.7,2.4c0.2,0.2,0.5,0.2,0.7,0.2c0.7,0,1.2-0.2,1.5-1
		C178.8,89.3,175.4,77.6,166.1,72.7z"/>
	<path class="st1" d="M71.6,51.8c-4.9-1.5-10-0.7-14.4,1.7c-6.8,3.9-10.7,11.4-9.5,19.2c-8.8,5.1-11.9,16.6-6.8,25.6
		c0.2,0.5,1,1,1.5,1c0.2,0,0.5,0,1-0.2c1-0.5,1.2-1.5,0.7-2.4c-4.1-7.3-1.5-16.8,6.1-20.9c0.2,0,0.2-0.2,0.5-0.2l1.2-0.5l-0.2-1.5
		c-1.5-6.6,1.7-13.4,7.6-16.6c3.7-1.9,7.8-2.4,11.7-1.5c3.9,1.2,7.3,3.7,9.3,7.3c0.5,1,1.5,1.2,2.4,0.7c1-0.5,1.2-1.5,0.7-2.4
		C80.6,56.4,76.5,53.2,71.6,51.8z"/>
</g>
<g class="st0">
	<g class="st1">
		<g>
			<g>
				<rect x="6.8" y="146.9" width="31.1" height="9.6"/>
				<rect x="76.1" y="146.9" width="31.1" height="9.6"/>
				<rect x="109.6" y="146.9" width="31.1" height="9.6"/>
				<rect x="40.3" y="146.9" width="31.1" height="9.6"/>
				<rect x="143" y="146.9" width="31.1" height="9.6"/>
				<rect x="178.8" y="146.9" width="31.1" height="9.6"/>
				<rect x="23.6" y="161.2" width="31.1" height="9.6"/>
				<rect x="57" y="161.2" width="31.1" height="9.6"/>
				<rect x="92.8" y="161.2" width="31.1" height="9.6"/>
				<rect x="126.3" y="161.2" width="31.1" height="9.6"/>
				<rect x="159.7" y="161.2" width="31.1" height="9.6"/>
				<rect x="195.5" y="161.2" width="11.9" height="9.6"/>
				<rect x="6.8" y="175.5" width="31.1" height="9.6"/>
				<rect x="40.3" y="175.5" width="31.1" height="9.6"/>
				<rect x="76.1" y="175.5" width="31.1" height="9.6"/>
				<rect x="109.6" y="175.5" width="31.1" height="9.6"/>
				<rect x="143" y="175.5" width="31.1" height="9.6"/>
				<rect x="178.8" y="175.5" width="31.1" height="9.6"/>
				<rect x="23.6" y="189.9" width="31.1" height="9.6"/>
				<rect x="57" y="189.9" width="31.1" height="9.6"/>
				<rect x="6.8" y="161.2" width="11.9" height="9.6"/>
				<rect x="6.8" y="189.9" width="11.9" height="9.6"/>
				<rect x="92.8" y="189.9" width="31.1" height="9.6"/>
				<rect x="126.3" y="189.9" width="31.1" height="9.6"/>
				<rect x="159.7" y="189.9" width="31.1" height="9.6"/>
				<rect x="195.5" y="189.9" width="11.9" height="9.6"/>
			</g>
			<path d="M207.5,22.7v-2.4h-14.3V3.5l2.4-3.3l-5.7-15.8l-5.5,15.8l4.1,3.3v16.8h-23.9V3.5l3.6-3.3l-5.5-15.8l-5.5,15.8l2.6,3.3
				v16.8h-21.5V4.5l3.5-3.3l-6-15.8l-5.8,15.8l3.5,3.3v15.8h-23.9V3.5l3.8-3.3l-5.5-15.8l-5.5,15.8l2.4,3.3v16.8H83.3V3.5l2.9-3.3
				l-5.5-15.8L75.2,0.2l3.3,3.3v16.8H54.6V4.5l3.5-3.3l-6-15.8L46.3,1.2l3.5,3.3v15.8H28.3V3.5l3.1-3.3L26-15.6L20.5,0.2l3.1,3.3
				v16.8H6.8v4.8h16.7v93.2H6.8v4.8h16.7v19.1h4.8V123h21.5v19.1h4.8V123h23.9v19.1h4.8V123h21.5v19.1h4.8V123h23.9v19.1h4.8V123
				h21.5v19.1h4.8V123h23.9v19.1h4.8V123h14.3v-4.8h-16.7V22.7H207.5z M28.3,118.2V22.7h23.9v95.5H28.3z M54.6,118.2V22.7h23.9v95.5
				H54.6z M83.3,118.2V22.7h23.9v95.5H83.3z M109.6,118.2V22.7h23.9v95.5H109.6z M135.8,118.2V22.7h23.9v95.5H135.8z M188.4,118.2
				h-23.9V22.7h23.9V118.2z"/>
		</g>
	</g>
</g>
<g class="st0">
	<g class="st1">
		<g>
			<g>
				<g>
					<path d="M43,20.1c1.6,1.6,3.3,3.3,4.9,4.9c3.9,3.9,7.9,7.9,11.8,11.8c4.7,4.7,9.5,9.5,14.2,14.2c4.1,4.1,8.2,8.2,12.3,12.3
						c2,2,3.9,4.1,6,6c0,0,0.1,0.1,0.1,0.1c0-1.9,0-3.8,0-5.7l-8.5,8.5h5.7c-1.6-1.6-3.3-3.3-4.9-4.9c-3.9-3.9-7.9-7.9-11.8-11.8
						c-4.7-4.7-9.5-9.5-14.2-14.2c-4.1-4.1-8.2-8.2-12.3-12.3c-2-2-4-4.1-6-6c0,0-0.1-0.1-0.1-0.1c-1.5-1.5-4.2-1.6-5.7,0
						c-0.4,0.4-0.8,0.8-1.2,1.2c-0.2,0.2-0.4,0.4-0.7,0.7c0,0-0.1,0.1-0.1,0.1c-0.1,0.1-0.1,0.1-0.2,0.2c-0.4,0.4,0.1-0.2,0.2-0.2
						c0,0-0.6,0.3-0.6,0.4c0,0,0.8-0.3,0.4-0.2c-0.4,0.1,0.5-0.1,0.5-0.1c0.3,0,0.6,0.1,0.9,0.2c0.5,0.1,0.2,0.1,0,0
						c0,0,0.6,0.4,0.2,0.1c-0.4-0.4,0.3,0.4,0.3,0.4c-0.1-0.1-0.2-0.2-0.3-0.3c-1.4-1.9-2.8-3.8-4.2-5.6c-3-4-6.1-8-9-12
						c-0.1-0.1-0.1-0.2-0.2-0.3c-0.2-0.3-0.4-0.8-0.1-0.1c-0.1-0.2-0.3-0.5,0,0c0.2,0.3,0,0.3,0,0c0,0-0.2,0.8,0,0.4
						c0.2-0.5-0.3,0.7-0.1,0.2c0.2-0.4-0.4,0.3-0.1,0.2c0.1-0.1,0.2-0.2,0.3-0.3c0.9-0.9,1.8-1.8,2.7-2.7c1.2-1.2,2.3-2.3,3.4-3.4
						c0.4-0.4,0.8-0.8,1.1-1.1C27.8,0.2,28,0.2,28,0.1c0.2-0.3-0.5,0.3-0.2,0.1c0.4-0.2-0.3,0.1-0.3,0.1c0.1,0,0.6-0.1,0,0
						c-0.5,0.1-0.1,0,0,0c0,0-0.8-0.1-0.4,0c0.4,0.1-0.3-0.1-0.3-0.1s0.4,0.2,0.4,0.2c0.1,0.1,0.3,0.2,0.4,0.3
						c0.1,0.1,0.2,0.2,0.4,0.3c0.7,0.5,1.4,1.1,2.2,1.6c2.5,1.9,5,3.8,7.5,5.7c2.2,1.7,4.5,3.4,6.7,5c0.4,0.3,0.8,0.6,1.3,1
						c0,0-0.5-0.4-0.5-0.4c0.1,0.1,0.5,0.3,0.1,0c-0.3-0.2-0.1-0.2,0,0c-0.1-0.3-0.2-0.5-0.3-0.8c0-0.3,0-0.6,0.1-0.9
						c0,0.2-0.2,0.4,0.1,0c0.4-0.8-0.3,0.3-0.2,0.3c0-0.1,0.5-0.6,0.2-0.3c-0.1,0.1-0.2,0.2-0.3,0.3c0,0-0.1,0.1-0.1,0.1
						c-0.2,0.2-0.5,0.5-0.7,0.7c-0.4,0.4-0.8,0.8-1.2,1.2C41.5,15.9,41.4,18.6,43,20.1c1.6,1.5,4.1,1.6,5.7,0
						c1.2-1.2,2.5-2.3,3.4-3.7c1-1.6,1.4-3.6,0.8-5.4c-0.5-1.7-1.7-2.8-3.1-3.8c-1.7-1.3-3.5-2.6-5.3-4C41.7,1,38.8-1.1,36-3.2
						c-1.6-1.2-3.2-2.7-5-3.6c-3-1.6-6.4-1.1-8.8,1.3c-1,0.9-1.9,1.9-2.8,2.8c-1.2,1.2-2.5,2.5-3.7,3.7c-1.1,1.1-2.2,2.1-2.8,3.6
						c-1.1,2.5-0.5,5.3,1.1,7.4c0.5,0.7,1.1,1.5,1.7,2.2c2,2.7,4.1,5.5,6.1,8.2c1.7,2.3,3.4,4.5,5.1,6.8c1.2,1.5,2.3,3,4.3,3.6
						c3.1,1.1,5.7-0.8,7.8-2.9c0.5-0.5,0.9-0.9,1.4-1.4h-5.7c1.6,1.6,3.3,3.3,4.9,4.9c3.9,3.9,7.9,7.9,11.8,11.8
						c4.7,4.7,9.5,9.5,14.2,14.2c4.1,4.1,8.2,8.2,12.3,12.3c2,2,4,4.1,6,6c0,0,0.1,0.1,0.1,0.1c1.9,1.9,5.3,1.5,6.5-1.2
						c2.3-2.3,4.4-4.3,6.7-6.6c2.5-1.3,2.8-4.6,1-6.5c-1.6-1.6-3.3-3.3-4.9-4.9C89.2,54.9,85.3,51,81.3,47
						c-4.7-4.7-9.5-9.5-14.2-14.2c-4.1-4.1-8.2-8.2-12.3-12.3c-2-2-4-4.1-6-6c0,0-0.1-0.1-0.1-0.1c-1.5-1.5-4.3-1.6-5.7,0
						C41.5,16,41.4,18.5,43,20.1z"/>
				</g>
			</g>
			<g>
				<g>
					<path d="M190.2,161.7c-2.1,2.1-4.2,4.2-6.3,6.3c-0.7,0.7-1.4,1.5-2.2,2.2c-0.3,0.3-0.6,0.5-0.9,0.8c-0.5,0.5,0.6-0.4-0.2,0.2
						c-0.6,0.4-1.2,0.7-1.9,1.1c-0.6,0.3,0.7-0.2-0.2,0.1c-0.3,0.1-0.6,0.2-0.9,0.3c-0.4,0.1-0.7,0.2-1.1,0.3c-0.1,0-0.3,0-0.4,0.1
						c-0.5,0.1,0.9-0.1,0.1,0c-0.6,0-1.3,0.1-1.9,0.1c-0.3,0-0.6,0-1-0.1c-0.6,0,0.8,0.2,0.2,0c-0.2-0.1-0.5-0.1-0.7-0.1
						c-0.6-0.1-1.3-0.3-1.9-0.6c-0.7-0.2,0.7,0.3-0.2-0.1c-0.3-0.2-0.7-0.3-1-0.5c-0.3-0.2-0.6-0.4-0.9-0.5c-0.6-0.4,0,0.1,0.1,0.1
						c-0.1-0.1-0.4-0.3-0.4-0.4c-0.2-0.2-0.4-0.4-0.7-0.6c-0.1-0.1-0.2-0.2-0.3-0.3c-1.3-1.3-2.6-2.6-3.9-3.9
						c-5.1-5.1-10.2-10.3-15.4-15.4c-4.6-4.6-9.1-9.1-13.7-13.7c-0.5-0.5-1-1-1.4-1.4c-0.1-0.1-0.2-0.2-0.3-0.3
						c0-0.1-0.4-0.5-0.4-0.4c0.1,0,0.5,0.8,0.1,0.1c-0.1-0.1-0.1-0.2-0.2-0.4c-0.1-0.1-0.4-0.6-0.1-0.1c0.3,0.4,0-0.1-0.1-0.3
						c0-0.2-0.3-1.2-0.1-0.5c0.1,0.6,0-0.3,0-0.5c0-0.7-0.2,0.8,0-0.1c0-0.2,0.1-0.4,0.1-0.5c0.1-0.2,0.3-0.6,0-0.2
						c-0.3,0.5,0.2-0.4,0.3-0.5c0.4-0.7-0.1,0.1-0.1,0.1c0-0.1,0.4-0.4,0.4-0.4c0.1-0.1,0.2-0.2,0.3-0.3c1.2-1.2,2.5-2.5,3.7-3.7
						c0.3-0.3,0.7-0.7,1-1c1.5-1.5,1.6-4.2,0-5.8c-4.9-4.9-9.9-9.9-14.8-14.8c-0.7-0.7-1.4-1.4-2.1-2.1c0,1.9,0,3.8,0,5.8
						c2.8-2.8,5.6-5.6,8.5-8.5c-1.9,0-3.8,0-5.7,0c4.9,4.9,9.9,9.9,14.8,14.8c0.7,0.7,1.4,1.4,2.1,2.1c1.5,1.5,4.2,1.6,5.7,0
						c1.6-1.6,3.3-3.3,4.9-5c0,0,0.4-0.4,0.4-0.4c0,0-0.6,0.4-0.2,0.2c0.1-0.1,0.2-0.2,0.4-0.2c0.1-0.1,0.3-0.1,0.4-0.2
						c0.3-0.2-0.3,0.1-0.3,0.1c0.2,0,0.7-0.2,0.9-0.3c0.1,0,0.3,0,0.4-0.1c0,0-0.8,0-0.4,0.1c0.3,0,0.6,0,0.8,0c0.4,0-0.4,0-0.4-0.1
						c0.1,0.1,0.3,0.1,0.4,0.1c0.2,0.1,0.7,0.3,0.9,0.3c-0.1,0-0.7-0.4-0.3-0.1c0.1,0.1,0.2,0.1,0.4,0.2s0.2,0.2,0.4,0.2
						c0.4,0.2-0.3-0.2-0.2-0.2c0,0,0.4,0.4,0.4,0.4c0.1,0.1,0.1,0.1,0.2,0.2c2.8,2.8,5.6,5.6,8.5,8.5c4.7,4.7,9.4,9.4,14.1,14.1
						c3.6,3.6,7.2,7.2,10.8,10.8c0.4,0.4,0.8,0.8,1.1,1.1c0.1,0.1,0.2,0.2,0.2,0.2l0,0c0.2,0.2,0.4,0.4,0.6,0.7
						c0.1,0.1,0.2,0.2,0.3,0.3c0.4,0.4-0.4-0.6-0.1-0.1c0.3,0.5,0.6,1,0.9,1.5c0.1,0.2,0.2,0.5,0.4,0.8c0.2,0.4-0.1-0.3-0.1-0.3
						c0,0.2,0.2,0.5,0.2,0.7c0.2,0.5,0.3,1.1,0.4,1.6c0,0.1,0.1,0.3,0.1,0.4c0,0.2,0.2,0.4,0,0c-0.2-0.4,0-0.2,0,0
						c0,0.2,0,0.4,0,0.5c0,0.5,0,1.1,0,1.7c0,0.3-0.1,0.6-0.1,0.8c0,0,0.1-0.8,0-0.4c0,0.2-0.1,0.4-0.1,0.5
						c-0.1,0.5-0.3,1.1-0.4,1.6c0,0.1-0.1,0.3-0.1,0.4c-0.3,0.7,0-0.1,0.1-0.2c-0.2,0.1-0.3,0.7-0.4,0.9c-0.3,0.5-0.6,1-0.9,1.5
						c-0.2,0.4,0.2-0.2,0.2-0.2c0,0-0.3,0.3-0.3,0.3C190.7,161.2,190.5,161.4,190.2,161.7c-1.5,1.5-1.6,4.2,0,5.8
						c1.6,1.5,4.2,1.6,5.7,0c4.3-4.4,6.1-10.7,4.8-16.7c-0.8-3.5-2.7-6.5-5.2-8.9c-3.2-3.3-6.5-6.5-9.7-9.8
						c-4.9-4.9-9.8-9.9-14.8-14.8c-3.2-3.2-6.4-6.4-9.6-9.6c-2.9-2.9-6.9-4.3-10.9-3.2c-3.8,1-6.4,4.3-9,7c-0.3,0.3-0.5,0.5-0.8,0.8
						c1.9,0,3.8,0,5.7,0c-4.9-4.9-9.9-9.9-14.8-14.8c-0.7-0.7-1.4-1.4-2.1-2.1c-1.5-1.5-4.2-1.6-5.7,0c-2.8,2.8-5.6,5.6-8.5,8.5
						c-1.5,1.5-1.6,4.2,0,5.8c4.9,4.9,9.9,9.9,14.8,14.8c0.7,0.7,1.4,1.4,2.1,2.1c0-1.9,0-3.8,0-5.8c-1.1,1.1-2.1,2.1-3.2,3.2
						c-1.4,1.4-3,2.8-3.9,4.7c-1.8,4-1.3,8.3,1.5,11.7c0.4,0.4,0.8,0.8,1.1,1.2c4.1,4.1,8.3,8.3,12.4,12.4
						c5.5,5.5,11,11.1,16.6,16.6c4.3,4.3,8.4,9.3,14.8,10.4c6.1,1,11.9-1,16.3-5.3c2.5-2.5,4.9-4.9,7.4-7.4c0.2-0.2,0.4-0.4,0.7-0.7
						c1.5-1.5,1.6-4.3,0-5.8C194.3,160.2,191.8,160.1,190.2,161.7z"/>
				</g>
			</g>
			<g>
				<g>
					<path d="M150.2,127.3c3.2,3.2,6.5,6.5,9.7,9.7c5.2,5.2,10.3,10.3,15.4,15.4c1.2,1.2,2.4,2.4,3.5,3.5c1.5,1.5,4.3,1.6,5.7,0
						c1.5-1.6,1.6-4.1,0-5.7c-3.2-3.2-6.5-6.5-9.7-9.7c-5.2-5.2-10.3-10.3-15.4-15.4c-1.2-1.2-2.4-2.4-3.5-3.5
						c-1.5-1.5-4.3-1.6-5.7,0C148.7,123.2,148.6,125.7,150.2,127.3L150.2,127.3z"/>
				</g>
			</g>
			<g>
				<g>
					<path d="M176.1,158.8c-3.2-3.2-6.5-6.5-9.7-9.7c-5.2-5.2-10.3-10.3-15.4-15.4c-1.2-1.2-2.4-2.4-3.5-3.5c-1.5-1.5-4.3-1.6-5.7,0
						s-1.6,4.1,0,5.7c3.2,3.2,6.5,6.5,9.7,9.7c5.2,5.2,10.3,10.3,15.4,15.4c1.2,1.2,2.4,2.4,3.5,3.5c1.5,1.5,4.3,1.6,5.7,0
						C177.6,162.9,177.7,160.4,176.1,158.8L176.1,158.8z"/>
				</g>
			</g>
		</g>
		<g>
			<g>
				<g>
					<path d="M194.6,31.4c-4.8,4.8-9.7,9.7-14.6,14.6c-2.3,2.3-4.7,4.7-7,7c-0.2,0.2-0.3,0.3-0.5,0.5c-0.4,0.4-0.9,0.9-1.3,1.2
						c-0.4,0.3-0.8,0.6-1.1,0.9c0.1-0.1,0.6-0.5,0-0.1c-0.3,0.2-0.5,0.4-0.8,0.5c-0.7,0.5-1.4,0.9-2.2,1.3c-0.4,0.2-0.8,0.4-1.1,0.6
						c-0.2,0.1-0.5,0.2-0.7,0.3c-0.4,0.2-0.5,0.3,0,0c-0.8,0.4-1.8,0.7-2.6,0.9c-0.9,0.3-1.8,0.5-2.7,0.6c-0.2,0-0.4,0.1-0.6,0.1
						c-0.6,0.1,0.1-0.1,0.2,0c-0.1-0.1-1.1,0.1-1.2,0.1c-0.9,0.1-1.8,0.1-2.8,0.1c-0.9,0-1.9,0-2.8-0.2c0.1,0,0.9,0.1,0.2,0
						c-0.2,0-0.4-0.1-0.6-0.1c-0.5-0.1-1-0.2-1.5-0.3c-0.9-0.2-1.7-0.5-2.5-0.8c-0.3-0.1-0.5-0.2-0.8-0.3c-0.1,0-0.8-0.3-0.3-0.1
						c0.5,0.2-0.2-0.1-0.3-0.1c-0.3-0.1-0.6-0.3-0.9-0.4c-0.9-0.4-1.7-0.9-2.5-1.4c-0.4-0.2-0.8-0.5-1.1-0.8
						c-0.2-0.1-0.4-0.3-0.5-0.4c0.7,0.5-0.2-0.2-0.2-0.2c-0.3-0.3-0.7-0.6-1-0.9c0,0-0.5-0.5-0.5-0.5c-0.2,0.1,1.1,1.2-0.4-0.4
						c-0.3-0.3-0.6-0.7-1-1c-0.2-0.2-0.4-0.4-0.6-0.6c-0.1-0.1-0.6-0.8-0.3-0.4c0.3,0.4-0.1-0.2-0.2-0.3c-0.2-0.2-0.3-0.5-0.5-0.7
						c-0.2-0.4-0.5-0.8-0.7-1.1c-0.5-0.9-1-1.7-1.4-2.6c-0.1-0.2-0.2-0.4-0.3-0.6c0.3,0.8,0.1,0.2,0,0.1c-0.2-0.5-0.3-0.9-0.5-1.4
						c-0.3-0.9-0.6-1.9-0.8-2.8c-0.1-0.4-0.2-0.9-0.3-1.4c0-0.2-0.2-0.8,0,0.2c0-0.2,0-0.4-0.1-0.6c-0.1-0.9-0.1-1.8-0.1-2.8
						c0-0.9,0-1.7,0.1-2.6c0-0.2,0-0.4,0.1-0.6c0.1-0.6-0.2,1,0,0c0.1-0.4,0.2-0.9,0.2-1.4c0.2-0.9,0.4-1.7,0.7-2.5
						c0.1-0.4,0.3-0.8,0.4-1.2c0.1-0.2,0.1-0.4,0.2-0.6c0.3-0.9-0.3,0.6,0.1-0.2c0.8-1.7,1.8-3.3,2.8-4.9c0.1-0.1,0.5-0.6-0.1,0
						c0.1-0.2,0.3-0.3,0.4-0.5c0.3-0.3,0.6-0.7,0.9-1c0.3-0.3,0.6-0.7,0.9-1c1.8-1.8,3.7-3.7,5.5-5.5c5.5-5.5,11-11,16.4-16.4
						c0.1-0.1,0.2-0.2,0.3-0.3c2.1-2.1,1.2-6.1-1.8-6.8c-15.3-3.7-32-0.9-45,8.2c-6.7,4.7-12.4,10.7-16.6,17.7
						c-4,6.8-6.4,14.4-7.4,22.2c-1,8.3,0,17,2.9,24.8c0.3-1.3,0.7-2.6,1-4c-4.3,4.3-8.5,8.5-12.8,12.8c-5.6,5.6-11.3,11.3-16.9,16.9
						c-8.3,8.3-16.6,16.6-24.9,24.9c-6.1,6.1-12.3,12.3-18.4,18.4c-1.9,1.9-3.8,3.8-5.4,6c-6.2,8.6-6.2,21-0.2,29.7
						c5.8,8.4,15.7,12.7,25.8,11.3c5.9-0.8,11-3.8,15.2-7.9c5-5,9.9-9.9,14.9-14.9c8.2-8.2,16.5-16.5,24.7-24.7
						c6.7-6.7,13.3-13.3,20-20c4-4,8-8,11.9-11.9c1.1-1.1,2.3-2.3,3.4-3.4c-1.3,0.3-2.6,0.7-4,1c14.5,5,30.8,3.7,44.4-3.4
						c14-7.3,24.5-20.9,28.2-36.2c2-8.6,2.1-17.5,0.1-26.1c-0.5-2.1-3-3.5-5-2.8c-2.2,0.7-3.3,2.8-2.8,5c0.2,0.9,0.4,1.7,0.5,2.6
						c0.1,0.4,0.1,0.8,0.2,1.2c0,0.2,0.1,0.4,0.1,0.6c0.1,0.5-0.1-0.8,0,0c0.2,1.8,0.3,3.5,0.4,5.3c0,1.7,0,3.5-0.2,5.2
						c0,0.5-0.1,0.9-0.1,1.4c0,0.3-0.2,0.9-0.1,1.2c0-0.1,0.1-1,0-0.2c0,0.2-0.1,0.4-0.1,0.6c-0.1,0.5-0.2,1-0.3,1.5
						c-0.6,3.4-1.7,6.8-3,10.1c-0.3,0.7,0,0,0-0.1c0,0.2-0.2,0.4-0.2,0.6c-0.2,0.4-0.4,0.9-0.6,1.3c-0.4,0.8-0.8,1.6-1.2,2.4
						c-0.9,1.6-1.9,3.2-2.9,4.7c-0.2,0.3-0.5,0.7-0.8,1c-0.1,0.2-0.3,0.3-0.4,0.5c-0.1,0.1-0.5,0.6-0.2,0.2c0.4-0.5-0.3,0.3-0.3,0.3
						c-0.1,0.2-0.3,0.3-0.4,0.5c-0.3,0.4-0.6,0.8-1,1.1c-1.3,1.4-2.6,2.8-4,4.1c-0.6,0.6-1.3,1.1-1.9,1.7c-0.3,0.3-0.6,0.5-1,0.8
						c-0.6,0.5,0,0,0.1-0.1c-0.2,0.2-0.5,0.4-0.8,0.6c-1.4,1-2.9,2-4.4,2.9c-1.5,0.9-3.1,1.7-4.6,2.4c-0.4,0.2-0.8,0.3-1.1,0.5
						c1-0.4-0.4,0.1-0.6,0.2c-0.8,0.3-1.6,0.6-2.4,0.9c-1.7,0.5-3.4,1-5.1,1.4c-0.8,0.2-1.7,0.3-2.5,0.5c-0.4,0.1-0.8,0.1-1.2,0.2
						c-0.2,0-0.8,0.1,0.2,0c-0.2,0-0.5,0.1-0.8,0.1c-3.8,0.4-7.7,0.5-11.5,0.1c-0.3,0-1.9-0.2-0.7-0.1c-0.5,0-1-0.1-1.5-0.2
						c-0.9-0.1-1.8-0.3-2.7-0.5c-1.9-0.4-3.9-1-5.8-1.6c-1.3-0.5-3,0.1-4,1c-4.2,4.2-8.5,8.5-12.7,12.7
						c-5.4,5.4-10.9,10.9-16.3,16.3c-8.2,8.2-16.3,16.3-24.4,24.4c-6.3,6.3-12.7,12.7-19,19c-1,1-2,2-3,3c-0.3,0.3-0.7,0.7-1.1,1
						c-0.2,0.2-0.4,0.3-0.6,0.5c-0.2,0.2-0.6,0.6,0,0c-0.6,0.8-1.9,1.3-2.8,1.8c-0.5,0.2-0.9,0.5-1.4,0.7c-0.7,0.3,0.1,0,0.2-0.1
						c-0.1,0.1-0.6,0.2-0.8,0.3c-1,0.4-2,0.6-3.1,0.9c-0.2,0-0.5,0.1-0.7,0.1c-0.3,0.1-1.1,0,0,0c-0.4,0-0.9,0.1-1.4,0.1
						c-1,0.1-2,0-3.1,0c-0.1,0-0.7,0-0.8-0.1c0.2,0,0.3,0,0.5,0.1c-0.2,0-0.4-0.1-0.5-0.1c-0.5-0.1-0.9-0.2-1.4-0.3
						c-1-0.2-2-0.6-2.9-0.9c-0.9-0.3,0.8,0.4-0.1,0c-0.3-0.1-0.5-0.2-0.8-0.4c-0.4-0.2-0.9-0.4-1.3-0.7c-0.4-0.2-0.8-0.5-1.2-0.8
						c-0.2-0.2-0.5-0.3-0.7-0.5c-0.7-0.5,0.5,0.5-0.1-0.1c-0.9-0.7-1.7-1.5-2.5-2.3c-0.4-0.4-0.8-0.8-1.1-1.3
						c0.6,0.8-0.1-0.1-0.2-0.2c-0.2-0.3-0.4-0.5-0.5-0.8c-0.3-0.5-0.6-1-0.9-1.6c-0.1-0.2-0.2-0.5-0.4-0.7c-0.1-0.2-0.6-1.1-0.1-0.2
						c-0.6-1-0.8-2.3-1.1-3.4c-0.1-0.6-0.2-1.1-0.3-1.7c-0.1-0.6,0.1,1,0,0c0-0.3-0.1-0.6-0.1-1c-0.1-1.2,0-2.3,0.1-3.5
						c0.1-1.1-0.2,0.9,0-0.2c0-0.2,0.1-0.4,0.1-0.6c0.1-0.6,0.3-1.2,0.4-1.9c0.1-0.5,0.3-1,0.5-1.5c0.1-0.3,0.2-0.6,0.3-0.9
						c-0.3,0.6-0.1,0.1,0.1-0.2c0.5-1.1,1.1-2.1,1.8-3.1c0.1-0.2,0.3-0.4,0.4-0.5c0.6-0.9-0.5,0.6,0.2-0.2c0.4-0.5,0.9-1,1.4-1.5
						c0.3-0.3,0.5-0.5,0.8-0.8c5.1-5.1,10.3-10.3,15.4-15.4c8.1-8.1,16.2-16.2,24.3-24.3c6.6-6.6,13.1-13.1,19.7-19.7
						c3.9-3.9,7.8-7.8,11.8-11.8c1.1-1.1,2.2-2.2,3.4-3.4c1-1,1.5-2.6,1-4c-0.6-1.7-1.1-3.4-1.5-5.1c-0.4-1.6-1-3.5-1-5.2
						c0,0.1,0.1,0.9,0,0.2c0-0.2,0-0.4-0.1-0.6c0-0.4-0.1-0.8-0.1-1.2c-0.1-0.9-0.1-1.8-0.2-2.7c-0.1-1.7,0-3.4,0.1-5.1
						c0.1-0.9,0.1-1.7,0.2-2.6c0-0.1,0.2-1.4,0.1-0.8c-0.1,0.7,0-0.3,0.1-0.3c0-0.2,0.1-0.5,0.1-0.8c0.3-1.7,0.7-3.4,1.1-5.2
						c0.5-1.7,1-3.3,1.6-4.9c0.1-0.4,0.3-0.8,0.4-1.1c-0.4,0.9,0.1-0.2,0.2-0.4c0.4-0.8,0.8-1.7,1.2-2.5c0.8-1.6,1.7-3.2,2.7-4.7
						c0.5-0.8,1-1.5,1.5-2.2c0.1-0.2,0.9-1.2,0.3-0.4c0.3-0.4,0.7-0.8,1-1.2c2.4-2.8,5-5.4,7.9-7.7c0.6-0.5,0.1,0-0.1,0
						c0.2-0.2,0.4-0.3,0.6-0.5c0.3-0.2,0.7-0.5,1-0.8c0.8-0.5,1.6-1.1,2.4-1.6c1.6-1,3.2-1.8,4.8-2.6c0.4-0.2,0.8-0.4,1.1-0.5
						c0.2-0.1,0.4-0.2,0.6-0.2c0.3-0.1,0.5-0.4-0.1,0c0.7-0.5,1.8-0.7,2.6-1c1.7-0.6,3.3-1.1,5.1-1.5c1-0.2,2-0.4,3-0.6
						c0.5-0.1,1-0.2,1.5-0.2c0.2,0,0.8-0.2-0.2,0c0.2,0,0.5-0.1,0.8-0.1c2-0.2,4-0.3,6-0.3c1.9,0,3.9,0.1,5.8,0.3
						c0.2,0,0.4,0,0.6,0.1c-1.1-0.2,0,0,0.1,0c0.5,0.1,1,0.2,1.5,0.3c1,0.2,2,0.4,3,0.6c-0.6-2.3-1.2-4.5-1.8-6.8
						c-5.1,5.1-10.1,10.1-15.1,15.1c-2.3,2.3-4.6,4.6-6.9,6.9c-4.7,4.7-8,10.7-9,17.3c-1.3,8.9,1,17.7,6.6,24.7
						c0.3,0.4,0.6,0.7,0.9,1.1c0.2,0.2,0.3,0.3,0.5,0.5c0.1,0.1,0.2,0.2,0.2,0.3c0.3,0.3,0.3,0.3,0,0c-0.1-0.1-0.1-0.2-0.2-0.3
						c0.2,0.3,0.5,0.7,0.8,1c0.2,0.2,0.4,0.4,0.6,0.6c0.4,0.4,0.9,0.8,1.3,1.1c1.8,1.4,3.6,2.7,5.6,3.8c3.9,2,8.1,3.1,12.5,3.5
						c8.4,0.6,16.8-2.5,23-8.1c1.9-1.7,3.7-3.7,5.6-5.5c5.7-5.7,11.4-11.4,17.1-17.1c0.1-0.1,0.3-0.3,0.4-0.4c1.5-1.5,1.6-4.3,0-5.7
						C198.8,29.9,196.2,29.8,194.6,31.4z"/>
					<path d="M38.7,156.4C38,157,39.3,156.1,38.7,156.4c-0.2,0.2-0.4,0.3-0.5,0.4c0.5-0.2,0.6-0.2,0.3-0.1c-0.3,0.1-0.5,0.1-0.8,0.2
						c-0.3,0.1-0.2,0,0.4-0.1c-0.2,0-0.4,0-0.5,0c-0.8,0.1,0.8,0.3,0,0c-0.2-0.1-0.7-0.1-0.8-0.2c0.5,0.2,0.6,0.3,0.3,0.1
						c-0.1-0.1-0.2-0.1-0.4-0.2c-0.3-0.2-0.3-0.2,0,0c0.3,0.2,0.3,0.2,0-0.1c-0.3-0.3-0.3-0.3,0.1,0.2c-0.1-0.1-0.1-0.2-0.2-0.2
						c-0.1-0.2-0.2-0.3-0.3-0.5c0.1,0.2,0.1,0.3,0.2,0.5c-0.1-0.1-0.2-0.6-0.2-0.8c-0.2-0.8,0,0.9,0-0.1c0-0.9-0.1,0.3,0,0
						c0-0.2,0.1-0.8,0.3-0.9c-0.1,0.2-0.1,0.3-0.2,0.5c0.1-0.2,0.2-0.3,0.3-0.5c0.1-0.1,0.1-0.2,0.2-0.2c-0.3,0.4-0.4,0.5-0.1,0.2
						c0.3-0.2,0.3-0.3,0-0.1c-0.3,0.2-0.2,0.2,0,0c0.1-0.1,0.2-0.1,0.4-0.2c0.3-0.1,0.2-0.1-0.3,0.1c0.1-0.1,0.6-0.2,0.8-0.2
						c0.8-0.3-0.8,0,0,0c0.2,0,0.4,0,0.5,0c-0.6-0.1-0.7-0.1-0.4-0.1c0.3,0.1,0.5,0.1,0.8,0.2c0.3,0.1,0.2,0.1-0.3-0.1
						c0.1,0.1,0.2,0.1,0.4,0.2c0.9,0.5-0.4-0.4,0.2,0.2c0.6,0.6-0.3-0.7,0.1,0.1c0,0.1,0.1,0.2,0.1,0.2c0.2,0.4,0.2,0.3,0-0.2
						c0,0.2,0.2,0.6,0.2,0.8c0.2,0.8,0-0.8,0,0c-0.1,1.1,0.1,0,0.1,0c0,0-0.2,0.7-0.2,0.8c-0.2,0.7,0.4-0.7-0.1,0.2
						C38.3,157.1,39.2,155.8,38.7,156.4c-1.5,1.5-1.6,4.2,0,5.7c1.6,1.5,4.2,1.6,5.7,0c2.9-3,3.5-7.3,1.7-11c-1.6-3.3-5.4-5.5-9-5.2
						c-4,0.3-7.6,3.1-8.7,7.1c-1,4,0.6,8,4,10.3c3.7,2.6,8.8,1.8,12-1.2c1.5-1.5,1.6-4.3,0-5.7C42.7,154.9,40.3,154.8,38.7,156.4z"
						/>
				</g>
			</g>
			<g>
				<g>
					<path d="M60.6,138.2c1.7-1.7,3.5-3.5,5.2-5.2c4.2-4.2,8.4-8.4,12.6-12.6c5.1-5.1,10.1-10.1,15.2-15.2
						c4.4-4.4,8.7-8.7,13.1-13.1c2.1-2.1,4.3-4.2,6.4-6.4c0,0,0.1-0.1,0.1-0.1c1.5-1.5,1.6-4.3,0-5.7c-1.6-1.5-4.1-1.6-5.7,0
						c-1.7,1.7-3.5,3.5-5.2,5.2c-4.2,4.2-8.4,8.4-12.6,12.6c-5.1,5.1-10.1,10.1-15.2,15.2c-4.4,4.4-8.7,8.7-13.1,13.1
						c-2.1,2.1-4.3,4.2-6.4,6.4c0,0-0.1,0.1-0.1,0.1c-1.5,1.5-1.6,4.3,0,5.7C56.5,139.7,59,139.8,60.6,138.2L60.6,138.2z"/>
				</g>
			</g>
		</g>
	</g>
</g>
<g class="st0">
	<title>Artboard 11</title>
	<g class="st1">
		<path d="M200,71.4h-10.8c-2.2-9.9-5.9-19.1-11.4-27.6l7.5-7.5c1.8-1.8,1.8-4.4,0-6.1l0,0l-18.6-18.6c-1.8-1.8-4.4-1.8-6.1,0l0,0
			l-7.5,7.5c-8.3-5.5-17.8-9.4-27.6-11.4V-3.2c0-2.4-2-4.4-4.4-4.4l0,0H94.7c-2.4,0-4.4,2-4.4,4.4V-3V7.8
			c-9.9,2.2-19.1,5.9-27.6,11.4l-7.5-7.7c-1.8-1.8-4.4-1.8-6.1,0l0,0L30.5,30.1c-1.8,1.8-1.8,4.4,0,6.1l0,0l7.5,7.5
			c-5.5,8.3-9.4,17.8-11.4,27.6H15.8c-2.4,0-4.4,2-4.4,4.4l0,0v26.3c0,2.4,2,4.4,4.4,4.4H16h10.7c2.2,9.8,5.9,19,11.4,27.6l-7.7,7.7
			c-1.8,1.7-1.8,4.4,0,6.1l0,0l18.6,18.6c1.8,1.7,4.4,1.7,6.1,0l0,0l7.5-7.4c8.3,5.5,17.8,9.4,27.6,11.4V181c0,2.4,2,4.4,4.4,4.4
			l0,0H121c2.4,0,4.4-2,4.4-4.4v0v-10.7c9.8-2.2,19-5.9,27.6-11.4l7.4,7.5c1.7,1.8,4.4,1.8,6.1,0l0,0l18.6-18.6
			c1.7-1.8,1.7-4.4,0-6.1l0,0l-7.4-7.5c5.5-8.3,9.4-17.8,11.4-27.6H200c2.4,0,4.4-2,4.4-4.4l0,0V75.8
			C204.4,73.4,202.4,71.4,200,71.4L200,71.4z M195.6,97.7H186c-2.2,0-3.9,1.5-4.4,3.7c-1.8,11.2-6.1,21.5-12.7,30.7
			c-1.3,1.8-1.1,4.2,0.4,5.7l7,7l-12.5,12.5l-7-7c-1.5-1.5-3.9-1.8-5.7-0.4c-9.2,6.6-19.7,11-30.7,12.7c-2.2,0.4-3.7,2.2-3.7,4.4
			v9.7H99.1V167c0-2.2-1.5-3.9-3.7-4.4c-11.2-1.8-21.6-6.1-30.8-12.7c-1.8-1.3-4.2-1.1-5.7,0.4l-7,7l-12.5-12.5l7-7
			c1.5-1.5,1.8-3.9,0.4-5.7c-6.6-9.2-11-19.7-12.8-30.7c-0.4-2.2-2.2-3.7-4.4-3.7h-9.5V80.1h9.6c2.2,0,3.9-1.5,4.4-3.7
			c1.8-11.2,6.1-21.6,12.7-30.8c1.3-1.8,1.1-4.2-0.4-5.7l-7-7L52,20.3l7,7c1.5,1.5,3.9,1.8,5.7,0.4c9.2-6.6,19.7-11,30.7-12.8
			c2.2-0.4,3.7-2.2,3.7-4.4V1.2h17.5V10c0,2.2,1.5,4,3.7,4.4c11.2,1.8,21.6,6.2,30.8,12.9c1.8,1.3,4.2,1.1,5.7-0.4l7-7.1l12.5,12.7
			l-7,7.1c-1.5,1.6-1.8,4-0.4,5.8c6.6,9.3,11,20,12.8,31.1c0.4,2.2,2.2,3.8,4.4,3.8h9.5V97.7z"/>
		<path d="M107.2,27.5c-34,0-61.4,27.4-61.4,61.4s27.4,61.4,61.4,61.4s61.4-27.4,61.4-61.4S141.2,27.5,107.2,27.5z M99.1,140.7
			v-24.1c0-1.8-0.9-3.3-2.5-3.9c-13.5-6.1-19.1-21.7-12.8-34.9c1.6-3.3,3.8-6.1,6.5-8.3v17.3c0,4.8,3.9,8.8,8.8,8.8h17.5
			c4.8,0,8.8-3.9,8.8-8.8V69.4c11,9.7,12.1,26.1,2.2,36.8c-2.5,2.6-5.4,4.8-8.5,6.4c-1.6,0.7-2.5,2.2-2.5,3.9v24.1
			C110.7,141.8,104.7,141.8,99.1,140.7z M125.4,138.5v-19.3c16.7-9.7,22.6-30.9,12.9-47.6c-3.5-6.1-9-11.2-15.4-14.3
			c-2.2-1.1-4.8-0.2-5.9,2c-0.2,0.7-0.4,1.3-0.4,2v25.4H99.1V61.3c0-2.4-2-4.4-4.4-4.4c-0.7,0-1.3,0.2-2,0.4
			c-17.5,8.1-25,29-16.7,46.5c3.1,6.6,8.1,11.8,14.3,15.4v19.3c-28.4-10-42.7-41.8-30.9-70c10.1-24.2,37.1-37.2,62.4-30.3
			c29.8,8.2,45.7,39.6,35.7,68.3C152.2,121.4,140.3,133.2,125.4,138.5z"/>
	</g>
</g>
<g class="st0">
	<g class="st1">
		<path d="M216.3,130.8c-0.5-12-10.1-21.6-22.1-21.6c-11.2,0-20.5,8.7-21.8,20.7h-51.6V78.1h8.7c1.6-1.3,2.7-2.4,2.2-4V57.7
			c0.5-1.6-2.2-4.2-2.2-4.2h-6v-8.3c0-4.3-3.4-8.1-7.9-8.1H98.6c-4.2,0-7.9,3.5-7.9,8.1v8.3h-6c0,0-2.7,2.5-2.2,4.2v16.4
			c-0.5,1.6,0.5,2.7,2.2,4h8.7V130H42.1c-1.4-12.2-10.6-20.7-21.8-20.7c-12,0-21.6,9.6-22.1,21.6c0,0.3-0.3,0.5-0.3,0.8
			c0,1.6,1.1,2.7,2.7,3.8H97h20.2h96.6c1.6-1,2.7-2.1,2.7-3.8C216.5,131.4,216.5,131.1,216.3,130.8z M194.4,115.8
			c8.2,0,15,6.3,16.4,14.2H178C179.1,122,186,115.8,194.4,115.8z M95.9,45.3c0-1.4,1.1-2.7,2.7-2.7h16.8c1.3,0,2.6,1.1,2.6,2.7v8.3
			H96.2v-8.2H95.9z M87.7,61.7h5.4h27.7h5.4v10.9H117H97.1H88V61.7H87.7z M20.3,115.8c8.2,0,15,6.3,16.4,14.2H3.9
			C5.2,122,12.1,115.8,20.3,115.8z M101.6,130V78.1h13.6V130H101.6z"/>
		<path d="M65.9,31.2c0.5,0.5,1.4,0.8,1.9,0.8c0.8,0,1.4-0.3,1.9-0.8c1.1-1.1,1.1-2.7,0-3.8L62,19.5c-1.1-1.1-2.7-1.1-3.8,0
			c-1.1,1.1-1.1,2.7,0,3.8L65.9,31.2z"/>
		<path d="M44.3,45.9l10.1,2.2c0.3,0,0.3,0,0.5,0c1.4,0,2.5-0.8,2.7-2.2c0.3-1.4-0.5-3-2.2-3.3l-10.1-2.2c-1.4-0.3-3,0.5-3.3,2.2
			C41.8,44.2,42.9,45.6,44.3,45.9z"/>
		<path d="M44.8,75.4c0.3,0,0.3,0,0.5,0l10.1-2.2c1.4-0.3,2.5-1.6,2.2-3.3c-0.3-1.4-1.6-2.5-3.3-2.2l-10.1,2.2
			c-1.4,0.3-2.5,1.6-2.2,3.3C42.6,74.5,43.7,75.4,44.8,75.4z"/>
		<path d="M64.5,85.5l-6.3,6.6c-1.1,1.1-1.1,2.7,0,3.8c0.5,0.5,1.1,0.8,1.9,0.8c0.8,0,1.4-0.3,1.9-0.8l6.3-6.6
			c1.1-1.1,1.1-2.7,0-3.8C67.2,84.4,65.6,84.4,64.5,85.5z"/>
		<path d="M149.7,32c0.8,0,1.4-0.3,1.9-0.8l7.6-7.9c1.1-1.1,1.1-2.7,0-3.8c-1.1-1.1-2.7-1.1-3.8,0l-7.6,7.9c-1.1,1.1-1.1,2.7,0,3.8
			C148.3,31.7,148.8,32,149.7,32z"/>
		<path d="M160,45.9c0.3,1.4,1.4,2.2,2.7,2.2c0.3,0,0.3,0,0.5,0l10.1-2.2c1.4-0.3,2.5-1.6,2.2-3.3c-0.3-1.4-1.6-2.5-3.3-2.2
			l-10.4,2.2C160.6,42.9,159.5,44.2,160,45.9z"/>
		<path d="M161.9,73.2l10.1,2.2c0.3,0,0.3,0,0.5,0c1.4,0,2.5-0.8,2.7-2.2c0.3-1.4-0.5-3-2.2-3.3L163,67.7c-1.4-0.3-3,0.5-3.3,2.2
			C159.5,71.3,160.6,72.6,161.9,73.2z"/>
		<path d="M152.9,85.5c-1.1-1.1-2.7-1.1-3.8,0c-1.1,1.1-1.1,2.7,0,3.8l6.3,6.6c0.5,0.5,1.4,0.8,1.9,0.8c0.8,0,1.4-0.3,1.9-0.8
			c1.1-1.1,1.1-2.7,0-3.8L152.9,85.5z"/>
	</g>
</g>
<g class="st0">
	<title>a</title>
	<g class="st1">
		<circle cx="77.3" cy="120" r="7.7"/>
		<path d="M207.3,100.1V89.4c0-1.1-0.4-1.9-1.1-2.7L187,67.6c-0.8-0.8-1.5-1.1-2.7-1.1H127V28.2c0-4.2-3.4-7.7-7.7-7.7H81.1
			c-4.2,0-7.7,3.4-7.7,7.7V55H9.9c-2.3,0-4.2,0.8-5.7,2.7c-3.4,3.4-7.3,12.2-7.3,31.8v26.8c0,4.2,3.4,7.7,7.7,7.7h4.2
			c1.9,12.6,13.8,21,26.4,18.7c9.6-1.5,17.2-9.2,18.7-18.7h0.8c1.9,12.6,13.8,21,26.4,18.7c9.6-1.5,17.2-9.2,18.7-18.7h2.7
			c1.9,0,3.8-0.8,5.4-2.3l16.8-16.8c1.5-1.5,2.3-3.4,2.3-5.4v-9.9h48.2l7.7,7.7h-40.6c-4.2,0-7.7,3.4-7.7,7.7v24.5
			c0,3.1,1.5,5.7,4.2,6.9l13.4,6.5l0,0c0.4,0.4,1.1,0.4,1.5,0.4h11.5c2.3,0,3.8-1.5,3.8-3.8c0-2.3-1.5-3.8-3.8-3.8h-7.7v-30.6h21
			c-9.1,10.4-7.5,26.6,4.5,34.5c8.7,5.8,20.7,4.9,28.3-2.3c10.1-9.5,9.8-25.2-0.3-34.2C210,102.1,208.8,100.9,207.3,100.1z
			 M96.4,81.8V43.5h23v38.3H96.4z M4.5,89.4c0-19.1,4.2-25.3,5.4-26.8h63.5v34.8c-9.6,1.5-17.2,9.2-18.7,18.7h-0.4c0,0,0,0,0-0.4
			C51.9,103.2,39.9,95.2,27,97.5c-9.7,1.5-17.1,9.2-18.7,18.4c0,0,0,0,0,0.4H4.5V89.4z M31.4,135.3c-8.4,0-15.3-6.9-15.3-15.3
			s6.9-15.3,15.3-15.3s15.3,6.9,15.3,15.3S39.8,135.3,31.4,135.3z M77.3,135.3c-8.4,0-15.3-6.9-15.3-15.3s6.9-15.3,15.3-15.3
			s15.3,6.9,15.3,15.3S85.7,135.3,77.3,135.3z M119.3,99l-17.2,17.2h-2.7c-1.6-9.4-9-16.8-18.3-19.1c-0.4,0,0.4,0,0,0V28.2h38.3v7.7
			h-23c-4.2,0-7.7,3.4-7.7,7.7v38.3c0,4.2,3.4,7.7,7.7,7.7h23V99z M176.7,81.8H127v-7.7h55.9L199.7,91v6.1h-0.4
			c-1.1-0.4-2.3-0.4-3.4-0.4s-2.3,0-3.4,0.4H192v-0.4c0-1.1-0.4-1.9-1.1-2.6l-11.5-11.2C178.6,82.2,177.9,81.8,176.7,81.8z
			 M142.3,104.7h7.7V133l-7.7-3.8V104.7z M195.9,135.3c-8.4,0-15.3-6.9-15.3-15.3c0-6.1,3.4-11.5,9.2-13.8l0,0
			c3.1-1.1,6.1-1.5,9.2-0.8c8.4,1.9,13.4,9.9,11.9,18.4C209.3,130.4,203.2,135.3,195.9,135.3z"/>
		<circle cx="195.9" cy="120" r="7.7"/>
		<circle cx="31.4" cy="120" r="7.7"/>
		<path d="M16.1,89.4h30.6c2.3,0,3.8-1.5,3.8-3.8s-1.5-3.8-3.8-3.8H16.1c-2.3,0-3.8,1.5-3.8,3.8S13.8,89.4,16.1,89.4z"/>
		<path d="M16.1,78h30.6c2.3,0,3.8-1.5,3.8-3.8c0-2.3-1.5-3.8-3.8-3.8H16.1c-2.3,0-3.8,1.5-3.8,3.8C12.3,76.4,13.8,78,16.1,78z"/>
	</g>
</g>
<g class="st0">
	<title>015 - Tractor</title>
	<desc>Created with Sketch.</desc>
	<g class="st1">
		<g>
			<path d="M37.1,121.5c-10.3,0-18.4,8.1-18.4,18.4c0,10.3,8.1,18.4,18.4,18.4s18.4-8.1,18.4-18.4C55.5,129.6,47.4,121.5,37.1,121.5
				z M37.1,151c-6.3,0-11.1-4.8-11.1-11.1c0-6.3,4.8-11.1,11.1-11.1s11.1,4.8,11.1,11.1C48.2,146.2,43.4,151,37.1,151z"/>
			<path d="M147.7,143.6c-4.4,0-8.5,2.6-10.3,7c-1.8,4.1-0.7,8.8,2.6,12.2c3.3,3.3,8.1,4.1,12.2,2.6c4.1-1.8,7-5.9,7-10.3
				C158.7,148.8,154,143.6,147.7,143.6z M147.7,158.4c-2.2,0-3.7-1.8-3.7-3.7c0-2.2,1.8-3.7,3.7-3.7c2.2,0,3.7,1.8,3.7,3.7
				C151.4,156.9,149.9,158.4,147.7,158.4z"/>
			<path d="M54.1,177.9c10.7-4.8,18.8-14.4,22.1-25.8h46.1c-1.5,10.3,3.3,20.6,12.2,25.8 M161.1,176.8c7.4-4.4,12.2-12.5,12.5-21.4
				s-3.7-17-11.1-22.1v-29.5c0-1.8-1.5-3.3-3.3-3.7l-22.1-2.6l10-52.3h37.6h16.6c1.1,0,1.8-0.4,2.6-1.1l12.9-12.9
				c1.4-1.4,1.4-3.7,0-5.2L185.5-5.3c-1.4-1.4-3.7-1.4-5.2,0L167.4,7.6c-0.7,0.7-1.1,1.5-1.1,2.6v16.6c0,1.1,0.4,1.8,1.1,2.6
				l8.5,8.5h-30.2l-7.4-7.4h16.8c0,0,3.7-2.6,3.7-4.8s-1.5-3.7-3.7-2.6h-25.8c-0.4-1.1-0.7-1.1-1.5-0.7c0,0-0.4,0-0.4,0.4
				c-0.4,0-0.7,0.4-1.7,0.4l0,0v0.4c0.5,0.4,0.5,0.4,0.5,0.7l3.1,0.4v0.4l-17.1,68.9L100,92.4V48.9c0-2-1.7-3.7-3.7-3.7H29.9
				c-2.2,0-3.7,1.5-3.7,3.7s1.5,3.7,3.7,3.7h3.7v33.2h-3.7c-2.2,0-3.7,1.5-3.7,3.7c0,2.2,1.5,3.7,3.7,3.7h3.7v6.6
				c-18.4,1.5-33.2,15.5-36.1,33.5s6.3,35.8,22.9,43.5 M173.7,11.7l9.2-9.2l26.2,26.2l-9.2,9.2h-13.6l-12.5-12.5V11.7z M92.6,96.8
				v14.7h-5.5c-4.4-8.5-11.8-15.9-20.3-20.3V52.6h25.8V96.8z M41,52.6h18.4V88c-4.8-1.5-9.6-2.2-14.7-2.2H41V52.6z M44.7,93.1
				c5.9,0,11.4,1.1,17,3.7c8.8,4.1,15.9,11.1,19.9,19.9c2.6,5.2,3.7,11.1,3.7,17v11.1l-7.4,0c-0.1-0.1-0.1-0.1-0.1-0.2
				c1.9-22.6-14.5-41.8-36.7-43.7v-7.7H44.7z M37.1,173.1c-14,0-26.5-8.8-31.3-22.1C1,137.7,5,123,16.1,114.1
				c10.7-8.8,26.2-10,38-2.6s18.1,21.4,15.5,35C66.6,162.1,52.9,173.1,37.1,173.1z M166.1,154.7c0,10.3-8.1,18.4-18.4,18.4
				c-10.3,0-18.4-8.1-18.4-18.4s8.1-18.4,18.4-18.4C158,136.3,166.1,144.4,166.1,154.7z M155.2,131.1c-12.2-3.7-25.1,2.2-30.6,13.6
				H92.6v-11.1c0-5.2-0.7-10-2.2-14.7h5.9c0,0,0,0,0.4,0s0,0,0,0l47.2,3.7h0.4c2.2,0,3.7-1.5,3.7-3.7s-1.5-3.7-3.7-3.7l-44.2-3.3
				v-10.7l55.3,6.6V131.1z M119.3,94.6L131.5,33l8.5,8.5l-10.3,54.2L119.3,94.6z"/>
		</g>
	</g>
</g>
<g class="st0">
	<path class="st1" d="M190.2,0.7L-2.9,138.2c-2,1.4-2.4,3.7-1,5.7l0,0l23.7,33.3c1.4,2,3.7,2.4,5.7,1l0,0L218.7,40.6
		c2-1.4,2.4-3.7,1-5.7l0,0L195.9,1.6C194.5-0.4,192.2-0.8,190.2,0.7L190.2,0.7z M197.3,45.8l-11.7,8.3c1.5-12.6-6.5-24-19-26.6
		l11.7-8.3L197.3,45.8z M40.1,138.7c-5.2-7.3-3.5-17.6,3.8-22.8s17.6-3.5,22.8,3.8c5.2,7.3,3.5,17.6-3.8,22.8
		C55.6,147.8,45.3,146,40.1,138.7z M60.1,103.4L81.7,88l7.1,10c1.4,2,3.7,2.4,5.7,1l0,0l26.6-19c2-1.4,2.4-3.7,1-5.7l0,0l-7.1-10
		l21.6-15.4c-1.5,12.6,6.5,24,19,26.6L79.1,130C80.3,117.6,72.2,106.3,60.1,103.4z M146.6,62.8c-5.2-7.3-3.5-17.6,3.8-22.8
		c7.3-5.2,17.6-3.5,22.8,3.8c5.2,7.3,3.5,17.6-3.8,22.8C162.1,71.8,151.9,70.1,146.6,62.8z M108.4,69l4.7,6.7l-20,14.2l-4.7-6.7
		L108.4,69z M5.2,142.5l6.7-4.7l19,26.6l-6.7,4.7L5.2,142.5z M18.5,133l11.7-8.3c-1.5,12.6,6.5,24,19,26.6l-11.7,8.3L18.5,133z
		 M210.6,36.3l-6.7,4.7l-19-26.6l6.7-4.7L210.6,36.3z"/>
	<path class="st1" d="M45.3,139l20-14.2c2-1.4,2.4-3.7,1-5.7s-3.7-2.4-5.7-1l-20,14.2c-2,1.4-2.4,3.7-1,5.7S43.3,140.4,45.3,139z"/>
	<path class="st1" d="M151.9,63.1l20-14.2c2-1.4,2.4-3.7,1-5.7s-3.7-2.4-5.7-1l-20,14.2c-2,1.4-2.4,3.7-1,5.7S149.9,64.5,151.9,63.1
		z"/>
</g>
<g class="st0">
	<path class="st1" d="M190.1-18.9l-29.2,34v31.6h-23.9V15l-29.2-34L78.7,15v31.6H54.8V15l-29.2-34L-3.5,15v182.7h58.4v-37.1h23.9
		v37.1h58.4v-37.1h23.9v37.1h58.4V15L190.1-18.9z M46.9,192.5H1.8v-31.8h45.1v31.7V192.5z M46.9,155.3H1.8V54.5h45.1v99.9V155.3z
		 M46.9,46.6H1.8V17.1L24.3-9.9l22.5,27.1V47V46.6z M78.7,155.3H54.8V54.5h23.9V155.3z M131.5,192.5H84v-31.8h47.7v31.8H131.5z
		 M131.5,155.3H84V54.5h47.7v100.8H131.5z M131.5,46.6H84V17.1l23.9-27.1l23.9,27.1v29.4H131.5z M160.9,155.3h-23.9V54.5h23.9V155.3
		z M211.3,192.5h-45.1v-31.8h45.1v31.7V192.5z M211.3,155.3h-45.1V54.5h45.1v99.9V155.3z M213.7,46.6h-47.5V17.1l23.9-27.1L214,17.1
		v29.4H213.7z"/>
</g>
</svg>
