<?xml version="1.0" encoding="utf-8"?>
<!-- Generator: Adobe Illustrator 23.0.4, SVG Export Plug-In . SVG Version: 6.00 Build 0)  -->
<svg version="1.1" id="Layer_1" xmlns="http://www.w3.org/2000/svg" xmlns:xlink="http://www.w3.org/1999/xlink" x="0px" y="0px"
	 viewBox="0 0 194.3 207.4" style="enable-background:new 0 0 194.3 207.4;" xml:space="preserve">
<style type="text/css">
	.st0{display:none;}
	.st1{display:inline;}
</style>
<g class="st0">
	<g class="st1">
		<path d="M-9.3,147.4l204.3,0c2.4,0,4.6-1.4,5.4-3.6c1.2-3.7-1.6-7.2-5.1-7.2h-11.9c3.5-12.1,8.6-26.4,16.2-37c0,0,0-0.3,0.3-0.3
			v-0.9c0,0-0.5-1.9-0.5-3c0-3-2.4-5.4-5.4-5.4c-0.8,0-1.6,0.3-2.2,0.5c-1.3,0.5-15.9,7-30,20c-2.2-7.8-4.3-18.1-5.4-30
			c-0.3-2.2-1.9-4.3-4-4.9c-2.2-0.5-4.6,0.3-5.9,2.2c-0.3,0.5-6.2,9.4-12.4,22.1c-5.1-22.4-1.9-48-1.6-48.3c0.3-2.7-1.1-5.1-3.5-5.9
			c-2.4-0.8-5.1,0.3-6.5,2.4l-40.5,71c-4.6-39.4,6.7-85.3,7-85.8c0.5-2.4-0.5-4.9-2.7-6.2c-2.2-1.1-4.9-0.5-6.5,1.3
			c-15.9,18.9-25.4,42.4-31,63.1c-5.7-15.1-10.3-24-10.5-24.6c-1.3-2.4-4-3.5-6.5-2.7c-2.4,0.8-4,3.5-3.5,6.2
			c1.1,5.4,1.3,20.5,1.1,42.4C19.6,97.6,11,86.8,10.4,86.3c-1.6-2.2-4.6-2.7-7-1.3s-3.2,4.3-2.2,6.7c7.8,17.8,8.9,32.9,8.1,44.9H-9
			c-3-1.5-5.4,1-5.4,3.9C-14.4,143.5-9.3,147.4-9.3,147.4z M179.9,110.7c-3.8,8.9-6.7,17.8-8.9,25.9h-16.7c2.4-4,5.4-7.8,8.9-11.3
			l0.3-0.3C168.8,119.1,174.8,114.5,179.9,110.7z M147.8,98c1.6,8.6,3.5,16.2,5.4,22.1c-4.6,5.1-8.4,10.5-11.3,16.5h-8.6
			c1.1-5.7,2.7-11.6,5.4-18.1C141.3,110.7,144.8,103.7,147.8,98z M127.5,116.6c-2.7,7-4.3,13.8-5.4,20h-37l35.1-61.8
			C120.5,87.5,122.1,103.4,127.5,116.6z M73.6,135.5l-0.5,1.1H61.4c-1.6-7.8-3.8-15.9-6.2-23.7c3-15.7,8.4-35.6,18.1-54.2
			C70.1,79.7,67.6,109.9,73.6,135.5z M44.4,114.5L44.4,114.5c2.2,7.6,4,14.8,5.7,22.1h-8.4c-0.8-1.6-1.6-3-2.4-4.3
			c0.3-10,0.5-20.8,0.5-31C41.5,105.3,42.8,109.6,44.4,114.5z M19.6,119.6c3.3,5.3,6.7,10.8,10,17c0,0,0,0,0,0l-9.4,0
			C20.4,131.7,20.4,126.1,19.6,119.6z"/>
	</g>
</g>
<g class="st0">
	<path class="st1" d="M40.3,169.4c1,1,1.5,2.2,1.5,3.4s-0.5,2.4-1.5,3.4s-2.2,1.5-3.4,1.5c-0.7,0-1.2-0.2-1.9-0.5
		c-0.5-0.2-1.2-0.5-1.5-1c-1-1-1.5-2.2-1.5-3.4s0.5-2.4,1.5-3.4c1.2-1.2,2.9-1.7,4.4-1.5c0.2,0,0.5,0.2,1,0.2
		c0.2,0.2,0.5,0.2,0.7,0.5S40.1,169.1,40.3,169.4z M188,180.5c-0.2-0.2-0.2-0.5-0.5-0.7s-0.5-0.5-0.5-0.7c-1.2-1.2-3-1.7-4.5-1.5
		c-0.2,0-0.7,0.2-1,0.2c-0.2,0.2-0.5,0.2-0.7,0.5c-0.2,0.2-0.5,0.5-0.7,0.5c-0.2,0.2-0.5,0.5-0.5,0.7c-0.2,0.2-0.2,0.5-0.5,0.7
		c-0.2,0.2-0.2,0.5-0.2,1c0,0.2,0,0.7,0,1c0,1.2,0.5,2.5,1.5,3.5c0.7,1.2,2,1.7,3.2,1.7c0.7,0,1.2-0.2,2-0.5c0.5-0.2,1.2-0.5,1.5-1
		c1-1,1.5-2.2,1.5-3.5c0-0.2,0-0.7,0-1C188.3,181.3,188.3,180.8,188,180.5z M207.4,188.6c-2.2,9.4-10,16.9-19.6,18.4
		c-9.7,1.6-18.4-2.6-23.5-9.4H61.6c-6.7,6.7-16.3,10.4-26.6,9.6C18.7,206,5.3,192.8,3.9,176.4c-1.6-18.1,11-33.8,28.1-36.6L10,21.6
		c-0.5-2.2-2.4-3.9-4.9-3.9l-10.9,0c-2.1,0-4.2-1.2-4.8-3.2C-11.7,11.1-9.2,8-6,8H5.4c7.1,0,12.9,4.9,14.3,11.7l22.1,119.9
		c1.5,0.2,2.7,0.5,4.1,0.7l50.1,6.8V132h-7.3c-2.7,0-4.9-2.2-4.9-4.9v-4.9C84,108.9,94.9,98,108.3,98h14.6
		c13.4,0,24.3,10.9,24.3,24.3v4.9c0,2.7-2.2,4.9-4.9,4.9H135v20.2l49.1,6.6C199.1,159,210.9,173.2,207.4,188.6z M136.6,122.3
		c0-8-6.6-14.6-14.6-14.6h-14.6c-8,0-14.6,6.6-14.6,14.6H136.6z M105.9,132v16.3l19.5,2.7v-19H105.9z M61.2,172.8
		c0-11.2-7.5-20.4-17.8-23.3l-6.8-1c-13.4,0.2-24.1,10.9-24.1,24.3s10.9,24.3,24.3,24.3S61.2,186.1,61.2,172.8z M165.3,166.3
		L63.9,152.7c4.4,5.8,7.1,12.9,7.1,20.7c0,5.4-1.2,10.2-3.4,14.6H159c-0.2-1.7-0.5-3.2-0.5-4.9C158.5,176.5,161.2,170.7,165.3,166.3
		z M197.4,182.5c0-8-6.6-14.6-14.6-14.6s-14.6,6.6-14.6,14.6c0,8,6.6,14.6,14.6,14.6S197.4,190.5,197.4,182.5z"/>
</g>
<g class="st0">
	<path class="st1" d="M13.7,152.5c4.2,0.4,7.7-1.1,10.4-4.1c4.2,5.1,11.8,5.7,16.9,1.2c0.6-0.3,0.9-0.9,1.2-1.2
		c4.2,5.1,11.8,5.7,16.9,1.2c0.6-0.3,0.9-0.9,1.2-1.2c4.2,5.1,11.8,5.7,16.9,1.2c0.6-0.3,0.9-0.9,1.2-1.2c4.2,5.1,11.8,5.7,16.9,1.2
		c0.6-0.3,0.9-0.9,1.2-1.2c4.2,5.1,11.8,5.7,16.9,1.2c2.4-2.1,3.9-4.8,4.2-8.1l31,31c1.1,1.1,2.3,1.2,5.5,0.2
		c10.6-3.4,17.7-13.4,17.7-24.6l0-46.7h3c1.7,0,3-1.3,3-3V86.3V86v-0.3l-6-36.2c-0.3-1.5-1.5-2.4-3-2.4h-18.1c-1.5,0-2.7,1.2-3,2.4
		l-6,36.2V86v0.3v12.1c0,1.7,1.3,3,3,3h3v38l-30.1-30.1l0-59.3c0-6.3-5.1-12.2-11.3-12.6c-3.9-0.2-7.5,1.3-9.8,4.2
		c-4.2-5.1-11.8-5.7-16.9-1.2c-0.6,0.3-0.9,0.9-1.2,1.2c-4.2-5.1-11.8-5.7-16.9-1.2c-0.6,0.3-0.9,0.9-1.2,1.2
		c-4.2-5.1-11.8-5.7-16.9-1.2c-0.6,0.3-0.9,0.9-1.2,1.2c-4.2-5.1-11.8-5.7-16.9-1.2c-0.6,0.3-0.9,0.9-1.2,1.2
		c-4.2-5.1-12.1-5.7-16.9-1.2c-2.7,2.1-4.2,5.4-4.2,9l0,90.8C3,146.1,7.8,151.9,13.7,152.5z M171.8,95.3h-24.1v-6h24.1V95.3z
		 M152.8,53.1h13l5.1,30.1H148L152.8,53.1z M165.8,101.4v51.2c0,7.2-5.1,13.3-12.1,14.8v-66H165.8z M147.7,147v15.7l-30.1-30.1
		v-15.7L147.7,147z M111.5,49.6c0,14.5,0,75.4,0,89.8c0,2.6-1.5,5.2-4,6c-4.2,1.4-8-1.7-8-5.7V49.4c0-4,3.9-7.1,8-5.7
		C110,44.5,111.5,47,111.5,49.6z M93.4,49.6c0,14.5,0,75.4,0,89.8c0,2.6-1.5,5.2-4,6c-4.2,1.4-8-1.7-8-5.7V49.4c0-4,3.9-7.1,8-5.7
		C91.9,44.5,93.4,47,93.4,49.6z M75.3,49.6c0,14.5,0,75.4,0,89.8c0,2.6-1.5,5.2-4,6c-4.2,1.4-8-1.7-8-5.7V49.4c0-4,3.9-7.1,8-5.7
		C73.8,44.5,75.3,47,75.3,49.6z M57.3,49.6c0,14.5,0,75.4,0,89.8c0,2.6-1.5,5.2-4,6c-4.2,1.4-8-1.7-8-5.7V49.4c0-4,3.9-7.1,8-5.7
		C55.7,44.5,57.3,47,57.3,49.6z M39.2,49.6c0,14.5,0,75.4,0,89.8c0,2.6-1.5,5.2-4,6c-4.2,1.4-8-1.7-8-5.7V49.4c0-4,3.9-7.1,8-5.7
		C37.6,44.5,39.2,47,39.2,49.6z M9,49.4c0-4,3.9-7.1,8-5.7c2.5,0.8,4,3.4,4,6c0,14.5,0,75.4,0,89.8c0,2.6-1.5,5.2-4,6
		c-4.2,1.4-8-1.7-8-5.7V49.4z"/>
	<path class="st1" d="M159.7,25.2c-1.8,0-3,1.2-3,3v9c0,1.8,1.2,3,3,3s3-1.2,3-3v-9C162.7,26.4,161.5,25.2,159.7,25.2z"/>
	<path class="st1" d="M162.7,7.2c0-1.8-1.2-3-3-3s-3,1.2-3,3v9c0,1.8,1.2,3,3,3s3-1.2,3-3V7.2z"/>
	<path class="st1" d="M135.3,25.2c0,1.8,1.2,3,3,3c5.1,0,9,3.9,9,9c0,1.8,1.2,3,3,3s3-1.2,3-3c0-8.4-6.6-15.1-15.1-15.1
		C136.5,22.2,135.3,23.4,135.3,25.2z"/>
	<path class="st1" d="M180.5,22.2c-8.4,0-15.1,6.6-15.1,15.1c0,1.8,1.2,3,3,3c1.8,0,3-1.2,3-3c0-5.1,3.9-9,9-9c1.8,0,3-1.2,3-3
		S182.4,22.2,180.5,22.2z"/>
</g>
<g class="st0">
	<g class="st1">
		<path d="M80.9,82.7c-4.2,3.9-4.3,10.1-0.4,14.3s10.1,4.3,14.3,0.4c4.2-3.9,4.3-10.1,0.4-14.3S85.1,78.8,80.9,82.7z M90.1,92.5
			c-1.5,1.4-3.4,1.3-4.8-0.1c-1.4-1.5-1.3-3.4,0.1-4.8c1.5-1.4,3.4-1.3,4.8,0.1C91.7,89.2,91.6,91.1,90.1,92.5z"/>
		<path d="M191.2,103.5L148,81.4l0,0c-0.2-0.2-0.7-0.3-1.2-0.3l0,0l0,0l-31.1-2.6l-0.2-0.2l-31.2-62l0,0C78.6,5.2,67.7-2.9,55.3-4.8
			C49-5.9,42.9-5.3,37-3.5c-1.2-0.3-1.5,0-2,0.4s-0.8,0.7-0.8,1.2c-0.5,1-0.3,2.2,0.4,2.9l42.1,64.4L76.2,66L65.6,76L4,29.9
			c-1-0.5-2.2-0.8-2.9-0.5s-1,0.5-1.5,0.9s-0.8,0.7-0.8,1.2c-2.4,6-2.9,12.1-2.4,18.2l0,0l0,0l0,0C-2.3,62.1,5,73.5,15.8,79.8
			l60,34.9l0.2,0.2l0.7,31.2l0,0l0,0c0,0.5,0.2,0.7,0.2,1.2l0,0l19.5,44.5c1.8,3.9,5.1,6.9,8.9,8.5c4.1,1.3,8.5,0.9,12.5-1
			c1.2-0.7,2.5-1.4,3.5-2.4c5.1-4.8,6.6-12.3,3.4-18.7l-21.5-43.1l-5.6-24.7l12.1-11.4l24.3,7.1l41.7,24c6.2,3.5,13.8,2.5,18.8-2.3
			c1-1,1.8-2.2,2.6-3.4c2.3-3.6,2.8-8.2,1.7-12.4C197.8,109,195,105.5,191.2,103.5z M78.4,21.7L78.4,21.7l25.2,48.8l-2.3-2.4
			c-0.7-0.7-1.4-1.5-2.3-2c-0.2-0.2-0.5-0.5-0.7-0.3c-0.7-0.3-1.2-0.7-1.9-1c-0.2-0.2-0.2-0.2-0.7-0.3c-0.9-0.5-1.9-0.5-2.8-1
			l-0.5,0l-0.5,0l0,0c1.2-1.2,1.5-2.8,0.6-4.3L62.6,7C69.2,9.6,75.3,15,78.4,21.7z M49.5,5.7c0.5,0,1,0,1.4,0c1,0,1.7,0.3,2.6,0.3
			l31.9,55.9L83,64.2l-38.5-58C46.1,6,47.8,5.8,49.5,5.7z M5.9,48.1c0-0.5,0-1,0-1.4c0-1.4,0.3-3.1,0.6-4.7l55.9,41.7l-2.4,2.3
			L6,50.8C6,49.8,6.1,48.9,5.9,48.1z M119.1,182.1c2,4.1,0.4,9.3-3.7,11.3c-2.2,1.1-4.3,1.3-6.9,0.5c-2.1-0.8-4-2.3-4.9-4.7
			l-18.1-40.8l13.5-6.3L119.1,182.1z M96.7,136.2l-12.3,5.6l-1-23.1c0.7,0.3,1.4,0,2.4,0.1l0.5,0c0.5,0,1.2-0.2,1.7-0.2
			c0.2-0.2,0.5,0,0.7-0.2c0.5,0,0.7-0.2,1.4-0.4c0.2-0.2,0.7-0.2,1-0.4c0.2-0.2,0.7-0.2,1-0.4L96.7,136.2z M108.6,95.5l-14.7,13.8
			c-2.7,2.5-7,3.4-10.5,2.1c-0.5,0-0.9-0.5-1.6-0.8L22.8,76.1c-6.5-4-11.6-9.9-14-16.8l50.4,32.9c1.2,0.7,3.1,0.8,4.3-0.3l7.3-6.9
			l12.2-11.5c4.1-3.8,10.4-3.6,14.3,0.4L108.9,86c0.5,0.5,1.4,1,2.1,1.3l3.1,0.3l0,0l27.5,2.7l-6.3,11.9L112,95.2
			C110.8,94.4,109.6,94.6,108.6,95.5z M190.5,117.1c0.6,2.2,0.3,4.8-0.9,6.9c-2.3,4-7.5,5.2-11.5,3l-38.4-22.6l7.1-13.1l39.6,20.5
			C188.3,113.3,189.9,115,190.5,117.1z"/>
	</g>
</g>
<g>
	<g>
		<g>
			<path d="M105.1,77.8c11.5-1.5,20.9-7.9,20.9-14.9c0-4.9-4.4-8.5-8.2-10.7c-5.5-3.2-11.9-4.5-18.1-4.5c4-4,7.4-9,9.2-14.4
				c1.5-4.7,2.3-11-1.3-14.9c-3.3-3.3-9-3-13.4-1.8c-6,1.7-11.7,5.2-16.1,9.7c0-8.2-2.3-17.9-8.9-23.6c-2.3-2.2-5.7-3.3-9-2.2
				c-4.2,1.5-7,5.5-8.9,9.4c-2.5,5-3.7,10.7-3.5,16.4c-4.4-4.4-9.9-7.9-15.9-9.5c-4.4-1.2-10-1.7-13.6,1.8c-3.8,3.8-3,10.2-1.3,14.9
				c1.8,5.5,5.2,10.4,9.2,14.4c-6.2,0-12.7,1.3-18.1,4.5C4.4,54.3,0,58,0,62.9s4.4,8.5,8.2,10.7c5.5,3.2,11.9,4.5,18.1,4.5
				c-4,4-7.4,9-9.2,14.4c-1.5,4.7-2.3,11,1.3,14.9c3.8,3.8,10.2,2.8,14.7,1.3c5.5-1.8,10.5-5.2,14.6-9.2c0,6.2,1.3,12.7,4.5,18.1
				c2.2,3.8,5.9,8,10.7,8s8.5-4.2,10.7-8c3.2-5.5,4.5-11.9,4.5-18.1c4,4.2,9,7.4,14.6,9.2c4.5,1.5,10.9,2.3,14.7-1.3
				c4.9-4.9,2.3-13.4-0.2-18.6c2.3,2.3,4.5,4.9,6.7,7.7c14.2,18.9,24.4,52.5-6,105.9c-2.2,3.7,3.7,7,5.9,3.3
				c10.9-18.9,16.7-35.6,19.2-50.2c6.7,2.7,14.2,3.8,21.3,1.7c5.7-1.7,9-5,14.1-9.9c7.7-7.4,15.7-14.1,24.4-20.1
				c1.8-1.2,2-4,0.2-5.4c-13.2-10.5-31.8-12.2-46-4c-5.9,3.3-9.9,7.7-12.9,12C131.2,103.4,116,86.6,105.1,77.8z M100.1,54.3
				c11.9,0,19.4,6,19.4,8.5s-7.5,8.5-19.4,8.5c-5.2,0-9.4-1.2-12.6-2.5c1-3.8,1-7.9,0-11.9C90.7,55.5,94.9,54.3,100.1,54.3z
				 M83.2,30.8c8.7-9.5,19.1-8.2,19.6-7.5s1.8,9.4-7.5,19.6c-3.5,3.7-7.4,5.9-10.7,7c-2-3.3-5-6.4-8.4-8.4
				C77.3,38.1,79.7,34.3,83.2,30.8C89.4,24.6,79.8,34.4,83.2,30.8z M63.1,6.7c2.5,0,8.5,7.5,8.5,19.4c0,5-1.2,9.4-2.5,12.6
				c-3.8-1-8-1-11.9,0c-1.5-3.2-2.5-7.5-2.5-12.6C54.6,14.2,60.6,6.7,63.1,6.7z M23.3,23.2c0.5-0.7,10.7-1.5,19.6,7.5l0,0
				c3.5,3.5,5.9,7.4,7,10.7c-3.3,2.2-6.4,5-8.4,8.4c-3.3-1.2-7.4-3.3-10.7-7C20.8,31.9,22.8,23.9,23.3,23.2z M26.1,71.4
				c-11.9,0-19.4-6-19.4-8.5c0-2.5,7.5-8.5,19.4-8.5c5.2,0,9.4,1.2,12.6,2.5c-1,3.8-1,8,0,11.9C35.5,70.2,31.1,71.4,26.1,71.4z
				 M43,95c-8.4,8.4-17.9,9.4-19.7,7.7c-0.3-0.3-2.8-9.5,7.7-19.7c3.7-3.5,7.4-5.9,10.7-7c2,3.3,5,6.4,8.4,8.4
				C48.7,87.8,46.4,91.7,43,95z M63.1,119.3c-2.5,0-8.5-7.5-8.5-19.4c0-5,1.2-9.4,2.5-12.6c3.8,1,8,1,11.9,0
				c1.5,3.2,2.5,7.5,2.5,12.6C71.6,111.7,65.6,119.3,63.1,119.3z M63.1,81.3c-10.2,0-18.4-8.2-18.4-18.4s8.2-18.4,18.4-18.4
				s18.4,8.2,18.4,18.4S73.1,81.3,63.1,81.3z M102.9,102.7c-1.8,1.8-11.4,0.7-19.7-7.7c-3.5-3.5-5.9-7.4-7-10.7c3.3-2,6.4-5,8.4-8.4
				c3.3,1.2,7,3.5,10.7,7C105.8,92.7,103.3,102.4,102.9,102.7z M150.1,123.8c8.7-4.9,19.2-5.5,28.6-2.2c-9.9,1.7-19.4,6.4-27.1,10.5
				c-7,4-12.2,7.4-16.2,10.4C137.2,136.7,141.2,128.8,150.1,123.8z M175,132.3c-5,4.2-8.5,7.5-11.4,10.4c-4.7,4.5-7.2,7-11.4,8.2
				c-4.5,1.3-9.5,1-15.4-1c4.4-3.3,9.9-7.2,18.1-11.7c9.9-5.5,18.1-8.9,25.3-9.9C178.4,129.5,176.7,131,175,132.3z"/>
		</g>
	</g>
</g>
<g class="st0">
	<title>Artboard 10</title>
	<g class="st1">
		<path d="M42.3,143.9c-0.8-2.2-2.7-3.8-5.1-3.8H8.5L-1,111.4c-1.1-2.7-4.1-4.3-6.8-3.5c-2.7,1.1-4.3,4.1-3.5,6.8L-1,145.5
			l-10.3,30.9c-0.8,2.7,0.5,6,3.5,6.8c2.7,0.8,6-0.5,6.8-3.5l9.5-28.7h24.6l9.5,28.7c1.1,2.7,4.1,4.3,6.8,3.5
			c2.7-1.1,4.3-4.1,3.5-6.8L42.3,143.9z"/>
		<path d="M133.5,107.6H101V53.4h86.6c3,0,5.4-2.4,5.4-5.4l0,0V37.2c0-2.2-1.1-4.1-3-4.9L97.8-11c-1.4-0.8-3.3-0.8-4.6,0L1,32.3
			c-1.9,0.8-3,2.7-3,4.9V48c0,3,2.4,5.4,5.4,5.4l0,0h86.7v54.2H58.8c-3-0.6-5.4,1.9-5.4,4.8s2.4,5.4,5.4,6h31.3v54.2h-5.4
			c-1.9,0-3.8,1-4.7,2.7c-2.1,4.1,0.8,8.2,4.7,8.2l21.7,0c1.9,0,3.8-1,4.7-2.7c2.1-4.1-0.8-8.2-4.7-8.2H101v-54.2l32.2,0
			c2.4,0,4.6-1.4,5.4-3.6C139.8,111.1,137,107.6,133.5,107.6z M8.9,40.7L95.5-0.2l86.7,40.9v1.9H8.9V40.7z"/>
		<path d="M194.5,145.5l10.3-30.9c0.8-2.7-0.5-6-3.5-6.8c-2.7-0.8-6,0.5-6.8,3.5l-9.5,28.7h-28.7c-2.4,0-4.3,1.6-5.1,3.8l-10.8,32.5
			c-0.8,2.7,0.5,6,3.5,6.8c2.7,0.8,6-0.5,6.8-3.5l9.5-28.7h24.6l9.5,28.7c1.1,2.7,4.1,4.3,6.8,3.5c2.7-1.1,4.3-4.1,3.5-6.8
			L194.5,145.5z"/>
	</g>
</g>
<g class="st0">
	<path class="st1" d="M204.9,83.8C202,71.3,192,62.1,179.8,59.6c0-0.7-0.2-1.5-0.5-2.2c-1.9-8.3-6.8-15.3-14.1-19.7
		c-5.8-3.7-12.7-5.4-19.5-4.6c-5.6-14.6-21.2-23.1-36.8-19.5c-4.6,1-9,3.2-12.7,6.1c-5.8-4.4-12.7-6.8-19.7-6.8
		c-12.7,0-24.1,7.8-29,19.2c-17.1-1.2-31.4,11.2-33.6,27.3c-15.6,1.9-27.5,15.3-27.5,31.4c0,13.4,8.5,25.6,20.9,30c0,0,0,0,0,0
		c-0.7,16.3,11.1,29.1,30.7,33.1c1.9,0.5,16.6,0.5,35.1,0.5c27.8,0,64.3-0.2,79.9-0.5l9.5-0.7h0.7c14.1-3.2,24.6-18.3,24.6-33.6
		C201,113.2,208.3,98.4,204.9,83.8z M181.4,112l-3.7,1.2l0.5,3.7c1.5,11.7-6.4,24.1-16.9,26.8l-8.6,0.7c-43.2,0.5-108.9,0.7-113.5,0
		c-5.4-1.2-23.3-6.1-23.3-22.4c0-1.5,0.2-2.9,0.5-4.1l1-4.6l-4.7-1C2.3,110.1-5,100.8-5,90.3C-5,77.9,5,67.9,17.3,67.9H22v-4.6
		C22,50.9,32,40.9,44.3,40.9c1.5,0,2.9,0.2,4.7,0.5l4.4,0.7l1.2-4.1c2.7-9.5,11.5-16.1,21.6-16.1c6.1,0,12,2.4,16.2,6.8l3.4,3.7
		l3.4-3.7c2.9-3.2,6.9-5.6,11.3-6.6c12-2.7,24,4.6,27,16.8l1,4.6l4.7-1c5.9-1.5,11.8-0.2,16.9,2.7c5.1,3.2,8.6,8,10.1,13.9
		c0.2,1.5,0.5,2.9,0.5,4.4v4.4l4.4,0.2c9.8,0.5,18.4,7.6,20.6,17.3C198.3,96.9,192.1,108.4,181.4,112z"/>
	<path class="st1" d="M155.2,80.7c-7.1-3.7-15.3-2.7-21.2,2.4c-4.4-2.2-9.3-2.7-13.9-1.2c-4.9,1.5-8.8,4.6-11.2,9.3
		c-0.5,1-0.2,1.9,0.7,2.4c1,0.5,1.9,0.2,2.4-0.7c1.9-3.7,5.1-6.3,9-7.6c3.9-1.2,8-0.7,11.7,1.2c0.2,0,0.2,0.2,0.5,0.2l1.2,0.7l1-1
		c4.9-4.9,12.2-5.8,18-2.7c7.6,3.9,10.2,13.4,6.3,20.9c-0.5,1-0.2,1.9,0.7,2.4c0.2,0.2,0.5,0.2,0.7,0.2c0.7,0,1.2-0.2,1.5-1
		C167.9,97.3,164.5,85.6,155.2,80.7z"/>
	<path class="st1" d="M60.7,59.7c-4.9-1.5-10-0.7-14.4,1.7c-6.8,3.9-10.7,11.4-9.5,19.2c-8.8,5.1-11.9,16.6-6.8,25.6
		c0.2,0.5,1,1,1.5,1c0.2,0,0.5,0,1-0.2c1-0.5,1.2-1.5,0.7-2.4c-4.1-7.3-1.5-16.8,6.1-20.9c0.2,0,0.2-0.2,0.5-0.2l1.2-0.5l-0.2-1.5
		c-1.5-6.6,1.7-13.4,7.6-16.6c3.7-1.9,7.8-2.4,11.7-1.5c3.9,1.2,7.3,3.7,9.3,7.3c0.5,1,1.5,1.2,2.4,0.7c1-0.5,1.2-1.5,0.7-2.4
		C69.7,64.4,65.6,61.2,60.7,59.7z"/>
</g>
<g class="st0">
	<g class="st1">
		<g>
			<g>
				<rect x="-4" y="154.8" width="31.1" height="9.6"/>
				<rect x="65.2" y="154.8" width="31.1" height="9.6"/>
				<rect x="98.7" y="154.8" width="31.1" height="9.6"/>
				<rect x="29.4" y="154.8" width="31.1" height="9.6"/>
				<rect x="132.1" y="154.8" width="31.1" height="9.6"/>
				<rect x="167.9" y="154.8" width="31.1" height="9.6"/>
				<rect x="12.7" y="169.2" width="31.1" height="9.6"/>
				<rect x="46.1" y="169.2" width="31.1" height="9.6"/>
				<rect x="82" y="169.2" width="31.1" height="9.6"/>
				<rect x="115.4" y="169.2" width="31.1" height="9.6"/>
				<rect x="148.8" y="169.2" width="31.1" height="9.6"/>
				<rect x="184.7" y="169.2" width="11.9" height="9.6"/>
				<rect x="-4" y="183.5" width="31.1" height="9.6"/>
				<rect x="29.4" y="183.5" width="31.1" height="9.6"/>
				<rect x="65.2" y="183.5" width="31.1" height="9.6"/>
				<rect x="98.7" y="183.5" width="31.1" height="9.6"/>
				<rect x="132.1" y="183.5" width="31.1" height="9.6"/>
				<rect x="167.9" y="183.5" width="31.1" height="9.6"/>
				<rect x="12.7" y="197.8" width="31.1" height="9.6"/>
				<rect x="46.1" y="197.8" width="31.1" height="9.6"/>
				<rect x="-4" y="169.2" width="11.9" height="9.6"/>
				<rect x="-4" y="197.8" width="11.9" height="9.6"/>
				<rect x="82" y="197.8" width="31.1" height="9.6"/>
				<rect x="115.4" y="197.8" width="31.1" height="9.6"/>
				<rect x="148.8" y="197.8" width="31.1" height="9.6"/>
				<rect x="184.7" y="197.8" width="11.9" height="9.6"/>
			</g>
			<path d="M196.6,30.6v-2.4h-14.3V11.5l2.4-3.3l-5.7-15.8l-5.5,15.8l4.1,3.3v16.8h-23.9V11.5l3.6-3.3l-5.5-15.8l-5.5,15.8l2.6,3.3
				v16.8h-21.5V12.5l3.5-3.3l-6-15.8L119,9.1l3.5,3.3v15.8H98.7V11.5l3.8-3.3L97-7.6L91.5,8.1l2.4,3.3v16.8H72.4V11.5l2.9-3.3
				L69.8-7.6L64.3,8.1l3.3,3.3v16.8H43.7V12.5l3.5-3.3l-6-15.8L35.4,9.1l3.5,3.3v15.8H17.5V11.5l3.1-3.3L15.1-7.6L9.6,8.1l3.1,3.3
				v16.8H-4V33h16.7v93.2H-4v4.8h16.7v19.1h4.8V131H39v19.1h4.8V131h23.9v19.1h4.8V131h21.5v19.1h4.8V131h23.9v19.1h4.8V131h21.5
				v19.1h4.8V131h23.9v19.1h4.8V131h14.3v-4.8h-16.7V30.6H196.6z M17.5,126.2V30.6h23.9v95.5H17.5z M43.7,126.2V30.6h23.9v95.5H43.7
				z M72.4,126.2V30.6h23.9v95.5H72.4z M98.7,126.2V30.6h23.9v95.5H98.7z M125,126.2V30.6h23.9v95.5H125z M177.5,126.2h-23.9V30.6
				h23.9V126.2z"/>
		</g>
	</g>
</g>
<g class="st0">
	<g class="st1">
		<g>
			<g>
				<g>
					<path d="M32.1,28.1c1.6,1.6,3.3,3.3,4.9,4.9c3.9,3.9,7.9,7.9,11.8,11.8c4.7,4.7,9.5,9.5,14.2,14.2c4.1,4.1,8.2,8.2,12.3,12.3
						c2,2,3.9,4.1,6,6c0,0,0.1,0.1,0.1,0.1c0-1.9,0-3.8,0-5.7L73,80.2h5.7c-1.6-1.6-3.3-3.3-4.9-4.9c-3.9-3.9-7.9-7.9-11.8-11.8
						c-4.7-4.7-9.5-9.5-14.2-14.2c-4.1-4.1-8.2-8.2-12.3-12.3c-2-2-4-4.1-6-6c0,0-0.1-0.1-0.1-0.1c-1.5-1.5-4.2-1.6-5.7,0
						c-0.4,0.4-0.8,0.8-1.2,1.2c-0.2,0.2-0.4,0.4-0.7,0.7c0,0-0.1,0.1-0.1,0.1c-0.1,0.1-0.1,0.1-0.2,0.2c-0.4,0.4,0.1-0.2,0.2-0.2
						c0,0-0.6,0.3-0.6,0.4c0,0,0.8-0.3,0.4-0.2C21,33.2,22,33,21.9,33c0.3,0,0.6,0.1,0.9,0.2c0.5,0.1,0.2,0.1,0,0
						c0,0,0.6,0.4,0.2,0.1c-0.4-0.4,0.3,0.4,0.3,0.4c-0.1-0.1-0.2-0.2-0.3-0.3c-1.4-1.9-2.8-3.8-4.2-5.6c-3-4-6.1-8-9-12
						c-0.1-0.1-0.1-0.2-0.2-0.3c-0.2-0.3-0.4-0.8-0.1-0.1c-0.1-0.2-0.3-0.5,0,0c0.2,0.3,0,0.3,0,0c0,0-0.2,0.8,0,0.4
						c0.2-0.5-0.3,0.7-0.1,0.2c0.2-0.4-0.4,0.3-0.1,0.2c0.1-0.1,0.2-0.2,0.3-0.3c0.9-0.9,1.8-1.8,2.7-2.7c1.2-1.2,2.3-2.3,3.4-3.4
						c0.4-0.4,0.8-0.8,1.1-1.1C17,8.2,17.1,8.1,17.1,8c0.2-0.3-0.5,0.3-0.2,0.1c0.4-0.2-0.3,0.1-0.3,0.1c0.1,0,0.6-0.1,0,0
						c-0.5,0.1-0.1,0,0,0c0,0-0.8-0.1-0.4,0C16.7,8.4,16,8.1,16,8.1c0,0,0.4,0.2,0.4,0.2c0.1,0.1,0.3,0.2,0.4,0.3
						c0.1,0.1,0.2,0.2,0.4,0.3c0.7,0.5,1.4,1.1,2.2,1.6c2.5,1.9,5,3.8,7.5,5.7c2.2,1.7,4.5,3.4,6.7,5c0.4,0.3,0.8,0.6,1.3,1
						c0,0-0.5-0.4-0.5-0.4c0.1,0.1,0.5,0.3,0.1,0c-0.3-0.2-0.1-0.2,0,0c-0.1-0.3-0.2-0.5-0.3-0.8c0-0.3,0-0.6,0.1-0.9
						c0,0.2-0.2,0.4,0.1,0c0.4-0.8-0.3,0.3-0.2,0.3c0-0.1,0.5-0.6,0.2-0.3c-0.1,0.1-0.2,0.2-0.3,0.3c0,0-0.1,0.1-0.1,0.1
						c-0.2,0.2-0.5,0.5-0.7,0.7c-0.4,0.4-0.8,0.8-1.2,1.2C30.6,23.9,30.5,26.6,32.1,28.1c1.6,1.5,4.1,1.6,5.7,0
						c1.2-1.2,2.5-2.3,3.4-3.7c1-1.6,1.4-3.6,0.8-5.4c-0.5-1.7-1.7-2.8-3.1-3.8c-1.7-1.3-3.5-2.6-5.3-4C30.8,9,28,6.9,25.1,4.7
						c-1.6-1.2-3.2-2.7-5-3.6c-3-1.6-6.4-1.1-8.8,1.3c-1,0.9-1.9,1.9-2.8,2.8C7.3,6.5,6,7.7,4.8,9C3.7,10,2.6,11.1,2,12.6
						C0.9,15.1,1.4,17.8,3,20c0.5,0.7,1.1,1.5,1.7,2.2c2,2.7,4.1,5.5,6.1,8.2c1.7,2.3,3.4,4.5,5.1,6.8c1.2,1.5,2.3,3,4.3,3.6
						c3.1,1.1,5.7-0.8,7.8-2.9c0.5-0.5,0.9-0.9,1.4-1.4h-5.7c1.6,1.6,3.3,3.3,4.9,4.9c3.9,3.9,7.9,7.9,11.8,11.8
						c4.7,4.7,9.5,9.5,14.2,14.2c4.1,4.1,8.2,8.2,12.3,12.3c2,2,4,4.1,6,6c0,0,0.1,0.1,0.1,0.1c1.9,1.9,5.3,1.5,6.5-1.2
						c2.3-2.3,4.4-4.3,6.7-6.6c2.5-1.3,2.8-4.6,1-6.5c-1.6-1.6-3.3-3.3-4.9-4.9c-3.9-3.9-7.9-7.9-11.8-11.8
						c-4.7-4.7-9.5-9.5-14.2-14.2c-4.1-4.1-8.2-8.2-12.3-12.3c-2-2-4-4.1-6-6c0,0-0.1-0.1-0.1-0.1c-1.5-1.5-4.3-1.6-5.7,0
						C30.6,24,30.5,26.5,32.1,28.1z"/>
				</g>
			</g>
			<g>
				<g>
					<path d="M179.3,169.7c-2.1,2.1-4.2,4.2-6.3,6.3c-0.7,0.7-1.4,1.5-2.2,2.2c-0.3,0.3-0.6,0.5-0.9,0.8c-0.5,0.5,0.6-0.4-0.2,0.2
						c-0.6,0.4-1.2,0.7-1.9,1.1c-0.6,0.3,0.7-0.2-0.2,0.1c-0.3,0.1-0.6,0.2-0.9,0.3c-0.4,0.1-0.7,0.2-1.1,0.3c-0.1,0-0.3,0-0.4,0.1
						c-0.5,0.1,0.9-0.1,0.1,0c-0.6,0-1.3,0.1-1.9,0.1c-0.3,0-0.6,0-1-0.1c-0.6,0,0.8,0.2,0.2,0c-0.2-0.1-0.5-0.1-0.7-0.1
						c-0.6-0.1-1.3-0.3-1.9-0.6c-0.7-0.2,0.7,0.3-0.2-0.1c-0.3-0.2-0.7-0.3-1-0.5c-0.3-0.2-0.6-0.4-0.9-0.5c-0.6-0.4,0,0.1,0.1,0.1
						c-0.1-0.1-0.4-0.3-0.4-0.4c-0.2-0.2-0.4-0.4-0.7-0.6c-0.1-0.1-0.2-0.2-0.3-0.3c-1.3-1.3-2.6-2.6-3.9-3.9
						c-5.1-5.1-10.2-10.3-15.4-15.4c-4.6-4.6-9.1-9.1-13.7-13.7c-0.5-0.5-1-1-1.4-1.4c-0.1-0.1-0.2-0.2-0.3-0.3
						c0-0.1-0.4-0.5-0.4-0.4c0.1,0,0.5,0.8,0.1,0.1c-0.1-0.1-0.1-0.2-0.2-0.4c-0.1-0.1-0.4-0.6-0.1-0.1c0.3,0.4,0-0.1-0.1-0.3
						c0-0.2-0.3-1.2-0.1-0.5c0.1,0.6,0-0.3,0-0.5c0-0.7-0.2,0.8,0-0.1c0-0.2,0.1-0.4,0.1-0.5c0.1-0.2,0.3-0.6,0-0.2
						c-0.3,0.5,0.2-0.4,0.3-0.5c0.4-0.7-0.1,0.1-0.1,0.1c0-0.1,0.4-0.4,0.4-0.4c0.1-0.1,0.2-0.2,0.3-0.3c1.2-1.2,2.5-2.5,3.7-3.7
						c0.3-0.3,0.7-0.7,1-1c1.5-1.5,1.6-4.2,0-5.8c-4.9-4.9-9.9-9.9-14.8-14.8c-0.7-0.7-1.4-1.4-2.1-2.1c0,1.9,0,3.8,0,5.8
						c2.8-2.8,5.6-5.6,8.5-8.5c-1.9,0-3.8,0-5.7,0c4.9,4.9,9.9,9.9,14.8,14.8c0.7,0.7,1.4,1.4,2.1,2.1c1.5,1.5,4.2,1.6,5.7,0
						c1.6-1.6,3.3-3.3,4.9-5c0,0,0.4-0.4,0.4-0.4c0,0-0.6,0.4-0.2,0.2c0.1-0.1,0.2-0.2,0.4-0.2c0.1-0.1,0.3-0.1,0.4-0.2
						c0.3-0.2-0.3,0.1-0.3,0.1c0.2,0,0.7-0.2,0.9-0.3c0.1,0,0.3,0,0.4-0.1c0,0-0.8,0-0.4,0.1c0.3,0,0.6,0,0.8,0c0.4,0-0.4,0-0.4-0.1
						c0.1,0.1,0.3,0.1,0.4,0.1c0.2,0.1,0.7,0.3,0.9,0.3c-0.1,0-0.7-0.4-0.3-0.1c0.1,0.1,0.2,0.1,0.4,0.2s0.2,0.2,0.4,0.2
						c0.4,0.2-0.3-0.2-0.2-0.2c0,0,0.4,0.4,0.4,0.4c0.1,0.1,0.1,0.1,0.2,0.2c2.8,2.8,5.6,5.6,8.5,8.5c4.7,4.7,9.4,9.4,14.1,14.1
						c3.6,3.6,7.2,7.2,10.8,10.8c0.4,0.4,0.8,0.8,1.1,1.1c0.1,0.1,0.2,0.2,0.2,0.2l0,0c0.2,0.2,0.4,0.4,0.6,0.7
						c0.1,0.1,0.2,0.2,0.3,0.3c0.4,0.4-0.4-0.6-0.1-0.1c0.3,0.5,0.6,1,0.9,1.5c0.1,0.2,0.2,0.5,0.4,0.8c0.2,0.4-0.1-0.3-0.1-0.3
						c0,0.2,0.2,0.5,0.2,0.7c0.2,0.5,0.3,1.1,0.4,1.6c0,0.1,0.1,0.3,0.1,0.4c0,0.2,0.2,0.4,0,0c-0.2-0.4,0-0.2,0,0
						c0,0.2,0,0.4,0,0.5c0,0.5,0,1.1,0,1.7c0,0.3-0.1,0.6-0.1,0.8c0,0,0.1-0.8,0-0.4c0,0.2-0.1,0.4-0.1,0.5
						c-0.1,0.5-0.3,1.1-0.4,1.6c0,0.1-0.1,0.3-0.1,0.4c-0.3,0.7,0-0.1,0.1-0.2c-0.2,0.1-0.3,0.7-0.4,0.9c-0.3,0.5-0.6,1-0.9,1.5
						c-0.2,0.4,0.2-0.2,0.2-0.2c0,0-0.3,0.3-0.3,0.3C179.8,169.2,179.6,169.4,179.3,169.7c-1.5,1.5-1.6,4.2,0,5.8
						c1.6,1.5,4.2,1.6,5.7,0c4.3-4.4,6.1-10.7,4.8-16.7c-0.8-3.5-2.7-6.5-5.2-8.9c-3.2-3.3-6.5-6.5-9.7-9.8
						c-4.9-4.9-9.8-9.9-14.8-14.8c-3.2-3.2-6.4-6.4-9.6-9.6c-2.9-2.9-6.9-4.3-10.9-3.2c-3.8,1-6.4,4.3-9,7c-0.3,0.3-0.5,0.5-0.8,0.8
						c1.9,0,3.8,0,5.7,0c-4.9-4.9-9.9-9.9-14.8-14.8c-0.7-0.7-1.4-1.4-2.1-2.1c-1.5-1.5-4.2-1.6-5.7,0c-2.8,2.8-5.6,5.6-8.5,8.5
						c-1.5,1.5-1.6,4.2,0,5.8c4.9,4.9,9.9,9.9,14.8,14.8c0.7,0.7,1.4,1.4,2.1,2.1c0-1.9,0-3.8,0-5.8c-1.1,1.1-2.1,2.1-3.2,3.2
						c-1.4,1.4-3,2.8-3.9,4.7c-1.8,4-1.3,8.3,1.5,11.7c0.4,0.4,0.8,0.8,1.1,1.2c4.1,4.1,8.3,8.3,12.4,12.4
						c5.5,5.5,11,11.1,16.6,16.6c4.3,4.3,8.4,9.3,14.8,10.4c6.1,1,11.9-1,16.3-5.3c2.5-2.5,4.9-4.9,7.4-7.4c0.2-0.2,0.4-0.4,0.7-0.7
						c1.5-1.5,1.6-4.3,0-5.8C183.5,168.2,180.9,168.1,179.3,169.7z"/>
				</g>
			</g>
			<g>
				<g>
					<path d="M139.3,135.3c3.2,3.2,6.5,6.5,9.7,9.7c5.2,5.2,10.3,10.3,15.4,15.4c1.2,1.2,2.4,2.4,3.5,3.5c1.5,1.5,4.3,1.6,5.7,0
						c1.5-1.6,1.6-4.1,0-5.7c-3.2-3.2-6.5-6.5-9.7-9.7c-5.2-5.2-10.3-10.3-15.4-15.4c-1.2-1.2-2.4-2.4-3.5-3.5
						c-1.5-1.5-4.3-1.6-5.7,0C137.8,131.2,137.7,133.7,139.3,135.3L139.3,135.3z"/>
				</g>
			</g>
			<g>
				<g>
					<path d="M165.2,166.7c-3.2-3.2-6.5-6.5-9.7-9.7c-5.2-5.2-10.3-10.3-15.4-15.4c-1.2-1.2-2.4-2.4-3.5-3.5c-1.5-1.5-4.3-1.6-5.7,0
						s-1.6,4.1,0,5.7c3.2,3.2,6.5,6.5,9.7,9.7c5.2,5.2,10.3,10.3,15.4,15.4c1.2,1.2,2.4,2.4,3.5,3.5c1.5,1.5,4.3,1.6,5.7,0
						S166.9,168.3,165.2,166.7L165.2,166.7z"/>
				</g>
			</g>
		</g>
		<g>
			<g>
				<g>
					<path d="M183.8,39.4c-4.8,4.8-9.7,9.7-14.6,14.6c-2.3,2.3-4.7,4.7-7,7c-0.2,0.2-0.3,0.3-0.5,0.5c-0.4,0.4-0.9,0.9-1.3,1.2
						c-0.4,0.3-0.8,0.6-1.1,0.9c0.1-0.1,0.6-0.5,0-0.1c-0.3,0.2-0.5,0.4-0.8,0.5c-0.7,0.5-1.4,0.9-2.2,1.3c-0.4,0.2-0.8,0.4-1.1,0.6
						c-0.2,0.1-0.5,0.2-0.7,0.3c-0.4,0.2-0.5,0.3,0,0c-0.8,0.4-1.8,0.7-2.6,0.9c-0.9,0.3-1.8,0.5-2.7,0.6c-0.2,0-0.4,0.1-0.6,0.1
						c-0.6,0.1,0.1-0.1,0.2,0c-0.1-0.1-1.1,0.1-1.2,0.1c-0.9,0.1-1.8,0.1-2.8,0.1c-0.9,0-1.9,0-2.8-0.2c0.1,0,0.9,0.1,0.2,0
						c-0.2,0-0.4-0.1-0.6-0.1c-0.5-0.1-1-0.2-1.5-0.3c-0.9-0.2-1.7-0.5-2.5-0.8c-0.3-0.1-0.5-0.2-0.8-0.3c-0.1,0-0.8-0.3-0.3-0.1
						c0.5,0.2-0.2-0.1-0.3-0.1c-0.3-0.1-0.6-0.3-0.9-0.4c-0.9-0.4-1.7-0.9-2.5-1.4c-0.4-0.2-0.8-0.5-1.1-0.8
						c-0.2-0.1-0.4-0.3-0.5-0.4c0.7,0.5-0.2-0.2-0.2-0.2c-0.3-0.3-0.7-0.6-1-0.9c0,0-0.5-0.5-0.5-0.5c-0.2,0.1,1.1,1.2-0.4-0.4
						c-0.3-0.3-0.6-0.7-1-1c-0.2-0.2-0.4-0.4-0.6-0.6c-0.1-0.1-0.6-0.8-0.3-0.4c0.3,0.4-0.1-0.2-0.2-0.3c-0.2-0.2-0.3-0.5-0.5-0.7
						c-0.2-0.4-0.5-0.8-0.7-1.1c-0.5-0.9-1-1.7-1.4-2.6c-0.1-0.2-0.2-0.4-0.3-0.6c0.3,0.8,0.1,0.2,0,0.1c-0.2-0.5-0.3-0.9-0.5-1.4
						c-0.3-0.9-0.6-1.9-0.8-2.8c-0.1-0.4-0.2-0.9-0.3-1.4c0-0.2-0.2-0.8,0,0.2c0-0.2,0-0.4-0.1-0.6c-0.1-0.9-0.1-1.8-0.1-2.8
						c0-0.9,0-1.7,0.1-2.6c0-0.2,0-0.4,0.1-0.6c0.1-0.6-0.2,1,0,0c0.1-0.4,0.2-0.9,0.2-1.4c0.2-0.9,0.4-1.7,0.7-2.5
						c0.1-0.4,0.3-0.8,0.4-1.2c0.1-0.2,0.1-0.4,0.2-0.6c0.3-0.9-0.3,0.6,0.1-0.2c0.8-1.7,1.8-3.3,2.8-4.9c0.1-0.1,0.5-0.6-0.1,0
						c0.1-0.2,0.3-0.3,0.4-0.5c0.3-0.3,0.6-0.7,0.9-1c0.3-0.3,0.6-0.7,0.9-1c1.8-1.8,3.7-3.7,5.5-5.5c5.5-5.5,11-11,16.4-16.4
						c0.1-0.1,0.2-0.2,0.3-0.3c2.1-2.1,1.2-6.1-1.8-6.8c-15.3-3.7-32-0.9-45,8.2C97.7,12.6,92,18.6,87.9,25.7
						c-4,6.8-6.4,14.4-7.4,22.2c-1,8.3,0,17,2.9,24.8c0.3-1.3,0.7-2.6,1-4c-4.3,4.3-8.5,8.5-12.8,12.8C66,87.2,60.4,92.8,54.7,98.4
						c-8.3,8.3-16.6,16.6-24.9,24.9c-6.1,6.1-12.3,12.3-18.4,18.4c-1.9,1.9-3.8,3.8-5.4,6c-6.2,8.6-6.2,21-0.2,29.7
						c5.8,8.4,15.7,12.7,25.8,11.3c5.9-0.8,11-3.8,15.2-7.9c5-5,9.9-9.9,14.9-14.9c8.2-8.2,16.5-16.5,24.7-24.7
						c6.7-6.7,13.3-13.3,20-20c4-4,8-8,11.9-11.9c1.1-1.1,2.3-2.3,3.4-3.4c-1.3,0.3-2.6,0.7-4,1c14.5,5,30.8,3.7,44.4-3.4
						c14-7.3,24.5-20.9,28.2-36.2c2-8.6,2.1-17.5,0.1-26.1c-0.5-2.1-3-3.5-5-2.8c-2.2,0.7-3.3,2.8-2.8,5c0.2,0.9,0.4,1.7,0.5,2.6
						c0.1,0.4,0.1,0.8,0.2,1.2c0,0.2,0.1,0.4,0.1,0.6c0.1,0.5-0.1-0.8,0,0c0.2,1.8,0.3,3.5,0.4,5.3c0,1.7,0,3.5-0.2,5.2
						c0,0.5-0.1,0.9-0.1,1.4c0,0.3-0.2,0.9-0.1,1.2c0-0.1,0.1-1,0-0.2c0,0.2-0.1,0.4-0.1,0.6c-0.1,0.5-0.2,1-0.3,1.5
						c-0.6,3.4-1.7,6.8-3,10.1c-0.3,0.7,0,0,0-0.1c0,0.2-0.2,0.4-0.2,0.6c-0.2,0.4-0.4,0.9-0.6,1.3c-0.4,0.8-0.8,1.6-1.2,2.4
						c-0.9,1.6-1.9,3.2-2.9,4.7c-0.2,0.3-0.5,0.7-0.8,1c-0.1,0.2-0.3,0.3-0.4,0.5c-0.1,0.1-0.5,0.6-0.2,0.2c0.4-0.5-0.3,0.3-0.3,0.3
						c-0.1,0.2-0.3,0.3-0.4,0.5c-0.3,0.4-0.6,0.8-1,1.1c-1.3,1.4-2.6,2.8-4,4.1c-0.6,0.6-1.3,1.1-1.9,1.7c-0.3,0.3-0.6,0.5-1,0.8
						c-0.6,0.5,0,0,0.1-0.1c-0.2,0.2-0.5,0.4-0.8,0.6c-1.4,1-2.9,2-4.4,2.9c-1.5,0.9-3.1,1.7-4.6,2.4c-0.4,0.2-0.8,0.3-1.1,0.5
						c1-0.4-0.4,0.1-0.6,0.2c-0.8,0.3-1.6,0.6-2.4,0.9c-1.7,0.5-3.4,1-5.1,1.4c-0.8,0.2-1.7,0.3-2.5,0.5c-0.4,0.1-0.8,0.1-1.2,0.2
						c-0.2,0-0.8,0.1,0.2,0c-0.2,0-0.5,0.1-0.8,0.1c-3.8,0.4-7.7,0.5-11.5,0.1c-0.3,0-1.9-0.2-0.7-0.1c-0.5,0-1-0.1-1.5-0.2
						c-0.9-0.1-1.8-0.3-2.7-0.5c-1.9-0.4-3.9-1-5.8-1.6c-1.3-0.5-3,0.1-4,1c-4.2,4.2-8.5,8.5-12.7,12.7
						c-5.4,5.4-10.9,10.9-16.3,16.3c-8.2,8.2-16.3,16.3-24.4,24.4c-6.3,6.3-12.7,12.7-19,19c-1,1-2,2-3,3c-0.3,0.3-0.7,0.7-1.1,1
						c-0.2,0.2-0.4,0.3-0.6,0.5c-0.2,0.2-0.6,0.6,0,0c-0.6,0.8-1.9,1.3-2.8,1.8c-0.5,0.2-0.9,0.5-1.4,0.7c-0.7,0.3,0.1,0,0.2-0.1
						c-0.1,0.1-0.6,0.2-0.8,0.3c-1,0.4-2,0.6-3.1,0.9c-0.2,0-0.5,0.1-0.7,0.1c-0.3,0.1-1.1,0,0,0c-0.4,0-0.9,0.1-1.4,0.1
						c-1,0.1-2,0-3.1,0c-0.1,0-0.7,0-0.8-0.1c0.2,0,0.3,0,0.5,0.1c-0.2,0-0.4-0.1-0.5-0.1c-0.5-0.1-0.9-0.2-1.4-0.3
						c-1-0.2-2-0.6-2.9-0.9c-0.9-0.3,0.8,0.4-0.1,0c-0.3-0.1-0.5-0.2-0.8-0.4c-0.4-0.2-0.9-0.4-1.3-0.7c-0.4-0.2-0.8-0.5-1.2-0.8
						c-0.2-0.2-0.5-0.3-0.7-0.5c-0.7-0.5,0.5,0.5-0.1-0.1c-0.9-0.7-1.7-1.5-2.5-2.3c-0.4-0.4-0.8-0.8-1.1-1.3
						c0.6,0.8-0.1-0.1-0.2-0.2c-0.2-0.3-0.4-0.5-0.5-0.8c-0.3-0.5-0.6-1-0.9-1.6c-0.1-0.2-0.2-0.5-0.4-0.7c-0.1-0.2-0.6-1.1-0.1-0.2
						c-0.6-1-0.8-2.3-1.1-3.4c-0.1-0.6-0.2-1.1-0.3-1.7c-0.1-0.6,0.1,1,0,0c0-0.3-0.1-0.6-0.1-1c-0.1-1.2,0-2.3,0.1-3.5
						c0.1-1.1-0.2,0.9,0-0.2c0-0.2,0.1-0.4,0.1-0.6c0.1-0.6,0.3-1.2,0.4-1.9c0.1-0.5,0.3-1,0.5-1.5c0.1-0.3,0.2-0.6,0.3-0.9
						c-0.3,0.6-0.1,0.1,0.1-0.2c0.5-1.1,1.1-2.1,1.8-3.1c0.1-0.2,0.3-0.4,0.4-0.5c0.6-0.9-0.5,0.6,0.2-0.2c0.4-0.5,0.9-1,1.4-1.5
						c0.3-0.3,0.5-0.5,0.8-0.8c5.1-5.1,10.3-10.3,15.4-15.4c8.1-8.1,16.2-16.2,24.3-24.3c6.6-6.6,13.1-13.1,19.7-19.7
						c3.9-3.9,7.8-7.8,11.8-11.8c1.1-1.1,2.2-2.2,3.4-3.4c1-1,1.5-2.6,1-4c-0.6-1.7-1.1-3.4-1.5-5.1c-0.4-1.6-1-3.5-1-5.2
						c0,0.1,0.1,0.9,0,0.2c0-0.2,0-0.4-0.1-0.6c0-0.4-0.1-0.8-0.1-1.2c-0.1-0.9-0.1-1.8-0.2-2.7c-0.1-1.7,0-3.4,0.1-5.1
						c0.1-0.9,0.1-1.7,0.2-2.6c0-0.1,0.2-1.4,0.1-0.8c-0.1,0.7,0-0.3,0.1-0.3c0-0.2,0.1-0.5,0.1-0.8c0.3-1.7,0.7-3.4,1.1-5.2
						c0.5-1.7,1-3.3,1.6-4.9c0.1-0.4,0.3-0.8,0.4-1.1c-0.4,0.9,0.1-0.2,0.2-0.4c0.4-0.8,0.8-1.7,1.2-2.5c0.8-1.6,1.7-3.2,2.7-4.7
						c0.5-0.8,1-1.5,1.5-2.2c0.1-0.2,0.9-1.2,0.3-0.4c0.3-0.4,0.7-0.8,1-1.2c2.4-2.8,5-5.4,7.9-7.7c0.6-0.5,0.1,0-0.1,0
						c0.2-0.2,0.4-0.3,0.6-0.5c0.3-0.2,0.7-0.5,1-0.8c0.8-0.5,1.6-1.1,2.4-1.6c1.6-1,3.2-1.8,4.8-2.6c0.4-0.2,0.8-0.4,1.1-0.5
						c0.2-0.1,0.4-0.2,0.6-0.2c0.3-0.1,0.5-0.4-0.1,0c0.7-0.5,1.8-0.7,2.6-1c1.7-0.6,3.3-1.1,5.1-1.5c1-0.2,2-0.4,3-0.6
						c0.5-0.1,1-0.2,1.5-0.2c0.2,0,0.8-0.2-0.2,0c0.2,0,0.5-0.1,0.8-0.1c2-0.2,4-0.3,6-0.3c1.9,0,3.9,0.1,5.8,0.3
						c0.2,0,0.4,0,0.6,0.1c-1.1-0.2,0,0,0.1,0c0.5,0.1,1,0.2,1.5,0.3c1,0.2,2,0.4,3,0.6c-0.6-2.3-1.2-4.5-1.8-6.8
						c-5.1,5.1-10.1,10.1-15.1,15.1c-2.3,2.3-4.6,4.6-6.9,6.9c-4.7,4.7-8,10.7-9,17.3c-1.3,8.9,1,17.7,6.6,24.7
						c0.3,0.4,0.6,0.7,0.9,1.1c0.2,0.2,0.3,0.3,0.5,0.5c0.1,0.1,0.2,0.2,0.2,0.3c0.3,0.3,0.3,0.3,0,0c-0.1-0.1-0.1-0.2-0.2-0.3
						c0.2,0.3,0.5,0.7,0.8,1c0.2,0.2,0.4,0.4,0.6,0.6c0.4,0.4,0.9,0.8,1.3,1.1c1.8,1.4,3.6,2.7,5.6,3.8c3.9,2,8.1,3.1,12.5,3.5
						c8.4,0.6,16.8-2.5,23-8.1c1.9-1.7,3.7-3.7,5.6-5.5c5.7-5.7,11.4-11.4,17.1-17.1c0.1-0.1,0.3-0.3,0.4-0.4c1.5-1.5,1.6-4.3,0-5.7
						C187.9,37.9,185.4,37.8,183.8,39.4z"/>
					<path d="M27.8,164.4C27.2,165,28.4,164,27.8,164.4c-0.2,0.2-0.4,0.3-0.5,0.4c0.5-0.2,0.6-0.2,0.3-0.1c-0.3,0.1-0.5,0.1-0.8,0.2
						c-0.3,0.1-0.2,0,0.4-0.1c-0.2,0-0.4,0-0.5,0c-0.8,0.1,0.8,0.3,0,0c-0.2-0.1-0.7-0.1-0.8-0.2c0.5,0.2,0.6,0.3,0.3,0.1
						c-0.1-0.1-0.2-0.1-0.4-0.2c-0.3-0.2-0.3-0.2,0,0s0.3,0.2,0-0.1c-0.3-0.3-0.3-0.3,0.1,0.2c-0.1-0.1-0.1-0.2-0.2-0.2
						c-0.1-0.2-0.2-0.3-0.3-0.5c0.1,0.2,0.1,0.3,0.2,0.5c-0.1-0.1-0.2-0.6-0.2-0.8c-0.2-0.8,0,0.9,0-0.1c0-0.9-0.1,0.3,0,0
						c0-0.2,0.1-0.8,0.3-0.9c-0.1,0.2-0.1,0.3-0.2,0.5c0.1-0.2,0.2-0.3,0.3-0.5c0.1-0.1,0.1-0.2,0.2-0.2c-0.3,0.4-0.4,0.5-0.1,0.2
						c0.3-0.2,0.3-0.3,0-0.1c-0.3,0.2-0.2,0.2,0,0c0.1-0.1,0.2-0.1,0.4-0.2c0.3-0.1,0.2-0.1-0.3,0.1c0.1-0.1,0.6-0.2,0.8-0.2
						c0.8-0.3-0.8,0,0,0c0.2,0,0.4,0,0.5,0c-0.6-0.1-0.7-0.1-0.4-0.1c0.3,0.1,0.5,0.1,0.8,0.2c0.3,0.1,0.2,0.1-0.3-0.1
						c0.1,0.1,0.2,0.1,0.4,0.2c0.9,0.5-0.4-0.4,0.2,0.2c0.6,0.6-0.3-0.7,0.1,0.1c0,0.1,0.1,0.2,0.1,0.2c0.2,0.4,0.2,0.3,0-0.2
						c0,0.2,0.2,0.6,0.2,0.8c0.2,0.8,0-0.8,0,0c-0.1,1.1,0.1,0,0.1,0c0,0-0.2,0.7-0.2,0.8c-0.2,0.7,0.4-0.7-0.1,0.2
						C27.4,165,28.3,163.8,27.8,164.4c-1.5,1.5-1.6,4.2,0,5.7c1.6,1.5,4.2,1.6,5.7,0c2.9-3,3.5-7.3,1.7-11c-1.6-3.3-5.4-5.5-9-5.2
						c-4,0.3-7.6,3.1-8.7,7.1c-1,4,0.6,8,4,10.3c3.7,2.6,8.8,1.8,12-1.2c1.5-1.5,1.6-4.3,0-5.7C31.9,162.8,29.4,162.8,27.8,164.4z"
						/>
				</g>
			</g>
			<g>
				<g>
					<path d="M49.8,146.2c1.7-1.7,3.5-3.5,5.2-5.2c4.2-4.2,8.4-8.4,12.6-12.6c5.1-5.1,10.1-10.1,15.2-15.2
						c4.4-4.4,8.7-8.7,13.1-13.1c2.1-2.1,4.3-4.2,6.4-6.4c0,0,0.1-0.1,0.1-0.1c1.5-1.5,1.6-4.3,0-5.7c-1.6-1.5-4.1-1.6-5.7,0
						c-1.7,1.7-3.5,3.5-5.2,5.2c-4.2,4.2-8.4,8.4-12.6,12.6c-5.1,5.1-10.1,10.1-15.2,15.2c-4.4,4.4-8.7,8.7-13.1,13.1
						c-2.1,2.1-4.3,4.2-6.4,6.4c0,0-0.1,0.1-0.1,0.1c-1.5,1.5-1.6,4.3,0,5.7C45.7,147.6,48.2,147.8,49.8,146.2L49.8,146.2z"/>
				</g>
			</g>
		</g>
	</g>
</g>
<g class="st0">
	<title>Artboard 11</title>
	<g class="st1">
		<path d="M189.1,79.4h-10.8c-2.2-9.9-5.9-19.1-11.4-27.6l7.5-7.5c1.8-1.8,1.8-4.4,0-6.1l0,0l-18.6-18.6c-1.8-1.8-4.4-1.8-6.1,0l0,0
			l-7.5,7.5c-8.3-5.5-17.8-9.4-27.6-11.4V4.8c0-2.4-2-4.4-4.4-4.4l0,0H83.8c-2.4,0-4.4,2-4.4,4.4V5v10.7
			c-9.9,2.2-19.1,5.9-27.6,11.4l-7.5-7.7c-1.8-1.8-4.4-1.8-6.1,0l0,0L19.6,38.1c-1.8,1.8-1.8,4.4,0,6.1l0,0l7.5,7.5
			c-5.5,8.3-9.4,17.8-11.4,27.6H4.9c-2.4,0-4.4,2-4.4,4.4l0,0v26.3c0,2.4,2,4.4,4.4,4.4h0.2h10.7c2.2,9.8,5.9,19,11.4,27.6l-7.7,7.7
			c-1.8,1.7-1.8,4.4,0,6.1l0,0l18.6,18.6c1.8,1.7,4.4,1.7,6.1,0l0,0l7.5-7.4c8.3,5.5,17.8,9.4,27.6,11.4V189c0,2.4,2,4.4,4.4,4.4
			l0,0h26.3c2.4,0,4.4-2,4.4-4.4v0v-10.7c9.8-2.2,19-5.9,27.6-11.4l7.4,7.5c1.7,1.8,4.4,1.8,6.1,0l0,0l18.6-18.6
			c1.7-1.8,1.7-4.4,0-6.1l0,0l-7.4-7.5c5.5-8.3,9.4-17.8,11.4-27.6h10.9c2.4,0,4.4-2,4.4-4.4l0,0V83.7
			C193.5,81.3,191.5,79.4,189.1,79.4L189.1,79.4z M184.7,105.7h-9.6c-2.2,0-3.9,1.5-4.4,3.7c-1.8,11.2-6.1,21.5-12.7,30.7
			c-1.3,1.8-1.1,4.2,0.4,5.7l7,7l-12.5,12.5l-7-7c-1.5-1.5-3.9-1.8-5.7-0.4c-9.2,6.6-19.7,11-30.7,12.7c-2.2,0.4-3.7,2.2-3.7,4.4
			v9.7H88.2V175c0-2.2-1.5-3.9-3.7-4.4c-11.2-1.8-21.6-6.1-30.8-12.7c-1.8-1.3-4.2-1.1-5.7,0.4l-7,7l-12.5-12.5l7-7
			c1.5-1.5,1.8-3.9,0.4-5.7c-6.6-9.2-11-19.7-12.8-30.7c-0.4-2.2-2.2-3.7-4.4-3.7H9.3V88.1h9.6c2.2,0,3.9-1.5,4.4-3.7
			c1.8-11.2,6.1-21.6,12.7-30.8c1.3-1.8,1.1-4.2-0.4-5.7l-7-7l12.5-12.5l7,7c1.5,1.5,3.9,1.8,5.7,0.4c9.2-6.6,19.7-11,30.7-12.8
			c2.2-0.4,3.7-2.2,3.7-4.4V9.2h17.5v8.8c0,2.2,1.5,4,3.7,4.4c11.2,1.8,21.6,6.2,30.8,12.9c1.8,1.3,4.2,1.1,5.7-0.4l7-7.1l12.5,12.7
			l-7,7.1c-1.5,1.6-1.8,4-0.4,5.8c6.6,9.3,11,20,12.8,31.1c0.4,2.2,2.2,3.8,4.4,3.8h9.5V105.7z"/>
		<path d="M96.3,35.5c-34,0-61.4,27.4-61.4,61.4s27.4,61.4,61.4,61.4s61.4-27.4,61.4-61.4S130.3,35.5,96.3,35.5z M88.2,148.7v-24.1
			c0-1.8-0.9-3.3-2.5-3.9c-13.5-6.1-19.1-21.7-12.8-34.9c1.6-3.3,3.8-6.1,6.5-8.3v17.3c0,4.8,3.9,8.8,8.8,8.8h17.5
			c4.8,0,8.8-3.9,8.8-8.8V77.4c11,9.7,12.1,26.1,2.2,36.8c-2.5,2.6-5.4,4.8-8.5,6.4c-1.6,0.7-2.5,2.2-2.5,3.9v24.1
			C99.8,149.7,93.8,149.7,88.2,148.7z M114.5,146.5v-19.3c16.7-9.7,22.6-30.9,12.9-47.6c-3.5-6.1-9-11.2-15.4-14.3
			c-2.2-1.1-4.8-0.2-5.9,2c-0.2,0.7-0.4,1.3-0.4,2v25.4H88.2V69.3c0-2.4-2-4.4-4.4-4.4c-0.7,0-1.3,0.2-2,0.4
			c-17.5,8.1-25,29-16.7,46.5c3.1,6.6,8.1,11.8,14.3,15.4v19.3c-28.4-10-42.7-41.8-30.9-70c10.1-24.2,37.1-37.2,62.4-30.3
			c29.8,8.2,45.7,39.6,35.7,68.3C141.3,129.4,129.5,141.2,114.5,146.5z"/>
	</g>
</g>
<g class="st0">
	<g class="st1">
		<path d="M205.4,138.8c-0.5-12-10.1-21.6-22.1-21.6c-11.2,0-20.5,8.7-21.8,20.7h-51.6V86.1h8.7c1.6-1.3,2.7-2.4,2.2-4V65.7
			c0.5-1.6-2.2-4.2-2.2-4.2h-6v-8.3c0-4.3-3.4-8.1-7.9-8.1H87.7c-4.2,0-7.9,3.5-7.9,8.1v8.3h-6c0,0-2.7,2.5-2.2,4.2V82
			c-0.5,1.6,0.5,2.7,2.2,4h8.7v51.9H31.2c-1.4-12.2-10.6-20.7-21.8-20.7c-12,0-21.6,9.6-22.1,21.6c0,0.3-0.3,0.5-0.3,0.8
			c0,1.6,1.1,2.7,2.7,3.8h96.4h20.2h96.6c1.6-1,2.7-2.1,2.7-3.8C205.7,139.4,205.7,139.1,205.4,138.8z M183.6,123.7
			c8.2,0,15,6.3,16.4,14.2h-32.8C168.3,130,175.1,123.7,183.6,123.7z M85,53.3c0-1.4,1.1-2.7,2.7-2.7h16.8c1.3,0,2.6,1.1,2.6,2.7
			v8.3H85.3v-8.2H85z M76.8,69.7h5.4h27.7h5.4v10.9h-9.2H86.2h-9.2V69.7H76.8z M9.4,123.7c8.2,0,15,6.3,16.4,14.2H-7
			C-5.6,130,1.2,123.7,9.4,123.7z M90.7,137.9V86.1h13.6v51.9H90.7z"/>
		<path d="M55,39.2c0.5,0.5,1.4,0.8,1.9,0.8c0.8,0,1.4-0.3,1.9-0.8c1.1-1.1,1.1-2.7,0-3.8l-7.6-7.9c-1.1-1.1-2.7-1.1-3.8,0
			c-1.1,1.1-1.1,2.7,0,3.8L55,39.2z"/>
		<path d="M33.4,53.9L43.5,56c0.3,0,0.3,0,0.5,0c1.4,0,2.5-0.8,2.7-2.2c0.3-1.4-0.5-3-2.2-3.3l-10.1-2.2c-1.4-0.3-3,0.5-3.3,2.2
			C31,52.2,32,53.6,33.4,53.9z"/>
		<path d="M34,83.3c0.3,0,0.3,0,0.5,0l10.1-2.2c1.4-0.3,2.5-1.6,2.2-3.3c-0.3-1.4-1.6-2.5-3.3-2.2l-10.1,2.2
			c-1.4,0.3-2.5,1.6-2.2,3.3C31.8,82.5,32.9,83.3,34,83.3z"/>
		<path d="M53.6,93.5l-6.3,6.6c-1.1,1.1-1.1,2.7,0,3.8c0.5,0.5,1.1,0.8,1.9,0.8c0.8,0,1.4-0.3,1.9-0.8l6.3-6.6
			c1.1-1.1,1.1-2.7,0-3.8C56.3,92.4,54.7,92.4,53.6,93.5z"/>
		<path d="M138.8,40c0.8,0,1.4-0.3,1.9-0.8l7.6-7.9c1.1-1.1,1.1-2.7,0-3.8s-2.7-1.1-3.8,0l-7.6,7.9c-1.1,1.1-1.1,2.7,0,3.8
			C137.4,39.7,138,40,138.8,40z"/>
		<path d="M149.2,53.9c0.3,1.4,1.4,2.2,2.7,2.2c0.3,0,0.3,0,0.5,0l10.1-2.2c1.4-0.3,2.5-1.6,2.2-3.3c-0.3-1.4-1.6-2.5-3.3-2.2
			l-10.4,2.2C149.7,50.9,148.6,52.2,149.2,53.9z"/>
		<path d="M151.1,81.2l10.1,2.2c0.3,0,0.3,0,0.5,0c1.4,0,2.5-0.8,2.7-2.2c0.3-1.4-0.5-3-2.2-3.3l-10.1-2.2c-1.4-0.3-3,0.5-3.3,2.2
			C148.6,79.2,149.7,80.6,151.1,81.2z"/>
		<path d="M142.1,93.5c-1.1-1.1-2.7-1.1-3.8,0c-1.1,1.1-1.1,2.7,0,3.8l6.3,6.6c0.5,0.5,1.4,0.8,1.9,0.8c0.8,0,1.4-0.3,1.9-0.8
			c1.1-1.1,1.1-2.7,0-3.8L142.1,93.5z"/>
	</g>
</g>
<g class="st0">
	<title>a</title>
	<g class="st1">
		<circle cx="66.4" cy="128" r="7.7"/>
		<path d="M196.4,108.1V97.4c0-1.1-0.4-1.9-1.1-2.7l-19.1-19.1c-0.8-0.8-1.5-1.1-2.7-1.1h-57.4V36.2c0-4.2-3.4-7.7-7.7-7.7H70.2
			c-4.2,0-7.7,3.4-7.7,7.7V63H-1c-2.3,0-4.2,0.8-5.7,2.7c-3.4,3.4-7.3,12.2-7.3,31.8v26.8c0,4.2,3.4,7.7,7.7,7.7h4.2
			c1.9,12.6,13.8,21,26.4,18.7c9.6-1.5,17.2-9.2,18.7-18.7h0.8c1.9,12.6,13.8,21,26.4,18.7c9.6-1.5,17.2-9.2,18.7-18.7h2.7
			c1.9,0,3.8-0.8,5.4-2.3l16.8-16.8c1.5-1.5,2.3-3.4,2.3-5.4v-9.9h48.2l7.7,7.7h-40.6c-4.2,0-7.7,3.4-7.7,7.7v24.5
			c0,3.1,1.5,5.7,4.2,6.9l13.4,6.5l0,0c0.4,0.4,1.1,0.4,1.5,0.4h11.5c2.3,0,3.8-1.5,3.8-3.8c0-2.3-1.5-3.8-3.8-3.8h-7.7v-30.6h21
			c-9.1,10.4-7.5,26.6,4.5,34.5c8.7,5.8,20.7,4.9,28.3-2.3c10.1-9.5,9.8-25.2-0.3-34.2C199.1,110,198,108.9,196.4,108.1z M85.5,89.8
			V51.5h23v38.3H85.5z M-6.3,97.4c0-19.1,4.2-25.3,5.4-26.8h63.5v34.8c-9.6,1.5-17.2,9.2-18.7,18.7h-0.4c0,0,0,0,0-0.4
			c-2.3-12.6-14.4-20.7-27.2-18.4C6.4,107-1,114.6-2.5,123.8c0,0,0,0,0,0.4h-3.8V97.4z M20.5,143.3c-8.4,0-15.3-6.9-15.3-15.3
			s6.9-15.3,15.3-15.3s15.3,6.9,15.3,15.3S28.9,143.3,20.5,143.3z M66.4,143.3c-8.4,0-15.3-6.9-15.3-15.3s6.9-15.3,15.3-15.3
			s15.3,6.9,15.3,15.3S74.9,143.3,66.4,143.3z M108.4,107l-17.2,17.2h-2.7c-1.6-9.4-9-16.8-18.3-19.1c-0.4,0,0.4,0,0,0V36.2h38.3
			v7.7h-23c-4.2,0-7.7,3.4-7.7,7.7v38.3c0,4.2,3.4,7.7,7.7,7.7h23V107z M165.8,89.8h-49.7v-7.7h55.9l16.8,16.8v6.1h-0.4
			c-1.1-0.4-2.3-0.4-3.4-0.4c-1.1,0-2.3,0-3.4,0.4h-0.4v-0.4c0-1.1-0.4-1.9-1.1-2.6l-11.5-11.2C167.7,90.1,167,89.8,165.8,89.8z
			 M131.4,112.7h7.7V141l-7.7-3.8V112.7z M185.1,143.3c-8.4,0-15.3-6.9-15.3-15.3c0-6.1,3.4-11.5,9.2-13.8l0,0
			c3.1-1.1,6.1-1.5,9.2-0.8c8.4,1.9,13.4,9.9,11.9,18.4C198.4,138.3,192.3,143.3,185.1,143.3z"/>
		<circle cx="185.1" cy="128" r="7.7"/>
		<circle cx="20.5" cy="128" r="7.7"/>
		<path d="M5.2,97.4h30.6c2.3,0,3.8-1.5,3.8-3.8s-1.5-3.8-3.8-3.8H5.2c-2.3,0-3.8,1.5-3.8,3.8S2.9,97.4,5.2,97.4z"/>
		<path d="M5.2,85.9h30.6c2.3,0,3.8-1.5,3.8-3.8c0-2.3-1.5-3.8-3.8-3.8H5.2c-2.3,0-3.8,1.5-3.8,3.8C1.4,84.4,2.9,85.9,5.2,85.9z"/>
	</g>
</g>
<g class="st0">
	<title>015 - Tractor</title>
	<desc>Created with Sketch.</desc>
	<g class="st1">
		<g>
			<path d="M26.2,129.5c-10.3,0-18.4,8.1-18.4,18.4c0,10.3,8.1,18.4,18.4,18.4s18.4-8.1,18.4-18.4C44.6,137.6,36.5,129.5,26.2,129.5
				z M26.2,159c-6.3,0-11.1-4.8-11.1-11.1c0-6.3,4.8-11.1,11.1-11.1s11.1,4.8,11.1,11.1C37.3,154.2,32.5,159,26.2,159z"/>
			<path d="M136.8,151.6c-4.4,0-8.5,2.6-10.3,7c-1.8,4.1-0.7,8.8,2.6,12.2c3.3,3.3,8.1,4.1,12.2,2.6c4.1-1.8,7-5.9,7-10.3
				C147.9,156.8,143.1,151.6,136.8,151.6z M136.8,166.4c-2.2,0-3.7-1.8-3.7-3.7c0-2.2,1.8-3.7,3.7-3.7c2.2,0,3.7,1.8,3.7,3.7
				C140.5,164.9,139,166.4,136.8,166.4z"/>
			<path d="M43.2,185.9c10.7-4.8,18.8-14.4,22.1-25.8h46.1c-1.5,10.3,3.3,20.6,12.2,25.8 M150.3,184.8c7.4-4.4,12.2-12.5,12.5-21.4
				s-3.7-17-11.1-22.1v-29.5c0-1.8-1.5-3.3-3.3-3.7l-22.1-2.6l10-52.3h37.6h16.6c1.1,0,1.8-0.4,2.6-1.1l12.9-12.9
				c1.4-1.4,1.4-3.7,0-5.2L174.6,2.7c-1.4-1.4-3.7-1.4-5.2,0l-12.9,12.9c-0.7,0.7-1.1,1.5-1.1,2.6v16.6c0,1.1,0.4,1.8,1.1,2.6
				l8.5,8.5h-30.2l-7.4-7.4h16.8c0,0,3.7-2.6,3.7-4.8s-1.5-3.7-3.7-2.6h-25.8c-0.4-1.1-0.7-1.1-1.5-0.7c0,0-0.4,0-0.4,0.4
				c-0.4,0-0.7,0.4-1.7,0.4l0,0v0.4c0.5,0.4,0.5,0.4,0.5,0.7l3.1,0.4v0.4l-17.1,68.9l-12.3-1.5V56.9c0-2-1.7-3.7-3.7-3.7H19
				c-2.2,0-3.7,1.5-3.7,3.7c0,2.2,1.5,3.7,3.7,3.7h3.7v33.2H19c-2.2,0-3.7,1.5-3.7,3.7c0,2.2,1.5,3.7,3.7,3.7h3.7v6.6
				c-18.4,1.5-33.2,15.5-36.1,33.5s6.3,35.8,22.9,43.5 M162.8,19.6l9.2-9.2l26.2,26.2l-9.2,9.2h-13.6l-12.5-12.5V19.6z M81.7,104.8
				v14.7h-5.5c-4.4-8.5-11.8-15.9-20.3-20.3V60.6h25.8V104.8z M30.1,60.6h18.4V96c-4.8-1.5-9.6-2.2-14.7-2.2h-3.7V60.6z M33.8,101.1
				c5.9,0,11.4,1.1,17,3.7c8.8,4.1,15.9,11.1,19.9,19.9c2.6,5.2,3.7,11.1,3.7,17v11.1l-7.4,0c-0.1-0.1-0.1-0.1-0.1-0.2
				c1.9-22.6-14.5-41.8-36.7-43.7v-7.7H33.8z M26.2,181.1c-14,0-26.5-8.8-31.3-22.1c-4.8-13.3-0.7-28,10.3-36.9
				c10.7-8.8,26.2-10,38-2.6c11.8,7.4,18.1,21.4,15.5,35C55.7,170,42.1,181.1,26.2,181.1z M155.2,162.7c0,10.3-8.1,18.4-18.4,18.4
				s-18.4-8.1-18.4-18.4s8.1-18.4,18.4-18.4S155.2,152.3,155.2,162.7z M144.4,139.1c-12.2-3.7-25.1,2.2-30.6,13.6H81.7v-11.1
				c0-5.2-0.7-10-2.2-14.7h5.9c0,0,0,0,0.4,0c0.4,0,0,0,0,0l47.2,3.7h0.4c2.2,0,3.7-1.5,3.7-3.7s-1.5-3.7-3.7-3.7l-44.2-3.3v-10.7
				l55.3,6.6V139.1z M108.4,102.6L120.6,41l8.5,8.5l-10.3,54.2L108.4,102.6z"/>
		</g>
	</g>
</g>
<g class="st0">
	<path class="st1" d="M179.3,8.6L-13.8,146.2c-2,1.4-2.4,3.7-1,5.7l0,0L9,185.2c1.4,2,3.7,2.4,5.7,1l0,0L207.8,48.6
		c2-1.4,2.4-3.7,1-5.7l0,0L185,9.6C183.6,7.6,181.3,7.2,179.3,8.6L179.3,8.6z M186.4,53.8l-11.7,8.3c1.5-12.6-6.5-24-19-26.6
		l11.7-8.3L186.4,53.8z M29.2,146.7c-5.2-7.3-3.5-17.6,3.8-22.8c7.3-5.2,17.6-3.5,22.8,3.8c5.2,7.3,3.5,17.6-3.8,22.8
		C44.7,155.7,34.5,154,29.2,146.7z M49.2,111.4l21.6-15.4l7.1,10c1.4,2,3.7,2.4,5.7,1l0,0l26.6-19c2-1.4,2.4-3.7,1-5.7l0,0l-7.1-10
		l21.6-15.4c-1.5,12.6,6.5,24,19,26.6L68.2,138C69.4,125.6,61.3,114.3,49.2,111.4z M135.8,70.8c-5.2-7.3-3.5-17.6,3.8-22.8
		c7.3-5.2,17.6-3.5,22.8,3.8s3.5,17.6-3.8,22.8C151.3,79.8,141,78.1,135.8,70.8z M97.5,77l4.7,6.7l-20,14.2l-4.7-6.7L97.5,77z
		 M-5.7,150.5l6.7-4.7l19,26.6l-6.7,4.7L-5.7,150.5z M7.6,141l11.7-8.3c-1.5,12.6,6.5,24,19,26.6l-11.7,8.3L7.6,141z M199.7,44.3
		L193,49l-19-26.6l6.7-4.7L199.7,44.3z"/>
	<path class="st1" d="M34.5,147l20-14.2c2-1.4,2.4-3.7,1-5.7s-3.7-2.4-5.7-1l-20,14.2c-2,1.4-2.4,3.7-1,5.7S32.5,148.4,34.5,147z"/>
	<path class="st1" d="M141,71.1l20-14.2c2-1.4,2.4-3.7,1-5.7c-1.4-2-3.7-2.4-5.7-1l-20,14.2c-2,1.4-2.4,3.7-1,5.7
		C136.7,72.1,139,72.5,141,71.1z"/>
</g>
<g class="st0">
	<path class="st1" d="M179.2-11L150,23v31.6h-23.9V23L97-11L67.8,23v31.6H44V23L14.8-11l-29.2,34v182.7H44v-37.1h23.9v37.1h58.4
		v-37.1H150v37.1h58.4V23L179.2-11z M36,200.4H-9.1v-31.8H36v31.7V200.4z M36,163.3H-9.1V62.5H36v99.9V163.3z M36,54.6H-9.1V25.1
		L13.4-1.9L36,25.1V55V54.6z M67.8,163.3H44V62.5h23.9V163.3z M120.6,200.4H73.1v-31.8h47.7v31.8H120.6z M120.6,163.3H73.1V62.5
		h47.7v100.8H120.6z M120.6,54.6H73.1V25.1L97-1.9l23.9,27.1v29.4H120.6z M150,163.3h-23.9V62.5H150V163.3z M200.4,200.4h-45.1
		v-31.8h45.1v31.7V200.4z M200.4,163.3h-45.1V62.5h45.1v99.9V163.3z M202.8,54.6h-47.5V25.1l23.9-27.1l23.9,27.1v29.4H202.8z"/>
</g>
</svg>
