<?xml version="1.0" encoding="utf-8"?>
<!-- Generator: Adobe Illustrator 23.0.4, SVG Export Plug-In . SVG Version: 6.00 Build 0)  -->
<svg version="1.1" id="Layer_1" xmlns="http://www.w3.org/2000/svg" xmlns:xlink="http://www.w3.org/1999/xlink" x="0px" y="0px"
	 viewBox="0 0 149.4 146" style="enable-background:new 0 0 149.4 146;" xml:space="preserve">
<style type="text/css">
	.st0{display:none;}
	.st1{display:inline;}
</style>
<g class="st0">
	<g class="st1">
		<path d="M5.1,159l204.3,0c2.4,0,4.6-1.4,5.4-3.6c1.2-3.7-1.6-7.2-5.1-7.2h-11.9c3.5-12.1,8.6-26.4,16.2-37c0,0,0-0.3,0.3-0.3v-0.9
			c0,0-0.5-1.9-0.5-3c0-3-2.4-5.4-5.4-5.4c-0.8,0-1.6,0.3-2.2,0.5c-1.3,0.5-15.9,7-30,20c-2.2-7.8-4.3-18.1-5.4-30
			c-0.3-2.2-1.9-4.3-4-4.9c-2.2-0.5-4.6,0.3-5.9,2.2c-0.3,0.5-6.2,9.4-12.4,22.1c-5.1-22.4-1.9-48-1.6-48.3c0.3-2.7-1.1-5.1-3.5-5.9
			c-2.4-0.8-5.1,0.3-6.5,2.4l-40.5,71c-4.6-39.4,6.7-85.3,7-85.8c0.5-2.4-0.5-4.9-2.7-6.2c-2.2-1.1-4.9-0.5-6.5,1.3
			c-15.9,18.9-25.4,42.4-31,63.1c-5.7-15.1-10.3-24-10.5-24.6c-1.3-2.4-4-3.5-6.5-2.7c-2.4,0.8-4,3.5-3.5,6.2
			c1.1,5.4,1.3,20.5,1.1,42.4C34,109.3,25.4,98.5,24.8,97.9c-1.6-2.2-4.6-2.7-7-1.3c-2.4,1.3-3.2,4.3-2.2,6.7
			c7.8,17.8,8.9,32.9,8.1,44.9H5.4c-3-1.5-5.4,1-5.4,3.9S5.1,159,5.1,159z M194.3,122.3c-3.8,8.9-6.7,17.8-8.9,25.9h-16.7
			c2.4-4,5.4-7.8,8.9-11.3l0.3-0.3C183.2,130.7,189.2,126.1,194.3,122.3z M162.2,109.6c1.6,8.6,3.5,16.2,5.4,22.1
			c-4.6,5.1-8.4,10.5-11.3,16.5h-8.6c1.1-5.7,2.7-11.6,5.4-18.1C155.7,122.3,159.2,115.3,162.2,109.6z M141.9,128.3
			c-2.7,7-4.3,13.8-5.4,20h-37l35.1-61.8C134.9,99.1,136.5,115,141.9,128.3z M88,147.2l-0.5,1.1H75.8c-1.6-7.8-3.8-15.9-6.2-23.7
			c3-15.7,8.4-35.6,18.1-54.2C84.5,91.3,82,121.5,88,147.2z M58.8,126.1L58.8,126.1c2.2,7.6,4,14.8,5.7,22.1h-8.4
			c-0.8-1.6-1.6-3-2.4-4.3c0.3-10,0.5-20.8,0.5-31C55.9,116.9,57.2,121.3,58.8,126.1z M34,131.2c3.3,5.3,6.7,10.8,10,17c0,0,0,0,0,0
			l-9.4,0C34.8,143.4,34.8,137.7,34,131.2z"/>
	</g>
</g>
<g class="st0">
	<path class="st1" d="M54.7,181c1,1,1.5,2.2,1.5,3.4s-0.5,2.4-1.5,3.4c-1,1-2.2,1.5-3.4,1.5c-0.7,0-1.2-0.2-1.9-0.5
		c-0.5-0.2-1.2-0.5-1.5-1c-1-1-1.5-2.2-1.5-3.4s0.5-2.4,1.5-3.4c1.2-1.2,2.9-1.7,4.4-1.5c0.2,0,0.5,0.2,1,0.2
		c0.2,0.2,0.5,0.2,0.7,0.5S54.5,180.8,54.7,181z M202.4,192.1c-0.2-0.2-0.2-0.5-0.5-0.7c-0.2-0.2-0.5-0.5-0.5-0.7
		c-1.2-1.2-3-1.7-4.5-1.5c-0.2,0-0.7,0.2-1,0.2c-0.2,0.2-0.5,0.2-0.7,0.5c-0.2,0.2-0.5,0.5-0.7,0.5c-0.2,0.2-0.5,0.5-0.5,0.7
		c-0.2,0.2-0.2,0.5-0.5,0.7c-0.2,0.2-0.2,0.5-0.2,1c0,0.2,0,0.7,0,1c0,1.2,0.5,2.5,1.5,3.5c0.7,1.2,2,1.7,3.2,1.7
		c0.7,0,1.2-0.2,2-0.5c0.5-0.2,1.2-0.5,1.5-1c1-1,1.5-2.2,1.5-3.5c0-0.2,0-0.7,0-1C202.7,192.9,202.7,192.4,202.4,192.1z
		 M221.8,200.3c-2.2,9.4-10,16.9-19.6,18.4c-9.7,1.6-18.4-2.6-23.5-9.4H76c-6.7,6.7-16.3,10.4-26.6,9.6
		c-16.4-1.3-29.7-14.5-31.2-30.9c-1.6-18.1,11-33.8,28.1-36.6L24.4,33.2C24,31,22,29.3,19.6,29.3l-10.9,0c-2.1,0-4.2-1.2-4.8-3.2
		c-1.1-3.3,1.4-6.5,4.6-6.5h11.4c7.1,0,12.9,4.9,14.3,11.7l22.1,119.9c1.5,0.2,2.7,0.5,4.1,0.7l50.1,6.8v-15.1h-7.3
		c-2.7,0-4.9-2.2-4.9-4.9v-4.9c0-13.4,10.9-24.3,24.3-24.3h14.6c13.4,0,24.3,10.9,24.3,24.3v4.9c0,2.7-2.2,4.9-4.9,4.9h-7.3v20.2
		l49.1,6.6C213.5,170.7,225.3,184.8,221.8,200.3z M151,133.9c0-8-6.6-14.6-14.6-14.6h-14.6c-8,0-14.6,6.6-14.6,14.6H151z
		 M120.3,143.6v16.3l19.5,2.7v-19H120.3z M75.6,184.4c0-11.2-7.5-20.4-17.8-23.3l-6.8-1C37.7,160.3,27,171,27,184.4
		s10.9,24.3,24.3,24.3S75.6,197.8,75.6,184.4z M179.7,177.9L78.3,164.3c4.4,5.8,7.1,12.9,7.1,20.7c0,5.4-1.2,10.2-3.4,14.6h91.4
		c-0.2-1.7-0.5-3.2-0.5-4.9C172.9,188.1,175.6,182.3,179.7,177.9z M211.8,194.1c0-8-6.6-14.6-14.6-14.6c-8,0-14.6,6.6-14.6,14.6
		c0,8,6.6,14.6,14.6,14.6C205.3,208.7,211.8,202.2,211.8,194.1z"/>
</g>
<g class="st0">
	<path class="st1" d="M28.1,164.2c4.2,0.4,7.7-1.1,10.4-4.1c4.2,5.1,11.8,5.7,16.9,1.2c0.6-0.3,0.9-0.9,1.2-1.2
		c4.2,5.1,11.8,5.7,16.9,1.2c0.6-0.3,0.9-0.9,1.2-1.2c4.2,5.1,11.8,5.7,16.9,1.2c0.6-0.3,0.9-0.9,1.2-1.2c4.2,5.1,11.8,5.7,16.9,1.2
		c0.6-0.3,0.9-0.9,1.2-1.2c4.2,5.1,11.8,5.7,16.9,1.2c2.4-2.1,3.9-4.8,4.2-8.1l31,31c1.1,1.1,2.3,1.2,5.5,0.2
		c10.6-3.4,17.7-13.4,17.7-24.6l0-46.7h3c1.7,0,3-1.3,3-3V97.9v-0.3v-0.3l-6-36.2c-0.3-1.5-1.5-2.4-3-2.4h-18.1
		c-1.5,0-2.7,1.2-3,2.4l-6,36.2v0.3v0.3V110c0,1.7,1.3,3,3,3h3v38l-30.1-30.1l0-59.3c0-6.3-5.1-12.2-11.3-12.6
		c-3.9-0.2-7.5,1.3-9.8,4.2c-4.2-5.1-11.8-5.7-16.9-1.2c-0.6,0.3-0.9,0.9-1.2,1.2C88.5,48,81,47.4,75.9,51.9
		c-0.6,0.3-0.9,0.9-1.2,1.2c-4.2-5.1-11.8-5.7-16.9-1.2c-0.6,0.3-0.9,0.9-1.2,1.2c-4.2-5.1-11.8-5.7-16.9-1.2
		c-0.6,0.3-0.9,0.9-1.2,1.2c-4.2-5.1-12.1-5.7-16.9-1.2c-2.7,2.1-4.2,5.4-4.2,9l0,90.8C17.4,157.7,22.2,163.6,28.1,164.2z
		 M186.2,107h-24.1v-6h24.1V107z M167.2,64.8h13l5.1,30.1h-22.9L167.2,64.8z M180.2,113v51.2c0,7.2-5.1,13.3-12.1,14.8v-66H180.2z
		 M162.1,158.6v15.7l-30.1-30.1v-15.7L162.1,158.6z M125.9,61.3c0,14.5,0,75.4,0,89.8c0,2.6-1.5,5.2-4,6c-4.2,1.4-8-1.7-8-5.7V61
		c0-4,3.9-7.1,8-5.7C124.4,56.1,125.9,58.7,125.9,61.3z M107.8,61.3c0,14.5,0,75.4,0,89.8c0,2.6-1.5,5.2-4,6c-4.2,1.4-8-1.7-8-5.7
		V61c0-4,3.9-7.1,8-5.7C106.3,56.1,107.8,58.7,107.8,61.3z M89.7,61.3c0,14.5,0,75.4,0,89.8c0,2.6-1.5,5.2-4,6c-4.2,1.4-8-1.7-8-5.7
		V61c0-4,3.9-7.1,8-5.7C88.2,56.1,89.7,58.7,89.7,61.3z M71.7,61.3c0,14.5,0,75.4,0,89.8c0,2.6-1.5,5.2-4,6c-4.2,1.4-8-1.7-8-5.7V61
		c0-4,3.9-7.1,8-5.7C70.1,56.1,71.7,58.7,71.7,61.3z M53.6,61.3c0,14.5,0,75.4,0,89.8c0,2.6-1.5,5.2-4,6c-4.2,1.4-8-1.7-8-5.7V61
		c0-4,3.9-7.1,8-5.7C52,56.1,53.6,58.7,53.6,61.3z M23.4,61c0-4,3.9-7.1,8-5.7c2.5,0.8,4,3.4,4,6c0,14.5,0,75.4,0,89.8
		c0,2.6-1.5,5.2-4,6c-4.2,1.4-8-1.7-8-5.7V61z"/>
	<path class="st1" d="M174.1,36.9c-1.8,0-3,1.2-3,3v9c0,1.8,1.2,3,3,3c1.8,0,3-1.2,3-3v-9C177.1,38.1,175.9,36.9,174.1,36.9z"/>
	<path class="st1" d="M177.1,18.8c0-1.8-1.2-3-3-3c-1.8,0-3,1.2-3,3v9c0,1.8,1.2,3,3,3c1.8,0,3-1.2,3-3V18.8z"/>
	<path class="st1" d="M149.7,36.9c0,1.8,1.2,3,3,3c5.1,0,9,3.9,9,9c0,1.8,1.2,3,3,3s3-1.2,3-3c0-8.4-6.6-15.1-15.1-15.1
		C150.9,33.9,149.7,35.1,149.7,36.9z"/>
	<path class="st1" d="M194.9,33.9c-8.4,0-15.1,6.6-15.1,15.1c0,1.8,1.2,3,3,3s3-1.2,3-3c0-5.1,3.9-9,9-9c1.8,0,3-1.2,3-3
		S196.8,33.9,194.9,33.9z"/>
</g>
<g class="st0">
	<g class="st1">
		<path d="M95.3,94.3c-4.2,3.9-4.3,10.1-0.4,14.3c3.9,4.2,10.1,4.3,14.3,0.4s4.3-10.1,0.4-14.3C105.7,90.6,99.5,90.4,95.3,94.3z
			 M104.5,104.1c-1.5,1.4-3.4,1.3-4.8-0.1s-1.3-3.4,0.1-4.8c1.5-1.4,3.4-1.3,4.8,0.1C106.1,100.8,106,102.7,104.5,104.1z"/>
		<path d="M205.6,115.1L162.4,93l0,0c-0.2-0.2-0.7-0.3-1.2-0.3l0,0l0,0l-31.1-2.6l-0.2-0.2l-31.2-62l0,0C93,16.8,82.1,8.8,69.7,6.8
			c-6.3-1.1-12.4-0.5-18.3,1.3c-1.2-0.3-1.5,0-2,0.4c-0.5,0.5-0.8,0.7-0.8,1.2c-0.5,1-0.3,2.2,0.4,2.9l42.1,64.4l-0.5,0.5L80,87.6
			L18.4,41.5c-1-0.5-2.2-0.8-2.9-0.5c-0.7,0.2-1,0.5-1.5,0.9c-0.5,0.5-0.8,0.7-0.8,1.2c-2.4,6-2.9,12.1-2.4,18.2l0,0l0,0l0,0
			c1.2,12.4,8.6,23.8,19.3,30.1l60,34.9l0.2,0.2l0.7,31.2l0,0l0,0c0,0.5,0.2,0.7,0.2,1.2l0,0l19.5,44.5c1.8,3.9,5.1,6.9,8.9,8.5
			c4.1,1.3,8.5,0.9,12.5-1c1.2-0.7,2.5-1.4,3.5-2.4c5.1-4.8,6.6-12.3,3.4-18.7l-21.5-43.1l-5.6-24.7l12.1-11.4l24.3,7.1l41.7,24
			c6.2,3.5,13.8,2.5,18.8-2.3c1-1,1.8-2.2,2.6-3.4c2.3-3.6,2.8-8.2,1.7-12.4C212.2,120.6,209.4,117.1,205.6,115.1z M92.8,33.4
			L92.8,33.4L118,82.2l-2.3-2.4c-0.7-0.7-1.4-1.5-2.3-2c-0.2-0.2-0.5-0.5-0.7-0.3c-0.7-0.3-1.2-0.7-1.9-1c-0.2-0.2-0.2-0.2-0.7-0.3
			c-0.9-0.5-1.9-0.5-2.8-1l-0.5,0l-0.5,0l0,0c1.2-1.2,1.5-2.8,0.6-4.3L77.1,18.6C83.6,21.2,89.7,26.6,92.8,33.4z M63.9,17.3
			c0.5,0,1,0,1.4,0c1,0,1.7,0.3,2.6,0.3l31.9,55.9l-2.4,2.3l-38.5-58C60.5,17.7,62.2,17.5,63.9,17.3z M20.3,59.8c0-0.5,0-1,0-1.4
			c0-1.4,0.3-3.1,0.6-4.7l55.9,41.7l-2.4,2.3L20.4,62.4C20.4,61.4,20.5,60.5,20.3,59.8z M133.5,193.7c2,4.1,0.4,9.3-3.7,11.3
			c-2.2,1.1-4.3,1.3-6.9,0.5c-2.1-0.8-4-2.3-4.9-4.7L100,160.1l13.5-6.3L133.5,193.7z M111.1,147.9l-12.3,5.6l-1-23.1
			c0.7,0.3,1.4,0,2.4,0.1l0.5,0c0.5,0,1.2-0.2,1.7-0.2c0.2-0.2,0.5,0,0.7-0.2c0.5,0,0.7-0.2,1.4-0.4c0.2-0.2,0.7-0.2,1-0.4
			c0.2-0.2,0.7-0.2,1-0.4L111.1,147.9z M123,107.2L108.3,121c-2.7,2.5-7,3.4-10.5,2.1c-0.5,0-0.9-0.5-1.6-0.8L37.2,87.7
			c-6.5-4-11.6-9.9-14-16.8l50.4,32.9c1.2,0.7,3.1,0.8,4.3-0.3l7.3-6.9L97.5,85c4.1-3.8,10.4-3.6,14.3,0.4l11.5,12.2
			c0.5,0.5,1.4,1,2.1,1.3l3.1,0.3l0,0L156,102l-6.3,11.9l-23.3-7.1C125.2,106,124,106.2,123,107.2z M204.9,128.8
			c0.6,2.2,0.3,4.8-0.9,6.9c-2.3,4-7.5,5.2-11.5,3l-38.4-22.6l7.1-13.1l39.6,20.5C202.7,124.9,204.3,126.6,204.9,128.8z"/>
	</g>
</g>
<g class="st0">
	<g class="st1">
		<g>
			<path d="M119.5,89.4c11.5-1.5,20.9-7.9,20.9-14.9c0-4.9-4.4-8.5-8.2-10.7c-5.5-3.2-11.9-4.5-18.1-4.5c4-4,7.4-9,9.2-14.4
				c1.5-4.7,2.3-11-1.3-14.9c-3.3-3.3-9-3-13.4-1.8c-6,1.7-11.7,5.2-16.1,9.7c0-8.2-2.3-17.9-8.9-23.6c-2.3-2.2-5.7-3.3-9-2.2
				c-4.2,1.5-7,5.5-8.9,9.4c-2.5,5-3.7,10.7-3.5,16.4c-4.4-4.4-9.9-7.9-15.9-9.5c-4.4-1.2-10-1.7-13.6,1.8c-3.8,3.8-3,10.2-1.3,14.9
				c1.8,5.5,5.2,10.4,9.2,14.4c-6.2,0-12.7,1.3-18.1,4.5c-3.8,2-8.2,5.7-8.2,10.5c0,4.9,4.4,8.5,8.2,10.7c5.5,3.2,11.9,4.5,18.1,4.5
				c-4,4-7.4,9-9.2,14.4c-1.5,4.7-2.3,11,1.3,14.9c3.8,3.8,10.2,2.8,14.7,1.3c5.5-1.8,10.5-5.2,14.6-9.2c0,6.2,1.3,12.7,4.5,18.1
				c2.2,3.8,5.9,8,10.7,8c4.9,0,8.5-4.2,10.7-8c3.2-5.5,4.5-11.9,4.5-18.1c4,4.2,9,7.4,14.6,9.2c4.5,1.5,10.9,2.3,14.7-1.3
				c4.9-4.9,2.3-13.4-0.2-18.6c2.3,2.3,4.5,4.9,6.7,7.7c14.2,18.9,24.4,52.5-6,105.9c-2.2,3.7,3.7,7,5.9,3.3
				c10.9-18.9,16.7-35.6,19.2-50.2c6.7,2.7,14.2,3.8,21.3,1.7c5.7-1.7,9-5,14.1-9.9c7.7-7.4,15.7-14.1,24.4-20.1
				c1.8-1.2,2-4,0.2-5.4c-13.2-10.5-31.8-12.2-46-4c-5.9,3.3-9.9,7.7-12.9,12C145.6,115,130.4,98.3,119.5,89.4z M114.5,66
				c11.9,0,19.4,6,19.4,8.5c0,2.5-7.5,8.5-19.4,8.5c-5.2,0-9.4-1.2-12.6-2.5c1-3.8,1-7.9,0-11.9C105.1,67.2,109.3,66,114.5,66z
				 M97.6,42.4c8.7-9.5,19.1-8.2,19.6-7.5c0.5,0.7,1.8,9.4-7.5,19.6c-3.5,3.7-7.4,5.9-10.7,7c-2-3.3-5-6.4-8.4-8.4
				C91.7,49.8,94.1,45.9,97.6,42.4C103.8,36.2,94.2,46.1,97.6,42.4z M77.5,18.3c2.5,0,8.5,7.5,8.5,19.4c0,5-1.2,9.4-2.5,12.6
				c-3.8-1-8-1-11.9,0c-1.5-3.2-2.5-7.5-2.5-12.6C69,25.8,75,18.3,77.5,18.3z M37.7,34.9c0.5-0.7,10.7-1.5,19.6,7.5l0,0
				c3.5,3.5,5.9,7.4,7,10.7c-3.3,2.2-6.4,5-8.4,8.4c-3.3-1.2-7.4-3.3-10.7-7C35.2,43.6,37.2,35.5,37.7,34.9z M40.5,83.1
				c-11.9,0-19.4-6-19.4-8.5S28.6,66,40.5,66c5.2,0,9.4,1.2,12.6,2.5c-1,3.8-1,8,0,11.9C49.9,81.9,45.5,83.1,40.5,83.1z M57.4,106.6
				c-8.4,8.4-17.9,9.4-19.7,7.7c-0.3-0.3-2.8-9.5,7.7-19.7c3.7-3.5,7.4-5.9,10.7-7c2,3.3,5,6.4,8.4,8.4
				C63.1,99.5,60.8,103.3,57.4,106.6z M77.5,130.9c-2.5,0-8.5-7.5-8.5-19.4c0-5,1.2-9.4,2.5-12.6c3.8,1,8,1,11.9,0
				c1.5,3.2,2.5,7.5,2.5,12.6C86,123.4,80,130.9,77.5,130.9z M77.5,92.9c-10.2,0-18.4-8.2-18.4-18.4s8.2-18.4,18.4-18.4
				s18.4,8.2,18.4,18.4S87.5,92.9,77.5,92.9z M117.3,114.3c-1.8,1.8-11.4,0.7-19.7-7.7c-3.5-3.5-5.9-7.4-7-10.7c3.3-2,6.4-5,8.4-8.4
				c3.3,1.2,7,3.5,10.7,7C120.2,104.3,117.7,114,117.3,114.3z M164.5,135.4c8.7-4.9,19.2-5.5,28.6-2.2c-9.9,1.7-19.4,6.4-27.1,10.5
				c-7,4-12.2,7.4-16.2,10.4C151.6,148.3,155.6,140.5,164.5,135.4z M189.4,144c-5,4.2-8.5,7.5-11.4,10.4c-4.7,4.5-7.2,7-11.4,8.2
				c-4.5,1.3-9.5,1-15.4-1c4.4-3.3,9.9-7.2,18.1-11.7c9.9-5.5,18.1-8.9,25.3-9.9C192.8,141.1,191.1,142.6,189.4,144z"/>
		</g>
	</g>
</g>
<g class="st0">
	<title>Artboard 10</title>
	<g class="st1">
		<path d="M49.5,134.7c-0.7-1.9-2.3-3.3-4.5-3.3H20.2L12,106.5c-0.9-2.3-3.5-3.8-5.9-3c-2.3,0.9-3.8,3.5-3,5.9l8.9,26.7l-8.9,26.7
			c-0.7,2.3,0.5,5.2,3,5.9c2.3,0.7,5.2-0.5,5.9-3l8.2-24.9h21.3l8.2,24.9c0.9,2.3,3.5,3.8,5.9,3c2.3-0.9,3.8-3.5,3-5.9L49.5,134.7z"
			/>
		<path d="M128.4,103.2h-28.1V56.3h75c2.6,0,4.7-2.1,4.7-4.7l0,0v-9.4c0-1.9-0.9-3.5-2.6-4.2L97.6,0.5c-1.2-0.7-2.8-0.7-4,0
			L13.8,38.1c-1.6,0.7-2.6,2.3-2.6,4.2v9.4c0,2.6,2.1,4.7,4.7,4.7l0,0h75v46.9H63.8c-2.6-0.5-4.7,1.6-4.7,4.2s2.1,4.7,4.7,5.2h27.1
			v46.9h-4.7c-1.7,0-3.3,0.8-4.1,2.3c-1.8,3.5,0.7,7.1,4.1,7.1H105c1.7,0,3.3-0.8,4.1-2.3c1.8-3.5-0.7-7.1-4.1-7.1h-4.7v-46.9
			l27.9,0c2,0,4-1.2,4.7-3.1C133.9,106.3,131.5,103.2,128.4,103.2z M20.6,45.3l75-35.4l75,35.4V47H20.6V45.3z"/>
		<path d="M181.3,136.1l8.9-26.7c0.7-2.3-0.5-5.2-3-5.9c-2.3-0.7-5.2,0.5-5.9,3l-8.2,24.9h-24.9c-2.1,0-3.8,1.4-4.5,3.3l-9.4,28.1
			c-0.7,2.3,0.5,5.2,3,5.9c2.3,0.7,5.2-0.5,5.9-3l8.2-24.9h21.3l8.2,24.9c0.9,2.3,3.5,3.8,5.9,3c2.3-0.9,3.8-3.5,3-5.9L181.3,136.1z
			"/>
	</g>
</g>
<g class="st0">
	<path class="st1" d="M189.7,85.8C187.2,75,178.5,67,168,64.9c0-0.6-0.2-1.3-0.4-1.9c-1.7-7.2-5.9-13.3-12.2-17.1
		c-5.1-3.2-10.9-4.6-16.8-4c-4.8-12.6-18.3-20-31.8-16.8c-4,0.8-7.8,2.7-10.9,5.3c-5.1-3.8-10.9-5.9-17.1-5.9
		c-10.9,0-20.8,6.7-25.1,16.6c-14.7-1.1-27.2,9.7-29.1,23.6C11.1,66.4,0.8,78,0.8,91.9c0,11.6,7.4,22.1,18.1,25.9c0,0,0,0,0,0
		c-0.6,14.1,9.6,25.1,26.5,28.6c1.7,0.4,14.3,0.4,30.3,0.4c24,0,55.6-0.2,69.1-0.4l8.2-0.6h0.6c12.2-2.7,21.3-15.8,21.3-29.1
		C186.3,111.2,192.6,98.4,189.7,85.8z M169.3,110.2l-3.2,1.1l0.4,3.2c1.3,10.1-5.5,20.8-14.6,23.2l-7.4,0.6
		c-37.3,0.4-94.1,0.6-98.1,0c-4.7-1.1-20.1-5.3-20.1-19.4c0-1.3,0.2-2.5,0.4-3.6l0.8-4l-4-0.8c-8.9-1.9-15.3-9.9-15.3-19
		c0-10.7,8.7-19.4,19.3-19.4h4v-4c0-10.7,8.7-19.4,19.3-19.4c1.3,0,2.5,0.2,4,0.4l3.8,0.6l1.1-3.6c2.3-8.2,10-13.9,18.7-13.9
		c5.3,0,10.4,2.1,14,5.9l3,3.2l3-3.2c2.5-2.7,5.9-4.8,9.8-5.7c10.4-2.3,20.8,4,23.3,14.5l0.8,4l4-0.8c5.1-1.3,10.2-0.2,14.6,2.3
		c4.5,2.7,7.4,6.9,8.7,12c0.2,1.3,0.4,2.5,0.4,3.8v3.8l3.8,0.2c8.5,0.4,15.9,6.5,17.8,15C183.9,97.1,178.6,107,169.3,110.2z"/>
	<path class="st1" d="M146.7,83.1c-6.1-3.2-13.3-2.3-18.3,2.1c-3.8-1.9-8-2.3-12-1.1c-4.2,1.3-7.6,4-9.7,8c-0.4,0.8-0.2,1.7,0.6,2.1
		c0.8,0.4,1.7,0.2,2.1-0.6c1.7-3.2,4.4-5.5,7.8-6.5s6.9-0.6,10.1,1.1c0.2,0,0.2,0.2,0.4,0.2l1.1,0.6l0.8-0.8
		c4.2-4.2,10.5-5.1,15.6-2.3c6.5,3.4,8.8,11.6,5.5,18.1c-0.4,0.8-0.2,1.7,0.6,2.1c0.2,0.2,0.4,0.2,0.6,0.2c0.6,0,1.1-0.2,1.3-0.8
		C157.7,97.4,154.7,87.3,146.7,83.1z"/>
	<path class="st1" d="M65,65c-4.2-1.3-8.6-0.6-12.4,1.5c-5.9,3.4-9.3,9.9-8.2,16.6c-7.6,4.4-10.3,14.3-5.9,22.1
		c0.2,0.4,0.8,0.8,1.3,0.8c0.2,0,0.4,0,0.8-0.2c0.8-0.4,1.1-1.3,0.6-2.1c-3.6-6.3-1.3-14.5,5.3-18.1c0.2,0,0.2-0.2,0.4-0.2L48,85
		l-0.2-1.3c-1.3-5.7,1.5-11.6,6.5-14.3c3.2-1.7,6.7-2.1,10.1-1.3c3.4,1.1,6.3,3.2,8,6.3c0.4,0.8,1.3,1.1,2.1,0.6
		c0.8-0.4,1.1-1.3,0.6-2.1C72.8,69,69.3,66.3,65,65z"/>
</g>
<g class="st0">
	<g class="st1">
		<g>
			<path d="M211,42.3v-2.4h-14.3V23.1l2.4-3.3L193.3,4l-5.5,15.8l4.1,3.3v16.8H168V23.1l3.6-3.3L166.1,4l-5.5,15.8l2.6,3.3v16.8
				h-21.5V24.1l3.5-3.3l-6-15.8l-5.8,15.8l3.5,3.3v15.8h-23.9V23.1l3.8-3.3L111.4,4l-5.5,15.8l2.4,3.3v16.8H86.8V23.1l2.9-3.3
				L84.2,4l-5.5,15.8l3.3,3.3v16.8H58.1V24.1l3.5-3.3L55.6,5l-5.8,15.8l3.5,3.3v15.8H31.9V23.1l3.1-3.3L29.5,4L24,19.8l3.1,3.3v16.8
				H10.4v4.8h16.7v93.2H10.4v4.8h16.7v19.1h4.8v-19.1h21.5v19.1h4.8v-19.1H82v19.1h4.8v-19.1h21.5v19.1h4.8v-19.1H137v19.1h4.8
				v-19.1h21.5v19.1h4.8v-19.1h23.9v19.1h4.8v-19.1H211v-4.8h-16.7V42.3H211z M31.9,137.8V42.3h23.9v95.5H31.9z M58.1,137.8V42.3H82
				v95.5H58.1z M86.8,137.8V42.3h23.9v95.5H86.8z M113.1,137.8V42.3H137v95.5H113.1z M139.4,137.8V42.3h23.9v95.5H139.4z
				 M191.9,137.8H168V42.3h23.9V137.8z"/>
		</g>
	</g>
</g>
<g class="st0">
	<g class="st1">
		<g>
			<g>
				<g>
					<path d="M40.7,34.1c1.3,1.3,2.7,2.7,4,4c3.2,3.2,6.4,6.4,9.6,9.6c3.8,3.8,7.7,7.7,11.5,11.5c3.3,3.3,6.7,6.7,10,10
						c1.6,1.6,3.2,3.3,4.9,4.9c0,0,0,0,0.1,0.1c0-1.5,0-3.1,0-4.7l-6.9,6.9h4.7c-1.3-1.3-2.7-2.7-4-4c-3.2-3.2-6.4-6.4-9.6-9.6
						c-3.8-3.8-7.7-7.7-11.5-11.5c-3.3-3.3-6.7-6.7-10-10c-1.6-1.6-3.2-3.3-4.9-4.9c0,0,0,0-0.1-0.1c-1.2-1.2-3.4-1.3-4.7,0
						c-0.3,0.3-0.7,0.7-1,1c-0.2,0.2-0.4,0.4-0.6,0.6c0,0-0.1,0.1-0.1,0.1c0,0-0.1,0.1-0.1,0.1c-0.3,0.4,0.1-0.1,0.2-0.1
						c0,0-0.5,0.3-0.5,0.3c0,0,0.7-0.3,0.3-0.2c-0.3,0.1,0.4-0.1,0.4-0.1c0.3,0,0.5,0.1,0.7,0.1c0.4,0.1,0.1,0.1,0,0
						c0,0,0.5,0.4,0.2,0.1c-0.3-0.3,0.2,0.3,0.2,0.3c-0.1-0.1-0.1-0.2-0.2-0.3c-1.2-1.5-2.3-3-3.4-4.6c-2.4-3.3-4.9-6.5-7.3-9.8
						c0-0.1-0.1-0.1-0.2-0.2c-0.2-0.3-0.3-0.6-0.1-0.1c0-0.1-0.2-0.4,0,0c0.1,0.3,0,0.2,0,0c0,0-0.1,0.7,0,0.3
						c0.1-0.4-0.3,0.6-0.1,0.2c0.2-0.3-0.3,0.3-0.1,0.1c0.1,0,0.2-0.2,0.2-0.2c0.7-0.7,1.5-1.5,2.2-2.2c0.9-0.9,1.9-1.9,2.8-2.8
						c0.3-0.3,0.6-0.6,0.9-0.9c0.1-0.1,0.2-0.1,0.2-0.2c0.2-0.2-0.4,0.2-0.1,0.1c0.3-0.2-0.3,0.1-0.3,0.1c0.1,0,0.5-0.1,0,0
						c-0.4,0.1-0.1,0,0,0c0,0-0.7-0.1-0.3,0c0.4,0.1-0.2-0.1-0.2-0.1c0,0,0.3,0.2,0.3,0.2c0.1,0.1,0.2,0.1,0.3,0.2
						c0.1,0.1,0.2,0.1,0.3,0.2c0.6,0.4,1.2,0.9,1.8,1.3c2,1.5,4.1,3.1,6.1,4.6c1.8,1.4,3.6,2.7,5.4,4.1c0.3,0.3,0.7,0.5,1,0.8
						c0,0-0.4-0.3-0.4-0.3c0.1,0.1,0.4,0.3,0.1,0c-0.2-0.2-0.1-0.1,0,0c-0.1-0.2-0.2-0.4-0.2-0.7c0-0.3,0-0.5,0-0.8
						c0,0.1-0.1,0.4,0,0c0.3-0.6-0.2,0.3-0.2,0.3c0,0,0.4-0.5,0.2-0.3c-0.1,0.1-0.1,0.1-0.2,0.2c0,0,0,0-0.1,0.1
						c-0.2,0.2-0.4,0.4-0.6,0.6c-0.3,0.3-0.7,0.7-1,1C39.5,30.7,39.4,32.9,40.7,34.1c1.3,1.2,3.4,1.3,4.7,0c1-1,2-1.9,2.7-3
						c0.8-1.3,1.1-2.9,0.7-4.4c-0.4-1.4-1.4-2.3-2.5-3.1c-1.4-1.1-2.8-2.1-4.3-3.2c-2.3-1.7-4.6-3.5-7-5.2c-1.3-1-2.6-2.2-4-2.9
						c-2.5-1.3-5.2-0.9-7.2,1.1c-0.8,0.8-1.5,1.5-2.3,2.3c-1,1-2,2-3,3c-0.9,0.9-1.8,1.7-2.3,2.9c-0.9,2-0.4,4.3,0.9,6
						c0.4,0.6,0.9,1.2,1.3,1.8c1.7,2.2,3.3,4.4,5,6.6c1.4,1.8,2.8,3.7,4.1,5.5c0.9,1.2,1.9,2.4,3.5,3c2.5,0.9,4.7-0.7,6.3-2.3
						c0.4-0.4,0.7-0.7,1.1-1.1h-4.7c1.3,1.3,2.7,2.7,4,4c3.2,3.2,6.4,6.4,9.6,9.6c3.8,3.8,7.7,7.7,11.5,11.5c3.3,3.3,6.7,6.7,10,10
						c1.6,1.6,3.2,3.3,4.9,4.9c0,0,0,0,0.1,0.1c1.5,1.5,4.3,1.2,5.3-0.9c1.8-1.8,3.5-3.5,5.4-5.3c2-1,2.3-3.7,0.8-5.2
						c-1.3-1.3-2.7-2.7-4-4c-3.2-3.2-6.4-6.4-9.6-9.6C68,52,64.1,48.2,60.3,44.4c-3.3-3.3-6.7-6.7-10-10c-1.6-1.6-3.2-3.3-4.9-4.9
						c0,0,0,0-0.1-0.1c-1.2-1.2-3.5-1.3-4.7,0C39.5,30.7,39.4,32.8,40.7,34.1z"/>
				</g>
			</g>
			<g>
				<g>
					<path d="M160.1,148.9c-1.7,1.7-3.4,3.4-5.1,5.1c-0.6,0.6-1.2,1.2-1.8,1.8c-0.2,0.2-0.5,0.4-0.7,0.7c-0.4,0.4,0.5-0.3-0.2,0.1
						c-0.5,0.3-1,0.6-1.5,0.9c-0.5,0.3,0.5-0.2-0.2,0.1c-0.2,0.1-0.5,0.2-0.8,0.2c-0.3,0.1-0.6,0.2-0.9,0.2c-0.1,0-0.2,0-0.3,0.1
						c-0.4,0.1,0.7,0,0.1,0c-0.5,0-1.1,0.1-1.6,0c-0.3,0-0.5,0-0.8-0.1c-0.5,0,0.7,0.1,0.2,0c-0.2,0-0.4-0.1-0.6-0.1
						c-0.5-0.1-1-0.3-1.5-0.5c-0.6-0.2,0.6,0.3-0.2-0.1c-0.3-0.1-0.5-0.3-0.8-0.4c-0.2-0.1-0.5-0.3-0.7-0.4c-0.5-0.3,0,0,0.1,0.1
						c-0.1,0-0.3-0.2-0.4-0.3c-0.2-0.2-0.4-0.3-0.5-0.5c-0.1-0.1-0.1-0.1-0.2-0.2c-1.1-1.1-2.1-2.1-3.2-3.2
						c-4.2-4.2-8.3-8.3-12.5-12.5c-3.7-3.7-7.4-7.4-11.1-11.1c-0.4-0.4-0.8-0.8-1.2-1.2c-0.1-0.1-0.1-0.1-0.2-0.2
						c0,0-0.3-0.4-0.3-0.4c0,0,0.4,0.7,0.1,0.1c-0.1-0.1-0.1-0.2-0.2-0.3c-0.1-0.1-0.3-0.5-0.1-0.1c0.2,0.4,0-0.1-0.1-0.2
						c0-0.1-0.2-1-0.1-0.4c0.1,0.5,0-0.3,0-0.4c0-0.6-0.1,0.6,0-0.1c0-0.1,0.1-0.3,0.1-0.4c0-0.1,0.3-0.5,0-0.1
						c-0.3,0.4,0.2-0.3,0.3-0.4c0.3-0.6-0.1,0.1-0.1,0.1c0-0.1,0.3-0.3,0.3-0.3c0.1-0.1,0.1-0.1,0.2-0.2c1-1,2-2,3-3
						c0.3-0.3,0.5-0.5,0.8-0.8c1.3-1.3,1.3-3.4,0-4.7c-4-4-8-8-12-12c-0.6-0.6-1.1-1.1-1.7-1.7c0,1.5,0,3.1,0,4.7
						c2.3-2.3,4.6-4.6,6.9-6.9c-1.5,0-3.1,0-4.7,0c4,4,8,8,12,12c0.6,0.6,1.1,1.1,1.7,1.7c1.3,1.3,3.4,1.3,4.7,0
						c1.3-1.3,2.6-2.7,4-4c0,0,0.4-0.3,0.4-0.3c0,0-0.5,0.3-0.2,0.2c0.1,0,0.2-0.1,0.3-0.2c0.1,0,0.2-0.1,0.3-0.2
						c0.3-0.2-0.2,0.1-0.3,0.1c0.2,0,0.5-0.2,0.7-0.2c0.1,0,0.2,0,0.3-0.1c0,0-0.7,0-0.3,0c0.2,0,0.5,0,0.7,0c0.3,0-0.3,0-0.3,0
						c0.1,0,0.2,0,0.3,0.1c0.2,0,0.6,0.2,0.7,0.2c0,0-0.6-0.3-0.3-0.1c0.1,0.1,0.2,0.1,0.3,0.2c0.1,0.1,0.2,0.1,0.3,0.2
						c0.3,0.2-0.2-0.1-0.2-0.2c0,0,0.3,0.3,0.4,0.3c0.1,0,0.1,0.1,0.2,0.2c2.3,2.3,4.6,4.6,6.9,6.9c3.8,3.8,7.6,7.6,11.4,11.5
						c2.9,2.9,5.8,5.9,8.8,8.8c0.3,0.3,0.6,0.6,0.9,0.9c0.1,0.1,0.1,0.1,0.2,0.2l0,0c0.2,0.2,0.3,0.3,0.5,0.5
						c0.1,0.1,0.1,0.2,0.2,0.3c0.3,0.3-0.3-0.5-0.1-0.1c0.3,0.4,0.5,0.8,0.8,1.2c0.1,0.2,0.2,0.4,0.3,0.6c0.2,0.3-0.1-0.2-0.1-0.3
						c0,0.2,0.1,0.4,0.2,0.5c0.1,0.4,0.3,0.9,0.4,1.3c0,0.1,0,0.2,0.1,0.3c0,0.2,0.2,0.3,0,0s0-0.2,0,0c0,0.1,0,0.3,0,0.4
						c0,0.4,0,0.9,0,1.4c0,0.2-0.1,0.5-0.1,0.7c0,0,0.1-0.7,0-0.3c0,0.1,0,0.3-0.1,0.4c-0.1,0.4-0.2,0.9-0.4,1.3
						c0,0.1-0.1,0.2-0.1,0.3c-0.2,0.6,0-0.1,0.1-0.1c-0.1,0.1-0.3,0.6-0.4,0.7c-0.2,0.4-0.5,0.8-0.8,1.2c-0.2,0.3,0.1-0.2,0.1-0.2
						c0,0-0.2,0.3-0.2,0.3C160.5,148.5,160.3,148.7,160.1,148.9c-1.2,1.2-1.3,3.4,0,4.7c1.3,1.2,3.4,1.3,4.7,0
						c3.5-3.6,5-8.7,3.9-13.6c-0.6-2.8-2.2-5.2-4.2-7.3c-2.6-2.6-5.3-5.3-7.9-7.9c-4-4-8-8-12-12c-2.6-2.6-5.2-5.2-7.8-7.8
						c-2.3-2.3-5.6-3.5-8.9-2.6c-3,0.8-5.2,3.5-7.3,5.7c-0.2,0.2-0.4,0.4-0.6,0.6c1.5,0,3.1,0,4.7,0c-4-4-8-8-12-12
						c-0.6-0.6-1.1-1.1-1.7-1.7c-1.3-1.3-3.4-1.3-4.7,0c-2.3,2.3-4.6,4.6-6.9,6.9c-1.3,1.3-1.3,3.4,0,4.7c4,4,8,8,12,12
						c0.6,0.6,1.1,1.1,1.7,1.7c0-1.5,0-3.1,0-4.7c-0.9,0.9-1.7,1.7-2.6,2.6c-1.2,1.2-2.4,2.3-3.1,3.8c-1.5,3.2-1,6.8,1.2,9.5
						c0.3,0.4,0.6,0.7,0.9,1c3.3,3.3,6.7,6.7,10,10.1c4.5,4.5,9,9,13.4,13.5c3.5,3.5,6.8,7.6,12,8.4c5,0.8,9.7-0.8,13.2-4.3
						c2-2,4-4,6-6c0.2-0.2,0.4-0.4,0.6-0.6c1.2-1.2,1.3-3.5,0-4.7C163.5,147.7,161.4,147.6,160.1,148.9z"/>
				</g>
			</g>
			<g>
				<g>
					<path d="M127.6,121c2.6,2.6,5.2,5.2,7.9,7.9c4.2,4.2,8.4,8.4,12.5,12.5c1,1,1.9,1.9,2.9,2.9c1.2,1.2,3.5,1.3,4.7,0
						s1.3-3.4,0-4.7c-2.6-2.6-5.2-5.2-7.9-7.9c-4.2-4.2-8.4-8.4-12.5-12.5c-1-1-1.9-1.9-2.9-2.9c-1.2-1.2-3.5-1.3-4.7,0
						C126.4,117.7,126.3,119.7,127.6,121L127.6,121z"/>
				</g>
			</g>
			<g>
				<g>
					<path d="M148.7,146.5c-2.6-2.6-5.2-5.2-7.9-7.9c-4.2-4.2-8.4-8.4-12.5-12.5c-1-1-1.9-1.9-2.9-2.9c-1.2-1.2-3.5-1.3-4.7,0
						s-1.3,3.4,0,4.7c2.6,2.6,5.2,5.2,7.9,7.9c4.2,4.2,8.4,8.4,12.5,12.5c1,1,1.9,1.9,2.9,2.9c1.2,1.2,3.5,1.3,4.7,0
						C149.9,149.9,150,147.8,148.7,146.5L148.7,146.5z"/>
				</g>
			</g>
		</g>
		<g>
			<g>
				<g>
					<path d="M163.7,43.3c-3.9,3.9-7.9,7.9-11.8,11.8c-1.9,1.9-3.8,3.8-5.7,5.7c-0.1,0.1-0.3,0.3-0.4,0.4c-0.3,0.3-0.7,0.7-1.1,1
						c-0.3,0.3-0.6,0.5-0.9,0.8c0.1-0.1,0.5-0.4,0,0c-0.2,0.1-0.4,0.3-0.6,0.4c-0.6,0.4-1.2,0.7-1.8,1.1c-0.3,0.2-0.6,0.3-0.9,0.5
						c-0.2,0.1-0.4,0.2-0.6,0.3c-0.4,0.2-0.4,0.2,0,0c-0.6,0.4-1.5,0.5-2.1,0.7c-0.7,0.2-1.5,0.4-2.2,0.5c-0.2,0-0.3,0-0.5,0.1
						c-0.5,0.1,0-0.1,0.1,0c-0.1-0.1-0.9,0.1-1,0.1c-0.7,0-1.5,0.1-2.2,0c-0.7,0-1.5,0-2.2-0.2c0.1,0,0.7,0.1,0.1,0
						c-0.2,0-0.3,0-0.5-0.1c-0.4-0.1-0.8-0.2-1.3-0.3c-0.7-0.2-1.4-0.4-2-0.6c-0.2-0.1-0.4-0.1-0.6-0.2c-0.1,0-0.6-0.2-0.2-0.1
						c0.4,0.2-0.1-0.1-0.2-0.1c-0.2-0.1-0.5-0.2-0.7-0.3c-0.7-0.3-1.4-0.7-2-1.2c-0.3-0.2-0.6-0.4-0.9-0.6c-0.1-0.1-0.3-0.2-0.4-0.3
						c0.6,0.4-0.1-0.1-0.2-0.2c-0.3-0.2-0.6-0.5-0.8-0.7c0,0-0.4-0.4-0.4-0.4c-0.1,0.1,0.9,1-0.3-0.3c-0.2-0.3-0.5-0.5-0.8-0.8
						c-0.1-0.2-0.3-0.3-0.5-0.5c0-0.1-0.5-0.7-0.3-0.3c0.2,0.3-0.1-0.1-0.2-0.2c-0.1-0.2-0.3-0.4-0.4-0.6c-0.2-0.3-0.4-0.6-0.6-0.9
						c-0.4-0.7-0.8-1.4-1.2-2.1c-0.1-0.2-0.1-0.3-0.2-0.5c0.3,0.6,0.1,0.2,0,0c-0.1-0.4-0.3-0.8-0.4-1.1c-0.2-0.8-0.5-1.5-0.6-2.3
						c-0.1-0.4-0.1-0.7-0.2-1.1c0-0.2-0.1-0.6,0,0.1c0-0.2,0-0.3,0-0.5c-0.1-0.7-0.1-1.5-0.1-2.2c0-0.7,0-1.4,0.1-2.1
						c0-0.2,0-0.3,0-0.5c0-0.5-0.1,0.8,0,0c0.1-0.4,0.1-0.7,0.2-1.1c0.1-0.7,0.3-1.4,0.5-2.1c0.1-0.3,0.2-0.6,0.3-1
						c0-0.2,0.1-0.3,0.2-0.5c0.2-0.7-0.2,0.5,0.1-0.1c0.6-1.4,1.4-2.7,2.3-4c0.1-0.1,0.4-0.5,0,0c0.1-0.1,0.2-0.3,0.3-0.4
						c0.2-0.3,0.5-0.5,0.7-0.8c0.2-0.3,0.5-0.5,0.8-0.8c1.5-1.5,3-3,4.4-4.4c4.4-4.4,8.9-8.9,13.3-13.3c0.1-0.1,0.2-0.2,0.3-0.3
						c1.7-1.7,1-4.9-1.4-5.5c-12.4-3-26-0.7-36.5,6.6c-5.4,3.8-10.1,8.7-13.5,14.4c-3.3,5.5-5.2,11.7-6,18c-0.8,6.7,0,13.8,2.3,20.2
						c0.3-1.1,0.6-2.1,0.8-3.2c-3.5,3.5-6.9,6.9-10.3,10.3c-4.6,4.6-9.1,9.1-13.7,13.7c-6.7,6.7-13.5,13.5-20.2,20.2
						c-5,5-10,10-15,15c-1.5,1.5-3.1,3-4.4,4.9c-5,7-5,17-0.1,24.1c4.7,6.8,12.8,10.3,21,9.2c4.8-0.7,9-3,12.3-6.4
						c4-4,8.1-8.1,12.1-12.1c6.7-6.7,13.3-13.3,20-20c5.4-5.4,10.8-10.8,16.2-16.2c3.2-3.2,6.5-6.5,9.7-9.7c0.9-0.9,1.8-1.8,2.7-2.7
						c-1.1,0.3-2.1,0.6-3.2,0.8c11.8,4,25,3,36-2.8c11.4-5.9,19.9-16.9,22.9-29.4c1.7-7,1.7-14.2,0.1-21.2c-0.4-1.7-2.4-2.8-4-2.3
						c-1.8,0.6-2.7,2.3-2.3,4c0.1,0.7,0.3,1.4,0.4,2.1c0.1,0.3,0.1,0.7,0.2,1c0,0.2,0,0.3,0.1,0.5c0.1,0.4-0.1-0.7,0,0
						c0.1,1.4,0.3,2.9,0.3,4.3c0,1.4,0,2.8-0.1,4.2c0,0.4-0.1,0.7-0.1,1.1c0,0.3-0.2,0.7-0.1,1c0-0.1,0.1-0.8,0-0.1
						c0,0.2,0,0.3-0.1,0.5c-0.1,0.4-0.1,0.8-0.2,1.2c-0.5,2.8-1.3,5.5-2.4,8.2c-0.2,0.6,0,0,0-0.1c0,0.1-0.1,0.3-0.2,0.5
						c-0.1,0.3-0.3,0.7-0.5,1c-0.3,0.7-0.6,1.3-1,1.9c-0.7,1.3-1.5,2.6-2.4,3.8c-0.2,0.3-0.4,0.6-0.6,0.8c-0.1,0.1-0.2,0.3-0.3,0.4
						c-0.1,0.1-0.4,0.5-0.1,0.2c0.3-0.4-0.2,0.3-0.2,0.3c-0.1,0.1-0.2,0.3-0.3,0.4c-0.2,0.3-0.5,0.6-0.8,0.9c-1,1.2-2.1,2.3-3.2,3.3
						c-0.5,0.5-1,0.9-1.6,1.4c-0.3,0.2-0.5,0.4-0.8,0.6c-0.5,0.4,0,0,0.1,0c-0.2,0.2-0.4,0.3-0.6,0.5c-1.2,0.8-2.4,1.6-3.6,2.4
						c-1.2,0.7-2.5,1.4-3.8,1.9c-0.3,0.1-0.6,0.3-0.9,0.4c0.8-0.3-0.3,0.1-0.5,0.2c-0.7,0.2-1.3,0.5-2,0.7c-1.4,0.4-2.7,0.8-4.1,1.1
						c-0.7,0.1-1.3,0.3-2,0.4c-0.3,0-0.6,0.1-1,0.1c-0.2,0-0.6,0.1,0.1,0c-0.2,0-0.4,0-0.6,0.1c-3.1,0.4-6.2,0.4-9.3,0.1
						c-0.2,0-1.5-0.1-0.6,0c-0.4,0-0.8-0.1-1.2-0.2c-0.7-0.1-1.4-0.3-2.2-0.4c-1.6-0.3-3.1-0.8-4.7-1.3c-1.1-0.4-2.4,0-3.2,0.8
						c-3.4,3.4-6.9,6.9-10.3,10.3c-4.4,4.4-8.8,8.8-13.2,13.2c-6.6,6.6-13.2,13.2-19.8,19.8c-5.1,5.1-10.3,10.3-15.4,15.4
						c-0.8,0.8-1.6,1.6-2.5,2.5c-0.3,0.3-0.6,0.6-0.9,0.8c-0.1,0.1-0.3,0.3-0.5,0.4c-0.2,0.1-0.5,0.5,0,0c-0.5,0.6-1.6,1.1-2.3,1.4
						c-0.4,0.2-0.8,0.4-1.1,0.6c-0.6,0.3,0.1,0,0.1-0.1c-0.1,0.1-0.5,0.2-0.6,0.2c-0.8,0.3-1.7,0.5-2.5,0.7c-0.2,0-0.4,0.1-0.6,0.1
						c-0.3,0-0.9,0,0,0c-0.4,0-0.8,0.1-1.1,0.1c-0.8,0-1.7,0-2.5,0c-0.1,0-0.6,0-0.7-0.1c0.1,0,0.3,0,0.4,0.1c-0.1,0-0.3,0-0.4-0.1
						c-0.4-0.1-0.7-0.1-1.1-0.2c-0.8-0.2-1.6-0.5-2.4-0.7c-0.7-0.3,0.7,0.3-0.1,0c-0.2-0.1-0.4-0.2-0.6-0.3c-0.3-0.2-0.7-0.3-1-0.5
						s-0.7-0.4-1-0.6c-0.2-0.1-0.4-0.3-0.6-0.4c-0.6-0.4,0.4,0.4-0.1-0.1c-0.7-0.6-1.4-1.2-2-1.9c-0.3-0.3-0.6-0.7-0.9-1
						c0.5,0.6-0.1-0.1-0.1-0.2c-0.1-0.2-0.3-0.4-0.4-0.7c-0.3-0.4-0.5-0.8-0.7-1.3c-0.1-0.2-0.2-0.4-0.3-0.6
						c-0.1-0.1-0.5-0.9-0.1-0.2c-0.5-0.8-0.7-1.9-0.9-2.7c-0.1-0.5-0.2-0.9-0.3-1.4c-0.1-0.5,0.1,0.8,0,0c0-0.3,0-0.5-0.1-0.8
						c0-1,0-1.9,0.1-2.8c0-0.9-0.1,0.7,0-0.1c0-0.2,0-0.3,0.1-0.5c0.1-0.5,0.2-1,0.3-1.5c0.1-0.4,0.2-0.8,0.4-1.2
						c0.1-0.2,0.2-0.5,0.3-0.7c-0.3,0.5,0,0.1,0.1-0.2c0.4-0.9,0.9-1.7,1.4-2.5c0.1-0.1,0.2-0.3,0.3-0.4c0.5-0.7-0.4,0.5,0.1-0.2
						c0.4-0.4,0.7-0.8,1.1-1.2c0.2-0.2,0.4-0.4,0.6-0.6c4.2-4.2,8.3-8.3,12.5-12.5c6.6-6.6,13.2-13.2,19.7-19.7
						c5.3-5.3,10.6-10.6,16-16c3.2-3.2,6.4-6.4,9.5-9.5c0.9-0.9,1.8-1.8,2.7-2.7c0.8-0.8,1.2-2.1,0.8-3.2c-0.5-1.3-0.9-2.7-1.3-4.1
						c-0.3-1.3-0.8-2.8-0.8-4.2c0,0.1,0.1,0.8,0,0.1c0-0.2,0-0.3-0.1-0.5c0-0.3-0.1-0.6-0.1-1c-0.1-0.7-0.1-1.5-0.1-2.2
						c0-1.4,0-2.8,0-4.1c0-0.7,0.1-1.4,0.2-2.1c0-0.1,0.1-1.2,0.1-0.7c-0.1,0.6,0-0.2,0-0.3c0-0.2,0.1-0.4,0.1-0.6
						c0.2-1.4,0.5-2.8,0.9-4.2c0.4-1.3,0.8-2.7,1.3-4c0.1-0.3,0.2-0.6,0.4-0.9c-0.4,0.7,0.1-0.1,0.2-0.3c0.3-0.7,0.6-1.3,1-2
						c0.7-1.3,1.4-2.6,2.2-3.8c0.4-0.6,0.8-1.2,1.2-1.8c0.1-0.2,0.7-1,0.3-0.3c0.2-0.3,0.5-0.7,0.8-1c1.9-2.3,4.1-4.4,6.4-6.2
						c0.5-0.4,0,0,0,0c0.2-0.1,0.3-0.3,0.5-0.4c0.3-0.2,0.6-0.4,0.8-0.6c0.6-0.4,1.3-0.9,1.9-1.3c1.3-0.8,2.6-1.5,3.9-2.1
						c0.3-0.1,0.6-0.3,0.9-0.4c0.1-0.1,0.3-0.1,0.5-0.2c0.2-0.1,0.4-0.3-0.1,0c0.6-0.4,1.5-0.6,2.1-0.8c1.3-0.5,2.7-0.9,4.1-1.2
						c0.8-0.2,1.6-0.4,2.5-0.5c0.4-0.1,0.8-0.1,1.2-0.2c0.2,0,0.6-0.1-0.1,0c0.2,0,0.4,0,0.6-0.1c1.6-0.2,3.2-0.3,4.9-0.3
						c1.6,0,3.2,0.1,4.7,0.3c0.2,0,0.3,0,0.5,0.1c-0.9-0.2,0,0,0.1,0c0.4,0.1,0.8,0.1,1.2,0.2c0.8,0.1,1.6,0.3,2.5,0.5
						c-0.5-1.8-1-3.7-1.4-5.5c-4.1,4.1-8.2,8.2-12.3,12.3c-1.9,1.9-3.7,3.7-5.6,5.6c-3.8,3.8-6.5,8.7-7.3,14.1
						c-1.1,7.2,0.8,14.4,5.4,20.1c0.2,0.3,0.5,0.6,0.7,0.9c0.1,0.1,0.2,0.3,0.4,0.4c0.1,0.1,0.1,0.1,0.2,0.2c0.2,0.3,0.3,0.3,0,0
						c0-0.1-0.1-0.1-0.2-0.2c0.2,0.3,0.4,0.5,0.6,0.8c0.2,0.2,0.3,0.3,0.5,0.5c0.3,0.3,0.7,0.6,1.1,0.9c1.4,1.2,2.9,2.2,4.6,3.1
						c3.2,1.6,6.6,2.6,10.1,2.8c6.8,0.5,13.6-2,18.7-6.6c1.6-1.4,3-3,4.5-4.5c4.6-4.6,9.2-9.2,13.9-13.9c0.1-0.1,0.2-0.2,0.3-0.3
						c1.2-1.2,1.3-3.5,0-4.7C167.1,42,165,42,163.7,43.3z"/>
					<path d="M37.2,144.6C36.7,145.1,37.7,144.4,37.2,144.6c-0.2,0.1-0.3,0.2-0.4,0.3c0.4-0.2,0.5-0.2,0.3-0.1
						c-0.2,0.1-0.4,0.1-0.6,0.2c-0.2,0-0.1,0,0.3,0c-0.1,0-0.3,0-0.4,0c-0.6,0,0.6,0.2,0,0c-0.1,0-0.6-0.1-0.6-0.2
						c0.4,0.2,0.5,0.2,0.3,0.1c-0.1,0-0.2-0.1-0.3-0.2c-0.2-0.2-0.2-0.2,0,0c0.2,0.2,0.2,0.1,0,0c-0.2-0.3-0.2-0.2,0.1,0.1
						c0-0.1-0.1-0.1-0.1-0.2c-0.1-0.1-0.2-0.3-0.2-0.4c0,0.1,0.1,0.2,0.1,0.4c-0.1-0.1-0.1-0.5-0.2-0.6c-0.2-0.6,0,0.7,0-0.1
						c0-0.8-0.1,0.3,0,0c0-0.1,0.1-0.7,0.2-0.7c0,0.1-0.1,0.2-0.1,0.4c0.1-0.1,0.1-0.3,0.2-0.4c0-0.1,0.1-0.1,0.1-0.2
						c-0.3,0.4-0.3,0.4-0.1,0.1c0.2-0.2,0.2-0.2,0,0c-0.2,0.1-0.2,0.1,0,0c0.1-0.1,0.2-0.1,0.3-0.2c0.2-0.1,0.1-0.1-0.3,0.1
						c0.1-0.1,0.5-0.1,0.6-0.2c0.6-0.2-0.6,0,0,0c0.1,0,0.3,0,0.4,0c-0.5-0.1-0.6-0.1-0.3,0c0.2,0.1,0.4,0.1,0.6,0.2
						c0.2,0.1,0.1,0-0.3-0.1c0.1,0,0.2,0.1,0.3,0.2c0.7,0.4-0.3-0.3,0.1,0.1c0.5,0.5-0.3-0.5,0.1,0c0,0.1,0.1,0.1,0.1,0.2
						c0.2,0.3,0.1,0.3,0-0.2c0,0.2,0.1,0.5,0.2,0.6c0.2,0.6,0-0.7,0,0c-0.1,0.9,0,0,0,0c0,0-0.1,0.6-0.2,0.6
						c-0.1,0.6,0.3-0.6-0.1,0.1C36.9,145.2,37.6,144.1,37.2,144.6c-1.2,1.3-1.3,3.4,0,4.7c1.3,1.2,3.4,1.3,4.7,0
						c2.3-2.5,2.8-5.9,1.4-8.9c-1.3-2.7-4.4-4.4-7.3-4.2c-3.3,0.2-6.2,2.5-7,5.7c-0.8,3.2,0.5,6.5,3.2,8.4c3,2.1,7.1,1.5,9.7-1
						c1.3-1.2,1.3-3.5,0-4.7C40.5,143.4,38.5,143.3,37.2,144.6z"/>
				</g>
			</g>
			<g>
				<g>
					<path d="M55,129.8c1.4-1.4,2.8-2.8,4.2-4.2c3.4-3.4,6.8-6.8,10.2-10.2c4.1-4.1,8.2-8.2,12.3-12.3c3.5-3.5,7.1-7.1,10.6-10.6
						c1.7-1.7,3.5-3.4,5.2-5.2c0,0,0,0,0.1-0.1c1.2-1.2,1.3-3.5,0-4.7c-1.3-1.2-3.4-1.3-4.7,0c-1.4,1.4-2.8,2.8-4.2,4.2
						C85.4,90.2,82,93.6,78.6,97c-4.1,4.1-8.2,8.2-12.3,12.3c-3.5,3.5-7.1,7.1-10.6,10.6c-1.7,1.7-3.5,3.4-5.2,5.2c0,0,0,0-0.1,0.1
						c-1.2,1.2-1.3,3.5,0,4.7C51.7,131,53.7,131.1,55,129.8L55,129.8z"/>
				</g>
			</g>
		</g>
	</g>
</g>
<g class="st0">
	<title>Artboard 11</title>
	<g class="st1">
		<path d="M160.5,73h-8.3c-1.7-7.6-4.6-14.7-8.8-21.3l5.8-5.8c1.4-1.4,1.4-3.4,0-4.7l0,0l-14.4-14.4c-1.4-1.4-3.4-1.4-4.7,0l0,0
			l-5.8,5.8c-6.4-4.2-13.7-7.3-21.3-8.8v-8.3c0-1.9-1.5-3.4-3.4-3.4l0,0H79.2c-1.9,0-3.4,1.5-3.4,3.4v0.2v8.3
			c-7.6,1.7-14.7,4.6-21.3,8.8l-5.8-5.9c-1.4-1.4-3.4-1.4-4.7,0l0,0L29.6,41.2c-1.4,1.4-1.4,3.4,0,4.7l0,0l5.8,5.8
			c-4.2,6.4-7.3,13.7-8.8,21.3h-8.3c-1.9,0-3.4,1.5-3.4,3.4l0,0v20.3c0,1.9,1.5,3.4,3.4,3.4h0.2h8.3c1.7,7.6,4.6,14.7,8.8,21.3
			l-5.9,5.9c-1.4,1.4-1.4,3.4,0,4.7l0,0L44,146.3c1.4,1.4,3.4,1.4,4.7,0l0,0l5.8-5.7c6.4,4.2,13.7,7.3,21.3,8.8v8.3
			c0,1.9,1.5,3.4,3.4,3.4l0,0h20.3c1.9,0,3.4-1.5,3.4-3.4v0v-8.3c7.6-1.7,14.7-4.6,21.3-8.8l5.7,5.8c1.4,1.4,3.4,1.4,4.7,0l0,0
			l14.4-14.4c1.4-1.4,1.4-3.4,0-4.7l0,0l-5.7-5.8c4.2-6.4,7.3-13.7,8.8-21.3h8.4c1.9,0,3.4-1.5,3.4-3.4l0,0V76.4
			C163.9,74.5,162.4,73,160.5,73L160.5,73z M157.1,93.3h-7.4c-1.7,0-3,1.2-3.4,2.9c-1.4,8.6-4.7,16.6-9.8,23.7
			c-1,1.4-0.8,3.2,0.3,4.4l5.4,5.4l-9.7,9.7l-5.4-5.4c-1.2-1.2-3-1.4-4.4-0.3c-7.1,5.1-15.2,8.5-23.7,9.8c-1.7,0.3-2.9,1.7-2.9,3.4
			v7.4H82.6v-7.4c0-1.7-1.2-3-2.9-3.4c-8.7-1.4-16.6-4.7-23.8-9.8c-1.4-1-3.2-0.8-4.4,0.3l-5.4,5.4l-9.7-9.7l5.4-5.4
			c1.2-1.2,1.4-3,0.3-4.4c-5.1-7.1-8.5-15.2-9.8-23.7c-0.3-1.7-1.7-2.9-3.4-2.9h-7.3V79.8h7.4c1.7,0,3-1.2,3.4-2.9
			c1.4-8.7,4.7-16.6,9.8-23.8c1-1.4,0.8-3.2-0.3-4.4l-5.4-5.4l9.7-9.7l5.4,5.4c1.2,1.2,3,1.4,4.4,0.3c7.1-5.1,15.2-8.5,23.7-9.8
			c1.7-0.3,2.9-1.7,2.9-3.4v-7.3h13.5v6.8c0,1.7,1.2,3.1,2.9,3.4c8.7,1.4,16.6,4.8,23.8,9.9c1.4,1,3.2,0.9,4.4-0.3l5.4-5.5l9.7,9.8
			l-5.4,5.5c-1.2,1.2-1.4,3.1-0.3,4.5c5.1,7.2,8.5,15.4,9.8,24c0.3,1.7,1.7,2.9,3.4,2.9h7.3V93.3z"/>
		<path d="M88.9,39.1c-26.2,0-47.4,21.2-47.4,47.4s21.2,47.4,47.4,47.4s47.4-21.2,47.4-47.4S115.1,39.1,88.9,39.1z M82.6,126.5
			v-18.6c0-1.4-0.7-2.5-1.9-3c-10.4-4.7-14.8-16.8-9.9-26.9c1.2-2.5,3-4.7,5-6.4v13.4c0,3.7,3,6.8,6.8,6.8h13.5c3.7,0,6.8-3,6.8-6.8
			V71.5c8.5,7.5,9.4,20.1,1.7,28.4c-1.9,2-4.2,3.7-6.6,4.9c-1.2,0.5-1.9,1.7-1.9,3v18.6C91.5,127.3,86.9,127.3,82.6,126.5z
			 M102.9,124.8v-14.9c12.9-7.5,17.4-23.9,10-36.7c-2.7-4.7-6.9-8.6-11.9-11c-1.7-0.8-3.7-0.2-4.6,1.5c-0.2,0.5-0.3,1-0.3,1.5v19.6
			H82.6V65.2c0-1.9-1.5-3.4-3.4-3.4c-0.5,0-1,0.2-1.5,0.3C64.2,68.4,58.4,84.5,64.8,98c2.4,5.1,6.3,9.1,11,11.9v14.9
			c-21.9-7.7-32.9-32.3-23.9-54c7.8-18.7,28.6-28.7,48.1-23.4c23,6.3,35.3,30.6,27.5,52.7C123.6,111.6,114.5,120.7,102.9,124.8z"/>
	</g>
</g>
<g class="st0">
	<g class="st1">
		<path d="M163.2,121.4c-0.4-8.9-7.5-16-16.4-16c-8.3,0-15.2,6.5-16.2,15.3H92.4V82.3h6.5c1.2-1,2-1.8,1.6-3V67.2
			c0.4-1.2-1.6-3.1-1.6-3.1h-4.4v-6.2c0-3.2-2.5-6-5.9-6H76c-3.1,0-5.9,2.6-5.9,6v6.2h-4.4c0,0-2,1.9-1.6,3.1v12.1
			c-0.4,1.2,0.4,2,1.6,3h6.5v38.4h-38c-1-9.1-7.9-15.3-16.2-15.3c-8.9,0-16,7.1-16.4,16c0,0.2-0.2,0.4-0.2,0.6c0,1.2,0.8,2,2,2.8
			h71.4h15h71.6c1.2-0.8,2-1.6,2-2.8C163.4,121.8,163.4,121.6,163.2,121.4z M147,110.2c6.1,0,11.1,4.7,12.1,10.5h-24.3
			C135.7,114.9,140.7,110.2,147,110.2z M74,58c0-1,0.8-2,2-2h12.4c1,0,1.9,0.8,1.9,2v6.1H74.2V58H74z M67.9,70.2h4h20.5h4v8.1h-6.8
			H74.9h-6.8v-8.1H67.9z M18,110.2c6.1,0,11.1,4.7,12.1,10.5H5.8C6.9,114.9,11.9,110.2,18,110.2z M78.3,120.7V82.3h10.1v38.4H78.3z"
			/>
		<path d="M51.8,47.6c0.4,0.4,1,0.6,1.4,0.6c0.6,0,1-0.2,1.4-0.6c0.8-0.8,0.8-2,0-2.8l-5.7-5.9c-0.8-0.8-2-0.8-2.8,0
			c-0.8,0.8-0.8,2,0,2.8L51.8,47.6z"/>
		<path d="M35.8,58.4l7.5,1.6c0.2,0,0.2,0,0.4,0c1,0,1.8-0.6,2-1.6c0.2-1-0.4-2.2-1.6-2.4l-7.5-1.6c-1-0.2-2.2,0.4-2.4,1.6
			C34,57.2,34.8,58.2,35.8,58.4z"/>
		<path d="M36.2,80.3c0.2,0,0.2,0,0.4,0l7.5-1.6c1-0.2,1.8-1.2,1.6-2.4c-0.2-1-1.2-1.8-2.4-1.6l-7.5,1.6c-1,0.2-1.8,1.2-1.6,2.4
			C34.6,79.7,35.4,80.3,36.2,80.3z"/>
		<path d="M50.7,87.8l-4.7,4.9c-0.8,0.8-0.8,2,0,2.8c0.4,0.4,0.8,0.6,1.4,0.6s1-0.2,1.4-0.6l4.7-4.9c0.8-0.8,0.8-2,0-2.8
			C52.8,87,51.6,87,50.7,87.8z"/>
		<path d="M113.8,48.2c0.6,0,1-0.2,1.4-0.6l5.7-5.9c0.8-0.8,0.8-2,0-2.8c-0.8-0.8-2-0.8-2.8,0l-5.7,5.9c-0.8,0.8-0.8,2,0,2.8
			C112.8,48,113.2,48.2,113.8,48.2z"/>
		<path d="M121.5,58.4c0.2,1,1,1.6,2,1.6c0.2,0,0.2,0,0.4,0l7.5-1.6c1-0.2,1.8-1.2,1.6-2.4c-0.2-1-1.2-1.8-2.4-1.6L123,56
			C121.9,56.2,121.1,57.2,121.5,58.4z"/>
		<path d="M123,78.7l7.5,1.6c0.2,0,0.2,0,0.4,0c1,0,1.8-0.6,2-1.6c0.2-1-0.4-2.2-1.6-2.4l-7.5-1.6c-1-0.2-2.2,0.4-2.4,1.6
			C121.1,77.2,121.9,78.3,123,78.7z"/>
		<path d="M116.3,87.8c-0.8-0.8-2-0.8-2.8,0c-0.8,0.8-0.8,2,0,2.8l4.7,4.9c0.4,0.4,1,0.6,1.4,0.6c0.6,0,1-0.2,1.4-0.6
			c0.8-0.8,0.8-2,0-2.8L116.3,87.8z"/>
	</g>
</g>
<g class="st0">
	<title>a</title>
	<g class="st1">
		<circle cx="66" cy="121.3" r="6.2"/>
		<path d="M172,105.1v-8.7c0-0.9-0.3-1.6-0.9-2.2l-15.6-15.6c-0.6-0.6-1.2-0.9-2.2-0.9h-46.8V46.4c0-3.4-2.8-6.2-6.2-6.2H69
			c-3.4,0-6.2,2.8-6.2,6.2v21.8H11c-1.9,0-3.4,0.6-4.7,2.2c-2.8,2.8-5.9,10-5.9,25.9v21.8c0,3.4,2.8,6.2,6.2,6.2h3.4
			c1.6,10.3,11.2,17.2,21.5,15.3c7.8-1.2,14-7.5,15.3-15.3h0.6c1.6,10.3,11.2,17.2,21.5,15.3c7.8-1.2,14-7.5,15.3-15.3h2.2
			c1.6,0,3.1-0.6,4.4-1.9l13.7-13.7c1.2-1.2,1.9-2.8,1.9-4.4v-8.1h39.3l6.2,6.2h-33.1c-3.4,0-6.2,2.8-6.2,6.2v20
			c0,2.5,1.2,4.7,3.4,5.6l10.9,5.3l0,0c0.3,0.3,0.9,0.3,1.2,0.3h9.4c1.9,0,3.1-1.2,3.1-3.1s-1.2-3.1-3.1-3.1h-6.2v-25h17.2
			c-7.4,8.5-6.1,21.7,3.7,28.1c7.1,4.7,16.9,4,23.1-1.9c8.2-7.7,8-20.6-0.3-27.8C174.2,106.6,173.2,105.7,172,105.1z M81.5,90.1
			V58.9h18.7v31.2H81.5z M6.6,96.3c0-15.6,3.4-20.6,4.4-21.8h51.8v28.4c-7.8,1.2-14,7.5-15.3,15.3h-0.3c0,0,0,0,0-0.3
			c-1.9-10.3-11.7-16.8-22.2-15c-7.9,1.2-14,7.5-15.2,15c0,0,0,0,0,0.3H6.6V96.3z M28.6,133.8c-6.9,0-12.5-5.6-12.5-12.5
			s5.6-12.5,12.5-12.5S41,114.4,41,121.3S35.4,133.8,28.6,133.8z M66,133.8c-6.9,0-12.5-5.6-12.5-12.5s5.6-12.5,12.5-12.5
			s12.5,5.6,12.5,12.5S72.8,133.8,66,133.8z M100.2,104.2l-14,14H84c-1.3-7.6-7.3-13.7-15-15.6c-0.3,0,0.3,0,0,0V46.4h31.2v6.2H81.5
			c-3.4,0-6.2,2.8-6.2,6.2v31.2c0,3.4,2.8,6.2,6.2,6.2h18.7V104.2z M147,90.1h-40.6v-6.2H152l13.7,13.7v5h-0.3
			c-0.9-0.3-1.9-0.3-2.8-0.3s-1.9,0-2.8,0.3h-0.3v-0.3c0-0.9-0.3-1.5-0.9-2.1l-9.4-9.1C148.6,90.4,148,90.1,147,90.1z M118.9,108.8
			h6.2v23.1l-6.2-3.1V108.8z M162.7,133.8c-6.9,0-12.5-5.6-12.5-12.5c0-5,2.8-9.4,7.5-11.2l0,0c2.5-0.9,5-1.2,7.5-0.6
			c6.9,1.6,10.9,8.1,9.7,15C173.6,129.7,168.6,133.8,162.7,133.8z"/>
		<circle cx="162.7" cy="121.3" r="6.2"/>
		<circle cx="28.6" cy="121.3" r="6.2"/>
		<path d="M16.1,96.3h25c1.9,0,3.1-1.2,3.1-3.1c0-1.9-1.2-3.1-3.1-3.1h-25c-1.9,0-3.1,1.2-3.1,3.1C13,95.1,14.2,96.3,16.1,96.3z"/>
		<path d="M16.1,87h25c1.9,0,3.1-1.2,3.1-3.1c0-1.9-1.2-3.1-3.1-3.1h-25c-1.9,0-3.1,1.2-3.1,3.1C13,85.7,14.2,87,16.1,87z"/>
	</g>
</g>
<g class="st0">
	<title>015 - Tractor</title>
	<desc>Created with Sketch.</desc>
	<g class="st1">
		<g>
			<path d="M33,116.8c-8.4,0-14.9,6.6-14.9,14.9s6.6,14.9,14.9,14.9s14.9-6.6,14.9-14.9S41.3,116.8,33,116.8z M33,140.7
				c-5.1,0-9-3.9-9-9c0-5.1,3.9-9,9-9s9,3.9,9,9C41.9,136.8,38.1,140.7,33,140.7z"/>
			<path d="M122.5,134.7c-3.6,0-6.9,2.1-8.4,5.7c-1.5,3.3-0.6,7.2,2.1,9.9c2.7,2.7,6.6,3.3,9.9,2.1c3.3-1.5,5.7-4.8,5.7-8.4
				C131.5,138.9,127.6,134.7,122.5,134.7z M122.5,146.7c-1.8,0-3-1.5-3-3c0-1.8,1.5-3,3-3c1.8,0,3,1.5,3,3
				C125.5,145.5,124.3,146.7,122.5,146.7z"/>
			<path d="M46.7,162.5c8.7-3.9,15.2-11.6,17.9-20.9h37.3c-1.2,8.4,2.7,16.7,9.9,20.9 M133.5,161.6c6-3.6,9.9-10.2,10.2-17.3
				c0.3-7.2-3-13.7-9-17.9v-23.9c0-1.5-1.2-2.7-2.7-3L114,97.4l8.1-42.4h30.5H166c0.9,0,1.5-0.3,2.1-0.9l10.4-10.4
				c1.2-1.2,1.2-3,0-4.2l-25.4-25.4c-1.2-1.2-3-1.2-4.2,0l-10.4,10.4c-0.6,0.6-0.9,1.2-0.9,2.1v13.4c0,0.9,0.3,1.5,0.9,2.1l6.9,6.9
				h-24.5l-6-6h13.6c0,0,3-2.1,3-3.9s-1.2-3-3-2.1h-20.9c-0.3-0.9-0.6-0.9-1.2-0.6c0,0-0.3,0-0.3,0.3c-0.3,0-0.6,0.3-1.3,0.3l0,0
				v0.3c0.4,0.3,0.4,0.3,0.4,0.6l2.5,0.3v0.3L93.9,94.4l-10-1.2V58c0-1.6-1.3-3-3-3H27.2c-1.8,0-3,1.2-3,3s1.2,3,3,3h3v26.9h-3
				c-1.8,0-3,1.2-3,3s1.2,3,3,3h3v5.4c-14.9,1.2-26.9,12.5-29.3,27.2s5.1,29,18.5,35.2 M143.6,27.9l7.5-7.5l21.2,21.2l-7.5,7.5h-11
				l-10.2-10.2V27.9z M77.9,96.8v11.9h-4.5c-3.6-6.9-9.6-12.8-16.4-16.4V61h20.9V96.8z M36.1,61h14.9v28.7
				c-3.9-1.2-7.8-1.8-11.9-1.8h-3V61z M39.1,93.8c4.8,0,9.3,0.9,13.7,3c7.2,3.3,12.8,9,16.1,16.1c2.1,4.2,3,9,3,13.7v9l-6,0
				c0-0.1-0.1-0.1-0.1-0.1c1.5-18.3-11.8-33.8-29.7-35.4v-6.3H39.1z M33,158.6c-11.3,0-21.5-7.2-25.4-17.9S7,118,16,110.8
				c8.7-7.2,21.2-8.1,30.8-2.1c9.6,6,14.6,17.3,12.5,28.4C56.9,149.7,45.8,158.6,33,158.6z M137.5,143.7c0,8.4-6.6,14.9-14.9,14.9
				c-8.4,0-14.9-6.6-14.9-14.9c0-8.4,6.6-14.9,14.9-14.9C130.9,128.8,137.5,135.3,137.5,143.7z M128.7,124.6
				c-9.9-3-20.3,1.8-24.8,11h-26v-9c0-4.2-0.6-8.1-1.8-11.9h4.8c0,0,0,0,0.3,0c0.3,0,0,0,0,0l38.2,3h0.3c1.8,0,3-1.2,3-3
				c0-1.8-1.2-3-3-3l-35.8-2.7v-8.7l44.8,5.4V124.6z M99.6,95l9.9-49.9l6.9,6.9l-8.4,43.9L99.6,95z"/>
		</g>
	</g>
</g>
<g class="st0">
	<path class="st1" d="M151.5,20L6.3,123.4c-1.5,1.1-1.8,2.8-0.7,4.3l0,0l17.8,25c1.1,1.5,2.8,1.8,4.3,0.7l0,0L172.9,50
		c1.5-1.1,1.8-2.8,0.7-4.3l0,0l-17.8-25C154.7,19.2,153,18.9,151.5,20L151.5,20z M156.8,53.9l-8.8,6.2c1.2-9.5-4.9-18-14.3-20
		l8.8-6.2L156.8,53.9z M38.7,123.8c-3.9-5.5-2.6-13.2,2.9-17.1s13.2-2.6,17.1,2.9c3.9,5.5,2.6,13.2-2.9,17.1S42.6,129.3,38.7,123.8z
		 M53.7,97.2L70,85.6l5.3,7.5c1.1,1.5,2.8,1.8,4.3,0.7l0,0l20-14.3c1.5-1.1,1.8-2.8,0.7-4.3l0,0L95,67.8l16.3-11.6
		c-1.2,9.5,4.9,18,14.3,20l-57.6,41C68.9,107.9,62.8,99.4,53.7,97.2z M118.7,66.7c-3.9-5.5-2.6-13.2,2.9-17.1s13.2-2.6,17.1,2.9
		s2.6,13.2-2.9,17.1C130.4,73.5,122.7,72.2,118.7,66.7z M90,71.3l3.6,5l-15,10.7L75,82L90,71.3z M12.4,126.6l5-3.6l14.3,20l-5,3.6
		L12.4,126.6z M22.4,119.5l8.8-6.2c-1.2,9.5,4.9,18,14.3,20l-8.8,6.2L22.4,119.5z M166.8,46.8l-5,3.6l-14.3-20l5-3.6L166.8,46.8z"/>
	<path class="st1" d="M42.6,124l15-10.7c1.5-1.1,1.8-2.8,0.7-4.3c-1.1-1.5-2.8-1.8-4.3-0.7L39,119c-1.5,1.1-1.8,2.8-0.7,4.3
		C39.4,124.8,41.1,125,42.6,124z"/>
	<path class="st1" d="M122.7,66.9l15-10.7c1.5-1.1,1.8-2.8,0.7-4.3c-1.1-1.5-2.8-1.8-4.3-0.7l-15,10.7c-1.5,1.1-1.8,2.8-0.7,4.3
		C119.5,67.7,121.2,68,122.7,66.9z"/>
</g>
<g>
	<path d="M129.8,0.7l-19.6,22.8v21.2h-16V23.4L74.7,0.7L55.1,23.4v21.2h-16V23.4L19.6,0.7L0,23.4V146h39.1v-24.9h16V146h39.1v-24.9
		h16V146h39.1V96.4v-73L129.8,0.7z M33.8,142.4H3.6v-21.3h30.2V142.4L33.8,142.4z M33.8,117.5H3.6V49.9h30.2v67V117.5z M33.8,44.6
		H3.6V24.9L18.7,6.7l15.1,18.1v20V44.6z M55.1,117.5h-16V49.9h16V117.5z M90.5,142.4H58.7v-21.3h32v21.3H90.5z M90.5,117.5H58.7
		V49.9h32v67.6H90.5z M90.5,44.6H58.7V24.9l16-18.1l16,18.1v19.7H90.5z M110.3,117.5h-16V49.9h16V117.5z M144.1,142.4h-30.2v-21.3
		h30.2V142.4L144.1,142.4z M144.1,117.5h-30.2V49.9h30.2v67V117.5z M145.7,44.6h-31.8V24.9l16-18.1l16,18.1v19.7H145.7z"/>
</g>
</svg>
